<?xml version="1.0" encoding="utf-8"?>
<!-- Generator: Adobe Illustrator 26.4.1, SVG Export Plug-In . SVG Version: 6.00 Build 0)  -->
<svg version="1.1" id="Layer_1" xmlns="http://www.w3.org/2000/svg" xmlns:xlink="http://www.w3.org/1999/xlink" x="0px" y="0px"
	 viewBox="0 0 172.4 144.7" style="enable-background:new 0 0 172.4 144.7;" xml:space="preserve">
<style type="text/css">
	.st0{fill:#FFFFFF;}
	.st1{clip-path:url(#SVGID_00000039849346737000183660000005252138395848839810_);}
	.st2{fill-opacity:0.5;}
	.st3{clip-path:url(#SVGID_00000022536951816985499070000008930270095008776340_);}
	.st4{clip-path:url(#SVGID_00000024711333589871778600000013285755151882491535_);}
	.st5{clip-path:url(#SVGID_00000023255846582721128840000017220591957229680285_);}
	.st6{clip-path:url(#SVGID_00000147208325528403124700000004894530140774712747_);}
	.st7{clip-path:url(#SVGID_00000123425524489789613740000005435562619437031089_);}
	.st8{clip-path:url(#SVGID_00000023250443750620816710000008927132111381883837_);}
	.st9{clip-path:url(#SVGID_00000023975400234800863450000014399991762918316462_);}
	.st10{clip-path:url(#SVGID_00000076590789642820871070000006741317378615209091_);}
	.st11{clip-path:url(#SVGID_00000097467624717642521680000009223703406382732951_);}
	.st12{clip-path:url(#SVGID_00000145054711705987300210000002476751882263680389_);}
	.st13{clip-path:url(#SVGID_00000063597285511023407780000006891237616939169679_);}
	.st14{clip-path:url(#SVGID_00000011723066799978781750000016345619383147280283_);}
	.st15{clip-path:url(#SVGID_00000090284977554396016440000001710522922582748591_);}
	.st16{clip-path:url(#SVGID_00000086651777974907145690000016219862435412235905_);fill-opacity:0.5;}
	.st17{stroke:#000000;stroke-width:0.8;stroke-linejoin:round;}
	
		.st18{clip-path:url(#SVGID_00000172426277200273850280000013639850698371205535_);fill:none;stroke:#000000;stroke-width:1.5;stroke-linecap:square;stroke-linejoin:round;}
	.st19{fill:none;stroke:#000000;stroke-width:0.8;stroke-linecap:square;}
</style>
<g id="figure_1">
	<g id="axes_1">
		<g id="patch_2">
			<path class="st0" d="M21.6,128.8h133.6V17.4H21.6V128.8z"/>
		</g>
		<g id="PathCollection_1">
			<g>
				<defs>
					<rect id="SVGID_1_" x="21.6" y="17.4" width="133.6" height="111.4"/>
				</defs>
				<clipPath id="SVGID_00000137810698620796264350000003300879573937217167_">
					<use xlink:href="#SVGID_1_"  style="overflow:visible;"/>
				</clipPath>
				<g style="clip-path:url(#SVGID_00000137810698620796264350000003300879573937217167_);">
					<g>
						<path id="C0_0_74f6f198ad" class="st2" d="M27.6,103c0.8,0,1.6-0.3,2.1-0.9c0.6-0.6,0.9-1.3,0.9-2.1s-0.3-1.6-0.9-2.1
							c-0.6-0.6-1.3-0.9-2.1-0.9s-1.6,0.3-2.1,0.9c-0.6,0.6-0.9,1.3-0.9,2.1s0.3,1.6,0.9,2.1C26.1,102.6,26.8,103,27.6,103z"/>
					</g>
				</g>
			</g>
			<g>
				<defs>
					<rect id="SVGID_00000037651230674941796930000000179887646002214808_" x="21.6" y="17.4" width="133.6" height="111.4"/>
				</defs>
				<clipPath id="SVGID_00000020388350763523595820000012056064848151738027_">
					<use xlink:href="#SVGID_00000037651230674941796930000000179887646002214808_"  style="overflow:visible;"/>
				</clipPath>
				<g style="clip-path:url(#SVGID_00000020388350763523595820000012056064848151738027_);">
					<g>
						<path id="C0_0_74f6f198ad_00000147934860756664999510000012559164387962921363_" class="st2" d="M27.6,120.4
							c0.8,0,1.6-0.3,2.1-0.9c0.6-0.6,0.9-1.3,0.9-2.1s-0.3-1.6-0.9-2.1c-0.6-0.6-1.3-0.9-2.1-0.9s-1.6,0.3-2.1,0.9
							c-0.6,0.6-0.9,1.3-0.9,2.1s0.3,1.6,0.9,2.1C26.1,120,26.8,120.4,27.6,120.4z"/>
					</g>
				</g>
			</g>
			<g>
				<defs>
					<rect id="SVGID_00000012441589085587855710000015534234034038401953_" x="21.6" y="17.4" width="133.6" height="111.4"/>
				</defs>
				<clipPath id="SVGID_00000034807822545088736000000011037811778886465726_">
					<use xlink:href="#SVGID_00000012441589085587855710000015534234034038401953_"  style="overflow:visible;"/>
				</clipPath>
				<g style="clip-path:url(#SVGID_00000034807822545088736000000011037811778886465726_);">
					<g>
						<path id="C0_0_74f6f198ad_00000098206913541264876700000000777922195734259845_" class="st2" d="M27.6,94.8
							c0.8,0,1.6-0.3,2.1-0.9c0.6-0.6,0.9-1.3,0.9-2.1s-0.3-1.6-0.9-2.1c-0.6-0.6-1.3-0.9-2.1-0.9s-1.6,0.3-2.1,0.9
							c-0.6,0.6-0.9,1.3-0.9,2.1s0.3,1.6,0.9,2.1C26.1,94.4,26.8,94.8,27.6,94.8z"/>
					</g>
				</g>
			</g>
			<g>
				<defs>
					<rect id="SVGID_00000007404417688236770550000010087589761390295965_" x="21.6" y="17.4" width="133.6" height="111.4"/>
				</defs>
				<clipPath id="SVGID_00000036945791510055324180000012001846129895099016_">
					<use xlink:href="#SVGID_00000007404417688236770550000010087589761390295965_"  style="overflow:visible;"/>
				</clipPath>
				<g style="clip-path:url(#SVGID_00000036945791510055324180000012001846129895099016_);">
					<g>
						<path id="C0_0_74f6f198ad_00000176739203437751318640000016644339367663251341_" class="st2" d="M27.6,76.6
							c0.8,0,1.6-0.3,2.1-0.9c0.6-0.6,0.9-1.3,0.9-2.1s-0.3-1.6-0.9-2.1c-0.6-0.6-1.3-0.9-2.1-0.9s-1.6,0.3-2.1,0.9
							c-0.6,0.6-0.9,1.3-0.9,2.1s0.3,1.6,0.9,2.1C26.1,76.3,26.8,76.6,27.6,76.6z"/>
					</g>
				</g>
			</g>
			<g>
				<defs>
					<rect id="SVGID_00000171706682745964780460000013868697462049598859_" x="21.6" y="17.4" width="133.6" height="111.4"/>
				</defs>
				<clipPath id="SVGID_00000118384025204229582150000013213468069899597956_">
					<use xlink:href="#SVGID_00000171706682745964780460000013868697462049598859_"  style="overflow:visible;"/>
				</clipPath>
				<g style="clip-path:url(#SVGID_00000118384025204229582150000013213468069899597956_);">
					<g>
						<path id="C0_0_74f6f198ad_00000172422985614176726280000000807534569720819104_" class="st2" d="M27.6,37.1
							c0.8,0,1.6-0.3,2.1-0.9c0.6-0.6,0.9-1.3,0.9-2.1s-0.3-1.6-0.9-2.1c-0.6-0.6-1.3-0.9-2.1-0.9s-1.6,0.3-2.1,0.9
							c-0.6,0.6-0.9,1.3-0.9,2.1s0.3,1.6,0.9,2.1C26.1,36.8,26.8,37.1,27.6,37.1z"/>
					</g>
				</g>
			</g>
		</g>
		<g id="PathCollection_2">
			<g>
				<defs>
					<rect id="SVGID_00000003080341432194483290000003646090014473391507_" x="21.6" y="17.4" width="133.6" height="111.4"/>
				</defs>
				<clipPath id="SVGID_00000027574857520523286920000010740272475577291699_">
					<use xlink:href="#SVGID_00000003080341432194483290000003646090014473391507_"  style="overflow:visible;"/>
				</clipPath>
				<g style="clip-path:url(#SVGID_00000027574857520523286920000010740272475577291699_);">
					<g>
						<path id="C1_0_5a782b47b2" class="st2" d="M58,104.9c0.8,0,1.6-0.3,2.1-0.9c0.6-0.6,0.9-1.3,0.9-2.1s-0.3-1.6-0.9-2.1
							c-0.6-0.6-1.3-0.9-2.1-0.9s-1.6,0.3-2.1,0.9c-0.6,0.6-0.9,1.3-0.9,2.1s0.3,1.6,0.9,2.1C56.4,104.6,57.2,104.9,58,104.9z"/>
					</g>
				</g>
			</g>
			<g>
				<defs>
					<rect id="SVGID_00000043458491290270106240000015040504202373884850_" x="21.6" y="17.4" width="133.6" height="111.4"/>
				</defs>
				<clipPath id="SVGID_00000168103631217624235760000013875850516156719012_">
					<use xlink:href="#SVGID_00000043458491290270106240000015040504202373884850_"  style="overflow:visible;"/>
				</clipPath>
				<g style="clip-path:url(#SVGID_00000168103631217624235760000013875850516156719012_);">
					<g>
						<path id="C1_0_5a782b47b2_00000104695839886206647540000017221561600335001781_" class="st2" d="M58,126.7
							c0.8,0,1.6-0.3,2.1-0.9c0.6-0.6,0.9-1.3,0.9-2.1s-0.3-1.6-0.9-2.1c-0.6-0.6-1.3-0.9-2.1-0.9s-1.6,0.3-2.1,0.9
							c-0.6,0.6-0.9,1.3-0.9,2.1s0.3,1.6,0.9,2.1C56.4,126.4,57.2,126.7,58,126.7z"/>
					</g>
				</g>
			</g>
			<g>
				<defs>
					<rect id="SVGID_00000023255937382823928030000008788061611746588828_" x="21.6" y="17.4" width="133.6" height="111.4"/>
				</defs>
				<clipPath id="SVGID_00000086649553319728275950000000952102404075687590_">
					<use xlink:href="#SVGID_00000023255937382823928030000008788061611746588828_"  style="overflow:visible;"/>
				</clipPath>
				<g style="clip-path:url(#SVGID_00000086649553319728275950000000952102404075687590_);">
					<g>
						<path id="C1_0_5a782b47b2_00000169539011079782832460000003456051903616880319_" class="st2" d="M58,64.3
							c0.8,0,1.6-0.3,2.1-0.9c0.6-0.6,0.9-1.3,0.9-2.1s-0.3-1.6-0.9-2.1c-0.6-0.6-1.3-0.9-2.1-0.9s-1.6,0.3-2.1,0.9
							c-0.6,0.6-0.9,1.3-0.9,2.1s0.3,1.6,0.9,2.1C56.4,63.9,57.2,64.3,58,64.3z"/>
					</g>
				</g>
			</g>
			<g>
				<defs>
					<rect id="SVGID_00000128482614439967989500000005547435398589728956_" x="21.6" y="17.4" width="133.6" height="111.4"/>
				</defs>
				<clipPath id="SVGID_00000029025537872921075160000013170718074496186752_">
					<use xlink:href="#SVGID_00000128482614439967989500000005547435398589728956_"  style="overflow:visible;"/>
				</clipPath>
				<g style="clip-path:url(#SVGID_00000029025537872921075160000013170718074496186752_);">
					<g>
						<path id="C1_0_5a782b47b2_00000138537718393324312020000017303548070550024320_" class="st2" d="M58,25.4
							c0.8,0,1.6-0.3,2.1-0.9c0.6-0.6,0.9-1.3,0.9-2.1s-0.3-1.6-0.9-2.1c-0.6-0.6-1.3-0.9-2.1-0.9s-1.6,0.3-2.1,0.9
							c-0.6,0.6-0.9,1.3-0.9,2.1s0.3,1.6,0.9,2.1C56.4,25.1,57.2,25.4,58,25.4z"/>
					</g>
				</g>
			</g>
		</g>
		<g id="PathCollection_3">
			<g>
				<defs>
					<rect id="SVGID_00000009581601816639221910000007436105501516861617_" x="21.6" y="17.4" width="133.6" height="111.4"/>
				</defs>
				<clipPath id="SVGID_00000114775606500742896140000014954636924509996986_">
					<use xlink:href="#SVGID_00000009581601816639221910000007436105501516861617_"  style="overflow:visible;"/>
				</clipPath>
				<g style="clip-path:url(#SVGID_00000114775606500742896140000014954636924509996986_);">
					<g>
						<path id="C2_0_9f37c89988" class="st2" d="M88.4,115.1c0.8,0,1.6-0.3,2.1-0.9c0.6-0.6,0.9-1.3,0.9-2.1s-0.3-1.6-0.9-2.1
							c-0.6-0.6-1.3-0.9-2.1-0.9s-1.6,0.3-2.1,0.9c-0.6,0.6-0.9,1.3-0.9,2.1s0.3,1.6,0.9,2.1C86.8,114.8,87.6,115.1,88.4,115.1z"/>
					</g>
				</g>
			</g>
			<g>
				<defs>
					<rect id="SVGID_00000151543949578549514800000015560344510615773113_" x="21.6" y="17.4" width="133.6" height="111.4"/>
				</defs>
				<clipPath id="SVGID_00000125575217844343178860000006898075443547460789_">
					<use xlink:href="#SVGID_00000151543949578549514800000015560344510615773113_"  style="overflow:visible;"/>
				</clipPath>
				<g style="clip-path:url(#SVGID_00000125575217844343178860000006898075443547460789_);">
					<g>
						<path id="C2_0_9f37c89988_00000048493279491962740750000000680521660360977061_" class="st2" d="M88.4,65.6
							c0.8,0,1.6-0.3,2.1-0.9c0.6-0.6,0.9-1.3,0.9-2.1s-0.3-1.6-0.9-2.1c-0.6-0.6-1.3-0.9-2.1-0.9s-1.6,0.3-2.1,0.9
							c-0.6,0.6-0.9,1.3-0.9,2.1s0.3,1.6,0.9,2.1C86.8,65.3,87.6,65.6,88.4,65.6z"/>
					</g>
				</g>
			</g>
			<g>
				<defs>
					<rect id="SVGID_00000090282131425418619820000016809255333137940123_" x="21.6" y="17.4" width="133.6" height="111.4"/>
				</defs>
				<clipPath id="SVGID_00000176735734758218311170000015394926079168594310_">
					<use xlink:href="#SVGID_00000090282131425418619820000016809255333137940123_"  style="overflow:visible;"/>
				</clipPath>
				<g style="clip-path:url(#SVGID_00000176735734758218311170000015394926079168594310_);">
					<g>
						<path id="C2_0_9f37c89988_00000067943546896995826600000005249605039579761834_" class="st2" d="M88.4,37.5
							c0.8,0,1.6-0.3,2.1-0.9c0.6-0.6,0.9-1.3,0.9-2.1s-0.3-1.6-0.9-2.1c-0.6-0.6-1.3-0.9-2.1-0.9s-1.6,0.3-2.1,0.9
							c-0.6,0.6-0.9,1.3-0.9,2.1s0.3,1.6,0.9,2.1C86.8,37.2,87.6,37.5,88.4,37.5z"/>
					</g>
				</g>
			</g>
		</g>
		<g id="PathCollection_4">
			<g>
				<defs>
					<rect id="SVGID_00000075161039045485874130000004616898971872202665_" x="21.6" y="17.4" width="133.6" height="111.4"/>
				</defs>
				<clipPath id="SVGID_00000073711973515267836930000016937937796348252327_">
					<use xlink:href="#SVGID_00000075161039045485874130000004616898971872202665_"  style="overflow:visible;"/>
				</clipPath>
				<g style="clip-path:url(#SVGID_00000073711973515267836930000016937937796348252327_);">
					<g>
						<path id="C3_0_59013bd796" class="st2" d="M118.7,52.6c0.8,0,1.6-0.3,2.1-0.9c0.6-0.6,0.9-1.3,0.9-2.1s-0.3-1.6-0.9-2.1
							c-0.6-0.6-1.3-0.9-2.1-0.9s-1.6,0.3-2.1,0.9c-0.6,0.6-0.9,1.3-0.9,2.1s0.3,1.6,0.9,2.1C117.2,52.3,118,52.6,118.7,52.6z"/>
					</g>
				</g>
			</g>
			<g>
				<defs>
					<rect id="SVGID_00000139982627646377694300000018218785794130121638_" x="21.6" y="17.4" width="133.6" height="111.4"/>
				</defs>
				<clipPath id="SVGID_00000068665570671327446350000016278782806501867669_">
					<use xlink:href="#SVGID_00000139982627646377694300000018218785794130121638_"  style="overflow:visible;"/>
				</clipPath>
				<g style="clip-path:url(#SVGID_00000068665570671327446350000016278782806501867669_);">
					<g>
						<path id="C3_0_59013bd796_00000106870399352619650600000014471741387910739602_" class="st2" d="M118.7,28.2
							c0.8,0,1.6-0.3,2.1-0.9c0.6-0.6,0.9-1.3,0.9-2.1s-0.3-1.6-0.9-2.1c-0.6-0.6-1.3-0.9-2.1-0.9s-1.6,0.3-2.1,0.9
							c-0.6,0.6-0.9,1.3-0.9,2.1s0.3,1.6,0.9,2.1C117.2,27.8,118,28.2,118.7,28.2z"/>
					</g>
				</g>
			</g>
		</g>
		<g id="PathCollection_5">
			<g>
				<defs>
					<rect id="SVGID_00000106854802064392443750000010091370933029549210_" x="21.6" y="17.4" width="133.6" height="111.4"/>
				</defs>
				<clipPath id="SVGID_00000011750470273520415380000005715924004743393956_">
					<use xlink:href="#SVGID_00000106854802064392443750000010091370933029549210_"  style="overflow:visible;"/>
				</clipPath>
				<path style="clip-path:url(#SVGID_00000011750470273520415380000005715924004743393956_);fill-opacity:0.5;" d="M149.1,33.2
					c0.8,0,1.6-0.3,2.1-0.9c0.6-0.6,0.9-1.3,0.9-2.1c0-0.8-0.3-1.6-0.9-2.1c-0.6-0.6-1.3-0.9-2.1-0.9s-1.6,0.3-2.1,0.9
					c-0.6,0.6-0.9,1.3-0.9,2.1c0,0.8,0.3,1.6,0.9,2.1S148.3,33.2,149.1,33.2z"/>
			</g>
		</g>
		<g id="matplotlib.axis_1">
			<g id="xtick_1">
				<g id="line2d_1">
					<g>
						<g>
							<path id="mc99a5c6281" class="st17" d="M27.6,128.8v3.5"/>
						</g>
					</g>
				</g>
			</g>
			<g id="xtick_2">
				<g id="line2d_2">
					<g>
						<g>
							<path id="mc99a5c6281_00000008836834264635920380000000554888940572733099_" class="st17" d="M58,128.8v3.5"/>
						</g>
					</g>
				</g>
			</g>
			<g id="xtick_3">
				<g id="line2d_3">
					<g>
						<g>
							<path id="mc99a5c6281_00000154419429633085418840000002018917998345258637_" class="st17" d="M88.4,128.8v3.5"/>
						</g>
					</g>
				</g>
			</g>
			<g id="xtick_4">
				<g id="line2d_4">
					<g>
						<g>
							<path id="mc99a5c6281_00000005979699680114394040000010392943752376640681_" class="st17" d="M118.7,128.8v3.5"/>
						</g>
					</g>
				</g>
			</g>
			<g id="xtick_5">
				<g id="line2d_5">
					<g>
						<g>
							<path id="mc99a5c6281_00000122680085098904965110000002634577760769747346_" class="st17" d="M149.1,128.8v3.5"/>
						</g>
					</g>
				</g>
			</g>
		</g>
		<g id="matplotlib.axis_2">
			<g id="ytick_1">
				<g id="line2d_6">
					<g>
						<g>
							<path id="m577b951e37" class="st17" d="M21.6,113.2h-3.5"/>
						</g>
					</g>
				</g>
			</g>
			<g id="ytick_2">
				<g id="line2d_7">
					<g>
						<g>
							<path id="m577b951e37_00000045597393038434160350000007836312638109058986_" class="st17" d="M21.6,95h-3.5"/>
						</g>
					</g>
				</g>
			</g>
			<g id="ytick_3">
				<g id="line2d_8">
					<g>
						<g>
							<path id="m577b951e37_00000173152604350860114210000013572658295286185380_" class="st17" d="M21.6,76.8h-3.5"/>
						</g>
					</g>
				</g>
			</g>
			<g id="ytick_4">
				<g id="line2d_9">
					<g>
						<g>
							<path id="m577b951e37_00000171702950043196493680000007959147019628414629_" class="st17" d="M21.6,58.6h-3.5"/>
						</g>
					</g>
				</g>
			</g>
			<g id="ytick_5">
				<g id="line2d_10">
					<g>
						<g>
							<path id="m577b951e37_00000075881332920269785010000001562706531106962346_" class="st17" d="M21.6,40.5h-3.5"/>
						</g>
					</g>
				</g>
			</g>
			<g id="ytick_6">
				<g id="line2d_11">
					<g>
						<g>
							<path id="m577b951e37_00000063620887801515128540000012257786454604668828_" class="st17" d="M21.6,22.3h-3.5"/>
						</g>
					</g>
				</g>
			</g>
		</g>
		<g id="line2d_12">
			<g>
				<defs>
					<rect id="SVGID_00000011735339893222689920000008051555427936163765_" x="21.6" y="17.4" width="133.6" height="111.4"/>
				</defs>
				<clipPath id="SVGID_00000028314059812547926240000010378183213689413273_">
					<use xlink:href="#SVGID_00000011735339893222689920000008051555427936163765_"  style="overflow:visible;"/>
				</clipPath>
				
					<path style="clip-path:url(#SVGID_00000028314059812547926240000010378183213689413273_);fill:none;stroke:#000000;stroke-width:1.5;stroke-linecap:square;stroke-linejoin:round;" d="
					M27.6,94.2L58,77.4l30.4-16.7L118.7,44l30.4-16.7"/>
			</g>
		</g>
		<g id="patch_3">
			<path class="st19" d="M21.6,128.8V17.4"/>
		</g>
		<g id="patch_4">
			<path class="st19" d="M155.2,128.8V17.4"/>
		</g>
		<g id="patch_5">
			<path class="st19" d="M21.6,128.8h133.6"/>
		</g>
		<g id="patch_6">
			<path class="st19" d="M21.6,17.4h133.6"/>
		</g>
	</g>
</g>
</svg>
