<?xml version="1.0" encoding="utf-8"?>
<!-- Generator: Adobe Illustrator 26.4.1, SVG Export Plug-In . SVG Version: 6.00 Build 0)  -->
<svg version="1.1" id="Layer_1" xmlns="http://www.w3.org/2000/svg" xmlns:xlink="http://www.w3.org/1999/xlink" x="0px" y="0px"
	 viewBox="0 0 173.5 134.6" style="enable-background:new 0 0 173.5 134.6;" xml:space="preserve">
<style type="text/css">
	.st0{fill:#FFFFFF;}
	.st1{clip-path:url(#SVGID_00000041259429332472356580000013963497219519973001_);fill:#808080;}
	.st2{clip-path:url(#SVGID_00000155836670204572283350000004291272530260044449_);fill:#808080;}
	.st3{clip-path:url(#SVGID_00000094584369477632711530000011852440740743549825_);fill:#808080;}
	.st4{clip-path:url(#SVGID_00000119077256662241529120000013172732891950702489_);fill:#808080;}
	.st5{clip-path:url(#SVGID_00000177470210214012273960000009140460761788548246_);fill:#808080;}
	.st6{clip-path:url(#SVGID_00000070822534209465209410000003457188790767398846_);fill:#808080;}
	.st7{clip-path:url(#SVGID_00000145035812943622747670000002707608060535559307_);}
	.st8{fill:#3333CC;stroke:#3333CC;stroke-linejoin:round;}
	.st9{clip-path:url(#SVGID_00000165929890959348951260000011703620157418485949_);}
	.st10{stroke:#000000;stroke-width:0.8;stroke-linejoin:round;}
	.st11{fill:none;stroke:#000000;stroke-width:0.8;stroke-linecap:square;}
</style>
<g id="figure_1">
	<g id="axes_1">
		<g id="patch_2">
			<path class="st0" d="M21.7,119.8h134.5V16.2H21.7V119.8z"/>
		</g>
		<g id="patch_3">
			<g>
				<defs>
					<rect id="SVGID_1_" x="21.7" y="16.2" width="134.5" height="103.7"/>
				</defs>
				<clipPath id="SVGID_00000025444353124293632850000000458533682814777239_">
					<use xlink:href="#SVGID_1_"  style="overflow:visible;"/>
				</clipPath>
				<path style="clip-path:url(#SVGID_00000025444353124293632850000000458533682814777239_);fill:#808080;" d="M27.8,119.8h16.9
					l0,0H27.8z"/>
			</g>
		</g>
		<g id="patch_4">
			<g>
				<defs>
					<rect id="SVGID_00000029038168777574927140000004116080960393570197_" x="21.7" y="16.2" width="134.5" height="103.7"/>
				</defs>
				<clipPath id="SVGID_00000024718507874498298610000016807697874207628989_">
					<use xlink:href="#SVGID_00000029038168777574927140000004116080960393570197_"  style="overflow:visible;"/>
				</clipPath>
				<path style="clip-path:url(#SVGID_00000024718507874498298610000016807697874207628989_);fill:#808080;" d="M48.9,119.8h16.9
					l0,0H48.9z"/>
			</g>
		</g>
		<g id="patch_5">
			<g>
				<defs>
					<rect id="SVGID_00000106852965501363612480000001923661033083632037_" x="21.7" y="16.2" width="134.5" height="103.7"/>
				</defs>
				<clipPath id="SVGID_00000083799811209905646320000000945045541444339884_">
					<use xlink:href="#SVGID_00000106852965501363612480000001923661033083632037_"  style="overflow:visible;"/>
				</clipPath>
				<path style="clip-path:url(#SVGID_00000083799811209905646320000000945045541444339884_);fill:#808080;" d="M70,119.8h16.9v-8.2
					H70V119.8z"/>
			</g>
		</g>
		<g id="patch_6">
			<g>
				<defs>
					<rect id="SVGID_00000110456933648902540080000018439970793289704362_" x="21.7" y="16.2" width="134.5" height="103.7"/>
				</defs>
				<clipPath id="SVGID_00000038402734055532283420000014433564197011202199_">
					<use xlink:href="#SVGID_00000110456933648902540080000018439970793289704362_"  style="overflow:visible;"/>
				</clipPath>
				<path style="clip-path:url(#SVGID_00000038402734055532283420000014433564197011202199_);fill:#808080;" d="M91,119.8h16.9l0,0
					H91z"/>
			</g>
		</g>
		<g id="patch_7">
			<g>
				<defs>
					<rect id="SVGID_00000074427227857915469470000012015947146010408360_" x="21.7" y="16.2" width="134.5" height="103.7"/>
				</defs>
				<clipPath id="SVGID_00000056416808429841262410000013370176638306196158_">
					<use xlink:href="#SVGID_00000074427227857915469470000012015947146010408360_"  style="overflow:visible;"/>
				</clipPath>
				<path style="clip-path:url(#SVGID_00000056416808429841262410000013370176638306196158_);fill:#808080;" d="M112.1,119.8H129
					l0,0H112.1z"/>
			</g>
		</g>
		<g id="patch_8">
			<g>
				<defs>
					<rect id="SVGID_00000036238588470163222560000015584385889021757102_" x="21.7" y="16.2" width="134.5" height="103.7"/>
				</defs>
				<clipPath id="SVGID_00000181086383842976846290000017805473623209623948_">
					<use xlink:href="#SVGID_00000036238588470163222560000015584385889021757102_"  style="overflow:visible;"/>
				</clipPath>
				<path style="clip-path:url(#SVGID_00000181086383842976846290000017805473623209623948_);fill:#808080;" d="M133.2,119.8h16.9
					V29.3h-16.9V119.8z"/>
			</g>
		</g>
		<g id="PathCollection_1">
			<g>
				<defs>
					<rect id="SVGID_00000083062916173975030620000012571703101577844390_" x="21.7" y="16.2" width="134.5" height="103.7"/>
				</defs>
				<clipPath id="SVGID_00000147932262156196351760000005931917608186000040_">
					<use xlink:href="#SVGID_00000083062916173975030620000012571703101577844390_"  style="overflow:visible;"/>
				</clipPath>
				<g style="clip-path:url(#SVGID_00000147932262156196351760000005931917608186000040_);">
					<g>
						<path id="m2ed1797185" class="st8" d="M37.1,122.8c0.8,0,1.6-0.3,2.1-0.9c0.6-0.6,0.9-1.3,0.9-2.1s-0.3-1.6-0.9-2.1
							c-0.6-0.6-1.3-0.9-2.1-0.9s-1.6,0.3-2.1,0.9c-0.6,0.6-0.9,1.3-0.9,2.1s0.3,1.6,0.9,2.1C35.5,122.5,36.3,122.8,37.1,122.8z"/>
					</g>
					<g>
						<path id="m2ed1797185_00000008848821708971047140000012825846999878484138_" class="st8" d="M56.3,122.8
							c0.8,0,1.6-0.3,2.1-0.9c0.6-0.6,0.9-1.3,0.9-2.1s-0.3-1.6-0.9-2.1c-0.6-0.6-1.3-0.9-2.1-0.9s-1.6,0.3-2.1,0.9
							c-0.6,0.6-0.9,1.3-0.9,2.1s0.3,1.6,0.9,2.1C54.7,122.5,55.5,122.8,56.3,122.8z"/>
					</g>
					<g>
						<path id="m2ed1797185_00000008827825147422390970000011386480950032212612_" class="st8" d="M79.1,122.8
							c0.8,0,1.6-0.3,2.1-0.9c0.6-0.6,0.9-1.3,0.9-2.1s-0.3-1.6-0.9-2.1c-0.6-0.6-1.3-0.9-2.1-0.9s-1.6,0.3-2.1,0.9
							c-0.6,0.6-0.9,1.3-0.9,2.1s0.3,1.6,0.9,2.1C77.5,122.5,78.3,122.8,79.1,122.8z"/>
					</g>
					<g>
						<path id="m2ed1797185_00000154425015559751030020000004629711476602332552_" class="st8" d="M98.1,122.8
							c0.8,0,1.6-0.3,2.1-0.9c0.6-0.6,0.9-1.3,0.9-2.1s-0.3-1.6-0.9-2.1c-0.6-0.6-1.3-0.9-2.1-0.9s-1.6,0.3-2.1,0.9
							c-0.6,0.6-0.9,1.3-0.9,2.1s0.3,1.6,0.9,2.1C96.5,122.5,97.3,122.8,98.1,122.8z"/>
					</g>
					<g>
						<path id="m2ed1797185_00000010290528177264095970000018242844198024665530_" class="st8" d="M121.3,122.8
							c0.8,0,1.6-0.3,2.1-0.9c0.6-0.6,0.9-1.3,0.9-2.1s-0.3-1.6-0.9-2.1c-0.6-0.6-1.3-0.9-2.1-0.9s-1.6,0.3-2.1,0.9
							c-0.6,0.6-0.9,1.3-0.9,2.1s0.3,1.6,0.9,2.1C119.8,122.5,120.5,122.8,121.3,122.8z"/>
					</g>
					<g>
						<path id="m2ed1797185_00000137834788731098071220000000462619767081590695_" class="st8" d="M141,24.1c0.8,0,1.6-0.3,2.1-0.9
							s0.9-1.3,0.9-2.1s-0.3-1.6-0.9-2.1s-1.3-0.9-2.1-0.9s-1.6,0.3-2.1,0.9s-0.9,1.3-0.9,2.1s0.3,1.6,0.9,2.1S140.2,24.1,141,24.1z
							"/>
					</g>
				</g>
			</g>
		</g>
		<g id="PathCollection_2">
			<g>
				<defs>
					<rect id="SVGID_00000050643143525148095630000015638241747374815897_" x="21.7" y="16.2" width="134.5" height="103.7"/>
				</defs>
				<clipPath id="SVGID_00000139977589604265373780000007253966459658890115_">
					<use xlink:href="#SVGID_00000050643143525148095630000015638241747374815897_"  style="overflow:visible;"/>
				</clipPath>
				<g style="clip-path:url(#SVGID_00000139977589604265373780000007253966459658890115_);">
					<g>
						<path id="m2ed1797185_00000012468049452911223630000008243848972280334467_" class="st8" d="M35.1,122.8
							c0.8,0,1.6-0.3,2.1-0.9c0.6-0.6,0.9-1.3,0.9-2.1s-0.3-1.6-0.9-2.1c-0.6-0.6-1.3-0.9-2.1-0.9s-1.6,0.3-2.1,0.9
							c-0.6,0.6-0.9,1.3-0.9,2.1s0.3,1.6,0.9,2.1C33.5,122.5,34.3,122.8,35.1,122.8z"/>
					</g>
					<g>
						<path id="m2ed1797185_00000058555325401921801830000005002925458697973683_" class="st8" d="M56.6,122.8
							c0.8,0,1.6-0.3,2.1-0.9c0.6-0.6,0.9-1.3,0.9-2.1s-0.3-1.6-0.9-2.1c-0.6-0.6-1.3-0.9-2.1-0.9s-1.6,0.3-2.1,0.9
							c-0.6,0.6-0.9,1.3-0.9,2.1s0.3,1.6,0.9,2.1C55.1,122.5,55.8,122.8,56.6,122.8z"/>
					</g>
					<g>
						<path id="m2ed1797185_00000120545333841577194480000008454930629613754511_" class="st8" d="M78.3,106.4
							c0.8,0,1.6-0.3,2.1-0.9c0.6-0.6,0.9-1.3,0.9-2.1s-0.3-1.6-0.9-2.1c-0.6-0.6-1.3-0.9-2.1-0.9s-1.6,0.3-2.1,0.9
							c-0.6,0.6-0.9,1.3-0.9,2.1s0.3,1.6,0.9,2.1C76.8,106.1,77.5,106.4,78.3,106.4z"/>
					</g>
					<g>
						<path id="m2ed1797185_00000145021420265427124100000017636874647814338692_" class="st8" d="M100.2,122.8
							c0.8,0,1.6-0.3,2.1-0.9c0.6-0.6,0.9-1.3,0.9-2.1s-0.3-1.6-0.9-2.1c-0.6-0.6-1.3-0.9-2.1-0.9s-1.6,0.3-2.1,0.9
							c-0.6,0.6-0.9,1.3-0.9,2.1s0.3,1.6,0.9,2.1C98.7,122.5,99.4,122.8,100.2,122.8z"/>
					</g>
					<g>
						<path id="m2ed1797185_00000005269043170984433240000012447573087566288786_" class="st8" d="M121.3,122.8
							c0.8,0,1.6-0.3,2.1-0.9c0.6-0.6,0.9-1.3,0.9-2.1s-0.3-1.6-0.9-2.1c-0.6-0.6-1.3-0.9-2.1-0.9s-1.6,0.3-2.1,0.9
							c-0.6,0.6-0.9,1.3-0.9,2.1s0.3,1.6,0.9,2.1C119.8,122.5,120.5,122.8,121.3,122.8z"/>
					</g>
					<g>
						<path id="m2ed1797185_00000098197126219977656350000002500846238925794966_" class="st8" d="M142.8,40.5
							c0.8,0,1.6-0.3,2.1-0.9c0.6-0.6,0.9-1.3,0.9-2.1s-0.3-1.6-0.9-2.1c-0.6-0.6-1.3-0.9-2.1-0.9s-1.6,0.3-2.1,0.9
							c-0.6,0.6-0.9,1.3-0.9,2.1s0.3,1.6,0.9,2.1C141.3,40.2,142,40.5,142.8,40.5z"/>
					</g>
				</g>
			</g>
		</g>
		<g id="matplotlib.axis_1">
			<g id="xtick_1">
				<g id="line2d_1">
					<g>
						<g>
							<path id="ma831a03916" class="st10" d="M36.2,119.8v3.5"/>
						</g>
					</g>
				</g>
			</g>
			<g id="xtick_2">
				<g id="line2d_2">
					<g>
						<g>
							<path id="ma831a03916_00000083803869946372444630000000024253704374383805_" class="st10" d="M57.3,119.8v3.5"/>
						</g>
					</g>
				</g>
			</g>
			<g id="xtick_3">
				<g id="line2d_3">
					<g>
						<g>
							<path id="ma831a03916_00000111161223390164025330000007135013331053773957_" class="st10" d="M78.4,119.8v3.5"/>
						</g>
					</g>
				</g>
			</g>
			<g id="xtick_4">
				<g id="line2d_4">
					<g>
						<g>
							<path id="ma831a03916_00000009573267513254396220000005905631810894842793_" class="st10" d="M99.5,119.8v3.5"/>
						</g>
					</g>
				</g>
			</g>
			<g id="xtick_5">
				<g id="line2d_5">
					<g>
						<g>
							<path id="ma831a03916_00000062889876796186899690000006398654836423223995_" class="st10" d="M120.5,119.8v3.5"/>
						</g>
					</g>
				</g>
			</g>
			<g id="xtick_6">
				<g id="line2d_6">
					<g>
						<g>
							<path id="ma831a03916_00000162345016578716338770000016053333935787787140_" class="st10" d="M141.6,119.8v3.5"/>
						</g>
					</g>
				</g>
			</g>
		</g>
		<g id="matplotlib.axis_2">
			<g id="ytick_1">
				<g id="line2d_7">
					<g>
						<g>
							<path id="m51f72e07cd" class="st10" d="M21.7,119.8h-3.5"/>
						</g>
					</g>
				</g>
			</g>
			<g id="ytick_2">
				<g id="line2d_8">
					<g>
						<g>
							<path id="m51f72e07cd_00000119804208962224075880000015583825373177332873_" class="st10" d="M21.7,100.1h-3.5"/>
						</g>
					</g>
				</g>
			</g>
			<g id="ytick_3">
				<g id="line2d_9">
					<g>
						<g>
							<path id="m51f72e07cd_00000026857391676546628920000018012172911403254932_" class="st10" d="M21.7,80.3h-3.5"/>
						</g>
					</g>
				</g>
			</g>
			<g id="ytick_4">
				<g id="line2d_10">
					<g>
						<g>
							<path id="m51f72e07cd_00000075882270299027772620000011046558486665204158_" class="st10" d="M21.7,60.6h-3.5"/>
						</g>
					</g>
				</g>
			</g>
			<g id="ytick_5">
				<g id="line2d_11">
					<g>
						<g>
							<path id="m51f72e07cd_00000161616885518219225570000012982542196779741594_" class="st10" d="M21.7,40.8h-3.5"/>
						</g>
					</g>
				</g>
			</g>
			<g id="ytick_6">
				<g id="line2d_12">
					<g>
						<g>
							<path id="m51f72e07cd_00000141422294018058998120000016622337234984787862_" class="st10" d="M21.7,21.1h-3.5"/>
						</g>
					</g>
				</g>
			</g>
		</g>
		<g id="patch_9">
			<path class="st11" d="M21.7,119.8V16.2"/>
		</g>
		<g id="patch_10">
			<path class="st11" d="M156.2,119.8V16.2"/>
		</g>
		<g id="patch_11">
			<path class="st11" d="M21.7,119.8h134.5"/>
		</g>
		<g id="patch_12">
			<path class="st11" d="M21.7,16.2h134.5"/>
		</g>
	</g>
</g>
</svg>
