<?xml version="1.0" encoding="utf-8" standalone="no"?>
<!DOCTYPE svg PUBLIC "-//W3C//DTD SVG 1.1//EN"
  "http://www.w3.org/Graphics/SVG/1.1/DTD/svg11.dtd">
<svg xmlns:xlink="http://www.w3.org/1999/xlink" width="129.36pt" height="120.72pt" viewBox="0 0 129.36 120.72" xmlns="http://www.w3.org/2000/svg" version="1.1">
 <metadata>
  <rdf:RDF xmlns:dc="http://purl.org/dc/elements/1.1/" xmlns:cc="http://creativecommons.org/ns#" xmlns:rdf="http://www.w3.org/1999/02/22-rdf-syntax-ns#">
   <cc:Work>
    <dc:type rdf:resource="http://purl.org/dc/dcmitype/StillImage"/>
    <dc:date>2024-05-11T17:34:26.652872</dc:date>
    <dc:format>image/svg+xml</dc:format>
    <dc:creator>
     <cc:Agent>
      <dc:title>Matplotlib v3.5.2, https://matplotlib.org/</dc:title>
     </cc:Agent>
    </dc:creator>
   </cc:Work>
  </rdf:RDF>
 </metadata>
 <defs>
  <style type="text/css">*{stroke-linejoin: round; stroke-linecap: butt}</style>
 </defs>
 <g id="figure_1">
  <g id="patch_1">
   <path d="M 0 120.72 
L 129.36 120.72 
L 129.36 0 
L 0 0 
z
" style="fill: #ffffff"/>
  </g>
  <g id="axes_1">
   <g id="patch_2">
    <path d="M 16.17 107.4408 
L 116.424 107.4408 
L 116.424 14.4864 
L 16.17 14.4864 
z
" style="fill: #ffffff"/>
   </g>
   <g id="PathCollection_1">
    <defs>
     <path id="C0_0_7bf5114b84" d="M 0 3 
C 0.795609 3 1.55874 2.683901 2.12132 2.12132 
C 2.683901 1.55874 3 0.795609 3 -0 
C 3 -0.795609 2.683901 -1.55874 2.12132 -2.12132 
C 1.55874 -2.683901 0.795609 -3 0 -3 
C -0.795609 -3 -1.55874 -2.683901 -2.12132 -2.12132 
C -2.683901 -1.55874 -3 -0.795609 -3 0 
C -3 0.795609 -2.683901 1.55874 -2.12132 2.12132 
C -1.55874 2.683901 -0.795609 3 0 3 
z
"/>
    </defs>
    <g clip-path="url(#p8ea951c513)">
     <use xlink:href="#C0_0_7bf5114b84" x="20.727" y="74.774341" style="fill-opacity: 0.25"/>
    </g>
    <g clip-path="url(#p8ea951c513)">
     <use xlink:href="#C0_0_7bf5114b84" x="20.727" y="78.293851" style="fill-opacity: 0.25"/>
    </g>
    <g clip-path="url(#p8ea951c513)">
     <use xlink:href="#C0_0_7bf5114b84" x="20.727" y="67.294193" style="fill-opacity: 0.25"/>
    </g>
    <g clip-path="url(#p8ea951c513)">
     <use xlink:href="#C0_0_7bf5114b84" x="20.727" y="73.484707" style="fill-opacity: 0.25"/>
    </g>
    <g clip-path="url(#p8ea951c513)">
     <use xlink:href="#C0_0_7bf5114b84" x="20.727" y="76.97764" style="fill-opacity: 0.25"/>
    </g>
    <g clip-path="url(#p8ea951c513)">
     <use xlink:href="#C0_0_7bf5114b84" x="20.727" y="55.267239" style="fill-opacity: 0.25"/>
    </g>
    <g clip-path="url(#p8ea951c513)">
     <use xlink:href="#C0_0_7bf5114b84" x="20.727" y="65.474321" style="fill-opacity: 0.25"/>
    </g>
    <g clip-path="url(#p8ea951c513)">
     <use xlink:href="#C0_0_7bf5114b84" x="20.727" y="72.358913" style="fill-opacity: 0.25"/>
    </g>
    <g clip-path="url(#p8ea951c513)">
     <use xlink:href="#C0_0_7bf5114b84" x="20.727" y="71.887265" style="fill-opacity: 0.25"/>
    </g>
    <g clip-path="url(#p8ea951c513)">
     <use xlink:href="#C0_0_7bf5114b84" x="20.727" y="76.730633" style="fill-opacity: 0.25"/>
    </g>
   </g>
   <g id="PathCollection_2">
    <defs>
     <path id="C1_0_1af38e04ff" d="M 0 3 
C 0.795609 3 1.55874 2.683901 2.12132 2.12132 
C 2.683901 1.55874 3 0.795609 3 -0 
C 3 -0.795609 2.683901 -1.55874 2.12132 -2.12132 
C 1.55874 -2.683901 0.795609 -3 0 -3 
C -0.795609 -3 -1.55874 -2.683901 -2.12132 -2.12132 
C -2.683901 -1.55874 -3 -0.795609 -3 0 
C -3 0.795609 -2.683901 1.55874 -2.12132 2.12132 
C -1.55874 2.683901 -0.795609 3 0 3 
z
"/>
    </defs>
    <g clip-path="url(#p8ea951c513)">
     <use xlink:href="#C1_0_1af38e04ff" x="30.853667" y="65.410837" style="fill-opacity: 0.25"/>
    </g>
    <g clip-path="url(#p8ea951c513)">
     <use xlink:href="#C1_0_1af38e04ff" x="30.853667" y="56.083446" style="fill-opacity: 0.25"/>
    </g>
    <g clip-path="url(#p8ea951c513)">
     <use xlink:href="#C1_0_1af38e04ff" x="30.853667" y="64.303935" style="fill-opacity: 0.25"/>
    </g>
    <g clip-path="url(#p8ea951c513)">
     <use xlink:href="#C1_0_1af38e04ff" x="30.853667" y="69.889073" style="fill-opacity: 0.25"/>
    </g>
    <g clip-path="url(#p8ea951c513)">
     <use xlink:href="#C1_0_1af38e04ff" x="30.853667" y="61.117794" style="fill-opacity: 0.25"/>
    </g>
    <g clip-path="url(#p8ea951c513)">
     <use xlink:href="#C1_0_1af38e04ff" x="30.853667" y="62.681779" style="fill-opacity: 0.25"/>
    </g>
    <g clip-path="url(#p8ea951c513)">
     <use xlink:href="#C1_0_1af38e04ff" x="30.853667" y="55.253219" style="fill-opacity: 0.25"/>
    </g>
    <g clip-path="url(#p8ea951c513)">
     <use xlink:href="#C1_0_1af38e04ff" x="30.853667" y="55.54313" style="fill-opacity: 0.25"/>
    </g>
    <g clip-path="url(#p8ea951c513)">
     <use xlink:href="#C1_0_1af38e04ff" x="30.853667" y="70.672325" style="fill-opacity: 0.25"/>
    </g>
   </g>
   <g id="PathCollection_3">
    <defs>
     <path id="C2_0_a53ab7db1c" d="M 0 3 
C 0.795609 3 1.55874 2.683901 2.12132 2.12132 
C 2.683901 1.55874 3 0.795609 3 -0 
C 3 -0.795609 2.683901 -1.55874 2.12132 -2.12132 
C 1.55874 -2.683901 0.795609 -3 0 -3 
C -0.795609 -3 -1.55874 -2.683901 -2.12132 -2.12132 
C -2.683901 -1.55874 -3 -0.795609 -3 0 
C -3 0.795609 -2.683901 1.55874 -2.12132 2.12132 
C -1.55874 2.683901 -0.795609 3 0 3 
z
"/>
    </defs>
    <g clip-path="url(#p8ea951c513)">
     <use xlink:href="#C2_0_a53ab7db1c" x="40.980333" y="46.813474" style="fill-opacity: 0.25"/>
    </g>
    <g clip-path="url(#p8ea951c513)">
     <use xlink:href="#C2_0_a53ab7db1c" x="40.980333" y="58.106408" style="fill-opacity: 0.25"/>
    </g>
    <g clip-path="url(#p8ea951c513)">
     <use xlink:href="#C2_0_a53ab7db1c" x="40.980333" y="63.18802" style="fill-opacity: 0.25"/>
    </g>
    <g clip-path="url(#p8ea951c513)">
     <use xlink:href="#C2_0_a53ab7db1c" x="40.980333" y="61.831257" style="fill-opacity: 0.25"/>
    </g>
    <g clip-path="url(#p8ea951c513)">
     <use xlink:href="#C2_0_a53ab7db1c" x="40.980333" y="65.667831" style="fill-opacity: 0.25"/>
    </g>
    <g clip-path="url(#p8ea951c513)">
     <use xlink:href="#C2_0_a53ab7db1c" x="40.980333" y="40.825355" style="fill-opacity: 0.25"/>
    </g>
    <g clip-path="url(#p8ea951c513)">
     <use xlink:href="#C2_0_a53ab7db1c" x="40.980333" y="55.694508" style="fill-opacity: 0.25"/>
    </g>
    <g clip-path="url(#p8ea951c513)">
     <use xlink:href="#C2_0_a53ab7db1c" x="40.980333" y="60.231288" style="fill-opacity: 0.25"/>
    </g>
   </g>
   <g id="PathCollection_4">
    <defs>
     <path id="C3_0_2b49333199" d="M 0 3 
C 0.795609 3 1.55874 2.683901 2.12132 2.12132 
C 2.683901 1.55874 3 0.795609 3 -0 
C 3 -0.795609 2.683901 -1.55874 2.12132 -2.12132 
C 1.55874 -2.683901 0.795609 -3 0 -3 
C -0.795609 -3 -1.55874 -2.683901 -2.12132 -2.12132 
C -2.683901 -1.55874 -3 -0.795609 -3 0 
C -3 0.795609 -2.683901 1.55874 -2.12132 2.12132 
C -1.55874 2.683901 -0.795609 3 0 3 
z
"/>
    </defs>
    <g clip-path="url(#p8ea951c513)">
     <use xlink:href="#C3_0_2b49333199" x="51.107" y="53.051812" style="fill-opacity: 0.25"/>
    </g>
    <g clip-path="url(#p8ea951c513)">
     <use xlink:href="#C3_0_2b49333199" x="51.107" y="57.509968" style="fill-opacity: 0.25"/>
    </g>
    <g clip-path="url(#p8ea951c513)">
     <use xlink:href="#C3_0_2b49333199" x="51.107" y="57.892021" style="fill-opacity: 0.25"/>
    </g>
    <g clip-path="url(#p8ea951c513)">
     <use xlink:href="#C3_0_2b49333199" x="51.107" y="53.13491" style="fill-opacity: 0.25"/>
    </g>
    <g clip-path="url(#p8ea951c513)">
     <use xlink:href="#C3_0_2b49333199" x="51.107" y="45.554477" style="fill-opacity: 0.25"/>
    </g>
    <g clip-path="url(#p8ea951c513)">
     <use xlink:href="#C3_0_2b49333199" x="51.107" y="44.614507" style="fill-opacity: 0.25"/>
    </g>
    <g clip-path="url(#p8ea951c513)">
     <use xlink:href="#C3_0_2b49333199" x="51.107" y="65.664418" style="fill-opacity: 0.25"/>
    </g>
   </g>
   <g id="PathCollection_5">
    <defs>
     <path id="C4_0_97426f725f" d="M 0 3 
C 0.795609 3 1.55874 2.683901 2.12132 2.12132 
C 2.683901 1.55874 3 0.795609 3 -0 
C 3 -0.795609 2.683901 -1.55874 2.12132 -2.12132 
C 1.55874 -2.683901 0.795609 -3 0 -3 
C -0.795609 -3 -1.55874 -2.683901 -2.12132 -2.12132 
C -2.683901 -1.55874 -3 -0.795609 -3 0 
C -3 0.795609 -2.683901 1.55874 -2.12132 2.12132 
C -1.55874 2.683901 -0.795609 3 0 3 
z
"/>
    </defs>
    <g clip-path="url(#p8ea951c513)">
     <use xlink:href="#C4_0_97426f725f" x="61.233667" y="48.417313" style="fill-opacity: 0.25"/>
    </g>
    <g clip-path="url(#p8ea951c513)">
     <use xlink:href="#C4_0_97426f725f" x="61.233667" y="44.146852" style="fill-opacity: 0.25"/>
    </g>
    <g clip-path="url(#p8ea951c513)">
     <use xlink:href="#C4_0_97426f725f" x="61.233667" y="47.38437" style="fill-opacity: 0.25"/>
    </g>
    <g clip-path="url(#p8ea951c513)">
     <use xlink:href="#C4_0_97426f725f" x="61.233667" y="35.753438" style="fill-opacity: 0.25"/>
    </g>
    <g clip-path="url(#p8ea951c513)">
     <use xlink:href="#C4_0_97426f725f" x="61.233667" y="39.861979" style="fill-opacity: 0.25"/>
    </g>
    <g clip-path="url(#p8ea951c513)">
     <use xlink:href="#C4_0_97426f725f" x="61.233667" y="54.213603" style="fill-opacity: 0.25"/>
    </g>
   </g>
   <g id="PathCollection_6">
    <defs>
     <path id="C5_0_f9daeba0da" d="M 0 3 
C 0.795609 3 1.55874 2.683901 2.12132 2.12132 
C 2.683901 1.55874 3 0.795609 3 -0 
C 3 -0.795609 2.683901 -1.55874 2.12132 -2.12132 
C 1.55874 -2.683901 0.795609 -3 0 -3 
C -0.795609 -3 -1.55874 -2.683901 -2.12132 -2.12132 
C -2.683901 -1.55874 -3 -0.795609 -3 0 
C -3 0.795609 -2.683901 1.55874 -2.12132 2.12132 
C -1.55874 2.683901 -0.795609 3 0 3 
z
"/>
    </defs>
    <g clip-path="url(#p8ea951c513)">
     <use xlink:href="#C5_0_f9daeba0da" x="71.360333" y="46.048897" style="fill-opacity: 0.25"/>
    </g>
    <g clip-path="url(#p8ea951c513)">
     <use xlink:href="#C5_0_f9daeba0da" x="71.360333" y="43.178603" style="fill-opacity: 0.25"/>
    </g>
    <g clip-path="url(#p8ea951c513)">
     <use xlink:href="#C5_0_f9daeba0da" x="71.360333" y="41.783648" style="fill-opacity: 0.25"/>
    </g>
    <g clip-path="url(#p8ea951c513)">
     <use xlink:href="#C5_0_f9daeba0da" x="71.360333" y="36.62793" style="fill-opacity: 0.25"/>
    </g>
    <g clip-path="url(#p8ea951c513)">
     <use xlink:href="#C5_0_f9daeba0da" x="71.360333" y="56.585172" style="fill-opacity: 0.25"/>
    </g>
   </g>
   <g id="PathCollection_7">
    <defs>
     <path id="C6_0_962031fffc" d="M 0 3 
C 0.795609 3 1.55874 2.683901 2.12132 2.12132 
C 2.683901 1.55874 3 0.795609 3 -0 
C 3 -0.795609 2.683901 -1.55874 2.12132 -2.12132 
C 1.55874 -2.683901 0.795609 -3 0 -3 
C -0.795609 -3 -1.55874 -2.683901 -2.12132 -2.12132 
C -2.683901 -1.55874 -3 -0.795609 -3 0 
C -3 0.795609 -2.683901 1.55874 -2.12132 2.12132 
C -1.55874 2.683901 -0.795609 3 0 3 
z
"/>
    </defs>
    <g clip-path="url(#p8ea951c513)">
     <use xlink:href="#C6_0_962031fffc" x="81.487" y="37.025372" style="fill-opacity: 0.25"/>
    </g>
    <g clip-path="url(#p8ea951c513)">
     <use xlink:href="#C6_0_962031fffc" x="81.487" y="19.455198" style="fill-opacity: 0.25"/>
    </g>
    <g clip-path="url(#p8ea951c513)">
     <use xlink:href="#C6_0_962031fffc" x="81.487" y="27.777098" style="fill-opacity: 0.25"/>
    </g>
    <g clip-path="url(#p8ea951c513)">
     <use xlink:href="#C6_0_962031fffc" x="81.487" y="52.931716" style="fill-opacity: 0.25"/>
    </g>
   </g>
   <g id="PathCollection_8">
    <defs>
     <path id="C7_0_047abd4096" d="M 0 3 
C 0.795609 3 1.55874 2.683901 2.12132 2.12132 
C 2.683901 1.55874 3 0.795609 3 -0 
C 3 -0.795609 2.683901 -1.55874 2.12132 -2.12132 
C 1.55874 -2.683901 0.795609 -3 0 -3 
C -0.795609 -3 -1.55874 -2.683901 -2.12132 -2.12132 
C -2.683901 -1.55874 -3 -0.795609 -3 0 
C -3 0.795609 -2.683901 1.55874 -2.12132 2.12132 
C -1.55874 2.683901 -0.795609 3 0 3 
z
"/>
    </defs>
    <g clip-path="url(#p8ea951c513)">
     <use xlink:href="#C7_0_047abd4096" x="91.613667" y="24.414436" style="fill-opacity: 0.25"/>
    </g>
    <g clip-path="url(#p8ea951c513)">
     <use xlink:href="#C7_0_047abd4096" x="91.613667" y="37.019295" style="fill-opacity: 0.25"/>
    </g>
    <g clip-path="url(#p8ea951c513)">
     <use xlink:href="#C7_0_047abd4096" x="91.613667" y="49.711426" style="fill-opacity: 0.25"/>
    </g>
   </g>
   <g id="PathCollection_9">
    <defs>
     <path id="C8_0_9d562a3c30" d="M 0 3 
C 0.795609 3 1.55874 2.683901 2.12132 2.12132 
C 2.683901 1.55874 3 0.795609 3 -0 
C 3 -0.795609 2.683901 -1.55874 2.12132 -2.12132 
C 1.55874 -2.683901 0.795609 -3 0 -3 
C -0.795609 -3 -1.55874 -2.683901 -2.12132 -2.12132 
C -2.683901 -1.55874 -3 -0.795609 -3 0 
C -3 0.795609 -2.683901 1.55874 -2.12132 2.12132 
C -1.55874 2.683901 -0.795609 3 0 3 
z
"/>
    </defs>
    <g clip-path="url(#p8ea951c513)">
     <use xlink:href="#C8_0_9d562a3c30" x="101.740333" y="24.513722" style="fill-opacity: 0.25"/>
    </g>
    <g clip-path="url(#p8ea951c513)">
     <use xlink:href="#C8_0_9d562a3c30" x="101.740333" y="48.897875" style="fill-opacity: 0.25"/>
    </g>
   </g>
   <g id="PathCollection_10">
    <path d="M 111.867 44.94202 
C 112.662609 44.94202 113.42574 44.625921 113.98832 44.06334 
C 114.550901 43.500759 114.867 42.737629 114.867 41.94202 
C 114.867 41.14641 114.550901 40.38328 113.98832 39.820699 
C 113.42574 39.258119 112.662609 38.94202 111.867 38.94202 
C 111.071391 38.94202 110.30826 39.258119 109.74568 39.820699 
C 109.183099 40.38328 108.867 41.14641 108.867 41.94202 
C 108.867 42.737629 109.183099 43.500759 109.74568 44.06334 
C 110.30826 44.625921 111.071391 44.94202 111.867 44.94202 
z
" clip-path="url(#p8ea951c513)" style="fill-opacity: 0.25"/>
   </g>
   <g id="matplotlib.axis_1">
    <g id="xtick_1">
     <g id="line2d_1">
      <defs>
       <path id="m10fb28d2bd" d="M 0 0 
L 0 3.5 
" style="stroke: #000000; stroke-width: 0.8"/>
      </defs>
      <g>
       <use xlink:href="#m10fb28d2bd" x="20.727" y="107.4408" style="stroke: #000000; stroke-width: 0.8"/>
      </g>
     </g>
    </g>
    <g id="xtick_2">
     <g id="line2d_2">
      <g>
       <use xlink:href="#m10fb28d2bd" x="30.853667" y="107.4408" style="stroke: #000000; stroke-width: 0.8"/>
      </g>
     </g>
    </g>
    <g id="xtick_3">
     <g id="line2d_3">
      <g>
       <use xlink:href="#m10fb28d2bd" x="40.980333" y="107.4408" style="stroke: #000000; stroke-width: 0.8"/>
      </g>
     </g>
    </g>
    <g id="xtick_4">
     <g id="line2d_4">
      <g>
       <use xlink:href="#m10fb28d2bd" x="51.107" y="107.4408" style="stroke: #000000; stroke-width: 0.8"/>
      </g>
     </g>
    </g>
    <g id="xtick_5">
     <g id="line2d_5">
      <g>
       <use xlink:href="#m10fb28d2bd" x="61.233667" y="107.4408" style="stroke: #000000; stroke-width: 0.8"/>
      </g>
     </g>
    </g>
    <g id="xtick_6">
     <g id="line2d_6">
      <g>
       <use xlink:href="#m10fb28d2bd" x="71.360333" y="107.4408" style="stroke: #000000; stroke-width: 0.8"/>
      </g>
     </g>
    </g>
    <g id="xtick_7">
     <g id="line2d_7">
      <g>
       <use xlink:href="#m10fb28d2bd" x="81.487" y="107.4408" style="stroke: #000000; stroke-width: 0.8"/>
      </g>
     </g>
    </g>
    <g id="xtick_8">
     <g id="line2d_8">
      <g>
       <use xlink:href="#m10fb28d2bd" x="91.613667" y="107.4408" style="stroke: #000000; stroke-width: 0.8"/>
      </g>
     </g>
    </g>
    <g id="xtick_9">
     <g id="line2d_9">
      <g>
       <use xlink:href="#m10fb28d2bd" x="101.740333" y="107.4408" style="stroke: #000000; stroke-width: 0.8"/>
      </g>
     </g>
    </g>
    <g id="xtick_10">
     <g id="line2d_10">
      <g>
       <use xlink:href="#m10fb28d2bd" x="111.867" y="107.4408" style="stroke: #000000; stroke-width: 0.8"/>
      </g>
     </g>
    </g>
   </g>
   <g id="matplotlib.axis_2">
    <g id="ytick_1">
     <g id="line2d_11">
      <defs>
       <path id="m5e7c9fb194" d="M 0 0 
L -3.5 0 
" style="stroke: #000000; stroke-width: 0.8"/>
      </defs>
      <g>
       <use xlink:href="#m5e7c9fb194" x="16.17" y="107.4408" style="stroke: #000000; stroke-width: 0.8"/>
      </g>
     </g>
    </g>
    <g id="ytick_2">
     <g id="line2d_12">
      <g>
       <use xlink:href="#m5e7c9fb194" x="16.17" y="95.8215" style="stroke: #000000; stroke-width: 0.8"/>
      </g>
     </g>
    </g>
    <g id="ytick_3">
     <g id="line2d_13">
      <g>
       <use xlink:href="#m5e7c9fb194" x="16.17" y="84.2022" style="stroke: #000000; stroke-width: 0.8"/>
      </g>
     </g>
    </g>
    <g id="ytick_4">
     <g id="line2d_14">
      <g>
       <use xlink:href="#m5e7c9fb194" x="16.17" y="72.5829" style="stroke: #000000; stroke-width: 0.8"/>
      </g>
     </g>
    </g>
    <g id="ytick_5">
     <g id="line2d_15">
      <g>
       <use xlink:href="#m5e7c9fb194" x="16.17" y="60.9636" style="stroke: #000000; stroke-width: 0.8"/>
      </g>
     </g>
    </g>
    <g id="ytick_6">
     <g id="line2d_16">
      <g>
       <use xlink:href="#m5e7c9fb194" x="16.17" y="49.3443" style="stroke: #000000; stroke-width: 0.8"/>
      </g>
     </g>
    </g>
    <g id="ytick_7">
     <g id="line2d_17">
      <g>
       <use xlink:href="#m5e7c9fb194" x="16.17" y="37.725" style="stroke: #000000; stroke-width: 0.8"/>
      </g>
     </g>
    </g>
    <g id="ytick_8">
     <g id="line2d_18">
      <g>
       <use xlink:href="#m5e7c9fb194" x="16.17" y="26.1057" style="stroke: #000000; stroke-width: 0.8"/>
      </g>
     </g>
    </g>
    <g id="ytick_9">
     <g id="line2d_19">
      <g>
       <use xlink:href="#m5e7c9fb194" x="16.17" y="14.4864" style="stroke: #000000; stroke-width: 0.8"/>
      </g>
     </g>
    </g>
   </g>
   <g id="line2d_20">
    <defs>
     <path id="m6a2a7a6343" d="M -0 2.5 
L 2.5 -2.5 
L -2.5 -2.5 
z
" style="stroke: #bf00bf; stroke-linejoin: miter"/>
    </defs>
    <g clip-path="url(#p8ea951c513)">
     <use xlink:href="#m6a2a7a6343" x="20.727" y="72.92181" style="fill: #bf00bf; stroke: #bf00bf; stroke-linejoin: miter"/>
    </g>
   </g>
   <g id="line2d_21">
    <g clip-path="url(#p8ea951c513)">
     <use xlink:href="#m6a2a7a6343" x="30.853667" y="62.681779" style="fill: #bf00bf; stroke: #bf00bf; stroke-linejoin: miter"/>
    </g>
   </g>
   <g id="line2d_22">
    <g clip-path="url(#p8ea951c513)">
     <use xlink:href="#m6a2a7a6343" x="40.980333" y="59.168848" style="fill: #bf00bf; stroke: #bf00bf; stroke-linejoin: miter"/>
    </g>
   </g>
   <g id="line2d_23">
    <g clip-path="url(#p8ea951c513)">
     <use xlink:href="#m6a2a7a6343" x="51.107" y="53.13491" style="fill: #bf00bf; stroke: #bf00bf; stroke-linejoin: miter"/>
    </g>
   </g>
   <g id="line2d_24">
    <g clip-path="url(#p8ea951c513)">
     <use xlink:href="#m6a2a7a6343" x="61.233667" y="45.765611" style="fill: #bf00bf; stroke: #bf00bf; stroke-linejoin: miter"/>
    </g>
   </g>
   <g id="line2d_25">
    <g clip-path="url(#p8ea951c513)">
     <use xlink:href="#m6a2a7a6343" x="71.360333" y="43.178603" style="fill: #bf00bf; stroke: #bf00bf; stroke-linejoin: miter"/>
    </g>
   </g>
   <g id="line2d_26">
    <g clip-path="url(#p8ea951c513)">
     <use xlink:href="#m6a2a7a6343" x="81.487" y="32.401235" style="fill: #bf00bf; stroke: #bf00bf; stroke-linejoin: miter"/>
    </g>
   </g>
   <g id="line2d_27">
    <g clip-path="url(#p8ea951c513)">
     <use xlink:href="#m6a2a7a6343" x="91.613667" y="37.019295" style="fill: #bf00bf; stroke: #bf00bf; stroke-linejoin: miter"/>
    </g>
   </g>
   <g id="line2d_28">
    <g clip-path="url(#p8ea951c513)">
     <use xlink:href="#m6a2a7a6343" x="101.740333" y="36.705798" style="fill: #bf00bf; stroke: #bf00bf; stroke-linejoin: miter"/>
    </g>
   </g>
   <g id="line2d_29">
    <g clip-path="url(#p8ea951c513)">
     <use xlink:href="#m6a2a7a6343" x="111.867" y="41.94202" style="fill: #bf00bf; stroke: #bf00bf; stroke-linejoin: miter"/>
    </g>
   </g>
   <g id="line2d_30">
    <path d="M 20.727 66.736372 
L 30.853667 62.615464 
L 40.980333 58.494557 
L 51.107 54.37365 
L 61.233667 50.252743 
L 71.360333 46.131836 
L 81.487 42.010929 
L 91.613667 37.890021 
L 101.740333 33.769114 
L 111.867 29.648207 
" clip-path="url(#p8ea951c513)" style="fill: none; stroke: #bf00bf; stroke-width: 1.5; stroke-linecap: square"/>
   </g>
   <g id="patch_3">
    <path d="M 16.17 107.4408 
L 16.17 14.4864 
" style="fill: none; stroke: #000000; stroke-width: 0.8; stroke-linejoin: miter; stroke-linecap: square"/>
   </g>
   <g id="patch_4">
    <path d="M 116.424 107.4408 
L 116.424 14.4864 
" style="fill: none; stroke: #000000; stroke-width: 0.8; stroke-linejoin: miter; stroke-linecap: square"/>
   </g>
   <g id="patch_5">
    <path d="M 16.17 107.4408 
L 116.424 107.4408 
" style="fill: none; stroke: #000000; stroke-width: 0.8; stroke-linejoin: miter; stroke-linecap: square"/>
   </g>
   <g id="patch_6">
    <path d="M 16.17 14.4864 
L 116.424 14.4864 
" style="fill: none; stroke: #000000; stroke-width: 0.8; stroke-linejoin: miter; stroke-linecap: square"/>
   </g>
  </g>
 </g>
 <defs>
  <clipPath id="p8ea951c513">
   <rect x="16.17" y="14.4864" width="100.254" height="92.9544"/>
  </clipPath>
 </defs>
</svg>
