<?xml version="1.0" encoding="utf-8" standalone="no"?>
<!DOCTYPE svg PUBLIC "-//W3C//DTD SVG 1.1//EN"
  "http://www.w3.org/Graphics/SVG/1.1/DTD/svg11.dtd">
<svg xmlns:xlink="http://www.w3.org/1999/xlink" width="198.96pt" height="158.64pt" viewBox="0 0 198.96 158.64" xmlns="http://www.w3.org/2000/svg" version="1.1">
 <metadata>
  <rdf:RDF xmlns:dc="http://purl.org/dc/elements/1.1/" xmlns:cc="http://creativecommons.org/ns#" xmlns:rdf="http://www.w3.org/1999/02/22-rdf-syntax-ns#">
   <cc:Work>
    <dc:type rdf:resource="http://purl.org/dc/dcmitype/StillImage"/>
    <dc:date>2022-12-03T23:12:52.164178</dc:date>
    <dc:format>image/svg+xml</dc:format>
    <dc:creator>
     <cc:Agent>
      <dc:title>Matplotlib v3.5.2, https://matplotlib.org/</dc:title>
     </cc:Agent>
    </dc:creator>
   </cc:Work>
  </rdf:RDF>
 </metadata>
 <defs>
  <style type="text/css">*{stroke-linejoin: round; stroke-linecap: butt}</style>
 </defs>
 <g id="figure_1">
  <g id="patch_1">
   <path d="M 0 158.64 
L 198.96 158.64 
L 198.96 0 
L 0 0 
z
" style="fill: #ffffff"/>
  </g>
  <g id="axes_1">
   <g id="patch_2">
    <path d="M 24.87 141.1896 
L 179.064 141.1896 
L 179.064 19.0368 
L 24.87 19.0368 
z
" style="fill: #ffffff"/>
   </g>
   <g id="PathCollection_1">
    <defs>
     <path id="C0_0_7ea3d59413" d="M 0 3 
C 0.795609 3 1.55874 2.683901 2.12132 2.12132 
C 2.683901 1.55874 3 0.795609 3 -0 
C 3 -0.795609 2.683901 -1.55874 2.12132 -2.12132 
C 1.55874 -2.683901 0.795609 -3 0 -3 
C -0.795609 -3 -1.55874 -2.683901 -2.12132 -2.12132 
C -2.683901 -1.55874 -3 -0.795609 -3 0 
C -3 0.795609 -2.683901 1.55874 -2.12132 2.12132 
C -1.55874 2.683901 -0.795609 3 0 3 
z
"/>
    </defs>
    <g clip-path="url(#p847f4f0f8f)">
     <use xlink:href="#C0_0_7ea3d59413" x="31.878818" y="135.6372" style="fill-opacity: 0.5"/>
    </g>
    <g clip-path="url(#p847f4f0f8f)">
     <use xlink:href="#C0_0_7ea3d59413" x="31.878818" y="106.780214" style="fill-opacity: 0.5"/>
    </g>
    <g clip-path="url(#p847f4f0f8f)">
     <use xlink:href="#C0_0_7ea3d59413" x="31.878818" y="110.559569" style="fill-opacity: 0.5"/>
    </g>
    <g clip-path="url(#p847f4f0f8f)">
     <use xlink:href="#C0_0_7ea3d59413" x="31.878818" y="88.288146" style="fill-opacity: 0.5"/>
    </g>
    <g clip-path="url(#p847f4f0f8f)">
     <use xlink:href="#C0_0_7ea3d59413" x="31.878818" y="111.243782" style="fill-opacity: 0.5"/>
    </g>
    <g clip-path="url(#p847f4f0f8f)">
     <use xlink:href="#C0_0_7ea3d59413" x="31.878818" y="102.437032" style="fill-opacity: 0.5"/>
    </g>
    <g clip-path="url(#p847f4f0f8f)">
     <use xlink:href="#C0_0_7ea3d59413" x="31.878818" y="112.759488" style="fill-opacity: 0.5"/>
    </g>
    <g clip-path="url(#p847f4f0f8f)">
     <use xlink:href="#C0_0_7ea3d59413" x="31.878818" y="96.892344" style="fill-opacity: 0.5"/>
    </g>
    <g clip-path="url(#p847f4f0f8f)">
     <use xlink:href="#C0_0_7ea3d59413" x="31.878818" y="129.585178" style="fill-opacity: 0.5"/>
    </g>
   </g>
   <g id="PathCollection_2">
    <defs>
     <path id="C1_0_e072538cab" d="M 0 3 
C 0.795609 3 1.55874 2.683901 2.12132 2.12132 
C 2.683901 1.55874 3 0.795609 3 -0 
C 3 -0.795609 2.683901 -1.55874 2.12132 -2.12132 
C 1.55874 -2.683901 0.795609 -3 0 -3 
C -0.795609 -3 -1.55874 -2.683901 -2.12132 -2.12132 
C -2.683901 -1.55874 -3 -0.795609 -3 0 
C -3 0.795609 -2.683901 1.55874 -2.12132 2.12132 
C -1.55874 2.683901 -0.795609 3 0 3 
z
"/>
    </defs>
    <g clip-path="url(#p847f4f0f8f)">
     <use xlink:href="#C1_0_e072538cab" x="49.400864" y="113.667574" style="fill-opacity: 0.5"/>
    </g>
    <g clip-path="url(#p847f4f0f8f)">
     <use xlink:href="#C1_0_e072538cab" x="49.400864" y="107.673623" style="fill-opacity: 0.5"/>
    </g>
    <g clip-path="url(#p847f4f0f8f)">
     <use xlink:href="#C1_0_e072538cab" x="49.400864" y="82.107483" style="fill-opacity: 0.5"/>
    </g>
    <g clip-path="url(#p847f4f0f8f)">
     <use xlink:href="#C1_0_e072538cab" x="49.400864" y="117.084772" style="fill-opacity: 0.5"/>
    </g>
    <g clip-path="url(#p847f4f0f8f)">
     <use xlink:href="#C1_0_e072538cab" x="49.400864" y="114.587527" style="fill-opacity: 0.5"/>
    </g>
    <g clip-path="url(#p847f4f0f8f)">
     <use xlink:href="#C1_0_e072538cab" x="49.400864" y="90.620723" style="fill-opacity: 0.5"/>
    </g>
    <g clip-path="url(#p847f4f0f8f)">
     <use xlink:href="#C1_0_e072538cab" x="49.400864" y="114.784139" style="fill-opacity: 0.5"/>
    </g>
    <g clip-path="url(#p847f4f0f8f)">
     <use xlink:href="#C1_0_e072538cab" x="49.400864" y="122.63189" style="fill-opacity: 0.5"/>
    </g>
   </g>
   <g id="PathCollection_3">
    <defs>
     <path id="C2_0_57fc3ffa5d" d="M 0 3 
C 0.795609 3 1.55874 2.683901 2.12132 2.12132 
C 2.683901 1.55874 3 0.795609 3 -0 
C 3 -0.795609 2.683901 -1.55874 2.12132 -2.12132 
C 1.55874 -2.683901 0.795609 -3 0 -3 
C -0.795609 -3 -1.55874 -2.683901 -2.12132 -2.12132 
C -2.683901 -1.55874 -3 -0.795609 -3 0 
C -3 0.795609 -2.683901 1.55874 -2.12132 2.12132 
C -1.55874 2.683901 -0.795609 3 0 3 
z
"/>
    </defs>
    <g clip-path="url(#p847f4f0f8f)">
     <use xlink:href="#C2_0_57fc3ffa5d" x="66.922909" y="70.416919" style="fill-opacity: 0.5"/>
    </g>
    <g clip-path="url(#p847f4f0f8f)">
     <use xlink:href="#C2_0_57fc3ffa5d" x="66.922909" y="47.145119" style="fill-opacity: 0.5"/>
    </g>
    <g clip-path="url(#p847f4f0f8f)">
     <use xlink:href="#C2_0_57fc3ffa5d" x="66.922909" y="88.330699" style="fill-opacity: 0.5"/>
    </g>
    <g clip-path="url(#p847f4f0f8f)">
     <use xlink:href="#C2_0_57fc3ffa5d" x="66.922909" y="72.848856" style="fill-opacity: 0.5"/>
    </g>
    <g clip-path="url(#p847f4f0f8f)">
     <use xlink:href="#C2_0_57fc3ffa5d" x="66.922909" y="75.984386" style="fill-opacity: 0.5"/>
    </g>
    <g clip-path="url(#p847f4f0f8f)">
     <use xlink:href="#C2_0_57fc3ffa5d" x="66.922909" y="24.5892" style="fill-opacity: 0.5"/>
    </g>
    <g clip-path="url(#p847f4f0f8f)">
     <use xlink:href="#C2_0_57fc3ffa5d" x="66.922909" y="108.477454" style="fill-opacity: 0.5"/>
    </g>
   </g>
   <g id="PathCollection_4">
    <defs>
     <path id="C3_0_032293cff1" d="M 0 3 
C 0.795609 3 1.55874 2.683901 2.12132 2.12132 
C 2.683901 1.55874 3 0.795609 3 -0 
C 3 -0.795609 2.683901 -1.55874 2.12132 -2.12132 
C 1.55874 -2.683901 0.795609 -3 0 -3 
C -0.795609 -3 -1.55874 -2.683901 -2.12132 -2.12132 
C -2.683901 -1.55874 -3 -0.795609 -3 0 
C -3 0.795609 -2.683901 1.55874 -2.12132 2.12132 
C -1.55874 2.683901 -0.795609 3 0 3 
z
"/>
    </defs>
    <g clip-path="url(#p847f4f0f8f)">
     <use xlink:href="#C3_0_032293cff1" x="84.444955" y="65.790203" style="fill-opacity: 0.5"/>
    </g>
    <g clip-path="url(#p847f4f0f8f)">
     <use xlink:href="#C3_0_032293cff1" x="84.444955" y="99.960119" style="fill-opacity: 0.5"/>
    </g>
    <g clip-path="url(#p847f4f0f8f)">
     <use xlink:href="#C3_0_032293cff1" x="84.444955" y="91.731616" style="fill-opacity: 0.5"/>
    </g>
    <g clip-path="url(#p847f4f0f8f)">
     <use xlink:href="#C3_0_032293cff1" x="84.444955" y="87.651394" style="fill-opacity: 0.5"/>
    </g>
    <g clip-path="url(#p847f4f0f8f)">
     <use xlink:href="#C3_0_032293cff1" x="84.444955" y="62.574727" style="fill-opacity: 0.5"/>
    </g>
    <g clip-path="url(#p847f4f0f8f)">
     <use xlink:href="#C3_0_032293cff1" x="84.444955" y="118.655452" style="fill-opacity: 0.5"/>
    </g>
   </g>
   <g id="PathCollection_5">
    <defs>
     <path id="C4_0_e561921d6e" d="M 0 3 
C 0.795609 3 1.55874 2.683901 2.12132 2.12132 
C 2.683901 1.55874 3 0.795609 3 -0 
C 3 -0.795609 2.683901 -1.55874 2.12132 -2.12132 
C 1.55874 -2.683901 0.795609 -3 0 -3 
C -0.795609 -3 -1.55874 -2.683901 -2.12132 -2.12132 
C -2.683901 -1.55874 -3 -0.795609 -3 0 
C -3 0.795609 -2.683901 1.55874 -2.12132 2.12132 
C -1.55874 2.683901 -0.795609 3 0 3 
z
"/>
    </defs>
    <g clip-path="url(#p847f4f0f8f)">
     <use xlink:href="#C4_0_e561921d6e" x="101.967" y="90.14758" style="fill-opacity: 0.5"/>
    </g>
    <g clip-path="url(#p847f4f0f8f)">
     <use xlink:href="#C4_0_e561921d6e" x="101.967" y="107.53137" style="fill-opacity: 0.5"/>
    </g>
    <g clip-path="url(#p847f4f0f8f)">
     <use xlink:href="#C4_0_e561921d6e" x="101.967" y="99.471781" style="fill-opacity: 0.5"/>
    </g>
    <g clip-path="url(#p847f4f0f8f)">
     <use xlink:href="#C4_0_e561921d6e" x="101.967" y="87.112176" style="fill-opacity: 0.5"/>
    </g>
    <g clip-path="url(#p847f4f0f8f)">
     <use xlink:href="#C4_0_e561921d6e" x="101.967" y="99.542834" style="fill-opacity: 0.5"/>
    </g>
   </g>
   <g id="PathCollection_6">
    <defs>
     <path id="C5_0_0673fff20f" d="M 0 3 
C 0.795609 3 1.55874 2.683901 2.12132 2.12132 
C 2.683901 1.55874 3 0.795609 3 -0 
C 3 -0.795609 2.683901 -1.55874 2.12132 -2.12132 
C 1.55874 -2.683901 0.795609 -3 0 -3 
C -0.795609 -3 -1.55874 -2.683901 -2.12132 -2.12132 
C -2.683901 -1.55874 -3 -0.795609 -3 0 
C -3 0.795609 -2.683901 1.55874 -2.12132 2.12132 
C -1.55874 2.683901 -0.795609 3 0 3 
z
"/>
    </defs>
    <g clip-path="url(#p847f4f0f8f)">
     <use xlink:href="#C5_0_0673fff20f" x="119.489045" y="68.25882" style="fill-opacity: 0.5"/>
    </g>
    <g clip-path="url(#p847f4f0f8f)">
     <use xlink:href="#C5_0_0673fff20f" x="119.489045" y="58.56776" style="fill-opacity: 0.5"/>
    </g>
    <g clip-path="url(#p847f4f0f8f)">
     <use xlink:href="#C5_0_0673fff20f" x="119.489045" y="77.134148" style="fill-opacity: 0.5"/>
    </g>
    <g clip-path="url(#p847f4f0f8f)">
     <use xlink:href="#C5_0_0673fff20f" x="119.489045" y="99.158324" style="fill-opacity: 0.5"/>
    </g>
   </g>
   <g id="PathCollection_7">
    <defs>
     <path id="C6_0_2e67f529ec" d="M 0 3 
C 0.795609 3 1.55874 2.683901 2.12132 2.12132 
C 2.683901 1.55874 3 0.795609 3 -0 
C 3 -0.795609 2.683901 -1.55874 2.12132 -2.12132 
C 1.55874 -2.683901 0.795609 -3 0 -3 
C -0.795609 -3 -1.55874 -2.683901 -2.12132 -2.12132 
C -2.683901 -1.55874 -3 -0.795609 -3 0 
C -3 0.795609 -2.683901 1.55874 -2.12132 2.12132 
C -1.55874 2.683901 -0.795609 3 0 3 
z
"/>
    </defs>
    <g clip-path="url(#p847f4f0f8f)">
     <use xlink:href="#C6_0_2e67f529ec" x="137.011091" y="70.985212" style="fill-opacity: 0.5"/>
    </g>
    <g clip-path="url(#p847f4f0f8f)">
     <use xlink:href="#C6_0_2e67f529ec" x="137.011091" y="65.978698" style="fill-opacity: 0.5"/>
    </g>
    <g clip-path="url(#p847f4f0f8f)">
     <use xlink:href="#C6_0_2e67f529ec" x="137.011091" y="90.570462" style="fill-opacity: 0.5"/>
    </g>
   </g>
   <g id="PathCollection_8">
    <defs>
     <path id="C7_0_d521f3831c" d="M 0 3 
C 0.795609 3 1.55874 2.683901 2.12132 2.12132 
C 2.683901 1.55874 3 0.795609 3 -0 
C 3 -0.795609 2.683901 -1.55874 2.12132 -2.12132 
C 1.55874 -2.683901 0.795609 -3 0 -3 
C -0.795609 -3 -1.55874 -2.683901 -2.12132 -2.12132 
C -2.683901 -1.55874 -3 -0.795609 -3 0 
C -3 0.795609 -2.683901 1.55874 -2.12132 2.12132 
C -1.55874 2.683901 -0.795609 3 0 3 
z
"/>
    </defs>
    <g clip-path="url(#p847f4f0f8f)">
     <use xlink:href="#C7_0_d521f3831c" x="154.533136" y="67.37681" style="fill-opacity: 0.5"/>
    </g>
    <g clip-path="url(#p847f4f0f8f)">
     <use xlink:href="#C7_0_d521f3831c" x="154.533136" y="95.701037" style="fill-opacity: 0.5"/>
    </g>
   </g>
   <g id="PathCollection_9">
    <path d="M 172.055182 84.107336 
C 172.850791 84.107336 173.613921 83.791237 174.176502 83.228656 
C 174.739083 82.666075 175.055182 81.902945 175.055182 81.107336 
C 175.055182 80.311727 174.739083 79.548596 174.176502 78.986016 
C 173.613921 78.423435 172.850791 78.107336 172.055182 78.107336 
C 171.259573 78.107336 170.496442 78.423435 169.933861 78.986016 
C 169.371281 79.548596 169.055182 80.311727 169.055182 81.107336 
C 169.055182 81.902945 169.371281 82.666075 169.933861 83.228656 
C 170.496442 83.791237 171.259573 84.107336 172.055182 84.107336 
z
" clip-path="url(#p847f4f0f8f)" style="fill-opacity: 0.5"/>
   </g>
   <g id="matplotlib.axis_1">
    <g id="xtick_1">
     <g id="line2d_1">
      <defs>
       <path id="mfefe00f8b9" d="M 0 0 
L 0 3.5 
" style="stroke: #000000; stroke-width: 0.8"/>
      </defs>
      <g>
       <use xlink:href="#mfefe00f8b9" x="31.878818" y="141.1896" style="stroke: #000000; stroke-width: 0.8"/>
      </g>
     </g>
    </g>
    <g id="xtick_2">
     <g id="line2d_2">
      <g>
       <use xlink:href="#mfefe00f8b9" x="49.400864" y="141.1896" style="stroke: #000000; stroke-width: 0.8"/>
      </g>
     </g>
    </g>
    <g id="xtick_3">
     <g id="line2d_3">
      <g>
       <use xlink:href="#mfefe00f8b9" x="66.922909" y="141.1896" style="stroke: #000000; stroke-width: 0.8"/>
      </g>
     </g>
    </g>
    <g id="xtick_4">
     <g id="line2d_4">
      <g>
       <use xlink:href="#mfefe00f8b9" x="84.444955" y="141.1896" style="stroke: #000000; stroke-width: 0.8"/>
      </g>
     </g>
    </g>
    <g id="xtick_5">
     <g id="line2d_5">
      <g>
       <use xlink:href="#mfefe00f8b9" x="101.967" y="141.1896" style="stroke: #000000; stroke-width: 0.8"/>
      </g>
     </g>
    </g>
    <g id="xtick_6">
     <g id="line2d_6">
      <g>
       <use xlink:href="#mfefe00f8b9" x="119.489045" y="141.1896" style="stroke: #000000; stroke-width: 0.8"/>
      </g>
     </g>
    </g>
    <g id="xtick_7">
     <g id="line2d_7">
      <g>
       <use xlink:href="#mfefe00f8b9" x="137.011091" y="141.1896" style="stroke: #000000; stroke-width: 0.8"/>
      </g>
     </g>
    </g>
    <g id="xtick_8">
     <g id="line2d_8">
      <g>
       <use xlink:href="#mfefe00f8b9" x="154.533136" y="141.1896" style="stroke: #000000; stroke-width: 0.8"/>
      </g>
     </g>
    </g>
    <g id="xtick_9">
     <g id="line2d_9">
      <g>
       <use xlink:href="#mfefe00f8b9" x="172.055182" y="141.1896" style="stroke: #000000; stroke-width: 0.8"/>
      </g>
     </g>
    </g>
   </g>
   <g id="matplotlib.axis_2">
    <g id="ytick_1">
     <g id="line2d_10">
      <defs>
       <path id="mcbe1752f59" d="M 0 0 
L -3.5 0 
" style="stroke: #000000; stroke-width: 0.8"/>
      </defs>
      <g>
       <use xlink:href="#mcbe1752f59" x="24.87" y="135.003306" style="stroke: #000000; stroke-width: 0.8"/>
      </g>
     </g>
    </g>
    <g id="ytick_2">
     <g id="line2d_11">
      <g>
       <use xlink:href="#mcbe1752f59" x="24.87" y="112.703217" style="stroke: #000000; stroke-width: 0.8"/>
      </g>
     </g>
    </g>
    <g id="ytick_3">
     <g id="line2d_12">
      <g>
       <use xlink:href="#mcbe1752f59" x="24.87" y="90.403129" style="stroke: #000000; stroke-width: 0.8"/>
      </g>
     </g>
    </g>
    <g id="ytick_4">
     <g id="line2d_13">
      <g>
       <use xlink:href="#mcbe1752f59" x="24.87" y="68.10304" style="stroke: #000000; stroke-width: 0.8"/>
      </g>
     </g>
    </g>
    <g id="ytick_5">
     <g id="line2d_14">
      <g>
       <use xlink:href="#mcbe1752f59" x="24.87" y="45.802951" style="stroke: #000000; stroke-width: 0.8"/>
      </g>
     </g>
    </g>
    <g id="ytick_6">
     <g id="line2d_15">
      <g>
       <use xlink:href="#mcbe1752f59" x="24.87" y="23.502862" style="stroke: #000000; stroke-width: 0.8"/>
      </g>
     </g>
    </g>
   </g>
   <g id="line2d_16">
    <path d="M 31.878818 105.126762 
L 49.400864 101.016856 
L 66.922909 96.906949 
L 84.444955 92.797043 
L 101.967 88.687137 
L 119.489045 84.57723 
L 137.011091 80.467324 
L 154.533136 76.357418 
L 172.055182 72.247511 
" clip-path="url(#p847f4f0f8f)" style="fill: none; stroke: #000000; stroke-width: 1.5; stroke-linecap: square"/>
   </g>
   <g id="patch_3">
    <path d="M 24.87 141.1896 
L 24.87 19.0368 
" style="fill: none; stroke: #000000; stroke-width: 0.8; stroke-linejoin: miter; stroke-linecap: square"/>
   </g>
   <g id="patch_4">
    <path d="M 179.064 141.1896 
L 179.064 19.0368 
" style="fill: none; stroke: #000000; stroke-width: 0.8; stroke-linejoin: miter; stroke-linecap: square"/>
   </g>
   <g id="patch_5">
    <path d="M 24.87 141.1896 
L 179.064 141.1896 
" style="fill: none; stroke: #000000; stroke-width: 0.8; stroke-linejoin: miter; stroke-linecap: square"/>
   </g>
   <g id="patch_6">
    <path d="M 24.87 19.0368 
L 179.064 19.0368 
" style="fill: none; stroke: #000000; stroke-width: 0.8; stroke-linejoin: miter; stroke-linecap: square"/>
   </g>
  </g>
 </g>
 <defs>
  <clipPath id="p847f4f0f8f">
   <rect x="24.87" y="19.0368" width="154.194" height="122.1528"/>
  </clipPath>
 </defs>
</svg>
