<?xml version="1.0" encoding="utf-8" standalone="no"?>
<!DOCTYPE svg PUBLIC "-//W3C//DTD SVG 1.1//EN"
  "http://www.w3.org/Graphics/SVG/1.1/DTD/svg11.dtd">
<svg xmlns:xlink="http://www.w3.org/1999/xlink" width="145.68pt" height="118.32pt" viewBox="0 0 145.68 118.32" xmlns="http://www.w3.org/2000/svg" version="1.1">
 <metadata>
  <rdf:RDF xmlns:dc="http://purl.org/dc/elements/1.1/" xmlns:cc="http://creativecommons.org/ns#" xmlns:rdf="http://www.w3.org/1999/02/22-rdf-syntax-ns#">
   <cc:Work>
    <dc:type rdf:resource="http://purl.org/dc/dcmitype/StillImage"/>
    <dc:date>2023-01-30T00:21:59.024735</dc:date>
    <dc:format>image/svg+xml</dc:format>
    <dc:creator>
     <cc:Agent>
      <dc:title>Matplotlib v3.5.2, https://matplotlib.org/</dc:title>
     </cc:Agent>
    </dc:creator>
   </cc:Work>
  </rdf:RDF>
 </metadata>
 <defs>
  <style type="text/css">*{stroke-linejoin: round; stroke-linecap: butt}</style>
 </defs>
 <g id="figure_1">
  <g id="patch_1">
   <path d="M 0 118.32 
L 145.68 118.32 
L 145.68 0 
L 0 0 
z
" style="fill: #ffffff"/>
  </g>
  <g id="axes_1">
   <g id="patch_2">
    <path d="M 18.21 105.3048 
L 131.112 105.3048 
L 131.112 14.1984 
L 18.21 14.1984 
z
" style="fill: #ffffff"/>
   </g>
   <g id="PathCollection_1">
    <defs>
     <path id="C0_0_d71ac7ea0b" d="M 0 3 
C 0.795609 3 1.55874 2.683901 2.12132 2.12132 
C 2.683901 1.55874 3 0.795609 3 -0 
C 3 -0.795609 2.683901 -1.55874 2.12132 -2.12132 
C 1.55874 -2.683901 0.795609 -3 0 -3 
C -0.795609 -3 -1.55874 -2.683901 -2.12132 -2.12132 
C -2.683901 -1.55874 -3 -0.795609 -3 0 
C -3 0.795609 -2.683901 1.55874 -2.12132 2.12132 
C -1.55874 2.683901 -0.795609 3 0 3 
z
"/>
    </defs>
    <g clip-path="url(#pbd02da4809)">
     <use xlink:href="#C0_0_d71ac7ea0b" x="23.341909" y="52.847949" style="fill-opacity: 0.5"/>
    </g>
    <g clip-path="url(#pbd02da4809)">
     <use xlink:href="#C0_0_d71ac7ea0b" x="23.341909" y="52.259251" style="fill-opacity: 0.5"/>
    </g>
    <g clip-path="url(#pbd02da4809)">
     <use xlink:href="#C0_0_d71ac7ea0b" x="23.341909" y="88.660758" style="fill-opacity: 0.5"/>
    </g>
    <g clip-path="url(#pbd02da4809)">
     <use xlink:href="#C0_0_d71ac7ea0b" x="23.341909" y="78.583346" style="fill-opacity: 0.5"/>
    </g>
    <g clip-path="url(#pbd02da4809)">
     <use xlink:href="#C0_0_d71ac7ea0b" x="23.341909" y="84.552176" style="fill-opacity: 0.5"/>
    </g>
    <g clip-path="url(#pbd02da4809)">
     <use xlink:href="#C0_0_d71ac7ea0b" x="23.341909" y="81.540437" style="fill-opacity: 0.5"/>
    </g>
    <g clip-path="url(#pbd02da4809)">
     <use xlink:href="#C0_0_d71ac7ea0b" x="23.341909" y="85.361074" style="fill-opacity: 0.5"/>
    </g>
    <g clip-path="url(#pbd02da4809)">
     <use xlink:href="#C0_0_d71ac7ea0b" x="23.341909" y="70.726523" style="fill-opacity: 0.5"/>
    </g>
    <g clip-path="url(#pbd02da4809)">
     <use xlink:href="#C0_0_d71ac7ea0b" x="23.341909" y="79.488725" style="fill-opacity: 0.5"/>
    </g>
   </g>
   <g id="PathCollection_2">
    <defs>
     <path id="C1_0_e90cb312b6" d="M 0 3 
C 0.795609 3 1.55874 2.683901 2.12132 2.12132 
C 2.683901 1.55874 3 0.795609 3 -0 
C 3 -0.795609 2.683901 -1.55874 2.12132 -2.12132 
C 1.55874 -2.683901 0.795609 -3 0 -3 
C -0.795609 -3 -1.55874 -2.683901 -2.12132 -2.12132 
C -2.683901 -1.55874 -3 -0.795609 -3 0 
C -3 0.795609 -2.683901 1.55874 -2.12132 2.12132 
C -1.55874 2.683901 -0.795609 3 0 3 
z
"/>
    </defs>
    <g clip-path="url(#pbd02da4809)">
     <use xlink:href="#C1_0_e90cb312b6" x="36.171682" y="39.503249" style="fill-opacity: 0.5"/>
    </g>
    <g clip-path="url(#pbd02da4809)">
     <use xlink:href="#C1_0_e90cb312b6" x="36.171682" y="81.066083" style="fill-opacity: 0.5"/>
    </g>
    <g clip-path="url(#pbd02da4809)">
     <use xlink:href="#C1_0_e90cb312b6" x="36.171682" y="60.655488" style="fill-opacity: 0.5"/>
    </g>
    <g clip-path="url(#pbd02da4809)">
     <use xlink:href="#C1_0_e90cb312b6" x="36.171682" y="76.317085" style="fill-opacity: 0.5"/>
    </g>
    <g clip-path="url(#pbd02da4809)">
     <use xlink:href="#C1_0_e90cb312b6" x="36.171682" y="75.187297" style="fill-opacity: 0.5"/>
    </g>
    <g clip-path="url(#pbd02da4809)">
     <use xlink:href="#C1_0_e90cb312b6" x="36.171682" y="80.68982" style="fill-opacity: 0.5"/>
    </g>
    <g clip-path="url(#pbd02da4809)">
     <use xlink:href="#C1_0_e90cb312b6" x="36.171682" y="62.531276" style="fill-opacity: 0.5"/>
    </g>
    <g clip-path="url(#pbd02da4809)">
     <use xlink:href="#C1_0_e90cb312b6" x="36.171682" y="71.463555" style="fill-opacity: 0.5"/>
    </g>
   </g>
   <g id="PathCollection_3">
    <defs>
     <path id="C2_0_b2b1360e0d" d="M 0 3 
C 0.795609 3 1.55874 2.683901 2.12132 2.12132 
C 2.683901 1.55874 3 0.795609 3 -0 
C 3 -0.795609 2.683901 -1.55874 2.12132 -2.12132 
C 1.55874 -2.683901 0.795609 -3 0 -3 
C -0.795609 -3 -1.55874 -2.683901 -2.12132 -2.12132 
C -2.683901 -1.55874 -3 -0.795609 -3 0 
C -3 0.795609 -2.683901 1.55874 -2.12132 2.12132 
C -1.55874 2.683901 -0.795609 3 0 3 
z
"/>
    </defs>
    <g clip-path="url(#pbd02da4809)">
     <use xlink:href="#C2_0_b2b1360e0d" x="49.001455" y="82.603508" style="fill-opacity: 0.5"/>
    </g>
    <g clip-path="url(#pbd02da4809)">
     <use xlink:href="#C2_0_b2b1360e0d" x="49.001455" y="38.512948" style="fill-opacity: 0.5"/>
    </g>
    <g clip-path="url(#pbd02da4809)">
     <use xlink:href="#C2_0_b2b1360e0d" x="49.001455" y="57.638184" style="fill-opacity: 0.5"/>
    </g>
    <g clip-path="url(#pbd02da4809)">
     <use xlink:href="#C2_0_b2b1360e0d" x="49.001455" y="70.609592" style="fill-opacity: 0.5"/>
    </g>
    <g clip-path="url(#pbd02da4809)">
     <use xlink:href="#C2_0_b2b1360e0d" x="49.001455" y="65.777758" style="fill-opacity: 0.5"/>
    </g>
    <g clip-path="url(#pbd02da4809)">
     <use xlink:href="#C2_0_b2b1360e0d" x="49.001455" y="45.011078" style="fill-opacity: 0.5"/>
    </g>
    <g clip-path="url(#pbd02da4809)">
     <use xlink:href="#C2_0_b2b1360e0d" x="49.001455" y="60.826484" style="fill-opacity: 0.5"/>
    </g>
   </g>
   <g id="PathCollection_4">
    <defs>
     <path id="C3_0_b520119bc8" d="M 0 3 
C 0.795609 3 1.55874 2.683901 2.12132 2.12132 
C 2.683901 1.55874 3 0.795609 3 -0 
C 3 -0.795609 2.683901 -1.55874 2.12132 -2.12132 
C 1.55874 -2.683901 0.795609 -3 0 -3 
C -0.795609 -3 -1.55874 -2.683901 -2.12132 -2.12132 
C -2.683901 -1.55874 -3 -0.795609 -3 0 
C -3 0.795609 -2.683901 1.55874 -2.12132 2.12132 
C -1.55874 2.683901 -0.795609 3 0 3 
z
"/>
    </defs>
    <g clip-path="url(#pbd02da4809)">
     <use xlink:href="#C3_0_b520119bc8" x="61.831227" y="34.025566" style="fill-opacity: 0.5"/>
    </g>
    <g clip-path="url(#pbd02da4809)">
     <use xlink:href="#C3_0_b520119bc8" x="61.831227" y="39.429194" style="fill-opacity: 0.5"/>
    </g>
    <g clip-path="url(#pbd02da4809)">
     <use xlink:href="#C3_0_b520119bc8" x="61.831227" y="62.181155" style="fill-opacity: 0.5"/>
    </g>
    <g clip-path="url(#pbd02da4809)">
     <use xlink:href="#C3_0_b520119bc8" x="61.831227" y="74.576001" style="fill-opacity: 0.5"/>
    </g>
    <g clip-path="url(#pbd02da4809)">
     <use xlink:href="#C3_0_b520119bc8" x="61.831227" y="32.266254" style="fill-opacity: 0.5"/>
    </g>
    <g clip-path="url(#pbd02da4809)">
     <use xlink:href="#C3_0_b520119bc8" x="61.831227" y="53.360683" style="fill-opacity: 0.5"/>
    </g>
   </g>
   <g id="PathCollection_5">
    <defs>
     <path id="C4_0_0799441d8d" d="M 0 3 
C 0.795609 3 1.55874 2.683901 2.12132 2.12132 
C 2.683901 1.55874 3 0.795609 3 -0 
C 3 -0.795609 2.683901 -1.55874 2.12132 -2.12132 
C 1.55874 -2.683901 0.795609 -3 0 -3 
C -0.795609 -3 -1.55874 -2.683901 -2.12132 -2.12132 
C -2.683901 -1.55874 -3 -0.795609 -3 0 
C -3 0.795609 -2.683901 1.55874 -2.12132 2.12132 
C -1.55874 2.683901 -0.795609 3 0 3 
z
"/>
    </defs>
    <g clip-path="url(#pbd02da4809)">
     <use xlink:href="#C4_0_0799441d8d" x="74.661" y="36.466789" style="fill-opacity: 0.5"/>
    </g>
    <g clip-path="url(#pbd02da4809)">
     <use xlink:href="#C4_0_0799441d8d" x="74.661" y="55.504285" style="fill-opacity: 0.5"/>
    </g>
    <g clip-path="url(#pbd02da4809)">
     <use xlink:href="#C4_0_0799441d8d" x="74.661" y="61.176877" style="fill-opacity: 0.5"/>
    </g>
    <g clip-path="url(#pbd02da4809)">
     <use xlink:href="#C4_0_0799441d8d" x="74.661" y="28.962467" style="fill-opacity: 0.5"/>
    </g>
    <g clip-path="url(#pbd02da4809)">
     <use xlink:href="#C4_0_0799441d8d" x="74.661" y="47.276479" style="fill-opacity: 0.5"/>
    </g>
   </g>
   <g id="PathCollection_6">
    <defs>
     <path id="C5_0_1133a0659d" d="M 0 3 
C 0.795609 3 1.55874 2.683901 2.12132 2.12132 
C 2.683901 1.55874 3 0.795609 3 -0 
C 3 -0.795609 2.683901 -1.55874 2.12132 -2.12132 
C 1.55874 -2.683901 0.795609 -3 0 -3 
C -0.795609 -3 -1.55874 -2.683901 -2.12132 -2.12132 
C -2.683901 -1.55874 -3 -0.795609 -3 0 
C -3 0.795609 -2.683901 1.55874 -2.12132 2.12132 
C -1.55874 2.683901 -0.795609 3 0 3 
z
"/>
    </defs>
    <g clip-path="url(#pbd02da4809)">
     <use xlink:href="#C5_0_1133a0659d" x="87.490773" y="55.297793" style="fill-opacity: 0.5"/>
    </g>
    <g clip-path="url(#pbd02da4809)">
     <use xlink:href="#C5_0_1133a0659d" x="87.490773" y="59.445084" style="fill-opacity: 0.5"/>
    </g>
    <g clip-path="url(#pbd02da4809)">
     <use xlink:href="#C5_0_1133a0659d" x="87.490773" y="24.867772" style="fill-opacity: 0.5"/>
    </g>
    <g clip-path="url(#pbd02da4809)">
     <use xlink:href="#C5_0_1133a0659d" x="87.490773" y="43.74908" style="fill-opacity: 0.5"/>
    </g>
   </g>
   <g id="PathCollection_7">
    <defs>
     <path id="C6_0_8cabea9004" d="M 0 3 
C 0.795609 3 1.55874 2.683901 2.12132 2.12132 
C 2.683901 1.55874 3 0.795609 3 -0 
C 3 -0.795609 2.683901 -1.55874 2.12132 -2.12132 
C 1.55874 -2.683901 0.795609 -3 0 -3 
C -0.795609 -3 -1.55874 -2.683901 -2.12132 -2.12132 
C -2.683901 -1.55874 -3 -0.795609 -3 0 
C -3 0.795609 -2.683901 1.55874 -2.12132 2.12132 
C -1.55874 2.683901 -0.795609 3 0 3 
z
"/>
    </defs>
    <g clip-path="url(#pbd02da4809)">
     <use xlink:href="#C6_0_8cabea9004" x="100.320545" y="58.216247" style="fill-opacity: 0.5"/>
    </g>
    <g clip-path="url(#pbd02da4809)">
     <use xlink:href="#C6_0_8cabea9004" x="100.320545" y="32.780637" style="fill-opacity: 0.5"/>
    </g>
    <g clip-path="url(#pbd02da4809)">
     <use xlink:href="#C6_0_8cabea9004" x="100.320545" y="36.7245" style="fill-opacity: 0.5"/>
    </g>
   </g>
   <g id="PathCollection_8">
    <defs>
     <path id="C7_0_845201652f" d="M 0 3 
C 0.795609 3 1.55874 2.683901 2.12132 2.12132 
C 2.683901 1.55874 3 0.795609 3 -0 
C 3 -0.795609 2.683901 -1.55874 2.12132 -2.12132 
C 1.55874 -2.683901 0.795609 -3 0 -3 
C -0.795609 -3 -1.55874 -2.683901 -2.12132 -2.12132 
C -2.683901 -1.55874 -3 -0.795609 -3 0 
C -3 0.795609 -2.683901 1.55874 -2.12132 2.12132 
C -1.55874 2.683901 -0.795609 3 0 3 
z
"/>
    </defs>
    <g clip-path="url(#pbd02da4809)">
     <use xlink:href="#C7_0_845201652f" x="113.150318" y="29.362196" style="fill-opacity: 0.5"/>
    </g>
    <g clip-path="url(#pbd02da4809)">
     <use xlink:href="#C7_0_845201652f" x="113.150318" y="42.408898" style="fill-opacity: 0.5"/>
    </g>
   </g>
   <g id="PathCollection_9">
    <path d="M 125.980091 41.21453 
C 126.7757 41.21453 127.538831 40.898431 128.101411 40.33585 
C 128.663992 39.77327 128.980091 39.010139 128.980091 38.21453 
C 128.980091 37.418921 128.663992 36.65579 128.101411 36.09321 
C 127.538831 35.530629 126.7757 35.21453 125.980091 35.21453 
C 125.184482 35.21453 124.421351 35.530629 123.858771 36.09321 
C 123.29619 36.65579 122.980091 37.418921 122.980091 38.21453 
C 122.980091 39.010139 123.29619 39.77327 123.858771 40.33585 
C 124.421351 40.898431 125.184482 41.21453 125.980091 41.21453 
z
" clip-path="url(#pbd02da4809)" style="fill-opacity: 0.5"/>
   </g>
   <g id="matplotlib.axis_1">
    <g id="xtick_1">
     <g id="line2d_1">
      <defs>
       <path id="ma65aade0cc" d="M 0 0 
L 0 3.5 
" style="stroke: #000000; stroke-width: 0.8"/>
      </defs>
      <g>
       <use xlink:href="#ma65aade0cc" x="23.341909" y="105.3048" style="stroke: #000000; stroke-width: 0.8"/>
      </g>
     </g>
    </g>
    <g id="xtick_2">
     <g id="line2d_2">
      <g>
       <use xlink:href="#ma65aade0cc" x="36.171682" y="105.3048" style="stroke: #000000; stroke-width: 0.8"/>
      </g>
     </g>
    </g>
    <g id="xtick_3">
     <g id="line2d_3">
      <g>
       <use xlink:href="#ma65aade0cc" x="49.001455" y="105.3048" style="stroke: #000000; stroke-width: 0.8"/>
      </g>
     </g>
    </g>
    <g id="xtick_4">
     <g id="line2d_4">
      <g>
       <use xlink:href="#ma65aade0cc" x="61.831227" y="105.3048" style="stroke: #000000; stroke-width: 0.8"/>
      </g>
     </g>
    </g>
    <g id="xtick_5">
     <g id="line2d_5">
      <g>
       <use xlink:href="#ma65aade0cc" x="74.661" y="105.3048" style="stroke: #000000; stroke-width: 0.8"/>
      </g>
     </g>
    </g>
    <g id="xtick_6">
     <g id="line2d_6">
      <g>
       <use xlink:href="#ma65aade0cc" x="87.490773" y="105.3048" style="stroke: #000000; stroke-width: 0.8"/>
      </g>
     </g>
    </g>
    <g id="xtick_7">
     <g id="line2d_7">
      <g>
       <use xlink:href="#ma65aade0cc" x="100.320545" y="105.3048" style="stroke: #000000; stroke-width: 0.8"/>
      </g>
     </g>
    </g>
    <g id="xtick_8">
     <g id="line2d_8">
      <g>
       <use xlink:href="#ma65aade0cc" x="113.150318" y="105.3048" style="stroke: #000000; stroke-width: 0.8"/>
      </g>
     </g>
    </g>
    <g id="xtick_9">
     <g id="line2d_9">
      <g>
       <use xlink:href="#ma65aade0cc" x="125.980091" y="105.3048" style="stroke: #000000; stroke-width: 0.8"/>
      </g>
     </g>
    </g>
   </g>
   <g id="matplotlib.axis_2">
    <g id="ytick_1">
     <g id="line2d_10">
      <defs>
       <path id="m9799820835" d="M 0 0 
L -3.5 0 
" style="stroke: #000000; stroke-width: 0.8"/>
      </defs>
      <g>
       <use xlink:href="#m9799820835" x="18.21" y="105.3048" style="stroke: #000000; stroke-width: 0.8"/>
      </g>
     </g>
    </g>
    <g id="ytick_2">
     <g id="line2d_11">
      <g>
       <use xlink:href="#m9799820835" x="18.21" y="82.5282" style="stroke: #000000; stroke-width: 0.8"/>
      </g>
     </g>
    </g>
    <g id="ytick_3">
     <g id="line2d_12">
      <g>
       <use xlink:href="#m9799820835" x="18.21" y="59.7516" style="stroke: #000000; stroke-width: 0.8"/>
      </g>
     </g>
    </g>
    <g id="ytick_4">
     <g id="line2d_13">
      <g>
       <use xlink:href="#m9799820835" x="18.21" y="36.975" style="stroke: #000000; stroke-width: 0.8"/>
      </g>
     </g>
    </g>
    <g id="ytick_5">
     <g id="line2d_14">
      <g>
       <use xlink:href="#m9799820835" x="18.21" y="14.1984" style="stroke: #000000; stroke-width: 0.8"/>
      </g>
     </g>
    </g>
   </g>
   <g id="line2d_15">
    <path d="M 23.341909 73.461689 
L 36.171682 68.086824 
L 49.001455 62.711959 
L 61.831227 57.337094 
L 74.661 51.96223 
L 87.490773 46.587365 
L 100.320545 41.2125 
L 113.150318 35.837635 
L 125.980091 30.462771 
" clip-path="url(#pbd02da4809)" style="fill: none; stroke: #000000; stroke-width: 1.5; stroke-linecap: square"/>
   </g>
   <g id="patch_3">
    <path d="M 18.21 105.3048 
L 18.21 14.1984 
" style="fill: none; stroke: #000000; stroke-width: 0.8; stroke-linejoin: miter; stroke-linecap: square"/>
   </g>
   <g id="patch_4">
    <path d="M 131.112 105.3048 
L 131.112 14.1984 
" style="fill: none; stroke: #000000; stroke-width: 0.8; stroke-linejoin: miter; stroke-linecap: square"/>
   </g>
   <g id="patch_5">
    <path d="M 18.21 105.3048 
L 131.112 105.3048 
" style="fill: none; stroke: #000000; stroke-width: 0.8; stroke-linejoin: miter; stroke-linecap: square"/>
   </g>
   <g id="patch_6">
    <path d="M 18.21 14.1984 
L 131.112 14.1984 
" style="fill: none; stroke: #000000; stroke-width: 0.8; stroke-linejoin: miter; stroke-linecap: square"/>
   </g>
  </g>
 </g>
 <defs>
  <clipPath id="pbd02da4809">
   <rect x="18.21" y="14.1984" width="112.902" height="91.1064"/>
  </clipPath>
 </defs>
</svg>
