<?xml version="1.0" encoding="utf-8"?>
<!-- Generator: Adobe Illustrator 26.4.1, SVG Export Plug-In . SVG Version: 6.00 Build 0)  -->
<svg version="1.1" id="Layer_1" xmlns="http://www.w3.org/2000/svg" xmlns:xlink="http://www.w3.org/1999/xlink" x="0px" y="0px"
	 viewBox="0 0 238.7 162.4" style="enable-background:new 0 0 238.7 162.4;" xml:space="preserve">
<style type="text/css">
	.st0{fill:#FFFFFF;}
	.st1{stroke:#000000;stroke-width:0.8;stroke-linejoin:round;}
	
		.st2{clip-path:url(#SVGID_00000100346198104093315450000002735327197492414356_);fill:none;stroke:#000000;stroke-linecap:square;stroke-linejoin:round;}
	
		.st3{clip-path:url(#SVGID_00000093899012932661480100000004326601232446618302_);fill:none;stroke:#000000;stroke-linecap:square;stroke-linejoin:round;}
	
		.st4{clip-path:url(#SVGID_00000163793100061258350500000007595790257662758828_);fill:none;stroke:#000000;stroke-linecap:square;stroke-linejoin:round;}
	
		.st5{clip-path:url(#SVGID_00000110451463361944257360000014451513833856607158_);fill:none;stroke:#000000;stroke-linecap:square;stroke-linejoin:round;}
	
		.st6{clip-path:url(#SVGID_00000080919353374423612840000010415651405054375813_);fill:none;stroke:#000000;stroke-linecap:square;stroke-linejoin:round;}
	
		.st7{clip-path:url(#SVGID_00000120544233873132630340000012330798458244326320_);fill:none;stroke:#000000;stroke-linecap:square;stroke-linejoin:round;}
	
		.st8{clip-path:url(#SVGID_00000161619264816706122520000006088930897399542710_);fill:none;stroke:#000000;stroke-linecap:square;stroke-linejoin:round;}
	
		.st9{clip-path:url(#SVGID_00000067219218510148102770000002471764927949766589_);fill:none;stroke:#000000;stroke-linecap:square;stroke-linejoin:round;}
	
		.st10{clip-path:url(#SVGID_00000174582004711783188630000011697680630441438137_);fill:none;stroke:#000000;stroke-linecap:square;stroke-linejoin:round;}
	
		.st11{clip-path:url(#SVGID_00000067934513801012821230000009262142347648089988_);fill:none;stroke:#000000;stroke-linecap:square;stroke-linejoin:round;}
	
		.st12{clip-path:url(#SVGID_00000050654900235623073620000011927402437368766855_);fill:none;stroke:#000000;stroke-linecap:square;stroke-linejoin:round;}
	
		.st13{clip-path:url(#SVGID_00000016051626031501264710000013972192569577808820_);fill:none;stroke:#000000;stroke-linecap:square;stroke-linejoin:round;}
	
		.st14{clip-path:url(#SVGID_00000119079497543648248380000012342630921769644433_);fill:none;stroke:#000000;stroke-linecap:square;stroke-linejoin:round;}
	
		.st15{clip-path:url(#SVGID_00000074443517935222108400000009291537227865571213_);fill:none;stroke:#000000;stroke-linecap:square;stroke-linejoin:round;}
	
		.st16{clip-path:url(#SVGID_00000180364097985132132910000001521343515950118826_);fill:none;stroke:#000000;stroke-linecap:square;stroke-linejoin:round;}
	
		.st17{clip-path:url(#SVGID_00000088849731309080070270000006048987033001108105_);fill:none;stroke:#FF7F0E;stroke-linecap:square;stroke-linejoin:round;}
	
		.st18{clip-path:url(#SVGID_00000129886386629859310620000007169671158956898722_);fill:none;stroke:#FF7F0E;stroke-linecap:square;stroke-linejoin:round;}
	
		.st19{clip-path:url(#SVGID_00000155106742013072669310000013999172077852061340_);fill:none;stroke:#FF7F0E;stroke-linecap:square;stroke-linejoin:round;}
	.st20{fill:none;stroke:#000000;stroke-width:0.8;stroke-linecap:square;}
</style>
<g id="figure_1">
	<g id="axes_1">
		<g id="patch_2">
			<path class="st0" d="M29.8,144.5h185v-125h-185V144.5z"/>
		</g>
		<g id="matplotlib.axis_1">
			<g id="xtick_1">
				<g id="line2d_1">
					<g>
						<g>
							<path id="m032fe87106" class="st1" d="M60.7,144.5v3.5"/>
						</g>
					</g>
				</g>
				<g id="text_1">
					<g transform="translate(48.324188 155.795087)scale(0.06 -0.06)">
						<g>
							<path id="ArialMT-49" d="M9.3,0v71.6h9.5V0H9.3z"/>
						</g>
						<g>
							<path id="ArialMT-6d" d="M34.4,0v51.9h7.9v-7.3c1.6,2.5,3.8,4.6,6.5,6.1c2.7,1.6,5.8,2.3,9.2,2.3c3.8,0,7-0.8,9.5-2.4
								c2.5-1.6,4.2-3.8,5.2-6.7c4.1,6.1,9.4,9.1,16,9.1c5.1,0,9.1-1.4,11.9-4.3c2.8-2.8,4.2-7.2,4.2-13.2V0h-8.8v32.7
								c0,3.5-0.3,6-0.9,7.6c-0.6,1.6-1.6,2.8-3.1,3.7c-1.5,0.9-3.2,1.4-5.3,1.4c-3.6,0-6.7-1.2-9.1-3.6c-2.4-2.4-3.6-6.3-3.6-11.6
								V0h-8.8v33.7c0,3.9-0.7,6.8-2.2,8.8c-1.4,2-3.8,2.9-7,2.9c-2.5,0-4.8-0.7-6.9-2c-2.1-1.3-3.6-3.2-4.6-5.7
								c-0.9-2.5-1.4-6.1-1.4-10.8V0H34.4z"/>
						</g>
						<g>
							<path id="ArialMT-61" d="M151.5,6.4c-3.3-2.8-6.4-4.7-9.4-5.9c-3-1.1-6.2-1.7-9.7-1.7c-5.7,0-10.1,1.4-13.1,4.2
								s-4.6,6.3-4.6,10.7c0,2.5,0.6,4.9,1.7,7c1.2,2.1,2.7,3.8,4.5,5.1s4,2.2,6.3,2.9c1.7,0.5,4.3,0.9,7.8,1.3
								c7.1,0.8,12.3,1.8,15.7,3c0,1.2,0,2,0,2.3c0,3.6-0.8,6.1-2.5,7.6c-2.2,2-5.6,3-10,3c-4.1,0-7.2-0.7-9.2-2.2s-3.4-4-4.4-7.7
								l-8.6,1.2c0.8,3.7,2.1,6.6,3.9,8.9c1.8,2.3,4.4,4,7.8,5.2c3.4,1.2,7.3,1.8,11.8,1.8c4.4,0,8-0.5,10.8-1.6
								c2.8-1,4.8-2.4,6.1-3.9c1.3-1.6,2.2-3.6,2.7-6c0.3-1.5,0.4-4.2,0.4-8.1V21.7c0-8.2,0.2-13.3,0.6-15.5
								c0.4-2.2,1.1-4.2,2.2-6.2h-9.2C152.4,1.8,151.8,4,151.5,6.4z M150.8,26c-3.2-1.3-8-2.4-14.4-3.3c-3.6-0.5-6.2-1.1-7.7-1.8
								c-1.5-0.6-2.6-1.6-3.5-2.8c-0.8-1.2-1.2-2.6-1.2-4.2c0-2.3,0.9-4.3,2.7-5.9c1.8-1.6,4.4-2.3,7.8-2.3c3.4,0,6.4,0.7,9,2.2
								s4.6,3.5,5.8,6.1c0.9,2,1.4,4.9,1.4,8.8V26z"/>
						</g>
						<g>
							<path id="ArialMT-67" d="M171.7-4.3l8.5-1.3c0.4-2.6,1.3-4.6,3-5.8c2.2-1.6,5.2-2.4,8.9-2.4c4.1,0,7.2,0.8,9.4,2.4
								c2.2,1.6,3.7,3.9,4.5,6.8c0.5,1.8,0.7,5.6,0.6,11.3c-3.8-4.5-8.6-6.8-14.3-6.8c-7.1,0-12.7,2.6-16.6,7.7s-5.9,11.3-5.9,18.5
								c0,4.9,0.9,9.5,2.7,13.7c1.8,4.2,4.4,7.4,7.8,9.7c3.4,2.3,7.4,3.4,12,3.4c6.1,0,11.2-2.5,15.1-7.4v6.2h8.1V7
								c0-8.1-0.8-13.8-2.5-17.2c-1.6-3.4-4.2-6-7.8-8c-3.6-2-7.9-2.9-13.2-2.9c-6.2,0-11.2,1.4-15,4.2S171.5-9.9,171.7-4.3z
								 M178.9,26.9c0-6.8,1.3-11.8,4-14.9c2.7-3.1,6.1-4.7,10.2-4.7c4,0,7.4,1.6,10.1,4.7c2.7,3.1,4.1,8,4.1,14.6
								c0,6.3-1.4,11.1-4.2,14.3c-2.8,3.2-6.2,4.8-10.2,4.8c-3.9,0-7.2-1.6-10-4.8C180.3,37.8,178.9,33.1,178.9,26.9z"/>
						</g>
						<g>
							<path id="ArialMT-69" d="M229,61.5v10.1h8.8V61.5H229z M229,0v51.9h8.8V0H229z"/>
						</g>
						<g>
							<path id="ArialMT-6e" d="M251.1,0v51.9h7.9v-7.4c3.8,5.7,9.3,8.5,16.5,8.5c3.1,0,6-0.6,8.6-1.7s4.6-2.6,5.9-4.4
								s2.2-4,2.7-6.5c0.3-1.6,0.5-4.5,0.5-8.5V0h-8.8v31.5c0,3.6-0.3,6.3-1,8c-0.7,1.8-1.9,3.2-3.6,4.2c-1.7,1.1-3.8,1.6-6.1,1.6
								c-3.8,0-7-1.2-9.7-3.6s-4.1-6.9-4.1-13.5V0H251.1z"/>
						</g>
						<g>
							<path id="ArialMT-65" d="M342.2,16.7l9.1-1.1c-1.4-5.3-4.1-9.4-8-12.4c-3.9-2.9-8.8-4.4-14.8-4.4c-7.6,0-13.6,2.3-18,7
								c-4.4,4.7-6.7,11.2-6.7,19.7c0,8.7,2.2,15.5,6.7,20.3C315,50.6,320.9,53,328,53c6.9,0,12.6-2.4,17-7.1
								c4.4-4.7,6.6-11.4,6.6-19.9c0-0.5,0-1.3,0-2.3h-38.7c0.3-5.7,1.9-10.1,4.8-13.1c2.9-3,6.5-4.5,10.8-4.5c3.2,0,6,0.8,8.2,2.5
								C339.1,10.3,340.9,13,342.2,16.7z M313.4,30.9h29c-0.4,4.4-1.5,7.6-3.3,9.8c-2.8,3.4-6.4,5.1-10.9,5.1c-4,0-7.4-1.3-10.2-4
								S313.7,35.4,313.4,30.9z"/>
						</g>
						<g>
							<path id="ArialMT-64" d="M396,0v6.5c-3.3-5.1-8.1-7.7-14.5-7.7c-4.1,0-7.9,1.1-11.4,3.4s-6.2,5.5-8.1,9.5
								c-1.9,4.1-2.8,8.8-2.8,14.1c0,5.2,0.9,9.9,2.6,14.1c1.7,4.2,4.3,7.4,7.8,9.7c3.5,2.2,7.3,3.4,11.6,3.4c3.1,0,5.9-0.7,8.3-2
								c2.4-1.3,4.4-3,6-5.1v25.7h8.7V0H396z M368.2,25.9c0-6.6,1.4-11.6,4.2-14.9c2.8-3.3,6.1-4.9,9.9-4.9c3.8,0,7.1,1.6,9.8,4.7
								c2.7,3.1,4,7.9,4,14.4c0,7.1-1.4,12.3-4.1,15.6c-2.7,3.3-6.1,5-10.1,5c-3.9,0-7.2-1.6-9.8-4.8
								C369.5,37.8,368.2,32.8,368.2,25.9z"/>
						</g>
					</g>
				</g>
			</g>
			<g id="xtick_2">
				<g id="line2d_2">
					<g>
						<g>
							<path id="m032fe87106_00000166653290597751829850000013874268931189559198_" class="st1" d="M122.3,144.5v3.5"/>
						</g>
					</g>
				</g>
				<g id="text_2">
					<g transform="translate(113.652094 155.795087)scale(0.06 -0.06)">
						<g>
							<path id="ArialMT-4f" d="M4.8,34.9C4.8,46.7,8,56,14.4,62.8c6.4,6.7,14.6,10.1,24.7,10.1c6.6,0,12.6-1.6,17.9-4.8
								c5.3-3.2,9.3-7.6,12.1-13.2c2.8-5.6,4.2-12.1,4.2-19.2c0-7.2-1.5-13.7-4.4-19.5c-2.9-5.7-7.1-10.1-12.5-13
								c-5.4-2.9-11.2-4.4-17.4-4.4c-6.7,0-12.8,1.6-18.1,4.9C15.7,6.9,11.7,11.4,8.9,17C6.2,22.6,4.8,28.6,4.8,34.9z M14.6,34.7
								c0-8.6,2.3-15.4,7-20.4C26.2,9.4,32,6.9,39,6.9c7.1,0,13,2.5,17.6,7.5c4.6,5,6.9,12.1,6.9,21.3c0,5.8-1,10.9-3,15.2
								s-4.9,7.7-8.7,10.1c-3.8,2.4-8,3.6-12.8,3.6c-6.7,0-12.5-2.3-17.3-6.9C17,53.2,14.6,45.5,14.6,34.7z"/>
						</g>
						<g>
							<path id="ArialMT-6e_00000113353747127027329930000001591366350658702999_" d="M84.4,0v51.9h7.9v-7.4
								c3.8,5.7,9.3,8.5,16.5,8.5c3.1,0,6-0.6,8.6-1.7s4.6-2.6,5.9-4.4c1.3-1.8,2.2-4,2.7-6.5c0.3-1.6,0.5-4.5,0.5-8.5V0h-8.8v31.5
								c0,3.6-0.3,6.3-1,8c-0.7,1.8-1.9,3.2-3.6,4.2c-1.7,1.1-3.8,1.6-6.1,1.6c-3.8,0-7-1.2-9.7-3.6s-4.1-6.9-4.1-13.5V0H84.4z"/>
						</g>
						<g>
							<path id="ArialMT-6c" d="M139.8,0v71.6h8.8V0H139.8z"/>
						</g>
						<g>
							<path id="ArialMT-69_00000123421141176820585880000013149039636028442016_" d="M162.3,61.5v10.1h8.8V61.5H162.3z M162.3,0
								v51.9h8.8V0H162.3z"/>
						</g>
						<g>
							<path id="ArialMT-6e_00000060031951393990054430000013954384510370945471_" d="M184.4,0v51.9h7.9v-7.4
								c3.8,5.7,9.3,8.5,16.5,8.5c3.1,0,6-0.6,8.6-1.7s4.6-2.6,5.9-4.4c1.3-1.8,2.2-4,2.7-6.5c0.3-1.6,0.5-4.5,0.5-8.5V0h-8.8v31.5
								c0,3.6-0.3,6.3-1,8c-0.7,1.8-1.9,3.2-3.6,4.2c-1.7,1.1-3.8,1.6-6.1,1.6c-3.8,0-7-1.2-9.7-3.6s-4.1-6.9-4.1-13.5V0H184.4z"/>
						</g>
						<g>
							<path id="ArialMT-65_00000084500121420246469310000001196648887757050259_" d="M275.5,16.7l9.1-1.1c-1.4-5.3-4.1-9.4-8-12.4
								c-3.9-2.9-8.8-4.4-14.8-4.4c-7.6,0-13.6,2.3-18,7c-4.4,4.7-6.7,11.2-6.7,19.7c0,8.7,2.2,15.5,6.7,20.3
								c4.5,4.8,10.3,7.2,17.5,7.2c6.9,0,12.6-2.4,17-7.1c4.4-4.7,6.6-11.4,6.6-19.9c0-0.5,0-1.3,0-2.3h-38.7
								c0.3-5.7,1.9-10.1,4.8-13.1c2.9-3,6.5-4.5,10.8-4.5c3.2,0,6,0.8,8.2,2.5C272.4,10.3,274.2,13,275.5,16.7z M246.7,30.9h29
								c-0.4,4.4-1.5,7.6-3.3,9.8c-2.8,3.4-6.4,5.1-10.9,5.1c-4,0-7.4-1.3-10.2-4S247,35.4,246.7,30.9z"/>
						</g>
					</g>
				</g>
			</g>
			<g id="xtick_3">
				<g id="line2d_3">
					<g>
						<g>
							<path id="m032fe87106_00000178915653359996519130000002738448072023883452_" class="st1" d="M184,144.5v3.5"/>
						</g>
					</g>
				</g>
				<g id="text_3">
					<g transform="translate(176.311406 155.795087)scale(0.06 -0.06)">
						<g>
							<path id="ArialMT-42" d="M7.3,0v71.6h26.9c5.5,0,9.9-0.7,13.2-2.2s5.9-3.7,7.8-6.7c1.9-3,2.8-6.2,2.8-9.5
								c0-3.1-0.8-5.9-2.5-8.6c-1.7-2.7-4.2-4.9-7.5-6.5c4.3-1.3,7.6-3.4,10-6.5c2.3-3.1,3.5-6.7,3.5-10.8c0-3.4-0.7-6.5-2.1-9.4
								c-1.4-2.9-3.2-5.1-5.2-6.7S49.3,2,46.2,1.2C43,0.4,39.2,0,34.6,0H7.3z M16.8,41.5h15.5c4.2,0,7.2,0.3,9,0.8
								c2.4,0.7,4.2,1.9,5.4,3.6c1.2,1.7,1.8,3.8,1.8,6.3c0,2.4-0.6,4.5-1.7,6.3c-1.1,1.8-2.8,3.1-4.9,3.7c-2.1,0.7-5.7,1-10.9,1
								H16.8V41.5z M16.8,8.5h17.8c3.1,0,5.2,0.1,6.4,0.3c2.2,0.4,4,1,5.5,1.9c1.5,0.9,2.7,2.2,3.6,4c0.9,1.7,1.4,3.7,1.4,6
								c0,2.7-0.7,5-2,7c-1.4,2-3.3,3.4-5.7,4.2c-2.4,0.8-5.9,1.2-10.5,1.2H16.8V8.5z"/>
						</g>
						<g>
							<path id="ArialMT-61_00000137832352126444560520000003473713422943042481_" d="M107.1,6.4c-3.3-2.8-6.4-4.7-9.4-5.9
								c-3-1.1-6.2-1.7-9.7-1.7C82.3-1.2,78,0.2,74.9,3s-4.6,6.3-4.6,10.7c0,2.5,0.6,4.9,1.7,7c1.2,2.1,2.7,3.8,4.5,5.1
								s4,2.2,6.3,2.9c1.7,0.5,4.3,0.9,7.8,1.3c7.1,0.8,12.3,1.8,15.7,3c0,1.2,0,2,0,2.3c0,3.6-0.8,6.1-2.5,7.6c-2.2,2-5.6,3-10,3
								c-4.1,0-7.2-0.7-9.2-2.2s-3.4-4-4.4-7.7l-8.6,1.2c0.8,3.7,2.1,6.6,3.9,8.9c1.8,2.3,4.4,4,7.8,5.2c3.4,1.2,7.3,1.8,11.8,1.8
								c4.4,0,8-0.5,10.8-1.6c2.8-1,4.8-2.4,6.1-3.9c1.3-1.6,2.2-3.6,2.7-6c0.3-1.5,0.4-4.2,0.4-8.1V21.7c0-8.2,0.2-13.3,0.6-15.5
								c0.4-2.2,1.1-4.2,2.2-6.2h-9.2C108,1.8,107.4,4,107.1,6.4z M106.4,26c-3.2-1.3-8-2.4-14.4-3.3c-3.6-0.5-6.2-1.1-7.7-1.8
								c-1.5-0.6-2.6-1.6-3.5-2.8c-0.8-1.2-1.2-2.6-1.2-4.2c0-2.3,0.9-4.3,2.7-5.9c1.8-1.6,4.4-2.3,7.8-2.3c3.4,0,6.4,0.7,9,2.2
								c2.6,1.5,4.6,3.5,5.8,6.1c0.9,2,1.4,4.9,1.4,8.8V26z"/>
						</g>
						<g>
							<path id="ArialMT-74" d="M148.1,7.9l1.3-7.8c-2.5-0.5-4.7-0.8-6.6-0.8c-3.2,0-5.7,0.5-7.4,1.5c-1.8,1-3,2.3-3.7,4
								s-1.1,5.1-1.1,10.4V45h-6.4v6.8h6.4v12.8l8.7,5.3V51.9h8.8V45h-8.8V14.7c0-2.5,0.2-4.1,0.5-4.8c0.3-0.7,0.8-1.3,1.5-1.7
								c0.7-0.4,1.7-0.6,3-0.6C145.2,7.5,146.5,7.6,148.1,7.9z"/>
						</g>
						<g>
							<path id="ArialMT-63" d="M190.5,19l8.6-1.1c-0.9-6-3.4-10.6-7.3-14c-3.9-3.4-8.7-5-14.3-5c-7.1,0-12.8,2.3-17.1,7
								c-4.3,4.6-6.5,11.3-6.5,20c0,5.6,0.9,10.5,2.8,14.7c1.9,4.2,4.7,7.4,8.5,9.5c3.8,2.1,7.9,3.2,12.4,3.2
								c5.6,0,10.2-1.4,13.8-4.3c3.6-2.8,5.9-6.9,6.9-12.1l-8.5-1.3c-0.8,3.5-2.3,6.1-4.3,7.9c-2.1,1.8-4.6,2.6-7.5,2.6
								c-4.4,0-8-1.6-10.8-4.8c-2.8-3.2-4.1-8.2-4.1-15c0-7,1.3-12,4-15.2c2.7-3.2,6.2-4.7,10.5-4.7c3.4,0,6.3,1.1,8.6,3.2
								S189.9,14.6,190.5,19z"/>
						</g>
						<g>
							<path id="ArialMT-68" d="M206.7,0v71.6h8.8V45.9c4.1,4.8,9.3,7.1,15.5,7.1c3.8,0,7.2-0.8,10-2.3c2.8-1.5,4.9-3.6,6.1-6.3
								s1.8-6.5,1.8-11.6V0h-8.8v32.9c0,4.4-1,7.6-2.9,9.6s-4.6,3-8.1,3c-2.6,0-5.1-0.7-7.4-2c-2.3-1.3-3.9-3.2-4.9-5.5
								s-1.5-5.5-1.5-9.6V0H206.7z"/>
						</g>
					</g>
				</g>
			</g>
		</g>
		<g id="matplotlib.axis_2">
			<g id="ytick_1">
				<g id="line2d_4">
					<g>
						<g>
							<path id="m6fa4eeb355" class="st1" d="M29.8,140.4h-3.5"/>
						</g>
					</g>
				</g>
				<g id="text_4">
					<g transform="translate(11.158438 142.539425)scale(0.06 -0.06)">
						<g>
							<path id="ArialMT-30" d="M4.2,35.3c0,8.5,0.9,15.3,2.6,20.4c1.7,5.2,4.3,9.1,7.8,11.9c3.4,2.8,7.8,4.2,13,4.2
								c3.8,0,7.2-0.8,10.1-2.3c2.9-1.5,5.3-3.8,7.2-6.7c1.9-2.9,3.4-6.5,4.5-10.6c1.1-4.2,1.6-9.8,1.6-16.9
								c0-8.4-0.9-15.2-2.6-20.3c-1.7-5.2-4.3-9.1-7.7-12c-3.4-2.8-7.8-4.2-13-4.2c-6.9,0-12.3,2.5-16.2,7.4
								C6.5,12.2,4.2,21.9,4.2,35.3z M13.2,35.3c0-11.8,1.4-19.6,4.1-23.5C20.1,7.9,23.5,6,27.5,6c4,0,7.4,2,10.2,5.9
								s4.1,11.7,4.1,23.4c0,11.8-1.4,19.6-4.1,23.5c-2.8,3.9-6.2,5.8-10.3,5.8c-4,0-7.3-1.7-9.7-5.1C14.7,55.1,13.2,47.1,13.2,35.3
								z"/>
						</g>
						<g>
							<path id="ArialMT-2e" d="M64.7,0v10h10V0H64.7z"/>
						</g>
						<g>
							<path id="ArialMT-30_00000142142573829625943510000003530496663972928906_" d="M87.6,35.3c0,8.5,0.9,15.3,2.6,20.4
								c1.7,5.2,4.3,9.1,7.8,11.9c3.4,2.8,7.8,4.2,13,4.2c3.8,0,7.2-0.8,10.1-2.3c2.9-1.5,5.3-3.8,7.2-6.7c1.9-2.9,3.4-6.5,4.5-10.6
								c1.1-4.2,1.6-9.8,1.6-16.9c0-8.4-0.9-15.2-2.6-20.3c-1.7-5.2-4.3-9.1-7.7-12c-3.4-2.8-7.8-4.2-13-4.2
								c-6.9,0-12.3,2.5-16.2,7.4C89.9,12.2,87.6,21.9,87.6,35.3z M96.6,35.3c0-11.8,1.4-19.6,4.1-23.5c2.8-3.9,6.1-5.8,10.2-5.8
								c4,0,7.4,2,10.2,5.9s4.1,11.7,4.1,23.4c0,11.8-1.4,19.6-4.1,23.5c-2.8,3.9-6.2,5.8-10.3,5.8c-4,0-7.3-1.7-9.7-5.1
								C98.1,55.1,96.6,47.1,96.6,35.3z"/>
						</g>
						<g>
							<path id="ArialMT-35" d="M143.2,18.8l9.2,0.8c0.7-4.5,2.3-7.9,4.8-10.1c2.5-2.3,5.5-3.4,9-3.4c4.2,0,7.8,1.6,10.7,4.8
								c2.9,3.2,4.4,7.4,4.4,12.7c0,5-1.4,9-4.2,11.9c-2.8,2.9-6.5,4.4-11.1,4.4c-2.8,0-5.4-0.6-7.7-1.9c-2.3-1.3-4.1-2.9-5.4-5
								l-8.2,1.1l6.9,36.8h35.6v-8.4h-28.6L154.8,43c4.3,3,8.8,4.5,13.5,4.5c6.2,0,11.5-2.2,15.8-6.5c4.3-4.3,6.5-9.9,6.5-16.7
								c0-6.5-1.9-12.1-5.7-16.8c-4.6-5.8-10.9-8.7-18.8-8.7c-6.5,0-11.8,1.8-16,5.5C146.1,7.9,143.8,12.7,143.2,18.8z"/>
						</g>
					</g>
				</g>
			</g>
			<g id="ytick_2">
				<g id="line2d_5">
					<g>
						<g>
							<path id="m6fa4eeb355_00000103986301746004243680000003709611039285282237_" class="st1" d="M29.8,122h-3.5"/>
						</g>
					</g>
				</g>
				<g id="text_5">
					<g transform="translate(11.158438 124.172926)scale(0.06 -0.06)">
						<g>
							<path id="ArialMT-30_00000032649791177089717000000009354407870550696600_" d="M4.2,35.3c0,8.5,0.9,15.3,2.6,20.4
								c1.7,5.2,4.3,9.1,7.8,11.9c3.4,2.8,7.8,4.2,13,4.2c3.8,0,7.2-0.8,10.1-2.3c2.9-1.5,5.3-3.8,7.2-6.7c1.9-2.9,3.4-6.5,4.5-10.6
								c1.1-4.2,1.6-9.8,1.6-16.9c0-8.4-0.9-15.2-2.6-20.3c-1.7-5.2-4.3-9.1-7.7-12c-3.4-2.8-7.8-4.2-13-4.2
								c-6.9,0-12.3,2.5-16.2,7.4C6.5,12.2,4.2,21.9,4.2,35.3z M13.2,35.3c0-11.7,1.4-19.6,4.1-23.5C20.1,7.9,23.5,6,27.5,6
								c4,0,7.4,2,10.2,5.9s4.1,11.7,4.1,23.4c0,11.8-1.4,19.6-4.1,23.5c-2.8,3.9-6.2,5.8-10.3,5.8c-4,0-7.3-1.7-9.7-5.1
								C14.7,55.1,13.2,47.1,13.2,35.3z"/>
						</g>
						<g>
							<path id="ArialMT-2e_00000123429892969962729570000012412361307866192015_" d="M64.7,0v10h10V0H64.7z"/>
						</g>
						<g>
							<path id="ArialMT-31" d="M120.6,0h-8.8v56c-2.1-2-4.9-4-8.3-6s-6.5-3.5-9.2-4.5v8.5c4.9,2.3,9.2,5.1,12.9,8.4
								c3.7,3.3,6.3,6.5,7.8,9.6h5.7V0z"/>
						</g>
						<g>
							<path id="ArialMT-30_00000158718959848325613800000010072205195459710134_" d="M143.2,35.3c0,8.5,0.9,15.3,2.6,20.4
								c1.7,5.2,4.3,9.1,7.8,11.9c3.4,2.8,7.8,4.2,13,4.2c3.8,0,7.2-0.8,10.1-2.3c2.9-1.5,5.3-3.8,7.2-6.7c1.9-2.9,3.4-6.5,4.5-10.6
								c1.1-4.2,1.6-9.8,1.6-16.9c0-8.4-0.9-15.2-2.6-20.3c-1.7-5.2-4.3-9.1-7.7-12c-3.4-2.8-7.8-4.2-13-4.2
								c-6.9,0-12.3,2.5-16.2,7.4C145.5,12.2,143.2,21.9,143.2,35.3z M152.2,35.3c0-11.7,1.4-19.6,4.1-23.5
								c2.8-3.9,6.1-5.8,10.2-5.8c4,0,7.4,2,10.2,5.9s4.1,11.7,4.1,23.4c0,11.8-1.4,19.6-4.1,23.5c-2.8,3.9-6.2,5.8-10.3,5.8
								c-4,0-7.3-1.7-9.7-5.1C153.7,55.1,152.2,47.1,152.2,35.3z"/>
						</g>
					</g>
				</g>
			</g>
			<g id="ytick_3">
				<g id="line2d_6">
					<g>
						<g>
							<path id="m6fa4eeb355_00000023986822641873258310000004720310486415217040_" class="st1" d="M29.8,103.7h-3.5"/>
						</g>
					</g>
				</g>
				<g id="text_6">
					<g transform="translate(11.158438 105.806427)scale(0.06 -0.06)">
						<g>
							<path id="ArialMT-30_00000056389756251135290390000016425323483862541468_" d="M4.2,35.3c0,8.5,0.9,15.3,2.6,20.4
								c1.7,5.2,4.3,9.1,7.8,11.9c3.4,2.8,7.8,4.2,13,4.2c3.8,0,7.2-0.8,10.1-2.3c2.9-1.5,5.3-3.8,7.2-6.7c1.9-2.9,3.4-6.5,4.5-10.6
								c1.1-4.2,1.6-9.8,1.6-16.9c0-8.4-0.9-15.2-2.6-20.3c-1.7-5.2-4.3-9.1-7.7-12c-3.4-2.8-7.8-4.2-13-4.2
								c-6.9,0-12.3,2.5-16.2,7.4C6.5,12.2,4.2,21.9,4.2,35.3z M13.2,35.3c0-11.8,1.4-19.6,4.1-23.5C20.1,7.9,23.5,6,27.5,6
								c4,0,7.4,2,10.2,5.9s4.1,11.7,4.1,23.4c0,11.8-1.4,19.6-4.1,23.5c-2.8,3.9-6.2,5.8-10.3,5.8c-4,0-7.3-1.7-9.7-5.1
								C14.7,55.1,13.2,47.1,13.2,35.3z"/>
						</g>
						<g>
							<path id="ArialMT-2e_00000029763483812228126830000011849799687769497256_" d="M64.7,0v10h10V0H64.7z"/>
						</g>
						<g>
							<path id="ArialMT-31_00000178884638113215813780000015402660136346791331_" d="M120.6,0h-8.8v56c-2.1-2-4.9-4-8.3-6
								s-6.5-3.5-9.2-4.5v8.5c4.9,2.3,9.2,5.1,12.9,8.4c3.7,3.3,6.3,6.5,7.8,9.6h5.7V0z"/>
						</g>
						<g>
							<path id="ArialMT-35_00000059305142035004253500000010682148605510591902_" d="M143.2,18.8l9.2,0.8c0.7-4.5,2.3-7.9,4.8-10.1
								c2.5-2.3,5.5-3.4,9-3.4c4.2,0,7.8,1.6,10.7,4.8c2.9,3.2,4.4,7.4,4.4,12.7c0,5-1.4,9-4.2,11.9c-2.8,2.9-6.5,4.4-11.1,4.4
								c-2.8,0-5.4-0.6-7.7-1.9c-2.3-1.3-4.1-2.9-5.4-5l-8.2,1.1l6.9,36.8h35.6v-8.4h-28.6L154.8,43c4.3,3,8.8,4.5,13.5,4.5
								c6.2,0,11.5-2.2,15.8-6.5c4.3-4.3,6.5-9.9,6.5-16.7c0-6.5-1.9-12.1-5.7-16.8c-4.6-5.8-10.9-8.7-18.8-8.7
								c-6.5,0-11.8,1.8-16,5.5C146.1,7.9,143.8,12.7,143.2,18.8z"/>
						</g>
					</g>
				</g>
			</g>
			<g id="ytick_4">
				<g id="line2d_7">
					<g>
						<g>
							<path id="m6fa4eeb355_00000049930211635397218050000008590416679700931973_" class="st1" d="M29.8,85.3h-3.5"/>
						</g>
					</g>
				</g>
				<g id="text_7">
					<g transform="translate(11.158438 87.439928)scale(0.06 -0.06)">
						<g>
							<path id="ArialMT-30_00000035516013200573143450000015574859169754327988_" d="M4.2,35.3c0,8.5,0.9,15.3,2.6,20.4
								c1.7,5.2,4.3,9.1,7.8,11.9c3.4,2.8,7.8,4.2,13,4.2c3.8,0,7.2-0.8,10.1-2.3c2.9-1.5,5.3-3.8,7.2-6.7c1.9-2.9,3.4-6.5,4.5-10.6
								c1.1-4.2,1.6-9.8,1.6-16.9c0-8.4-0.9-15.2-2.6-20.3c-1.7-5.2-4.3-9.1-7.7-12c-3.4-2.8-7.8-4.2-13-4.2
								c-6.9,0-12.3,2.5-16.2,7.4C6.5,12.2,4.2,21.9,4.2,35.3z M13.2,35.3c0-11.8,1.4-19.6,4.1-23.5C20.1,7.9,23.5,6,27.5,6
								c4,0,7.4,2,10.2,5.9s4.1,11.7,4.1,23.4c0,11.8-1.4,19.6-4.1,23.5c-2.8,3.9-6.2,5.8-10.3,5.8c-4,0-7.3-1.7-9.7-5.1
								C14.7,55.1,13.2,47.1,13.2,35.3z"/>
						</g>
						<g>
							<path id="ArialMT-2e_00000089556409760156413460000010865951830824047280_" d="M64.7,0v10h10V0H64.7z"/>
						</g>
						<g>
							<path id="ArialMT-32" d="M133.7,8.5V0H86.4c-0.1,2.1,0.3,4.2,1,6.1c1.2,3.2,3.1,6.4,5.8,9.5c2.7,3.1,6.5,6.7,11.5,10.8
								c7.8,6.4,13,11.4,15.8,15.2c2.7,3.7,4.1,7.3,4.1,10.6c0,3.5-1.2,6.4-3.8,8.8c-2.5,2.4-5.7,3.6-9.7,3.6
								c-4.2,0-7.6-1.3-10.2-3.8c-2.5-2.5-3.8-6-3.9-10.5l-9,0.9c0.6,6.7,2.9,11.9,7,15.4c4,3.5,9.5,5.3,16.3,5.3
								c6.9,0,12.3-1.9,16.3-5.7c4-3.8,6-8.5,6-14.2c0-2.9-0.6-5.7-1.8-8.5c-1.2-2.8-3.1-5.7-5.8-8.7c-2.7-3.1-7.2-7.3-13.5-12.6
								c-5.3-4.4-8.7-7.4-10.2-9c-1.5-1.6-2.7-3.2-3.7-4.8H133.7z"/>
						</g>
						<g>
							<path id="ArialMT-30_00000026123842731666197770000012477557571823233926_" d="M143.2,35.3c0,8.5,0.9,15.3,2.6,20.4
								c1.7,5.2,4.3,9.1,7.8,11.9c3.4,2.8,7.8,4.2,13,4.2c3.8,0,7.2-0.8,10.1-2.3c2.9-1.5,5.3-3.8,7.2-6.7c1.9-2.9,3.4-6.5,4.5-10.6
								c1.1-4.2,1.6-9.8,1.6-16.9c0-8.4-0.9-15.2-2.6-20.3c-1.7-5.2-4.3-9.1-7.7-12c-3.4-2.8-7.8-4.2-13-4.2
								c-6.9,0-12.3,2.5-16.2,7.4C145.5,12.2,143.2,21.9,143.2,35.3z M152.2,35.3c0-11.8,1.4-19.6,4.1-23.5
								c2.8-3.9,6.1-5.8,10.2-5.8c4,0,7.4,2,10.2,5.9s4.1,11.7,4.1,23.4c0,11.8-1.4,19.6-4.1,23.5c-2.8,3.9-6.2,5.8-10.3,5.8
								c-4,0-7.3-1.7-9.7-5.1C153.7,55.1,152.2,47.1,152.2,35.3z"/>
						</g>
					</g>
				</g>
			</g>
			<g id="ytick_5">
				<g id="line2d_8">
					<g>
						<g>
							<path id="m6fa4eeb355_00000037672454084256449640000015656006734691547307_" class="st1" d="M29.8,66.9h-3.5"/>
						</g>
					</g>
				</g>
				<g id="text_8">
					<g transform="translate(11.158438 69.073429)scale(0.06 -0.06)">
						<g>
							<path id="ArialMT-30_00000123399970655299767040000018176875899858787252_" d="M4.2,35.3c0,8.5,0.9,15.3,2.6,20.4
								c1.7,5.2,4.3,9.1,7.8,11.9c3.4,2.8,7.8,4.2,13,4.2c3.8,0,7.2-0.8,10.1-2.3c2.9-1.5,5.3-3.8,7.2-6.7c1.9-2.9,3.4-6.5,4.5-10.6
								c1.1-4.2,1.6-9.8,1.6-16.9c0-8.4-0.9-15.2-2.6-20.3c-1.7-5.2-4.3-9.1-7.7-12c-3.4-2.8-7.8-4.2-13-4.2
								c-6.9,0-12.3,2.5-16.2,7.4C6.5,12.2,4.2,21.9,4.2,35.3z M13.2,35.3c0-11.8,1.4-19.6,4.1-23.5C20.1,7.9,23.5,6,27.5,6
								c4,0,7.4,2,10.2,5.9s4.1,11.7,4.1,23.4c0,11.8-1.4,19.6-4.1,23.5c-2.8,3.9-6.2,5.8-10.3,5.8c-4,0-7.3-1.7-9.7-5.1
								C14.7,55.1,13.2,47.1,13.2,35.3z"/>
						</g>
						<g>
							<path id="ArialMT-2e_00000023242371791957069840000000344393839763815099_" d="M64.7,0v10h10V0H64.7z"/>
						</g>
						<g>
							<path id="ArialMT-32_00000115511102208784107620000000025507322865653889_" d="M133.7,8.5V0H86.4c-0.1,2.1,0.3,4.2,1,6.1
								c1.2,3.2,3.1,6.4,5.8,9.5c2.7,3.1,6.5,6.7,11.5,10.8c7.8,6.4,13,11.4,15.8,15.2c2.7,3.7,4.1,7.3,4.1,10.6
								c0,3.5-1.2,6.4-3.8,8.8c-2.5,2.4-5.7,3.6-9.7,3.6c-4.2,0-7.6-1.3-10.2-3.8c-2.5-2.5-3.8-6-3.9-10.5l-9,0.9
								c0.6,6.7,2.9,11.9,7,15.4c4,3.5,9.5,5.3,16.3,5.3c6.9,0,12.3-1.9,16.3-5.7c4-3.8,6-8.5,6-14.2c0-2.9-0.6-5.7-1.8-8.5
								c-1.2-2.8-3.1-5.7-5.8-8.7c-2.7-3.1-7.2-7.3-13.5-12.6c-5.3-4.4-8.7-7.4-10.2-9c-1.5-1.6-2.7-3.2-3.7-4.8H133.7z"/>
						</g>
						<g>
							<path id="ArialMT-35_00000127030051555564784060000002199826158145450375_" d="M143.2,18.7l9.2,0.8c0.7-4.5,2.3-7.9,4.8-10.1
								c2.5-2.3,5.5-3.4,9-3.4c4.2,0,7.8,1.6,10.7,4.8c2.9,3.2,4.4,7.4,4.4,12.7c0,5-1.4,9-4.2,11.9c-2.8,2.9-6.5,4.4-11.1,4.4
								c-2.8,0-5.4-0.6-7.7-1.9c-2.3-1.3-4.1-2.9-5.4-5l-8.2,1.1l6.9,36.8h35.6v-8.4h-28.6L154.8,43c4.3,3,8.8,4.5,13.5,4.5
								c6.2,0,11.5-2.2,15.8-6.5c4.3-4.3,6.5-9.9,6.5-16.7c0-6.5-1.9-12.1-5.7-16.8c-4.6-5.8-10.9-8.7-18.8-8.7
								c-6.5,0-11.8,1.8-16,5.5C146.1,7.9,143.8,12.7,143.2,18.7z"/>
						</g>
					</g>
				</g>
			</g>
			<g id="ytick_6">
				<g id="line2d_9">
					<g>
						<g>
							<path id="m6fa4eeb355_00000140736947687893863190000015255923752521324944_" class="st1" d="M29.8,48.6h-3.5"/>
						</g>
					</g>
				</g>
				<g id="text_9">
					<g transform="translate(11.158438 50.70693)scale(0.06 -0.06)">
						<g>
							<path id="ArialMT-30_00000016783783360918395850000003152583142745866896_" d="M4.2,35.3c0,8.5,0.9,15.3,2.6,20.4
								c1.7,5.2,4.3,9.1,7.8,11.9c3.4,2.8,7.8,4.2,13,4.2c3.8,0,7.2-0.8,10.1-2.3c2.9-1.5,5.3-3.8,7.2-6.7c1.9-2.9,3.4-6.5,4.5-10.6
								c1.1-4.2,1.6-9.8,1.6-16.9c0-8.4-0.9-15.2-2.6-20.3c-1.7-5.2-4.3-9.1-7.7-12c-3.4-2.8-7.8-4.2-13-4.2
								c-6.9,0-12.3,2.5-16.2,7.4C6.5,12.2,4.2,21.9,4.2,35.3z M13.2,35.3c0-11.8,1.4-19.6,4.1-23.5C20.1,7.9,23.5,6,27.5,6
								c4,0,7.4,2,10.2,5.9s4.1,11.7,4.1,23.4c0,11.8-1.4,19.6-4.1,23.5c-2.8,3.9-6.2,5.8-10.3,5.8c-4,0-7.3-1.7-9.7-5.1
								C14.7,55.1,13.2,47.1,13.2,35.3z"/>
						</g>
						<g>
							<path id="ArialMT-2e_00000034055517973576227040000012589985692625088440_" d="M64.7,0v10h10V0H64.7z"/>
						</g>
						<g>
							<path id="ArialMT-33" d="M87.6,18.9l8.8,1.2c1-5,2.7-8.6,5.2-10.8s5.4-3.3,8.9-3.3c4.1,0,7.6,1.4,10.5,4.3
								c2.9,2.9,4.3,6.4,4.3,10.7c0,4-1.3,7.4-4,10c-2.6,2.6-6,3.9-10.1,3.9c-1.7,0-3.7-0.3-6.2-1l1,7.7c0.6-0.1,1.1-0.1,1.4-0.1
								c3.8,0,7.1,1,10.1,2.9c3,2,4.5,5,4.5,9c0,3.2-1.1,5.9-3.3,8c-2.2,2.1-5,3.2-8.4,3.2c-3.4,0-6.3-1.1-8.5-3.2
								c-2.3-2.1-3.7-5.4-4.4-9.7l-8.8,1.6c1.1,5.9,3.5,10.4,7.3,13.7c3.8,3.2,8.6,4.9,14.2,4.9c3.9,0,7.5-0.8,10.8-2.5
								c3.3-1.7,5.8-4,7.5-6.9c1.8-2.9,2.6-6,2.6-9.2c0-3.1-0.8-5.9-2.5-8.4c-1.7-2.5-4.1-4.6-7.4-6.1c4.2-1,7.5-3,9.9-6.1
								c2.3-3.1,3.5-6.9,3.5-11.5c0-6.3-2.3-11.5-6.8-15.9c-4.6-4.3-10.3-6.5-17.3-6.5c-6.3,0-11.5,1.9-15.7,5.6
								C90.5,8.1,88.2,12.9,87.6,18.9z"/>
						</g>
						<g>
							<path id="ArialMT-30_00000165923312430026936630000004528911934505627779_" d="M143.2,35.3c0,8.5,0.9,15.3,2.6,20.4
								c1.7,5.2,4.3,9.1,7.8,11.9c3.4,2.8,7.8,4.2,13,4.2c3.8,0,7.2-0.8,10.1-2.3c2.9-1.5,5.3-3.8,7.2-6.7c1.9-2.9,3.4-6.5,4.5-10.6
								c1.1-4.2,1.6-9.8,1.6-16.9c0-8.4-0.9-15.2-2.6-20.3c-1.7-5.2-4.3-9.1-7.7-12c-3.4-2.8-7.8-4.2-13-4.2
								c-6.9,0-12.3,2.5-16.2,7.4C145.5,12.2,143.2,21.9,143.2,35.3z M152.2,35.3c0-11.8,1.4-19.6,4.1-23.5
								c2.8-3.9,6.1-5.8,10.2-5.8c4,0,7.4,2,10.2,5.9s4.1,11.7,4.1,23.4c0,11.8-1.4,19.6-4.1,23.5c-2.8,3.9-6.2,5.8-10.3,5.8
								c-4,0-7.3-1.7-9.7-5.1C153.7,55.1,152.2,47.1,152.2,35.3z"/>
						</g>
					</g>
				</g>
			</g>
			<g id="ytick_7">
				<g id="line2d_10">
					<g>
						<g>
							<path id="m6fa4eeb355_00000167392169759762321760000002039933687963129003_" class="st1" d="M29.8,30.2h-3.5"/>
						</g>
					</g>
				</g>
				<g id="text_10">
					<g transform="translate(11.158438 32.340431)scale(0.06 -0.06)">
						<g>
							<path id="ArialMT-30_00000177466849989884681800000006628796667967759254_" d="M4.2,35.3c0,8.5,0.9,15.3,2.6,20.4
								c1.7,5.2,4.3,9.1,7.8,11.9c3.4,2.8,7.8,4.2,13,4.2c3.8,0,7.2-0.8,10.1-2.3c2.9-1.5,5.3-3.8,7.2-6.7c1.9-2.9,3.4-6.5,4.5-10.6
								c1.1-4.2,1.6-9.8,1.6-16.9c0-8.4-0.9-15.2-2.6-20.3c-1.7-5.2-4.3-9.1-7.7-12c-3.4-2.8-7.8-4.2-13-4.2
								c-6.9,0-12.3,2.5-16.2,7.4C6.5,12.2,4.2,21.9,4.2,35.3z M13.2,35.3c0-11.8,1.4-19.6,4.1-23.5C20.1,7.9,23.5,6,27.5,6
								c4,0,7.4,2,10.2,5.9s4.1,11.7,4.1,23.4c0,11.8-1.4,19.6-4.1,23.5c-2.8,3.9-6.2,5.8-10.3,5.8c-4,0-7.3-1.7-9.7-5.1
								C14.7,55.1,13.2,47.1,13.2,35.3z"/>
						</g>
						<g>
							<path id="ArialMT-2e_00000093887183864256895600000015315548656351283342_" d="M64.7,0v10h10V0H64.7z"/>
						</g>
						<g>
							<path id="ArialMT-33_00000067222774525883372860000004028245559405590920_" d="M87.6,18.9l8.8,1.2c1-5,2.7-8.6,5.2-10.8
								s5.4-3.3,8.9-3.3c4.1,0,7.6,1.4,10.5,4.3c2.9,2.9,4.3,6.4,4.3,10.7c0,4-1.3,7.4-4,10c-2.6,2.6-6,3.9-10.1,3.9
								c-1.7,0-3.7-0.3-6.2-1l1,7.7c0.6-0.1,1.1-0.1,1.4-0.1c3.8,0,7.1,1,10.1,2.9c3,2,4.5,5,4.5,9c0,3.2-1.1,5.9-3.3,8
								c-2.2,2.1-5,3.2-8.4,3.2c-3.4,0-6.3-1.1-8.5-3.2c-2.3-2.1-3.7-5.4-4.4-9.7l-8.8,1.6c1.1,5.9,3.5,10.4,7.3,13.7
								c3.8,3.2,8.6,4.9,14.2,4.9c3.9,0,7.5-0.8,10.8-2.5c3.3-1.7,5.8-4,7.5-6.9c1.8-2.9,2.6-6,2.6-9.2c0-3.1-0.8-5.9-2.5-8.4
								c-1.7-2.5-4.1-4.6-7.4-6.1c4.2-1,7.5-3,9.9-6.1c2.3-3.1,3.5-6.9,3.5-11.5c0-6.2-2.3-11.5-6.8-15.9
								c-4.6-4.3-10.3-6.5-17.3-6.5c-6.3,0-11.5,1.9-15.7,5.6C90.5,8.1,88.2,12.9,87.6,18.9z"/>
						</g>
						<g>
							<path id="ArialMT-35_00000036211264647812785910000000380935420708591502_" d="M143.2,18.7l9.2,0.8c0.7-4.5,2.3-7.9,4.8-10.1
								c2.5-2.3,5.5-3.4,9-3.4c4.2,0,7.8,1.6,10.7,4.8c2.9,3.2,4.4,7.4,4.4,12.7c0,5-1.4,9-4.2,11.9c-2.8,2.9-6.5,4.4-11.1,4.4
								c-2.8,0-5.4-0.6-7.7-1.9c-2.3-1.3-4.1-2.9-5.4-5l-8.2,1.1l6.9,36.8h35.6v-8.4h-28.6L154.8,43c4.3,3,8.8,4.5,13.5,4.5
								c6.2,0,11.5-2.2,15.8-6.5c4.3-4.3,6.5-9.9,6.5-16.7c0-6.5-1.9-12.1-5.7-16.8c-4.6-5.8-10.9-8.7-18.8-8.7
								c-6.5,0-11.8,1.8-16,5.5C146.1,7.9,143.8,12.7,143.2,18.7z"/>
						</g>
					</g>
				</g>
			</g>
			<g id="text_11">
				<g transform="translate(5.895625 111.338362)rotate(-90)scale(0.06 -0.06)">
					<g>
						<path id="ArialMT-68_00000005964861460837301190000018222868145240146348_" d="M6.6,0v71.6h8.8V45.9c4.1,4.8,9.3,7.1,15.5,7.1
							c3.8,0,7.2-0.8,10-2.3c2.8-1.5,4.9-3.6,6.1-6.3s1.8-6.5,1.8-11.6V0H40v32.9c0,4.4-1,7.6-2.9,9.6s-4.6,3-8.1,3
							c-2.6,0-5.1-0.7-7.4-2c-2.3-1.3-3.9-3.2-4.9-5.5s-1.5-5.5-1.5-9.6V0H6.6z"/>
					</g>
					<g>
						<path id="ArialMT-47" d="M96.8,28.1v8.4l30.3,0.1V10c-4.7-3.7-9.5-6.5-14.4-8.4c-4.9-1.9-10-2.8-15.2-2.8
							c-7,0-13.4,1.5-19.2,4.5c-5.7,3-10.1,7.4-13,13.1c-2.9,5.7-4.4,12.1-4.4,19.1c0,7,1.5,13.5,4.4,19.5c2.9,6,7.1,10.5,12.6,13.5
							s11.8,4.4,18.9,4.4c5.2,0,9.9-0.8,14-2.5c4.2-1.7,7.5-4,9.8-7c2.4-3,4.2-6.9,5.4-11.7l-8.5-2.3c-1.1,3.6-2.4,6.5-4,8.6
							s-3.9,3.8-6.8,5c-3,1.3-6.2,1.9-9.8,1.9c-4.3,0-8.1-0.7-11.2-2c-3.2-1.3-5.7-3-7.6-5.2c-1.9-2.1-3.4-4.5-4.5-7.1
							c-1.8-4.4-2.7-9.2-2.7-14.4c0-6.4,1.1-11.7,3.3-16c2.2-4.3,5.4-7.5,9.6-9.6c4.2-2.1,8.7-3.1,13.4-3.1c4.1,0,8.1,0.8,12,2.4
							c3.9,1.6,6.9,3.3,8.9,5.1v13.3H96.8z"/>
					</g>
					<g>
						<path id="ArialMT-20" d="M133.4,0"/>
					</g>
					<g>
						<path id="ArialMT-48" d="M169.2,0v71.6h9.5V42.2h37.2v29.4h9.5V0h-9.5v33.7h-37.2V0H169.2z"/>
					</g>
					<g>
						<path id="ArialMT-61_00000167354443419366416470000014591660737152323261_" d="M273.8,6.4c-3.3-2.8-6.4-4.7-9.4-5.9
							c-3-1.1-6.2-1.7-9.7-1.7c-5.7,0-10.1,1.4-13.1,4.2S237,9.3,237,13.7c0,2.5,0.6,4.9,1.7,7c1.2,2.1,2.7,3.8,4.5,5.1
							s4,2.2,6.3,2.9c1.7,0.5,4.3,0.9,7.8,1.3c7.1,0.8,12.3,1.8,15.7,3c0,1.2,0,2,0,2.3c0,3.6-0.8,6.1-2.5,7.6c-2.2,2-5.6,3-10,3
							c-4.1,0-7.2-0.7-9.2-2.2s-3.4-4-4.4-7.7l-8.6,1.2c0.8,3.7,2.1,6.6,3.9,8.9s4.4,4,7.8,5.2c3.4,1.2,7.3,1.8,11.8,1.8
							c4.4,0,8-0.5,10.8-1.6c2.8-1,4.8-2.4,6.1-3.9c1.3-1.6,2.2-3.6,2.7-6c0.3-1.5,0.4-4.2,0.4-8.1V21.7c0-8.2,0.2-13.3,0.6-15.5
							c0.4-2.2,1.1-4.2,2.2-6.2h-9.2C274.7,1.8,274.1,4,273.8,6.4z M273.1,26c-3.2-1.3-8-2.4-14.4-3.3c-3.6-0.5-6.2-1.1-7.7-1.8
							c-1.5-0.6-2.6-1.6-3.5-2.8c-0.8-1.2-1.2-2.6-1.2-4.2c0-2.3,0.9-4.3,2.7-5.9c1.8-1.6,4.4-2.3,7.8-2.3c3.4,0,6.4,0.7,9,2.2
							s4.6,3.5,5.8,6.1c0.9,2,1.4,4.9,1.4,8.8V26z"/>
					</g>
					<g>
						<path id="ArialMT-6e_00000003799668481215507300000016680270499159382447_" d="M295.6,0v51.9h7.9v-7.4
							c3.8,5.7,9.3,8.5,16.5,8.5c3.1,0,6-0.6,8.6-1.7s4.6-2.6,5.9-4.4s2.2-4,2.7-6.5c0.3-1.6,0.5-4.5,0.5-8.5V0H329v31.5
							c0,3.6-0.3,6.3-1,8c-0.7,1.8-1.9,3.2-3.6,4.2c-1.7,1.1-3.8,1.6-6.1,1.6c-3.8,0-7-1.2-9.7-3.6s-4.1-6.9-4.1-13.5V0H295.6z"/>
					</g>
					<g>
						<path id="ArialMT-64_00000143616670923203078730000001152776261785374134_" d="M384.9,0v6.5c-3.3-5.1-8.1-7.7-14.5-7.7
							c-4.1,0-7.9,1.1-11.4,3.4s-6.2,5.5-8.1,9.5c-1.9,4.1-2.8,8.8-2.8,14.1c0,5.2,0.9,9.9,2.6,14.1c1.7,4.2,4.3,7.4,7.8,9.7
							c3.5,2.2,7.3,3.4,11.6,3.4c3.1,0,5.9-0.7,8.3-2c2.4-1.3,4.4-3,6-5.1v25.7h8.7V0H384.9z M357.1,25.9c0-6.6,1.4-11.6,4.2-14.9
							c2.8-3.3,6.1-4.9,9.9-4.9c3.8,0,7.1,1.6,9.8,4.7c2.7,3.1,4,7.9,4,14.4c0,7.1-1.4,12.3-4.1,15.6c-2.7,3.3-6.1,5-10.1,5
							c-3.9,0-7.2-1.6-9.8-4.8C358.4,37.8,357.1,32.7,357.1,25.9z"/>
					</g>
					<g>
						<path id="ArialMT-20_00000124123002524592135970000005052310197507682987_" d="M400.2,0"/>
					</g>
					<g>
						<path id="ArialMT-6b" d="M434.7,0v71.6h8.8V30.8l20.8,21.1h11.4l-19.8-19.2L477.6,0h-10.8l-17.1,26.5l-6.2-6V0H434.7z"/>
					</g>
					<g>
						<path id="ArialMT-6e_00000110470622752997033310000012473178567898689937_" d="M484.6,0v51.9h7.9v-7.4
							c3.8,5.7,9.3,8.5,16.5,8.5c3.1,0,6-0.6,8.6-1.7s4.6-2.6,5.9-4.4s2.2-4,2.7-6.5c0.3-1.6,0.5-4.5,0.5-8.5V0H518v31.5
							c0,3.6-0.3,6.3-1,8c-0.7,1.8-1.9,3.2-3.6,4.2c-1.7,1.1-3.8,1.6-6.1,1.6c-3.8,0-7-1.2-9.7-3.6s-4.1-6.9-4.1-13.5V0H484.6z"/>
					</g>
					<g>
						<path id="ArialMT-6f" d="M537,25.9c0,9.6,2.7,16.7,8,21.3c4.5,3.8,9.9,5.8,16.3,5.8c7.1,0,12.9-2.3,17.5-7
							c4.5-4.7,6.8-11.1,6.8-19.4c0-6.7-1-11.9-3-15.8c-2-3.8-4.9-6.8-8.8-8.9c-3.8-2.1-8-3.2-12.5-3.2c-7.3,0-13.1,2.3-17.6,7
							C539.2,10.5,537,17.2,537,25.9z M546,25.9c0-6.6,1.4-11.6,4.3-14.9s6.5-5,10.9-5c4.4,0,8,1.7,10.9,5c2.9,3.3,4.3,8.4,4.3,15.2
							c0,6.4-1.5,11.3-4.4,14.6s-6.5,5-10.9,5c-4.4,0-8-1.6-10.9-4.9C547.4,37.5,546,32.6,546,25.9z"/>
					</g>
					<g>
						<path id="ArialMT-62" d="M604,0h-8.2v71.6h8.8V46c3.7,4.7,8.5,7,14.2,7c3.2,0,6.2-0.6,9-1.9c2.9-1.3,5.2-3.1,7-5.4
							c1.8-2.3,3.3-5.1,4.3-8.4c1-3.3,1.6-6.8,1.6-10.5c0-8.9-2.2-15.8-6.6-20.6c-4.4-4.8-9.7-7.3-15.8-7.3
							c-6.1,0-10.9,2.6-14.4,7.7V0z M603.9,26.3c0-6.2,0.8-10.7,2.5-13.5c2.8-4.5,6.5-6.8,11.2-6.8c3.8,0,7.2,1.7,10,5
							s4.2,8.3,4.2,14.9c0,6.8-1.3,11.8-4,15s-5.9,4.8-9.7,4.8c-3.8,0-7.2-1.7-10-5S603.9,32.6,603.9,26.3z"/>
					</g>
					<g>
						<path id="ArialMT-20_00000008872063337650626510000015612168091458248628_" d="M644.9,0"/>
					</g>
					<g>
						<path id="ArialMT-61_00000102525525605768497180000014508707329678329278_" d="M713.1,6.4c-3.3-2.8-6.4-4.7-9.4-5.9
							c-3-1.1-6.2-1.7-9.7-1.7c-5.7,0-10.1,1.4-13.1,4.2s-4.6,6.3-4.6,10.7c0,2.5,0.6,4.9,1.7,7c1.2,2.1,2.7,3.8,4.5,5.1
							s4,2.2,6.3,2.9c1.7,0.5,4.3,0.9,7.8,1.3c7.1,0.8,12.3,1.8,15.7,3c0,1.2,0,2,0,2.3c0,3.6-0.8,6.1-2.5,7.6c-2.2,2-5.6,3-10,3
							c-4.1,0-7.2-0.7-9.2-2.2s-3.4-4-4.4-7.7l-8.6,1.2c0.8,3.7,2.1,6.6,3.9,8.9s4.4,4,7.8,5.2c3.4,1.2,7.3,1.8,11.8,1.8
							c4.4,0,8-0.5,10.8-1.6c2.8-1,4.8-2.4,6.1-3.9c1.3-1.6,2.2-3.6,2.7-6c0.3-1.5,0.4-4.2,0.4-8.1V21.7c0-8.2,0.2-13.3,0.6-15.5
							c0.4-2.2,1.1-4.2,2.2-6.2h-9.2C713.9,1.8,713.4,4,713.1,6.4z M712.4,26c-3.2-1.3-8-2.4-14.4-3.3c-3.6-0.5-6.2-1.1-7.7-1.8
							c-1.5-0.6-2.6-1.6-3.5-2.8c-0.8-1.2-1.2-2.6-1.2-4.2c0-2.3,0.9-4.3,2.7-5.9c1.8-1.6,4.4-2.3,7.8-2.3c3.4,0,6.4,0.7,9,2.2
							s4.6,3.5,5.8,6.1c0.9,2,1.4,4.9,1.4,8.8V26z"/>
					</g>
					<g>
						<path id="ArialMT-63_00000166660967718034376730000004980667614486860191_" d="M768.7,19l8.6-1.1c-0.9-6-3.4-10.6-7.3-14
							c-3.9-3.4-8.7-5-14.3-5c-7.1,0-12.8,2.3-17.1,7c-4.3,4.6-6.5,11.3-6.5,20c0,5.6,0.9,10.5,2.8,14.7c1.9,4.2,4.7,7.4,8.5,9.5
							c3.8,2.1,7.9,3.2,12.4,3.2c5.6,0,10.2-1.4,13.8-4.3c3.6-2.8,5.9-6.9,6.9-12.1l-8.5-1.3c-0.8,3.5-2.3,6.1-4.3,7.9
							c-2.1,1.8-4.6,2.6-7.5,2.6c-4.4,0-8-1.6-10.8-4.8c-2.8-3.2-4.1-8.2-4.1-15c0-7,1.3-12,4-15.2c2.7-3.2,6.2-4.7,10.5-4.7
							c3.4,0,6.3,1.1,8.6,3.2S768.1,14.6,768.7,19z"/>
					</g>
					<g>
						<path id="ArialMT-74_00000145738816859241496270000005449323125586850432_" d="M804.1,7.9l1.3-7.8c-2.5-0.5-4.7-0.8-6.6-0.8
							c-3.2,0-5.7,0.5-7.4,1.5c-1.8,1-3,2.3-3.7,4s-1.1,5.1-1.1,10.4V45H780v6.8h6.4v12.8l8.7,5.3V51.9h8.8V45h-8.8V14.7
							c0-2.5,0.2-4.1,0.5-4.8c0.3-0.7,0.8-1.3,1.5-1.7c0.7-0.4,1.7-0.6,3-0.6C801.2,7.5,802.5,7.6,804.1,7.9z"/>
					</g>
					<g>
						<path id="ArialMT-69_00000102516760573825841960000017816427330421498511_" d="M812.7,61.5v10.1h8.8V61.5H812.7z M812.7,0
							v51.9h8.8V0H812.7z"/>
					</g>
					<g>
						<path id="ArialMT-76" d="M849.3,0l-19.7,51.9h9.3L850,20.8c1.2-3.4,2.3-6.8,3.3-10.4c0.8,2.7,1.9,6,3.3,9.9l11.5,31.6h9
							L857.5,0H849.3z"/>
					</g>
					<g>
						<path id="ArialMT-69_00000072239457055932602480000013702944798348710320_" d="M884.9,61.5v10.1h8.8V61.5H884.9z M884.9,0
							v51.9h8.8V0H884.9z"/>
					</g>
					<g>
						<path id="ArialMT-74_00000030488730660240128400000014206782609573487016_" d="M926.3,7.9l1.3-7.8c-2.5-0.5-4.7-0.8-6.6-0.8
							c-3.2,0-5.7,0.5-7.4,1.5c-1.8,1-3,2.3-3.7,4s-1.1,5.1-1.1,10.4V45h-6.4v6.8h6.4v12.8l8.7,5.3V51.9h8.8V45h-8.8V14.7
							c0-2.5,0.2-4.1,0.5-4.8c0.3-0.7,0.8-1.3,1.5-1.7c0.7-0.4,1.7-0.6,3-0.6C923.4,7.5,924.7,7.6,926.3,7.9z"/>
					</g>
					<g>
						<path id="ArialMT-79" d="M934.5-20l-1,8.2c1.9-0.5,3.6-0.8,5-0.8c2,0,3.5,0.3,4.7,1c1.2,0.6,2.1,1.6,2.9,2.7
							c0.6,0.9,1.4,3.1,2.7,6.5c0.2,0.5,0.4,1.2,0.8,2.2l-19.7,52h9.5l10.8-30c1.4-3.8,2.7-7.8,3.8-12c1,4,2.2,8,3.6,11.8l11.1,30.2
							h8.8L957.7-0.9c-2.1-5.7-3.8-9.6-4.9-11.8c-1.6-2.9-3.4-5-5.4-6.4c-2-1.4-4.4-2-7.2-2C938.4-21,936.6-20.7,934.5-20z"/>
					</g>
				</g>
			</g>
		</g>
		<g id="line2d_11">
			<g>
				<defs>
					<rect id="SVGID_1_" x="29.8" y="19.5" width="185" height="125"/>
				</defs>
				<clipPath id="SVGID_00000118375711503514202020000003685360410267178392_">
					<use xlink:href="#SVGID_1_"  style="overflow:visible;"/>
				</clipPath>
				
					<path style="clip-path:url(#SVGID_00000118375711503514202020000003685360410267178392_);fill:none;stroke:#000000;stroke-linecap:square;stroke-linejoin:round;" d="
					M51.4,100.9h18.5v-34H51.4V100.9"/>
			</g>
		</g>
		<g id="line2d_12">
			<g>
				<defs>
					<rect id="SVGID_00000164476970231927352140000015340432709767399558_" x="29.8" y="19.5" width="185" height="125"/>
				</defs>
				<clipPath id="SVGID_00000163046185465349174590000011474549273351466372_">
					<use xlink:href="#SVGID_00000164476970231927352140000015340432709767399558_"  style="overflow:visible;"/>
				</clipPath>
				
					<path style="clip-path:url(#SVGID_00000163046185465349174590000011474549273351466372_);fill:none;stroke:#000000;stroke-linecap:square;stroke-linejoin:round;" d="
					M60.7,100.9v37.9"/>
			</g>
		</g>
		<g id="line2d_13">
			<g>
				<defs>
					<rect id="SVGID_00000072972864231317692980000004363903340666523014_" x="29.8" y="19.5" width="185" height="125"/>
				</defs>
				<clipPath id="SVGID_00000088852338886008905110000011568955518527593906_">
					<use xlink:href="#SVGID_00000072972864231317692980000004363903340666523014_"  style="overflow:visible;"/>
				</clipPath>
				
					<path style="clip-path:url(#SVGID_00000088852338886008905110000011568955518527593906_);fill:none;stroke:#000000;stroke-linecap:square;stroke-linejoin:round;" d="
					M60.7,66.9V25.2"/>
			</g>
		</g>
		<g id="line2d_14">
			<g>
				<defs>
					<rect id="SVGID_00000055681569465094718960000002244032875871158962_" x="29.8" y="19.5" width="185" height="125"/>
				</defs>
				<clipPath id="SVGID_00000011007398606585583670000014920499505551189675_">
					<use xlink:href="#SVGID_00000055681569465094718960000002244032875871158962_"  style="overflow:visible;"/>
				</clipPath>
				
					<path style="clip-path:url(#SVGID_00000011007398606585583670000014920499505551189675_);fill:none;stroke:#000000;stroke-linecap:square;stroke-linejoin:round;" d="
					M56,138.8h9.2"/>
			</g>
		</g>
		<g id="line2d_15">
			<g>
				<defs>
					<rect id="SVGID_00000003807628774752523340000009079896512321445249_" x="29.8" y="19.5" width="185" height="125"/>
				</defs>
				<clipPath id="SVGID_00000165211379341823268760000009129826948269573562_">
					<use xlink:href="#SVGID_00000003807628774752523340000009079896512321445249_"  style="overflow:visible;"/>
				</clipPath>
				
					<path style="clip-path:url(#SVGID_00000165211379341823268760000009129826948269573562_);fill:none;stroke:#000000;stroke-linecap:square;stroke-linejoin:round;" d="
					M56,25.2h9.2"/>
			</g>
		</g>
		<g id="line2d_16">
			<g>
				<defs>
					<rect id="SVGID_00000080889584219577898780000012923111554775875463_" x="29.8" y="19.5" width="185" height="125"/>
				</defs>
				<clipPath id="SVGID_00000044859285051271219740000014126094034871698865_">
					<use xlink:href="#SVGID_00000080889584219577898780000012923111554775875463_"  style="overflow:visible;"/>
				</clipPath>
				
					<path style="clip-path:url(#SVGID_00000044859285051271219740000014126094034871698865_);fill:none;stroke:#000000;stroke-linecap:square;stroke-linejoin:round;" d="
					M113.1,87.6h18.5V68.3h-18.5V87.6"/>
			</g>
		</g>
		<g id="line2d_17">
			<g>
				<defs>
					<rect id="SVGID_00000012451566068900697110000007960155322155361172_" x="29.8" y="19.5" width="185" height="125"/>
				</defs>
				<clipPath id="SVGID_00000093142760555336303610000000854007963975500728_">
					<use xlink:href="#SVGID_00000012451566068900697110000007960155322155361172_"  style="overflow:visible;"/>
				</clipPath>
				
					<path style="clip-path:url(#SVGID_00000093142760555336303610000000854007963975500728_);fill:none;stroke:#000000;stroke-linecap:square;stroke-linejoin:round;" d="
					M122.3,87.6V116"/>
			</g>
		</g>
		<g id="line2d_18">
			<g>
				<defs>
					<rect id="SVGID_00000000904406982864449460000011353604689596460424_" x="29.8" y="19.5" width="185" height="125"/>
				</defs>
				<clipPath id="SVGID_00000062177997680263567210000009220491414624303023_">
					<use xlink:href="#SVGID_00000000904406982864449460000011353604689596460424_"  style="overflow:visible;"/>
				</clipPath>
				
					<path style="clip-path:url(#SVGID_00000062177997680263567210000009220491414624303023_);fill:none;stroke:#000000;stroke-linecap:square;stroke-linejoin:round;" d="
					M122.3,68.3V44.9"/>
			</g>
		</g>
		<g id="line2d_19">
			<g>
				<defs>
					<rect id="SVGID_00000136410204988097980450000003639418474000070531_" x="29.8" y="19.5" width="185" height="125"/>
				</defs>
				<clipPath id="SVGID_00000014606104220467850310000005845747728969442481_">
					<use xlink:href="#SVGID_00000136410204988097980450000003639418474000070531_"  style="overflow:visible;"/>
				</clipPath>
				
					<path style="clip-path:url(#SVGID_00000014606104220467850310000005845747728969442481_);fill:none;stroke:#000000;stroke-linecap:square;stroke-linejoin:round;" d="
					M117.7,116h9.2"/>
			</g>
		</g>
		<g id="line2d_20">
			<g>
				<defs>
					<rect id="SVGID_00000041270871516319043330000007547163720892823222_" x="29.8" y="19.5" width="185" height="125"/>
				</defs>
				<clipPath id="SVGID_00000113321929710569931760000015292650854479223943_">
					<use xlink:href="#SVGID_00000041270871516319043330000007547163720892823222_"  style="overflow:visible;"/>
				</clipPath>
				
					<path style="clip-path:url(#SVGID_00000113321929710569931760000015292650854479223943_);fill:none;stroke:#000000;stroke-linecap:square;stroke-linejoin:round;" d="
					M117.7,44.9h9.2"/>
			</g>
		</g>
		<g id="line2d_21">
			<g>
				<defs>
					<rect id="SVGID_00000003065235288335085040000010399142475598075307_" x="29.8" y="19.5" width="185" height="125"/>
				</defs>
				<clipPath id="SVGID_00000037681992165022621030000014436414594410139541_">
					<use xlink:href="#SVGID_00000003065235288335085040000010399142475598075307_"  style="overflow:visible;"/>
				</clipPath>
				
					<path style="clip-path:url(#SVGID_00000037681992165022621030000014436414594410139541_);fill:none;stroke:#000000;stroke-linecap:square;stroke-linejoin:round;" d="
					M174.7,65.9h18.5V49.8h-18.5V65.9"/>
			</g>
		</g>
		<g id="line2d_22">
			<g>
				<defs>
					<rect id="SVGID_00000072272863876647064560000007151486999149185176_" x="29.8" y="19.5" width="185" height="125"/>
				</defs>
				<clipPath id="SVGID_00000013914974083961904740000014611634273887628701_">
					<use xlink:href="#SVGID_00000072272863876647064560000007151486999149185176_"  style="overflow:visible;"/>
				</clipPath>
				
					<path style="clip-path:url(#SVGID_00000013914974083961904740000014611634273887628701_);fill:none;stroke:#000000;stroke-linecap:square;stroke-linejoin:round;" d="
					M184,65.9v23.8"/>
			</g>
		</g>
		<g id="line2d_23">
			<g>
				<defs>
					<rect id="SVGID_00000116948177048970078490000016008607437110239153_" x="29.8" y="19.5" width="185" height="125"/>
				</defs>
				<clipPath id="SVGID_00000021119398060451779360000014836361571117828748_">
					<use xlink:href="#SVGID_00000116948177048970078490000016008607437110239153_"  style="overflow:visible;"/>
				</clipPath>
				
					<path style="clip-path:url(#SVGID_00000021119398060451779360000014836361571117828748_);fill:none;stroke:#000000;stroke-linecap:square;stroke-linejoin:round;" d="
					M184,49.8V31.2"/>
			</g>
		</g>
		<g id="line2d_24">
			<g>
				<defs>
					<rect id="SVGID_00000051374159083222279930000009091454625263358107_" x="29.8" y="19.5" width="185" height="125"/>
				</defs>
				<clipPath id="SVGID_00000158707584441129830270000006738805190873243327_">
					<use xlink:href="#SVGID_00000051374159083222279930000009091454625263358107_"  style="overflow:visible;"/>
				</clipPath>
				
					<path style="clip-path:url(#SVGID_00000158707584441129830270000006738805190873243327_);fill:none;stroke:#000000;stroke-linecap:square;stroke-linejoin:round;" d="
					M179.4,89.7h9.2"/>
			</g>
		</g>
		<g id="line2d_25">
			<g>
				<defs>
					<rect id="SVGID_00000183247182014643666070000017555145847067185044_" x="29.8" y="19.5" width="185" height="125"/>
				</defs>
				<clipPath id="SVGID_00000125579947476256851880000012887514645404491648_">
					<use xlink:href="#SVGID_00000183247182014643666070000017555145847067185044_"  style="overflow:visible;"/>
				</clipPath>
				
					<path style="clip-path:url(#SVGID_00000125579947476256851880000012887514645404491648_);fill:none;stroke:#000000;stroke-linecap:square;stroke-linejoin:round;" d="
					M179.4,31.2h9.2"/>
			</g>
		</g>
		<g id="line2d_26">
			<g>
				<defs>
					<rect id="SVGID_00000042735890588038096600000010732982797369324728_" x="29.8" y="19.5" width="185" height="125"/>
				</defs>
				<clipPath id="SVGID_00000112590865846108038920000006291202152686936974_">
					<use xlink:href="#SVGID_00000042735890588038096600000010732982797369324728_"  style="overflow:visible;"/>
				</clipPath>
				
					<path style="clip-path:url(#SVGID_00000112590865846108038920000006291202152686936974_);fill:none;stroke:#FF7F0E;stroke-linecap:square;stroke-linejoin:round;" d="
					M51.4,84.8h18.5"/>
			</g>
		</g>
		<g id="line2d_27">
			<g>
				<defs>
					<rect id="SVGID_00000166659745834704141090000007613223906513400735_" x="29.8" y="19.5" width="185" height="125"/>
				</defs>
				<clipPath id="SVGID_00000170998746973257185210000004807165396002354094_">
					<use xlink:href="#SVGID_00000166659745834704141090000007613223906513400735_"  style="overflow:visible;"/>
				</clipPath>
				
					<path style="clip-path:url(#SVGID_00000170998746973257185210000004807165396002354094_);fill:none;stroke:#FF7F0E;stroke-linecap:square;stroke-linejoin:round;" d="
					M113.1,77.9h18.5"/>
			</g>
		</g>
		<g id="line2d_28">
			<g>
				<defs>
					<rect id="SVGID_00000026861933171223641610000013095896253713382314_" x="29.8" y="19.5" width="185" height="125"/>
				</defs>
				<clipPath id="SVGID_00000054982619387903964360000000894086953623015091_">
					<use xlink:href="#SVGID_00000026861933171223641610000013095896253713382314_"  style="overflow:visible;"/>
				</clipPath>
				
					<path style="clip-path:url(#SVGID_00000054982619387903964360000000894086953623015091_);fill:none;stroke:#FF7F0E;stroke-linecap:square;stroke-linejoin:round;" d="
					M174.7,56.8h18.5"/>
			</g>
		</g>
		<g id="patch_3">
			<path class="st20" d="M29.8,144.5v-125"/>
		</g>
		<g id="patch_4">
			<path class="st20" d="M214.8,144.5v-125"/>
		</g>
		<g id="patch_5">
			<path class="st20" d="M29.8,144.5h185"/>
		</g>
		<g id="patch_6">
			<path class="st20" d="M29.8,19.5h185"/>
		</g>
	</g>
</g>
</svg>
