<?xml version="1.0" encoding="utf-8"?>
<!-- Generator: Adobe Illustrator 26.4.1, SVG Export Plug-In . SVG Version: 6.00 Build 0)  -->
<svg version="1.1" id="Layer_1" xmlns="http://www.w3.org/2000/svg" xmlns:xlink="http://www.w3.org/1999/xlink" x="0px" y="0px"
	 viewBox="0 0 143 86.9" style="enable-background:new 0 0 143 86.9;" xml:space="preserve">
<style type="text/css">
	.st0{fill:#FFFFFF;}
	.st1{clip-path:url(#SVGID_00000145024165105180519600000004791817746096886934_);fill:#333333;fill-opacity:0.5;}
	.st2{clip-path:url(#SVGID_00000030466273964891317490000010656227387676780474_);fill:#333333;fill-opacity:0.5;}
	.st3{clip-path:url(#SVGID_00000161632835229797735180000001648019203423189156_);fill:#333333;fill-opacity:0.5;}
	.st4{clip-path:url(#SVGID_00000055664677905499954620000005678468758575911569_);fill:#333333;fill-opacity:0.5;}
	.st5{clip-path:url(#SVGID_00000152972227428155035420000005817766050203350965_);fill:#333333;fill-opacity:0.5;}
	.st6{clip-path:url(#SVGID_00000152242671288744332120000016115187230763394436_);fill:#333333;fill-opacity:0.5;}
	.st7{clip-path:url(#SVGID_00000014612444395035735830000012405694869430886023_);fill:#333333;fill-opacity:0.5;}
	.st8{clip-path:url(#SVGID_00000145776971395848099480000010239696932876192389_);fill:#333333;fill-opacity:0.5;}
	.st9{clip-path:url(#SVGID_00000050648158555674484740000018387234556009439676_);fill:#333333;fill-opacity:0.5;}
	.st10{clip-path:url(#SVGID_00000124126789697100791370000005631899585994579370_);fill:#333333;fill-opacity:0.5;}
	.st11{clip-path:url(#SVGID_00000150091564992814983560000016150091672880322455_);fill:#3333CC;fill-opacity:0.5;}
	.st12{clip-path:url(#SVGID_00000049204577884443943910000009294679250890769554_);fill:#3333CC;fill-opacity:0.5;}
	.st13{clip-path:url(#SVGID_00000036224537971904240210000017130408525844891325_);fill:#3333CC;fill-opacity:0.5;}
	.st14{clip-path:url(#SVGID_00000019661334818872591000000009569107833825124799_);fill:#3333CC;fill-opacity:0.5;}
	.st15{clip-path:url(#SVGID_00000168824745174298009140000011411810785145429929_);fill:#3333CC;fill-opacity:0.5;}
	.st16{clip-path:url(#SVGID_00000146496569959520046830000011674379621682606230_);fill:#3333CC;fill-opacity:0.5;}
	.st17{clip-path:url(#SVGID_00000039105218848611217810000001099516029669001387_);fill:#3333CC;fill-opacity:0.5;}
	.st18{clip-path:url(#SVGID_00000142169636567851430950000016770467770044947901_);fill:#3333CC;fill-opacity:0.5;}
	.st19{clip-path:url(#SVGID_00000183953100899089517340000007736513921820312708_);fill:#3333CC;fill-opacity:0.5;}
	.st20{clip-path:url(#SVGID_00000049197689778830161990000006706867690342219403_);fill:#3333CC;fill-opacity:0.5;}
	.st21{clip-path:url(#SVGID_00000098910493070210434560000001839813365235157895_);fill:#CC3333;fill-opacity:0.5;}
	.st22{clip-path:url(#SVGID_00000172427816840814408650000001025624402345417362_);fill:#CC3333;fill-opacity:0.5;}
	.st23{clip-path:url(#SVGID_00000062183805890065125810000010805591928438270648_);fill:#CC3333;fill-opacity:0.5;}
	.st24{clip-path:url(#SVGID_00000039127360786299084410000001326194368222014133_);fill:#CC3333;fill-opacity:0.5;}
	.st25{clip-path:url(#SVGID_00000167369947910567923250000005730044572531529392_);fill:#CC3333;fill-opacity:0.5;}
	.st26{clip-path:url(#SVGID_00000168814362000598759160000018396920779195850895_);fill:#CC3333;fill-opacity:0.5;}
	.st27{clip-path:url(#SVGID_00000011005496082965398980000003583221853589565347_);fill:#CC3333;fill-opacity:0.5;}
	.st28{clip-path:url(#SVGID_00000137100026779732778210000014843700713616204991_);fill:#CC3333;fill-opacity:0.5;}
	.st29{clip-path:url(#SVGID_00000080180231925209562700000006764254864857616800_);fill:#CC3333;fill-opacity:0.5;}
	.st30{clip-path:url(#SVGID_00000098902571567900137790000009655102559852977598_);fill:#CC3333;fill-opacity:0.5;}
	.st31{stroke:#000000;stroke-width:0.8;stroke-linejoin:round;}
	.st32{fill:none;stroke:#000000;stroke-width:0.8;stroke-linecap:square;}
	.st33{opacity:0.8;fill:#FFFFFF;stroke:#CCCCCC;enable-background:new    ;}
	.st34{fill:#333333;fill-opacity:0.5;}
	.st35{fill:#3333CC;fill-opacity:0.5;}
	.st36{fill:#CC3333;fill-opacity:0.5;}
</style>
<g id="figure_1">
	<g id="axes_1">
		<g id="patch_2">
			<path class="st0" d="M17.9,77.3h110.9V10.4H17.9V77.3z"/>
		</g>
		<g id="patch_3">
			<g>
				<defs>
					<rect id="SVGID_1_" x="17.9" y="10.4" width="110.9" height="66.9"/>
				</defs>
				<clipPath id="SVGID_00000088107675014809098750000009033996544917901206_">
					<use xlink:href="#SVGID_1_"  style="overflow:visible;"/>
				</clipPath>
				<path style="clip-path:url(#SVGID_00000088107675014809098750000009033996544917901206_);fill:#333333;fill-opacity:0.5;" d="
					M28.3,77.3h9.5V49.9h-9.5V77.3z"/>
			</g>
		</g>
		<g id="patch_4">
			<g>
				<defs>
					<rect id="SVGID_00000052102518580786913170000003339419515306146976_" x="17.9" y="10.4" width="110.9" height="66.9"/>
				</defs>
				<clipPath id="SVGID_00000144304140656035210600000000560794424105907104_">
					<use xlink:href="#SVGID_00000052102518580786913170000003339419515306146976_"  style="overflow:visible;"/>
				</clipPath>
				<path style="clip-path:url(#SVGID_00000144304140656035210600000000560794424105907104_);fill:#333333;fill-opacity:0.5;" d="
					M37.8,77.3h9.5V41.9h-9.5V77.3z"/>
			</g>
		</g>
		<g id="patch_5">
			<g>
				<defs>
					<rect id="SVGID_00000005946832663293940220000000605217176400486322_" x="17.9" y="10.4" width="110.9" height="66.9"/>
				</defs>
				<clipPath id="SVGID_00000002359908741773069040000001469373035885184957_">
					<use xlink:href="#SVGID_00000005946832663293940220000000605217176400486322_"  style="overflow:visible;"/>
				</clipPath>
				<path style="clip-path:url(#SVGID_00000002359908741773069040000001469373035885184957_);fill:#333333;fill-opacity:0.5;" d="
					M47.4,77.3h9.5V37.5h-9.5V77.3z"/>
			</g>
		</g>
		<g id="patch_6">
			<g>
				<defs>
					<rect id="SVGID_00000158742451426650473040000014710813219959879597_" x="17.9" y="10.4" width="110.9" height="66.9"/>
				</defs>
				<clipPath id="SVGID_00000163792275896667468160000010899756372959335103_">
					<use xlink:href="#SVGID_00000158742451426650473040000014710813219959879597_"  style="overflow:visible;"/>
				</clipPath>
				<path style="clip-path:url(#SVGID_00000163792275896667468160000010899756372959335103_);fill:#333333;fill-opacity:0.5;" d="
					M56.9,77.3h9.5V41.9h-9.5V77.3z"/>
			</g>
		</g>
		<g id="patch_7">
			<g>
				<defs>
					<rect id="SVGID_00000080884934289785258470000004970414170250751914_" x="17.9" y="10.4" width="110.9" height="66.9"/>
				</defs>
				<clipPath id="SVGID_00000107574327365066458780000012066264677272330134_">
					<use xlink:href="#SVGID_00000080884934289785258470000004970414170250751914_"  style="overflow:visible;"/>
				</clipPath>
				<path style="clip-path:url(#SVGID_00000107574327365066458780000012066264677272330134_);fill:#333333;fill-opacity:0.5;" d="
					M66.4,77.3H76V49.9h-9.5V77.3z"/>
			</g>
		</g>
		<g id="patch_8">
			<g>
				<defs>
					<rect id="SVGID_00000128455648117530631440000007620211670287584899_" x="17.9" y="10.4" width="110.9" height="66.9"/>
				</defs>
				<clipPath id="SVGID_00000108304211570247463330000003444191837982757300_">
					<use xlink:href="#SVGID_00000128455648117530631440000007620211670287584899_"  style="overflow:visible;"/>
				</clipPath>
				<path style="clip-path:url(#SVGID_00000108304211570247463330000003444191837982757300_);fill:#333333;fill-opacity:0.5;" d="
					M76,77.3h9.5V65.8H76V77.3z"/>
			</g>
		</g>
		<g id="patch_9">
			<g>
				<defs>
					<rect id="SVGID_00000032608162872483950780000015736286108164546987_" x="17.9" y="10.4" width="110.9" height="66.9"/>
				</defs>
				<clipPath id="SVGID_00000139267229678076005050000003674745416018751896_">
					<use xlink:href="#SVGID_00000032608162872483950780000015736286108164546987_"  style="overflow:visible;"/>
				</clipPath>
				<path style="clip-path:url(#SVGID_00000139267229678076005050000003674745416018751896_);fill:#333333;fill-opacity:0.5;" d="
					M85.5,77.3h9.5v-9.7h-9.5V77.3z"/>
			</g>
		</g>
		<g id="patch_10">
			<g>
				<defs>
					<rect id="SVGID_00000052807633239494719620000002194361705628737664_" x="17.9" y="10.4" width="110.9" height="66.9"/>
				</defs>
				<clipPath id="SVGID_00000076582341648046402150000000341413866459672236_">
					<use xlink:href="#SVGID_00000052807633239494719620000002194361705628737664_"  style="overflow:visible;"/>
				</clipPath>
				<path style="clip-path:url(#SVGID_00000076582341648046402150000000341413866459672236_);fill:#333333;fill-opacity:0.5;" d="
					M95.1,77.3h9.5v-4.4h-9.5V77.3z"/>
			</g>
		</g>
		<g id="patch_11">
			<g>
				<defs>
					<rect id="SVGID_00000143615231329300972560000004443433149927384510_" x="17.9" y="10.4" width="110.9" height="66.9"/>
				</defs>
				<clipPath id="SVGID_00000047765532904857307990000007584769861200786312_">
					<use xlink:href="#SVGID_00000143615231329300972560000004443433149927384510_"  style="overflow:visible;"/>
				</clipPath>
				<path style="clip-path:url(#SVGID_00000047765532904857307990000007584769861200786312_);fill:#333333;fill-opacity:0.5;" d="
					M104.6,77.3h9.5v-3.5h-9.5V77.3z"/>
			</g>
		</g>
		<g id="patch_12">
			<g>
				<defs>
					<rect id="SVGID_00000036251072374377838180000013789812714267782293_" x="17.9" y="10.4" width="110.9" height="66.9"/>
				</defs>
				<clipPath id="SVGID_00000178918090495124194590000008240059584600609443_">
					<use xlink:href="#SVGID_00000036251072374377838180000013789812714267782293_"  style="overflow:visible;"/>
				</clipPath>
				<path style="clip-path:url(#SVGID_00000178918090495124194590000008240059584600609443_);fill:#333333;fill-opacity:0.5;" d="
					M114.2,77.3h9.5v-3.5h-9.5V77.3z"/>
			</g>
		</g>
		<g id="patch_13">
			<g>
				<defs>
					<rect id="SVGID_00000121263783649981675990000015047321869334856862_" x="17.9" y="10.4" width="110.9" height="66.9"/>
				</defs>
				<clipPath id="SVGID_00000132767983525559136210000014760376387169447579_">
					<use xlink:href="#SVGID_00000121263783649981675990000015047321869334856862_"  style="overflow:visible;"/>
				</clipPath>
				<path style="clip-path:url(#SVGID_00000132767983525559136210000014760376387169447579_);fill:#3333CC;fill-opacity:0.5;" d="
					M25.8,77.3h3.3V24.2h-3.3V77.3z"/>
			</g>
		</g>
		<g id="patch_14">
			<g>
				<defs>
					<rect id="SVGID_00000125589492130209366930000004283190406294629514_" x="17.9" y="10.4" width="110.9" height="66.9"/>
				</defs>
				<clipPath id="SVGID_00000156568574211883700940000004743301366490067349_">
					<use xlink:href="#SVGID_00000125589492130209366930000004283190406294629514_"  style="overflow:visible;"/>
				</clipPath>
				<path style="clip-path:url(#SVGID_00000156568574211883700940000004743301366490067349_);fill:#3333CC;fill-opacity:0.5;" d="
					M29.1,77.3h3.3V17.2h-3.3V77.3z"/>
			</g>
		</g>
		<g id="patch_15">
			<g>
				<defs>
					<rect id="SVGID_00000032617766483053743110000014173069289359372946_" x="17.9" y="10.4" width="110.9" height="66.9"/>
				</defs>
				<clipPath id="SVGID_00000127727953040883195700000012873342623686705573_">
					<use xlink:href="#SVGID_00000032617766483053743110000014173069289359372946_"  style="overflow:visible;"/>
				</clipPath>
				<path style="clip-path:url(#SVGID_00000127727953040883195700000012873342623686705573_);fill:#3333CC;fill-opacity:0.5;" d="
					M32.4,77.3h3.3v-31h-3.3V77.3z"/>
			</g>
		</g>
		<g id="patch_16">
			<g>
				<defs>
					<rect id="SVGID_00000136387712544138372690000008147558613524011931_" x="17.9" y="10.4" width="110.9" height="66.9"/>
				</defs>
				<clipPath id="SVGID_00000007423401489889521790000005814569404733153974_">
					<use xlink:href="#SVGID_00000136387712544138372690000008147558613524011931_"  style="overflow:visible;"/>
				</clipPath>
				<path style="clip-path:url(#SVGID_00000007423401489889521790000005814569404733153974_);fill:#3333CC;fill-opacity:0.5;" d="
					M35.8,77.3h3.3v-15h-3.3V77.3z"/>
			</g>
		</g>
		<g id="patch_17">
			<g>
				<defs>
					<rect id="SVGID_00000181784553811232091720000014587625642802508677_" x="17.9" y="10.4" width="110.9" height="66.9"/>
				</defs>
				<clipPath id="SVGID_00000118397807477356671740000014348436913312210101_">
					<use xlink:href="#SVGID_00000181784553811232091720000014587625642802508677_"  style="overflow:visible;"/>
				</clipPath>
				<path style="clip-path:url(#SVGID_00000118397807477356671740000014348436913312210101_);fill:#3333CC;fill-opacity:0.5;" d="
					M39.1,77.3h3.3V66.7h-3.3V77.3z"/>
			</g>
		</g>
		<g id="patch_18">
			<g>
				<defs>
					<rect id="SVGID_00000049914357180945463730000012228648494739467913_" x="17.9" y="10.4" width="110.9" height="66.9"/>
				</defs>
				<clipPath id="SVGID_00000048459683400094303140000012178858222297871752_">
					<use xlink:href="#SVGID_00000049914357180945463730000012228648494739467913_"  style="overflow:visible;"/>
				</clipPath>
				<path style="clip-path:url(#SVGID_00000048459683400094303140000012178858222297871752_);fill:#3333CC;fill-opacity:0.5;" d="
					M42.4,77.3h3.3V66.7h-3.3V77.3z"/>
			</g>
		</g>
		<g id="patch_19">
			<g>
				<defs>
					<rect id="SVGID_00000024724262068467065710000002313085716099527579_" x="17.9" y="10.4" width="110.9" height="66.9"/>
				</defs>
				<clipPath id="SVGID_00000119091376675859482100000007057784972262948542_">
					<use xlink:href="#SVGID_00000024724262068467065710000002313085716099527579_"  style="overflow:visible;"/>
				</clipPath>
				<path style="clip-path:url(#SVGID_00000119091376675859482100000007057784972262948542_);fill:#3333CC;fill-opacity:0.5;" d="
					M45.8,77.3h3.3v-4.4h-3.3V77.3z"/>
			</g>
		</g>
		<g id="patch_20">
			<g>
				<defs>
					<rect id="SVGID_00000095337794369044280980000017916384317630340779_" x="17.9" y="10.4" width="110.9" height="66.9"/>
				</defs>
				<clipPath id="SVGID_00000101814436797678414170000004000530448674812032_">
					<use xlink:href="#SVGID_00000095337794369044280980000017916384317630340779_"  style="overflow:visible;"/>
				</clipPath>
				<path style="clip-path:url(#SVGID_00000101814436797678414170000004000530448674812032_);fill:#3333CC;fill-opacity:0.5;" d="
					M49.1,77.3h3.3v-6.2h-3.3V77.3z"/>
			</g>
		</g>
		<g id="patch_21">
			<g>
				<defs>
					<rect id="SVGID_00000110440912841559774770000017294851030856535687_" x="17.9" y="10.4" width="110.9" height="66.9"/>
				</defs>
				<clipPath id="SVGID_00000131364651303030916800000009340248947834874041_">
					<use xlink:href="#SVGID_00000110440912841559774770000017294851030856535687_"  style="overflow:visible;"/>
				</clipPath>
				<path style="clip-path:url(#SVGID_00000131364651303030916800000009340248947834874041_);fill:#3333CC;fill-opacity:0.5;" d="
					M52.4,77.3h3.3v-4.4h-3.3V77.3z"/>
			</g>
		</g>
		<g id="patch_22">
			<g>
				<defs>
					<rect id="SVGID_00000183249376314630723760000004007358109201730749_" x="17.9" y="10.4" width="110.9" height="66.9"/>
				</defs>
				<clipPath id="SVGID_00000041995775834123043890000005750405889703093407_">
					<use xlink:href="#SVGID_00000183249376314630723760000004007358109201730749_"  style="overflow:visible;"/>
				</clipPath>
				<path style="clip-path:url(#SVGID_00000041995775834123043890000005750405889703093407_);fill:#3333CC;fill-opacity:0.5;" d="
					M55.7,77.3h3.3v-2.7h-3.3V77.3z"/>
			</g>
		</g>
		<g id="patch_23">
			<g>
				<defs>
					<rect id="SVGID_00000166647826436966541100000016101923377693157050_" x="17.9" y="10.4" width="110.9" height="66.9"/>
				</defs>
				<clipPath id="SVGID_00000008113330168224809430000013754717144649619599_">
					<use xlink:href="#SVGID_00000166647826436966541100000016101923377693157050_"  style="overflow:visible;"/>
				</clipPath>
				<path style="clip-path:url(#SVGID_00000008113330168224809430000013754717144649619599_);fill:#CC3333;fill-opacity:0.5;" d="
					M22.9,77.3h3.2V56.1h-3.2V77.3z"/>
			</g>
		</g>
		<g id="patch_24">
			<g>
				<defs>
					<rect id="SVGID_00000151515464017265053040000008940826292970273714_" x="17.9" y="10.4" width="110.9" height="66.9"/>
				</defs>
				<clipPath id="SVGID_00000074410198794192343310000007488239390342716080_">
					<use xlink:href="#SVGID_00000151515464017265053040000008940826292970273714_"  style="overflow:visible;"/>
				</clipPath>
				<path style="clip-path:url(#SVGID_00000074410198794192343310000007488239390342716080_);fill:#CC3333;fill-opacity:0.5;" d="
					M26.1,77.3h3.2V13.6h-3.2V77.3z"/>
			</g>
		</g>
		<g id="patch_25">
			<g>
				<defs>
					<rect id="SVGID_00000152958183518579920920000001556865994634537151_" x="17.9" y="10.4" width="110.9" height="66.9"/>
				</defs>
				<clipPath id="SVGID_00000133498719345827804150000010653101710967889065_">
					<use xlink:href="#SVGID_00000152958183518579920920000001556865994634537151_"  style="overflow:visible;"/>
				</clipPath>
				<path style="clip-path:url(#SVGID_00000133498719345827804150000010653101710967889065_);fill:#CC3333;fill-opacity:0.5;" d="
					M29.4,77.3h3.2V36.6h-3.2V77.3z"/>
			</g>
		</g>
		<g id="patch_26">
			<g>
				<defs>
					<rect id="SVGID_00000152246900837197159820000012028992288041934753_" x="17.9" y="10.4" width="110.9" height="66.9"/>
				</defs>
				<clipPath id="SVGID_00000138562523461569463270000009946555292839486886_">
					<use xlink:href="#SVGID_00000152246900837197159820000012028992288041934753_"  style="overflow:visible;"/>
				</clipPath>
				<path style="clip-path:url(#SVGID_00000138562523461569463270000009946555292839486886_);fill:#CC3333;fill-opacity:0.5;" d="
					M32.6,77.3h3.2V49.9h-3.2V77.3z"/>
			</g>
		</g>
		<g id="patch_27">
			<g>
				<defs>
					<rect id="SVGID_00000062153230516449804780000013991127555674720666_" x="17.9" y="10.4" width="110.9" height="66.9"/>
				</defs>
				<clipPath id="SVGID_00000088105367779276525350000010920516518934774452_">
					<use xlink:href="#SVGID_00000062153230516449804780000013991127555674720666_"  style="overflow:visible;"/>
				</clipPath>
				<path style="clip-path:url(#SVGID_00000088105367779276525350000010920516518934774452_);fill:#CC3333;fill-opacity:0.5;" d="
					M35.8,77.3h3.2V64.9h-3.2V77.3z"/>
			</g>
		</g>
		<g id="patch_28">
			<g>
				<defs>
					<rect id="SVGID_00000021830799985178698230000000530500016865142667_" x="17.9" y="10.4" width="110.9" height="66.9"/>
				</defs>
				<clipPath id="SVGID_00000102508642535167326650000008854520451575812278_">
					<use xlink:href="#SVGID_00000021830799985178698230000000530500016865142667_"  style="overflow:visible;"/>
				</clipPath>
				<path style="clip-path:url(#SVGID_00000102508642535167326650000008854520451575812278_);fill:#CC3333;fill-opacity:0.5;" d="
					M39.1,77.3h3.2V63.2h-3.2V77.3z"/>
			</g>
		</g>
		<g id="patch_29">
			<g>
				<defs>
					<rect id="SVGID_00000150086263623711886460000017578858328384179348_" x="17.9" y="10.4" width="110.9" height="66.9"/>
				</defs>
				<clipPath id="SVGID_00000175318574027805439940000010682018086555801761_">
					<use xlink:href="#SVGID_00000150086263623711886460000017578858328384179348_"  style="overflow:visible;"/>
				</clipPath>
				<path style="clip-path:url(#SVGID_00000175318574027805439940000010682018086555801761_);fill:#CC3333;fill-opacity:0.5;" d="
					M42.3,77.3h3.2v-8.8h-3.2V77.3z"/>
			</g>
		</g>
		<g id="patch_30">
			<g>
				<defs>
					<rect id="SVGID_00000096031197049499549730000011926690106225322666_" x="17.9" y="10.4" width="110.9" height="66.9"/>
				</defs>
				<clipPath id="SVGID_00000046321398450950328900000012479693254489431704_">
					<use xlink:href="#SVGID_00000096031197049499549730000011926690106225322666_"  style="overflow:visible;"/>
				</clipPath>
				<path style="clip-path:url(#SVGID_00000046321398450950328900000012479693254489431704_);fill:#CC3333;fill-opacity:0.5;" d="
					M45.5,77.3h3.2v-4.4h-3.2V77.3z"/>
			</g>
		</g>
		<g id="patch_31">
			<g>
				<defs>
					<rect id="SVGID_00000096763977204242113960000013897332952583599520_" x="17.9" y="10.4" width="110.9" height="66.9"/>
				</defs>
				<clipPath id="SVGID_00000025413448794709225310000005696037919197039286_">
					<use xlink:href="#SVGID_00000096763977204242113960000013897332952583599520_"  style="overflow:visible;"/>
				</clipPath>
				<path style="clip-path:url(#SVGID_00000025413448794709225310000005696037919197039286_);fill:#CC3333;fill-opacity:0.5;" d="
					M48.8,77.3H52v-2.7h-3.2V77.3z"/>
			</g>
		</g>
		<g id="patch_32">
			<g>
				<defs>
					<rect id="SVGID_00000176749517130022767280000007514447094136010658_" x="17.9" y="10.4" width="110.9" height="66.9"/>
				</defs>
				<clipPath id="SVGID_00000034778445736542974350000001531703484192410013_">
					<use xlink:href="#SVGID_00000176749517130022767280000007514447094136010658_"  style="overflow:visible;"/>
				</clipPath>
				<path style="clip-path:url(#SVGID_00000034778445736542974350000001531703484192410013_);fill:#CC3333;fill-opacity:0.5;" d="
					M52,77.3h3.2v-2.7H52V77.3z"/>
			</g>
		</g>
		<g id="matplotlib.axis_1">
			<g id="xtick_1">
				<g id="line2d_1">
					<g>
						<g>
							<path id="m0b8a097297" class="st31" d="M21.3,77.3v3.5"/>
						</g>
					</g>
				</g>
			</g>
			<g id="xtick_2">
				<g id="line2d_2">
					<g>
						<g>
							<path id="m0b8a097297_00000085950418423893299240000009985430807744823992_" class="st31" d="M39.8,77.3v3.5"/>
						</g>
					</g>
				</g>
			</g>
			<g id="xtick_3">
				<g id="line2d_3">
					<g>
						<g>
							<path id="m0b8a097297_00000077326633721160364940000000920479871030261439_" class="st31" d="M58.4,77.3v3.5"/>
						</g>
					</g>
				</g>
			</g>
			<g id="xtick_4">
				<g id="line2d_4">
					<g>
						<g>
							<path id="m0b8a097297_00000010269364930708193080000015904409896663099038_" class="st31" d="M76.9,77.3v3.5"/>
						</g>
					</g>
				</g>
			</g>
			<g id="xtick_5">
				<g id="line2d_5">
					<g>
						<g>
							<path id="m0b8a097297_00000183959286307085677490000001469270074679285905_" class="st31" d="M95.4,77.3v3.5"/>
						</g>
					</g>
				</g>
			</g>
			<g id="xtick_6">
				<g id="line2d_6">
					<g>
						<g>
							<path id="m0b8a097297_00000034087498860689021000000012852981787781712275_" class="st31" d="M113.9,77.3v3.5"/>
						</g>
					</g>
				</g>
			</g>
		</g>
		<g id="matplotlib.axis_2">
			<g id="ytick_1">
				<g id="line2d_7">
					<g>
						<g>
							<path id="mbdadc40d6c" class="st31" d="M17.9,77.3h-3.5"/>
						</g>
					</g>
				</g>
			</g>
			<g id="ytick_2">
				<g id="line2d_8">
					<g>
						<g>
							<path id="mbdadc40d6c_00000178892285557334993060000015131180858021483704_" class="st31" d="M17.9,59.6h-3.5"/>
						</g>
					</g>
				</g>
			</g>
			<g id="ytick_3">
				<g id="line2d_9">
					<g>
						<g>
							<path id="mbdadc40d6c_00000053538937417423296870000014310002859813141156_" class="st31" d="M17.9,41.9h-3.5"/>
						</g>
					</g>
				</g>
			</g>
			<g id="ytick_4">
				<g id="line2d_10">
					<g>
						<g>
							<path id="mbdadc40d6c_00000067197158345077105470000005134970852209774764_" class="st31" d="M17.9,24.2h-3.5"/>
						</g>
					</g>
				</g>
			</g>
		</g>
		<g id="patch_33">
			<path class="st32" d="M17.9,77.3V10.4"/>
		</g>
		<g id="patch_34">
			<path class="st32" d="M128.7,77.3V10.4"/>
		</g>
		<g id="patch_35">
			<path class="st32" d="M17.9,77.3h110.9"/>
		</g>
		<g id="patch_36">
			<path class="st32" d="M17.9,10.4h110.9"/>
		</g>
		<g id="legend_1">
			<g id="patch_37">
				<path class="st33" d="M75.6,40.8h48.9c0.8,0,1.2-0.4,1.2-1.2V14.6c0-0.8-0.4-1.2-1.2-1.2H75.6c-0.8,0-1.2,0.4-1.2,1.2v24.9
					C74.4,40.4,74.8,40.8,75.6,40.8z"/>
			</g>
			<g id="patch_38">
				<path class="st34" d="M76.8,20.2h12V16h-12V20.2z"/>
			</g>
			<g id="text_1">
				<g transform="translate(93.646312 20.197163)scale(0.06 -0.06)">
					<g>
						<path id="ArialMT-4f" d="M4.8,34.9C4.8,46.7,8,56,14.4,62.8c6.4,6.7,14.6,10.1,24.7,10.1c6.6,0,12.6-1.6,17.9-4.8
							c5.3-3.2,9.3-7.6,12.1-13.2c2.8-5.6,4.2-12.1,4.2-19.2c0-7.2-1.5-13.7-4.4-19.5c-2.9-5.7-7.1-10.1-12.5-13
							c-5.4-2.9-11.2-4.4-17.4-4.4c-6.7,0-12.8,1.6-18.1,4.9C15.7,6.9,11.7,11.4,8.9,17C6.2,22.6,4.8,28.6,4.8,34.9z M14.6,34.7
							c0-8.6,2.3-15.4,7-20.4C26.2,9.4,32,6.9,39,6.9c7.1,0,13,2.5,17.6,7.5c4.6,5,6.9,12.1,6.9,21.3c0,5.8-1,10.9-3,15.2
							s-4.9,7.7-8.7,10.1c-3.8,2.4-8,3.6-12.8,3.6c-6.7,0-12.5-2.3-17.3-6.9C17,53.2,14.6,45.5,14.6,34.7z"/>
					</g>
					<g>
						<path id="ArialMT-70" d="M84.4-19.9v71.7h8v-6.7c1.9,2.6,4,4.6,6.4,5.9c2.4,1.3,5.3,2,8.6,2c4.4,0,8.3-1.1,11.7-3.4
							c3.4-2.3,5.9-5.5,7.7-9.7c1.7-4.1,2.6-8.7,2.6-13.6c0-5.3-1-10.1-2.9-14.3c-1.9-4.2-4.7-7.5-8.3-9.8
							c-3.6-2.3-7.4-3.4-11.5-3.4c-2.9,0-5.6,0.6-7.9,1.9c-2.3,1.2-4.2,2.8-5.7,4.7v-25.2H84.4z M92.3,25.6c0-6.7,1.3-11.6,4-14.8
							c2.7-3.2,6-4.8,9.8-4.8c3.9,0,7.2,1.7,10,5s4.2,8.4,4.2,15.4c0,6.6-1.4,11.5-4.1,14.8c-2.7,3.3-6,4.9-9.7,4.9
							c-3.8,0-7.1-1.8-10-5.2C93.8,37.4,92.3,32.3,92.3,25.6z"/>
					</g>
					<g>
						<path id="ArialMT-65" d="M175.5,16.7l9.1-1.1c-1.4-5.3-4.1-9.4-8-12.4c-3.9-2.9-8.8-4.4-14.8-4.4c-7.6,0-13.6,2.3-18,7
							c-4.4,4.7-6.7,11.2-6.7,19.7c0,8.7,2.2,15.5,6.7,20.3c4.5,4.8,10.3,7.2,17.5,7.2c6.9,0,12.6-2.4,17-7.1
							c4.4-4.7,6.6-11.4,6.6-19.9c0-0.5,0-1.3,0-2.3h-38.7c0.3-5.7,1.9-10.1,4.8-13.1c2.9-3,6.5-4.5,10.8-4.5c3.2,0,6,0.8,8.2,2.5
							C172.4,10.3,174.2,13,175.5,16.7z M146.6,30.9h29c-0.4,4.4-1.5,7.6-3.3,9.8c-2.8,3.4-6.4,5.1-10.9,5.1c-4,0-7.4-1.3-10.2-4
							S146.9,35.4,146.6,30.9z"/>
					</g>
					<g>
						<path id="ArialMT-6e" d="M195.6,0v51.9h7.9v-7.4c3.8,5.7,9.3,8.5,16.5,8.5c3.1,0,6-0.6,8.6-1.7s4.6-2.6,5.9-4.4
							c1.3-1.8,2.2-4,2.7-6.5c0.3-1.6,0.5-4.5,0.5-8.5V0H229v31.5c0,3.6-0.3,6.3-1,8c-0.7,1.8-1.9,3.2-3.6,4.2
							c-1.7,1.1-3.8,1.6-6.1,1.6c-3.8,0-7-1.2-9.7-3.6s-4.1-6.9-4.1-13.5V0H195.6z"/>
					</g>
					<g>
						<path id="ArialMT-20" d="M244.6,0"/>
					</g>
					<g>
						<path id="ArialMT-4c" d="M279.7,0v71.6h9.5V8.5h35.2V0H279.7z"/>
					</g>
					<g>
						<path id="ArialMT-6f" d="M331.4,25.9c0,9.6,2.7,16.7,8,21.3c4.5,3.8,9.9,5.8,16.3,5.8c7.1,0,12.9-2.3,17.5-7
							c4.5-4.7,6.8-11.1,6.8-19.4c0-6.7-1-11.9-3-15.8c-2-3.8-4.9-6.8-8.8-8.9c-3.8-2.1-8-3.2-12.5-3.2c-7.3,0-13.1,2.3-17.6,7
							C333.6,10.5,331.4,17.2,331.4,25.9z M340.4,25.9c0-6.6,1.4-11.6,4.3-14.9c2.9-3.3,6.5-5,10.9-5c4.4,0,8,1.7,10.9,5
							c2.9,3.3,4.3,8.4,4.3,15.2c0,6.4-1.5,11.3-4.4,14.6c-2.9,3.3-6.5,5-10.9,5c-4.4,0-8-1.6-10.9-4.9
							C341.8,37.5,340.4,32.6,340.4,25.9z"/>
					</g>
					<g>
						<path id="ArialMT-6f_00000155111186900749024170000012328492033839615119_" d="M387,25.9c0,9.6,2.7,16.7,8,21.3
							c4.5,3.8,9.9,5.8,16.3,5.8c7.1,0,12.9-2.3,17.5-7c4.5-4.7,6.8-11.1,6.8-19.4c0-6.7-1-11.9-3-15.8c-2-3.8-4.9-6.8-8.8-8.9
							c-3.8-2.1-8-3.2-12.5-3.2c-7.3,0-13.1,2.3-17.6,7C389.2,10.5,387,17.2,387,25.9z M396,25.9c0-6.6,1.4-11.6,4.3-14.9
							c2.9-3.3,6.5-5,10.9-5c4.4,0,8,1.7,10.9,5c2.9,3.3,4.3,8.4,4.3,15.2c0,6.4-1.5,11.3-4.4,14.6c-2.9,3.3-6.5,5-10.9,5
							c-4.4,0-8-1.6-10.9-4.9C397.4,37.5,396,32.6,396,25.9z"/>
					</g>
					<g>
						<path id="ArialMT-70_00000039829342518688030330000009506860386756186022_" d="M445.9-19.9v71.7h8v-6.7c1.9,2.6,4,4.6,6.4,5.9
							c2.4,1.3,5.3,2,8.6,2c4.4,0,8.3-1.1,11.7-3.4c3.4-2.3,5.9-5.5,7.7-9.7c1.7-4.1,2.6-8.7,2.6-13.6c0-5.3-1-10.1-2.9-14.3
							c-1.9-4.2-4.7-7.5-8.3-9.8c-3.6-2.3-7.4-3.4-11.5-3.4c-2.9,0-5.6,0.6-7.9,1.9c-2.3,1.2-4.2,2.8-5.7,4.7v-25.2H445.9z
							 M453.8,25.6c0-6.7,1.3-11.6,4-14.8c2.7-3.2,6-4.8,9.8-4.8c3.9,0,7.2,1.7,10,5s4.2,8.4,4.2,15.4c0,6.6-1.4,11.5-4.1,14.8
							c-2.7,3.3-6,4.9-9.7,4.9c-3.8,0-7.1-1.8-10-5.2C455.2,37.4,453.8,32.3,453.8,25.6z"/>
					</g>
				</g>
			</g>
			<g id="patch_39">
				<path class="st35" d="M76.8,28.7h12v-4.2h-12V28.7z"/>
			</g>
			<g id="text_2">
				<g transform="translate(93.646312 28.68435)scale(0.06 -0.06)">
					<g>
						<path id="ArialMT-49" d="M9.3,0v71.6h9.5V0H9.3z"/>
					</g>
					<g>
						<path id="ArialMT-6e_00000034780745149455101700000008170215326028580254_" d="M34.4,0v51.9h7.9v-7.4
							c3.8,5.7,9.3,8.5,16.5,8.5c3.1,0,6-0.6,8.6-1.7s4.6-2.6,5.9-4.4c1.3-1.8,2.2-4,2.7-6.5c0.3-1.6,0.5-4.5,0.5-8.5V0h-8.8v31.5
							c0,3.6-0.3,6.3-1,8c-0.7,1.8-1.9,3.2-3.6,4.2c-1.7,1.1-3.8,1.6-6.1,1.6c-3.8,0-7-1.2-9.7-3.6c-2.7-2.4-4.1-6.9-4.1-13.5V0
							H34.4z"/>
					</g>
					<g>
						<path id="ArialMT-69" d="M90,61.5v10.1h8.8V61.5H90z M90,0v51.9h8.8V0H90z"/>
					</g>
					<g>
						<path id="ArialMT-74" d="M131.4,7.9l1.3-7.8c-2.5-0.5-4.7-0.8-6.6-0.8c-3.2,0-5.7,0.5-7.4,1.5c-1.8,1-3,2.3-3.7,4
							s-1.1,5.1-1.1,10.4V45h-6.4v6.8h6.4v12.8l8.7,5.3V51.9h8.8V45h-8.8V14.7c0-2.5,0.2-4.1,0.5-4.8c0.3-0.7,0.8-1.3,1.5-1.7
							c0.7-0.4,1.7-0.6,3-0.6C128.5,7.5,129.8,7.6,131.4,7.9z"/>
					</g>
					<g>
						<path id="ArialMT-20_00000005980934109912148640000008127713225692287644_" d="M133.4,0"/>
					</g>
					<g>
						<path id="ArialMT-53" d="M165.7,23l8.9,0.8c0.4-3.6,1.4-6.5,3-8.8c1.6-2.3,4-4.1,7.2-5.6c3.3-1.4,6.9-2.1,11-2.1
							c3.6,0,6.8,0.5,9.6,1.6c2.8,1.1,4.8,2.5,6.2,4.4c1.4,1.9,2,3.9,2,6.1c0,2.2-0.7,4.2-2,5.9c-1.3,1.7-3.4,3.1-6.4,4.2
							c-1.9,0.8-6.2,1.9-12.8,3.5c-6.6,1.6-11.2,3.1-13.8,4.5c-3.4,1.8-6,4-7.7,6.7c-1.7,2.7-2.5,5.6-2.5,8.9c0,3.6,1,7,3.1,10.1
							c2.1,3.1,5,5.5,9,7.2c3.9,1.6,8.3,2.4,13.1,2.4c5.3,0,10-0.9,14-2.6c4.1-1.7,7.2-4.2,9.4-7.5c2.2-3.3,3.3-7.1,3.5-11.3
							l-9.1-0.7c-0.5,4.5-2.1,7.9-5,10.2c-2.8,2.3-7,3.5-12.5,3.5c-5.7,0-9.9-1.1-12.5-3.2c-2.6-2.1-3.9-4.6-3.9-7.6
							c0-2.6,0.9-4.7,2.8-6.4c1.8-1.7,6.6-3.4,14.3-5.1c7.7-1.7,13-3.3,15.8-4.6c4.2-1.9,7.2-4.4,9.2-7.3c2-2.9,3-6.3,3-10.2
							c0-3.8-1.1-7.4-3.3-10.8c-2.2-3.4-5.3-6-9.4-7.9c-4.1-1.9-8.7-2.8-13.8-2.8c-6.5,0-11.9,0.9-16.3,2.8
							c-4.4,1.9-7.8,4.7-10.3,8.5C167.1,13.9,165.8,18.2,165.7,23z"/>
					</g>
					<g>
						<path id="ArialMT-65_00000017503460476880211110000017360573928756889985_" d="M270,16.7l9.1-1.1c-1.4-5.3-4.1-9.4-8-12.4
							c-3.9-2.9-8.8-4.4-14.8-4.4c-7.6,0-13.6,2.3-18,7c-4.4,4.7-6.7,11.2-6.7,19.7c0,8.7,2.2,15.5,6.7,20.3
							c4.5,4.8,10.3,7.2,17.5,7.2c6.9,0,12.6-2.4,17-7.1c4.4-4.7,6.6-11.4,6.6-19.9c0-0.5,0-1.3,0-2.3h-38.7
							c0.3-5.7,1.9-10.1,4.8-13.1c2.9-3,6.5-4.5,10.8-4.5c3.2,0,6,0.8,8.2,2.5C266.8,10.3,268.6,13,270,16.7z M241.1,30.9h29
							c-0.4,4.4-1.5,7.6-3.3,9.8c-2.8,3.4-6.4,5.1-10.9,5.1c-4,0-7.4-1.3-10.2-4C242.9,39.1,241.4,35.4,241.1,30.9z"/>
					</g>
					<g>
						<path id="ArialMT-65_00000063634281546427237620000008067380644253887648_" d="M325.6,16.7l9.1-1.1c-1.4-5.3-4.1-9.4-8-12.4
							c-3.9-2.9-8.8-4.4-14.8-4.4c-7.6,0-13.6,2.3-18,7c-4.4,4.7-6.7,11.2-6.7,19.7c0,8.7,2.2,15.5,6.7,20.3
							c4.5,4.8,10.3,7.2,17.5,7.2c6.9,0,12.6-2.4,17-7.1c4.4-4.7,6.6-11.4,6.6-19.9c0-0.5,0-1.3,0-2.3h-38.7
							c0.3-5.7,1.9-10.1,4.8-13.1c2.9-3,6.5-4.5,10.8-4.5c3.2,0,6,0.8,8.2,2.5C322.4,10.3,324.3,13,325.6,16.7z M296.7,30.9h29
							c-0.4,4.4-1.5,7.6-3.3,9.8c-2.8,3.4-6.4,5.1-10.9,5.1c-4,0-7.4-1.3-10.2-4C298.5,39.1,297,35.4,296.7,30.9z"/>
					</g>
					<g>
						<path id="ArialMT-64" d="M379.3,0v6.5c-3.3-5.1-8.1-7.7-14.5-7.7c-4.1,0-7.9,1.1-11.4,3.4s-6.2,5.5-8.1,9.5
							c-1.9,4.1-2.8,8.8-2.8,14.1c0,5.2,0.9,9.9,2.6,14.1c1.7,4.2,4.3,7.4,7.8,9.7c3.5,2.2,7.3,3.4,11.6,3.4c3.1,0,5.9-0.7,8.3-2
							c2.4-1.3,4.4-3,6-5.1v25.7h8.7V0H379.3z M351.6,25.9c0-6.6,1.4-11.6,4.2-14.9c2.8-3.3,6.1-4.9,9.9-4.9c3.8,0,7.1,1.6,9.8,4.7
							c2.7,3.1,4,7.9,4,14.4c0,7.1-1.4,12.3-4.1,15.6c-2.7,3.3-6.1,5-10.1,5c-3.9,0-7.2-1.6-9.8-4.8
							C352.9,37.8,351.6,32.8,351.6,25.9z"/>
					</g>
				</g>
			</g>
			<g id="patch_40">
				<path class="st36" d="M76.8,37.2h12V33h-12V37.2z"/>
			</g>
			<g id="text_3">
				<g transform="translate(93.646312 37.171537)scale(0.06 -0.06)">
					<g>
						<path id="ArialMT-42" d="M7.3,0v71.6h26.9c5.5,0,9.9-0.7,13.2-2.2s5.9-3.7,7.8-6.7c1.9-3,2.8-6.2,2.8-9.5
							c0-3.1-0.8-5.9-2.5-8.6c-1.7-2.7-4.2-4.9-7.5-6.5c4.3-1.3,7.6-3.4,10-6.5c2.3-3.1,3.5-6.7,3.5-10.8c0-3.4-0.7-6.5-2.1-9.4
							c-1.4-2.9-3.2-5.1-5.2-6.7S49.3,2,46.2,1.2C43,0.4,39.2,0,34.6,0H7.3z M16.8,41.5h15.5c4.2,0,7.2,0.3,9,0.8
							c2.4,0.7,4.2,1.9,5.4,3.6c1.2,1.7,1.8,3.8,1.8,6.3c0,2.4-0.6,4.5-1.7,6.3c-1.1,1.8-2.8,3.1-4.9,3.7c-2.1,0.7-5.7,1-10.9,1
							H16.8V41.5z M16.8,8.5h17.8c3.1,0,5.2,0.1,6.4,0.3c2.2,0.4,4,1,5.5,1.9c1.5,0.9,2.7,2.2,3.6,4c0.9,1.7,1.4,3.7,1.4,6
							c0,2.7-0.7,5-2,7c-1.4,2-3.3,3.4-5.7,4.2c-2.4,0.8-5.9,1.2-10.5,1.2H16.8V8.5z"/>
					</g>
					<g>
						<path id="ArialMT-61" d="M107.1,6.4c-3.3-2.8-6.4-4.7-9.4-5.9c-3-1.1-6.2-1.7-9.7-1.7C82.3-1.2,78,0.2,74.9,3
							s-4.6,6.3-4.6,10.7c0,2.5,0.6,4.9,1.7,7c1.2,2.1,2.7,3.8,4.5,5.1s4,2.2,6.3,2.9c1.7,0.5,4.3,0.9,7.8,1.3
							c7.1,0.8,12.3,1.8,15.7,3c0,1.2,0,2,0,2.3c0,3.6-0.8,6.1-2.5,7.6c-2.2,2-5.6,3-10,3c-4.1,0-7.2-0.7-9.2-2.2s-3.4-4-4.4-7.7
							l-8.6,1.2c0.8,3.7,2.1,6.6,3.9,8.9c1.8,2.3,4.4,4,7.8,5.2c3.4,1.2,7.3,1.8,11.8,1.8c4.4,0,8-0.5,10.8-1.6
							c2.8-1,4.8-2.4,6.1-3.9c1.3-1.6,2.2-3.6,2.7-6c0.3-1.5,0.4-4.2,0.4-8.1V21.7c0-8.2,0.2-13.3,0.6-15.5c0.4-2.2,1.1-4.2,2.2-6.2
							h-9.2C108,1.8,107.4,4,107.1,6.4z M106.4,26c-3.2-1.3-8-2.4-14.4-3.3c-3.6-0.5-6.2-1.1-7.7-1.8c-1.5-0.6-2.6-1.6-3.5-2.8
							c-0.8-1.2-1.2-2.6-1.2-4.2c0-2.3,0.9-4.3,2.7-5.9c1.8-1.6,4.4-2.3,7.8-2.3c3.4,0,6.4,0.7,9,2.2c2.6,1.5,4.6,3.5,5.8,6.1
							c0.9,2,1.4,4.9,1.4,8.8V26z"/>
					</g>
					<g>
						<path id="ArialMT-74_00000137821896504120157620000017004428746439864995_" d="M148.1,7.9l1.3-7.8c-2.5-0.5-4.7-0.8-6.6-0.8
							c-3.2,0-5.7,0.5-7.4,1.5c-1.8,1-3,2.3-3.7,4s-1.1,5.1-1.1,10.4V45h-6.4v6.8h6.4v12.8l8.7,5.3V51.9h8.8V45h-8.8V14.7
							c0-2.5,0.2-4.1,0.5-4.8c0.3-0.7,0.8-1.3,1.5-1.7c0.7-0.4,1.7-0.6,3-0.6C145.2,7.5,146.5,7.6,148.1,7.9z"/>
					</g>
					<g>
						<path id="ArialMT-63" d="M190.5,19l8.6-1.1c-0.9-6-3.4-10.6-7.3-14c-3.9-3.4-8.7-5-14.3-5c-7.1,0-12.8,2.3-17.1,7
							c-4.3,4.6-6.5,11.3-6.5,20c0,5.6,0.9,10.5,2.8,14.7c1.9,4.2,4.7,7.4,8.5,9.5c3.8,2.1,7.9,3.2,12.4,3.2
							c5.6,0,10.2-1.4,13.8-4.3c3.6-2.8,5.9-6.9,6.9-12.1l-8.5-1.3c-0.8,3.5-2.3,6.1-4.3,7.9c-2.1,1.8-4.6,2.6-7.5,2.6
							c-4.4,0-8-1.6-10.8-4.8c-2.8-3.2-4.1-8.2-4.1-15c0-7,1.3-12,4-15.2c2.7-3.2,6.2-4.7,10.5-4.7c3.4,0,6.3,1.1,8.6,3.2
							S189.9,14.6,190.5,19z"/>
					</g>
					<g>
						<path id="ArialMT-68" d="M206.7,0v71.6h8.8V45.9c4.1,4.8,9.3,7.1,15.5,7.1c3.8,0,7.2-0.8,10-2.3c2.8-1.5,4.9-3.6,6.1-6.3
							s1.8-6.5,1.8-11.6V0h-8.8v32.9c0,4.4-1,7.6-2.9,9.6s-4.6,3-8.1,3c-2.6,0-5.1-0.7-7.4-2c-2.3-1.3-3.9-3.2-4.9-5.5
							c-1-2.3-1.5-5.5-1.5-9.6V0H206.7z"/>
					</g>
				</g>
			</g>
		</g>
	</g>
</g>
</svg>
