<?xml version="1.0" encoding="utf-8"?>
<!-- Generator: Adobe Illustrator 26.4.1, SVG Export Plug-In . SVG Version: 6.00 Build 0)  -->
<svg version="1.1" id="Layer_1" xmlns="http://www.w3.org/2000/svg" xmlns:xlink="http://www.w3.org/1999/xlink" x="0px" y="0px"
	 viewBox="0 0 460.8 246.5" style="enable-background:new 0 0 460.8 246.5;" xml:space="preserve">
<style type="text/css">
	.st0{fill:#FFFFFF;}
	.st1{stroke:#000000;stroke-width:0.8;stroke-linejoin:round;}
	
		.st2{clip-path:url(#SVGID_00000059297404781191838010000010494478218345581185_);fill:none;stroke:#000000;stroke-linecap:square;stroke-linejoin:round;}
	
		.st3{clip-path:url(#SVGID_00000044881362993639024820000002524196398747161742_);fill:none;stroke:#000000;stroke-linecap:square;stroke-linejoin:round;}
	
		.st4{clip-path:url(#SVGID_00000153673624179547407480000012322703285111134862_);fill:none;stroke:#000000;stroke-linecap:square;stroke-linejoin:round;}
	
		.st5{clip-path:url(#SVGID_00000069378621619766834160000011912455954037842366_);fill:none;stroke:#000000;stroke-linecap:square;stroke-linejoin:round;}
	
		.st6{clip-path:url(#SVGID_00000078008011276582843180000000541966718717656249_);fill:none;stroke:#000000;stroke-linecap:square;stroke-linejoin:round;}
	
		.st7{clip-path:url(#SVGID_00000183957845729114621280000005113342676859666588_);fill:none;stroke:#000000;stroke-linecap:square;stroke-linejoin:round;}
	
		.st8{clip-path:url(#SVGID_00000124120234160128114470000016923054042237661340_);fill:none;stroke:#000000;stroke-linecap:square;stroke-linejoin:round;}
	
		.st9{clip-path:url(#SVGID_00000008113837093261286760000007567589409800608424_);fill:none;stroke:#000000;stroke-linecap:square;stroke-linejoin:round;}
	
		.st10{clip-path:url(#SVGID_00000007393147369290166770000016337109915353333932_);fill:none;stroke:#000000;stroke-linecap:square;stroke-linejoin:round;}
	
		.st11{clip-path:url(#SVGID_00000053509297675016636630000000518458544505126544_);fill:none;stroke:#000000;stroke-linecap:square;stroke-linejoin:round;}
	
		.st12{clip-path:url(#SVGID_00000127727436655506426390000012795311802846954685_);fill:none;stroke:#000000;stroke-linecap:square;stroke-linejoin:round;}
	
		.st13{clip-path:url(#SVGID_00000096769456161453226920000016240571780531732133_);fill:none;stroke:#000000;stroke-linecap:square;stroke-linejoin:round;}
	
		.st14{clip-path:url(#SVGID_00000039120981353482386680000011232860781112589716_);fill:none;stroke:#000000;stroke-linecap:square;stroke-linejoin:round;}
	
		.st15{clip-path:url(#SVGID_00000069388257808840189620000007887317148360197274_);fill:none;stroke:#000000;stroke-linecap:square;stroke-linejoin:round;}
	
		.st16{clip-path:url(#SVGID_00000156583134060911585630000002674964505871172543_);fill:none;stroke:#000000;stroke-linecap:square;stroke-linejoin:round;}
	
		.st17{clip-path:url(#SVGID_00000088106008988691461670000009835838345853421954_);fill:none;stroke:#FF7F0E;stroke-linecap:square;stroke-linejoin:round;}
	
		.st18{clip-path:url(#SVGID_00000137812735482297031750000016302998587074990752_);fill:none;stroke:#FF7F0E;stroke-linecap:square;stroke-linejoin:round;}
	
		.st19{clip-path:url(#SVGID_00000123424112430551931730000003491994297500911273_);fill:none;stroke:#FF7F0E;stroke-linecap:square;stroke-linejoin:round;}
	.st20{fill:none;stroke:#000000;stroke-width:0.8;stroke-linecap:square;}
</style>
<g id="figure_1">
	<g id="axes_1">
		<g id="patch_2">
			<path class="st0" d="M57.6,219.4h357.1V29.6H57.6V219.4z"/>
		</g>
		<g id="matplotlib.axis_1">
			<g id="xtick_1">
				<g id="line2d_1">
					<g>
						<g>
							<path id="m58df91b14f" class="st1" d="M117.1,219.4v3.5"/>
						</g>
					</g>
				</g>
				<g id="text_1">
					<g transform="translate(110.116875 230.661888)scale(0.06 -0.06)">
						<g>
							<path id="ArialMT-44" d="M7.7,0v71.6h24.7c5.6,0,9.8-0.3,12.8-1c4.1-0.9,7.6-2.7,10.5-5.1c3.8-3.2,6.6-7.3,8.5-12.2
								c1.9-5,2.8-10.6,2.8-17c0-5.4-0.6-10.3-1.9-14.5c-1.3-4.2-2.9-7.7-4.9-10.4c-2-2.7-4.2-4.9-6.5-6.5C51.2,3.2,48.4,2,45,1.2
								S37.9,0,33.5,0H7.7z M17.2,8.5h15.3c4.7,0,8.4,0.4,11.1,1.3c2.7,0.9,4.8,2.1,6.4,3.7c2.2,2.2,4,5.3,5.2,9s1.9,8.4,1.9,13.8
								c0,7.5-1.2,13.2-3.7,17.3s-5.4,6.7-9,8.1c-2.5,1-6.6,1.5-12.2,1.5h-15V8.5z"/>
						</g>
						<g>
							<path id="ArialMT-65" d="M114.3,16.7l9.1-1.1c-1.4-5.3-4.1-9.4-8-12.4c-3.9-2.9-8.8-4.4-14.8-4.4c-7.6,0-13.6,2.3-18,7
								c-4.4,4.7-6.7,11.2-6.7,19.7c0,8.7,2.2,15.5,6.7,20.3c4.5,4.8,10.3,7.2,17.5,7.2c6.9,0,12.6-2.4,17-7.1s6.6-11.4,6.6-19.9
								c0-0.5,0-1.3,0-2.3H85c0.3-5.7,1.9-10.1,4.8-13.1c2.9-3,6.5-4.5,10.8-4.5c3.2,0,6,0.8,8.2,2.5C111.2,10.3,113,13,114.3,16.7z
								 M85.5,30.9h29c-0.4,4.4-1.5,7.6-3.3,9.8c-2.8,3.4-6.4,5.1-10.9,5.1c-4,0-7.4-1.3-10.2-4S85.7,35.4,85.5,30.9z"/>
						</g>
						<g>
							<path id="ArialMT-6c" d="M134.2,0v71.6h8.8V0H134.2z"/>
						</g>
						<g>
							<path id="ArialMT-74" d="M175.8,7.9l1.3-7.8c-2.5-0.5-4.7-0.8-6.6-0.8c-3.2,0-5.7,0.5-7.4,1.5c-1.8,1-3,2.3-3.7,4
								s-1.1,5.1-1.1,10.4V45h-6.4v6.8h6.4v12.8L167,70V51.9h8.8V45H167V14.7c0-2.5,0.2-4.1,0.5-4.8c0.3-0.7,0.8-1.3,1.5-1.7
								c0.7-0.4,1.7-0.6,3-0.6C172.9,7.5,174.2,7.6,175.8,7.9z"/>
						</g>
						<g>
							<path id="ArialMT-61" d="M218.3,6.4c-3.3-2.8-6.4-4.7-9.4-5.9c-3-1.1-6.2-1.7-9.7-1.7c-5.7,0-10.1,1.4-13.1,4.2
								s-4.6,6.3-4.6,10.7c0,2.5,0.6,4.9,1.7,7c1.2,2.1,2.7,3.8,4.5,5.1s4,2.2,6.3,2.9c1.7,0.5,4.3,0.9,7.8,1.3
								c7.1,0.8,12.3,1.8,15.7,3c0,1.2,0,2,0,2.3c0,3.6-0.8,6.1-2.5,7.6c-2.2,2-5.6,3-10,3c-4.1,0-7.2-0.7-9.2-2.2s-3.4-4-4.4-7.7
								l-8.6,1.2c0.8,3.7,2.1,6.6,3.9,8.9c1.8,2.3,4.4,4,7.8,5.2c3.4,1.2,7.3,1.8,11.8,1.8c4.4,0,8-0.5,10.8-1.6
								c2.8-1,4.8-2.4,6.1-3.9c1.3-1.6,2.2-3.6,2.7-6c0.3-1.5,0.4-4.2,0.4-8.1V21.7c0-8.2,0.2-13.3,0.6-15.5
								c0.4-2.2,1.1-4.2,2.2-6.2H220C219.1,1.8,218.5,4,218.3,6.4z M217.5,26c-3.2-1.3-8-2.4-14.4-3.3c-3.6-0.5-6.2-1.1-7.7-1.8
								c-1.5-0.6-2.6-1.6-3.5-2.8c-0.8-1.2-1.2-2.6-1.2-4.2c0-2.3,0.9-4.3,2.7-5.9c1.8-1.6,4.4-2.3,7.8-2.3c3.4,0,6.4,0.7,9,2.2
								c2.6,1.5,4.6,3.5,5.8,6.1c0.9,2,1.4,4.9,1.4,8.8V26z"/>
						</g>
					</g>
				</g>
			</g>
			<g id="xtick_2">
				<g id="line2d_2">
					<g>
						<g>
							<path id="m58df91b14f_00000099639286709540434750000011582483744870293133_" class="st1" d="M236.2,219.4v3.5"/>
						</g>
					</g>
				</g>
				<g id="text_2">
					<g transform="translate(229.988906 230.661888)scale(0.06 -0.06)">
						<g>
							<path id="ArialMT-42" d="M7.3,0v71.6h26.9c5.5,0,9.9-0.7,13.2-2.2s5.9-3.7,7.8-6.7c1.9-3,2.8-6.2,2.8-9.5
								c0-3.1-0.8-5.9-2.5-8.6c-1.7-2.7-4.2-4.9-7.5-6.5c4.3-1.3,7.6-3.4,10-6.5c2.3-3.1,3.5-6.7,3.5-10.8c0-3.4-0.7-6.5-2.1-9.4
								c-1.4-2.9-3.2-5.1-5.2-6.7S49.3,2,46.2,1.2C43,0.4,39.2,0,34.6,0H7.3z M16.8,41.5h15.5c4.2,0,7.2,0.3,9,0.8
								c2.4,0.7,4.2,1.9,5.4,3.6c1.2,1.7,1.8,3.8,1.8,6.3c0,2.4-0.6,4.5-1.7,6.3c-1.1,1.8-2.8,3.1-4.9,3.7c-2.1,0.7-5.7,1-10.9,1
								H16.8V41.5z M16.8,8.5h17.8c3.1,0,5.2,0.1,6.4,0.3c2.2,0.4,4,1,5.5,1.9c1.5,0.9,2.7,2.2,3.6,4c0.9,1.7,1.4,3.8,1.4,6
								c0,2.7-0.7,5-2,7c-1.4,2-3.3,3.4-5.7,4.2c-2.4,0.8-5.9,1.2-10.5,1.2H16.8V8.5z"/>
						</g>
						<g>
							<path id="ArialMT-65_00000017485498726533105240000007162683023753600691_" d="M108.8,16.7l9.1-1.1c-1.4-5.3-4.1-9.4-8-12.4
								c-3.9-2.9-8.8-4.4-14.8-4.4c-7.6,0-13.6,2.3-18,7c-4.4,4.7-6.7,11.2-6.7,19.7c0,8.7,2.2,15.5,6.7,20.3
								c4.5,4.8,10.3,7.2,17.5,7.2c6.9,0,12.6-2.4,17-7.1c4.4-4.7,6.6-11.4,6.6-19.9c0-0.5,0-1.3,0-2.3H79.4
								c0.3-5.7,1.9-10.1,4.8-13.1c2.9-3,6.5-4.5,10.8-4.5c3.2,0,6,0.8,8.2,2.5C105.7,10.3,107.5,13,108.8,16.7z M79.9,30.9h29
								c-0.4,4.4-1.5,7.6-3.3,9.8c-2.8,3.4-6.4,5.1-10.9,5.1c-4,0-7.4-1.3-10.2-4S80.2,35.4,79.9,30.9z"/>
						</g>
						<g>
							<path id="ArialMT-74_00000066498206531069733680000011968951477690691221_" d="M148.1,7.9l1.3-7.8c-2.5-0.5-4.7-0.8-6.6-0.8
								c-3.2,0-5.7,0.5-7.4,1.5c-1.8,1-3,2.3-3.7,4s-1.1,5.1-1.1,10.4V45h-6.4v6.8h6.4v12.8l8.7,5.3V51.9h8.8V45h-8.8V14.7
								c0-2.5,0.2-4.1,0.5-4.8c0.3-0.7,0.8-1.3,1.5-1.7c0.7-0.4,1.7-0.6,3-0.6C145.2,7.5,146.5,7.6,148.1,7.9z"/>
						</g>
						<g>
							<path id="ArialMT-61_00000119115246579129831750000003159644507669665726_" d="M190.5,6.4c-3.3-2.8-6.4-4.7-9.4-5.9
								c-3-1.1-6.2-1.7-9.7-1.7c-5.7,0-10.1,1.4-13.1,4.2s-4.6,6.3-4.6,10.7c0,2.5,0.6,4.9,1.7,7c1.2,2.1,2.7,3.8,4.5,5.1
								s4,2.2,6.3,2.9c1.7,0.5,4.3,0.9,7.8,1.3c7.1,0.8,12.3,1.8,15.7,3c0,1.2,0,2,0,2.3c0,3.6-0.8,6.1-2.5,7.6c-2.2,2-5.6,3-10,3
								c-4.1,0-7.2-0.7-9.2-2.2s-3.4-4-4.4-7.7l-8.6,1.2c0.8,3.7,2.1,6.6,3.9,8.9c1.8,2.3,4.4,4,7.8,5.2c3.4,1.2,7.3,1.8,11.8,1.8
								c4.4,0,8-0.5,10.8-1.6c2.8-1,4.8-2.4,6.1-3.9c1.3-1.6,2.2-3.6,2.7-6c0.3-1.5,0.4-4.2,0.4-8.1V21.7c0-8.2,0.2-13.3,0.6-15.5
								c0.4-2.2,1.1-4.2,2.2-6.2h-9.2C191.4,1.8,190.8,4,190.5,6.4z M189.8,26c-3.2-1.3-8-2.4-14.4-3.3c-3.6-0.5-6.2-1.1-7.7-1.8
								c-1.5-0.6-2.6-1.6-3.5-2.8c-0.8-1.2-1.2-2.6-1.2-4.2c0-2.3,0.9-4.3,2.7-5.9c1.8-1.6,4.4-2.3,7.8-2.3c3.4,0,6.4,0.7,9,2.2
								c2.6,1.5,4.6,3.5,5.8,6.1c0.9,2,1.4,4.9,1.4,8.8V26z"/>
						</g>
					</g>
				</g>
			</g>
			<g id="xtick_3">
				<g id="line2d_3">
					<g>
						<g>
							<path id="m58df91b14f_00000060712398740691181730000013525790341119186336_" class="st1" d="M355.2,219.4v3.5"/>
						</g>
					</g>
				</g>
				<g id="text_3">
					<g transform="translate(351.198281 230.661888)scale(0.06 -0.06)">
						<g>
							<path id="ArialMT-68" d="M6.6,0v71.6h8.8V45.9c4.1,4.8,9.3,7.1,15.5,7.1c3.8,0,7.2-0.8,10-2.3c2.8-1.5,4.9-3.6,6.1-6.3
								s1.8-6.5,1.8-11.6V0H40v32.9c0,4.4-1,7.6-2.9,9.6c-1.9,2-4.6,3-8.1,3c-2.6,0-5.1-0.7-7.4-2c-2.3-1.3-3.9-3.2-4.9-5.5
								s-1.5-5.5-1.5-9.6V0H6.6z"/>
						</g>
						<g>
							<path id="ArialMT-47" d="M96.8,28.1v8.4l30.3,0.1V10c-4.7-3.7-9.5-6.5-14.4-8.4c-4.9-1.9-10-2.8-15.2-2.8
								c-7,0-13.4,1.5-19.2,4.5c-5.7,3-10.1,7.4-13,13.1c-2.9,5.7-4.4,12.1-4.4,19.1c0,7,1.5,13.5,4.4,19.5
								c2.9,6,7.1,10.5,12.6,13.5s11.8,4.4,18.9,4.4c5.2,0,9.9-0.8,14-2.5c4.2-1.7,7.5-4,9.8-7c2.4-3,4.2-6.9,5.4-11.7l-8.5-2.3
								c-1.1,3.6-2.4,6.5-4,8.6s-3.9,3.8-6.8,5c-3,1.3-6.2,1.9-9.8,1.9c-4.3,0-8.1-0.7-11.2-2c-3.2-1.3-5.7-3-7.6-5.2
								c-1.9-2.1-3.4-4.5-4.5-7.1c-1.8-4.4-2.7-9.2-2.7-14.4c0-6.4,1.1-11.7,3.3-16c2.2-4.3,5.4-7.5,9.6-9.6
								c4.2-2.1,8.7-3.1,13.4-3.1c4.1,0,8.1,0.8,12,2.4c3.9,1.6,6.9,3.3,8.9,5.1v13.3H96.8z"/>
						</g>
					</g>
				</g>
			</g>
		</g>
		<g id="matplotlib.axis_2">
			<g id="ytick_1">
				<g id="line2d_4">
					<g>
						<g>
							<path id="m1e4f1a08a9" class="st1" d="M57.6,219.4h-3.5"/>
						</g>
					</g>
				</g>
				<g id="text_4">
					<g transform="translate(42.26 221.514544)scale(0.06 -0.06)">
						<g>
							<path id="ArialMT-30" d="M4.2,35.3c0,8.5,0.9,15.3,2.6,20.4c1.7,5.2,4.3,9.1,7.7,11.9c3.4,2.8,7.8,4.2,13,4.2
								c3.8,0,7.2-0.8,10.1-2.3c2.9-1.5,5.3-3.8,7.2-6.7c1.9-2.9,3.4-6.5,4.5-10.6c1.1-4.2,1.6-9.8,1.6-16.9
								c0-8.4-0.9-15.2-2.6-20.3c-1.7-5.2-4.3-9.1-7.7-12c-3.4-2.8-7.8-4.2-13-4.2c-6.9,0-12.3,2.5-16.2,7.4
								C6.5,12.2,4.2,21.9,4.2,35.3z M13.2,35.3c0-11.8,1.4-19.6,4.1-23.5C20.1,7.9,23.5,6,27.5,6c4,0,7.4,2,10.2,5.9
								s4.1,11.7,4.1,23.4c0,11.8-1.4,19.6-4.1,23.5c-2.8,3.9-6.2,5.8-10.3,5.8c-4,0-7.3-1.7-9.7-5.1C14.7,55.1,13.2,47.1,13.2,35.3
								z"/>
						</g>
						<g>
							<path id="ArialMT-2e" d="M64.7,0v10h10V0H64.7z"/>
						</g>
						<g>
							<path id="ArialMT-34" d="M115.7,0v17.1H84.7v8.1l32.7,46.4h7.2V25.2h9.7v-8.1h-9.7V0H115.7z M115.7,25.2v32.3L93.3,25.2
								H115.7z"/>
						</g>
					</g>
				</g>
			</g>
			<g id="ytick_2">
				<g id="line2d_5">
					<g>
						<g>
							<path id="m1e4f1a08a9_00000151534330590564500500000010215798667900211119_" class="st1" d="M57.6,187.7h-3.5"/>
						</g>
					</g>
				</g>
				<g id="text_5">
					<g transform="translate(42.26 189.882944)scale(0.06 -0.06)">
						<g>
							<path id="ArialMT-30_00000100382405317088050260000004467444661529487281_" d="M4.2,35.3c0,8.5,0.9,15.3,2.6,20.4
								c1.7,5.2,4.3,9.1,7.7,11.9c3.4,2.8,7.8,4.2,13,4.2c3.8,0,7.2-0.8,10.1-2.3c2.9-1.5,5.3-3.8,7.2-6.7c1.9-2.9,3.4-6.5,4.5-10.6
								c1.1-4.2,1.6-9.8,1.6-16.9c0-8.4-0.9-15.2-2.6-20.3c-1.7-5.2-4.3-9.1-7.7-12c-3.4-2.8-7.8-4.2-13-4.2
								c-6.9,0-12.3,2.5-16.2,7.4C6.5,12.2,4.2,21.9,4.2,35.3z M13.2,35.3c0-11.8,1.4-19.6,4.1-23.5C20.1,7.9,23.5,6,27.5,6
								c4,0,7.4,2,10.2,5.9s4.1,11.7,4.1,23.4c0,11.8-1.4,19.6-4.1,23.5c-2.8,3.9-6.2,5.8-10.3,5.8c-4,0-7.3-1.7-9.7-5.1
								C14.7,55.1,13.2,47.1,13.2,35.3z"/>
						</g>
						<g>
							<path id="ArialMT-2e_00000083782965655177300690000000851741723576628907_" d="M64.7,0v10h10V0H64.7z"/>
						</g>
						<g>
							<path id="ArialMT-35" d="M87.6,18.7l9.2,0.8c0.7-4.5,2.3-7.9,4.8-10.1c2.5-2.3,5.5-3.4,9-3.4c4.2,0,7.8,1.6,10.7,4.8
								c2.9,3.2,4.4,7.4,4.4,12.7c0,5-1.4,9-4.2,11.9c-2.8,2.9-6.5,4.4-11.1,4.4c-2.8,0-5.4-0.6-7.7-1.9c-2.3-1.3-4.1-2.9-5.4-5
								l-8.2,1.1L96,70.6h35.6v-8.4h-28.6L99.2,43c4.3,3,8.8,4.5,13.5,4.5c6.2,0,11.5-2.2,15.8-6.5c4.3-4.3,6.5-9.9,6.5-16.7
								c0-6.5-1.9-12.1-5.7-16.8c-4.6-5.8-10.9-8.7-18.8-8.7c-6.5,0-11.8,1.8-16,5.5C90.5,7.9,88.1,12.7,87.6,18.7z"/>
						</g>
					</g>
				</g>
			</g>
			<g id="ytick_3">
				<g id="line2d_6">
					<g>
						<g>
							<path id="m1e4f1a08a9_00000180344862115091399840000017947116182934194328_" class="st1" d="M57.6,156.1h-3.5"/>
						</g>
					</g>
				</g>
				<g id="text_6">
					<g transform="translate(42.26 158.251344)scale(0.06 -0.06)">
						<g>
							<path id="ArialMT-30_00000142859882854061492460000008770106776503816111_" d="M4.2,35.3c0,8.5,0.9,15.3,2.6,20.4
								c1.7,5.2,4.3,9.1,7.7,11.9c3.4,2.8,7.8,4.2,13,4.2c3.8,0,7.2-0.8,10.1-2.3c2.9-1.5,5.3-3.8,7.2-6.7c1.9-2.9,3.4-6.5,4.5-10.6
								c1.1-4.2,1.6-9.8,1.6-16.9c0-8.4-0.9-15.2-2.6-20.3c-1.7-5.2-4.3-9.1-7.7-12c-3.4-2.8-7.8-4.2-13-4.2
								c-6.9,0-12.3,2.5-16.2,7.4C6.5,12.2,4.2,21.9,4.2,35.3z M13.2,35.3c0-11.8,1.4-19.6,4.1-23.5C20.1,7.9,23.5,6,27.5,6
								c4,0,7.4,2,10.2,5.9s4.1,11.7,4.1,23.4c0,11.8-1.4,19.6-4.1,23.5c-2.8,3.9-6.2,5.8-10.3,5.8c-4,0-7.3-1.7-9.7-5.1
								C14.7,55.1,13.2,47.1,13.2,35.3z"/>
						</g>
						<g>
							<path id="ArialMT-2e_00000005252951431292380680000002134452090947043993_" d="M64.7,0v10h10V0H64.7z"/>
						</g>
						<g>
							<path id="ArialMT-36" d="M133.1,54l-8.7-0.7c-0.8,3.4-1.9,6-3.3,7.5c-2.4,2.5-5.3,3.8-8.8,3.8c-2.8,0-5.3-0.8-7.4-2.3
								c-2.8-2-4.9-5-6.5-8.8c-1.6-3.9-2.4-9.4-2.5-16.5c2.1,3.2,4.7,5.6,7.8,7.2s6.3,2.3,9.6,2.3c5.9,0,10.8-2.2,15-6.5
								c4.1-4.3,6.2-9.9,6.2-16.7c0-4.5-1-8.7-2.9-12.5s-4.6-6.8-8-8.9c-3.4-2.1-7.2-3.1-11.5-3.1c-7.3,0-13.3,2.7-17.9,8.1
								c-4.6,5.4-6.9,14.3-6.9,26.6c0,13.8,2.6,23.9,7.7,30.2c4.5,5.5,10.5,8.2,18,8.2c5.6,0,10.2-1.6,13.8-4.7
								C130.3,64,132.4,59.6,133.1,54z M97.3,23.2c0-3,0.6-5.9,1.9-8.7c1.3-2.8,3.1-4.9,5.4-6.3c2.3-1.4,4.7-2.2,7.3-2.2
								c3.7,0,6.9,1.5,9.6,4.5c2.7,3,4,7.1,4,12.2c0,4.9-1.3,8.8-4,11.7c-2.6,2.9-6,4.3-10,4.3c-4,0-7.3-1.4-10.1-4.3
								C98.7,31.5,97.3,27.8,97.3,23.2z"/>
						</g>
					</g>
				</g>
			</g>
			<g id="ytick_4">
				<g id="line2d_7">
					<g>
						<g>
							<path id="m1e4f1a08a9_00000134957684312715659810000008259065012313374861_" class="st1" d="M57.6,124.5h-3.5"/>
						</g>
					</g>
				</g>
				<g id="text_7">
					<g transform="translate(42.26 126.619744)scale(0.06 -0.06)">
						<g>
							<path id="ArialMT-30_00000023962340192634858790000009166644888862737795_" d="M4.2,35.3c0,8.5,0.9,15.3,2.6,20.4
								c1.7,5.2,4.3,9.1,7.7,11.9c3.4,2.8,7.8,4.2,13,4.2c3.8,0,7.2-0.8,10.1-2.3c2.9-1.5,5.3-3.8,7.2-6.7c1.9-2.9,3.4-6.5,4.5-10.6
								c1.1-4.2,1.6-9.8,1.6-16.9c0-8.4-0.9-15.2-2.6-20.3c-1.7-5.2-4.3-9.1-7.7-12c-3.4-2.8-7.8-4.2-13-4.2
								c-6.9,0-12.3,2.5-16.2,7.4C6.5,12.2,4.2,21.9,4.2,35.3z M13.2,35.3c0-11.8,1.4-19.6,4.1-23.5C20.1,7.9,23.5,6,27.5,6
								c4,0,7.4,2,10.2,5.9s4.1,11.7,4.1,23.4c0,11.8-1.4,19.6-4.1,23.5c-2.8,3.9-6.2,5.8-10.3,5.8c-4,0-7.3-1.7-9.7-5.1
								C14.7,55.1,13.2,47.1,13.2,35.3z"/>
						</g>
						<g>
							<path id="ArialMT-2e_00000179604680943452570590000005051640386853011351_" d="M64.7,0v10h10V0H64.7z"/>
						</g>
						<g>
							<path id="ArialMT-37" d="M88.1,62.2v8.5h46.3v-6.8c-4.6-4.8-9.1-11.3-13.6-19.3c-4.5-8-7.9-16.3-10.4-24.8
								c-1.8-6-2.9-12.5-3.4-19.7h-9c0.1,5.6,1.2,12.4,3.3,20.4c2.1,8,5.2,15.7,9.1,23.1c4,7.4,8.2,13.6,12.6,18.7H88.1z"/>
						</g>
					</g>
				</g>
			</g>
			<g id="ytick_5">
				<g id="line2d_8">
					<g>
						<g>
							<path id="m1e4f1a08a9_00000152250156773705684130000012942549830952793221_" class="st1" d="M57.6,92.8h-3.5"/>
						</g>
					</g>
				</g>
				<g id="text_8">
					<g transform="translate(42.26 94.988144)scale(0.06 -0.06)">
						<g>
							<path id="ArialMT-30_00000098902907324672140070000010260312116007951284_" d="M4.2,35.3c0,8.5,0.9,15.3,2.6,20.4
								c1.7,5.2,4.3,9.1,7.7,11.9c3.4,2.8,7.8,4.2,13,4.2c3.8,0,7.2-0.8,10.1-2.3c2.9-1.5,5.3-3.8,7.2-6.7c1.9-2.9,3.4-6.5,4.5-10.6
								c1.1-4.2,1.6-9.8,1.6-16.9c0-8.4-0.9-15.2-2.6-20.3c-1.7-5.2-4.3-9.1-7.7-12c-3.4-2.8-7.8-4.2-13-4.2
								c-6.9,0-12.3,2.5-16.2,7.4C6.5,12.2,4.2,21.9,4.2,35.3z M13.2,35.3c0-11.7,1.4-19.6,4.1-23.5C20.1,7.9,23.5,6,27.5,6
								c4,0,7.4,2,10.2,5.9s4.1,11.7,4.1,23.4c0,11.8-1.4,19.6-4.1,23.5c-2.8,3.9-6.2,5.8-10.3,5.8c-4,0-7.3-1.7-9.7-5.1
								C14.7,55.1,13.2,47.1,13.2,35.3z"/>
						</g>
						<g>
							<path id="ArialMT-2e_00000183235126755134763030000003861755566303344525_" d="M64.7,0v10h10V0H64.7z"/>
						</g>
						<g>
							<path id="ArialMT-38" d="M101.1,38.8c-3.6,1.3-6.3,3.2-8.1,5.7c-1.8,2.5-2.6,5.4-2.6,8.9c0,5.2,1.9,9.6,5.6,13.1
								c3.8,3.6,8.7,5.3,14.9,5.3c6.2,0,11.3-1.8,15.1-5.5c3.8-3.6,5.7-8,5.7-13.3c0-3.3-0.9-6.2-2.6-8.7c-1.7-2.4-4.4-4.3-7.9-5.7
								c4.4-1.4,7.7-3.7,10-6.9c2.3-3.2,3.4-7,3.4-11.4c0-6.1-2.2-11.3-6.5-15.4c-4.3-4.2-10-6.2-17.1-6.2S98.3,0.9,93.9,5
								c-4.3,4.2-6.5,9.4-6.5,15.7c0,4.7,1.2,8.6,3.5,11.7C93.4,35.5,96.7,37.7,101.1,38.8z M99.3,53.7c0-3.4,1.1-6.2,3.3-8.3
								c2.2-2.1,5-3.2,8.5-3.2c3.4,0,6.2,1.1,8.3,3.2c2.2,2.1,3.2,4.8,3.2,7.8c0,3.2-1.1,5.9-3.4,8.1c-2.2,2.2-5,3.3-8.3,3.3
								c-3.4,0-6.1-1.1-8.4-3.2C100.4,59.3,99.3,56.7,99.3,53.7z M96.5,20.7c0-2.5,0.6-4.9,1.8-7.3s3-4.2,5.3-5.5
								c2.3-1.3,4.9-1.9,7.6-1.9c4.2,0,7.7,1.3,10.4,4c2.7,2.7,4.1,6.1,4.1,10.3c0,4.2-1.4,7.7-4.2,10.5c-2.8,2.8-6.3,4.2-10.6,4.2
								c-4.1,0-7.6-1.4-10.3-4.1C97.8,28.2,96.5,24.8,96.5,20.7z"/>
						</g>
					</g>
				</g>
			</g>
			<g id="ytick_6">
				<g id="line2d_9">
					<g>
						<g>
							<path id="m1e4f1a08a9_00000075124382311035322770000016565844530167644825_" class="st1" d="M57.6,61.2h-3.5"/>
						</g>
					</g>
				</g>
				<g id="text_9">
					<g transform="translate(42.26 63.356544)scale(0.06 -0.06)">
						<g>
							<path id="ArialMT-30_00000069378994050193257410000004068890761561299358_" d="M4.2,35.3c0,8.5,0.9,15.3,2.6,20.4
								c1.7,5.2,4.3,9.1,7.7,11.9c3.4,2.8,7.8,4.2,13,4.2c3.8,0,7.2-0.8,10.1-2.3c2.9-1.5,5.3-3.8,7.2-6.7c1.9-2.9,3.4-6.5,4.5-10.6
								c1.1-4.2,1.6-9.8,1.6-16.9c0-8.4-0.9-15.2-2.6-20.3c-1.7-5.2-4.3-9.1-7.7-12c-3.4-2.8-7.8-4.2-13-4.2
								c-6.9,0-12.3,2.5-16.2,7.4C6.5,12.2,4.2,21.9,4.2,35.3z M13.2,35.3c0-11.8,1.4-19.6,4.1-23.5C20.1,7.9,23.5,6,27.5,6
								c4,0,7.4,2,10.2,5.9s4.1,11.7,4.1,23.4c0,11.8-1.4,19.6-4.1,23.5c-2.8,3.9-6.2,5.8-10.3,5.8c-4,0-7.3-1.7-9.7-5.1
								C14.7,55.1,13.2,47.1,13.2,35.3z"/>
						</g>
						<g>
							<path id="ArialMT-2e_00000178894910469945542200000010051323461192429184_" d="M64.7,0v10h10V0H64.7z"/>
						</g>
						<g>
							<path id="ArialMT-39" d="M88.9,16.5l8.5,0.8c0.7-4,2.1-6.8,4.1-8.6c2-1.8,4.6-2.7,7.8-2.7c2.7,0,5.1,0.6,7.1,1.9
								c2,1.2,3.7,2.9,5,5c1.3,2.1,2.4,4.9,3.3,8.4c0.9,3.5,1.3,7.1,1.3,10.8c0,0.4,0,1,0,1.8c-1.8-2.8-4.2-5.1-7.2-6.8
								c-3-1.7-6.3-2.6-9.9-2.6c-5.9,0-10.9,2.1-15,6.4c-4.1,4.3-6.1,10-6.1,17c0,7.3,2.1,13.1,6.4,17.5c4.3,4.4,9.6,6.6,16.1,6.6
								c4.7,0,8.9-1.3,12.8-3.8c3.9-2.5,6.8-6.1,8.8-10.7c2-4.6,3-11.3,3-20.1c0-9.1-1-16.4-3-21.8c-2-5.4-4.9-9.5-8.9-12.4
								c-3.9-2.8-8.5-4.2-13.8-4.2c-5.6,0-10.2,1.6-13.7,4.7C91.7,6.6,89.6,10.9,88.9,16.5z M124.9,48.1c0,5.1-1.3,9.1-4,12
								c-2.7,3-5.9,4.4-9.7,4.4c-3.9,0-7.3-1.6-10.2-4.8c-2.9-3.2-4.3-7.3-4.3-12.4c0-4.6,1.4-8.3,4.1-11.1
								c2.8-2.8,6.1-4.3,10.2-4.3c4.1,0,7.4,1.4,10,4.3C123.5,39.2,124.9,43.1,124.9,48.1z"/>
						</g>
					</g>
				</g>
			</g>
			<g id="ytick_7">
				<g id="line2d_10">
					<g>
						<g>
							<path id="m1e4f1a08a9_00000035508778319507141230000003329220818658178950_" class="st1" d="M57.6,29.6h-3.5"/>
						</g>
					</g>
				</g>
				<g id="text_10">
					<g transform="translate(42.26 31.724944)scale(0.06 -0.06)">
						<g>
							<path id="ArialMT-31" d="M37.3,0h-8.8v56c-2.1-2-4.9-4-8.3-6s-6.5-3.5-9.3-4.5v8.5c4.9,2.3,9.2,5.1,12.9,8.4
								c3.7,3.3,6.3,6.5,7.8,9.6h5.7V0z"/>
						</g>
						<g>
							<path id="ArialMT-2e_00000180343393129942091320000015997982942370118804_" d="M64.7,0v10h10V0H64.7z"/>
						</g>
						<g>
							<path id="ArialMT-30_00000088828873213915267430000018043119305002763702_" d="M87.6,35.3c0,8.5,0.9,15.3,2.6,20.4
								c1.7,5.2,4.3,9.1,7.8,11.9c3.4,2.8,7.8,4.2,13,4.2c3.8,0,7.2-0.8,10.1-2.3c2.9-1.5,5.3-3.8,7.2-6.7c1.9-2.9,3.4-6.5,4.5-10.6
								c1.1-4.2,1.6-9.8,1.6-16.9c0-8.4-0.9-15.2-2.6-20.3c-1.7-5.2-4.3-9.1-7.7-12c-3.4-2.8-7.8-4.2-13-4.2
								c-6.9,0-12.3,2.5-16.2,7.4C89.9,12.2,87.6,21.9,87.6,35.3z M96.6,35.3c0-11.7,1.4-19.6,4.1-23.5c2.8-3.9,6.1-5.8,10.2-5.8
								c4,0,7.4,2,10.2,5.9s4.1,11.7,4.1,23.4c0,11.8-1.4,19.6-4.1,23.5c-2.8,3.9-6.2,5.8-10.3,5.8c-4,0-7.3-1.7-9.7-5.1
								C98.1,55.1,96.6,47.1,96.6,35.3z"/>
						</g>
					</g>
				</g>
			</g>
			<g id="text_11">
				<g transform="translate(37.0675 158.150213)rotate(-90)scale(0.06 -0.06)">
					<g>
						<path id="ArialMT-4e" d="M7.6,0v71.6h9.7l37.6-56.2v56.2H64V0h-9.7L16.7,56.2V0H7.6z"/>
					</g>
					<g>
						<path id="ArialMT-6f" d="M75.5,25.9c0,9.6,2.7,16.7,8,21.3C88,51.1,93.4,53,99.9,53c7.1,0,12.9-2.3,17.5-7
							c4.5-4.7,6.8-11.1,6.8-19.4c0-6.7-1-11.9-3-15.7c-2-3.8-4.9-6.8-8.8-8.9c-3.8-2.1-8-3.2-12.5-3.2c-7.3,0-13.1,2.3-17.6,7
							C77.8,10.5,75.5,17.2,75.5,25.9z M84.6,25.9c0-6.6,1.4-11.6,4.3-14.9c2.9-3.3,6.5-5,10.9-5c4.4,0,8,1.7,10.9,5
							c2.9,3.3,4.3,8.4,4.3,15.2c0,6.4-1.5,11.3-4.4,14.6c-2.9,3.3-6.5,5-10.9,5c-4.4,0-8-1.6-10.9-4.9C86,37.5,84.6,32.6,84.6,25.9
							z"/>
					</g>
					<g>
						<path id="ArialMT-72" d="M134.3,0v51.9h7.9V44c2,3.7,3.9,6.1,5.6,7.3c1.7,1.2,3.6,1.8,5.6,1.8c3,0,6-0.9,9-2.8l-3-8.2
							c-2.1,1.3-4.3,1.9-6.4,1.9c-1.9,0-3.7-0.6-5.2-1.7s-2.6-2.8-3.3-4.8c-1-3.1-1.5-6.5-1.5-10.2V0H134.3z"/>
					</g>
					<g>
						<path id="ArialMT-6d" d="M167.7,0v51.9h7.9v-7.3c1.6,2.5,3.8,4.6,6.5,6.1c2.7,1.6,5.8,2.3,9.2,2.3c3.8,0,7-0.8,9.5-2.4
							c2.5-1.6,4.2-3.8,5.2-6.7c4.1,6.1,9.4,9.1,16,9.1c5.1,0,9.1-1.4,11.9-4.3c2.8-2.8,4.2-7.2,4.2-13.2V0h-8.8v32.7
							c0,3.5-0.3,6-0.9,7.6c-0.6,1.6-1.6,2.8-3.1,3.7c-1.5,0.9-3.2,1.4-5.3,1.4c-3.6,0-6.7-1.2-9.1-3.6c-2.4-2.4-3.6-6.3-3.6-11.6V0
							h-8.8v33.7c0,3.9-0.7,6.8-2.2,8.8c-1.4,2-3.8,2.9-7,2.9c-2.5,0-4.8-0.7-6.9-2c-2.1-1.3-3.6-3.2-4.6-5.7
							c-0.9-2.5-1.4-6.1-1.4-10.8V0H167.7z"/>
					</g>
					<g>
						<path id="ArialMT-2e_00000107574742203199146910000015359533589169183106_" d="M253.5,0v10h10V0H253.5z"/>
					</g>
					<g>
						<path id="ArialMT-20" d="M272.2,0"/>
					</g>
					<g>
						<path id="ArialMT-53" d="M304.5,23l8.9,0.8c0.4-3.6,1.4-6.5,3-8.8c1.6-2.3,4-4.1,7.2-5.6c3.3-1.4,6.9-2.1,11-2.1
							c3.6,0,6.8,0.5,9.6,1.6c2.8,1.1,4.8,2.5,6.2,4.4c1.4,1.9,2,3.9,2,6.1c0,2.2-0.7,4.2-2,5.9c-1.3,1.7-3.4,3.1-6.4,4.2
							c-1.9,0.8-6.2,1.9-12.8,3.5c-6.6,1.6-11.2,3.1-13.8,4.5c-3.4,1.8-6,4-7.7,6.7c-1.7,2.7-2.5,5.6-2.5,8.9c0,3.6,1,7,3.1,10.1
							c2.1,3.1,5,5.5,9,7.2c3.9,1.6,8.3,2.4,13.1,2.4c5.3,0,10-0.9,14-2.6c4.1-1.7,7.2-4.2,9.4-7.5c2.2-3.3,3.3-7.1,3.5-11.3
							l-9.1-0.7c-0.5,4.5-2.1,7.9-5,10.2c-2.8,2.3-7,3.5-12.5,3.5c-5.7,0-9.9-1.1-12.5-3.2c-2.6-2.1-3.9-4.6-3.9-7.6
							c0-2.6,0.9-4.7,2.8-6.4c1.8-1.7,6.6-3.4,14.3-5.1c7.7-1.7,13-3.3,15.8-4.6c4.2-1.9,7.2-4.4,9.2-7.3c2-2.9,3-6.3,3-10.2
							c0-3.8-1.1-7.4-3.3-10.8c-2.2-3.4-5.3-6-9.4-7.9c-4.1-1.9-8.7-2.8-13.8-2.8c-6.5,0-11.9,0.9-16.3,2.8
							c-4.4,1.9-7.8,4.7-10.3,8.5C305.9,13.9,304.6,18.2,304.5,23z"/>
					</g>
					<g>
						<path id="ArialMT-70" d="M373.3-19.9v71.7h8v-6.7c1.9,2.6,4,4.6,6.4,5.9c2.4,1.3,5.3,2,8.6,2c4.4,0,8.3-1.1,11.7-3.4
							c3.4-2.3,5.9-5.5,7.7-9.7c1.7-4.1,2.6-8.7,2.6-13.6c0-5.3-1-10.1-2.9-14.3c-1.9-4.3-4.7-7.5-8.3-9.8
							c-3.6-2.3-7.4-3.4-11.5-3.4c-2.9,0-5.6,0.6-7.9,1.9c-2.3,1.2-4.2,2.8-5.7,4.7v-25.2H373.3z M381.2,25.6c0-6.7,1.3-11.6,4-14.8
							c2.7-3.2,6-4.8,9.8-4.8c3.9,0,7.2,1.7,10,5s4.2,8.4,4.2,15.4c0,6.6-1.4,11.5-4.1,14.8c-2.7,3.3-6,4.9-9.7,4.9
							c-3.8,0-7.1-1.8-10-5.2C382.7,37.4,381.2,32.3,381.2,25.6z"/>
					</g>
					<g>
						<path id="ArialMT-61_00000140719246318407861940000014153983744361464452_" d="M462.8,6.4c-3.3-2.8-6.4-4.7-9.4-5.9
							c-3-1.1-6.2-1.7-9.7-1.7c-5.7,0-10.1,1.4-13.1,4.2s-4.6,6.3-4.6,10.7c0,2.5,0.6,4.9,1.7,7c1.2,2.1,2.7,3.8,4.5,5.1
							s4,2.2,6.3,2.9c1.7,0.5,4.3,0.9,7.8,1.3c7.1,0.8,12.3,1.8,15.7,3c0,1.2,0,2,0,2.3c0,3.6-0.8,6.1-2.5,7.6c-2.2,2-5.6,3-10,3
							c-4.1,0-7.2-0.7-9.2-2.2s-3.4-4-4.4-7.7l-8.6,1.2c0.8,3.7,2.1,6.6,3.9,8.9c1.8,2.3,4.4,4,7.8,5.2c3.4,1.2,7.3,1.8,11.8,1.8
							c4.4,0,8-0.5,10.8-1.6c2.8-1,4.8-2.4,6.1-3.9c1.3-1.6,2.2-3.6,2.7-6c0.3-1.5,0.4-4.2,0.4-8.1V21.7c0-8.2,0.2-13.3,0.6-15.5
							c0.4-2.2,1.1-4.2,2.2-6.2h-9.2C463.6,1.8,463,4,462.8,6.4z M462,26c-3.2-1.3-8-2.4-14.4-3.3c-3.6-0.5-6.2-1.1-7.7-1.8
							c-1.5-0.6-2.6-1.6-3.5-2.8c-0.8-1.2-1.2-2.6-1.2-4.2c0-2.3,0.9-4.3,2.7-5.9c1.8-1.6,4.4-2.3,7.8-2.3c3.4,0,6.4,0.7,9,2.2
							c2.6,1.5,4.6,3.5,5.8,6.1c0.9,2,1.4,4.9,1.4,8.8V26z"/>
					</g>
					<g>
						<path id="ArialMT-74_00000044160905040013740710000008256084188583176095_" d="M503.7,7.9l1.3-7.8c-2.5-0.5-4.7-0.8-6.6-0.8
							c-3.2,0-5.7,0.5-7.4,1.5c-1.8,1-3,2.3-3.7,4s-1.1,5.1-1.1,10.4V45h-6.4v6.8h6.4v12.8l8.7,5.3V51.9h8.8V45h-8.8V14.7
							c0-2.5,0.2-4.1,0.5-4.8c0.3-0.7,0.8-1.3,1.5-1.7c0.7-0.4,1.7-0.6,3-0.6C500.8,7.5,502.1,7.6,503.7,7.9z"/>
					</g>
					<g>
						<path id="ArialMT-69" d="M512.4,61.5v10.1h8.8V61.5H512.4z M512.4,0v51.9h8.8V0H512.4z"/>
					</g>
					<g>
						<path id="ArialMT-61_00000137847208650652425550000001733261268066934679_" d="M568.4,6.4c-3.3-2.8-6.4-4.7-9.4-5.9
							c-3-1.1-6.2-1.7-9.7-1.7c-5.7,0-10.1,1.4-13.1,4.2s-4.6,6.3-4.6,10.7c0,2.5,0.6,4.9,1.7,7c1.2,2.1,2.7,3.8,4.5,5.1
							s4,2.2,6.3,2.9c1.7,0.5,4.3,0.9,7.8,1.3c7.1,0.8,12.3,1.8,15.7,3c0,1.2,0,2,0,2.3c0,3.6-0.8,6.1-2.5,7.6c-2.2,2-5.6,3-10,3
							c-4.1,0-7.2-0.7-9.2-2.2s-3.4-4-4.4-7.7l-8.6,1.2c0.8,3.7,2.1,6.6,3.9,8.9c1.8,2.3,4.4,4,7.8,5.2c3.4,1.2,7.3,1.8,11.8,1.8
							c4.4,0,8-0.5,10.8-1.6c2.8-1,4.8-2.4,6.1-3.9c1.3-1.6,2.2-3.6,2.7-6c0.3-1.5,0.4-4.2,0.4-8.1V21.7c0-8.2,0.2-13.3,0.6-15.5
							c0.4-2.2,1.1-4.2,2.2-6.2h-9.2C569.2,1.8,568.6,4,568.4,6.4z M567.6,26c-3.2-1.3-8-2.4-14.4-3.3c-3.6-0.5-6.2-1.1-7.7-1.8
							c-1.5-0.6-2.6-1.6-3.5-2.8c-0.8-1.2-1.2-2.6-1.2-4.2c0-2.3,0.9-4.3,2.7-5.9c1.8-1.6,4.4-2.3,7.8-2.3c3.4,0,6.4,0.7,9,2.2
							c2.6,1.5,4.6,3.5,5.8,6.1c0.9,2,1.4,4.9,1.4,8.8V26z"/>
					</g>
					<g>
						<path id="ArialMT-6c_00000047038470494585220470000016268263763132034205_" d="M589.9,0v71.6h8.8V0H589.9z"/>
					</g>
					<g>
						<path id="ArialMT-20_00000080924964392857517650000000389582587399051421_" d="M605.8,0"/>
					</g>
					<g>
						<path id="ArialMT-43" d="M692.3,25.1l9.5-2.4c-2-7.8-5.6-13.7-10.7-17.8s-11.5-6.1-18.9-6.1c-7.7,0-14,1.6-18.8,4.7
							c-4.8,3.1-8.5,7.7-11,13.7c-2.5,6-3.8,12.4-3.8,19.2c0,7.5,1.4,14,4.3,19.5c2.9,5.6,6.9,9.8,12.2,12.6
							c5.3,2.9,11,4.3,17.4,4.3c7.2,0,13.2-1.8,18.1-5.5c4.9-3.6,8.3-8.8,10.2-15.4l-9.3-2.2c-1.7,5.2-4.1,9-7.2,11.4
							c-3.2,2.4-7.1,3.6-11.9,3.6c-5.5,0-10.1-1.3-13.8-4c-3.7-2.6-6.3-6.2-7.8-10.6c-1.5-4.4-2.2-9-2.2-13.7
							c0-6.1,0.9-11.4,2.7-15.9c1.8-4.5,4.5-7.9,8.3-10.2C663,8,667,6.9,671.4,6.9c5.3,0,9.8,1.5,13.5,4.6
							C688.5,14.5,691,19.1,692.3,25.1z"/>
					</g>
					<g>
						<path id="ArialMT-6f_00000114759273549279850940000001190332893024398738_" d="M709.1,25.9c0,9.6,2.7,16.7,8,21.3
							c4.5,3.8,9.9,5.8,16.3,5.8c7.1,0,12.9-2.3,17.5-7c4.5-4.7,6.8-11.1,6.8-19.4c0-6.7-1-11.9-3-15.7c-2-3.8-4.9-6.8-8.8-8.9
							c-3.8-2.1-8-3.2-12.5-3.2c-7.3,0-13.1,2.3-17.6,7C711.3,10.5,709.1,17.2,709.1,25.9z M718.1,25.9c0-6.6,1.4-11.6,4.3-14.9
							c2.9-3.3,6.5-5,10.9-5c4.4,0,8,1.7,10.9,5c2.9,3.3,4.3,8.4,4.3,15.2c0,6.4-1.5,11.3-4.4,14.6c-2.9,3.3-6.5,5-10.9,5
							c-4.4,0-8-1.6-10.9-4.9C719.6,37.5,718.1,32.6,718.1,25.9z"/>
					</g>
					<g>
						<path id="ArialMT-72_00000101810989330627032040000017108663622178300549_" d="M767.9,0v51.9h7.9V44c2,3.7,3.9,6.1,5.6,7.3
							c1.7,1.2,3.6,1.8,5.6,1.8c3,0,6-0.9,9-2.8l-3-8.2c-2.1,1.3-4.3,1.9-6.4,1.9c-1.9,0-3.7-0.6-5.2-1.7s-2.6-2.8-3.3-4.8
							c-1-3.1-1.5-6.5-1.5-10.2V0H767.9z"/>
					</g>
					<g>
						<path id="ArialMT-72_00000069384582332660775350000008514847398671817879_" d="M801.2,0v51.9h7.9V44c2,3.7,3.9,6.1,5.6,7.3
							c1.7,1.2,3.6,1.8,5.6,1.8c3,0,6-0.9,9-2.8l-3-8.2c-2.1,1.3-4.3,1.9-6.4,1.9c-1.9,0-3.7-0.6-5.2-1.7s-2.6-2.8-3.3-4.8
							c-1-3.1-1.5-6.5-1.5-10.2V0H801.2z"/>
					</g>
					<g>
						<path id="ArialMT-65_00000132790498625217946690000015990303363705343631_" d="M870.1,16.7l9.1-1.1c-1.4-5.3-4.1-9.4-8-12.4
							c-3.9-2.9-8.8-4.4-14.8-4.4c-7.6,0-13.6,2.3-18,7c-4.4,4.7-6.7,11.2-6.7,19.7c0,8.7,2.2,15.5,6.7,20.3
							c4.5,4.8,10.3,7.2,17.5,7.2c6.9,0,12.6-2.4,17-7.1c4.4-4.7,6.6-11.4,6.6-19.9c0-0.5,0-1.3,0-2.3h-38.7
							c0.3-5.7,1.9-10.1,4.8-13.1c2.9-3,6.5-4.5,10.8-4.5c3.2,0,6,0.8,8.2,2.5C866.9,10.3,868.7,13,870.1,16.7z M841.2,30.9h29
							c-0.4,4.4-1.5,7.6-3.3,9.8c-2.8,3.4-6.4,5.1-10.9,5.1c-4,0-7.4-1.3-10.2-4S841.5,35.4,841.2,30.9z"/>
					</g>
					<g>
						<path id="ArialMT-6c_00000049223278368820383530000003587933937054268079_" d="M890,0v71.6h8.8V0H890z"/>
					</g>
					<g>
						<path id="ArialMT-61_00000136369800959573914700000017410573653655518137_" d="M946.2,6.4c-3.3-2.8-6.4-4.7-9.4-5.9
							c-3-1.1-6.2-1.7-9.7-1.7c-5.7,0-10.1,1.4-13.1,4.2s-4.6,6.3-4.6,10.7c0,2.5,0.6,4.9,1.7,7c1.2,2.1,2.7,3.8,4.5,5.1
							s4,2.2,6.3,2.9c1.7,0.5,4.3,0.9,7.8,1.3c7.1,0.8,12.3,1.8,15.7,3c0,1.2,0,2,0,2.3c0,3.6-0.8,6.1-2.5,7.6c-2.2,2-5.6,3-10,3
							c-4.1,0-7.2-0.7-9.2-2.2s-3.4-4-4.4-7.7l-8.6,1.2c0.8,3.7,2.1,6.6,3.9,8.9c1.8,2.3,4.4,4,7.8,5.2c3.4,1.2,7.3,1.8,11.8,1.8
							c4.4,0,8-0.5,10.8-1.6c2.8-1,4.8-2.4,6.1-3.9c1.3-1.6,2.2-3.6,2.7-6c0.3-1.5,0.4-4.2,0.4-8.1V21.7c0-8.2,0.2-13.3,0.6-15.5
							c0.4-2.2,1.1-4.2,2.2-6.2H948C947.1,1.8,946.5,4,946.2,6.4z M945.5,26c-3.2-1.3-8-2.4-14.4-3.3c-3.6-0.5-6.2-1.1-7.7-1.8
							c-1.5-0.6-2.6-1.6-3.5-2.8c-0.8-1.2-1.2-2.6-1.2-4.2c0-2.3,0.9-4.3,2.7-5.9c1.8-1.6,4.4-2.3,7.8-2.3c3.4,0,6.4,0.7,9,2.2
							c2.6,1.5,4.6,3.5,5.8,6.1c0.9,2,1.4,4.9,1.4,8.8V26z"/>
					</g>
					<g>
						<path id="ArialMT-74_00000045599603995149249720000017892212867396235138_" d="M987.2,7.9l1.3-7.8c-2.5-0.5-4.7-0.8-6.6-0.8
							c-3.2,0-5.7,0.5-7.4,1.5c-1.8,1-3,2.3-3.7,4s-1.1,5.1-1.1,10.4V45h-6.4v6.8h6.4v12.8l8.7,5.3V51.9h8.8V45h-8.8V14.7
							c0-2.5,0.2-4.1,0.5-4.8c0.3-0.7,0.8-1.3,1.5-1.7c0.7-0.4,1.7-0.6,3-0.6C984.3,7.5,985.6,7.6,987.2,7.9z"/>
					</g>
					<g>
						<path id="ArialMT-69_00000167373459802861516770000010246514924002488746_" d="M995.8,61.5v10.1h8.8V61.5H995.8z M995.8,0
							v51.9h8.8V0H995.8z"/>
					</g>
					<g>
						<path id="ArialMT-6f_00000011714284622922932720000011081703612978218423_" d="M1014.8,25.9c0,9.6,2.7,16.7,8,21.3
							c4.5,3.8,9.9,5.8,16.3,5.8c7.1,0,12.9-2.3,17.5-7c4.5-4.7,6.8-11.1,6.8-19.4c0-6.7-1-11.9-3-15.7c-2-3.8-4.9-6.8-8.8-8.9
							c-3.8-2.1-8-3.2-12.5-3.2c-7.3,0-13.1,2.3-17.6,7C1017,10.5,1014.8,17.2,1014.8,25.9z M1023.8,25.9c0-6.6,1.4-11.6,4.3-14.9
							c2.9-3.3,6.5-5,10.9-5c4.4,0,8,1.7,10.9,5c2.9,3.3,4.3,8.4,4.3,15.2c0,6.4-1.5,11.3-4.4,14.6c-2.9,3.3-6.5,5-10.9,5
							c-4.4,0-8-1.6-10.9-4.9C1025.2,37.5,1023.8,32.6,1023.8,25.9z"/>
					</g>
					<g>
						<path id="ArialMT-6e" d="M1073.6,0v51.9h7.9v-7.4c3.8,5.7,9.3,8.5,16.5,8.5c3.1,0,6-0.6,8.6-1.7s4.6-2.6,5.9-4.4
							c1.3-1.8,2.2-4,2.7-6.5c0.3-1.6,0.5-4.5,0.5-8.5V0h-8.8v31.5c0,3.6-0.3,6.3-1,8c-0.7,1.8-1.9,3.2-3.6,4.2
							c-1.7,1.1-3.8,1.6-6.1,1.6c-3.8,0-7-1.2-9.7-3.6s-4.1-6.9-4.1-13.5V0H1073.6z"/>
					</g>
				</g>
			</g>
		</g>
		<g id="line2d_11">
			<g>
				<defs>
					<rect id="SVGID_1_" x="57.6" y="29.6" width="357.1" height="189.8"/>
				</defs>
				<clipPath id="SVGID_00000145777902151818614840000006250418375849897376_">
					<use xlink:href="#SVGID_1_"  style="overflow:visible;"/>
				</clipPath>
				
					<path style="clip-path:url(#SVGID_00000145777902151818614840000006250418375849897376_);fill:none;stroke:#000000;stroke-linecap:square;stroke-linejoin:round;" d="
					M99.3,97.7H135V57.8H99.3V97.7"/>
			</g>
		</g>
		<g id="line2d_12">
			<g>
				<defs>
					<rect id="SVGID_00000050624606389368366090000004975787366865258636_" x="57.6" y="29.6" width="357.1" height="189.8"/>
				</defs>
				<clipPath id="SVGID_00000163032605682632133310000006388725949259614641_">
					<use xlink:href="#SVGID_00000050624606389368366090000004975787366865258636_"  style="overflow:visible;"/>
				</clipPath>
				
					<path style="clip-path:url(#SVGID_00000163032605682632133310000006388725949259614641_);fill:none;stroke:#000000;stroke-linecap:square;stroke-linejoin:round;" d="
					M117.1,97.7v8.7"/>
			</g>
		</g>
		<g id="line2d_13">
			<g>
				<defs>
					<rect id="SVGID_00000127010801875413768890000003973665880189266581_" x="57.6" y="29.6" width="357.1" height="189.8"/>
				</defs>
				<clipPath id="SVGID_00000041989247718476614100000018005306690446997687_">
					<use xlink:href="#SVGID_00000127010801875413768890000003973665880189266581_"  style="overflow:visible;"/>
				</clipPath>
				
					<path style="clip-path:url(#SVGID_00000041989247718476614100000018005306690446997687_);fill:none;stroke:#000000;stroke-linecap:square;stroke-linejoin:round;" d="
					M117.1,57.8V35.9"/>
			</g>
		</g>
		<g id="line2d_14">
			<g>
				<defs>
					<rect id="SVGID_00000172422728534007936040000009063449637992320916_" x="57.6" y="29.6" width="357.1" height="189.8"/>
				</defs>
				<clipPath id="SVGID_00000128473622449622078360000015505726700851342505_">
					<use xlink:href="#SVGID_00000172422728534007936040000009063449637992320916_"  style="overflow:visible;"/>
				</clipPath>
				
					<path style="clip-path:url(#SVGID_00000128473622449622078360000015505726700851342505_);fill:none;stroke:#000000;stroke-linecap:square;stroke-linejoin:round;" d="
					M108.2,106.4H126"/>
			</g>
		</g>
		<g id="line2d_15">
			<g>
				<defs>
					<rect id="SVGID_00000083784699152226058470000000144157683463897532_" x="57.6" y="29.6" width="357.1" height="189.8"/>
				</defs>
				<clipPath id="SVGID_00000110433010287609128900000010158140468881321110_">
					<use xlink:href="#SVGID_00000083784699152226058470000000144157683463897532_"  style="overflow:visible;"/>
				</clipPath>
				
					<path style="clip-path:url(#SVGID_00000110433010287609128900000010158140468881321110_);fill:none;stroke:#000000;stroke-linecap:square;stroke-linejoin:round;" d="
					M108.2,35.9H126"/>
			</g>
		</g>
		<g id="line2d_16">
			<g>
				<defs>
					<rect id="SVGID_00000128448736913893759160000011150226206447644837_" x="57.6" y="29.6" width="357.1" height="189.8"/>
				</defs>
				<clipPath id="SVGID_00000034783344835446161460000016640811195072823691_">
					<use xlink:href="#SVGID_00000128448736913893759160000011150226206447644837_"  style="overflow:visible;"/>
				</clipPath>
				
					<path style="clip-path:url(#SVGID_00000034783344835446161460000016640811195072823691_);fill:none;stroke:#000000;stroke-linecap:square;stroke-linejoin:round;" d="
					M218.3,80.2H254V58.8h-35.7V80.2"/>
			</g>
		</g>
		<g id="line2d_17">
			<g>
				<defs>
					<rect id="SVGID_00000142152556236460206600000017695815617719251855_" x="57.6" y="29.6" width="357.1" height="189.8"/>
				</defs>
				<clipPath id="SVGID_00000007393194972832456310000008441276733917321121_">
					<use xlink:href="#SVGID_00000142152556236460206600000017695815617719251855_"  style="overflow:visible;"/>
				</clipPath>
				
					<path style="clip-path:url(#SVGID_00000007393194972832456310000008441276733917321121_);fill:none;stroke:#000000;stroke-linecap:square;stroke-linejoin:round;" d="
					M236.2,80.2v6.6"/>
			</g>
		</g>
		<g id="line2d_18">
			<g>
				<defs>
					<rect id="SVGID_00000090276037962673202060000005937087446383763331_" x="57.6" y="29.6" width="357.1" height="189.8"/>
				</defs>
				<clipPath id="SVGID_00000130621160549126590950000007341918330975534504_">
					<use xlink:href="#SVGID_00000090276037962673202060000005937087446383763331_"  style="overflow:visible;"/>
				</clipPath>
				
					<path style="clip-path:url(#SVGID_00000130621160549126590950000007341918330975534504_);fill:none;stroke:#000000;stroke-linecap:square;stroke-linejoin:round;" d="
					M236.2,58.8V44.9"/>
			</g>
		</g>
		<g id="line2d_19">
			<g>
				<defs>
					<rect id="SVGID_00000107580926791461652300000012123767989680593545_" x="57.6" y="29.6" width="357.1" height="189.8"/>
				</defs>
				<clipPath id="SVGID_00000070080964638882303220000002534212922671103623_">
					<use xlink:href="#SVGID_00000107580926791461652300000012123767989680593545_"  style="overflow:visible;"/>
				</clipPath>
				
					<path style="clip-path:url(#SVGID_00000070080964638882303220000002534212922671103623_);fill:none;stroke:#000000;stroke-linecap:square;stroke-linejoin:round;" d="
					M227.2,86.8h17.9"/>
			</g>
		</g>
		<g id="line2d_20">
			<g>
				<defs>
					<rect id="SVGID_00000007400543564369351440000011791051130853584317_" x="57.6" y="29.6" width="357.1" height="189.8"/>
				</defs>
				<clipPath id="SVGID_00000060023867044071281770000004426909655316235679_">
					<use xlink:href="#SVGID_00000007400543564369351440000011791051130853584317_"  style="overflow:visible;"/>
				</clipPath>
				
					<path style="clip-path:url(#SVGID_00000060023867044071281770000004426909655316235679_);fill:none;stroke:#000000;stroke-linecap:square;stroke-linejoin:round;" d="
					M227.2,44.9h17.9"/>
			</g>
		</g>
		<g id="line2d_21">
			<g>
				<defs>
					<rect id="SVGID_00000083051336482841382930000011401914098383610772_" x="57.6" y="29.6" width="357.1" height="189.8"/>
				</defs>
				<clipPath id="SVGID_00000070113087133026985700000012795453489714861470_">
					<use xlink:href="#SVGID_00000083051336482841382930000011401914098383610772_"  style="overflow:visible;"/>
				</clipPath>
				
					<path style="clip-path:url(#SVGID_00000070113087133026985700000012795453489714861470_);fill:none;stroke:#000000;stroke-linecap:square;stroke-linejoin:round;" d="
					M337.3,50h35.7V35.6h-35.7V50"/>
			</g>
		</g>
		<g id="line2d_22">
			<g>
				<defs>
					<rect id="SVGID_00000027593678141127241310000001346421033665208198_" x="57.6" y="29.6" width="357.1" height="189.8"/>
				</defs>
				<clipPath id="SVGID_00000172411681624238527140000002895406580107741867_">
					<use xlink:href="#SVGID_00000027593678141127241310000001346421033665208198_"  style="overflow:visible;"/>
				</clipPath>
				
					<path style="clip-path:url(#SVGID_00000172411681624238527140000002895406580107741867_);fill:none;stroke:#000000;stroke-linecap:square;stroke-linejoin:round;" d="
					M355.2,50v10.4"/>
			</g>
		</g>
		<g id="line2d_23">
			<g>
				<defs>
					<rect id="SVGID_00000005227485105101883660000016826757283750898324_" x="57.6" y="29.6" width="357.1" height="189.8"/>
				</defs>
				<clipPath id="SVGID_00000028304166828868422570000012359848529044609666_">
					<use xlink:href="#SVGID_00000005227485105101883660000016826757283750898324_"  style="overflow:visible;"/>
				</clipPath>
				
					<path style="clip-path:url(#SVGID_00000028304166828868422570000012359848529044609666_);fill:none;stroke:#000000;stroke-linecap:square;stroke-linejoin:round;" d="
					M355.2,35.6V33"/>
			</g>
		</g>
		<g id="line2d_24">
			<g>
				<defs>
					<rect id="SVGID_00000095341154319088078530000016186301451579465901_" x="57.6" y="29.6" width="357.1" height="189.8"/>
				</defs>
				<clipPath id="SVGID_00000076582045976655673360000008288137073251139762_">
					<use xlink:href="#SVGID_00000095341154319088078530000016186301451579465901_"  style="overflow:visible;"/>
				</clipPath>
				
					<path style="clip-path:url(#SVGID_00000076582045976655673360000008288137073251139762_);fill:none;stroke:#000000;stroke-linecap:square;stroke-linejoin:round;" d="
					M346.3,60.4h17.9"/>
			</g>
		</g>
		<g id="line2d_25">
			<g>
				<defs>
					<rect id="SVGID_00000161631651967599754560000013953300137774450588_" x="57.6" y="29.6" width="357.1" height="189.8"/>
				</defs>
				<clipPath id="SVGID_00000137092682332805843030000000626656225343533457_">
					<use xlink:href="#SVGID_00000161631651967599754560000013953300137774450588_"  style="overflow:visible;"/>
				</clipPath>
				
					<path style="clip-path:url(#SVGID_00000137092682332805843030000000626656225343533457_);fill:none;stroke:#000000;stroke-linecap:square;stroke-linejoin:round;" d="
					M346.3,33h17.9"/>
			</g>
		</g>
		<g id="line2d_26">
			<g>
				<defs>
					<rect id="SVGID_00000036231792814680458810000004528234977861447825_" x="57.6" y="29.6" width="357.1" height="189.8"/>
				</defs>
				<clipPath id="SVGID_00000048477988336591960410000014819385873766857099_">
					<use xlink:href="#SVGID_00000036231792814680458810000004528234977861447825_"  style="overflow:visible;"/>
				</clipPath>
				
					<path style="clip-path:url(#SVGID_00000048477988336591960410000014819385873766857099_);fill:none;stroke:#FF7F0E;stroke-linecap:square;stroke-linejoin:round;" d="
					M99.3,70.7H135"/>
			</g>
		</g>
		<g id="line2d_27">
			<g>
				<defs>
					<rect id="SVGID_00000151522983681451187890000017466751357649807515_" x="57.6" y="29.6" width="357.1" height="189.8"/>
				</defs>
				<clipPath id="SVGID_00000145031808443518363090000015305938984053360824_">
					<use xlink:href="#SVGID_00000151522983681451187890000017466751357649807515_"  style="overflow:visible;"/>
				</clipPath>
				
					<path style="clip-path:url(#SVGID_00000145031808443518363090000015305938984053360824_);fill:none;stroke:#FF7F0E;stroke-linecap:square;stroke-linejoin:round;" d="
					M218.3,64.6H254"/>
			</g>
		</g>
		<g id="line2d_28">
			<g>
				<defs>
					<rect id="SVGID_00000074421607654375189940000008647198547001546889_" x="57.6" y="29.6" width="357.1" height="189.8"/>
				</defs>
				<clipPath id="SVGID_00000034055427647721151910000010334958139635570052_">
					<use xlink:href="#SVGID_00000074421607654375189940000008647198547001546889_"  style="overflow:visible;"/>
				</clipPath>
				
					<path style="clip-path:url(#SVGID_00000034055427647721151910000010334958139635570052_);fill:none;stroke:#FF7F0E;stroke-linecap:square;stroke-linejoin:round;" d="
					M337.3,46.2h35.7"/>
			</g>
		</g>
		<g id="patch_3">
			<path class="st20" d="M57.6,219.4V29.6"/>
		</g>
		<g id="patch_4">
			<path class="st20" d="M414.7,219.4V29.6"/>
		</g>
		<g id="patch_5">
			<path class="st20" d="M57.6,219.4h357.1"/>
		</g>
		<g id="patch_6">
			<path class="st20" d="M57.6,29.6h357.1"/>
		</g>
	</g>
</g>
</svg>
