<?xml version="1.0" encoding="utf-8" standalone="no"?>
<!DOCTYPE svg PUBLIC "-//W3C//DTD SVG 1.1//EN"
  "http://www.w3.org/Graphics/SVG/1.1/DTD/svg11.dtd">
<svg xmlns:xlink="http://www.w3.org/1999/xlink" width="125.04pt" height="133.68pt" viewBox="0 0 125.04 133.68" xmlns="http://www.w3.org/2000/svg" version="1.1">
 <metadata>
  <rdf:RDF xmlns:dc="http://purl.org/dc/elements/1.1/" xmlns:cc="http://creativecommons.org/ns#" xmlns:rdf="http://www.w3.org/1999/02/22-rdf-syntax-ns#">
   <cc:Work>
    <dc:type rdf:resource="http://purl.org/dc/dcmitype/StillImage"/>
    <dc:date>2022-11-21T11:35:44.489122</dc:date>
    <dc:format>image/svg+xml</dc:format>
    <dc:creator>
     <cc:Agent>
      <dc:title>Matplotlib v3.5.2, https://matplotlib.org/</dc:title>
     </cc:Agent>
    </dc:creator>
   </cc:Work>
  </rdf:RDF>
 </metadata>
 <defs>
  <style type="text/css">*{stroke-linejoin: round; stroke-linecap: butt}</style>
 </defs>
 <g id="figure_1">
  <g id="patch_1">
   <path d="M 0 133.68 
L 125.04 133.68 
L 125.04 0 
L 0 0 
z
" style="fill: #ffffff"/>
  </g>
  <g id="axes_1">
   <g id="patch_2">
    <path d="M 15.63 118.9752 
L 112.536 118.9752 
L 112.536 16.0416 
L 15.63 16.0416 
z
" style="fill: #ffffff"/>
   </g>
   <g id="PathCollection_1">
    <defs>
     <path id="m68fe188f1e" d="M 0 3 
C 0.795609 3 1.55874 2.683901 2.12132 2.12132 
C 2.683901 1.55874 3 0.795609 3 0 
C 3 -0.795609 2.683901 -1.55874 2.12132 -2.12132 
C 1.55874 -2.683901 0.795609 -3 0 -3 
C -0.795609 -3 -1.55874 -2.683901 -2.12132 -2.12132 
C -2.683901 -1.55874 -3 -0.795609 -3 0 
C -3 0.795609 -2.683901 1.55874 -2.12132 2.12132 
C -1.55874 2.683901 -0.795609 3 0 3 
z
" style="stroke: #1f77b4"/>
    </defs>
    <g clip-path="url(#p85250ef7af)">
     <use xlink:href="#m68fe188f1e" x="34.690982" y="114.064854" style="fill: #1f77b4; stroke: #1f77b4"/>
     <use xlink:href="#m68fe188f1e" x="29.189222" y="113.782215" style="fill: #1f77b4; stroke: #1f77b4"/>
     <use xlink:href="#m68fe188f1e" x="31.484117" y="113.844841" style="fill: #1f77b4; stroke: #1f77b4"/>
     <use xlink:href="#m68fe188f1e" x="26.519953" y="114.2964" style="fill: #1f77b4; stroke: #1f77b4"/>
     <use xlink:href="#m68fe188f1e" x="30.772189" y="113.918958" style="fill: #1f77b4; stroke: #1f77b4"/>
     <use xlink:href="#m68fe188f1e" x="37.74281" y="113.973056" style="fill: #1f77b4; stroke: #1f77b4"/>
    </g>
   </g>
   <g id="PathCollection_2">
    <defs>
     <path id="mc1983c6030" d="M 0 3 
C 0.795609 3 1.55874 2.683901 2.12132 2.12132 
C 2.683901 1.55874 3 0.795609 3 0 
C 3 -0.795609 2.683901 -1.55874 2.12132 -2.12132 
C 1.55874 -2.683901 0.795609 -3 0 -3 
C -0.795609 -3 -1.55874 -2.683901 -2.12132 -2.12132 
C -2.683901 -1.55874 -3 -0.795609 -3 0 
C -3 0.795609 -2.683901 1.55874 -2.12132 2.12132 
C -1.55874 2.683901 -0.795609 3 0 3 
z
" style="stroke: #ff7f0e"/>
    </defs>
    <g clip-path="url(#p85250ef7af)">
     <use xlink:href="#mc1983c6030" x="66.992982" y="68.71179" style="fill: #ff7f0e; stroke: #ff7f0e"/>
     <use xlink:href="#mc1983c6030" x="61.491222" y="99.827835" style="fill: #ff7f0e; stroke: #ff7f0e"/>
     <use xlink:href="#mc1983c6030" x="63.786117" y="109.689234" style="fill: #ff7f0e; stroke: #ff7f0e"/>
     <use xlink:href="#mc1983c6030" x="58.821953" y="84.610216" style="fill: #ff7f0e; stroke: #ff7f0e"/>
     <use xlink:href="#mc1983c6030" x="63.074189" y="112.930307" style="fill: #ff7f0e; stroke: #ff7f0e"/>
     <use xlink:href="#mc1983c6030" x="70.04481" y="112.748571" style="fill: #ff7f0e; stroke: #ff7f0e"/>
    </g>
   </g>
   <g id="PathCollection_3">
    <defs>
     <path id="m67287f39f9" d="M 0 3 
C 0.795609 3 1.55874 2.683901 2.12132 2.12132 
C 2.683901 1.55874 3 0.795609 3 0 
C 3 -0.795609 2.683901 -1.55874 2.12132 -2.12132 
C 1.55874 -2.683901 0.795609 -3 0 -3 
C -0.795609 -3 -1.55874 -2.683901 -2.12132 -2.12132 
C -2.683901 -1.55874 -3 -0.795609 -3 0 
C -3 0.795609 -2.683901 1.55874 -2.12132 2.12132 
C -1.55874 2.683901 -0.795609 3 0 3 
z
" style="stroke: #2ca02c"/>
    </defs>
    <g clip-path="url(#p85250ef7af)">
     <use xlink:href="#m67287f39f9" x="99.294982" y="101.052805" style="fill: #2ca02c; stroke: #2ca02c"/>
     <use xlink:href="#m67287f39f9" x="93.793222" y="79.476803" style="fill: #2ca02c; stroke: #2ca02c"/>
     <use xlink:href="#m67287f39f9" x="96.088117" y="20.7204" style="fill: #2ca02c; stroke: #2ca02c"/>
     <use xlink:href="#m67287f39f9" x="91.123953" y="44.796634" style="fill: #2ca02c; stroke: #2ca02c"/>
     <use xlink:href="#m67287f39f9" x="95.376189" y="62.136718" style="fill: #2ca02c; stroke: #2ca02c"/>
     <use xlink:href="#m67287f39f9" x="102.34681" y="62.136718" style="fill: #2ca02c; stroke: #2ca02c"/>
    </g>
   </g>
   <g id="matplotlib.axis_1">
    <g id="xtick_1">
     <g id="line2d_1">
      <defs>
       <path id="m68c2def01e" d="M 0 0 
L 0 3.5 
" style="stroke: #000000; stroke-width: 0.8"/>
      </defs>
      <g>
       <use xlink:href="#m68c2def01e" x="31.781" y="118.9752" style="stroke: #000000; stroke-width: 0.8"/>
      </g>
     </g>
    </g>
    <g id="xtick_2">
     <g id="line2d_2">
      <g>
       <use xlink:href="#m68c2def01e" x="64.083" y="118.9752" style="stroke: #000000; stroke-width: 0.8"/>
      </g>
     </g>
    </g>
    <g id="xtick_3">
     <g id="line2d_3">
      <g>
       <use xlink:href="#m68c2def01e" x="96.385" y="118.9752" style="stroke: #000000; stroke-width: 0.8"/>
      </g>
     </g>
    </g>
   </g>
   <g id="matplotlib.axis_2">
    <g id="ytick_1">
     <g id="line2d_4">
      <defs>
       <path id="m9d6e5b585d" d="M 0 0 
L -3.5 0 
" style="stroke: #000000; stroke-width: 0.8"/>
      </defs>
      <g>
       <use xlink:href="#m9d6e5b585d" x="15.63" y="114.500374" style="stroke: #000000; stroke-width: 0.8"/>
      </g>
     </g>
    </g>
    <g id="ytick_2">
     <g id="line2d_5">
      <g>
       <use xlink:href="#m9d6e5b585d" x="15.63" y="68.040243" style="stroke: #000000; stroke-width: 0.8"/>
      </g>
     </g>
    </g>
    <g id="ytick_3">
     <g id="line2d_6">
      <g>
       <use xlink:href="#m9d6e5b585d" x="15.63" y="21.580112" style="stroke: #000000; stroke-width: 0.8"/>
      </g>
     </g>
    </g>
   </g>
   <g id="line2d_7">
    <path d="M 26.9357 114.041904 
L 36.6263 114.041904 
L 36.6263 113.86337 
L 26.9357 113.86337 
L 26.9357 114.041904 
" clip-path="url(#p85250ef7af)" style="fill: none; stroke: #000000; stroke-linecap: square"/>
   </g>
   <g id="line2d_8">
    <path d="M 31.781 114.041904 
L 31.781 114.2964 
" clip-path="url(#p85250ef7af)" style="fill: none; stroke: #000000; stroke-linecap: square"/>
   </g>
   <g id="line2d_9">
    <path d="M 31.781 113.86337 
L 31.781 113.782215 
" clip-path="url(#p85250ef7af)" style="fill: none; stroke: #000000; stroke-linecap: square"/>
   </g>
   <g id="line2d_10">
    <path d="M 29.35835 114.2964 
L 34.20365 114.2964 
" clip-path="url(#p85250ef7af)" style="fill: none; stroke: #000000; stroke-linecap: square"/>
   </g>
   <g id="line2d_11">
    <path d="M 29.35835 113.782215 
L 34.20365 113.782215 
" clip-path="url(#p85250ef7af)" style="fill: none; stroke: #000000; stroke-linecap: square"/>
   </g>
   <g id="line2d_12">
    <path d="M 59.2377 111.983737 
L 68.9283 111.983737 
L 68.9283 88.414621 
L 59.2377 88.414621 
L 59.2377 111.983737 
" clip-path="url(#p85250ef7af)" style="fill: none; stroke: #000000; stroke-linecap: square"/>
   </g>
   <g id="line2d_13">
    <path d="M 64.083 111.983737 
L 64.083 112.930307 
" clip-path="url(#p85250ef7af)" style="fill: none; stroke: #000000; stroke-linecap: square"/>
   </g>
   <g id="line2d_14">
    <path d="M 64.083 88.414621 
L 64.083 68.71179 
" clip-path="url(#p85250ef7af)" style="fill: none; stroke: #000000; stroke-linecap: square"/>
   </g>
   <g id="line2d_15">
    <path d="M 61.66035 112.930307 
L 66.50565 112.930307 
" clip-path="url(#p85250ef7af)" style="fill: none; stroke: #000000; stroke-linecap: square"/>
   </g>
   <g id="line2d_16">
    <path d="M 61.66035 68.71179 
L 66.50565 68.71179 
" clip-path="url(#p85250ef7af)" style="fill: none; stroke: #000000; stroke-linecap: square"/>
   </g>
   <g id="line2d_17">
    <path d="M 91.5397 75.141782 
L 101.2303 75.141782 
L 101.2303 49.131655 
L 91.5397 49.131655 
L 91.5397 75.141782 
" clip-path="url(#p85250ef7af)" style="fill: none; stroke: #000000; stroke-linecap: square"/>
   </g>
   <g id="line2d_18">
    <path d="M 96.385 75.141782 
L 96.385 101.052805 
" clip-path="url(#p85250ef7af)" style="fill: none; stroke: #000000; stroke-linecap: square"/>
   </g>
   <g id="line2d_19">
    <path d="M 96.385 49.131655 
L 96.385 20.7204 
" clip-path="url(#p85250ef7af)" style="fill: none; stroke: #000000; stroke-linecap: square"/>
   </g>
   <g id="line2d_20">
    <path d="M 93.96235 101.052805 
L 98.80765 101.052805 
" clip-path="url(#p85250ef7af)" style="fill: none; stroke: #000000; stroke-linecap: square"/>
   </g>
   <g id="line2d_21">
    <path d="M 93.96235 20.7204 
L 98.80765 20.7204 
" clip-path="url(#p85250ef7af)" style="fill: none; stroke: #000000; stroke-linecap: square"/>
   </g>
   <g id="line2d_22">
    <path d="M 26.9357 113.946007 
L 36.6263 113.946007 
" clip-path="url(#p85250ef7af)" style="fill: none; stroke: #ff7f0e; stroke-linecap: square"/>
   </g>
   <g id="line2d_23">
    <path d="M 59.2377 104.758534 
L 68.9283 104.758534 
" clip-path="url(#p85250ef7af)" style="fill: none; stroke: #ff7f0e; stroke-linecap: square"/>
   </g>
   <g id="line2d_24">
    <path d="M 91.5397 62.136718 
L 101.2303 62.136718 
" clip-path="url(#p85250ef7af)" style="fill: none; stroke: #ff7f0e; stroke-linecap: square"/>
   </g>
   <g id="patch_3">
    <path d="M 15.63 118.9752 
L 15.63 16.0416 
" style="fill: none; stroke: #000000; stroke-width: 0.8; stroke-linejoin: miter; stroke-linecap: square"/>
   </g>
   <g id="patch_4">
    <path d="M 112.536 118.9752 
L 112.536 16.0416 
" style="fill: none; stroke: #000000; stroke-width: 0.8; stroke-linejoin: miter; stroke-linecap: square"/>
   </g>
   <g id="patch_5">
    <path d="M 15.63 118.9752 
L 112.536 118.9752 
" style="fill: none; stroke: #000000; stroke-width: 0.8; stroke-linejoin: miter; stroke-linecap: square"/>
   </g>
   <g id="patch_6">
    <path d="M 15.63 16.0416 
L 112.536 16.0416 
" style="fill: none; stroke: #000000; stroke-width: 0.8; stroke-linejoin: miter; stroke-linecap: square"/>
   </g>
  </g>
 </g>
 <defs>
  <clipPath id="p85250ef7af">
   <rect x="15.63" y="16.0416" width="96.906" height="102.9336"/>
  </clipPath>
 </defs>
</svg>
