<?xml version="1.0" encoding="utf-8"?>
<!-- Generator: Adobe Illustrator 26.4.1, SVG Export Plug-In . SVG Version: 6.00 Build 0)  -->
<svg version="1.1" id="Layer_1" xmlns="http://www.w3.org/2000/svg" xmlns:xlink="http://www.w3.org/1999/xlink" x="0px" y="0px"
	 viewBox="0 0 251.6 198.4" style="enable-background:new 0 0 251.6 198.4;" xml:space="preserve">
<style type="text/css">
	.st0{fill:#FFFFFF;}
	.st1{clip-path:url(#SVGID_00000102512519129176541220000011630675081730679686_);}
	.st2{fill-opacity:0.5;}
	.st3{clip-path:url(#SVGID_00000174587910682699448500000009761844902343415199_);}
	.st4{clip-path:url(#SVGID_00000117654729176880122190000004841076129944024964_);}
	.st5{clip-path:url(#SVGID_00000039850462850399818540000015267254453659875459_);}
	.st6{clip-path:url(#SVGID_00000145017786108333063090000016808347368095540391_);}
	.st7{clip-path:url(#SVGID_00000060021755722371535190000015807904227274369726_);}
	.st8{clip-path:url(#SVGID_00000150099775899215964800000004038770201331916961_);}
	.st9{clip-path:url(#SVGID_00000078752165172159451640000017052995813838716854_);}
	.st10{clip-path:url(#SVGID_00000124124803889554910020000000133085422409201334_);}
	.st11{clip-path:url(#SVGID_00000068637603358853495800000011271901171256079501_);}
	.st12{clip-path:url(#SVGID_00000040569762170305240980000016123350586664672666_);}
	.st13{clip-path:url(#SVGID_00000042722455761525019210000001935136227349475973_);}
	.st14{clip-path:url(#SVGID_00000037660629981556904430000015605188853316945824_);}
	.st15{clip-path:url(#SVGID_00000053503967250847616320000011791655900348754858_);}
	.st16{clip-path:url(#SVGID_00000124159065921700682210000008996458948866117509_);fill-opacity:0.5;}
	.st17{stroke:#000000;stroke-width:0.8;stroke-linejoin:round;}
	
		.st18{clip-path:url(#SVGID_00000121268053536344124140000002414033613429655448_);fill:none;stroke:#000000;stroke-width:1.5;stroke-linecap:square;stroke-linejoin:round;}
	.st19{fill:none;stroke:#000000;stroke-width:0.8;stroke-linecap:square;}
</style>
<g id="figure_1">
	<g id="axes_1">
		<g id="patch_2">
			<path class="st0" d="M31.5,176.5h195V23.8h-195V176.5z"/>
		</g>
		<g id="PathCollection_1">
			<g>
				<defs>
					<rect id="SVGID_1_" x="31.5" y="23.8" width="195" height="152.7"/>
				</defs>
				<clipPath id="SVGID_00000138563123042783466630000012497080023646540445_">
					<use xlink:href="#SVGID_1_"  style="overflow:visible;"/>
				</clipPath>
				<g style="clip-path:url(#SVGID_00000138563123042783466630000012497080023646540445_);">
					<g>
						<path id="C0_0_fa7d64c812" class="st2" d="M40.3,140c0.8,0,1.6-0.3,2.1-0.9c0.6-0.6,0.9-1.3,0.9-2.1s-0.3-1.6-0.9-2.1
							c-0.6-0.6-1.3-0.9-2.1-0.9s-1.6,0.3-2.1,0.9c-0.6,0.6-0.9,1.3-0.9,2.1s0.3,1.6,0.9,2.1C38.8,139.7,39.5,140,40.3,140z"/>
					</g>
				</g>
			</g>
			<g>
				<defs>
					<rect id="SVGID_00000121987920108715897850000004749140761900904891_" x="31.5" y="23.8" width="195" height="152.7"/>
				</defs>
				<clipPath id="SVGID_00000075159461671981029380000011054092220270677651_">
					<use xlink:href="#SVGID_00000121987920108715897850000004749140761900904891_"  style="overflow:visible;"/>
				</clipPath>
				<g style="clip-path:url(#SVGID_00000075159461671981029380000011054092220270677651_);">
					<g>
						<path id="C0_0_fa7d64c812_00000094616674338002918010000002626395264883869365_" class="st2" d="M40.3,163.9
							c0.8,0,1.6-0.3,2.1-0.9c0.6-0.6,0.9-1.3,0.9-2.1s-0.3-1.6-0.9-2.1c-0.6-0.6-1.3-0.9-2.1-0.9s-1.6,0.3-2.1,0.9
							c-0.6,0.6-0.9,1.3-0.9,2.1s0.3,1.6,0.9,2.1C38.8,163.5,39.5,163.9,40.3,163.9z"/>
					</g>
				</g>
			</g>
			<g>
				<defs>
					<rect id="SVGID_00000020366507099899701540000015640381255514797736_" x="31.5" y="23.8" width="195" height="152.7"/>
				</defs>
				<clipPath id="SVGID_00000139292290607474040380000006529775822820041362_">
					<use xlink:href="#SVGID_00000020366507099899701540000015640381255514797736_"  style="overflow:visible;"/>
				</clipPath>
				<g style="clip-path:url(#SVGID_00000139292290607474040380000006529775822820041362_);">
					<g>
						<path id="C0_0_fa7d64c812_00000111151618903629369520000007753821131143512216_" class="st2" d="M40.3,128.8
							c0.8,0,1.6-0.3,2.1-0.9c0.6-0.6,0.9-1.3,0.9-2.1s-0.3-1.6-0.9-2.1c-0.6-0.6-1.3-0.9-2.1-0.9s-1.6,0.3-2.1,0.9
							c-0.6,0.6-0.9,1.3-0.9,2.1s0.3,1.6,0.9,2.1C38.8,128.5,39.5,128.8,40.3,128.8z"/>
					</g>
				</g>
			</g>
			<g>
				<defs>
					<rect id="SVGID_00000145045538807604429160000011952170573349092799_" x="31.5" y="23.8" width="195" height="152.7"/>
				</defs>
				<clipPath id="SVGID_00000101083111124138009400000017506322030985240217_">
					<use xlink:href="#SVGID_00000145045538807604429160000011952170573349092799_"  style="overflow:visible;"/>
				</clipPath>
				<g style="clip-path:url(#SVGID_00000101083111124138009400000017506322030985240217_);">
					<g>
						<path id="C0_0_fa7d64c812_00000034082962282040291110000015914754243412126115_" class="st2" d="M40.3,103.9
							c0.8,0,1.6-0.3,2.1-0.9c0.6-0.6,0.9-1.3,0.9-2.1s-0.3-1.6-0.9-2.1c-0.6-0.6-1.3-0.9-2.1-0.9s-1.6,0.3-2.1,0.9
							c-0.6,0.6-0.9,1.3-0.9,2.1s0.3,1.6,0.9,2.1C38.8,103.6,39.5,103.9,40.3,103.9z"/>
					</g>
				</g>
			</g>
			<g>
				<defs>
					<rect id="SVGID_00000037665764999916191360000016550638417829277069_" x="31.5" y="23.8" width="195" height="152.7"/>
				</defs>
				<clipPath id="SVGID_00000121992920652683376860000006997847450690604946_">
					<use xlink:href="#SVGID_00000037665764999916191360000016550638417829277069_"  style="overflow:visible;"/>
				</clipPath>
				<g style="clip-path:url(#SVGID_00000121992920652683376860000006997847450690604946_);">
					<g>
						<path id="C0_0_fa7d64c812_00000128474562853604930220000005572090222457617306_" class="st2" d="M40.3,49.8
							c0.8,0,1.6-0.3,2.1-0.9c0.6-0.6,0.9-1.3,0.9-2.1s-0.3-1.6-0.9-2.1c-0.6-0.6-1.3-0.9-2.1-0.9s-1.6,0.3-2.1,0.9
							c-0.6,0.6-0.9,1.3-0.9,2.1s0.3,1.6,0.9,2.1C38.8,49.5,39.5,49.8,40.3,49.8z"/>
					</g>
				</g>
			</g>
		</g>
		<g id="PathCollection_2">
			<g>
				<defs>
					<rect id="SVGID_00000152264623397990002100000006319913252603210371_" x="31.5" y="23.8" width="195" height="152.7"/>
				</defs>
				<clipPath id="SVGID_00000165940619758708358510000002719120528335279758_">
					<use xlink:href="#SVGID_00000152264623397990002100000006319913252603210371_"  style="overflow:visible;"/>
				</clipPath>
				<g style="clip-path:url(#SVGID_00000165940619758708358510000002719120528335279758_);">
					<g>
						<path id="C1_0_4bc4c9ad85" class="st2" d="M84.6,142.6c0.8,0,1.6-0.3,2.1-0.9c0.6-0.6,0.9-1.3,0.9-2.1s-0.3-1.6-0.9-2.1
							c-0.6-0.6-1.3-0.9-2.1-0.9s-1.6,0.3-2.1,0.9c-0.6,0.6-0.9,1.3-0.9,2.1s0.3,1.6,0.9,2.1C83.1,142.3,83.8,142.6,84.6,142.6z"/>
					</g>
				</g>
			</g>
			<g>
				<defs>
					<rect id="SVGID_00000178178876626469799920000015707786848498816661_" x="31.5" y="23.8" width="195" height="152.7"/>
				</defs>
				<clipPath id="SVGID_00000049934496256734548700000000052623187108796078_">
					<use xlink:href="#SVGID_00000178178876626469799920000015707786848498816661_"  style="overflow:visible;"/>
				</clipPath>
				<g style="clip-path:url(#SVGID_00000049934496256734548700000000052623187108796078_);">
					<g>
						<path id="C1_0_4bc4c9ad85_00000170275854383403109610000003502547515808336047_" class="st2" d="M84.6,172.6
							c0.8,0,1.6-0.3,2.1-0.9c0.6-0.6,0.9-1.3,0.9-2.1s-0.3-1.6-0.9-2.1c-0.6-0.6-1.3-0.9-2.1-0.9s-1.6,0.3-2.1,0.9
							c-0.6,0.6-0.9,1.3-0.9,2.1s0.3,1.6,0.9,2.1C83.1,172.3,83.8,172.6,84.6,172.6z"/>
					</g>
				</g>
			</g>
			<g>
				<defs>
					<rect id="SVGID_00000046304900111910219020000001799057711779334814_" x="31.5" y="23.8" width="195" height="152.7"/>
				</defs>
				<clipPath id="SVGID_00000142885780944910772150000010236707793354139819_">
					<use xlink:href="#SVGID_00000046304900111910219020000001799057711779334814_"  style="overflow:visible;"/>
				</clipPath>
				<g style="clip-path:url(#SVGID_00000142885780944910772150000010236707793354139819_);">
					<g>
						<path id="C1_0_4bc4c9ad85_00000168817832244973713390000013323249761822836378_" class="st2" d="M84.6,87
							c0.8,0,1.6-0.3,2.1-0.9c0.6-0.6,0.9-1.3,0.9-2.1s-0.3-1.6-0.9-2.1c-0.6-0.6-1.3-0.9-2.1-0.9s-1.6,0.3-2.1,0.9
							c-0.6,0.6-0.9,1.3-0.9,2.1s0.3,1.6,0.9,2.1C83.1,86.6,83.8,87,84.6,87z"/>
					</g>
				</g>
			</g>
			<g>
				<defs>
					<rect id="SVGID_00000071542669497114423640000005377540999853826990_" x="31.5" y="23.8" width="195" height="152.7"/>
				</defs>
				<clipPath id="SVGID_00000000199942132945776000000016509784688379792318_">
					<use xlink:href="#SVGID_00000071542669497114423640000005377540999853826990_"  style="overflow:visible;"/>
				</clipPath>
				<g style="clip-path:url(#SVGID_00000000199942132945776000000016509784688379792318_);">
					<g>
						<path id="C1_0_4bc4c9ad85_00000103252922228845963310000018268973328031898506_" class="st2" d="M84.6,33.7
							c0.8,0,1.6-0.3,2.1-0.9c0.6-0.6,0.9-1.3,0.9-2.1s-0.3-1.6-0.9-2.1c-0.6-0.6-1.3-0.9-2.1-0.9s-1.6,0.3-2.1,0.9
							c-0.6,0.6-0.9,1.3-0.9,2.1s0.3,1.6,0.9,2.1C83.1,33.4,83.8,33.7,84.6,33.7z"/>
					</g>
				</g>
			</g>
		</g>
		<g id="PathCollection_3">
			<g>
				<defs>
					<rect id="SVGID_00000011727911828486098550000000146168031500039808_" x="31.5" y="23.8" width="195" height="152.7"/>
				</defs>
				<clipPath id="SVGID_00000163755298879168848940000006911149768625194880_">
					<use xlink:href="#SVGID_00000011727911828486098550000000146168031500039808_"  style="overflow:visible;"/>
				</clipPath>
				<g style="clip-path:url(#SVGID_00000163755298879168848940000006911149768625194880_);">
					<g>
						<path id="C2_0_923621e6a3" class="st2" d="M129,156.6c0.8,0,1.6-0.3,2.1-0.9s0.9-1.3,0.9-2.1s-0.3-1.6-0.9-2.1
							s-1.3-0.9-2.1-0.9s-1.6,0.3-2.1,0.9c-0.6,0.6-0.9,1.3-0.9,2.1s0.3,1.6,0.9,2.1C127.4,156.3,128.2,156.6,129,156.6z"/>
					</g>
				</g>
			</g>
			<g>
				<defs>
					<rect id="SVGID_00000072971555203050226170000006747283278682138289_" x="31.5" y="23.8" width="195" height="152.7"/>
				</defs>
				<clipPath id="SVGID_00000163763588540205590950000006092285740415699117_">
					<use xlink:href="#SVGID_00000072971555203050226170000006747283278682138289_"  style="overflow:visible;"/>
				</clipPath>
				<g style="clip-path:url(#SVGID_00000163763588540205590950000006092285740415699117_);">
					<g>
						<path id="C2_0_923621e6a3_00000168819406886002953210000007634261332705709195_" class="st2" d="M129,88.9
							c0.8,0,1.6-0.3,2.1-0.9c0.6-0.6,0.9-1.3,0.9-2.1s-0.3-1.6-0.9-2.1c-0.6-0.6-1.3-0.9-2.1-0.9s-1.6,0.3-2.1,0.9
							c-0.6,0.6-0.9,1.3-0.9,2.1s0.3,1.6,0.9,2.1C127.4,88.6,128.2,88.9,129,88.9z"/>
					</g>
				</g>
			</g>
			<g>
				<defs>
					<rect id="SVGID_00000110448171357860651080000015421308982250299791_" x="31.5" y="23.8" width="195" height="152.7"/>
				</defs>
				<clipPath id="SVGID_00000084491515902653319470000001649921837053570972_">
					<use xlink:href="#SVGID_00000110448171357860651080000015421308982250299791_"  style="overflow:visible;"/>
				</clipPath>
				<g style="clip-path:url(#SVGID_00000084491515902653319470000001649921837053570972_);">
					<g>
						<path id="C2_0_923621e6a3_00000066510445611162340020000016533674718105583273_" class="st2" d="M129,50.3
							c0.8,0,1.6-0.3,2.1-0.9c0.6-0.6,0.9-1.3,0.9-2.1s-0.3-1.6-0.9-2.1c-0.6-0.6-1.3-0.9-2.1-0.9s-1.6,0.3-2.1,0.9
							c-0.6,0.6-0.9,1.3-0.9,2.1s0.3,1.6,0.9,2.1C127.4,50,128.2,50.3,129,50.3z"/>
					</g>
				</g>
			</g>
		</g>
		<g id="PathCollection_4">
			<g>
				<defs>
					<rect id="SVGID_00000049936930268261974940000009612190737629340041_" x="31.5" y="23.8" width="195" height="152.7"/>
				</defs>
				<clipPath id="SVGID_00000099660599876445351620000000380374440346798754_">
					<use xlink:href="#SVGID_00000049936930268261974940000009612190737629340041_"  style="overflow:visible;"/>
				</clipPath>
				<g style="clip-path:url(#SVGID_00000099660599876445351620000000380374440346798754_);">
					<g>
						<path id="C3_0_4411913e05" class="st2" d="M173.3,70.9c0.8,0,1.6-0.3,2.1-0.9c0.6-0.6,0.9-1.3,0.9-2.1s-0.3-1.6-0.9-2.1
							c-0.6-0.6-1.3-0.9-2.1-0.9s-1.6,0.3-2.1,0.9c-0.6,0.6-0.9,1.3-0.9,2.1s0.3,1.6,0.9,2.1C171.7,70.6,172.5,70.9,173.3,70.9z"/>
					</g>
				</g>
			</g>
			<g>
				<defs>
					<rect id="SVGID_00000019649539254837241140000016544061463137607576_" x="31.5" y="23.8" width="195" height="152.7"/>
				</defs>
				<clipPath id="SVGID_00000064355169541801808200000016057073102694161070_">
					<use xlink:href="#SVGID_00000019649539254837241140000016544061463137607576_"  style="overflow:visible;"/>
				</clipPath>
				<g style="clip-path:url(#SVGID_00000064355169541801808200000016057073102694161070_);">
					<g>
						<path id="C3_0_4411913e05_00000178893776426785730800000012806714633824712615_" class="st2" d="M173.3,37.5
							c0.8,0,1.6-0.3,2.1-0.9c0.6-0.6,0.9-1.3,0.9-2.1s-0.3-1.6-0.9-2.1c-0.6-0.6-1.3-0.9-2.1-0.9s-1.6,0.3-2.1,0.9
							c-0.6,0.6-0.9,1.3-0.9,2.1s0.3,1.6,0.9,2.1C171.7,37.2,172.5,37.5,173.3,37.5z"/>
					</g>
				</g>
			</g>
		</g>
		<g id="PathCollection_5">
			<g>
				<defs>
					<rect id="SVGID_00000178192068429779079450000016982369625133926820_" x="31.5" y="23.8" width="195" height="152.7"/>
				</defs>
				<clipPath id="SVGID_00000163792517047961346310000008344888892499720891_">
					<use xlink:href="#SVGID_00000178192068429779079450000016982369625133926820_"  style="overflow:visible;"/>
				</clipPath>
				<path style="clip-path:url(#SVGID_00000163792517047961346310000008344888892499720891_);fill-opacity:0.5;" d="M217.6,44.4
					c0.8,0,1.6-0.3,2.1-0.9s0.9-1.3,0.9-2.1s-0.3-1.6-0.9-2.1s-1.3-0.9-2.1-0.9s-1.6,0.3-2.1,0.9c-0.6,0.6-0.9,1.3-0.9,2.1
					s0.3,1.6,0.9,2.1C216.1,44.1,216.8,44.4,217.6,44.4z"/>
			</g>
		</g>
		<g id="matplotlib.axis_1">
			<g id="xtick_1">
				<g id="line2d_1">
					<g>
						<g>
							<path id="m9754f6fc88" class="st17" d="M40.3,176.5v3.5"/>
						</g>
					</g>
				</g>
				<g id="text_1">
					<g transform="translate(35.984122 187.835087)scale(0.06 -0.06)">
						<g>
							<path id="ArialMT-31" d="M37.3,0h-8.8v56c-2.1-2-4.9-4-8.3-6s-6.5-3.5-9.2-4.5v8.5c4.9,2.3,9.2,5.1,12.9,8.4
								c3.7,3.3,6.3,6.5,7.8,9.6h5.7V0z"/>
						</g>
						<g>
							<path id="ArialMT-2d" d="M58.8,21.5v8.8h27v-8.8H58.8z"/>
						</g>
						<g>
							<path id="ArialMT-31_00000132771821276557272170000009789781426284339842_" d="M126.2,0h-8.8v56c-2.1-2-4.9-4-8.3-6
								s-6.5-3.5-9.2-4.5v8.5c4.9,2.3,9.2,5.1,12.9,8.4c3.7,3.3,6.3,6.5,7.8,9.6h5.7V0z"/>
						</g>
					</g>
				</g>
			</g>
			<g id="xtick_2">
				<g id="line2d_2">
					<g>
						<g>
							<path id="m9754f6fc88_00000065763991325779312200000009801367635475180675_" class="st17" d="M84.6,176.5v3.5"/>
						</g>
					</g>
				</g>
				<g id="text_2">
					<g transform="translate(80.307077 187.835087)scale(0.06 -0.06)">
						<g>
							<path id="ArialMT-31_00000009567605485641614420000012534271924021107371_" d="M37.2,0h-8.8v56c-2.1-2-4.9-4-8.3-6
								s-6.5-3.5-9.2-4.5v8.5c4.9,2.3,9.2,5.1,12.9,8.4c3.7,3.3,6.3,6.5,7.8,9.6h5.7V0z"/>
						</g>
						<g>
							<path id="ArialMT-2d_00000152950552771955973530000017397277619561952131_" d="M58.8,21.5v8.8h27v-8.8H58.8z"/>
						</g>
						<g>
							<path id="ArialMT-32" d="M139.3,8.5V0H91.9c-0.1,2.1,0.3,4.2,1,6.1c1.2,3.2,3.1,6.4,5.8,9.5c2.7,3.1,6.5,6.7,11.5,10.8
								c7.8,6.4,13,11.4,15.8,15.2c2.7,3.7,4.1,7.3,4.1,10.6c0,3.5-1.2,6.4-3.7,8.8c-2.5,2.4-5.7,3.6-9.7,3.6
								c-4.2,0-7.6-1.3-10.2-3.8c-2.5-2.5-3.8-6-3.9-10.5l-9,0.9c0.6,6.7,2.9,11.9,7,15.4c4,3.5,9.5,5.3,16.3,5.3
								c6.9,0,12.3-1.9,16.3-5.7c4-3.8,6-8.5,6-14.2c0-2.9-0.6-5.7-1.8-8.5c-1.2-2.8-3.1-5.7-5.8-8.7s-7.2-7.3-13.5-12.6
								c-5.3-4.4-8.7-7.4-10.2-9c-1.5-1.6-2.7-3.2-3.7-4.8H139.3z"/>
						</g>
					</g>
				</g>
			</g>
			<g id="xtick_3">
				<g id="line2d_3">
					<g>
						<g>
							<path id="m9754f6fc88_00000058547485455720040230000010393091003410822805_" class="st17" d="M129,176.5v3.5"/>
						</g>
					</g>
				</g>
				<g id="text_3">
					<g transform="translate(124.630031 187.835087)scale(0.06 -0.06)">
						<g>
							<path id="ArialMT-31_00000065058365143748151180000002797294948918083214_" d="M37.2,0h-8.8v56c-2.1-2-4.9-4-8.3-6
								s-6.5-3.5-9.2-4.5v8.5c4.9,2.3,9.2,5.1,12.9,8.4c3.7,3.3,6.3,6.5,7.8,9.6h5.7V0z"/>
						</g>
						<g>
							<path id="ArialMT-2d_00000161600589362495618680000015737953555962071474_" d="M58.8,21.5v8.8h27v-8.8H58.8z"/>
						</g>
						<g>
							<path id="ArialMT-33" d="M93.1,18.9l8.8,1.2c1-5,2.7-8.6,5.2-10.8c2.4-2.2,5.4-3.3,8.9-3.3c4.1,0,7.6,1.4,10.5,4.3
								c2.9,2.9,4.3,6.4,4.3,10.7c0,4-1.3,7.4-4,10c-2.6,2.6-6,3.9-10.1,3.9c-1.7,0-3.7-0.3-6.2-1l1,7.7c0.6-0.1,1.1-0.1,1.4-0.1
								c3.8,0,7.1,1,10.1,2.9c3,2,4.5,5,4.5,9c0,3.2-1.1,5.9-3.3,8c-2.2,2.1-5,3.2-8.4,3.2c-3.4,0-6.3-1.1-8.5-3.2
								c-2.3-2.1-3.7-5.4-4.4-9.7L94,53.3c1.1,5.9,3.5,10.4,7.3,13.7c3.8,3.2,8.6,4.9,14.2,4.9c3.9,0,7.5-0.8,10.8-2.5
								c3.3-1.7,5.8-4,7.5-6.9c1.8-2.9,2.6-6,2.6-9.2c0-3.1-0.8-5.9-2.5-8.4c-1.7-2.5-4.1-4.6-7.4-6.1c4.2-1,7.5-3,9.9-6.1
								c2.3-3.1,3.5-6.9,3.5-11.5c0-6.2-2.3-11.5-6.8-15.9c-4.6-4.3-10.3-6.5-17.3-6.5c-6.3,0-11.5,1.9-15.7,5.6
								C96.1,8.1,93.7,12.9,93.1,18.9z"/>
						</g>
					</g>
				</g>
			</g>
			<g id="xtick_4">
				<g id="line2d_4">
					<g>
						<g>
							<path id="m9754f6fc88_00000074417298060672772090000009786759817268190884_" class="st17" d="M173.3,176.5v3.5"/>
						</g>
					</g>
				</g>
				<g id="text_4">
					<g transform="translate(168.952986 187.835087)scale(0.06 -0.06)">
						<g>
							<path id="ArialMT-31_00000150801273726036826460000011729546970065158311_" d="M37.2,0h-8.8v56c-2.1-2-4.9-4-8.3-6
								s-6.5-3.5-9.2-4.5v8.5c4.9,2.3,9.2,5.1,12.9,8.4c3.7,3.3,6.3,6.5,7.8,9.6h5.7V0z"/>
						</g>
						<g>
							<path id="ArialMT-2d_00000067931072753117990160000005189613763415179701_" d="M58.8,21.5v8.8h27v-8.8H58.8z"/>
						</g>
						<g>
							<path id="ArialMT-34" d="M121.2,0v17.1H90.2v8.1l32.7,46.4h7.2V25.2h9.7v-8.1H130V0H121.2z M121.2,25.2v32.3L98.8,25.2H121.2
								z"/>
						</g>
					</g>
				</g>
			</g>
			<g id="xtick_5">
				<g id="line2d_5">
					<g>
						<g>
							<path id="m9754f6fc88_00000019650273524504336410000011504004102445317818_" class="st17" d="M217.6,176.5v3.5"/>
						</g>
					</g>
				</g>
				<g id="text_5">
					<g transform="translate(213.27594 187.835087)scale(0.06 -0.06)">
						<g>
							<path id="ArialMT-31_00000014602471166795814060000002932692916567049373_" d="M37.2,0h-8.8v56c-2.1-2-4.9-4-8.3-6
								s-6.5-3.5-9.2-4.5v8.5c4.9,2.3,9.2,5.1,12.9,8.4c3.7,3.3,6.3,6.5,7.8,9.6h5.7V0z"/>
						</g>
						<g>
							<path id="ArialMT-2d_00000000929652296401552520000007756147030553049730_" d="M58.8,21.5v8.8h27v-8.8H58.8z"/>
						</g>
						<g>
							<path id="ArialMT-35" d="M93.1,18.8l9.2,0.8c0.7-4.5,2.3-7.9,4.8-10.1c2.5-2.3,5.5-3.4,9-3.4c4.2,0,7.8,1.6,10.7,4.8
								c2.9,3.2,4.4,7.4,4.4,12.7c0,5-1.4,9-4.2,11.9c-2.8,2.9-6.5,4.4-11.1,4.4c-2.8,0-5.4-0.6-7.7-1.9c-2.3-1.3-4.1-2.9-5.4-5
								l-8.2,1.1l6.9,36.8h35.6v-8.4h-28.6L104.7,43c4.3,3,8.8,4.5,13.5,4.5c6.2,0,11.5-2.2,15.8-6.5c4.3-4.3,6.5-9.9,6.5-16.7
								c0-6.5-1.9-12.1-5.7-16.8c-4.6-5.8-10.9-8.7-18.8-8.7c-6.5,0-11.8,1.8-16,5.5C96,7.9,93.7,12.7,93.1,18.8z"/>
						</g>
					</g>
				</g>
			</g>
			<g id="text_6">
				<g transform="translate(87.275813 197.322275)scale(0.06 -0.06)">
					<g>
						<path id="ArialMT-44" d="M7.7,0v71.6h24.7c5.6,0,9.8-0.3,12.8-1c4.1-0.9,7.6-2.7,10.5-5.1c3.8-3.2,6.6-7.3,8.5-12.2
							c1.9-5,2.8-10.6,2.8-17c0-5.4-0.6-10.3-1.9-14.5c-1.3-4.2-2.9-7.7-4.9-10.4c-2-2.8-4.2-4.9-6.5-6.5C51.2,3.2,48.4,2,45,1.2
							S37.9,0,33.5,0H7.7z M17.2,8.5h15.3c4.7,0,8.4,0.4,11.1,1.3s4.8,2.1,6.4,3.7c2.2,2.2,4,5.3,5.2,9s1.9,8.4,1.9,13.8
							c0,7.5-1.2,13.2-3.7,17.3s-5.4,6.7-9,8.1c-2.5,1-6.6,1.5-12.2,1.5h-15V8.5z"/>
					</g>
					<g>
						<path id="ArialMT-61" d="M112.7,6.4c-3.3-2.8-6.4-4.7-9.4-5.9c-3-1.1-6.2-1.7-9.7-1.7c-5.7,0-10.1,1.4-13.1,4.2
							s-4.6,6.3-4.6,10.7c0,2.5,0.6,4.9,1.7,7c1.2,2.1,2.7,3.8,4.5,5.1s4,2.2,6.3,2.9c1.7,0.5,4.3,0.9,7.8,1.3
							c7.1,0.8,12.3,1.8,15.7,3c0,1.2,0,2,0,2.3c0,3.6-0.8,6.1-2.5,7.6c-2.2,2-5.6,3-10,3c-4.1,0-7.2-0.7-9.2-2.2s-3.4-4-4.4-7.7
							l-8.6,1.2c0.8,3.7,2.1,6.6,3.9,8.9c1.8,2.3,4.4,4,7.8,5.2c3.4,1.2,7.3,1.8,11.8,1.8c4.4,0,8-0.5,10.8-1.6
							c2.8-1,4.8-2.4,6.1-3.9c1.3-1.6,2.2-3.6,2.7-6c0.3-1.5,0.4-4.2,0.4-8.1V21.7c0-8.2,0.2-13.3,0.6-15.5c0.4-2.2,1.1-4.2,2.2-6.2
							h-9.2C113.5,1.8,112.9,4,112.7,6.4z M111.9,26c-3.2-1.3-8-2.4-14.4-3.3c-3.6-0.5-6.2-1.1-7.7-1.8c-1.5-0.6-2.6-1.6-3.5-2.8
							c-0.8-1.2-1.2-2.6-1.2-4.2c0-2.3,0.9-4.3,2.7-5.9c1.8-1.6,4.4-2.3,7.8-2.3c3.4,0,6.4,0.7,9,2.2c2.6,1.5,4.6,3.5,5.8,6.1
							c0.9,2,1.4,4.9,1.4,8.8V26z"/>
					</g>
					<g>
						<path id="ArialMT-79" d="M134-20l-1,8.2c1.9-0.5,3.6-0.8,5-0.8c2,0,3.5,0.3,4.7,1c1.2,0.6,2.1,1.6,2.9,2.7
							c0.6,0.9,1.4,3.1,2.7,6.5c0.2,0.5,0.4,1.2,0.8,2.2l-19.7,52h9.5l10.8-30c1.4-3.8,2.7-7.8,3.8-12c1,4,2.2,8,3.6,11.8l11.1,30.2
							h8.8L157.2-0.9c-2.1-5.7-3.8-9.6-4.9-11.8c-1.6-2.9-3.4-5-5.4-6.4c-2-1.4-4.4-2-7.2-2C138-21,136.1-20.7,134-20z"/>
					</g>
					<g>
						<path id="ArialMT-73" d="M180.9,15.5l8.7,1.4c0.5-3.5,1.8-6.1,4.1-8s5.3-2.8,9.4-2.8c4,0,7,0.8,9,2.5c2,1.6,2.9,3.6,2.9,5.8
							c0,2-0.9,3.5-2.6,4.7c-1.2,0.8-4.2,1.8-9,3c-6.4,1.6-10.9,3-13.4,4.2s-4.4,2.8-5.7,4.9c-1.3,2.1-1.9,4.4-1.9,7
							c0,2.3,0.5,4.4,1.6,6.4c1.1,2,2.5,3.6,4.3,4.9c1.4,1,3.2,1.8,5.6,2.5c2.4,0.7,4.9,1.1,7.6,1.1c4.1,0,7.6-0.6,10.7-1.8
							c3.1-1.2,5.4-2.8,6.8-4.8c1.5-2,2.5-4.7,3-8l-8.6-1.2c-0.4,2.7-1.5,4.7-3.4,6.2c-1.9,1.5-4.5,2.2-7.9,2.2c-4,0-6.9-0.7-8.6-2
							s-2.6-2.9-2.6-4.7c0-1.1,0.4-2.2,1.1-3.1c0.7-0.9,1.8-1.7,3.4-2.3c0.9-0.3,3.5-1.1,7.8-2.2c6.2-1.7,10.6-3,13-4.1
							c2.5-1.1,4.4-2.6,5.8-4.6c1.4-2,2.1-4.5,2.1-7.5c0-2.9-0.9-5.7-2.6-8.3c-1.7-2.6-4.2-4.6-7.4-6c-3.2-1.4-6.9-2.1-10.9-2.1
							c-6.7,0-11.9,1.4-15.4,4.2S181.9,10,180.9,15.5z"/>
					</g>
					<g>
						<path id="ArialMT-20" d="M227.8,0"/>
					</g>
					<g>
						<path id="ArialMT-75" d="M296.2,0v7.6c-4-5.9-9.5-8.8-16.5-8.8c-3.1,0-5.9,0.6-8.6,1.8c-2.6,1.2-4.6,2.7-5.9,4.4
							c-1.3,1.8-2.2,4-2.7,6.5c-0.4,1.7-0.5,4.5-0.5,8.2v32.1h8.8V23.1c0-4.6,0.2-7.7,0.5-9.3c0.6-2.3,1.7-4.1,3.5-5.4s4-2,6.6-2
							s5.1,0.7,7.4,2s3.9,3.2,4.9,5.5c1,2.3,1.5,5.7,1.5,10.1v27.8h8.8V0H296.2z"/>
					</g>
					<g>
						<path id="ArialMT-73_00000139980086225237583650000015817109655183107763_" d="M314.3,15.5l8.7,1.4c0.5-3.5,1.8-6.1,4.1-8
							s5.3-2.8,9.4-2.8c4,0,7,0.8,9,2.5c2,1.6,2.9,3.6,2.9,5.8c0,2-0.9,3.5-2.6,4.7c-1.2,0.8-4.2,1.8-9,3c-6.4,1.6-10.9,3-13.4,4.2
							s-4.4,2.8-5.7,4.9c-1.3,2.1-1.9,4.4-1.9,7c0,2.3,0.5,4.4,1.6,6.4c1.1,2,2.5,3.6,4.3,4.9c1.4,1,3.2,1.8,5.6,2.5
							c2.4,0.7,4.9,1.1,7.6,1.1c4.1,0,7.6-0.6,10.7-1.8c3.1-1.2,5.4-2.8,6.8-4.8c1.5-2,2.5-4.7,3-8l-8.6-1.2
							c-0.4,2.7-1.5,4.7-3.4,6.2c-1.9,1.5-4.5,2.2-7.9,2.2c-4,0-6.9-0.7-8.6-2s-2.6-2.9-2.6-4.7c0-1.1,0.4-2.2,1.1-3.1
							c0.7-0.9,1.8-1.7,3.4-2.3c0.9-0.3,3.5-1.1,7.8-2.2c6.2-1.7,10.6-3,13-4.1c2.5-1.1,4.4-2.6,5.8-4.6c1.4-2,2.1-4.5,2.1-7.5
							c0-2.9-0.9-5.7-2.6-8.3c-1.7-2.6-4.2-4.6-7.4-6c-3.2-1.4-6.9-2.1-10.9-2.1c-6.7,0-11.9,1.4-15.4,4.2S315.3,10,314.3,15.5z"/>
					</g>
					<g>
						<path id="ArialMT-65" d="M403.3,16.7l9.1-1.1c-1.4-5.3-4.1-9.4-8-12.4c-3.9-2.9-8.8-4.4-14.8-4.4c-7.6,0-13.6,2.3-18,7
							c-4.4,4.7-6.7,11.2-6.7,19.7c0,8.7,2.2,15.5,6.7,20.3c4.5,4.8,10.3,7.2,17.5,7.2c6.9,0,12.6-2.4,17-7.1
							c4.4-4.7,6.6-11.4,6.6-19.9c0-0.5,0-1.3,0-2.3H374c0.3-5.7,1.9-10.1,4.8-13.1c2.9-3,6.5-4.5,10.8-4.5c3.2,0,6,0.8,8.2,2.5
							C400.2,10.3,402,13,403.3,16.7z M374.5,30.9h29c-0.4,4.4-1.5,7.6-3.3,9.8c-2.8,3.4-6.4,5.1-10.9,5.1c-4,0-7.4-1.3-10.2-4
							S374.8,35.4,374.5,30.9z"/>
					</g>
					<g>
						<path id="ArialMT-64" d="M457.1,0v6.5c-3.3-5.1-8.1-7.7-14.5-7.7c-4.1,0-7.9,1.1-11.4,3.4s-6.2,5.5-8.1,9.5
							c-1.9,4.1-2.8,8.8-2.8,14.1c0,5.2,0.9,9.9,2.6,14.1c1.7,4.2,4.3,7.4,7.8,9.7c3.5,2.2,7.3,3.4,11.6,3.4c3.1,0,5.9-0.7,8.3-2
							c2.4-1.3,4.4-3,6-5.1v25.7h8.7V0H457.1z M429.3,25.9c0-6.6,1.4-11.6,4.2-14.9c2.8-3.3,6.1-4.9,9.9-4.9c3.8,0,7.1,1.6,9.8,4.7
							c2.7,3.1,4,7.9,4,14.4c0,7.1-1.4,12.3-4.1,15.6c-2.7,3.3-6.1,5-10.1,5c-3.9,0-7.2-1.6-9.8-4.8
							C430.6,37.8,429.3,32.8,429.3,25.9z"/>
					</g>
					<g>
						<path id="ArialMT-20_00000134240718470264273280000001979766032738863549_" d="M472.5,0"/>
					</g>
					<g>
						<path id="ArialMT-74" d="M526,7.9l1.3-7.8c-2.5-0.5-4.7-0.8-6.6-0.8c-3.2,0-5.7,0.5-7.4,1.5c-1.8,1-3,2.3-3.7,4
							s-1.1,5.1-1.1,10.4V45H502v6.8h6.4v12.8l8.7,5.3V51.9h8.8V45h-8.8V14.7c0-2.5,0.2-4.1,0.5-4.8c0.3-0.7,0.8-1.3,1.5-1.7
							c0.7-0.4,1.7-0.6,3-0.6C523.1,7.5,524.4,7.6,526,7.9z"/>
					</g>
					<g>
						<path id="ArialMT-6f" d="M531.4,25.9c0,9.6,2.7,16.7,8,21.3c4.5,3.8,9.9,5.8,16.3,5.8c7.1,0,12.9-2.3,17.5-7
							c4.5-4.7,6.8-11.1,6.8-19.4c0-6.7-1-11.9-3-15.8c-2-3.8-4.9-6.8-8.8-8.9c-3.8-2.1-8-3.2-12.5-3.2c-7.3,0-13.1,2.3-17.6,7
							C533.6,10.5,531.4,17.2,531.4,25.9z M540.4,25.9c0-6.6,1.4-11.6,4.3-14.9s6.5-5,10.9-5c4.4,0,8,1.7,10.9,5
							c2.9,3.3,4.3,8.4,4.3,15.2c0,6.4-1.5,11.3-4.4,14.6s-6.5,5-10.9,5c-4.4,0-8-1.6-10.9-4.9C541.8,37.5,540.4,32.6,540.4,25.9z"
							/>
					</g>
					<g>
						<path id="ArialMT-20_00000121273172614801247020000016266325031406532999_" d="M583.6,0"/>
					</g>
					<g>
						<path id="ArialMT-62" d="M626.1,0H618v71.6h8.8V46c3.7,4.7,8.5,7,14.2,7c3.2,0,6.2-0.6,9-1.9c2.9-1.3,5.2-3.1,7-5.4
							c1.8-2.3,3.3-5.1,4.3-8.4c1-3.3,1.6-6.8,1.6-10.5c0-8.9-2.2-15.8-6.6-20.6c-4.4-4.8-9.7-7.3-15.8-7.3
							c-6.1,0-10.9,2.6-14.4,7.7V0z M626,26.3c0-6.2,0.8-10.7,2.5-13.5c2.8-4.5,6.5-6.8,11.2-6.8c3.8,0,7.2,1.7,10,5
							S654,19.4,654,26c0,6.8-1.3,11.8-4,15s-5.9,4.8-9.7,4.8c-3.8,0-7.2-1.7-10-5S626,32.6,626,26.3z"/>
					</g>
					<g>
						<path id="ArialMT-75_00000045619763077753994420000002813570528936700313_" d="M707.6,0v7.6c-4-5.9-9.5-8.8-16.5-8.8
							c-3.1,0-5.9,0.6-8.6,1.8c-2.6,1.2-4.6,2.7-5.9,4.4c-1.3,1.8-2.2,4-2.7,6.5c-0.4,1.7-0.5,4.5-0.5,8.2v32.1h8.8V23.1
							c0-4.6,0.2-7.7,0.5-9.3c0.6-2.3,1.7-4.1,3.5-5.4c1.8-1.3,4-2,6.6-2c2.6,0,5.1,0.7,7.4,2s3.9,3.2,4.9,5.5
							c1,2.3,1.5,5.7,1.5,10.1v27.8h8.8V0H707.6z"/>
					</g>
					<g>
						<path id="ArialMT-69" d="M729.3,61.5v10.1h8.8V61.5H729.3z M729.3,0v51.9h8.8V0H729.3z"/>
					</g>
					<g>
						<path id="ArialMT-6c" d="M751.3,0v71.6h8.8V0H751.3z"/>
					</g>
					<g>
						<path id="ArialMT-64_00000178199106940860106510000003088293629346746260_" d="M807.3,0v6.5c-3.3-5.1-8.1-7.7-14.5-7.7
							c-4.1,0-7.9,1.1-11.4,3.4s-6.2,5.5-8.1,9.5c-1.9,4.1-2.8,8.8-2.8,14.1c0,5.2,0.9,9.9,2.6,14.1c1.7,4.2,4.3,7.4,7.8,9.7
							c3.5,2.2,7.3,3.4,11.6,3.4c3.1,0,5.9-0.7,8.3-2c2.4-1.3,4.4-3,6-5.1v25.7h8.7V0H807.3z M779.5,25.9c0-6.6,1.4-11.6,4.2-14.9
							c2.8-3.3,6.1-4.9,9.9-4.9c3.8,0,7.1,1.6,9.8,4.7c2.7,3.1,4,7.9,4,14.4c0,7.1-1.4,12.3-4.1,15.6c-2.7,3.3-6.1,5-10.1,5
							c-3.9,0-7.2-1.6-9.8-4.8C780.9,37.8,779.5,32.8,779.5,25.9z"/>
					</g>
					<g>
						<path id="ArialMT-20_00000119085044315902470390000018237647678990997932_" d="M822.7,0"/>
					</g>
					<g>
						<path id="ArialMT-6c_00000054261440307990898860000001402326783253241790_" d="M856.9,0v71.6h8.8V0H856.9z"/>
					</g>
					<g>
						<path id="ArialMT-61_00000181045753893694885170000017233070897599296911_" d="M913.1,6.4c-3.3-2.8-6.4-4.7-9.4-5.9
							c-3-1.1-6.2-1.7-9.7-1.7c-5.7,0-10.1,1.4-13.1,4.2s-4.6,6.3-4.6,10.7c0,2.5,0.6,4.9,1.7,7c1.2,2.1,2.7,3.8,4.5,5.1
							s4,2.2,6.3,2.9c1.7,0.5,4.3,0.9,7.8,1.3c7.1,0.8,12.3,1.8,15.7,3c0,1.2,0,2,0,2.3c0,3.6-0.8,6.1-2.5,7.6c-2.2,2-5.6,3-10,3
							c-4.1,0-7.2-0.7-9.2-2.2s-3.4-4-4.4-7.7l-8.6,1.2c0.8,3.7,2.1,6.6,3.9,8.9c1.8,2.3,4.4,4,7.8,5.2c3.4,1.2,7.3,1.8,11.8,1.8
							c4.4,0,8-0.5,10.8-1.6c2.8-1,4.8-2.4,6.1-3.9c1.3-1.6,2.2-3.6,2.7-6c0.3-1.5,0.4-4.2,0.4-8.1V21.7c0-8.2,0.2-13.3,0.6-15.5
							c0.4-2.2,1.1-4.2,2.2-6.2h-9.2C914,1.8,913.4,4,913.1,6.4z M912.4,26c-3.2-1.3-8-2.4-14.4-3.3c-3.6-0.5-6.2-1.1-7.7-1.8
							c-1.5-0.6-2.6-1.6-3.5-2.8c-0.8-1.2-1.2-2.6-1.2-4.2c0-2.3,0.9-4.3,2.7-5.9c1.8-1.6,4.4-2.3,7.8-2.3c3.4,0,6.4,0.7,9,2.2
							c2.6,1.5,4.6,3.5,5.8,6.1c0.9,2,1.4,4.9,1.4,8.8V26z"/>
					</g>
					<g>
						<path id="ArialMT-74_00000019667951339003073220000015093815027787807620_" d="M954.1,7.9l1.3-7.8c-2.5-0.5-4.7-0.8-6.6-0.8
							c-3.2,0-5.7,0.5-7.4,1.5c-1.8,1-3,2.3-3.7,4s-1.1,5.1-1.1,10.4V45h-6.4v6.8h6.4v12.8l8.7,5.3V51.9h8.8V45h-8.8V14.7
							c0-2.5,0.2-4.1,0.5-4.8c0.3-0.7,0.8-1.3,1.5-1.7c0.7-0.4,1.7-0.6,3-0.6C951.2,7.5,952.5,7.6,954.1,7.9z"/>
					</g>
					<g>
						<path id="ArialMT-65_00000117669852749354924750000002309939874228164794_" d="M998.2,16.7l9.1-1.1c-1.4-5.3-4.1-9.4-8-12.4
							c-3.9-2.9-8.8-4.4-14.8-4.4c-7.6,0-13.6,2.3-18,7c-4.4,4.7-6.7,11.2-6.7,19.7c0,8.7,2.2,15.5,6.7,20.3
							C971,50.6,976.8,53,984,53c6.9,0,12.6-2.4,17-7.1c4.4-4.7,6.6-11.4,6.6-19.9c0-0.5,0-1.3,0-2.3h-38.7
							c0.3-5.7,1.9-10.1,4.8-13.1c2.9-3,6.5-4.5,10.8-4.5c3.2,0,6,0.8,8.2,2.5C995.1,10.3,996.9,13,998.2,16.7z M969.3,30.9h29
							c-0.4,4.4-1.5,7.6-3.3,9.8c-2.8,3.4-6.4,5.1-10.9,5.1c-4,0-7.4-1.3-10.2-4S969.6,35.4,969.3,30.9z"/>
					</g>
					<g>
						<path id="ArialMT-6e" d="M1018.3,0v51.9h7.9v-7.4c3.8,5.7,9.3,8.5,16.5,8.5c3.1,0,6-0.6,8.6-1.7s4.6-2.6,5.9-4.4
							c1.3-1.8,2.2-4,2.7-6.5c0.3-1.6,0.5-4.5,0.5-8.5V0h-8.8v31.5c0,3.6-0.3,6.3-1,8c-0.7,1.8-1.9,3.2-3.6,4.2
							c-1.7,1.1-3.8,1.6-6.1,1.6c-3.8,0-7-1.2-9.7-3.6s-4.1-6.9-4.1-13.5V0H1018.3z"/>
					</g>
					<g>
						<path id="ArialMT-74_00000020375866651588591240000016501850130933195181_" d="M1093.1,7.9l1.3-7.8c-2.5-0.5-4.7-0.8-6.6-0.8
							c-3.2,0-5.7,0.5-7.4,1.5c-1.8,1-3,2.3-3.7,4s-1.1,5.1-1.1,10.4V45h-6.4v6.8h6.4v12.8l8.7,5.3V51.9h8.8V45h-8.8V14.7
							c0-2.5,0.2-4.1,0.5-4.8c0.3-0.7,0.8-1.3,1.5-1.7c0.7-0.4,1.7-0.6,3-0.6C1090.2,7.5,1091.5,7.6,1093.1,7.9z"/>
					</g>
					<g>
						<path id="ArialMT-20_00000034778696310538314540000009313138553519639988_" d="M1095.1,0"/>
					</g>
					<g>
						<path id="ArialMT-73_00000180331041149354454460000007375683549973275055_" d="M1126,15.5l8.7,1.4c0.5-3.5,1.8-6.1,4.1-8
							c2.2-1.9,5.3-2.8,9.4-2.8c4,0,7,0.8,9,2.5c2,1.6,2.9,3.6,2.9,5.8c0,2-0.9,3.5-2.6,4.7c-1.2,0.8-4.2,1.8-9,3
							c-6.4,1.6-10.9,3-13.4,4.2c-2.5,1.2-4.4,2.8-5.7,4.9c-1.3,2.1-1.9,4.4-1.9,7c0,2.3,0.5,4.4,1.6,6.4c1.1,2,2.5,3.6,4.3,4.9
							c1.4,1,3.2,1.8,5.6,2.5c2.4,0.7,4.9,1.1,7.6,1.1c4.1,0,7.6-0.6,10.7-1.8c3.1-1.2,5.4-2.8,6.8-4.8c1.5-2,2.5-4.7,3-8l-8.6-1.2
							c-0.4,2.7-1.5,4.7-3.4,6.2c-1.9,1.5-4.5,2.2-7.9,2.2c-4,0-6.9-0.7-8.6-2c-1.7-1.3-2.6-2.9-2.6-4.7c0-1.1,0.4-2.2,1.1-3.1
							c0.7-0.9,1.8-1.7,3.4-2.3c0.9-0.3,3.5-1.1,7.8-2.2c6.2-1.7,10.6-3,13-4.1c2.5-1.1,4.4-2.6,5.8-4.6c1.4-2,2.1-4.5,2.1-7.5
							c0-2.9-0.9-5.7-2.6-8.3c-1.7-2.6-4.2-4.6-7.4-6c-3.2-1.4-6.9-2.1-10.9-2.1c-6.7,0-11.9,1.4-15.4,4.2S1127,10,1126,15.5z"/>
					</g>
					<g>
						<path id="ArialMT-70" d="M1179.5-19.9v71.7h8v-6.7c1.9,2.6,4,4.6,6.4,5.9c2.4,1.3,5.3,2,8.6,2c4.4,0,8.3-1.1,11.7-3.4
							c3.4-2.3,5.9-5.5,7.7-9.7c1.7-4.1,2.6-8.7,2.6-13.6c0-5.3-1-10.1-2.9-14.3c-1.9-4.2-4.7-7.5-8.3-9.8
							c-3.6-2.3-7.4-3.4-11.5-3.4c-2.9,0-5.6,0.6-7.9,1.9c-2.3,1.2-4.2,2.8-5.7,4.7v-25.2H1179.5z M1187.4,25.6
							c0-6.7,1.3-11.6,4-14.8c2.7-3.2,6-4.8,9.8-4.8c3.9,0,7.2,1.7,10,5s4.2,8.4,4.2,15.4c0,6.6-1.4,11.5-4.1,14.8
							c-2.7,3.3-6,4.9-9.7,4.9c-3.8,0-7.1-1.8-10-5.2C1188.9,37.4,1187.4,32.3,1187.4,25.6z"/>
					</g>
					<g>
						<path id="ArialMT-61_00000119089224246309533170000007002213197624931748_" d="M1269,6.4c-3.3-2.8-6.4-4.7-9.4-5.9
							c-3-1.1-6.2-1.7-9.7-1.7c-5.7,0-10.1,1.4-13.1,4.2s-4.6,6.3-4.6,10.7c0,2.5,0.6,4.9,1.7,7c1.2,2.1,2.7,3.8,4.5,5.1
							s4,2.2,6.3,2.9c1.7,0.5,4.3,0.9,7.8,1.3c7.1,0.8,12.3,1.8,15.7,3c0,1.2,0,2,0,2.3c0,3.6-0.8,6.1-2.5,7.6c-2.2,2-5.6,3-10,3
							c-4.1,0-7.2-0.7-9.2-2.2s-3.4-4-4.4-7.7l-8.6,1.2c0.8,3.7,2.1,6.6,3.9,8.9c1.8,2.3,4.4,4,7.8,5.2c3.4,1.2,7.3,1.8,11.8,1.8
							c4.4,0,8-0.5,10.8-1.6c2.8-1,4.8-2.4,6.1-3.9c1.3-1.6,2.2-3.6,2.7-6c0.3-1.5,0.4-4.2,0.4-8.1V21.7c0-8.2,0.2-13.3,0.6-15.5
							c0.4-2.2,1.1-4.2,2.2-6.2h-9.2C1269.8,1.8,1269.2,4,1269,6.4z M1268.2,26c-3.2-1.3-8-2.4-14.4-3.3c-3.6-0.5-6.2-1.1-7.7-1.8
							c-1.5-0.6-2.6-1.6-3.5-2.8c-0.8-1.2-1.2-2.6-1.2-4.2c0-2.3,0.9-4.3,2.7-5.9c1.8-1.6,4.4-2.3,7.8-2.3c3.4,0,6.4,0.7,9,2.2
							c2.6,1.5,4.6,3.5,5.8,6.1c0.9,2,1.4,4.9,1.4,8.8V26z"/>
					</g>
					<g>
						<path id="ArialMT-63" d="M1324.6,19l8.6-1.1c-0.9-6-3.4-10.6-7.3-14c-3.9-3.4-8.7-5-14.3-5c-7.1,0-12.8,2.3-17.1,7
							c-4.3,4.6-6.5,11.3-6.5,20c0,5.6,0.9,10.5,2.8,14.7c1.9,4.2,4.7,7.4,8.5,9.5c3.8,2.1,7.9,3.2,12.4,3.2
							c5.6,0,10.2-1.4,13.8-4.3c3.6-2.8,5.9-6.9,6.9-12.1l-8.5-1.3c-0.8,3.5-2.3,6.1-4.3,7.9c-2.1,1.8-4.6,2.6-7.5,2.6
							c-4.4,0-8-1.6-10.8-4.8c-2.8-3.2-4.1-8.2-4.1-15c0-7,1.3-12,4-15.2c2.7-3.2,6.2-4.7,10.5-4.7c3.4,0,6.3,1.1,8.6,3.2
							S1323.9,14.6,1324.6,19z"/>
					</g>
					<g>
						<path id="ArialMT-65_00000003814773423938148270000018220672570923979943_" d="M1376.2,16.7l9.1-1.1c-1.4-5.3-4.1-9.4-8-12.4
							c-3.9-2.9-8.8-4.4-14.8-4.4c-7.6,0-13.6,2.3-18,7c-4.4,4.7-6.7,11.2-6.7,19.7c0,8.7,2.2,15.5,6.7,20.3
							c4.5,4.8,10.3,7.2,17.5,7.2c6.9,0,12.6-2.4,17-7.1c4.4-4.7,6.6-11.4,6.6-19.9c0-0.5,0-1.3,0-2.3h-38.7
							c0.3-5.7,1.9-10.1,4.8-13.1c2.9-3,6.5-4.5,10.8-4.5c3.2,0,6,0.8,8.2,2.5C1373.1,10.3,1374.9,13,1376.2,16.7z M1347.4,30.9h29
							c-0.4,4.4-1.5,7.6-3.3,9.8c-2.8,3.4-6.4,5.1-10.9,5.1c-4,0-7.4-1.3-10.2-4S1347.7,35.4,1347.4,30.9z"/>
					</g>
				</g>
			</g>
		</g>
		<g id="matplotlib.axis_2">
			<g id="ytick_1">
				<g id="line2d_6">
					<g>
						<g>
							<path id="m5eacae4020" class="st17" d="M31.5,155.1H28"/>
						</g>
					</g>
				</g>
				<g id="text_7">
					<g transform="translate(12.778438 157.286735)scale(0.06 -0.06)">
						<g>
							<path id="ArialMT-30" d="M4.2,35.3c0,8.5,0.9,15.3,2.6,20.4c1.7,5.2,4.3,9.1,7.8,11.9c3.4,2.8,7.8,4.2,13,4.2
								c3.8,0,7.2-0.8,10.1-2.3c2.9-1.5,5.3-3.8,7.2-6.7c1.9-2.9,3.4-6.5,4.5-10.6c1.1-4.2,1.6-9.8,1.6-16.9
								c0-8.4-0.9-15.2-2.6-20.3c-1.7-5.2-4.3-9.1-7.7-12c-3.4-2.8-7.8-4.2-13-4.2c-6.9,0-12.3,2.5-16.2,7.4
								C6.5,12.2,4.2,21.9,4.2,35.3z M13.2,35.3c0-11.7,1.4-19.6,4.1-23.5C20.1,7.9,23.5,6,27.5,6c4,0,7.4,2,10.2,5.9
								s4.1,11.7,4.1,23.4c0,11.8-1.4,19.6-4.1,23.5c-2.8,3.9-6.2,5.8-10.3,5.8c-4,0-7.3-1.7-9.7-5.1C14.7,55.1,13.2,47.1,13.2,35.3
								z"/>
						</g>
						<g>
							<path id="ArialMT-2e" d="M64.7,0v10h10V0H64.7z"/>
						</g>
						<g>
							<path id="ArialMT-30_00000047738851698369562950000007597137852244741792_" d="M87.6,35.3c0,8.5,0.9,15.3,2.6,20.4
								c1.7,5.2,4.3,9.1,7.8,11.9c3.4,2.8,7.8,4.2,13,4.2c3.8,0,7.2-0.8,10.1-2.3c2.9-1.5,5.3-3.8,7.2-6.7c1.9-2.9,3.4-6.5,4.5-10.6
								c1.1-4.2,1.6-9.8,1.6-16.9c0-8.4-0.9-15.2-2.6-20.3c-1.7-5.2-4.3-9.1-7.7-12c-3.4-2.8-7.8-4.2-13-4.2
								c-6.9,0-12.3,2.5-16.2,7.4C89.9,12.2,87.6,21.9,87.6,35.3z M96.6,35.3c0-11.7,1.4-19.6,4.1-23.5c2.8-3.9,6.1-5.8,10.2-5.8
								c4,0,7.4,2,10.2,5.9s4.1,11.7,4.1,23.4c0,11.8-1.4,19.6-4.1,23.5c-2.8,3.9-6.2,5.8-10.3,5.8c-4,0-7.3-1.7-9.7-5.1
								C98.1,55.1,96.6,47.1,96.6,35.3z"/>
						</g>
						<g>
							<path id="ArialMT-34_00000128445615077726736880000002515216212612704154_" d="M171.3,0v17.1h-31.1v8.1L173,71.6h7.2V25.2
								h9.7v-8.1h-9.7V0H171.3z M171.3,25.2v32.3l-22.4-32.3H171.3z"/>
						</g>
					</g>
				</g>
			</g>
			<g id="ytick_2">
				<g id="line2d_7">
					<g>
						<g>
							<path id="m5eacae4020_00000013162497179883791400000017724886521901939358_" class="st17" d="M31.5,130.2H28"/>
						</g>
					</g>
				</g>
				<g id="text_8">
					<g transform="translate(12.778438 132.366958)scale(0.06 -0.06)">
						<g>
							<path id="ArialMT-30_00000022540673610749614280000012950465362130393783_" d="M4.2,35.3c0,8.5,0.9,15.3,2.6,20.4
								c1.7,5.2,4.3,9.1,7.8,11.9c3.4,2.8,7.8,4.2,13,4.2c3.8,0,7.2-0.8,10.1-2.3c2.9-1.5,5.3-3.8,7.2-6.7c1.9-2.9,3.4-6.5,4.5-10.6
								c1.1-4.2,1.6-9.8,1.6-16.9c0-8.4-0.9-15.2-2.6-20.3c-1.7-5.2-4.3-9.1-7.7-12c-3.4-2.8-7.8-4.2-13-4.2
								c-6.9,0-12.3,2.5-16.2,7.4C6.5,12.2,4.2,21.9,4.2,35.3z M13.2,35.3c0-11.7,1.4-19.6,4.1-23.5C20.1,7.9,23.5,6,27.5,6
								c4,0,7.4,2,10.2,5.9s4.1,11.7,4.1,23.4c0,11.8-1.4,19.6-4.1,23.5c-2.8,3.9-6.2,5.8-10.3,5.8c-4,0-7.3-1.7-9.7-5.1
								C14.7,55.1,13.2,47.1,13.2,35.3z"/>
						</g>
						<g>
							<path id="ArialMT-2e_00000153667570053430736270000015360748268498735750_" d="M64.7,0v10h10V0H64.7z"/>
						</g>
						<g>
							<path id="ArialMT-30_00000127723174560427090530000007088896247901484932_" d="M87.6,35.3c0,8.5,0.9,15.3,2.6,20.4
								c1.7,5.2,4.3,9.1,7.8,11.9c3.4,2.8,7.8,4.2,13,4.2c3.8,0,7.2-0.8,10.1-2.3c2.9-1.5,5.3-3.8,7.2-6.7c1.9-2.9,3.4-6.5,4.5-10.6
								c1.1-4.2,1.6-9.8,1.6-16.9c0-8.4-0.9-15.2-2.6-20.3c-1.7-5.2-4.3-9.1-7.7-12c-3.4-2.8-7.8-4.2-13-4.2
								c-6.9,0-12.3,2.5-16.2,7.4C89.9,12.2,87.6,21.9,87.6,35.3z M96.6,35.3c0-11.7,1.4-19.6,4.1-23.5c2.8-3.9,6.1-5.8,10.2-5.8
								c4,0,7.4,2,10.2,5.9s4.1,11.7,4.1,23.4c0,11.8-1.4,19.6-4.1,23.5c-2.8,3.9-6.2,5.8-10.3,5.8c-4,0-7.3-1.7-9.7-5.1
								C98.1,55.1,96.6,47.1,96.6,35.3z"/>
						</g>
						<g>
							<path id="ArialMT-36" d="M188.8,54l-8.7-0.7c-0.8,3.4-1.9,6-3.3,7.5c-2.4,2.5-5.3,3.8-8.8,3.8c-2.8,0-5.3-0.8-7.4-2.3
								c-2.8-2-4.9-5-6.5-8.8c-1.6-3.9-2.4-9.4-2.5-16.5c2.1,3.2,4.7,5.6,7.8,7.2s6.3,2.3,9.6,2.3c5.9,0,10.8-2.2,15-6.5
								c4.1-4.3,6.2-9.9,6.2-16.7c0-4.5-1-8.7-2.9-12.5s-4.6-6.8-8-8.9c-3.4-2.1-7.2-3.1-11.5-3.1c-7.3,0-13.3,2.7-17.9,8.1
								c-4.6,5.4-6.9,14.3-6.9,26.6c0,13.8,2.6,23.9,7.7,30.2c4.5,5.5,10.5,8.2,18,8.2c5.6,0,10.2-1.6,13.8-4.7
								C185.9,64,188.1,59.6,188.8,54z M152.9,23.2c0-3,0.6-5.9,1.9-8.7c1.3-2.8,3.1-4.9,5.4-6.3c2.3-1.4,4.7-2.2,7.3-2.2
								c3.7,0,6.9,1.5,9.6,4.5c2.7,3,4,7.1,4,12.2c0,4.9-1.3,8.8-4,11.7c-2.6,2.9-6,4.3-10,4.3c-4,0-7.3-1.4-10.1-4.3
								C154.3,31.5,152.9,27.8,152.9,23.2z"/>
						</g>
					</g>
				</g>
			</g>
			<g id="ytick_3">
				<g id="line2d_8">
					<g>
						<g>
							<path id="m5eacae4020_00000118383223192141520280000004245751408658856089_" class="st17" d="M31.5,105.3H28"/>
						</g>
					</g>
				</g>
				<g id="text_9">
					<g transform="translate(12.778438 107.447182)scale(0.06 -0.06)">
						<g>
							<path id="ArialMT-30_00000111899243817532465060000007326124017026422924_" d="M4.2,35.3c0,8.5,0.9,15.3,2.6,20.4
								c1.7,5.2,4.3,9.1,7.8,11.9c3.4,2.8,7.8,4.2,13,4.2c3.8,0,7.2-0.8,10.1-2.3c2.9-1.5,5.3-3.8,7.2-6.7c1.9-2.9,3.4-6.5,4.5-10.6
								c1.1-4.2,1.6-9.8,1.6-16.9c0-8.4-0.9-15.2-2.6-20.3c-1.7-5.2-4.3-9.1-7.7-12c-3.4-2.8-7.8-4.2-13-4.2
								c-6.9,0-12.3,2.5-16.2,7.4C6.5,12.2,4.2,21.9,4.2,35.3z M13.2,35.3c0-11.8,1.4-19.6,4.1-23.5C20.1,7.9,23.5,6,27.5,6
								c4,0,7.4,2,10.2,5.9s4.1,11.7,4.1,23.4c0,11.8-1.4,19.6-4.1,23.5c-2.8,3.9-6.2,5.8-10.3,5.8c-4,0-7.3-1.7-9.7-5.1
								C14.7,55.1,13.2,47.1,13.2,35.3z"/>
						</g>
						<g>
							<path id="ArialMT-2e_00000006665543935153310430000005312896652230463905_" d="M64.7,0v10h10V0H64.7z"/>
						</g>
						<g>
							<path id="ArialMT-30_00000155858678554199206670000005588820819129990574_" d="M87.6,35.3c0,8.5,0.9,15.3,2.6,20.4
								c1.7,5.2,4.3,9.1,7.8,11.9c3.4,2.8,7.8,4.2,13,4.2c3.8,0,7.2-0.8,10.1-2.3c2.9-1.5,5.3-3.8,7.2-6.7c1.9-2.9,3.4-6.5,4.5-10.6
								c1.1-4.2,1.6-9.8,1.6-16.9c0-8.4-0.9-15.2-2.6-20.3c-1.7-5.2-4.3-9.1-7.7-12c-3.4-2.8-7.8-4.2-13-4.2
								c-6.9,0-12.3,2.5-16.2,7.4C89.9,12.2,87.6,21.9,87.6,35.3z M96.6,35.3c0-11.8,1.4-19.6,4.1-23.5c2.8-3.9,6.1-5.8,10.2-5.8
								c4,0,7.4,2,10.2,5.9s4.1,11.7,4.1,23.4c0,11.8-1.4,19.6-4.1,23.5c-2.8,3.9-6.2,5.8-10.3,5.8c-4,0-7.3-1.7-9.7-5.1
								C98.1,55.1,96.6,47.1,96.6,35.3z"/>
						</g>
						<g>
							<path id="ArialMT-38" d="M156.7,38.8c-3.6,1.3-6.3,3.2-8.1,5.7c-1.8,2.5-2.6,5.4-2.6,8.9c0,5.2,1.9,9.6,5.6,13.1
								c3.8,3.6,8.7,5.3,14.9,5.3c6.2,0,11.3-1.8,15.1-5.5c3.8-3.6,5.7-8,5.7-13.2c0-3.3-0.9-6.2-2.6-8.7c-1.7-2.4-4.4-4.3-7.9-5.7
								c4.4-1.4,7.7-3.7,10-6.9c2.3-3.2,3.4-7,3.4-11.4c0-6.1-2.2-11.3-6.5-15.4c-4.3-4.2-10-6.2-17.1-6.2S153.9,0.9,149.6,5
								c-4.3,4.2-6.5,9.4-6.5,15.7c0,4.7,1.2,8.6,3.5,11.7C149,35.5,152.3,37.7,156.7,38.8z M154.9,53.7c0-3.4,1.1-6.2,3.3-8.3
								c2.2-2.1,5-3.2,8.5-3.2c3.4,0,6.2,1.1,8.3,3.2c2.2,2.1,3.2,4.8,3.2,7.8c0,3.2-1.1,5.9-3.4,8.1c-2.2,2.2-5,3.3-8.3,3.3
								c-3.4,0-6.1-1.1-8.4-3.2C156,59.3,154.9,56.7,154.9,53.7z M152.1,20.7c0-2.5,0.6-4.9,1.8-7.3s3-4.2,5.3-5.5
								c2.3-1.3,4.9-1.9,7.6-1.9c4.2,0,7.7,1.3,10.4,4c2.7,2.7,4.1,6.1,4.1,10.3c0,4.2-1.4,7.7-4.2,10.5s-6.3,4.2-10.6,4.2
								c-4.1,0-7.6-1.4-10.3-4.1C153.5,28.2,152.1,24.8,152.1,20.7z"/>
						</g>
					</g>
				</g>
			</g>
			<g id="ytick_4">
				<g id="line2d_9">
					<g>
						<g>
							<path id="m5eacae4020_00000094578255677414237960000004902704271576859033_" class="st17" d="M31.5,80.4H28"/>
						</g>
					</g>
				</g>
				<g id="text_10">
					<g transform="translate(12.778438 82.527405)scale(0.06 -0.06)">
						<g>
							<path id="ArialMT-30_00000103984423961283115270000014128331025217698733_" d="M4.2,35.3c0,8.5,0.9,15.3,2.6,20.4
								c1.7,5.2,4.3,9.1,7.8,11.9c3.4,2.8,7.8,4.2,13,4.2c3.8,0,7.2-0.8,10.1-2.3c2.9-1.5,5.3-3.8,7.2-6.7c1.9-2.9,3.4-6.5,4.5-10.6
								c1.1-4.2,1.6-9.8,1.6-16.9c0-8.4-0.9-15.2-2.6-20.3c-1.7-5.2-4.3-9.1-7.7-12c-3.4-2.8-7.8-4.2-13-4.2
								c-6.9,0-12.3,2.5-16.2,7.4C6.5,12.2,4.2,21.9,4.2,35.3z M13.2,35.3c0-11.8,1.4-19.6,4.1-23.5C20.1,7.9,23.5,6,27.5,6
								c4,0,7.4,2,10.2,5.9s4.1,11.7,4.1,23.4c0,11.8-1.4,19.6-4.1,23.5c-2.8,3.9-6.2,5.8-10.3,5.8c-4,0-7.3-1.7-9.7-5.1
								C14.7,55.1,13.2,47.1,13.2,35.3z"/>
						</g>
						<g>
							<path id="ArialMT-2e_00000080900971324886806330000002935993436698174113_" d="M64.7,0v10h10V0H64.7z"/>
						</g>
						<g>
							<path id="ArialMT-31_00000104690886834328105430000008300484088483820710_" d="M120.6,0h-8.8v56c-2.1-2-4.9-4-8.3-6
								s-6.5-3.5-9.2-4.5v8.5c4.9,2.3,9.2,5.1,12.9,8.4c3.7,3.3,6.3,6.5,7.8,9.6h5.7V0z"/>
						</g>
						<g>
							<path id="ArialMT-30_00000073692289714396435240000007837340242498951052_" d="M143.2,35.3c0,8.5,0.9,15.3,2.6,20.4
								c1.7,5.2,4.3,9.1,7.8,11.9c3.4,2.8,7.8,4.2,13,4.2c3.8,0,7.2-0.8,10.1-2.3c2.9-1.5,5.3-3.8,7.2-6.7c1.9-2.9,3.4-6.5,4.5-10.6
								c1.1-4.2,1.6-9.8,1.6-16.9c0-8.4-0.9-15.2-2.6-20.3c-1.7-5.2-4.3-9.1-7.7-12c-3.4-2.8-7.8-4.2-13-4.2
								c-6.9,0-12.3,2.5-16.2,7.4C145.5,12.2,143.2,21.9,143.2,35.3z M152.2,35.3c0-11.8,1.4-19.6,4.1-23.5
								c2.8-3.9,6.1-5.8,10.2-5.8c4,0,7.4,2,10.2,5.9s4.1,11.7,4.1,23.4c0,11.8-1.4,19.6-4.1,23.5c-2.8,3.9-6.2,5.8-10.3,5.8
								c-4,0-7.3-1.7-9.7-5.1C153.7,55.1,152.2,47.1,152.2,35.3z"/>
						</g>
					</g>
				</g>
			</g>
			<g id="ytick_5">
				<g id="line2d_10">
					<g>
						<g>
							<path id="m5eacae4020_00000008123610474223105420000004820079094698254757_" class="st17" d="M31.5,55.5H28"/>
						</g>
					</g>
				</g>
				<g id="text_11">
					<g transform="translate(12.778438 57.607629)scale(0.06 -0.06)">
						<g>
							<path id="ArialMT-30_00000096747525890741314210000002240668604833194658_" d="M4.2,35.3c0,8.5,0.9,15.3,2.6,20.4
								c1.7,5.2,4.3,9.1,7.8,11.9c3.4,2.8,7.8,4.2,13,4.2c3.8,0,7.2-0.8,10.1-2.3c2.9-1.5,5.3-3.8,7.2-6.7c1.9-2.9,3.4-6.5,4.5-10.6
								c1.1-4.2,1.6-9.8,1.6-16.9c0-8.4-0.9-15.2-2.6-20.3c-1.7-5.2-4.3-9.1-7.7-12c-3.4-2.8-7.8-4.2-13-4.2
								c-6.9,0-12.3,2.5-16.2,7.4C6.5,12.2,4.2,21.9,4.2,35.3z M13.2,35.3c0-11.7,1.4-19.6,4.1-23.5C20.1,7.9,23.5,6,27.5,6
								c4,0,7.4,2,10.2,5.9s4.1,11.7,4.1,23.4c0,11.8-1.4,19.6-4.1,23.5c-2.8,3.9-6.2,5.8-10.3,5.8c-4,0-7.3-1.7-9.7-5.1
								C14.7,55.1,13.2,47.1,13.2,35.3z"/>
						</g>
						<g>
							<path id="ArialMT-2e_00000036969107459348446260000007621121378720364679_" d="M64.7,0v10h10V0H64.7z"/>
						</g>
						<g>
							<path id="ArialMT-31_00000099631856768651259150000008075881565150966437_" d="M120.6,0h-8.8v56c-2.1-2-4.9-4-8.3-6
								s-6.5-3.5-9.2-4.5v8.5c4.9,2.3,9.2,5.1,12.9,8.4c3.7,3.3,6.3,6.5,7.8,9.6h5.7V0z"/>
						</g>
						<g>
							<path id="ArialMT-32_00000028315019405817755960000018089869488460737668_" d="M189.4,8.5V0H142c-0.1,2.1,0.3,4.2,1,6.1
								c1.2,3.2,3.1,6.4,5.8,9.5c2.7,3.1,6.5,6.7,11.5,10.8c7.8,6.4,13,11.4,15.8,15.2c2.7,3.7,4.1,7.3,4.1,10.6
								c0,3.5-1.2,6.4-3.8,8.8c-2.5,2.4-5.7,3.6-9.7,3.6c-4.2,0-7.6-1.3-10.2-3.8c-2.5-2.5-3.8-6-3.9-10.5l-9,0.9
								c0.6,6.7,2.9,11.9,7,15.4c4,3.5,9.5,5.3,16.3,5.3c6.9,0,12.3-1.9,16.3-5.7c4-3.8,6-8.5,6-14.2c0-2.9-0.6-5.7-1.8-8.5
								c-1.2-2.8-3.1-5.7-5.8-8.7s-7.2-7.3-13.5-12.6c-5.3-4.4-8.7-7.4-10.2-9c-1.5-1.6-2.7-3.2-3.7-4.8H189.4z"/>
						</g>
					</g>
				</g>
			</g>
			<g id="ytick_6">
				<g id="line2d_11">
					<g>
						<g>
							<path id="m5eacae4020_00000014624953265628922370000009888811560837779107_" class="st17" d="M31.5,30.5H28"/>
						</g>
					</g>
				</g>
				<g id="text_12">
					<g transform="translate(12.778438 32.687852)scale(0.06 -0.06)">
						<g>
							<path id="ArialMT-30_00000066499458054713295910000018402042705600264335_" d="M4.2,35.3c0,8.5,0.9,15.3,2.6,20.4
								c1.7,5.2,4.3,9.1,7.8,11.9c3.4,2.8,7.8,4.2,13,4.2c3.8,0,7.2-0.8,10.1-2.3c2.9-1.5,5.3-3.8,7.2-6.7c1.9-2.9,3.4-6.5,4.5-10.6
								c1.1-4.2,1.6-9.8,1.6-16.9c0-8.4-0.9-15.2-2.6-20.3c-1.7-5.2-4.3-9.1-7.7-12c-3.4-2.8-7.8-4.2-13-4.2
								c-6.9,0-12.3,2.5-16.2,7.4C6.5,12.2,4.2,21.9,4.2,35.3z M13.2,35.3c0-11.8,1.4-19.6,4.1-23.5C20.1,7.9,23.5,6,27.5,6
								c4,0,7.4,2,10.2,5.9s4.1,11.7,4.1,23.4c0,11.8-1.4,19.6-4.1,23.5c-2.8,3.9-6.2,5.8-10.3,5.8c-4,0-7.3-1.7-9.7-5.1
								C14.7,55.1,13.2,47.1,13.2,35.3z"/>
						</g>
						<g>
							<path id="ArialMT-2e_00000042726725136668610610000001724334853151830404_" d="M64.7,0v10h10V0H64.7z"/>
						</g>
						<g>
							<path id="ArialMT-31_00000057860734523040956510000004943409710470288557_" d="M120.6,0h-8.8v56c-2.1-2-4.9-4-8.3-6
								s-6.5-3.5-9.2-4.5v8.5c4.9,2.3,9.2,5.1,12.9,8.4c3.7,3.3,6.3,6.5,7.8,9.6h5.7V0z"/>
						</g>
						<g>
							<path id="ArialMT-34_00000057829935567029521630000018079665571197209783_" d="M171.3,0v17.1h-31.1v8.1L173,71.6h7.2V25.2
								h9.7v-8.1h-9.7V0H171.3z M171.3,25.2v32.3l-22.4-32.3H171.3z"/>
						</g>
					</g>
				</g>
			</g>
			<g id="text_13">
				<g transform="translate(7.585938 121.350394)rotate(-90)scale(0.06 -0.06)">
					<g>
						<path id="ArialMT-4d" d="M7.4,0v71.6h14.3l16.9-50.7c1.6-4.7,2.7-8.3,3.4-10.6c0.8,2.6,2.1,6.4,3.8,11.5L63,71.6h12.7V0h-9.1
							v59.9L45.8,0h-8.5L16.5,60.9V0H7.4z"/>
					</g>
					<g>
						<path id="ArialMT-61_00000158017383688983929330000011105764155336879760_" d="M123.7,6.4c-3.3-2.8-6.4-4.7-9.4-5.9
							c-3-1.1-6.2-1.7-9.7-1.7c-5.7,0-10.1,1.4-13.1,4.2s-4.6,6.3-4.6,10.7c0,2.5,0.6,4.9,1.7,7c1.2,2.1,2.7,3.8,4.5,5.1
							s4,2.2,6.3,2.9c1.7,0.5,4.3,0.9,7.8,1.3c7.1,0.8,12.3,1.8,15.7,3c0,1.2,0,2,0,2.3c0,3.6-0.8,6.1-2.5,7.6c-2.2,2-5.6,3-10,3
							c-4.1,0-7.2-0.7-9.2-2.2s-3.4-4-4.4-7.7l-8.6,1.2c0.8,3.7,2.1,6.6,3.9,8.9c1.8,2.3,4.4,4,7.8,5.2c3.4,1.2,7.3,1.8,11.8,1.8
							c4.4,0,8-0.5,10.8-1.6c2.8-1,4.8-2.4,6.1-3.9c1.3-1.6,2.2-3.6,2.7-6c0.3-1.5,0.4-4.2,0.4-8.1V21.7c0-8.2,0.2-13.3,0.6-15.5
							c0.4-2.2,1.1-4.2,2.2-6.2h-9.2C124.6,1.8,124,4,123.7,6.4z M123,26c-3.2-1.3-8-2.4-14.4-3.3c-3.6-0.5-6.2-1.1-7.7-1.8
							c-1.5-0.6-2.6-1.6-3.5-2.8c-0.8-1.2-1.2-2.6-1.2-4.2c0-2.3,0.9-4.3,2.7-5.9c1.8-1.6,4.4-2.3,7.8-2.3c3.4,0,6.4,0.7,9,2.2
							c2.6,1.5,4.6,3.5,5.8,6.1c0.9,2,1.4,4.9,1.4,8.8V26z"/>
					</g>
					<g>
						<path id="ArialMT-68" d="M145.5,0v71.6h8.8V45.9c4.1,4.8,9.3,7.1,15.5,7.1c3.8,0,7.2-0.8,10-2.3c2.8-1.5,4.9-3.6,6.1-6.3
							s1.8-6.5,1.8-11.6V0H179v32.9c0,4.4-1,7.6-2.9,9.6s-4.6,3-8.1,3c-2.6,0-5.1-0.7-7.4-2c-2.3-1.3-3.9-3.2-4.9-5.5
							c-1-2.3-1.5-5.5-1.5-9.6V0H145.5z"/>
					</g>
					<g>
						<path id="ArialMT-61_00000147930418370076966890000013058432335947724705_" d="M235,6.4c-3.3-2.8-6.4-4.7-9.4-5.9
							c-3-1.1-6.2-1.7-9.7-1.7c-5.7,0-10.1,1.4-13.1,4.2s-4.6,6.3-4.6,10.7c0,2.5,0.6,4.9,1.7,7c1.2,2.1,2.7,3.8,4.5,5.1
							s4,2.2,6.3,2.9c1.7,0.5,4.3,0.9,7.8,1.3c7.1,0.8,12.3,1.8,15.7,3c0,1.2,0,2,0,2.3c0,3.6-0.8,6.1-2.5,7.6c-2.2,2-5.6,3-10,3
							c-4.1,0-7.2-0.7-9.2-2.2s-3.4-4-4.4-7.7l-8.6,1.2c0.8,3.7,2.1,6.6,3.9,8.9c1.8,2.3,4.4,4,7.8,5.2c3.4,1.2,7.3,1.8,11.8,1.8
							c4.4,0,8-0.5,10.8-1.6c2.8-1,4.8-2.4,6.1-3.9c1.3-1.6,2.2-3.6,2.7-6c0.3-1.5,0.4-4.2,0.4-8.1V21.7c0-8.2,0.2-13.3,0.6-15.5
							c0.4-2.2,1.1-4.2,2.2-6.2h-9.2C235.8,1.8,235.2,4,235,6.4z M234.2,26c-3.2-1.3-8-2.4-14.4-3.3c-3.6-0.5-6.2-1.1-7.7-1.8
							c-1.5-0.6-2.6-1.6-3.5-2.8c-0.8-1.2-1.2-2.6-1.2-4.2c0-2.3,0.9-4.3,2.7-5.9c1.8-1.6,4.4-2.3,7.8-2.3c3.4,0,6.4,0.7,9,2.2
							c2.6,1.5,4.6,3.5,5.8,6.1c0.9,2,1.4,4.9,1.4,8.8V26z"/>
					</g>
					<g>
						<path id="ArialMT-62_00000099623972201394477430000015275158446186382006_" d="M264.8,0h-8.2v71.6h8.8V46
							c3.7,4.7,8.5,7,14.2,7c3.2,0,6.2-0.6,9-1.9c2.9-1.3,5.2-3.1,7-5.4c1.8-2.3,3.3-5.1,4.3-8.4c1-3.3,1.6-6.8,1.6-10.5
							c0-8.9-2.2-15.8-6.6-20.6c-4.4-4.8-9.7-7.3-15.8-7.3c-6.1,0-10.9,2.6-14.4,7.7V0z M264.7,26.3c0-6.2,0.8-10.7,2.5-13.5
							c2.8-4.5,6.5-6.8,11.2-6.8c3.8,0,7.2,1.7,10,5c2.8,3.3,4.2,8.3,4.2,14.9c0,6.8-1.3,11.8-4,15s-5.9,4.8-9.7,4.8
							c-3.8,0-7.2-1.7-10-5C266.1,37.5,264.7,32.6,264.7,26.3z"/>
					</g>
					<g>
						<path id="ArialMT-20_00000136371304187011672010000007619810038543746980_" d="M305.8,0"/>
					</g>
					<g>
						<path id="ArialMT-64_00000119102911510647921410000003168450326650917767_" d="M373.8,0v6.5c-3.3-5.1-8.1-7.7-14.5-7.7
							c-4.1,0-7.9,1.1-11.4,3.4s-6.2,5.5-8.1,9.5c-1.9,4.1-2.8,8.8-2.8,14.1c0,5.2,0.9,9.9,2.6,14.1c1.7,4.2,4.3,7.4,7.8,9.7
							c3.5,2.2,7.3,3.4,11.6,3.4c3.1,0,5.9-0.7,8.3-2c2.4-1.3,4.4-3,6-5.1v25.7h8.7V0H373.8z M346,25.9c0-6.6,1.4-11.6,4.2-14.9
							c2.8-3.3,6.1-4.9,9.9-4.9c3.8,0,7.1,1.6,9.8,4.7c2.7,3.1,4,7.9,4,14.4c0,7.1-1.4,12.3-4.1,15.6c-2.7,3.3-6.1,5-10.1,5
							c-3.9,0-7.2-1.6-9.8-4.8C347.3,37.8,346,32.8,346,25.9z"/>
					</g>
					<g>
						<path id="ArialMT-69_00000083800906564615639160000011517929234559235498_" d="M395.8,61.5v10.1h8.8V61.5H395.8z M395.8,0
							v51.9h8.8V0H395.8z"/>
					</g>
					<g>
						<path id="ArialMT-73_00000124141248309999144240000004876093944838902440_" d="M414.5,15.5l8.7,1.4c0.5-3.5,1.8-6.1,4.1-8
							c2.2-1.9,5.3-2.8,9.4-2.8c4,0,7,0.8,9,2.5c2,1.6,2.9,3.6,2.9,5.8c0,2-0.9,3.5-2.6,4.7c-1.2,0.8-4.2,1.8-9,3
							c-6.4,1.6-10.9,3-13.4,4.2c-2.5,1.2-4.4,2.8-5.7,4.9c-1.3,2.1-1.9,4.4-1.9,7c0,2.3,0.5,4.4,1.6,6.4c1.1,2,2.5,3.6,4.3,4.9
							c1.4,1,3.2,1.8,5.6,2.5c2.4,0.7,4.9,1.1,7.6,1.1c4.1,0,7.6-0.6,10.7-1.8c3.1-1.2,5.4-2.8,6.8-4.8c1.5-2,2.5-4.7,3-8l-8.6-1.2
							c-0.4,2.7-1.5,4.7-3.4,6.2c-1.9,1.5-4.5,2.2-7.9,2.2c-4,0-6.9-0.7-8.6-2c-1.7-1.3-2.6-2.9-2.6-4.7c0-1.1,0.4-2.2,1.1-3.1
							c0.7-0.9,1.8-1.7,3.4-2.3c0.9-0.3,3.5-1.1,7.8-2.2c6.2-1.7,10.6-3,13-4.1c2.5-1.1,4.4-2.6,5.8-4.6c1.4-2,2.1-4.5,2.1-7.5
							c0-2.9-0.9-5.7-2.6-8.3c-1.7-2.6-4.2-4.6-7.4-6c-3.2-1.4-6.9-2.1-10.9-2.1c-6.7,0-11.9,1.4-15.4,4.2S415.4,10,414.5,15.5z"/>
					</g>
					<g>
						<path id="ArialMT-74_00000046317494617132690730000007928924337133014428_" d="M487.2,7.9l1.3-7.8c-2.5-0.5-4.7-0.8-6.6-0.8
							c-3.2,0-5.7,0.5-7.4,1.5c-1.8,1-3,2.3-3.7,4s-1.1,5.1-1.1,10.4V45h-6.4v6.8h6.4v12.8l8.7,5.3V51.9h8.8V45h-8.8V14.7
							c0-2.5,0.2-4.1,0.5-4.8c0.3-0.7,0.8-1.3,1.5-1.7c0.7-0.4,1.7-0.6,3-0.6C484.3,7.5,485.6,7.6,487.2,7.9z"/>
					</g>
					<g>
						<path id="ArialMT-61_00000072253652547700352260000007000578264911236798_" d="M529.6,6.4c-3.3-2.8-6.4-4.7-9.4-5.9
							c-3-1.1-6.2-1.7-9.7-1.7c-5.7,0-10.1,1.4-13.1,4.2s-4.6,6.3-4.6,10.7c0,2.5,0.6,4.9,1.7,7c1.2,2.1,2.7,3.8,4.5,5.1
							s4,2.2,6.3,2.9c1.7,0.5,4.3,0.9,7.8,1.3c7.1,0.8,12.3,1.8,15.7,3c0,1.2,0,2,0,2.3c0,3.6-0.8,6.1-2.5,7.6c-2.2,2-5.6,3-10,3
							c-4.1,0-7.2-0.7-9.2-2.2s-3.4-4-4.4-7.7l-8.6,1.2c0.8,3.7,2.1,6.6,3.9,8.9c1.8,2.3,4.4,4,7.8,5.2c3.4,1.2,7.3,1.8,11.8,1.8
							c4.4,0,8-0.5,10.8-1.6c2.8-1,4.8-2.4,6.1-3.9c1.3-1.6,2.2-3.6,2.7-6c0.3-1.5,0.4-4.2,0.4-8.1V21.7c0-8.2,0.2-13.3,0.6-15.5
							c0.4-2.2,1.1-4.2,2.2-6.2h-9.2C530.4,1.8,529.9,4,529.6,6.4z M528.9,26c-3.2-1.3-8-2.4-14.4-3.3c-3.6-0.5-6.2-1.1-7.7-1.8
							c-1.5-0.6-2.6-1.6-3.5-2.8c-0.8-1.2-1.2-2.6-1.2-4.2c0-2.3,0.9-4.3,2.7-5.9c1.8-1.6,4.4-2.3,7.8-2.3c3.4,0,6.4,0.7,9,2.2
							c2.6,1.5,4.6,3.5,5.8,6.1c0.9,2,1.4,4.9,1.4,8.8V26z"/>
					</g>
					<g>
						<path id="ArialMT-6e_00000049929371063143187920000008078648063740216198_" d="M551.4,0v51.9h7.9v-7.4
							c3.8,5.7,9.3,8.5,16.5,8.5c3.1,0,6-0.6,8.6-1.7s4.6-2.6,5.9-4.4c1.3-1.8,2.2-4,2.7-6.5c0.3-1.6,0.5-4.5,0.5-8.5V0h-8.8v31.5
							c0,3.6-0.3,6.3-1,8c-0.7,1.8-1.9,3.2-3.6,4.2c-1.7,1.1-3.8,1.6-6.1,1.6c-3.8,0-7-1.2-9.7-3.6s-4.1-6.9-4.1-13.5V0H551.4z"/>
					</g>
					<g>
						<path id="ArialMT-63_00000059267733833616091380000008068460625621657783_" d="M640.8,19l8.6-1.1c-0.9-6-3.4-10.6-7.3-14
							c-3.9-3.4-8.7-5-14.3-5c-7.1,0-12.8,2.3-17.1,7c-4.3,4.6-6.5,11.3-6.5,20c0,5.6,0.9,10.5,2.8,14.7c1.9,4.2,4.7,7.4,8.5,9.5
							c3.8,2.1,7.9,3.2,12.4,3.2c5.6,0,10.2-1.4,13.8-4.3c3.6-2.8,5.9-6.9,6.9-12.1l-8.5-1.3c-0.8,3.5-2.3,6.1-4.3,7.9
							c-2.1,1.8-4.6,2.6-7.5,2.6c-4.4,0-8-1.6-10.8-4.8c-2.8-3.2-4.1-8.2-4.1-15c0-7,1.3-12,4-15.2c2.7-3.2,6.2-4.7,10.5-4.7
							c3.4,0,6.3,1.1,8.6,3.2S640.2,14.6,640.8,19z"/>
					</g>
					<g>
						<path id="ArialMT-65_00000138550352411619595120000017837780107370628225_" d="M692.5,16.7l9.1-1.1c-1.4-5.3-4.1-9.4-8-12.4
							c-3.9-2.9-8.8-4.4-14.8-4.4c-7.6,0-13.6,2.3-18,7c-4.4,4.7-6.7,11.2-6.7,19.7c0,8.7,2.2,15.5,6.7,20.3
							c4.5,4.8,10.3,7.2,17.5,7.2c6.9,0,12.6-2.4,17-7.1c4.4-4.7,6.6-11.4,6.6-19.9c0-0.5,0-1.3,0-2.3h-38.7
							c0.3-5.7,1.9-10.1,4.8-13.1c2.9-3,6.5-4.5,10.8-4.5c3.2,0,6,0.8,8.2,2.5C689.3,10.3,691.2,13,692.5,16.7z M663.6,30.9h29
							c-0.4,4.4-1.5,7.6-3.3,9.8c-2.8,3.4-6.4,5.1-10.9,5.1c-4,0-7.4-1.3-10.2-4S663.9,35.4,663.6,30.9z"/>
					</g>
				</g>
			</g>
		</g>
		<g id="line2d_12">
			<g>
				<defs>
					<rect id="SVGID_00000044165590076585607040000006373104816157675937_" x="31.5" y="23.8" width="195" height="152.7"/>
				</defs>
				<clipPath id="SVGID_00000075162560912000588040000010179197113430429584_">
					<use xlink:href="#SVGID_00000044165590076585607040000006373104816157675937_"  style="overflow:visible;"/>
				</clipPath>
				
					<path style="clip-path:url(#SVGID_00000075162560912000588040000010179197113430429584_);fill:none;stroke:#000000;stroke-width:1.5;stroke-linecap:square;stroke-linejoin:round;" d="
					M40.3,129.1l44.3-22.9L129,83.2l44.3-22.9l44.3-22.9"/>
			</g>
		</g>
		<g id="patch_3">
			<path class="st19" d="M31.5,176.5V23.8"/>
		</g>
		<g id="patch_4">
			<path class="st19" d="M226.5,176.5V23.8"/>
		</g>
		<g id="patch_5">
			<path class="st19" d="M31.5,176.5h195"/>
		</g>
		<g id="patch_6">
			<path class="st19" d="M31.5,23.8h195"/>
		</g>
	</g>
</g>
</svg>
