<?xml version="1.0" encoding="utf-8"?>
<!-- Generator: Adobe Illustrator 26.4.1, SVG Export Plug-In . SVG Version: 6.00 Build 0)  -->
<svg version="1.1" id="Layer_1" xmlns="http://www.w3.org/2000/svg" xmlns:xlink="http://www.w3.org/1999/xlink" x="0px" y="0px"
	 viewBox="0 0 153.6 104.6" style="enable-background:new 0 0 153.6 104.6;" xml:space="preserve">
<style type="text/css">
	.st0{fill:#FFFFFF;}
	.st1{stroke:#000000;stroke-width:0.8;stroke-linejoin:round;}
	
		.st2{clip-path:url(#SVGID_00000058548978780092695590000007735870367883536315_);fill:none;stroke:#000000;stroke-linecap:square;stroke-linejoin:round;}
	
		.st3{clip-path:url(#SVGID_00000129923671745752558160000008779527481926163865_);fill:none;stroke:#000000;stroke-linecap:square;stroke-linejoin:round;}
	
		.st4{clip-path:url(#SVGID_00000078745330439856277430000007627324621215878583_);fill:none;stroke:#000000;stroke-linecap:square;stroke-linejoin:round;}
	
		.st5{clip-path:url(#SVGID_00000040546578029985589610000002660247751075885450_);fill:none;stroke:#000000;stroke-linecap:square;stroke-linejoin:round;}
	
		.st6{clip-path:url(#SVGID_00000018214146473411736060000015871974436940661150_);fill:none;stroke:#000000;stroke-linecap:square;stroke-linejoin:round;}
	
		.st7{clip-path:url(#SVGID_00000083801709720521630850000018316994396227581373_);fill:none;stroke:#000000;stroke-linecap:square;stroke-linejoin:round;}
	
		.st8{clip-path:url(#SVGID_00000012450437808409351400000007823970218167264664_);fill:none;stroke:#000000;stroke-linecap:square;stroke-linejoin:round;}
	
		.st9{clip-path:url(#SVGID_00000054973959356670553750000005948207537020221593_);fill:none;stroke:#000000;stroke-linecap:square;stroke-linejoin:round;}
	
		.st10{clip-path:url(#SVGID_00000134248774967325734650000001654107412317940145_);fill:none;stroke:#000000;stroke-linecap:square;stroke-linejoin:round;}
	
		.st11{clip-path:url(#SVGID_00000089553522334020482900000008282523923371131526_);fill:none;stroke:#000000;stroke-linecap:square;stroke-linejoin:round;}
	
		.st12{clip-path:url(#SVGID_00000156583145455578188480000001162431629091619775_);fill:none;stroke:#000000;stroke-linecap:square;stroke-linejoin:round;}
	
		.st13{clip-path:url(#SVGID_00000070808348222932161370000006615319602220171697_);fill:none;stroke:#000000;stroke-linecap:square;stroke-linejoin:round;}
	
		.st14{clip-path:url(#SVGID_00000066474725538151007420000007215022967742033324_);fill:none;stroke:#000000;stroke-linecap:square;stroke-linejoin:round;}
	
		.st15{clip-path:url(#SVGID_00000181053853516161524520000015039224627087041684_);fill:none;stroke:#000000;stroke-linecap:square;stroke-linejoin:round;}
	
		.st16{clip-path:url(#SVGID_00000083058659954097912070000013074718264698833836_);fill:none;stroke:#000000;stroke-linecap:square;stroke-linejoin:round;}
	
		.st17{clip-path:url(#SVGID_00000109740046788444257810000014662880055593397376_);fill:none;stroke:#FF7F0E;stroke-linecap:square;stroke-linejoin:round;}
	
		.st18{clip-path:url(#SVGID_00000053530525341719130620000005162478383305576327_);fill:none;stroke:#FF7F0E;stroke-linecap:square;stroke-linejoin:round;}
	
		.st19{clip-path:url(#SVGID_00000021805496024611018170000005027605555603657384_);fill:none;stroke:#FF7F0E;stroke-linecap:square;stroke-linejoin:round;}
	.st20{fill:none;stroke:#000000;stroke-width:0.8;stroke-linecap:square;}
</style>
<g id="figure_1">
	<g id="axes_1">
		<g id="patch_2">
			<path class="st0" d="M19.2,93.1h119V12.6h-119V93.1z"/>
		</g>
		<g id="matplotlib.axis_1">
			<g id="xtick_1">
				<g id="line2d_1">
					<g>
						<g>
							<path id="mdd0d6ad3b5" class="st1" d="M39,93.1v3.5"/>
						</g>
					</g>
				</g>
			</g>
			<g id="xtick_2">
				<g id="line2d_2">
					<g>
						<g>
							<path id="mdd0d6ad3b5_00000079459948998863878000000001289379067917617298_" class="st1" d="M78.7,93.1v3.5"/>
						</g>
					</g>
				</g>
			</g>
			<g id="xtick_3">
				<g id="line2d_3">
					<g>
						<g>
							<path id="mdd0d6ad3b5_00000059286009293756703480000012550377988061186729_" class="st1" d="M118.4,93.1v3.5"/>
						</g>
					</g>
				</g>
			</g>
		</g>
		<g id="matplotlib.axis_2">
			<g id="ytick_1">
				<g id="line2d_4">
					<g>
						<g>
							<path id="m45d2b9b532" class="st1" d="M19.2,92.6h-3.5"/>
						</g>
					</g>
				</g>
				<g id="text_1">
					<g transform="translate(0.523438 94.745687)scale(0.06 -0.06)">
						<g>
							<path id="ArialMT-30" d="M4.2,35.3c0,8.5,0.9,15.3,2.6,20.4c1.7,5.2,4.3,9.1,7.7,11.9c3.4,2.8,7.8,4.2,13,4.2
								c3.8,0,7.2-0.8,10.1-2.3c2.9-1.5,5.3-3.8,7.2-6.7c1.9-2.9,3.4-6.5,4.5-10.6c1.1-4.2,1.6-9.8,1.6-16.9
								c0-8.4-0.9-15.2-2.6-20.3c-1.7-5.2-4.3-9.1-7.7-12c-3.4-2.8-7.8-4.2-13-4.2c-6.9,0-12.3,2.5-16.2,7.4
								C6.5,12.2,4.2,21.9,4.2,35.3z M13.2,35.3c0-11.8,1.4-19.6,4.1-23.5C20.1,7.9,23.5,6,27.5,6c4,0,7.4,2,10.2,5.9
								s4.1,11.7,4.1,23.4c0,11.8-1.4,19.6-4.1,23.5c-2.8,3.9-6.2,5.8-10.3,5.8c-4,0-7.3-1.7-9.7-5.1C14.7,55.1,13.2,47.1,13.2,35.3
								z"/>
						</g>
						<g>
							<path id="ArialMT-2e" d="M64.7,0v10h10V0H64.7z"/>
						</g>
						<g>
							<path id="ArialMT-30_00000150807158099829744230000001952659720053723046_" d="M87.6,35.3c0,8.5,0.9,15.3,2.6,20.4
								c1.7,5.2,4.3,9.1,7.8,11.9c3.4,2.8,7.8,4.2,13,4.2c3.8,0,7.2-0.8,10.1-2.3c2.9-1.5,5.3-3.8,7.2-6.7c1.9-2.9,3.4-6.5,4.5-10.6
								c1.1-4.2,1.6-9.8,1.6-16.9c0-8.4-0.9-15.2-2.6-20.3c-1.7-5.2-4.3-9.1-7.7-12c-3.4-2.8-7.8-4.2-13-4.2
								c-6.9,0-12.3,2.5-16.2,7.4C89.9,12.2,87.6,21.9,87.6,35.3z M96.6,35.3c0-11.8,1.4-19.6,4.1-23.5c2.8-3.9,6.1-5.8,10.2-5.8
								c4,0,7.4,2,10.2,5.9s4.1,11.7,4.1,23.4c0,11.8-1.4,19.6-4.1,23.5c-2.8,3.9-6.2,5.8-10.3,5.8c-4,0-7.3-1.7-9.7-5.1
								C98.1,55.1,96.6,47.1,96.6,35.3z"/>
						</g>
						<g>
							<path id="ArialMT-30_00000164479873914627843680000004286152943373347719_" d="M143.2,35.3c0,8.5,0.9,15.3,2.6,20.4
								c1.7,5.2,4.3,9.1,7.8,11.9c3.4,2.8,7.8,4.2,13,4.2c3.8,0,7.2-0.8,10.1-2.3c2.9-1.5,5.3-3.8,7.2-6.7c1.9-2.9,3.4-6.5,4.5-10.6
								c1.1-4.2,1.6-9.8,1.6-16.9c0-8.4-0.9-15.2-2.6-20.3c-1.7-5.2-4.3-9.1-7.7-12c-3.4-2.8-7.8-4.2-13-4.2
								c-6.9,0-12.3,2.5-16.2,7.4C145.5,12.2,143.2,21.9,143.2,35.3z M152.2,35.3c0-11.8,1.4-19.6,4.1-23.5
								c2.8-3.9,6.1-5.8,10.2-5.8c4,0,7.4,2,10.2,5.9s4.1,11.7,4.1,23.4c0,11.8-1.4,19.6-4.1,23.5c-2.8,3.9-6.2,5.8-10.3,5.8
								c-4,0-7.3-1.7-9.7-5.1C153.7,55.1,152.2,47.1,152.2,35.3z"/>
						</g>
					</g>
				</g>
			</g>
			<g id="ytick_2">
				<g id="line2d_5">
					<g>
						<g>
							<path id="m45d2b9b532_00000071529690034425672260000008011815066933352367_" class="st1" d="M19.2,70.2h-3.5"/>
						</g>
					</g>
				</g>
				<g id="text_2">
					<g transform="translate(0.523438 72.391921)scale(0.06 -0.06)">
						<g>
							<path id="ArialMT-30_00000132798247821278593750000010252359403055897761_" d="M4.2,35.3c0,8.5,0.9,15.3,2.6,20.4
								c1.7,5.2,4.3,9.1,7.7,11.9c3.4,2.8,7.8,4.2,13,4.2c3.8,0,7.2-0.8,10.1-2.3c2.9-1.5,5.3-3.8,7.2-6.7c1.9-2.9,3.4-6.5,4.5-10.6
								c1.1-4.2,1.6-9.8,1.6-16.9c0-8.4-0.9-15.2-2.6-20.3c-1.7-5.2-4.3-9.1-7.7-12c-3.4-2.8-7.8-4.2-13-4.2
								c-6.9,0-12.3,2.5-16.2,7.4C6.5,12.2,4.2,21.9,4.2,35.3z M13.2,35.3c0-11.8,1.4-19.6,4.1-23.5C20.1,7.9,23.5,6,27.5,6
								c4,0,7.4,2,10.2,5.9s4.1,11.7,4.1,23.4c0,11.8-1.4,19.6-4.1,23.5c-2.8,3.9-6.2,5.8-10.3,5.8c-4,0-7.3-1.7-9.7-5.1
								C14.7,55.1,13.2,47.1,13.2,35.3z"/>
						</g>
						<g>
							<path id="ArialMT-2e_00000013880616879188231000000016229566551389406113_" d="M64.7,0v10h10V0H64.7z"/>
						</g>
						<g>
							<path id="ArialMT-30_00000054239806663926291070000000064909313796007585_" d="M87.6,35.3c0,8.5,0.9,15.3,2.6,20.4
								c1.7,5.2,4.3,9.1,7.8,11.9c3.4,2.8,7.8,4.2,13,4.2c3.8,0,7.2-0.8,10.1-2.3c2.9-1.5,5.3-3.8,7.2-6.7c1.9-2.9,3.4-6.5,4.5-10.6
								c1.1-4.2,1.6-9.8,1.6-16.9c0-8.4-0.9-15.2-2.6-20.3c-1.7-5.2-4.3-9.1-7.7-12c-3.4-2.8-7.8-4.2-13-4.2
								c-6.9,0-12.3,2.5-16.2,7.4C89.9,12.2,87.6,21.9,87.6,35.3z M96.6,35.3c0-11.8,1.4-19.6,4.1-23.5c2.8-3.9,6.1-5.8,10.2-5.8
								c4,0,7.4,2,10.2,5.9s4.1,11.7,4.1,23.4c0,11.8-1.4,19.6-4.1,23.5c-2.8,3.9-6.2,5.8-10.3,5.8c-4,0-7.3-1.7-9.7-5.1
								C98.1,55.1,96.6,47.1,96.6,35.3z"/>
						</g>
						<g>
							<path id="ArialMT-31" d="M176.3,0h-8.8v56c-2.1-2-4.9-4-8.3-6s-6.5-3.5-9.2-4.5v8.5c4.9,2.3,9.2,5.1,12.9,8.4
								c3.7,3.3,6.3,6.5,7.8,9.6h5.7V0z"/>
						</g>
					</g>
				</g>
			</g>
			<g id="ytick_3">
				<g id="line2d_6">
					<g>
						<g>
							<path id="m45d2b9b532_00000013910985402413885120000000006967810131022770_" class="st1" d="M19.2,47.9h-3.5"/>
						</g>
					</g>
				</g>
				<g id="text_3">
					<g transform="translate(0.523438 50.038155)scale(0.06 -0.06)">
						<g>
							<path id="ArialMT-30_00000023267106958099333390000009531910112244141444_" d="M4.2,35.3c0,8.5,0.9,15.3,2.6,20.4
								c1.7,5.2,4.3,9.1,7.7,11.9c3.4,2.8,7.8,4.2,13,4.2c3.8,0,7.2-0.8,10.1-2.3c2.9-1.5,5.3-3.8,7.2-6.7c1.9-2.9,3.4-6.5,4.5-10.6
								c1.1-4.2,1.6-9.8,1.6-16.9c0-8.4-0.9-15.2-2.6-20.3c-1.7-5.2-4.3-9.1-7.7-12c-3.4-2.8-7.8-4.2-13-4.2
								c-6.9,0-12.3,2.5-16.2,7.4C6.5,12.2,4.2,21.9,4.2,35.3z M13.2,35.3c0-11.8,1.4-19.6,4.1-23.5C20.1,7.9,23.5,6,27.5,6
								c4,0,7.4,2,10.2,5.9s4.1,11.7,4.1,23.4c0,11.8-1.4,19.6-4.1,23.5c-2.8,3.9-6.2,5.8-10.3,5.8c-4,0-7.3-1.7-9.7-5.1
								C14.7,55.1,13.2,47.1,13.2,35.3z"/>
						</g>
						<g>
							<path id="ArialMT-2e_00000163047022715565572810000000884932369928780160_" d="M64.7,0v10h10V0H64.7z"/>
						</g>
						<g>
							<path id="ArialMT-30_00000157305582739326195100000010372129146449637307_" d="M87.6,35.3c0,8.5,0.9,15.3,2.6,20.4
								c1.7,5.2,4.3,9.1,7.8,11.9c3.4,2.8,7.8,4.2,13,4.2c3.8,0,7.2-0.8,10.1-2.3c2.9-1.5,5.3-3.8,7.2-6.7c1.9-2.9,3.4-6.5,4.5-10.6
								c1.1-4.2,1.6-9.8,1.6-16.9c0-8.4-0.9-15.2-2.6-20.3c-1.7-5.2-4.3-9.1-7.7-12c-3.4-2.8-7.8-4.2-13-4.2
								c-6.9,0-12.3,2.5-16.2,7.4C89.9,12.2,87.6,21.9,87.6,35.3z M96.6,35.3c0-11.8,1.4-19.6,4.1-23.5c2.8-3.9,6.1-5.8,10.2-5.8
								c4,0,7.4,2,10.2,5.9s4.1,11.7,4.1,23.4c0,11.8-1.4,19.6-4.1,23.5c-2.8,3.9-6.2,5.8-10.3,5.8c-4,0-7.3-1.7-9.7-5.1
								C98.1,55.1,96.6,47.1,96.6,35.3z"/>
						</g>
						<g>
							<path id="ArialMT-32" d="M189.4,8.5V0H142c-0.1,2.1,0.3,4.2,1,6.1c1.2,3.2,3.1,6.4,5.8,9.5c2.7,3.1,6.5,6.7,11.5,10.8
								c7.8,6.4,13,11.4,15.8,15.2c2.7,3.7,4.1,7.3,4.1,10.6c0,3.5-1.2,6.4-3.8,8.8c-2.5,2.4-5.7,3.6-9.7,3.6
								c-4.2,0-7.6-1.3-10.2-3.8c-2.5-2.5-3.8-6-3.9-10.5l-9,0.9c0.6,6.7,2.9,11.9,7,15.4c4,3.5,9.5,5.3,16.3,5.3
								c6.9,0,12.3-1.9,16.3-5.7c4-3.8,6-8.5,6-14.2c0-2.9-0.6-5.7-1.8-8.5c-1.2-2.8-3.1-5.7-5.8-8.7s-7.2-7.3-13.5-12.6
								c-5.3-4.4-8.7-7.4-10.2-9c-1.5-1.6-2.7-3.2-3.7-4.8H189.4z"/>
						</g>
					</g>
				</g>
			</g>
			<g id="ytick_4">
				<g id="line2d_7">
					<g>
						<g>
							<path id="m45d2b9b532_00000100340411211049691870000005291699632989519519_" class="st1" d="M19.2,25.5h-3.5"/>
						</g>
					</g>
				</g>
				<g id="text_4">
					<g transform="translate(0.523438 27.684389)scale(0.06 -0.06)">
						<g>
							<path id="ArialMT-30_00000160163930835817560660000001735632266159684501_" d="M4.2,35.3c0,8.5,0.9,15.3,2.6,20.4
								c1.7,5.2,4.3,9.1,7.7,11.9c3.4,2.8,7.8,4.2,13,4.2c3.8,0,7.2-0.8,10.1-2.3c2.9-1.5,5.3-3.8,7.2-6.7c1.9-2.9,3.4-6.5,4.5-10.6
								c1.1-4.2,1.6-9.8,1.6-16.9c0-8.4-0.9-15.2-2.6-20.3c-1.7-5.2-4.3-9.1-7.7-12c-3.4-2.8-7.8-4.2-13-4.2
								c-6.9,0-12.3,2.5-16.2,7.4C6.5,12.2,4.2,21.9,4.2,35.3z M13.2,35.3c0-11.7,1.4-19.6,4.1-23.5C20.1,7.9,23.5,6,27.5,6
								c4,0,7.4,2,10.2,5.9s4.1,11.7,4.1,23.4c0,11.8-1.4,19.6-4.1,23.5c-2.8,3.9-6.2,5.8-10.3,5.8c-4,0-7.3-1.7-9.7-5.1
								C14.7,55.1,13.2,47.1,13.2,35.3z"/>
						</g>
						<g>
							<path id="ArialMT-2e_00000146480685271701729400000011800598447559051188_" d="M64.7,0v10h10V0H64.7z"/>
						</g>
						<g>
							<path id="ArialMT-30_00000101080451967719242450000004706515318280434856_" d="M87.6,35.3c0,8.5,0.9,15.3,2.6,20.4
								c1.7,5.2,4.3,9.1,7.8,11.9c3.4,2.8,7.8,4.2,13,4.2c3.8,0,7.2-0.8,10.1-2.3c2.9-1.5,5.3-3.8,7.2-6.7c1.9-2.9,3.4-6.5,4.5-10.6
								c1.1-4.2,1.6-9.8,1.6-16.9c0-8.4-0.9-15.2-2.6-20.3c-1.7-5.2-4.3-9.1-7.7-12c-3.4-2.8-7.8-4.2-13-4.2
								c-6.9,0-12.3,2.5-16.2,7.4C89.9,12.2,87.6,21.9,87.6,35.3z M96.6,35.3c0-11.7,1.4-19.6,4.1-23.5c2.8-3.9,6.1-5.8,10.2-5.8
								c4,0,7.4,2,10.2,5.9s4.1,11.7,4.1,23.4c0,11.8-1.4,19.6-4.1,23.5c-2.8,3.9-6.2,5.8-10.3,5.8c-4,0-7.3-1.7-9.7-5.1
								C98.1,55.1,96.6,47.1,96.6,35.3z"/>
						</g>
						<g>
							<path id="ArialMT-33" d="M143.2,18.9l8.8,1.2c1-5,2.7-8.6,5.2-10.8c2.4-2.2,5.4-3.3,8.9-3.3c4.1,0,7.6,1.4,10.5,4.3
								c2.9,2.9,4.3,6.4,4.3,10.7c0,4-1.3,7.4-4,10c-2.6,2.6-6,3.9-10.1,3.9c-1.7,0-3.7-0.3-6.2-1l1,7.7c0.6-0.1,1.1-0.1,1.4-0.1
								c3.8,0,7.1,1,10.1,2.9c3,2,4.5,5,4.5,9c0,3.2-1.1,5.9-3.3,8c-2.2,2.1-5,3.2-8.4,3.2c-3.4,0-6.3-1.1-8.5-3.2
								c-2.3-2.1-3.7-5.4-4.4-9.7l-8.8,1.6c1.1,5.9,3.5,10.4,7.3,13.7c3.8,3.2,8.6,4.9,14.2,4.9c3.9,0,7.5-0.8,10.8-2.5
								c3.3-1.7,5.8-4,7.5-6.9c1.8-2.9,2.6-6,2.6-9.2c0-3.1-0.8-5.9-2.5-8.4c-1.7-2.5-4.1-4.6-7.4-6.1c4.2-1,7.5-3,9.9-6.1
								c2.3-3.1,3.5-6.9,3.5-11.5c0-6.2-2.3-11.5-6.8-15.9c-4.6-4.3-10.3-6.5-17.3-6.5c-6.3,0-11.5,1.9-15.7,5.6
								C146.2,8.1,143.8,12.9,143.2,18.9z"/>
						</g>
					</g>
				</g>
			</g>
		</g>
		<g id="line2d_8">
			<g>
				<defs>
					<rect id="SVGID_1_" x="19.2" y="12.6" width="119" height="80.6"/>
				</defs>
				<clipPath id="SVGID_00000145038725565639020000000009355394353231176629_">
					<use xlink:href="#SVGID_1_"  style="overflow:visible;"/>
				</clipPath>
				
					<path style="clip-path:url(#SVGID_00000145038725565639020000000009355394353231176629_);fill:none;stroke:#000000;stroke-linecap:square;stroke-linejoin:round;" d="
					M33.1,64.9H45V26.2H33.1V64.9"/>
			</g>
		</g>
		<g id="line2d_9">
			<g>
				<defs>
					<rect id="SVGID_00000013186153873473073470000009943552028816402362_" x="19.2" y="12.6" width="119" height="80.6"/>
				</defs>
				<clipPath id="SVGID_00000103249364458885845660000003265757269301905073_">
					<use xlink:href="#SVGID_00000013186153873473073470000009943552028816402362_"  style="overflow:visible;"/>
				</clipPath>
				
					<path style="clip-path:url(#SVGID_00000103249364458885845660000003265757269301905073_);fill:none;stroke:#000000;stroke-linecap:square;stroke-linejoin:round;" d="
					M39,64.9v15.7"/>
			</g>
		</g>
		<g id="line2d_10">
			<g>
				<defs>
					<rect id="SVGID_00000014614060707614896730000013574375712083613850_" x="19.2" y="12.6" width="119" height="80.6"/>
				</defs>
				<clipPath id="SVGID_00000060742463196637167470000010133625754003829947_">
					<use xlink:href="#SVGID_00000014614060707614896730000013574375712083613850_"  style="overflow:visible;"/>
				</clipPath>
				
					<path style="clip-path:url(#SVGID_00000060742463196637167470000010133625754003829947_);fill:none;stroke:#000000;stroke-linecap:square;stroke-linejoin:round;" d="
					M39,26.2v-10"/>
			</g>
		</g>
		<g id="line2d_11">
			<g>
				<defs>
					<rect id="SVGID_00000145752921404572171280000002402987540619271071_" x="19.2" y="12.6" width="119" height="80.6"/>
				</defs>
				<clipPath id="SVGID_00000058560355512365786600000005722108240261601723_">
					<use xlink:href="#SVGID_00000145752921404572171280000002402987540619271071_"  style="overflow:visible;"/>
				</clipPath>
				
					<path style="clip-path:url(#SVGID_00000058560355512365786600000005722108240261601723_);fill:none;stroke:#000000;stroke-linecap:square;stroke-linejoin:round;" d="
					M36.1,80.6h6"/>
			</g>
		</g>
		<g id="line2d_12">
			<g>
				<defs>
					<rect id="SVGID_00000108298894969595545270000012417545130594213769_" x="19.2" y="12.6" width="119" height="80.6"/>
				</defs>
				<clipPath id="SVGID_00000016795449744209118590000002222877384035975845_">
					<use xlink:href="#SVGID_00000108298894969595545270000012417545130594213769_"  style="overflow:visible;"/>
				</clipPath>
				
					<path style="clip-path:url(#SVGID_00000016795449744209118590000002222877384035975845_);fill:none;stroke:#000000;stroke-linecap:square;stroke-linejoin:round;" d="
					M36.1,16.2h6"/>
			</g>
		</g>
		<g id="line2d_13">
			<g>
				<defs>
					<rect id="SVGID_00000036228610380011065100000018428209145676863880_" x="19.2" y="12.6" width="119" height="80.6"/>
				</defs>
				<clipPath id="SVGID_00000142155009913232949370000002225422008072178577_">
					<use xlink:href="#SVGID_00000036228610380011065100000018428209145676863880_"  style="overflow:visible;"/>
				</clipPath>
				
					<path style="clip-path:url(#SVGID_00000142155009913232949370000002225422008072178577_);fill:none;stroke:#000000;stroke-linecap:square;stroke-linejoin:round;" d="
					M72.8,75.9h11.9V35.9H72.8V75.9"/>
			</g>
		</g>
		<g id="line2d_14">
			<g>
				<defs>
					<rect id="SVGID_00000084488639527473534430000010079583194925368480_" x="19.2" y="12.6" width="119" height="80.6"/>
				</defs>
				<clipPath id="SVGID_00000067956251974738347320000006873422179276434617_">
					<use xlink:href="#SVGID_00000084488639527473534430000010079583194925368480_"  style="overflow:visible;"/>
				</clipPath>
				
					<path style="clip-path:url(#SVGID_00000067956251974738347320000006873422179276434617_);fill:none;stroke:#000000;stroke-linecap:square;stroke-linejoin:round;" d="
					M78.7,75.9v12.6"/>
			</g>
		</g>
		<g id="line2d_15">
			<g>
				<defs>
					<rect id="SVGID_00000137114410484388793880000008928709703936852629_" x="19.2" y="12.6" width="119" height="80.6"/>
				</defs>
				<clipPath id="SVGID_00000117675030418535136620000006971326862683924883_">
					<use xlink:href="#SVGID_00000137114410484388793880000008928709703936852629_"  style="overflow:visible;"/>
				</clipPath>
				
					<path style="clip-path:url(#SVGID_00000117675030418535136620000006971326862683924883_);fill:none;stroke:#000000;stroke-linecap:square;stroke-linejoin:round;" d="
					M78.7,35.9v-4.2"/>
			</g>
		</g>
		<g id="line2d_16">
			<g>
				<defs>
					<rect id="SVGID_00000113315916210774688850000008555310850590098087_" x="19.2" y="12.6" width="119" height="80.6"/>
				</defs>
				<clipPath id="SVGID_00000057120148112842266800000007743538682679830419_">
					<use xlink:href="#SVGID_00000113315916210774688850000008555310850590098087_"  style="overflow:visible;"/>
				</clipPath>
				
					<path style="clip-path:url(#SVGID_00000057120148112842266800000007743538682679830419_);fill:none;stroke:#000000;stroke-linecap:square;stroke-linejoin:round;" d="
					M75.7,88.5h6"/>
			</g>
		</g>
		<g id="line2d_17">
			<g>
				<defs>
					<rect id="SVGID_00000147920988009902651460000016880127709116687234_" x="19.2" y="12.6" width="119" height="80.6"/>
				</defs>
				<clipPath id="SVGID_00000013181144279650356640000004995488002638107565_">
					<use xlink:href="#SVGID_00000147920988009902651460000016880127709116687234_"  style="overflow:visible;"/>
				</clipPath>
				
					<path style="clip-path:url(#SVGID_00000013181144279650356640000004995488002638107565_);fill:none;stroke:#000000;stroke-linecap:square;stroke-linejoin:round;" d="
					M75.7,31.7h6"/>
			</g>
		</g>
		<g id="line2d_18">
			<g>
				<defs>
					<rect id="SVGID_00000081646808269803930790000005672092848367099013_" x="19.2" y="12.6" width="119" height="80.6"/>
				</defs>
				<clipPath id="SVGID_00000115472424758068170260000016661151616026433923_">
					<use xlink:href="#SVGID_00000081646808269803930790000005672092848367099013_"  style="overflow:visible;"/>
				</clipPath>
				
					<path style="clip-path:url(#SVGID_00000115472424758068170260000016661151616026433923_);fill:none;stroke:#000000;stroke-linecap:square;stroke-linejoin:round;" d="
					M112.4,77.6h11.9V59.9h-11.9V77.6"/>
			</g>
		</g>
		<g id="line2d_19">
			<g>
				<defs>
					<rect id="SVGID_00000097492759332856598520000018242031780497102484_" x="19.2" y="12.6" width="119" height="80.6"/>
				</defs>
				<clipPath id="SVGID_00000141434352808284222880000008510425489664665786_">
					<use xlink:href="#SVGID_00000097492759332856598520000018242031780497102484_"  style="overflow:visible;"/>
				</clipPath>
				
					<path style="clip-path:url(#SVGID_00000141434352808284222880000008510425489664665786_);fill:none;stroke:#000000;stroke-linecap:square;stroke-linejoin:round;" d="
					M118.4,77.6v11.9"/>
			</g>
		</g>
		<g id="line2d_20">
			<g>
				<defs>
					<rect id="SVGID_00000168113148458355549020000013726999737993847956_" x="19.2" y="12.6" width="119" height="80.6"/>
				</defs>
				<clipPath id="SVGID_00000065785665455628170750000002462053944065246089_">
					<use xlink:href="#SVGID_00000168113148458355549020000013726999737993847956_"  style="overflow:visible;"/>
				</clipPath>
				
					<path style="clip-path:url(#SVGID_00000065785665455628170750000002462053944065246089_);fill:none;stroke:#000000;stroke-linecap:square;stroke-linejoin:round;" d="
					M118.4,59.9V49.7"/>
			</g>
		</g>
		<g id="line2d_21">
			<g>
				<defs>
					<rect id="SVGID_00000165213367114160787490000013263157905476093109_" x="19.2" y="12.6" width="119" height="80.6"/>
				</defs>
				<clipPath id="SVGID_00000152244029447623107470000004086636286136723127_">
					<use xlink:href="#SVGID_00000165213367114160787490000013263157905476093109_"  style="overflow:visible;"/>
				</clipPath>
				
					<path style="clip-path:url(#SVGID_00000152244029447623107470000004086636286136723127_);fill:none;stroke:#000000;stroke-linecap:square;stroke-linejoin:round;" d="
					M115.4,89.5h6"/>
			</g>
		</g>
		<g id="line2d_22">
			<g>
				<defs>
					<rect id="SVGID_00000065755666206094055690000003584440935097388983_" x="19.2" y="12.6" width="119" height="80.6"/>
				</defs>
				<clipPath id="SVGID_00000075156491556797193120000002795070246808111015_">
					<use xlink:href="#SVGID_00000065755666206094055690000003584440935097388983_"  style="overflow:visible;"/>
				</clipPath>
				
					<path style="clip-path:url(#SVGID_00000075156491556797193120000002795070246808111015_);fill:none;stroke:#000000;stroke-linecap:square;stroke-linejoin:round;" d="
					M115.4,49.7h6"/>
			</g>
		</g>
		<g id="line2d_23">
			<g>
				<defs>
					<rect id="SVGID_00000157302033523618579520000010064765934100190869_" x="19.2" y="12.6" width="119" height="80.6"/>
				</defs>
				<clipPath id="SVGID_00000161621013847560002580000004132615991357145492_">
					<use xlink:href="#SVGID_00000157302033523618579520000010064765934100190869_"  style="overflow:visible;"/>
				</clipPath>
				
					<path style="clip-path:url(#SVGID_00000161621013847560002580000004132615991357145492_);fill:none;stroke:#FF7F0E;stroke-linecap:square;stroke-linejoin:round;" d="
					M33.1,44.6H45"/>
			</g>
		</g>
		<g id="line2d_24">
			<g>
				<defs>
					<rect id="SVGID_00000098186564251455264830000003840018561101232813_" x="19.2" y="12.6" width="119" height="80.6"/>
				</defs>
				<clipPath id="SVGID_00000151525265779186891220000013532903402879266745_">
					<use xlink:href="#SVGID_00000098186564251455264830000003840018561101232813_"  style="overflow:visible;"/>
				</clipPath>
				
					<path style="clip-path:url(#SVGID_00000151525265779186891220000013532903402879266745_);fill:none;stroke:#FF7F0E;stroke-linecap:square;stroke-linejoin:round;" d="
					M72.8,54.5h11.9"/>
			</g>
		</g>
		<g id="line2d_25">
			<g>
				<defs>
					<rect id="SVGID_00000056400429457390605810000007372162101930910911_" x="19.2" y="12.6" width="119" height="80.6"/>
				</defs>
				<clipPath id="SVGID_00000103243280591042706630000009946583497697345164_">
					<use xlink:href="#SVGID_00000056400429457390605810000007372162101930910911_"  style="overflow:visible;"/>
				</clipPath>
				
					<path style="clip-path:url(#SVGID_00000103243280591042706630000009946583497697345164_);fill:none;stroke:#FF7F0E;stroke-linecap:square;stroke-linejoin:round;" d="
					M112.4,68.5h11.9"/>
			</g>
		</g>
		<g id="patch_3">
			<path class="st20" d="M19.2,93.1V12.6"/>
		</g>
		<g id="patch_4">
			<path class="st20" d="M138.2,93.1V12.6"/>
		</g>
		<g id="patch_5">
			<path class="st20" d="M19.2,93.1h119"/>
		</g>
		<g id="patch_6">
			<path class="st20" d="M19.2,12.6h119"/>
		</g>
	</g>
</g>
</svg>
