<?xml version="1.0" encoding="utf-8"?>
<!-- Generator: Adobe Illustrator 26.4.1, SVG Export Plug-In . SVG Version: 6.00 Build 0)  -->
<svg version="1.1" id="Layer_1" xmlns="http://www.w3.org/2000/svg" xmlns:xlink="http://www.w3.org/1999/xlink" x="0px" y="0px"
	 viewBox="0 0 153 115.9" style="enable-background:new 0 0 153 115.9;" xml:space="preserve">
<style type="text/css">
	.st0{fill:#FFFFFF;}
	.st1{clip-path:url(#SVGID_00000050647761292641845520000002650316893643832205_);fill:#808080;}
	.st2{clip-path:url(#SVGID_00000103963065456112317780000004685964516167761827_);fill:#808080;}
	.st3{clip-path:url(#SVGID_00000069381118000479750180000009522606614565445823_);fill:#808080;}
	.st4{clip-path:url(#SVGID_00000147200135824913376920000010796711162772068028_);fill:#808080;}
	.st5{clip-path:url(#SVGID_00000036232902385907201770000002409945474525105062_);fill:#808080;}
	.st6{clip-path:url(#SVGID_00000078751799951945466440000007378792446116348565_);fill:#808080;}
	.st7{clip-path:url(#SVGID_00000020361636639148039360000005202772588654292621_);}
	.st8{fill:#3333CC;stroke:#3333CC;stroke-linejoin:round;}
	.st9{clip-path:url(#SVGID_00000137129150168712777350000013430553875690100634_);}
	.st10{fill:#CC3333;stroke:#CC3333;stroke-linejoin:round;}
	.st11{clip-path:url(#SVGID_00000099625082214816108210000011643704892748780962_);}
	.st12{fill:#CC33CC;stroke:#CC33CC;stroke-linejoin:round;}
	.st13{stroke:#000000;stroke-width:0.8;stroke-linejoin:round;}
	.st14{fill:none;stroke:#000000;stroke-width:0.8;stroke-linecap:square;}
</style>
<g id="figure_1">
	<g id="axes_1">
		<g id="patch_2">
			<path class="st0" d="M19.1,103.2h118.6V13.9H19.1V103.2z"/>
		</g>
		<g id="patch_3">
			<g>
				<defs>
					<rect id="SVGID_1_" x="19.1" y="13.9" width="118.6" height="89.3"/>
				</defs>
				<clipPath id="SVGID_00000155851660716535251890000015481878027843711167_">
					<use xlink:href="#SVGID_1_"  style="overflow:visible;"/>
				</clipPath>
				<path style="clip-path:url(#SVGID_00000155851660716535251890000015481878027843711167_);fill:#808080;" d="M24.5,103.2h14.9
					l0,0H24.5z"/>
			</g>
		</g>
		<g id="patch_4">
			<g>
				<defs>
					<rect id="SVGID_00000039839399653128776300000008627577684663369103_" x="19.1" y="13.9" width="118.6" height="89.3"/>
				</defs>
				<clipPath id="SVGID_00000030447588109394432280000007244449524773230525_">
					<use xlink:href="#SVGID_00000039839399653128776300000008627577684663369103_"  style="overflow:visible;"/>
				</clipPath>
				<path style="clip-path:url(#SVGID_00000030447588109394432280000007244449524773230525_);fill:#808080;" d="M43.1,103.2H58l0,0
					H43.1z"/>
			</g>
		</g>
		<g id="patch_5">
			<g>
				<defs>
					<rect id="SVGID_00000134932997562481854990000009008726537097468826_" x="19.1" y="13.9" width="118.6" height="89.3"/>
				</defs>
				<clipPath id="SVGID_00000163758690408144171610000000206099568132397210_">
					<use xlink:href="#SVGID_00000134932997562481854990000009008726537097468826_"  style="overflow:visible;"/>
				</clipPath>
				<path style="clip-path:url(#SVGID_00000163758690408144171610000000206099568132397210_);fill:#808080;" d="M61.7,103.2h14.9
					l0,0H61.7z"/>
			</g>
		</g>
		<g id="patch_6">
			<g>
				<defs>
					<rect id="SVGID_00000014606603757443823170000006424375232811163554_" x="19.1" y="13.9" width="118.6" height="89.3"/>
				</defs>
				<clipPath id="SVGID_00000126317575808023376790000007637364089069768617_">
					<use xlink:href="#SVGID_00000014606603757443823170000006424375232811163554_"  style="overflow:visible;"/>
				</clipPath>
				<path style="clip-path:url(#SVGID_00000126317575808023376790000007637364089069768617_);fill:#808080;" d="M80.3,103.2h14.9v-1
					H80.3V103.2z"/>
			</g>
		</g>
		<g id="patch_7">
			<g>
				<defs>
					<rect id="SVGID_00000042002052564407214030000017539581995416026260_" x="19.1" y="13.9" width="118.6" height="89.3"/>
				</defs>
				<clipPath id="SVGID_00000012462958826861961510000005442449863976084654_">
					<use xlink:href="#SVGID_00000042002052564407214030000017539581995416026260_"  style="overflow:visible;"/>
				</clipPath>
				<path style="clip-path:url(#SVGID_00000012462958826861961510000005442449863976084654_);fill:#808080;" d="M98.9,103.2h14.9
					v-9.3H98.9V103.2z"/>
			</g>
		</g>
		<g id="patch_8">
			<g>
				<defs>
					<rect id="SVGID_00000094615586513079229050000018177679862887763119_" x="19.1" y="13.9" width="118.6" height="89.3"/>
				</defs>
				<clipPath id="SVGID_00000005252418444314502530000011495697700818068625_">
					<use xlink:href="#SVGID_00000094615586513079229050000018177679862887763119_"  style="overflow:visible;"/>
				</clipPath>
				<path style="clip-path:url(#SVGID_00000005252418444314502530000011495697700818068625_);fill:#808080;" d="M117.4,103.2h14.9
					V28.5h-14.9V103.2z"/>
			</g>
		</g>
		<g id="PathCollection_1">
			<g>
				<defs>
					<rect id="SVGID_00000121255534337648041860000006037785983445505709_" x="19.1" y="13.9" width="118.6" height="89.3"/>
				</defs>
				<clipPath id="SVGID_00000037655948874524882090000003160103803899413423_">
					<use xlink:href="#SVGID_00000121255534337648041860000006037785983445505709_"  style="overflow:visible;"/>
				</clipPath>
				<g style="clip-path:url(#SVGID_00000037655948874524882090000003160103803899413423_);">
					<g>
						<path id="mc8df3f8435" class="st8" d="M31.8,106.2c0.8,0,1.6-0.3,2.1-0.9c0.6-0.6,0.9-1.3,0.9-2.1c0-0.8-0.3-1.6-0.9-2.1
							c-0.6-0.6-1.3-0.9-2.1-0.9c-0.8,0-1.6,0.3-2.1,0.9c-0.6,0.6-0.9,1.3-0.9,2.1c0,0.8,0.3,1.6,0.9,2.1
							C30.3,105.9,31,106.2,31.8,106.2z"/>
					</g>
					<g>
						<path id="mc8df3f8435_00000122684489260719628640000009839841221049818756_" class="st8" d="M50.4,106.2
							c0.8,0,1.6-0.3,2.1-0.9c0.6-0.6,0.9-1.3,0.9-2.1c0-0.8-0.3-1.6-0.9-2.1c-0.6-0.6-1.3-0.9-2.1-0.9s-1.6,0.3-2.1,0.9
							c-0.6,0.6-0.9,1.3-0.9,2.1c0,0.8,0.3,1.6,0.9,2.1C48.8,105.9,49.6,106.2,50.4,106.2z"/>
					</g>
					<g>
						<path id="mc8df3f8435_00000144305819979003128640000006606457276382046869_" class="st8" d="M69.1,106.2
							c0.8,0,1.6-0.3,2.1-0.9c0.6-0.6,0.9-1.3,0.9-2.1c0-0.8-0.3-1.6-0.9-2.1c-0.6-0.6-1.3-0.9-2.1-0.9s-1.6,0.3-2.1,0.9
							c-0.6,0.6-0.9,1.3-0.9,2.1c0,0.8,0.3,1.6,0.9,2.1C67.5,105.9,68.3,106.2,69.1,106.2z"/>
					</g>
					<g>
						<path id="mc8df3f8435_00000001664513447544983160000007136592801554680455_" class="st8" d="M88.7,106.2
							c0.8,0,1.6-0.3,2.1-0.9c0.6-0.6,0.9-1.3,0.9-2.1c0-0.8-0.3-1.6-0.9-2.1c-0.6-0.6-1.3-0.9-2.1-0.9s-1.6,0.3-2.1,0.9
							c-0.6,0.6-0.9,1.3-0.9,2.1c0,0.8,0.3,1.6,0.9,2.1C87.1,105.9,87.9,106.2,88.7,106.2z"/>
					</g>
					<g>
						<path id="mc8df3f8435_00000072998588843848203220000012528697647665226887_" class="st8" d="M106.7,89.2
							c0.8,0,1.6-0.3,2.1-0.9c0.6-0.6,0.9-1.3,0.9-2.1c0-0.8-0.3-1.6-0.9-2.1c-0.6-0.6-1.3-0.9-2.1-0.9s-1.6,0.3-2.1,0.9
							c-0.6,0.6-0.9,1.3-0.9,2.1c0,0.8,0.3,1.6,0.9,2.1C105.1,88.9,105.9,89.2,106.7,89.2z"/>
					</g>
					<g>
						<path id="mc8df3f8435_00000160191484290542457540000007588123026174405559_" class="st8" d="M124.4,38.2
							c0.8,0,1.6-0.3,2.1-0.9c0.6-0.6,0.9-1.3,0.9-2.1s-0.3-1.6-0.9-2.1c-0.6-0.6-1.3-0.9-2.1-0.9s-1.6,0.3-2.1,0.9
							c-0.6,0.6-0.9,1.3-0.9,2.1s0.3,1.6,0.9,2.1C122.9,37.8,123.6,38.2,124.4,38.2z"/>
					</g>
				</g>
			</g>
		</g>
		<g id="PathCollection_2">
			<g>
				<defs>
					<rect id="SVGID_00000011724209030237140500000017016239027672213635_" x="19.1" y="13.9" width="118.6" height="89.3"/>
				</defs>
				<clipPath id="SVGID_00000039099418026627727140000004993254436693101218_">
					<use xlink:href="#SVGID_00000011724209030237140500000017016239027672213635_"  style="overflow:visible;"/>
				</clipPath>
				<g style="clip-path:url(#SVGID_00000039099418026627727140000004993254436693101218_);">
					<g>
						<path id="mab7ec43071" class="st10" d="M31,106.2c0.8,0,1.6-0.3,2.1-0.9c0.6-0.6,0.9-1.3,0.9-2.1c0-0.8-0.3-1.6-0.9-2.1
							c-0.6-0.6-1.3-0.9-2.1-0.9s-1.6,0.3-2.1,0.9c-0.6,0.6-0.9,1.3-0.9,2.1c0,0.8,0.3,1.6,0.9,2.1C29.5,105.9,30.2,106.2,31,106.2z
							"/>
					</g>
					<g>
						<path id="mab7ec43071_00000076593168314151213180000002871223730049433524_" class="st10" d="M50.4,106.2
							c0.8,0,1.6-0.3,2.1-0.9c0.6-0.6,0.9-1.3,0.9-2.1c0-0.8-0.3-1.6-0.9-2.1c-0.6-0.6-1.3-0.9-2.1-0.9s-1.6,0.3-2.1,0.9
							c-0.6,0.6-0.9,1.3-0.9,2.1c0,0.8,0.3,1.6,0.9,2.1C48.9,105.9,49.6,106.2,50.4,106.2z"/>
					</g>
					<g>
						<path id="mab7ec43071_00000142872582295706121550000004943866268261228681_" class="st10" d="M69.9,106.2
							c0.8,0,1.6-0.3,2.1-0.9c0.6-0.6,0.9-1.3,0.9-2.1c0-0.8-0.3-1.6-0.9-2.1c-0.6-0.6-1.3-0.9-2.1-0.9s-1.6,0.3-2.1,0.9
							c-0.6,0.6-0.9,1.3-0.9,2.1c0,0.8,0.3,1.6,0.9,2.1C68.3,105.9,69.1,106.2,69.9,106.2z"/>
					</g>
					<g>
						<path id="mab7ec43071_00000039840345617894963420000004119350296668390295_" class="st10" d="M87.3,106.2
							c0.8,0,1.6-0.3,2.1-0.9c0.6-0.6,0.9-1.3,0.9-2.1c0-0.8-0.3-1.6-0.9-2.1c-0.6-0.6-1.3-0.9-2.1-0.9s-1.6,0.3-2.1,0.9
							c-0.6,0.6-0.9,1.3-0.9,2.1c0,0.8,0.3,1.6,0.9,2.1C85.8,105.9,86.5,106.2,87.3,106.2z"/>
					</g>
					<g>
						<path id="mab7ec43071_00000037659673756541405760000008642212801356227202_" class="st10" d="M105.5,106.2
							c0.8,0,1.6-0.3,2.1-0.9c0.6-0.6,0.9-1.3,0.9-2.1c0-0.8-0.3-1.6-0.9-2.1c-0.6-0.6-1.3-0.9-2.1-0.9s-1.6,0.3-2.1,0.9
							c-0.6,0.6-0.9,1.3-0.9,2.1c0,0.8,0.3,1.6,0.9,2.1C103.9,105.9,104.7,106.2,105.5,106.2z"/>
					</g>
					<g>
						<path id="mab7ec43071_00000052792528980884609280000001431630421180394933_" class="st10" d="M124.7,21.2
							c0.8,0,1.6-0.3,2.1-0.9c0.6-0.6,0.9-1.3,0.9-2.1s-0.3-1.6-0.9-2.1c-0.6-0.6-1.3-0.9-2.1-0.9s-1.6,0.3-2.1,0.9
							c-0.6,0.6-0.9,1.3-0.9,2.1s0.3,1.6,0.9,2.1C123.1,20.8,123.9,21.2,124.7,21.2z"/>
					</g>
				</g>
			</g>
		</g>
		<g id="PathCollection_3">
			<g>
				<defs>
					<rect id="SVGID_00000161596655705151053280000004155777425561483953_" x="19.1" y="13.9" width="118.6" height="89.3"/>
				</defs>
				<clipPath id="SVGID_00000067945225975216917240000018078710172617022126_">
					<use xlink:href="#SVGID_00000161596655705151053280000004155777425561483953_"  style="overflow:visible;"/>
				</clipPath>
				<g style="clip-path:url(#SVGID_00000067945225975216917240000018078710172617022126_);">
					<g>
						<path id="m33508844b8" class="st12" d="M32.7,106.2c0.8,0,1.6-0.3,2.1-0.9c0.6-0.6,0.9-1.3,0.9-2.1c0-0.8-0.3-1.6-0.9-2.1
							c-0.6-0.6-1.3-0.9-2.1-0.9s-1.6,0.3-2.1,0.9c-0.6,0.6-0.9,1.3-0.9,2.1c0,0.8,0.3,1.6,0.9,2.1
							C31.2,105.9,31.9,106.2,32.7,106.2z"/>
					</g>
					<g>
						<path id="m33508844b8_00000013155610868214337690000012889312232780445373_" class="st12" d="M51,106.2c0.8,0,1.6-0.3,2.1-0.9
							c0.6-0.6,0.9-1.3,0.9-2.1c0-0.8-0.3-1.6-0.9-2.1c-0.6-0.6-1.3-0.9-2.1-0.9s-1.6,0.3-2.1,0.9c-0.6,0.6-0.9,1.3-0.9,2.1
							c0,0.8,0.3,1.6,0.9,2.1C49.5,105.9,50.2,106.2,51,106.2z"/>
					</g>
					<g>
						<path id="m33508844b8_00000006668719738702615210000012801198821203687581_" class="st12" d="M68,106.2c0.8,0,1.6-0.3,2.1-0.9
							c0.6-0.6,0.9-1.3,0.9-2.1c0-0.8-0.3-1.6-0.9-2.1c-0.6-0.6-1.3-0.9-2.1-0.9s-1.6,0.3-2.1,0.9c-0.6,0.6-0.9,1.3-0.9,2.1
							c0,0.8,0.3,1.6,0.9,2.1C66.4,105.9,67.2,106.2,68,106.2z"/>
					</g>
					<g>
						<path id="m33508844b8_00000072259884195137238360000011946882393957501626_" class="st12" d="M86.3,103.1
							c0.8,0,1.6-0.3,2.1-0.9c0.6-0.6,0.9-1.3,0.9-2.1c0-0.8-0.3-1.6-0.9-2.1c-0.6-0.6-1.3-0.9-2.1-0.9s-1.6,0.3-2.1,0.9
							c-0.6,0.6-0.9,1.3-0.9,2.1c0,0.8,0.3,1.6,0.9,2.1C84.7,102.8,85.5,103.1,86.3,103.1z"/>
					</g>
					<g>
						<path id="m33508844b8_00000030458800154796556650000007158592215850414991_" class="st12" d="M105,95.3c0.8,0,1.6-0.3,2.1-0.9
							c0.6-0.6,0.9-1.3,0.9-2.1c0-0.8-0.3-1.6-0.9-2.1c-0.6-0.6-1.3-0.9-2.1-0.9s-1.6,0.3-2.1,0.9c-0.6,0.6-0.9,1.3-0.9,2.1
							c0,0.8,0.3,1.6,0.9,2.1C103.4,95,104.2,95.3,105,95.3z"/>
					</g>
					<g>
						<path id="m33508844b8_00000049902841477277384070000003666815232059650442_" class="st12" d="M124.2,35.1
							c0.8,0,1.6-0.3,2.1-0.9c0.6-0.6,0.9-1.3,0.9-2.1s-0.3-1.6-0.9-2.1c-0.6-0.6-1.3-0.9-2.1-0.9s-1.6,0.3-2.1,0.9
							c-0.6,0.6-0.9,1.3-0.9,2.1s0.3,1.6,0.9,2.1C122.6,34.8,123.4,35.1,124.2,35.1z"/>
					</g>
				</g>
			</g>
		</g>
		<g id="matplotlib.axis_1">
			<g id="xtick_1">
				<g id="line2d_1">
					<g>
						<g>
							<path id="mca8372a5c8" class="st13" d="M31.9,103.2v3.5"/>
						</g>
					</g>
				</g>
			</g>
			<g id="xtick_2">
				<g id="line2d_2">
					<g>
						<g>
							<path id="mca8372a5c8_00000004505389473701309290000001678644021360664458_" class="st13" d="M50.5,103.2v3.5"/>
						</g>
					</g>
				</g>
			</g>
			<g id="xtick_3">
				<g id="line2d_3">
					<g>
						<g>
							<path id="mca8372a5c8_00000163071330240601823450000008552422855939043770_" class="st13" d="M69.1,103.2v3.5"/>
						</g>
					</g>
				</g>
			</g>
			<g id="xtick_4">
				<g id="line2d_4">
					<g>
						<g>
							<path id="mca8372a5c8_00000035488855952760352000000013443946927544320947_" class="st13" d="M87.7,103.2v3.5"/>
						</g>
					</g>
				</g>
			</g>
			<g id="xtick_5">
				<g id="line2d_5">
					<g>
						<g>
							<path id="mca8372a5c8_00000049938375820525531520000016956506313691239092_" class="st13" d="M106.3,103.2v3.5"/>
						</g>
					</g>
				</g>
			</g>
			<g id="xtick_6">
				<g id="line2d_6">
					<g>
						<g>
							<path id="mca8372a5c8_00000025411256570495093030000009582829317752359090_" class="st13" d="M124.9,103.2v3.5"/>
						</g>
					</g>
				</g>
			</g>
		</g>
		<g id="matplotlib.axis_2">
			<g id="ytick_1">
				<g id="line2d_7">
					<g>
						<g>
							<path id="m96ec63aacd" class="st13" d="M19.1,103.2h-3.5"/>
						</g>
					</g>
				</g>
			</g>
			<g id="ytick_2">
				<g id="line2d_8">
					<g>
						<g>
							<path id="m96ec63aacd_00000144301823315168164920000013055967555127213227_" class="st13" d="M19.1,86.2h-3.5"/>
						</g>
					</g>
				</g>
			</g>
			<g id="ytick_3">
				<g id="line2d_9">
					<g>
						<g>
							<path id="m96ec63aacd_00000135665568557738938090000006272918991017768849_" class="st13" d="M19.1,69.2h-3.5"/>
						</g>
					</g>
				</g>
			</g>
			<g id="ytick_4">
				<g id="line2d_10">
					<g>
						<g>
							<path id="m96ec63aacd_00000014628885373203918400000008609778541127082413_" class="st13" d="M19.1,52.2h-3.5"/>
						</g>
					</g>
				</g>
			</g>
			<g id="ytick_5">
				<g id="line2d_11">
					<g>
						<g>
							<path id="m96ec63aacd_00000172415333807594211530000002562143511540958104_" class="st13" d="M19.1,35.2h-3.5"/>
						</g>
					</g>
				</g>
			</g>
			<g id="ytick_6">
				<g id="line2d_12">
					<g>
						<g>
							<path id="m96ec63aacd_00000088849999356871055220000013193178904049190018_" class="st13" d="M19.1,18.2h-3.5"/>
						</g>
					</g>
				</g>
			</g>
		</g>
		<g id="patch_9">
			<path class="st14" d="M19.1,103.2V13.9"/>
		</g>
		<g id="patch_10">
			<path class="st14" d="M137.7,103.2V13.9"/>
		</g>
		<g id="patch_11">
			<path class="st14" d="M19.1,103.2h118.6"/>
		</g>
		<g id="patch_12">
			<path class="st14" d="M19.1,13.9h118.6"/>
		</g>
	</g>
</g>
</svg>
