<?xml version="1.0" encoding="utf-8"?>
<!-- Generator: Adobe Illustrator 26.4.1, SVG Export Plug-In . SVG Version: 6.00 Build 0)  -->
<svg version="1.1" id="Layer_1" xmlns="http://www.w3.org/2000/svg" xmlns:xlink="http://www.w3.org/1999/xlink" x="0px" y="0px"
	 viewBox="0 0 122.2 101" style="enable-background:new 0 0 122.2 101;" xml:space="preserve">
<style type="text/css">
	.st0{fill:#FFFFFF;}
	.st1{clip-path:url(#SVGID_00000042723073268066121450000012149898982661680050_);fill:#808080;}
	.st2{clip-path:url(#SVGID_00000026850930607089071440000015923123323267838092_);fill:#808080;}
	.st3{clip-path:url(#SVGID_00000036249321004583424460000003386136940844358590_);fill:#808080;}
	.st4{clip-path:url(#SVGID_00000167395736947542363790000009295664557608202924_);fill:#808080;}
	.st5{clip-path:url(#SVGID_00000140694155055351128260000001223967051713053828_);fill:#808080;}
	.st6{clip-path:url(#SVGID_00000052088396148500986900000016376201450467790213_);fill:#808080;}
	.st7{clip-path:url(#SVGID_00000181068904641507756070000007547715682193557893_);}
	.st8{fill:#3333CC;stroke:#3333CC;stroke-linejoin:round;}
	.st9{clip-path:url(#SVGID_00000134224515059995664830000006234845444091215806_);}
	.st10{stroke:#000000;stroke-width:0.8;stroke-linejoin:round;}
	.st11{fill:none;stroke:#000000;stroke-width:0.8;stroke-linecap:square;}
</style>
<g id="figure_1">
	<g id="axes_1">
		<g id="patch_2">
			<path class="st0" d="M15.3,89.9h94.7V12.1H15.3V89.9z"/>
		</g>
		<g id="patch_3">
			<g>
				<defs>
					<rect id="SVGID_1_" x="15.3" y="12.1" width="94.7" height="77.8"/>
				</defs>
				<clipPath id="SVGID_00000150098532245049401390000015771327902269943433_">
					<use xlink:href="#SVGID_1_"  style="overflow:visible;"/>
				</clipPath>
				<path style="clip-path:url(#SVGID_00000150098532245049401390000015771327902269943433_);fill:#808080;" d="M19.6,89.9h11.9
					V43.2H19.6V89.9z"/>
			</g>
		</g>
		<g id="patch_4">
			<g>
				<defs>
					<rect id="SVGID_00000161631460016156346610000016395803503157098668_" x="15.3" y="12.1" width="94.7" height="77.8"/>
				</defs>
				<clipPath id="SVGID_00000044898162682822298120000016179895294789186464_">
					<use xlink:href="#SVGID_00000161631460016156346610000016395803503157098668_"  style="overflow:visible;"/>
				</clipPath>
				<path style="clip-path:url(#SVGID_00000044898162682822298120000016179895294789186464_);fill:#808080;" d="M34.4,89.9h11.9
					V78.3H34.4V89.9z"/>
			</g>
		</g>
		<g id="patch_5">
			<g>
				<defs>
					<rect id="SVGID_00000062179507265223099310000017145977581643163522_" x="15.3" y="12.1" width="94.7" height="77.8"/>
				</defs>
				<clipPath id="SVGID_00000132767555986393287280000014264162166451429554_">
					<use xlink:href="#SVGID_00000062179507265223099310000017145977581643163522_"  style="overflow:visible;"/>
				</clipPath>
				<path style="clip-path:url(#SVGID_00000132767555986393287280000014264162166451429554_);fill:#808080;" d="M49.3,89.9h11.9
					V78.3H49.3V89.9z"/>
			</g>
		</g>
		<g id="patch_6">
			<g>
				<defs>
					<rect id="SVGID_00000042008391534589746890000005287878458400626818_" x="15.3" y="12.1" width="94.7" height="77.8"/>
				</defs>
				<clipPath id="SVGID_00000093138216432668021440000012002813806749147579_">
					<use xlink:href="#SVGID_00000042008391534589746890000005287878458400626818_"  style="overflow:visible;"/>
				</clipPath>
				<path style="clip-path:url(#SVGID_00000093138216432668021440000012002813806749147579_);fill:#808080;" d="M64.1,89.9H76v-7.8
					H64.1V89.9z"/>
			</g>
		</g>
		<g id="patch_7">
			<g>
				<defs>
					<rect id="SVGID_00000023269865160510259870000014416981594716086172_" x="15.3" y="12.1" width="94.7" height="77.8"/>
				</defs>
				<clipPath id="SVGID_00000129172055994006670190000002462631499973152695_">
					<use xlink:href="#SVGID_00000023269865160510259870000014416981594716086172_"  style="overflow:visible;"/>
				</clipPath>
				<path style="clip-path:url(#SVGID_00000129172055994006670190000002462631499973152695_);fill:#808080;" d="M78.9,89.9h11.9l0,0
					H78.9z"/>
			</g>
		</g>
		<g id="patch_8">
			<g>
				<defs>
					<rect id="SVGID_00000089535579317772505810000018445101468485500581_" x="15.3" y="12.1" width="94.7" height="77.8"/>
				</defs>
				<clipPath id="SVGID_00000026151910243164431980000017060584000177973414_">
					<use xlink:href="#SVGID_00000089535579317772505810000018445101468485500581_"  style="overflow:visible;"/>
				</clipPath>
				<path style="clip-path:url(#SVGID_00000026151910243164431980000017060584000177973414_);fill:#808080;" d="M93.8,89.9h11.9l0,0
					H93.8z"/>
			</g>
		</g>
		<g id="PathCollection_1">
			<g>
				<defs>
					<rect id="SVGID_00000132793263187298299960000017668035095301265568_" x="15.3" y="12.1" width="94.7" height="77.8"/>
				</defs>
				<clipPath id="SVGID_00000176725912143208214820000004925296556884831422_">
					<use xlink:href="#SVGID_00000132793263187298299960000017668035095301265568_"  style="overflow:visible;"/>
				</clipPath>
				<g style="clip-path:url(#SVGID_00000176725912143208214820000004925296556884831422_);">
					<g>
						<path id="m8948184857" class="st8" d="M26.5,61.8c0.8,0,1.6-0.3,2.1-0.9c0.6-0.6,0.9-1.3,0.9-2.1s-0.3-1.6-0.9-2.1
							c-0.6-0.6-1.3-0.9-2.1-0.9s-1.6,0.3-2.1,0.9c-0.6,0.6-0.9,1.3-0.9,2.1s0.3,1.6,0.9,2.1C24.9,61.5,25.7,61.8,26.5,61.8z"/>
					</g>
					<g>
						<path id="m8948184857_00000115497320042641606500000011666833134763728781_" class="st8" d="M39.3,85.1c0.8,0,1.6-0.3,2.1-0.9
							c0.6-0.6,0.9-1.3,0.9-2.1S42,80.6,41.4,80c-0.6-0.6-1.3-0.9-2.1-0.9s-1.6,0.3-2.1,0.9c-0.6,0.6-0.9,1.3-0.9,2.1
							s0.3,1.6,0.9,2.1C37.8,84.8,38.5,85.1,39.3,85.1z"/>
					</g>
					<g>
						<path id="m8948184857_00000119110285034767186380000012385600147235752864_" class="st8" d="M55.8,69.6c0.8,0,1.6-0.3,2.1-0.9
							c0.6-0.6,0.9-1.3,0.9-2.1s-0.3-1.6-0.9-2.1c-0.6-0.6-1.3-0.9-2.1-0.9s-1.6,0.3-2.1,0.9c-0.6,0.6-0.9,1.3-0.9,2.1
							s0.3,1.6,0.9,2.1C54.3,69.3,55,69.6,55.8,69.6z"/>
					</g>
					<g>
						<path id="m8948184857_00000082369213865921911230000004480158517830723756_" class="st8" d="M69.3,77.4c0.8,0,1.6-0.3,2.1-0.9
							c0.6-0.6,0.9-1.3,0.9-2.1s-0.3-1.6-0.9-2.1c-0.6-0.6-1.3-0.9-2.1-0.9c-0.8,0-1.6,0.3-2.1,0.9c-0.6,0.6-0.9,1.3-0.9,2.1
							s0.3,1.6,0.9,2.1C67.8,77,68.5,77.4,69.3,77.4z"/>
					</g>
					<g>
						<path id="m8948184857_00000062871248535136911650000008109540815016731309_" class="st8" d="M84.9,92.9c0.8,0,1.6-0.3,2.1-0.9
							c0.6-0.6,0.9-1.3,0.9-2.1s-0.3-1.6-0.9-2.1c-0.6-0.6-1.3-0.9-2.1-0.9c-0.8,0-1.6,0.3-2.1,0.9c-0.6,0.6-0.9,1.3-0.9,2.1
							s0.3,1.6,0.9,2.1C83.4,92.6,84.1,92.9,84.9,92.9z"/>
					</g>
					<g>
						<path id="m8948184857_00000060737772104329426880000005312650672728905856_" class="st8" d="M100.1,92.9
							c0.8,0,1.6-0.3,2.1-0.9c0.6-0.6,0.9-1.3,0.9-2.1s-0.3-1.6-0.9-2.1c-0.6-0.6-1.3-0.9-2.1-0.9c-0.8,0-1.6,0.3-2.1,0.9
							c-0.6,0.6-0.9,1.3-0.9,2.1s0.3,1.6,0.9,2.1C98.5,92.6,99.3,92.9,100.1,92.9z"/>
					</g>
				</g>
			</g>
		</g>
		<g id="PathCollection_2">
			<g>
				<defs>
					<rect id="SVGID_00000163066985165967977370000011764208035980148379_" x="15.3" y="12.1" width="94.7" height="77.8"/>
				</defs>
				<clipPath id="SVGID_00000137843057232231142630000001315258831035658626_">
					<use xlink:href="#SVGID_00000163066985165967977370000011764208035980148379_"  style="overflow:visible;"/>
				</clipPath>
				<g style="clip-path:url(#SVGID_00000137843057232231142630000001315258831035658626_);">
					<g>
						<path id="m8948184857_00000088829252953915261430000016253022316426832308_" class="st8" d="M26.2,30.7c0.8,0,1.6-0.3,2.1-0.9
							s0.9-1.3,0.9-2.1s-0.3-1.6-0.9-2.1s-1.3-0.9-2.1-0.9S24.6,25,24,25.6s-0.9,1.3-0.9,2.1s0.3,1.6,0.9,2.1S25.4,30.7,26.2,30.7z"
							/>
					</g>
					<g>
						<path id="m8948184857_00000070833567463993168600000002784964678572944559_" class="st8" d="M39.6,77.4c0.8,0,1.6-0.3,2.1-0.9
							c0.6-0.6,0.9-1.3,0.9-2.1s-0.3-1.6-0.9-2.1c-0.6-0.6-1.3-0.9-2.1-0.9s-1.6,0.3-2.1,0.9c-0.6,0.6-0.9,1.3-0.9,2.1
							s0.3,1.6,0.9,2.1C38,77,38.8,77.4,39.6,77.4z"/>
					</g>
					<g>
						<path id="m8948184857_00000143619028093955145270000013061350733939840418_" class="st8" d="M56,92.9c0.8,0,1.6-0.3,2.1-0.9
							c0.6-0.6,0.9-1.3,0.9-2.1s-0.3-1.6-0.9-2.1c-0.6-0.6-1.3-0.9-2.1-0.9s-1.6,0.3-2.1,0.9c-0.6,0.6-0.9,1.3-0.9,2.1
							s0.3,1.6,0.9,2.1C54.4,92.6,55.2,92.9,56,92.9z"/>
					</g>
					<g>
						<path id="m8948184857_00000063605285459095773640000018368853821741475979_" class="st8" d="M69,92.9c0.8,0,1.6-0.3,2.1-0.9
							c0.6-0.6,0.9-1.3,0.9-2.1s-0.3-1.6-0.9-2.1c-0.6-0.6-1.3-0.9-2.1-0.9c-0.8,0-1.6,0.3-2.1,0.9c-0.6,0.6-0.9,1.3-0.9,2.1
							s0.3,1.6,0.9,2.1C67.4,92.6,68.2,92.9,69,92.9z"/>
					</g>
					<g>
						<path id="m8948184857_00000120560444667790115430000015189601453576981899_" class="st8" d="M83.7,92.9c0.8,0,1.6-0.3,2.1-0.9
							c0.6-0.6,0.9-1.3,0.9-2.1s-0.3-1.6-0.9-2.1c-0.6-0.6-1.3-0.9-2.1-0.9c-0.8,0-1.6,0.3-2.1,0.9c-0.6,0.6-0.9,1.3-0.9,2.1
							s0.3,1.6,0.9,2.1C82.1,92.6,82.9,92.9,83.7,92.9z"/>
					</g>
					<g>
						<path id="m8948184857_00000154396925509837765930000009791529786901484182_" class="st8" d="M99.7,92.9c0.8,0,1.6-0.3,2.1-0.9
							c0.6-0.6,0.9-1.3,0.9-2.1s-0.3-1.6-0.9-2.1c-0.6-0.6-1.3-0.9-2.1-0.9c-0.8,0-1.6,0.3-2.1,0.9c-0.6,0.6-0.9,1.3-0.9,2.1
							s0.3,1.6,0.9,2.1C98.1,92.6,98.9,92.9,99.7,92.9z"/>
					</g>
				</g>
			</g>
		</g>
		<g id="matplotlib.axis_1">
			<g id="xtick_1">
				<g id="line2d_1">
					<g>
						<g>
							<path id="m3bd392e439" class="st10" d="M25.5,89.9v3.5"/>
						</g>
					</g>
				</g>
			</g>
			<g id="xtick_2">
				<g id="line2d_2">
					<g>
						<g>
							<path id="m3bd392e439_00000132066550610384776630000001976152590038067094_" class="st10" d="M40.3,89.9v3.5"/>
						</g>
					</g>
				</g>
			</g>
			<g id="xtick_3">
				<g id="line2d_3">
					<g>
						<g>
							<path id="m3bd392e439_00000021815316370315438150000005746941377886057886_" class="st10" d="M55.2,89.9v3.5"/>
						</g>
					</g>
				</g>
			</g>
			<g id="xtick_4">
				<g id="line2d_4">
					<g>
						<g>
							<path id="m3bd392e439_00000027602419605231721080000001204520112647794363_" class="st10" d="M70,89.9v3.5"/>
						</g>
					</g>
				</g>
			</g>
			<g id="xtick_5">
				<g id="line2d_5">
					<g>
						<g>
							<path id="m3bd392e439_00000070080696008957649180000015106702104277136020_" class="st10" d="M84.9,89.9v3.5"/>
						</g>
					</g>
				</g>
			</g>
			<g id="xtick_6">
				<g id="line2d_6">
					<g>
						<g>
							<path id="m3bd392e439_00000098195130212777595510000010685674396576206777_" class="st10" d="M99.7,89.9v3.5"/>
						</g>
					</g>
				</g>
			</g>
		</g>
		<g id="matplotlib.axis_2">
			<g id="ytick_1">
				<g id="line2d_7">
					<g>
						<g>
							<path id="m5497c7273f" class="st10" d="M15.3,89.9h-3.5"/>
						</g>
					</g>
				</g>
			</g>
			<g id="ytick_2">
				<g id="line2d_8">
					<g>
						<g>
							<path id="m5497c7273f_00000171681798553258998610000013457219829339983542_" class="st10" d="M15.3,74.4h-3.5"/>
						</g>
					</g>
				</g>
			</g>
			<g id="ytick_3">
				<g id="line2d_9">
					<g>
						<g>
							<path id="m5497c7273f_00000095333014239620478180000011894964852773970078_" class="st10" d="M15.3,58.8h-3.5"/>
						</g>
					</g>
				</g>
			</g>
			<g id="ytick_4">
				<g id="line2d_10">
					<g>
						<g>
							<path id="m5497c7273f_00000102504124779729959260000007771674643646144685_" class="st10" d="M15.3,43.2h-3.5"/>
						</g>
					</g>
				</g>
			</g>
			<g id="ytick_5">
				<g id="line2d_11">
					<g>
						<g>
							<path id="m5497c7273f_00000060726866516612562600000006166695421802195863_" class="st10" d="M15.3,27.7h-3.5"/>
						</g>
					</g>
				</g>
			</g>
			<g id="ytick_6">
				<g id="line2d_12">
					<g>
						<g>
							<path id="m5497c7273f_00000124884049703968117810000006888543243586242714_" class="st10" d="M15.3,12.1h-3.5"/>
						</g>
					</g>
				</g>
			</g>
		</g>
		<g id="patch_9">
			<path class="st11" d="M15.3,89.9V12.1"/>
		</g>
		<g id="patch_10">
			<path class="st11" d="M109.9,89.9V12.1"/>
		</g>
		<g id="patch_11">
			<path class="st11" d="M15.3,89.9h94.7"/>
		</g>
		<g id="patch_12">
			<path class="st11" d="M15.3,12.1h94.7"/>
		</g>
	</g>
</g>
</svg>
