<?xml version="1.0" encoding="utf-8"?>
<!-- Generator: Adobe Illustrator 26.4.1, SVG Export Plug-In . SVG Version: 6.00 Build 0)  -->
<svg version="1.1" id="Layer_1" xmlns="http://www.w3.org/2000/svg" xmlns:xlink="http://www.w3.org/1999/xlink" x="0px" y="0px"
	 viewBox="0 0 356 308" style="enable-background:new 0 0 356 308;" xml:space="preserve">
<style type="text/css">
	.st0{fill:none;stroke:#262626;stroke-width:1.3333;stroke-linecap:square;stroke-linejoin:round;stroke-miterlimit:10;}
	.st1{fill:#262626;}
	.st2{font-family:'ArialMT';}
	.st3{font-size:13.3333px;}
	.st4{fill:#0072BD;}
	.st5{fill:none;stroke:#0000FF;stroke-width:1.3333;stroke-linejoin:round;stroke-miterlimit:10;}
	.st6{fill:none;stroke:#000000;stroke-width:1.3333;stroke-linejoin:round;stroke-miterlimit:10;}
</style>
<g>
	<g>
		<line class="st0" x1="46" y1="274" x2="322" y2="274"/>
		<line class="st0" x1="61.3" y1="274" x2="61.3" y2="271.2"/>
		<line class="st0" x1="92" y1="274" x2="92" y2="271.2"/>
		<line class="st0" x1="122.7" y1="274" x2="122.7" y2="271.2"/>
		<line class="st0" x1="153.3" y1="274" x2="153.3" y2="271.2"/>
		<line class="st0" x1="184" y1="274" x2="184" y2="271.2"/>
		<line class="st0" x1="214.7" y1="274" x2="214.7" y2="271.2"/>
		<line class="st0" x1="245.3" y1="274" x2="245.3" y2="271.2"/>
		<line class="st0" x1="276" y1="274" x2="276" y2="271.2"/>
		<line class="st0" x1="306.7" y1="274" x2="306.7" y2="271.2"/>
	</g>
	<g transform="translate(61.3333,279.3333)">
		<text transform="matrix(1 0 0 1 -4 14)" class="st1 st2 st3">1</text>
	</g>
	<g transform="translate(92,279.3333)">
		<text transform="matrix(1 0 0 1 -10 14)" class="st1 st2 st3">1-2</text>
	</g>
	<g transform="translate(122.6667,279.3333)">
		<text transform="matrix(1 0 0 1 -10 14)" class="st1 st2 st3">1-3</text>
	</g>
	<g transform="translate(153.3333,279.3333)">
		<text transform="matrix(1 0 0 1 -10 14)" class="st1 st2 st3">1-4</text>
	</g>
	<g transform="translate(184,279.3333)">
		<text transform="matrix(1 0 0 1 -10 14)" class="st1 st2 st3">1-5</text>
	</g>
	<g transform="translate(214.6667,279.3333)">
		<text transform="matrix(1 0 0 1 -10 14)" class="st1 st2 st3">1-6</text>
	</g>
	<g transform="translate(245.3333,279.3333)">
		<text transform="matrix(1 0 0 1 -10 14)" class="st1 st2 st3">1-7</text>
	</g>
	<g transform="translate(276,279.3333)">
		<text transform="matrix(1 0 0 1 -10 14)" class="st1 st2 st3">1-8</text>
	</g>
	<g transform="translate(306.6667,279.3333)">
		<text transform="matrix(1 0 0 1 -10 14)" class="st1 st2 st3">1-9</text>
	</g>
	<g>
		<line class="st0" x1="46" y1="274" x2="46" y2="23"/>
		<line class="st0" x1="46" y1="274" x2="48.8" y2="274"/>
		<line class="st0" x1="46" y1="190.3" x2="48.8" y2="190.3"/>
		<line class="st0" x1="46" y1="106.7" x2="48.8" y2="106.7"/>
		<line class="st0" x1="46" y1="23" x2="48.8" y2="23"/>
	</g>
	<g transform="translate(40.6667,274)">
		<text transform="matrix(1 0 0 1 -8 5.5)" class="st1 st2 st3">4</text>
	</g>
	<g transform="translate(40.6667,190.3333)">
		<text transform="matrix(1 0 0 1 -8 5.5)" class="st1 st2 st3">6</text>
	</g>
	<g transform="translate(40.6667,106.6667)">
		<text transform="matrix(1 0 0 1 -8 5.5)" class="st1 st2 st3">8</text>
	</g>
	<g transform="translate(40.6667,23)">
		<text transform="matrix(1 0 0 1 -15 5.5)" class="st1 st2 st3">10</text>
	</g>
	<g transform="translate(61.3333,204.6142)">
		<circle class="st4" cx="0" cy="0" r="3.3"/>
	</g>
	<g transform="translate(92,247.0047)">
		<circle class="st4" cx="0" cy="0" r="3.3"/>
	</g>
	<g transform="translate(122.6667,185.0343)">
		<circle class="st4" cx="0" cy="0" r="3.3"/>
	</g>
	<g transform="translate(153.3333,214.8231)">
		<circle class="st4" cx="0" cy="0" r="3.3"/>
	</g>
	<g transform="translate(184,124.0536)">
		<circle class="st4" cx="0" cy="0" r="3.3"/>
	</g>
	<g transform="translate(214.6667,137.2402)">
		<circle class="st4" cx="0" cy="0" r="3.3"/>
	</g>
	<g transform="translate(245.3333,111.6595)">
		<circle class="st4" cx="0" cy="0" r="3.3"/>
	</g>
	<g transform="translate(276,108.9817)">
		<circle class="st4" cx="0" cy="0" r="3.3"/>
	</g>
	<g transform="translate(306.6667,74.6059)">
		<circle class="st4" cx="0" cy="0" r="3.3"/>
	</g>
	<g>
		<path class="st5" d="M61.3,233.7L92,214.4l30.7-19.3l30.7-19.3l30.7-19.3l30.7-19.3l30.7-19.3L276,98.5l30.7-19.3"/>
	</g>
	<g transform="translate(61.3333,204.6142)">
		<circle cx="0" cy="0" r="3.9"/>
	</g>
	<g transform="translate(61.3333,204.6142)">
		<path d="M0-3.2c1.8,0,3.2,1.5,3.2,3.2l0,0c0,1.8-1.5,3.2-3.2,3.2S-3.2,1.8-3.2,0S-1.8-3.2,0-3.2z M0-4.6c-2.5,0-4.6,2-4.6,4.6
			s2,4.6,4.6,4.6s4.6-2,4.6-4.6l0,0C4.6-2.5,2.5-4.6,0-4.6z"/>
	</g>
	<g transform="translate(92,247.0047)">
		<circle cx="0" cy="0" r="3.9"/>
	</g>
	<g transform="translate(92,247.0047)">
		<path d="M0-3.2c1.8,0,3.2,1.5,3.2,3.2l0,0c0,1.8-1.5,3.2-3.2,3.2S-3.2,1.8-3.2,0S-1.8-3.2,0-3.2z M0-4.6c-2.5,0-4.6,2-4.6,4.6
			s2,4.6,4.6,4.6s4.6-2,4.6-4.6l0,0C4.6-2.5,2.5-4.6,0-4.6z"/>
	</g>
	<g transform="translate(122.6667,185.0343)">
		<circle cx="0" cy="0" r="3.9"/>
	</g>
	<g transform="translate(122.6667,185.0343)">
		<path d="M0-3.2c1.8,0,3.2,1.5,3.2,3.2l0,0c0,1.8-1.5,3.2-3.2,3.2S-3.2,1.8-3.2,0S-1.8-3.2,0-3.2z M0-4.6c-2.5,0-4.6,2-4.6,4.6
			s2,4.6,4.6,4.6s4.6-2,4.6-4.6l0,0C4.6-2.5,2.5-4.6,0-4.6z"/>
	</g>
	<g transform="translate(153.3333,214.8231)">
		<circle cx="0" cy="0" r="3.9"/>
	</g>
	<g transform="translate(153.3333,214.8231)">
		<path d="M0-3.2c1.8,0,3.2,1.5,3.2,3.2l0,0c0,1.8-1.5,3.2-3.2,3.2S-3.2,1.8-3.2,0S-1.8-3.2,0-3.2z M0-4.6c-2.5,0-4.6,2-4.6,4.6
			s2,4.6,4.6,4.6s4.6-2,4.6-4.6l0,0C4.6-2.5,2.5-4.6,0-4.6z"/>
	</g>
	<g transform="translate(184,124.0536)">
		<circle cx="0" cy="0" r="3.9"/>
	</g>
	<g transform="translate(184,124.0536)">
		<path d="M0-3.2c1.8,0,3.2,1.5,3.2,3.2l0,0c0,1.8-1.5,3.2-3.2,3.2S-3.2,1.8-3.2,0S-1.8-3.2,0-3.2z M0-4.6c-2.5,0-4.6,2-4.6,4.6
			s2,4.6,4.6,4.6s4.6-2,4.6-4.6l0,0C4.6-2.5,2.5-4.6,0-4.6z"/>
	</g>
	<g transform="translate(214.6667,137.2402)">
		<circle cx="0" cy="0" r="3.9"/>
	</g>
	<g transform="translate(214.6667,137.2402)">
		<path d="M0-3.2c1.8,0,3.2,1.5,3.2,3.2l0,0c0,1.8-1.5,3.2-3.2,3.2S-3.2,1.8-3.2,0S-1.8-3.2,0-3.2z M0-4.6c-2.5,0-4.6,2-4.6,4.6
			s2,4.6,4.6,4.6s4.6-2,4.6-4.6l0,0C4.6-2.5,2.5-4.6,0-4.6z"/>
	</g>
	<g transform="translate(245.3333,111.6595)">
		<circle cx="0" cy="0" r="3.9"/>
	</g>
	<g transform="translate(245.3333,111.6595)">
		<path d="M0-3.2c1.8,0,3.2,1.5,3.2,3.2l0,0c0,1.8-1.5,3.2-3.2,3.2S-3.2,1.8-3.2,0S-1.8-3.2,0-3.2z M0-4.6c-2.5,0-4.6,2-4.6,4.6
			s2,4.6,4.6,4.6s4.6-2,4.6-4.6l0,0C4.6-2.5,2.5-4.6,0-4.6z"/>
	</g>
	<g transform="translate(276,108.9817)">
		<circle cx="0" cy="0" r="3.9"/>
	</g>
	<g transform="translate(276,108.9817)">
		<path d="M0-3.2c1.8,0,3.2,1.5,3.2,3.2l0,0c0,1.8-1.5,3.2-3.2,3.2S-3.2,1.8-3.2,0S-1.8-3.2,0-3.2z M0-4.6c-2.5,0-4.6,2-4.6,4.6
			s2,4.6,4.6,4.6s4.6-2,4.6-4.6l0,0C4.6-2.5,2.5-4.6,0-4.6z"/>
	</g>
	<g transform="translate(306.6667,74.6059)">
		<circle cx="0" cy="0" r="3.9"/>
	</g>
	<g transform="translate(306.6667,74.6059)">
		<path d="M0-3.2c1.8,0,3.2,1.5,3.2,3.2l0,0c0,1.8-1.5,3.2-3.2,3.2S-3.2,1.8-3.2,0S-1.8-3.2,0-3.2z M0-4.6c-2.5,0-4.6,2-4.6,4.6
			s2,4.6,4.6,4.6s4.6-2,4.6-4.6l0,0C4.6-2.5,2.5-4.6,0-4.6z"/>
		<path class="st6" d="M-245.3,159.1l30.7-19.3l30.7-19.3l30.7-19.3l30.7-19.3L-92,62.5l30.7-19.3l30.7-19.3L0,4.6"/>
	</g>
</g>
</svg>
