<?xml version="1.0" encoding="utf-8" standalone="no"?>
<!DOCTYPE svg PUBLIC "-//W3C//DTD SVG 1.1//EN"
  "http://www.w3.org/Graphics/SVG/1.1/DTD/svg11.dtd">
<svg xmlns:xlink="http://www.w3.org/1999/xlink" width="153.36pt" height="135.6pt" viewBox="0 0 153.36 135.6" xmlns="http://www.w3.org/2000/svg" version="1.1">
 <metadata>
  <rdf:RDF xmlns:dc="http://purl.org/dc/elements/1.1/" xmlns:cc="http://creativecommons.org/ns#" xmlns:rdf="http://www.w3.org/1999/02/22-rdf-syntax-ns#">
   <cc:Work>
    <dc:type rdf:resource="http://purl.org/dc/dcmitype/StillImage"/>
    <dc:date>2024-03-08T14:51:41.712041</dc:date>
    <dc:format>image/svg+xml</dc:format>
    <dc:creator>
     <cc:Agent>
      <dc:title>Matplotlib v3.5.2, https://matplotlib.org/</dc:title>
     </cc:Agent>
    </dc:creator>
   </cc:Work>
  </rdf:RDF>
 </metadata>
 <defs>
  <style type="text/css">*{stroke-linejoin: round; stroke-linecap: butt}</style>
 </defs>
 <g id="figure_1">
  <g id="patch_1">
   <path d="M 0 135.6 
L 153.36 135.6 
L 153.36 0 
L 0 0 
z
" style="fill: #ffffff"/>
  </g>
  <g id="axes_1">
   <g id="patch_2">
    <path d="M 19.17 120.684 
L 138.024 120.684 
L 138.024 16.272 
L 19.17 16.272 
z
" style="fill: #ffffff"/>
   </g>
   <g id="PathCollection_1">
    <defs>
     <path id="C0_0_b64469d2ea" d="M 0 3 
C 0.795609 3 1.55874 2.683901 2.12132 2.12132 
C 2.683901 1.55874 3 0.795609 3 -0 
C 3 -0.795609 2.683901 -1.55874 2.12132 -2.12132 
C 1.55874 -2.683901 0.795609 -3 0 -3 
C -0.795609 -3 -1.55874 -2.683901 -2.12132 -2.12132 
C -2.683901 -1.55874 -3 -0.795609 -3 0 
C -3 0.795609 -2.683901 1.55874 -2.12132 2.12132 
C -1.55874 2.683901 -0.795609 3 0 3 
z
"/>
    </defs>
    <g clip-path="url(#p09aa3b1c21)">
     <use xlink:href="#C0_0_b64469d2ea" x="24.572455" y="97.063809" style="fill-opacity: 0.5"/>
    </g>
    <g clip-path="url(#p09aa3b1c21)">
     <use xlink:href="#C0_0_b64469d2ea" x="24.572455" y="97.668968" style="fill-opacity: 0.5"/>
    </g>
    <g clip-path="url(#p09aa3b1c21)">
     <use xlink:href="#C0_0_b64469d2ea" x="24.572455" y="85.192732" style="fill-opacity: 0.5"/>
    </g>
    <g clip-path="url(#p09aa3b1c21)">
     <use xlink:href="#C0_0_b64469d2ea" x="24.572455" y="102.759099" style="fill-opacity: 0.5"/>
    </g>
    <g clip-path="url(#p09aa3b1c21)">
     <use xlink:href="#C0_0_b64469d2ea" x="24.572455" y="113.710047" style="fill-opacity: 0.5"/>
    </g>
    <g clip-path="url(#p09aa3b1c21)">
     <use xlink:href="#C0_0_b64469d2ea" x="24.572455" y="105.881748" style="fill-opacity: 0.5"/>
    </g>
    <g clip-path="url(#p09aa3b1c21)">
     <use xlink:href="#C0_0_b64469d2ea" x="24.572455" y="101.097873" style="fill-opacity: 0.5"/>
    </g>
    <g clip-path="url(#p09aa3b1c21)">
     <use xlink:href="#C0_0_b64469d2ea" x="24.572455" y="97.36583" style="fill-opacity: 0.5"/>
    </g>
    <g clip-path="url(#p09aa3b1c21)">
     <use xlink:href="#C0_0_b64469d2ea" x="24.572455" y="104.451525" style="fill-opacity: 0.5"/>
    </g>
    <g clip-path="url(#p09aa3b1c21)">
     <use xlink:href="#C0_0_b64469d2ea" x="24.572455" y="104.398056" style="fill-opacity: 0.5"/>
    </g>
   </g>
   <g id="PathCollection_2">
    <defs>
     <path id="C1_0_c3ac9f44cd" d="M 0 3 
C 0.795609 3 1.55874 2.683901 2.12132 2.12132 
C 2.683901 1.55874 3 0.795609 3 -0 
C 3 -0.795609 2.683901 -1.55874 2.12132 -2.12132 
C 1.55874 -2.683901 0.795609 -3 0 -3 
C -0.795609 -3 -1.55874 -2.683901 -2.12132 -2.12132 
C -2.683901 -1.55874 -3 -0.795609 -3 0 
C -3 0.795609 -2.683901 1.55874 -2.12132 2.12132 
C -1.55874 2.683901 -0.795609 3 0 3 
z
"/>
    </defs>
    <g clip-path="url(#p09aa3b1c21)">
     <use xlink:href="#C1_0_c3ac9f44cd" x="36.577909" y="102.198984" style="fill-opacity: 0.5"/>
    </g>
    <g clip-path="url(#p09aa3b1c21)">
     <use xlink:href="#C1_0_c3ac9f44cd" x="36.577909" y="88.587096" style="fill-opacity: 0.5"/>
    </g>
    <g clip-path="url(#p09aa3b1c21)">
     <use xlink:href="#C1_0_c3ac9f44cd" x="36.577909" y="88.476823" style="fill-opacity: 0.5"/>
    </g>
    <g clip-path="url(#p09aa3b1c21)">
     <use xlink:href="#C1_0_c3ac9f44cd" x="36.577909" y="115.938" style="fill-opacity: 0.5"/>
    </g>
    <g clip-path="url(#p09aa3b1c21)">
     <use xlink:href="#C1_0_c3ac9f44cd" x="36.577909" y="102.717017" style="fill-opacity: 0.5"/>
    </g>
    <g clip-path="url(#p09aa3b1c21)">
     <use xlink:href="#C1_0_c3ac9f44cd" x="36.577909" y="102.105703" style="fill-opacity: 0.5"/>
    </g>
    <g clip-path="url(#p09aa3b1c21)">
     <use xlink:href="#C1_0_c3ac9f44cd" x="36.577909" y="80.248968" style="fill-opacity: 0.5"/>
    </g>
    <g clip-path="url(#p09aa3b1c21)">
     <use xlink:href="#C1_0_c3ac9f44cd" x="36.577909" y="94.27106" style="fill-opacity: 0.5"/>
    </g>
    <g clip-path="url(#p09aa3b1c21)">
     <use xlink:href="#C1_0_c3ac9f44cd" x="36.577909" y="107.743948" style="fill-opacity: 0.5"/>
    </g>
   </g>
   <g id="PathCollection_3">
    <defs>
     <path id="C2_0_21b032b55f" d="M 0 3 
C 0.795609 3 1.55874 2.683901 2.12132 2.12132 
C 2.683901 1.55874 3 0.795609 3 -0 
C 3 -0.795609 2.683901 -1.55874 2.12132 -2.12132 
C 1.55874 -2.683901 0.795609 -3 0 -3 
C -0.795609 -3 -1.55874 -2.683901 -2.12132 -2.12132 
C -2.683901 -1.55874 -3 -0.795609 -3 0 
C -3 0.795609 -2.683901 1.55874 -2.12132 2.12132 
C -1.55874 2.683901 -0.795609 3 0 3 
z
"/>
    </defs>
    <g clip-path="url(#p09aa3b1c21)">
     <use xlink:href="#C2_0_21b032b55f" x="48.583364" y="47.002865" style="fill-opacity: 0.5"/>
    </g>
    <g clip-path="url(#p09aa3b1c21)">
     <use xlink:href="#C2_0_21b032b55f" x="48.583364" y="70.850211" style="fill-opacity: 0.5"/>
    </g>
    <g clip-path="url(#p09aa3b1c21)">
     <use xlink:href="#C2_0_21b032b55f" x="48.583364" y="82.496094" style="fill-opacity: 0.5"/>
    </g>
    <g clip-path="url(#p09aa3b1c21)">
     <use xlink:href="#C2_0_21b032b55f" x="48.583364" y="72.143822" style="fill-opacity: 0.5"/>
    </g>
    <g clip-path="url(#p09aa3b1c21)">
     <use xlink:href="#C2_0_21b032b55f" x="48.583364" y="85.620395" style="fill-opacity: 0.5"/>
    </g>
    <g clip-path="url(#p09aa3b1c21)">
     <use xlink:href="#C2_0_21b032b55f" x="48.583364" y="70.181957" style="fill-opacity: 0.5"/>
    </g>
    <g clip-path="url(#p09aa3b1c21)">
     <use xlink:href="#C2_0_21b032b55f" x="48.583364" y="53.779359" style="fill-opacity: 0.5"/>
    </g>
    <g clip-path="url(#p09aa3b1c21)">
     <use xlink:href="#C2_0_21b032b55f" x="48.583364" y="85.195638" style="fill-opacity: 0.5"/>
    </g>
   </g>
   <g id="PathCollection_4">
    <defs>
     <path id="C3_0_3544c08208" d="M 0 3 
C 0.795609 3 1.55874 2.683901 2.12132 2.12132 
C 2.683901 1.55874 3 0.795609 3 -0 
C 3 -0.795609 2.683901 -1.55874 2.12132 -2.12132 
C 1.55874 -2.683901 0.795609 -3 0 -3 
C -0.795609 -3 -1.55874 -2.683901 -2.12132 -2.12132 
C -2.683901 -1.55874 -3 -0.795609 -3 0 
C -3 0.795609 -2.683901 1.55874 -2.12132 2.12132 
C -1.55874 2.683901 -0.795609 3 0 3 
z
"/>
    </defs>
    <g clip-path="url(#p09aa3b1c21)">
     <use xlink:href="#C3_0_3544c08208" x="60.588818" y="75.635307" style="fill-opacity: 0.5"/>
    </g>
    <g clip-path="url(#p09aa3b1c21)">
     <use xlink:href="#C3_0_3544c08208" x="60.588818" y="103.886332" style="fill-opacity: 0.5"/>
    </g>
    <g clip-path="url(#p09aa3b1c21)">
     <use xlink:href="#C3_0_3544c08208" x="60.588818" y="68.718297" style="fill-opacity: 0.5"/>
    </g>
    <g clip-path="url(#p09aa3b1c21)">
     <use xlink:href="#C3_0_3544c08208" x="60.588818" y="83.714534" style="fill-opacity: 0.5"/>
    </g>
    <g clip-path="url(#p09aa3b1c21)">
     <use xlink:href="#C3_0_3544c08208" x="60.588818" y="80.239197" style="fill-opacity: 0.5"/>
    </g>
    <g clip-path="url(#p09aa3b1c21)">
     <use xlink:href="#C3_0_3544c08208" x="60.588818" y="74.83206" style="fill-opacity: 0.5"/>
    </g>
    <g clip-path="url(#p09aa3b1c21)">
     <use xlink:href="#C3_0_3544c08208" x="60.588818" y="85.250013" style="fill-opacity: 0.5"/>
    </g>
   </g>
   <g id="PathCollection_5">
    <defs>
     <path id="C4_0_99ff073769" d="M 0 3 
C 0.795609 3 1.55874 2.683901 2.12132 2.12132 
C 2.683901 1.55874 3 0.795609 3 -0 
C 3 -0.795609 2.683901 -1.55874 2.12132 -2.12132 
C 1.55874 -2.683901 0.795609 -3 0 -3 
C -0.795609 -3 -1.55874 -2.683901 -2.12132 -2.12132 
C -2.683901 -1.55874 -3 -0.795609 -3 0 
C -3 0.795609 -2.683901 1.55874 -2.12132 2.12132 
C -1.55874 2.683901 -0.795609 3 0 3 
z
"/>
    </defs>
    <g clip-path="url(#p09aa3b1c21)">
     <use xlink:href="#C4_0_99ff073769" x="72.594273" y="79.094224" style="fill-opacity: 0.5"/>
    </g>
    <g clip-path="url(#p09aa3b1c21)">
     <use xlink:href="#C4_0_99ff073769" x="72.594273" y="65.075744" style="fill-opacity: 0.5"/>
    </g>
    <g clip-path="url(#p09aa3b1c21)">
     <use xlink:href="#C4_0_99ff073769" x="72.594273" y="46.783234" style="fill-opacity: 0.5"/>
    </g>
    <g clip-path="url(#p09aa3b1c21)">
     <use xlink:href="#C4_0_99ff073769" x="72.594273" y="38.621623" style="fill-opacity: 0.5"/>
    </g>
    <g clip-path="url(#p09aa3b1c21)">
     <use xlink:href="#C4_0_99ff073769" x="72.594273" y="40.120268" style="fill-opacity: 0.5"/>
    </g>
    <g clip-path="url(#p09aa3b1c21)">
     <use xlink:href="#C4_0_99ff073769" x="72.594273" y="69.502192" style="fill-opacity: 0.5"/>
    </g>
   </g>
   <g id="PathCollection_6">
    <defs>
     <path id="C5_0_069f5d6231" d="M 0 3 
C 0.795609 3 1.55874 2.683901 2.12132 2.12132 
C 2.683901 1.55874 3 0.795609 3 -0 
C 3 -0.795609 2.683901 -1.55874 2.12132 -2.12132 
C 1.55874 -2.683901 0.795609 -3 0 -3 
C -0.795609 -3 -1.55874 -2.683901 -2.12132 -2.12132 
C -2.683901 -1.55874 -3 -0.795609 -3 0 
C -3 0.795609 -2.683901 1.55874 -2.12132 2.12132 
C -1.55874 2.683901 -0.795609 3 0 3 
z
"/>
    </defs>
    <g clip-path="url(#p09aa3b1c21)">
     <use xlink:href="#C5_0_069f5d6231" x="84.599727" y="53.951461" style="fill-opacity: 0.5"/>
    </g>
    <g clip-path="url(#p09aa3b1c21)">
     <use xlink:href="#C5_0_069f5d6231" x="84.599727" y="46.1897" style="fill-opacity: 0.5"/>
    </g>
    <g clip-path="url(#p09aa3b1c21)">
     <use xlink:href="#C5_0_069f5d6231" x="84.599727" y="21.018" style="fill-opacity: 0.5"/>
    </g>
    <g clip-path="url(#p09aa3b1c21)">
     <use xlink:href="#C5_0_069f5d6231" x="84.599727" y="50.022167" style="fill-opacity: 0.5"/>
    </g>
    <g clip-path="url(#p09aa3b1c21)">
     <use xlink:href="#C5_0_069f5d6231" x="84.599727" y="61.737393" style="fill-opacity: 0.5"/>
    </g>
   </g>
   <g id="PathCollection_7">
    <defs>
     <path id="C6_0_d362a1fa92" d="M 0 3 
C 0.795609 3 1.55874 2.683901 2.12132 2.12132 
C 2.683901 1.55874 3 0.795609 3 -0 
C 3 -0.795609 2.683901 -1.55874 2.12132 -2.12132 
C 1.55874 -2.683901 0.795609 -3 0 -3 
C -0.795609 -3 -1.55874 -2.683901 -2.12132 -2.12132 
C -2.683901 -1.55874 -3 -0.795609 -3 0 
C -3 0.795609 -2.683901 1.55874 -2.12132 2.12132 
C -1.55874 2.683901 -0.795609 3 0 3 
z
"/>
    </defs>
    <g clip-path="url(#p09aa3b1c21)">
     <use xlink:href="#C6_0_d362a1fa92" x="96.605182" y="63.396278" style="fill-opacity: 0.5"/>
    </g>
    <g clip-path="url(#p09aa3b1c21)">
     <use xlink:href="#C6_0_d362a1fa92" x="96.605182" y="75.910966" style="fill-opacity: 0.5"/>
    </g>
    <g clip-path="url(#p09aa3b1c21)">
     <use xlink:href="#C6_0_d362a1fa92" x="96.605182" y="71.891588" style="fill-opacity: 0.5"/>
    </g>
    <g clip-path="url(#p09aa3b1c21)">
     <use xlink:href="#C6_0_d362a1fa92" x="96.605182" y="93.610514" style="fill-opacity: 0.5"/>
    </g>
   </g>
   <g id="PathCollection_8">
    <defs>
     <path id="C7_0_5a5257a2eb" d="M 0 3 
C 0.795609 3 1.55874 2.683901 2.12132 2.12132 
C 2.683901 1.55874 3 0.795609 3 -0 
C 3 -0.795609 2.683901 -1.55874 2.12132 -2.12132 
C 1.55874 -2.683901 0.795609 -3 0 -3 
C -0.795609 -3 -1.55874 -2.683901 -2.12132 -2.12132 
C -2.683901 -1.55874 -3 -0.795609 -3 0 
C -3 0.795609 -2.683901 1.55874 -2.12132 2.12132 
C -1.55874 2.683901 -0.795609 3 0 3 
z
"/>
    </defs>
    <g clip-path="url(#p09aa3b1c21)">
     <use xlink:href="#C7_0_5a5257a2eb" x="108.610636" y="49.245961" style="fill-opacity: 0.5"/>
    </g>
    <g clip-path="url(#p09aa3b1c21)">
     <use xlink:href="#C7_0_5a5257a2eb" x="108.610636" y="57.078524" style="fill-opacity: 0.5"/>
    </g>
    <g clip-path="url(#p09aa3b1c21)">
     <use xlink:href="#C7_0_5a5257a2eb" x="108.610636" y="74.893841" style="fill-opacity: 0.5"/>
    </g>
   </g>
   <g id="PathCollection_9">
    <defs>
     <path id="C8_0_7cb6cedc6f" d="M 0 3 
C 0.795609 3 1.55874 2.683901 2.12132 2.12132 
C 2.683901 1.55874 3 0.795609 3 -0 
C 3 -0.795609 2.683901 -1.55874 2.12132 -2.12132 
C 1.55874 -2.683901 0.795609 -3 0 -3 
C -0.795609 -3 -1.55874 -2.683901 -2.12132 -2.12132 
C -2.683901 -1.55874 -3 -0.795609 -3 0 
C -3 0.795609 -2.683901 1.55874 -2.12132 2.12132 
C -1.55874 2.683901 -0.795609 3 0 3 
z
"/>
    </defs>
    <g clip-path="url(#p09aa3b1c21)">
     <use xlink:href="#C8_0_7cb6cedc6f" x="120.616091" y="44.708373" style="fill-opacity: 0.5"/>
    </g>
    <g clip-path="url(#p09aa3b1c21)">
     <use xlink:href="#C8_0_7cb6cedc6f" x="120.616091" y="64.200632" style="fill-opacity: 0.5"/>
    </g>
   </g>
   <g id="PathCollection_10">
    <path d="M 132.621545 65.524789 
C 133.417155 65.524789 134.180285 65.20869 134.742866 64.646109 
C 135.305447 64.083528 135.621545 63.320398 135.621545 62.524789 
C 135.621545 61.72918 135.305447 60.966049 134.742866 60.403469 
C 134.180285 59.840888 133.417155 59.524789 132.621545 59.524789 
C 131.825936 59.524789 131.062806 59.840888 130.500225 60.403469 
C 129.937644 60.966049 129.621545 61.72918 129.621545 62.524789 
C 129.621545 63.320398 129.937644 64.083528 130.500225 64.646109 
C 131.062806 65.20869 131.825936 65.524789 132.621545 65.524789 
z
" clip-path="url(#p09aa3b1c21)" style="fill-opacity: 0.5"/>
   </g>
   <g id="matplotlib.axis_1">
    <g id="xtick_1">
     <g id="line2d_1">
      <defs>
       <path id="m09c04cc271" d="M 0 0 
L 0 3.5 
" style="stroke: #000000; stroke-width: 0.8"/>
      </defs>
      <g>
       <use xlink:href="#m09c04cc271" x="24.572455" y="120.684" style="stroke: #000000; stroke-width: 0.8"/>
      </g>
     </g>
    </g>
    <g id="xtick_2">
     <g id="line2d_2">
      <g>
       <use xlink:href="#m09c04cc271" x="36.577909" y="120.684" style="stroke: #000000; stroke-width: 0.8"/>
      </g>
     </g>
    </g>
    <g id="xtick_3">
     <g id="line2d_3">
      <g>
       <use xlink:href="#m09c04cc271" x="48.583364" y="120.684" style="stroke: #000000; stroke-width: 0.8"/>
      </g>
     </g>
    </g>
    <g id="xtick_4">
     <g id="line2d_4">
      <g>
       <use xlink:href="#m09c04cc271" x="60.588818" y="120.684" style="stroke: #000000; stroke-width: 0.8"/>
      </g>
     </g>
    </g>
    <g id="xtick_5">
     <g id="line2d_5">
      <g>
       <use xlink:href="#m09c04cc271" x="72.594273" y="120.684" style="stroke: #000000; stroke-width: 0.8"/>
      </g>
     </g>
    </g>
    <g id="xtick_6">
     <g id="line2d_6">
      <g>
       <use xlink:href="#m09c04cc271" x="84.599727" y="120.684" style="stroke: #000000; stroke-width: 0.8"/>
      </g>
     </g>
    </g>
    <g id="xtick_7">
     <g id="line2d_7">
      <g>
       <use xlink:href="#m09c04cc271" x="96.605182" y="120.684" style="stroke: #000000; stroke-width: 0.8"/>
      </g>
     </g>
    </g>
    <g id="xtick_8">
     <g id="line2d_8">
      <g>
       <use xlink:href="#m09c04cc271" x="108.610636" y="120.684" style="stroke: #000000; stroke-width: 0.8"/>
      </g>
     </g>
    </g>
    <g id="xtick_9">
     <g id="line2d_9">
      <g>
       <use xlink:href="#m09c04cc271" x="120.616091" y="120.684" style="stroke: #000000; stroke-width: 0.8"/>
      </g>
     </g>
    </g>
    <g id="xtick_10">
     <g id="line2d_10">
      <g>
       <use xlink:href="#m09c04cc271" x="132.621545" y="120.684" style="stroke: #000000; stroke-width: 0.8"/>
      </g>
     </g>
    </g>
   </g>
   <g id="matplotlib.axis_2">
    <g id="ytick_1">
     <g id="line2d_11">
      <defs>
       <path id="m1704aef541" d="M 0 0 
L -3.5 0 
" style="stroke: #000000; stroke-width: 0.8"/>
      </defs>
      <g>
       <use xlink:href="#m1704aef541" x="19.17" y="109.055491" style="stroke: #000000; stroke-width: 0.8"/>
      </g>
     </g>
    </g>
    <g id="ytick_2">
     <g id="line2d_12">
      <g>
       <use xlink:href="#m1704aef541" x="19.17" y="88.600835" style="stroke: #000000; stroke-width: 0.8"/>
      </g>
     </g>
    </g>
    <g id="ytick_3">
     <g id="line2d_13">
      <g>
       <use xlink:href="#m1704aef541" x="19.17" y="68.146179" style="stroke: #000000; stroke-width: 0.8"/>
      </g>
     </g>
    </g>
    <g id="ytick_4">
     <g id="line2d_14">
      <g>
       <use xlink:href="#m1704aef541" x="19.17" y="47.691523" style="stroke: #000000; stroke-width: 0.8"/>
      </g>
     </g>
    </g>
    <g id="ytick_5">
     <g id="line2d_15">
      <g>
       <use xlink:href="#m1704aef541" x="19.17" y="27.236867" style="stroke: #000000; stroke-width: 0.8"/>
      </g>
     </g>
    </g>
   </g>
   <g id="line2d_16">
    <path d="M 24.572455 92.382803 
L 36.577909 87.623983 
L 48.583364 82.865164 
L 60.588818 78.106344 
L 72.594273 73.347525 
L 84.599727 68.588705 
L 96.605182 63.829886 
L 108.610636 59.071066 
L 120.616091 54.312247 
L 132.621545 49.553427 
" clip-path="url(#p09aa3b1c21)" style="fill: none; stroke: #000000; stroke-width: 1.5; stroke-linecap: square"/>
   </g>
   <g id="patch_3">
    <path d="M 19.17 120.684 
L 19.17 16.272 
" style="fill: none; stroke: #000000; stroke-width: 0.8; stroke-linejoin: miter; stroke-linecap: square"/>
   </g>
   <g id="patch_4">
    <path d="M 138.024 120.684 
L 138.024 16.272 
" style="fill: none; stroke: #000000; stroke-width: 0.8; stroke-linejoin: miter; stroke-linecap: square"/>
   </g>
   <g id="patch_5">
    <path d="M 19.17 120.684 
L 138.024 120.684 
" style="fill: none; stroke: #000000; stroke-width: 0.8; stroke-linejoin: miter; stroke-linecap: square"/>
   </g>
   <g id="patch_6">
    <path d="M 19.17 16.272 
L 138.024 16.272 
" style="fill: none; stroke: #000000; stroke-width: 0.8; stroke-linejoin: miter; stroke-linecap: square"/>
   </g>
  </g>
 </g>
 <defs>
  <clipPath id="p09aa3b1c21">
   <rect x="19.17" y="16.272" width="118.854" height="104.412"/>
  </clipPath>
 </defs>
</svg>
