<?xml version="1.0" encoding="utf-8"?>
<!-- Generator: Adobe Illustrator 26.4.1, SVG Export Plug-In . SVG Version: 6.00 Build 0)  -->
<svg version="1.1" id="Layer_1" xmlns="http://www.w3.org/2000/svg" xmlns:xlink="http://www.w3.org/1999/xlink" x="0px" y="0px"
	 viewBox="0 0 145.7 118.3" style="enable-background:new 0 0 145.7 118.3;" xml:space="preserve">
<style type="text/css">
	.st0{fill:#FFFFFF;}
	.st1{clip-path:url(#SVGID_00000016043681828648798130000006676636150903327150_);}
	.st2{fill-opacity:0.5;}
	.st3{clip-path:url(#SVGID_00000101796094737975732490000014546493190317865873_);}
	.st4{clip-path:url(#SVGID_00000075857456547434826080000012474005565465950598_);}
	.st5{clip-path:url(#SVGID_00000013178506393137124930000013457814886014458515_);}
	.st6{clip-path:url(#SVGID_00000069388881634264797370000011638779313098508189_);}
	.st7{clip-path:url(#SVGID_00000019655707099030416270000008748348305853587353_);}
	.st8{clip-path:url(#SVGID_00000041288082082361516440000003304037274965084289_);}
	.st9{clip-path:url(#SVGID_00000116209236458661303380000005251252531991639983_);}
	.st10{clip-path:url(#SVGID_00000142893840948938928090000003887499609218604969_);}
	.st11{clip-path:url(#SVGID_00000136387558634766991810000004227666738955600317_);}
	.st12{clip-path:url(#SVGID_00000001640964450827469700000003701741201024365964_);}
	.st13{clip-path:url(#SVGID_00000058576699455952570390000014023692909427732906_);}
	.st14{clip-path:url(#SVGID_00000148641288036083871090000015504813103564889522_);}
	.st15{clip-path:url(#SVGID_00000112626956600759294620000007198662310323930506_);}
	.st16{clip-path:url(#SVGID_00000059305076922435039040000003890532303999500966_);}
	.st17{clip-path:url(#SVGID_00000134954304639929417480000014369371361953589141_);}
	.st18{clip-path:url(#SVGID_00000018234672502237311000000003558160074121400456_);}
	.st19{clip-path:url(#SVGID_00000116215586970912008800000003305011445014278539_);}
	.st20{clip-path:url(#SVGID_00000125583945690759020690000003805316493806344328_);}
	.st21{clip-path:url(#SVGID_00000132045915932662214090000011476033262401994681_);}
	.st22{clip-path:url(#SVGID_00000124864123087299145100000007283946298840351888_);}
	.st23{clip-path:url(#SVGID_00000070810541641912797340000010300141264471562170_);}
	.st24{clip-path:url(#SVGID_00000023995269117159965030000017143453837636711810_);}
	.st25{clip-path:url(#SVGID_00000143578184150351096740000013683449330841520020_);}
	.st26{clip-path:url(#SVGID_00000018237883100649275660000003094159099381302441_);}
	.st27{clip-path:url(#SVGID_00000141427088376223229490000014651945632977843074_);}
	.st28{clip-path:url(#SVGID_00000021838594235793951010000009025325486103816379_);}
	.st29{clip-path:url(#SVGID_00000159465420457399216670000012055958761753114293_);}
	.st30{clip-path:url(#SVGID_00000120558797412791677670000002518213375975790219_);}
	.st31{clip-path:url(#SVGID_00000007397936499286116180000015776438786758026387_);}
	.st32{clip-path:url(#SVGID_00000115517265205945466630000010633116984924204466_);}
	.st33{clip-path:url(#SVGID_00000159470336097030514730000001076155429256552106_);}
	.st34{clip-path:url(#SVGID_00000096032147203707579670000007146000289407180674_);}
	.st35{clip-path:url(#SVGID_00000150824526775126210400000005352312427062341291_);}
	.st36{clip-path:url(#SVGID_00000168803288646562806900000006954934804226201224_);}
	.st37{clip-path:url(#SVGID_00000117673804173066821230000015856380379847764156_);}
	.st38{clip-path:url(#SVGID_00000063627706686174335450000000128121107786710456_);}
	.st39{clip-path:url(#SVGID_00000088125293382723963180000010012614060507008640_);}
	.st40{clip-path:url(#SVGID_00000022530409266741281960000008724103963834210433_);}
	.st41{clip-path:url(#SVGID_00000003795289449649765680000003185383890043595684_);}
	.st42{clip-path:url(#SVGID_00000178199108291701110620000009120308874512550287_);}
	.st43{clip-path:url(#SVGID_00000083787038236140143660000016056127542571053218_);}
	.st44{clip-path:url(#SVGID_00000049942583841515615610000006633338780216631692_);}
	.st45{clip-path:url(#SVGID_00000140732704054636731330000014372781863614339005_);}
	.st46{clip-path:url(#SVGID_00000170260342906762015790000000257948898799888561_);fill-opacity:0.5;}
	.st47{stroke:#000000;stroke-width:0.8;stroke-linejoin:round;}
	
		.st48{clip-path:url(#SVGID_00000040575760228044228910000016899265147893985674_);fill:none;stroke:#000000;stroke-width:1.5;stroke-linecap:square;stroke-linejoin:round;}
	.st49{fill:none;stroke:#000000;stroke-width:0.8;stroke-linecap:square;}
</style>
<g id="figure_1">
	<g id="axes_1">
		<g id="patch_2">
			<path class="st0" d="M18.2,105.3h112.9V14.2H18.2V105.3z"/>
		</g>
		<g id="PathCollection_1">
			<g>
				<defs>
					<rect id="SVGID_1_" x="18.2" y="14.2" width="112.9" height="91.1"/>
				</defs>
				<clipPath id="SVGID_00000108287034053222367330000006464418011137025448_">
					<use xlink:href="#SVGID_1_"  style="overflow:visible;"/>
				</clipPath>
				<g style="clip-path:url(#SVGID_00000108287034053222367330000006464418011137025448_);">
					<g>
						<path id="C0_0_24ffac3518" class="st2" d="M23.3,55.8c0.8,0,1.6-0.3,2.1-0.9c0.6-0.6,0.9-1.3,0.9-2.1s-0.3-1.6-0.9-2.1
							c-0.6-0.6-1.3-0.9-2.1-0.9s-1.6,0.3-2.1,0.9c-0.6,0.6-0.9,1.3-0.9,2.1s0.3,1.6,0.9,2.1C21.8,55.5,22.5,55.8,23.3,55.8z"/>
					</g>
				</g>
			</g>
			<g>
				<defs>
					<rect id="SVGID_00000062166684626189022950000001900396486057517752_" x="18.2" y="14.2" width="112.9" height="91.1"/>
				</defs>
				<clipPath id="SVGID_00000096059935416529397620000006008611675441161356_">
					<use xlink:href="#SVGID_00000062166684626189022950000001900396486057517752_"  style="overflow:visible;"/>
				</clipPath>
				<g style="clip-path:url(#SVGID_00000096059935416529397620000006008611675441161356_);">
					<g>
						<path id="C0_0_24ffac3518_00000126300451478958926310000016801099586923618454_" class="st2" d="M23.3,55.3
							c0.8,0,1.6-0.3,2.1-0.9c0.6-0.6,0.9-1.3,0.9-2.1s-0.3-1.6-0.9-2.1c-0.6-0.6-1.3-0.9-2.1-0.9s-1.6,0.3-2.1,0.9
							c-0.6,0.6-0.9,1.3-0.9,2.1s0.3,1.6,0.9,2.1C21.8,54.9,22.5,55.3,23.3,55.3z"/>
					</g>
				</g>
			</g>
			<g>
				<defs>
					<rect id="SVGID_00000085933796431590874680000014835517769540862638_" x="18.2" y="14.2" width="112.9" height="91.1"/>
				</defs>
				<clipPath id="SVGID_00000133518637911818221820000002756815722684573103_">
					<use xlink:href="#SVGID_00000085933796431590874680000014835517769540862638_"  style="overflow:visible;"/>
				</clipPath>
				<g style="clip-path:url(#SVGID_00000133518637911818221820000002756815722684573103_);">
					<g>
						<path id="C0_0_24ffac3518_00000175323045093915870990000008482259583500873396_" class="st2" d="M23.3,91.7
							c0.8,0,1.6-0.3,2.1-0.9c0.6-0.6,0.9-1.3,0.9-2.1s-0.3-1.6-0.9-2.1c-0.6-0.6-1.3-0.9-2.1-0.9s-1.6,0.3-2.1,0.9
							c-0.6,0.6-0.9,1.3-0.9,2.1s0.3,1.6,0.9,2.1C21.8,91.3,22.5,91.7,23.3,91.7z"/>
					</g>
				</g>
			</g>
			<g>
				<defs>
					<rect id="SVGID_00000134962423907795868670000010901331630370666387_" x="18.2" y="14.2" width="112.9" height="91.1"/>
				</defs>
				<clipPath id="SVGID_00000101083574387568287300000009118867226586936980_">
					<use xlink:href="#SVGID_00000134962423907795868670000010901331630370666387_"  style="overflow:visible;"/>
				</clipPath>
				<g style="clip-path:url(#SVGID_00000101083574387568287300000009118867226586936980_);">
					<g>
						<path id="C0_0_24ffac3518_00000122722418119091569590000006699446450596533903_" class="st2" d="M23.3,81.6
							c0.8,0,1.6-0.3,2.1-0.9c0.6-0.6,0.9-1.3,0.9-2.1S26,77,25.5,76.5c-0.6-0.6-1.3-0.9-2.1-0.9s-1.6,0.3-2.1,0.9
							c-0.6,0.6-0.9,1.3-0.9,2.1s0.3,1.6,0.9,2.1C21.8,81.3,22.5,81.6,23.3,81.6z"/>
					</g>
				</g>
			</g>
			<g>
				<defs>
					<rect id="SVGID_00000098199599959455369470000003543778385551129228_" x="18.2" y="14.2" width="112.9" height="91.1"/>
				</defs>
				<clipPath id="SVGID_00000159455098616587054190000008621233147794638748_">
					<use xlink:href="#SVGID_00000098199599959455369470000003543778385551129228_"  style="overflow:visible;"/>
				</clipPath>
				<g style="clip-path:url(#SVGID_00000159455098616587054190000008621233147794638748_);">
					<g>
						<path id="C0_0_24ffac3518_00000018956232055378611660000010189544704730625468_" class="st2" d="M23.3,87.6
							c0.8,0,1.6-0.3,2.1-0.9c0.6-0.6,0.9-1.3,0.9-2.1S26,83,25.5,82.4c-0.6-0.6-1.3-0.9-2.1-0.9s-1.6,0.3-2.1,0.9
							c-0.6,0.6-0.9,1.3-0.9,2.1s0.3,1.6,0.9,2.1C21.8,87.2,22.5,87.6,23.3,87.6z"/>
					</g>
				</g>
			</g>
			<g>
				<defs>
					<rect id="SVGID_00000094586019988198217890000012083242412353799093_" x="18.2" y="14.2" width="112.9" height="91.1"/>
				</defs>
				<clipPath id="SVGID_00000042698417535604742040000012507075992394045865_">
					<use xlink:href="#SVGID_00000094586019988198217890000012083242412353799093_"  style="overflow:visible;"/>
				</clipPath>
				<g style="clip-path:url(#SVGID_00000042698417535604742040000012507075992394045865_);">
					<g>
						<path id="C0_0_24ffac3518_00000183937212875732787900000015644073845524378786_" class="st2" d="M23.3,84.5
							c0.8,0,1.6-0.3,2.1-0.9c0.6-0.6,0.9-1.3,0.9-2.1S26,80,25.5,79.4c-0.6-0.6-1.3-0.9-2.1-0.9s-1.6,0.3-2.1,0.9
							c-0.6,0.6-0.9,1.3-0.9,2.1s0.3,1.6,0.9,2.1C21.8,84.2,22.5,84.5,23.3,84.5z"/>
					</g>
				</g>
			</g>
			<g>
				<defs>
					<rect id="SVGID_00000167388819942566876040000003695259533183557818_" x="18.2" y="14.2" width="112.9" height="91.1"/>
				</defs>
				<clipPath id="SVGID_00000139286632296971911600000004575136185379487678_">
					<use xlink:href="#SVGID_00000167388819942566876040000003695259533183557818_"  style="overflow:visible;"/>
				</clipPath>
				<g style="clip-path:url(#SVGID_00000139286632296971911600000004575136185379487678_);">
					<g>
						<path id="C0_0_24ffac3518_00000152958496234206110060000003397230600238194612_" class="st2" d="M23.3,88.4
							c0.8,0,1.6-0.3,2.1-0.9c0.6-0.6,0.9-1.3,0.9-2.1s-0.3-1.6-0.9-2.1c-0.6-0.6-1.3-0.9-2.1-0.9s-1.6,0.3-2.1,0.9
							c-0.6,0.6-0.9,1.3-0.9,2.1s0.3,1.6,0.9,2.1C21.8,88,22.5,88.4,23.3,88.4z"/>
					</g>
				</g>
			</g>
			<g>
				<defs>
					<rect id="SVGID_00000039113799891336606150000010306477286278781337_" x="18.2" y="14.2" width="112.9" height="91.1"/>
				</defs>
				<clipPath id="SVGID_00000167370195270744312570000002443450321715564691_">
					<use xlink:href="#SVGID_00000039113799891336606150000010306477286278781337_"  style="overflow:visible;"/>
				</clipPath>
				<g style="clip-path:url(#SVGID_00000167370195270744312570000002443450321715564691_);">
					<g>
						<path id="C0_0_24ffac3518_00000118357861979683225840000006986358637143514758_" class="st2" d="M23.3,73.7
							c0.8,0,1.6-0.3,2.1-0.9c0.6-0.6,0.9-1.3,0.9-2.1s-0.3-1.6-0.9-2.1c-0.6-0.6-1.3-0.9-2.1-0.9s-1.6,0.3-2.1,0.9
							c-0.6,0.6-0.9,1.3-0.9,2.1s0.3,1.6,0.9,2.1C21.8,73.4,22.5,73.7,23.3,73.7z"/>
					</g>
				</g>
			</g>
			<g>
				<defs>
					<rect id="SVGID_00000093156586000014317020000005391093903876391056_" x="18.2" y="14.2" width="112.9" height="91.1"/>
				</defs>
				<clipPath id="SVGID_00000084529702901839428450000006152462492478956201_">
					<use xlink:href="#SVGID_00000093156586000014317020000005391093903876391056_"  style="overflow:visible;"/>
				</clipPath>
				<g style="clip-path:url(#SVGID_00000084529702901839428450000006152462492478956201_);">
					<g>
						<path id="C0_0_24ffac3518_00000033366653979332158030000005390971729635429523_" class="st2" d="M23.3,82.5
							c0.8,0,1.6-0.3,2.1-0.9c0.6-0.6,0.9-1.3,0.9-2.1s-0.3-1.6-0.9-2.1c-0.6-0.6-1.3-0.9-2.1-0.9s-1.6,0.3-2.1,0.9
							c-0.6,0.6-0.9,1.3-0.9,2.1s0.3,1.6,0.9,2.1C21.8,82.2,22.5,82.5,23.3,82.5z"/>
					</g>
				</g>
			</g>
		</g>
		<g id="PathCollection_2">
			<g>
				<defs>
					<rect id="SVGID_00000001636881168521042370000004981417409998991270_" x="18.2" y="14.2" width="112.9" height="91.1"/>
				</defs>
				<clipPath id="SVGID_00000090979277547536563030000016428274093109153979_">
					<use xlink:href="#SVGID_00000001636881168521042370000004981417409998991270_"  style="overflow:visible;"/>
				</clipPath>
				<g style="clip-path:url(#SVGID_00000090979277547536563030000016428274093109153979_);">
					<g>
						<path id="C1_0_12a8652ba7" class="st2" d="M36.2,42.5c0.8,0,1.6-0.3,2.1-0.9c0.6-0.6,0.9-1.3,0.9-2.1s-0.3-1.6-0.9-2.1
							c-0.6-0.6-1.3-0.9-2.1-0.9s-1.6,0.3-2.1,0.9c-0.6,0.6-0.9,1.3-0.9,2.1s0.3,1.6,0.9,2.1C34.6,42.2,35.4,42.5,36.2,42.5z"/>
					</g>
				</g>
			</g>
			<g>
				<defs>
					<rect id="SVGID_00000181048043524402504450000017365373012254534292_" x="18.2" y="14.2" width="112.9" height="91.1"/>
				</defs>
				<clipPath id="SVGID_00000033361226254137668200000013286055395348915899_">
					<use xlink:href="#SVGID_00000181048043524402504450000017365373012254534292_"  style="overflow:visible;"/>
				</clipPath>
				<g style="clip-path:url(#SVGID_00000033361226254137668200000013286055395348915899_);">
					<g>
						<path id="C1_0_12a8652ba7_00000101074009205571616310000009697124740113622927_" class="st2" d="M36.2,84.1
							c0.8,0,1.6-0.3,2.1-0.9c0.6-0.6,0.9-1.3,0.9-2.1s-0.3-1.6-0.9-2.1c-0.6-0.6-1.3-0.9-2.1-0.9s-1.6,0.3-2.1,0.9
							c-0.6,0.6-0.9,1.3-0.9,2.1s0.3,1.6,0.9,2.1C34.6,83.7,35.4,84.1,36.2,84.1z"/>
					</g>
				</g>
			</g>
			<g>
				<defs>
					<rect id="SVGID_00000105425629019791712540000008415532907023083937_" x="18.2" y="14.2" width="112.9" height="91.1"/>
				</defs>
				<clipPath id="SVGID_00000006704502450844508670000016205540342564735376_">
					<use xlink:href="#SVGID_00000105425629019791712540000008415532907023083937_"  style="overflow:visible;"/>
				</clipPath>
				<g style="clip-path:url(#SVGID_00000006704502450844508670000016205540342564735376_);">
					<g>
						<path id="C1_0_12a8652ba7_00000111180624461780516900000017257422555392264600_" class="st2" d="M36.2,63.7
							c0.8,0,1.6-0.3,2.1-0.9c0.6-0.6,0.9-1.3,0.9-2.1s-0.3-1.6-0.9-2.1c-0.6-0.6-1.3-0.9-2.1-0.9s-1.6,0.3-2.1,0.9
							c-0.6,0.6-0.9,1.3-0.9,2.1s0.3,1.6,0.9,2.1C34.6,63.3,35.4,63.7,36.2,63.7z"/>
					</g>
				</g>
			</g>
			<g>
				<defs>
					<rect id="SVGID_00000054264560738580285120000001971083859567871416_" x="18.2" y="14.2" width="112.9" height="91.1"/>
				</defs>
				<clipPath id="SVGID_00000019638190795515050170000001162020645813803685_">
					<use xlink:href="#SVGID_00000054264560738580285120000001971083859567871416_"  style="overflow:visible;"/>
				</clipPath>
				<g style="clip-path:url(#SVGID_00000019638190795515050170000001162020645813803685_);">
					<g>
						<path id="C1_0_12a8652ba7_00000025416615688832296370000014802266351090277567_" class="st2" d="M36.2,79.3
							c0.8,0,1.6-0.3,2.1-0.9c0.6-0.6,0.9-1.3,0.9-2.1s-0.3-1.6-0.9-2.1c-0.6-0.6-1.3-0.9-2.1-0.9s-1.6,0.3-2.1,0.9
							c-0.6,0.6-0.9,1.3-0.9,2.1s0.3,1.6,0.9,2.1C34.6,79,35.4,79.3,36.2,79.3z"/>
					</g>
				</g>
			</g>
			<g>
				<defs>
					<rect id="SVGID_00000072247127385945095880000002256799996969188769_" x="18.2" y="14.2" width="112.9" height="91.1"/>
				</defs>
				<clipPath id="SVGID_00000175293053470914607780000011831421973909037998_">
					<use xlink:href="#SVGID_00000072247127385945095880000002256799996969188769_"  style="overflow:visible;"/>
				</clipPath>
				<g style="clip-path:url(#SVGID_00000175293053470914607780000011831421973909037998_);">
					<g>
						<path id="C1_0_12a8652ba7_00000169520091125768637140000005707628118645823675_" class="st2" d="M36.2,78.2
							c0.8,0,1.6-0.3,2.1-0.9c0.6-0.6,0.9-1.3,0.9-2.1s-0.3-1.6-0.9-2.1c-0.6-0.6-1.3-0.9-2.1-0.9s-1.6,0.3-2.1,0.9
							c-0.6,0.6-0.9,1.3-0.9,2.1s0.3,1.6,0.9,2.1C34.6,77.9,35.4,78.2,36.2,78.2z"/>
					</g>
				</g>
			</g>
			<g>
				<defs>
					<rect id="SVGID_00000076594707640465144610000012676574036620661124_" x="18.2" y="14.2" width="112.9" height="91.1"/>
				</defs>
				<clipPath id="SVGID_00000183967288210745241830000006890660537821975223_">
					<use xlink:href="#SVGID_00000076594707640465144610000012676574036620661124_"  style="overflow:visible;"/>
				</clipPath>
				<g style="clip-path:url(#SVGID_00000183967288210745241830000006890660537821975223_);">
					<g>
						<path id="C1_0_12a8652ba7_00000155837926292792066940000005821153421388945335_" class="st2" d="M36.2,83.7
							c0.8,0,1.6-0.3,2.1-0.9c0.6-0.6,0.9-1.3,0.9-2.1s-0.3-1.6-0.9-2.1c-0.6-0.6-1.3-0.9-2.1-0.9s-1.6,0.3-2.1,0.9
							c-0.6,0.6-0.9,1.3-0.9,2.1s0.3,1.6,0.9,2.1C34.6,83.4,35.4,83.7,36.2,83.7z"/>
					</g>
				</g>
			</g>
			<g>
				<defs>
					<rect id="SVGID_00000183931887074921950410000005837791569272477619_" x="18.2" y="14.2" width="112.9" height="91.1"/>
				</defs>
				<clipPath id="SVGID_00000055707636121686453090000012303413290985758610_">
					<use xlink:href="#SVGID_00000183931887074921950410000005837791569272477619_"  style="overflow:visible;"/>
				</clipPath>
				<g style="clip-path:url(#SVGID_00000055707636121686453090000012303413290985758610_);">
					<g>
						<path id="C1_0_12a8652ba7_00000113326849790386547710000000216311262343039148_" class="st2" d="M36.2,65.5
							c0.8,0,1.6-0.3,2.1-0.9c0.6-0.6,0.9-1.3,0.9-2.1s-0.3-1.6-0.9-2.1c-0.6-0.6-1.3-0.9-2.1-0.9s-1.6,0.3-2.1,0.9
							c-0.6,0.6-0.9,1.3-0.9,2.1s0.3,1.6,0.9,2.1C34.6,65.2,35.4,65.5,36.2,65.5z"/>
					</g>
				</g>
			</g>
			<g>
				<defs>
					<rect id="SVGID_00000030487051264317242110000017274954817609332631_" x="18.2" y="14.2" width="112.9" height="91.1"/>
				</defs>
				<clipPath id="SVGID_00000009583769511203278520000009508246935173863091_">
					<use xlink:href="#SVGID_00000030487051264317242110000017274954817609332631_"  style="overflow:visible;"/>
				</clipPath>
				<g style="clip-path:url(#SVGID_00000009583769511203278520000009508246935173863091_);">
					<g>
						<path id="C1_0_12a8652ba7_00000096741921058613192240000010423435712542259590_" class="st2" d="M36.2,74.5
							c0.8,0,1.6-0.3,2.1-0.9c0.6-0.6,0.9-1.3,0.9-2.1s-0.3-1.6-0.9-2.1c-0.6-0.6-1.3-0.9-2.1-0.9s-1.6,0.3-2.1,0.9
							c-0.6,0.6-0.9,1.3-0.9,2.1s0.3,1.6,0.9,2.1C34.6,74.1,35.4,74.5,36.2,74.5z"/>
					</g>
				</g>
			</g>
		</g>
		<g id="PathCollection_3">
			<g>
				<defs>
					<rect id="SVGID_00000160891318677454959670000006552739283123919748_" x="18.2" y="14.2" width="112.9" height="91.1"/>
				</defs>
				<clipPath id="SVGID_00000145042468003759386850000006059141007452310415_">
					<use xlink:href="#SVGID_00000160891318677454959670000006552739283123919748_"  style="overflow:visible;"/>
				</clipPath>
				<g style="clip-path:url(#SVGID_00000145042468003759386850000006059141007452310415_);">
					<g>
						<path id="C2_0_48f9b74deb" class="st2" d="M49,85.6c0.8,0,1.6-0.3,2.1-0.9c0.6-0.6,0.9-1.3,0.9-2.1s-0.3-1.6-0.9-2.1
							c-0.6-0.6-1.3-0.9-2.1-0.9s-1.6,0.3-2.1,0.9C46.3,81,46,81.8,46,82.6s0.3,1.6,0.9,2.1C47.4,85.3,48.2,85.6,49,85.6z"/>
					</g>
				</g>
			</g>
			<g>
				<defs>
					<rect id="SVGID_00000034071962929426740610000002528613577629175694_" x="18.2" y="14.2" width="112.9" height="91.1"/>
				</defs>
				<clipPath id="SVGID_00000140728584165372197570000006012153909767462812_">
					<use xlink:href="#SVGID_00000034071962929426740610000002528613577629175694_"  style="overflow:visible;"/>
				</clipPath>
				<g style="clip-path:url(#SVGID_00000140728584165372197570000006012153909767462812_);">
					<g>
						<path id="C2_0_48f9b74deb_00000089563346422388305140000003317575990942848411_" class="st2" d="M49,41.5
							c0.8,0,1.6-0.3,2.1-0.9c0.6-0.6,0.9-1.3,0.9-2.1s-0.3-1.6-0.9-2.1c-0.6-0.6-1.3-0.9-2.1-0.9s-1.6,0.3-2.1,0.9
							C46.3,37,46,37.7,46,38.5s0.3,1.6,0.9,2.1C47.4,41.2,48.2,41.5,49,41.5z"/>
					</g>
				</g>
			</g>
			<g>
				<defs>
					<rect id="SVGID_00000151514314952878320310000004360208699041600191_" x="18.2" y="14.2" width="112.9" height="91.1"/>
				</defs>
				<clipPath id="SVGID_00000108992598028548744320000013824070992233197219_">
					<use xlink:href="#SVGID_00000151514314952878320310000004360208699041600191_"  style="overflow:visible;"/>
				</clipPath>
				<g style="clip-path:url(#SVGID_00000108992598028548744320000013824070992233197219_);">
					<g>
						<path id="C2_0_48f9b74deb_00000167361003354794365950000013527575701054022052_" class="st2" d="M49,60.6
							c0.8,0,1.6-0.3,2.1-0.9c0.6-0.6,0.9-1.3,0.9-2.1s-0.3-1.6-0.9-2.1c-0.6-0.6-1.3-0.9-2.1-0.9s-1.6,0.3-2.1,0.9
							c-0.6,0.6-0.9,1.3-0.9,2.1s0.3,1.6,0.9,2.1C47.4,60.3,48.2,60.6,49,60.6z"/>
					</g>
				</g>
			</g>
			<g>
				<defs>
					<rect id="SVGID_00000041270928278473836300000003669540055935796358_" x="18.2" y="14.2" width="112.9" height="91.1"/>
				</defs>
				<clipPath id="SVGID_00000025412578786278758920000014451579226132277153_">
					<use xlink:href="#SVGID_00000041270928278473836300000003669540055935796358_"  style="overflow:visible;"/>
				</clipPath>
				<g style="clip-path:url(#SVGID_00000025412578786278758920000014451579226132277153_);">
					<g>
						<path id="C2_0_48f9b74deb_00000156579236703488303590000013151514991036554164_" class="st2" d="M49,73.6
							c0.8,0,1.6-0.3,2.1-0.9c0.6-0.6,0.9-1.3,0.9-2.1s-0.3-1.6-0.9-2.1c-0.6-0.6-1.3-0.9-2.1-0.9s-1.6,0.3-2.1,0.9
							c-0.6,0.6-0.9,1.3-0.9,2.1s0.3,1.6,0.9,2.1C47.4,73.3,48.2,73.6,49,73.6z"/>
					</g>
				</g>
			</g>
			<g>
				<defs>
					<rect id="SVGID_00000142855909521321454940000004013706870547807414_" x="18.2" y="14.2" width="112.9" height="91.1"/>
				</defs>
				<clipPath id="SVGID_00000145751609190983378550000009147186273580450953_">
					<use xlink:href="#SVGID_00000142855909521321454940000004013706870547807414_"  style="overflow:visible;"/>
				</clipPath>
				<g style="clip-path:url(#SVGID_00000145751609190983378550000009147186273580450953_);">
					<g>
						<path id="C2_0_48f9b74deb_00000149373480817320276200000017994853924224842133_" class="st2" d="M49,68.8
							c0.8,0,1.6-0.3,2.1-0.9c0.6-0.6,0.9-1.3,0.9-2.1s-0.3-1.6-0.9-2.1c-0.6-0.6-1.3-0.9-2.1-0.9s-1.6,0.3-2.1,0.9
							C46.3,64.2,46,65,46,65.8s0.3,1.6,0.9,2.1C47.4,68.5,48.2,68.8,49,68.8z"/>
					</g>
				</g>
			</g>
			<g>
				<defs>
					<rect id="SVGID_00000135654807057970611260000012649947348643953805_" x="18.2" y="14.2" width="112.9" height="91.1"/>
				</defs>
				<clipPath id="SVGID_00000062882318888147212720000011741824786591158429_">
					<use xlink:href="#SVGID_00000135654807057970611260000012649947348643953805_"  style="overflow:visible;"/>
				</clipPath>
				<g style="clip-path:url(#SVGID_00000062882318888147212720000011741824786591158429_);">
					<g>
						<path id="C2_0_48f9b74deb_00000006705645852303718740000012681475233055850412_" class="st2" d="M49,48c0.8,0,1.6-0.3,2.1-0.9
							c0.6-0.6,0.9-1.3,0.9-2.1s-0.3-1.6-0.9-2.1C50.6,42.3,49.8,42,49,42s-1.6,0.3-2.1,0.9C46.3,43.5,46,44.2,46,45
							s0.3,1.6,0.9,2.1C47.4,47.7,48.2,48,49,48z"/>
					</g>
				</g>
			</g>
			<g>
				<defs>
					<rect id="SVGID_00000072258836176524100980000003310492783880949158_" x="18.2" y="14.2" width="112.9" height="91.1"/>
				</defs>
				<clipPath id="SVGID_00000085932030808282450010000000972939029674580136_">
					<use xlink:href="#SVGID_00000072258836176524100980000003310492783880949158_"  style="overflow:visible;"/>
				</clipPath>
				<g style="clip-path:url(#SVGID_00000085932030808282450010000000972939029674580136_);">
					<g>
						<path id="C2_0_48f9b74deb_00000183249197646520031680000010199330130501596592_" class="st2" d="M49,63.8
							c0.8,0,1.6-0.3,2.1-0.9c0.6-0.6,0.9-1.3,0.9-2.1s-0.3-1.6-0.9-2.1c-0.6-0.6-1.3-0.9-2.1-0.9s-1.6,0.3-2.1,0.9
							C46.3,59.3,46,60,46,60.8s0.3,1.6,0.9,2.1C47.4,63.5,48.2,63.8,49,63.8z"/>
					</g>
				</g>
			</g>
		</g>
		<g id="PathCollection_4">
			<g>
				<defs>
					<rect id="SVGID_00000150825108412741753540000004287452856875244427_" x="18.2" y="14.2" width="112.9" height="91.1"/>
				</defs>
				<clipPath id="SVGID_00000166637212895043113450000018109374775996252060_">
					<use xlink:href="#SVGID_00000150825108412741753540000004287452856875244427_"  style="overflow:visible;"/>
				</clipPath>
				<g style="clip-path:url(#SVGID_00000166637212895043113450000018109374775996252060_);">
					<g>
						<path id="C3_0_13b72a1d30" class="st2" d="M61.8,37c0.8,0,1.6-0.3,2.1-0.9c0.6-0.6,0.9-1.3,0.9-2.1s-0.3-1.6-0.9-2.1
							c-0.6-0.6-1.3-0.9-2.1-0.9s-1.6,0.3-2.1,0.9c-0.6,0.6-0.9,1.3-0.9,2.1s0.3,1.6,0.9,2.1C60.3,36.7,61,37,61.8,37z"/>
					</g>
				</g>
			</g>
			<g>
				<defs>
					<rect id="SVGID_00000039092959766665708550000016286382080546034607_" x="18.2" y="14.2" width="112.9" height="91.1"/>
				</defs>
				<clipPath id="SVGID_00000154409013428585149590000015246439902971671983_">
					<use xlink:href="#SVGID_00000039092959766665708550000016286382080546034607_"  style="overflow:visible;"/>
				</clipPath>
				<g style="clip-path:url(#SVGID_00000154409013428585149590000015246439902971671983_);">
					<g>
						<path id="C3_0_13b72a1d30_00000105385207470901545040000013810635426069845435_" class="st2" d="M61.8,42.4
							c0.8,0,1.6-0.3,2.1-0.9c0.6-0.6,0.9-1.3,0.9-2.1s-0.3-1.6-0.9-2.1c-0.6-0.6-1.3-0.9-2.1-0.9s-1.6,0.3-2.1,0.9
							c-0.6,0.6-0.9,1.3-0.9,2.1s0.3,1.6,0.9,2.1C60.3,42.1,61,42.4,61.8,42.4z"/>
					</g>
				</g>
			</g>
			<g>
				<defs>
					<rect id="SVGID_00000103245433780197635190000011185997603270993543_" x="18.2" y="14.2" width="112.9" height="91.1"/>
				</defs>
				<clipPath id="SVGID_00000086677992221832639410000006413976359845854376_">
					<use xlink:href="#SVGID_00000103245433780197635190000011185997603270993543_"  style="overflow:visible;"/>
				</clipPath>
				<g style="clip-path:url(#SVGID_00000086677992221832639410000006413976359845854376_);">
					<g>
						<path id="C3_0_13b72a1d30_00000072276117034270008170000011446534631862760850_" class="st2" d="M61.8,65.2
							c0.8,0,1.6-0.3,2.1-0.9c0.6-0.6,0.9-1.3,0.9-2.1s-0.3-1.6-0.9-2.1c-0.6-0.6-1.3-0.9-2.1-0.9s-1.6,0.3-2.1,0.9
							c-0.6,0.6-0.9,1.3-0.9,2.1s0.3,1.6,0.9,2.1C60.3,64.9,61,65.2,61.8,65.2z"/>
					</g>
				</g>
			</g>
			<g>
				<defs>
					<rect id="SVGID_00000021118076786826406050000018117655142151848601_" x="18.2" y="14.2" width="112.9" height="91.1"/>
				</defs>
				<clipPath id="SVGID_00000045583942421641611840000007618098437053137799_">
					<use xlink:href="#SVGID_00000021118076786826406050000018117655142151848601_"  style="overflow:visible;"/>
				</clipPath>
				<g style="clip-path:url(#SVGID_00000045583942421641611840000007618098437053137799_);">
					<g>
						<path id="C3_0_13b72a1d30_00000016781709807137472900000004185951877383556287_" class="st2" d="M61.8,77.6
							c0.8,0,1.6-0.3,2.1-0.9c0.6-0.6,0.9-1.3,0.9-2.1S64.5,73,64,72.5c-0.6-0.6-1.3-0.9-2.1-0.9s-1.6,0.3-2.1,0.9
							c-0.6,0.6-0.9,1.3-0.9,2.1s0.3,1.6,0.9,2.1C60.3,77.3,61,77.6,61.8,77.6z"/>
					</g>
				</g>
			</g>
			<g>
				<defs>
					<rect id="SVGID_00000116224736941095315670000017634010579210017969_" x="18.2" y="14.2" width="112.9" height="91.1"/>
				</defs>
				<clipPath id="SVGID_00000062181895410428788880000006050895986278295724_">
					<use xlink:href="#SVGID_00000116224736941095315670000017634010579210017969_"  style="overflow:visible;"/>
				</clipPath>
				<g style="clip-path:url(#SVGID_00000062181895410428788880000006050895986278295724_);">
					<g>
						<path id="C3_0_13b72a1d30_00000007422389312158270060000013216306080339189919_" class="st2" d="M61.8,35.3
							c0.8,0,1.6-0.3,2.1-0.9c0.6-0.6,0.9-1.3,0.9-2.1s-0.3-1.6-0.9-2.1c-0.6-0.6-1.3-0.9-2.1-0.9s-1.6,0.3-2.1,0.9
							c-0.6,0.6-0.9,1.3-0.9,2.1s0.3,1.6,0.9,2.1C60.3,35,61,35.3,61.8,35.3z"/>
					</g>
				</g>
			</g>
			<g>
				<defs>
					<rect id="SVGID_00000016062402727746289060000008428994340445098683_" x="18.2" y="14.2" width="112.9" height="91.1"/>
				</defs>
				<clipPath id="SVGID_00000062910601118428677470000010958040049468060572_">
					<use xlink:href="#SVGID_00000016062402727746289060000008428994340445098683_"  style="overflow:visible;"/>
				</clipPath>
				<g style="clip-path:url(#SVGID_00000062910601118428677470000010958040049468060572_);">
					<g>
						<path id="C3_0_13b72a1d30_00000084495522564573814800000018090188264529769144_" class="st2" d="M61.8,56.4
							c0.8,0,1.6-0.3,2.1-0.9c0.6-0.6,0.9-1.3,0.9-2.1s-0.3-1.6-0.9-2.1c-0.6-0.6-1.3-0.9-2.1-0.9s-1.6,0.3-2.1,0.9
							c-0.6,0.6-0.9,1.3-0.9,2.1s0.3,1.6,0.9,2.1C60.3,56,61,56.4,61.8,56.4z"/>
					</g>
				</g>
			</g>
		</g>
		<g id="PathCollection_5">
			<g>
				<defs>
					<rect id="SVGID_00000131365772384525500210000011380170199908406198_" x="18.2" y="14.2" width="112.9" height="91.1"/>
				</defs>
				<clipPath id="SVGID_00000067207860530931719320000016767137442604640897_">
					<use xlink:href="#SVGID_00000131365772384525500210000011380170199908406198_"  style="overflow:visible;"/>
				</clipPath>
				<g style="clip-path:url(#SVGID_00000067207860530931719320000016767137442604640897_);">
					<g>
						<path id="C4_0_c4437441b3" class="st2" d="M74.7,39.5c0.8,0,1.6-0.3,2.1-0.9c0.6-0.6,0.9-1.3,0.9-2.1s-0.3-1.6-0.9-2.1
							c-0.6-0.6-1.3-0.9-2.1-0.9s-1.6,0.3-2.1,0.9c-0.6,0.6-0.9,1.3-0.9,2.1s0.3,1.6,0.9,2.1C73.1,39.2,73.9,39.5,74.7,39.5z"/>
					</g>
				</g>
			</g>
			<g>
				<defs>
					<rect id="SVGID_00000145042676897057348780000003199309085594612642_" x="18.2" y="14.2" width="112.9" height="91.1"/>
				</defs>
				<clipPath id="SVGID_00000111874770414384994340000010759038567671063686_">
					<use xlink:href="#SVGID_00000145042676897057348780000003199309085594612642_"  style="overflow:visible;"/>
				</clipPath>
				<g style="clip-path:url(#SVGID_00000111874770414384994340000010759038567671063686_);">
					<g>
						<path id="C4_0_c4437441b3_00000165939011784585366410000000913720893337581716_" class="st2" d="M74.7,58.5
							c0.8,0,1.6-0.3,2.1-0.9c0.6-0.6,0.9-1.3,0.9-2.1s-0.3-1.6-0.9-2.1c-0.6-0.6-1.3-0.9-2.1-0.9s-1.6,0.3-2.1,0.9
							c-0.6,0.6-0.9,1.3-0.9,2.1s0.3,1.6,0.9,2.1C73.1,58.2,73.9,58.5,74.7,58.5z"/>
					</g>
				</g>
			</g>
			<g>
				<defs>
					<rect id="SVGID_00000147925922190062463030000010545657607369040826_" x="18.2" y="14.2" width="112.9" height="91.1"/>
				</defs>
				<clipPath id="SVGID_00000099620302050639876570000007880838306207624890_">
					<use xlink:href="#SVGID_00000147925922190062463030000010545657607369040826_"  style="overflow:visible;"/>
				</clipPath>
				<g style="clip-path:url(#SVGID_00000099620302050639876570000007880838306207624890_);">
					<g>
						<path id="C4_0_c4437441b3_00000013183277667655295680000006927226269470147458_" class="st2" d="M74.7,64.2
							c0.8,0,1.6-0.3,2.1-0.9c0.6-0.6,0.9-1.3,0.9-2.1s-0.3-1.6-0.9-2.1c-0.6-0.6-1.3-0.9-2.1-0.9s-1.6,0.3-2.1,0.9
							c-0.6,0.6-0.9,1.3-0.9,2.1s0.3,1.6,0.9,2.1C73.1,63.9,73.9,64.2,74.7,64.2z"/>
					</g>
				</g>
			</g>
			<g>
				<defs>
					<rect id="SVGID_00000093152329985321759140000008339927004046555551_" x="18.2" y="14.2" width="112.9" height="91.1"/>
				</defs>
				<clipPath id="SVGID_00000133500285429784727460000000052542183413857713_">
					<use xlink:href="#SVGID_00000093152329985321759140000008339927004046555551_"  style="overflow:visible;"/>
				</clipPath>
				<g style="clip-path:url(#SVGID_00000133500285429784727460000000052542183413857713_);">
					<g>
						<path id="C4_0_c4437441b3_00000080182187707934168520000003691917890310545280_" class="st2" d="M74.7,32
							c0.8,0,1.6-0.3,2.1-0.9c0.6-0.6,0.9-1.3,0.9-2.1s-0.3-1.6-0.9-2.1c-0.6-0.6-1.3-0.9-2.1-0.9s-1.6,0.3-2.1,0.9
							c-0.6,0.6-0.9,1.3-0.9,2.1s0.3,1.6,0.9,2.1C73.1,31.6,73.9,32,74.7,32z"/>
					</g>
				</g>
			</g>
			<g>
				<defs>
					<rect id="SVGID_00000107579339467366924870000015782862560204351422_" x="18.2" y="14.2" width="112.9" height="91.1"/>
				</defs>
				<clipPath id="SVGID_00000102506514023253830640000008415821648184243872_">
					<use xlink:href="#SVGID_00000107579339467366924870000015782862560204351422_"  style="overflow:visible;"/>
				</clipPath>
				<g style="clip-path:url(#SVGID_00000102506514023253830640000008415821648184243872_);">
					<g>
						<path id="C4_0_c4437441b3_00000087383293866485925620000013400133008061655170_" class="st2" d="M74.7,50.3
							c0.8,0,1.6-0.3,2.1-0.9c0.6-0.6,0.9-1.3,0.9-2.1s-0.3-1.6-0.9-2.1c-0.6-0.6-1.3-0.9-2.1-0.9s-1.6,0.3-2.1,0.9
							c-0.6,0.6-0.9,1.3-0.9,2.1s0.3,1.6,0.9,2.1C73.1,50,73.9,50.3,74.7,50.3z"/>
					</g>
				</g>
			</g>
		</g>
		<g id="PathCollection_6">
			<g>
				<defs>
					<rect id="SVGID_00000180338133834325695600000004227085243137425816_" x="18.2" y="14.2" width="112.9" height="91.1"/>
				</defs>
				<clipPath id="SVGID_00000098900530486486669020000017155720780698463147_">
					<use xlink:href="#SVGID_00000180338133834325695600000004227085243137425816_"  style="overflow:visible;"/>
				</clipPath>
				<g style="clip-path:url(#SVGID_00000098900530486486669020000017155720780698463147_);">
					<g>
						<path id="C5_0_35d1fc45ab" class="st2" d="M87.5,58.3c0.8,0,1.6-0.3,2.1-0.9c0.6-0.6,0.9-1.3,0.9-2.1s-0.3-1.6-0.9-2.1
							c-0.6-0.6-1.3-0.9-2.1-0.9s-1.6,0.3-2.1,0.9c-0.6,0.6-0.9,1.3-0.9,2.1s0.3,1.6,0.9,2.1C85.9,58,86.7,58.3,87.5,58.3z"/>
					</g>
				</g>
			</g>
			<g>
				<defs>
					<rect id="SVGID_00000139276166795892568130000007211028899201961630_" x="18.2" y="14.2" width="112.9" height="91.1"/>
				</defs>
				<clipPath id="SVGID_00000134237788984610722470000007891528819589529524_">
					<use xlink:href="#SVGID_00000139276166795892568130000007211028899201961630_"  style="overflow:visible;"/>
				</clipPath>
				<g style="clip-path:url(#SVGID_00000134237788984610722470000007891528819589529524_);">
					<g>
						<path id="C5_0_35d1fc45ab_00000036941747554850066330000012134066452942182043_" class="st2" d="M87.5,62.4
							c0.8,0,1.6-0.3,2.1-0.9c0.6-0.6,0.9-1.3,0.9-2.1s-0.3-1.6-0.9-2.1c-0.6-0.6-1.3-0.9-2.1-0.9s-1.6,0.3-2.1,0.9
							c-0.6,0.6-0.9,1.3-0.9,2.1s0.3,1.6,0.9,2.1C85.9,62.1,86.7,62.4,87.5,62.4z"/>
					</g>
				</g>
			</g>
			<g>
				<defs>
					<rect id="SVGID_00000147190449492633358160000001972336031585520547_" x="18.2" y="14.2" width="112.9" height="91.1"/>
				</defs>
				<clipPath id="SVGID_00000083077409250488981110000016858534674862997903_">
					<use xlink:href="#SVGID_00000147190449492633358160000001972336031585520547_"  style="overflow:visible;"/>
				</clipPath>
				<g style="clip-path:url(#SVGID_00000083077409250488981110000016858534674862997903_);">
					<g>
						<path id="C5_0_35d1fc45ab_00000156560810869026295400000010121911135366188715_" class="st2" d="M87.5,27.9
							c0.8,0,1.6-0.3,2.1-0.9c0.6-0.6,0.9-1.3,0.9-2.1s-0.3-1.6-0.9-2.1c-0.6-0.6-1.3-0.9-2.1-0.9s-1.6,0.3-2.1,0.9
							c-0.6,0.6-0.9,1.3-0.9,2.1s0.3,1.6,0.9,2.1C85.9,27.6,86.7,27.9,87.5,27.9z"/>
					</g>
				</g>
			</g>
			<g>
				<defs>
					<rect id="SVGID_00000148659439350112609200000009998979178063380394_" x="18.2" y="14.2" width="112.9" height="91.1"/>
				</defs>
				<clipPath id="SVGID_00000140694563133305992010000009612346295101959087_">
					<use xlink:href="#SVGID_00000148659439350112609200000009998979178063380394_"  style="overflow:visible;"/>
				</clipPath>
				<g style="clip-path:url(#SVGID_00000140694563133305992010000009612346295101959087_);">
					<g>
						<path id="C5_0_35d1fc45ab_00000139262236386828962510000016663411369642974608_" class="st2" d="M87.5,46.7
							c0.8,0,1.6-0.3,2.1-0.9c0.6-0.6,0.9-1.3,0.9-2.1s-0.3-1.6-0.9-2.1c-0.6-0.6-1.3-0.9-2.1-0.9s-1.6,0.3-2.1,0.9
							c-0.6,0.6-0.9,1.3-0.9,2.1s0.3,1.6,0.9,2.1C85.9,46.4,86.7,46.7,87.5,46.7z"/>
					</g>
				</g>
			</g>
		</g>
		<g id="PathCollection_7">
			<g>
				<defs>
					<rect id="SVGID_00000053509338951585724000000014437751213306007429_" x="18.2" y="14.2" width="112.9" height="91.1"/>
				</defs>
				<clipPath id="SVGID_00000002379954542706030710000006601296804283917988_">
					<use xlink:href="#SVGID_00000053509338951585724000000014437751213306007429_"  style="overflow:visible;"/>
				</clipPath>
				<g style="clip-path:url(#SVGID_00000002379954542706030710000006601296804283917988_);">
					<g>
						<path id="C6_0_09e3440963" class="st2" d="M100.3,61.2c0.8,0,1.6-0.3,2.1-0.9c0.6-0.6,0.9-1.3,0.9-2.1s-0.3-1.6-0.9-2.1
							c-0.6-0.6-1.3-0.9-2.1-0.9s-1.6,0.3-2.1,0.9c-0.6,0.6-0.9,1.3-0.9,2.1s0.3,1.6,0.9,2.1C98.8,60.9,99.5,61.2,100.3,61.2z"/>
					</g>
				</g>
			</g>
			<g>
				<defs>
					<rect id="SVGID_00000065762930117574852340000012679448674697283250_" x="18.2" y="14.2" width="112.9" height="91.1"/>
				</defs>
				<clipPath id="SVGID_00000059295192056772749020000002519397134882739616_">
					<use xlink:href="#SVGID_00000065762930117574852340000012679448674697283250_"  style="overflow:visible;"/>
				</clipPath>
				<g style="clip-path:url(#SVGID_00000059295192056772749020000002519397134882739616_);">
					<g>
						<path id="C6_0_09e3440963_00000007425615615570534710000014305749215108012958_" class="st2" d="M100.3,35.8
							c0.8,0,1.6-0.3,2.1-0.9c0.6-0.6,0.9-1.3,0.9-2.1s-0.3-1.6-0.9-2.1c-0.6-0.6-1.3-0.9-2.1-0.9s-1.6,0.3-2.1,0.9
							c-0.6,0.6-0.9,1.3-0.9,2.1s0.3,1.6,0.9,2.1C98.8,35.5,99.5,35.8,100.3,35.8z"/>
					</g>
				</g>
			</g>
			<g>
				<defs>
					<rect id="SVGID_00000179616256068366464280000012879535631621450638_" x="18.2" y="14.2" width="112.9" height="91.1"/>
				</defs>
				<clipPath id="SVGID_00000020399573930097513410000000436282607192360623_">
					<use xlink:href="#SVGID_00000179616256068366464280000012879535631621450638_"  style="overflow:visible;"/>
				</clipPath>
				<g style="clip-path:url(#SVGID_00000020399573930097513410000000436282607192360623_);">
					<g>
						<path id="C6_0_09e3440963_00000094619203860234815180000003829471835142906297_" class="st2" d="M100.3,39.7
							c0.8,0,1.6-0.3,2.1-0.9c0.6-0.6,0.9-1.3,0.9-2.1s-0.3-1.6-0.9-2.1c-0.6-0.6-1.3-0.9-2.1-0.9s-1.6,0.3-2.1,0.9
							c-0.6,0.6-0.9,1.3-0.9,2.1s0.3,1.6,0.9,2.1C98.8,39.4,99.5,39.7,100.3,39.7z"/>
					</g>
				</g>
			</g>
		</g>
		<g id="PathCollection_8">
			<g>
				<defs>
					<rect id="SVGID_00000147210103332250320440000018028741373749522604_" x="18.2" y="14.2" width="112.9" height="91.1"/>
				</defs>
				<clipPath id="SVGID_00000039113755112608889760000011743309121788462490_">
					<use xlink:href="#SVGID_00000147210103332250320440000018028741373749522604_"  style="overflow:visible;"/>
				</clipPath>
				<g style="clip-path:url(#SVGID_00000039113755112608889760000011743309121788462490_);">
					<g>
						<path id="C7_0_6ca9afe637" class="st2" d="M113.2,32.4c0.8,0,1.6-0.3,2.1-0.9c0.6-0.6,0.9-1.3,0.9-2.1s-0.3-1.6-0.9-2.1
							c-0.6-0.6-1.3-0.9-2.1-0.9s-1.6,0.3-2.1,0.9c-0.6,0.6-0.9,1.3-0.9,2.1s0.3,1.6,0.9,2.1C111.6,32,112.4,32.4,113.2,32.4z"/>
					</g>
				</g>
			</g>
			<g>
				<defs>
					<rect id="SVGID_00000160881205958733958300000001209242663935763085_" x="18.2" y="14.2" width="112.9" height="91.1"/>
				</defs>
				<clipPath id="SVGID_00000078022719104750217580000000586374729745040300_">
					<use xlink:href="#SVGID_00000160881205958733958300000001209242663935763085_"  style="overflow:visible;"/>
				</clipPath>
				<g style="clip-path:url(#SVGID_00000078022719104750217580000000586374729745040300_);">
					<g>
						<path id="C7_0_6ca9afe637_00000065755493510025327340000016979671273434369437_" class="st2" d="M113.2,45.4
							c0.8,0,1.6-0.3,2.1-0.9c0.6-0.6,0.9-1.3,0.9-2.1s-0.3-1.6-0.9-2.1c-0.6-0.6-1.3-0.9-2.1-0.9s-1.6,0.3-2.1,0.9
							c-0.6,0.6-0.9,1.3-0.9,2.1s0.3,1.6,0.9,2.1C111.6,45.1,112.4,45.4,113.2,45.4z"/>
					</g>
				</g>
			</g>
		</g>
		<g id="PathCollection_9">
			<g>
				<defs>
					<rect id="SVGID_00000129928227341962899590000004769554694455903394_" x="18.2" y="14.2" width="112.9" height="91.1"/>
				</defs>
				<clipPath id="SVGID_00000049195602736033862360000004213666495648209311_">
					<use xlink:href="#SVGID_00000129928227341962899590000004769554694455903394_"  style="overflow:visible;"/>
				</clipPath>
				<path style="clip-path:url(#SVGID_00000049195602736033862360000004213666495648209311_);fill-opacity:0.5;" d="M126,41.2
					c0.8,0,1.6-0.3,2.1-0.9s0.9-1.3,0.9-2.1s-0.3-1.6-0.9-2.1s-1.3-0.9-2.1-0.9c-0.8,0-1.6,0.3-2.1,0.9c-0.6,0.6-0.9,1.3-0.9,2.1
					s0.3,1.6,0.9,2.1C124.4,40.9,125.2,41.2,126,41.2z"/>
			</g>
		</g>
		<g id="matplotlib.axis_1">
			<g id="xtick_1">
				<g id="line2d_1">
					<g>
						<g>
							<path id="m73e2dd5667" class="st47" d="M23.3,105.3v3.5"/>
						</g>
					</g>
				</g>
			</g>
			<g id="xtick_2">
				<g id="line2d_2">
					<g>
						<g>
							<path id="m73e2dd5667_00000157989995747043105880000006361101131000209314_" class="st47" d="M36.2,105.3v3.5"/>
						</g>
					</g>
				</g>
			</g>
			<g id="xtick_3">
				<g id="line2d_3">
					<g>
						<g>
							<path id="m73e2dd5667_00000061448487995860206350000014878348484983586690_" class="st47" d="M49,105.3v3.5"/>
						</g>
					</g>
				</g>
			</g>
			<g id="xtick_4">
				<g id="line2d_4">
					<g>
						<g>
							<path id="m73e2dd5667_00000134236407957541487460000013192896287632791970_" class="st47" d="M61.8,105.3v3.5"/>
						</g>
					</g>
				</g>
			</g>
			<g id="xtick_5">
				<g id="line2d_5">
					<g>
						<g>
							<path id="m73e2dd5667_00000011733847971357190020000000590337195313653888_" class="st47" d="M74.7,105.3v3.5"/>
						</g>
					</g>
				</g>
			</g>
			<g id="xtick_6">
				<g id="line2d_6">
					<g>
						<g>
							<path id="m73e2dd5667_00000109744980918312523510000001975259310870089605_" class="st47" d="M87.5,105.3v3.5"/>
						</g>
					</g>
				</g>
			</g>
			<g id="xtick_7">
				<g id="line2d_7">
					<g>
						<g>
							<path id="m73e2dd5667_00000160155466526110659020000005997157487998582690_" class="st47" d="M100.3,105.3v3.5"/>
						</g>
					</g>
				</g>
			</g>
			<g id="xtick_8">
				<g id="line2d_8">
					<g>
						<g>
							<path id="m73e2dd5667_00000010298671287071611240000010137952715686212005_" class="st47" d="M113.2,105.3v3.5"/>
						</g>
					</g>
				</g>
			</g>
			<g id="xtick_9">
				<g id="line2d_9">
					<g>
						<g>
							<path id="m73e2dd5667_00000167369336205027771250000013177926887833279418_" class="st47" d="M126,105.3v3.5"/>
						</g>
					</g>
				</g>
			</g>
		</g>
		<g id="matplotlib.axis_2">
			<g id="ytick_1">
				<g id="line2d_10">
					<g>
						<g>
							<path id="ma774d004dd" class="st47" d="M18.2,105.3h-3.5"/>
						</g>
					</g>
				</g>
			</g>
			<g id="ytick_2">
				<g id="line2d_11">
					<g>
						<g>
							<path id="ma774d004dd_00000170271634928599448940000009209707705121389730_" class="st47" d="M18.2,82.5h-3.5"/>
						</g>
					</g>
				</g>
			</g>
			<g id="ytick_3">
				<g id="line2d_12">
					<g>
						<g>
							<path id="ma774d004dd_00000034077262784952658270000008592756534413663648_" class="st47" d="M18.2,59.8h-3.5"/>
						</g>
					</g>
				</g>
			</g>
			<g id="ytick_4">
				<g id="line2d_13">
					<g>
						<g>
							<path id="ma774d004dd_00000058585747752371848270000011758738054376695971_" class="st47" d="M18.2,37h-3.5"/>
						</g>
					</g>
				</g>
			</g>
			<g id="ytick_5">
				<g id="line2d_14">
					<g>
						<g>
							<path id="ma774d004dd_00000038380835920671759660000005053475578703020427_" class="st47" d="M18.2,14.2h-3.5"/>
						</g>
					</g>
				</g>
			</g>
		</g>
		<g id="line2d_15">
			<g>
				<defs>
					<rect id="SVGID_00000085970672385115766830000004046806648247032206_" x="18.2" y="14.2" width="112.9" height="91.1"/>
				</defs>
				<clipPath id="SVGID_00000173851963195786069700000009507834120160056510_">
					<use xlink:href="#SVGID_00000085970672385115766830000004046806648247032206_"  style="overflow:visible;"/>
				</clipPath>
				
					<path style="clip-path:url(#SVGID_00000173851963195786069700000009507834120160056510_);fill:none;stroke:#000000;stroke-width:1.5;stroke-linecap:square;stroke-linejoin:round;" d="
					M23.3,73.5l12.8-5.4L49,62.7l12.8-5.4L74.7,52l12.8-5.4l12.8-5.4l12.8-5.4l12.8-5.4"/>
			</g>
		</g>
		<g id="patch_3">
			<path class="st49" d="M18.2,105.3V14.2"/>
		</g>
		<g id="patch_4">
			<path class="st49" d="M131.1,105.3V14.2"/>
		</g>
		<g id="patch_5">
			<path class="st49" d="M18.2,105.3h112.9"/>
		</g>
		<g id="patch_6">
			<path class="st49" d="M18.2,14.2h112.9"/>
		</g>
	</g>
</g>
</svg>
