<?xml version="1.0" encoding="utf-8"?>
<!-- Generator: Adobe Illustrator 26.4.1, SVG Export Plug-In . SVG Version: 6.00 Build 0)  -->
<svg version="1.1" id="Layer_1" xmlns="http://www.w3.org/2000/svg" xmlns:xlink="http://www.w3.org/1999/xlink" x="0px" y="0px"
	 viewBox="0 0 199 158.6" style="enable-background:new 0 0 199 158.6;" xml:space="preserve">
<style type="text/css">
	.st0{fill:#FFFFFF;}
	.st1{clip-path:url(#SVGID_00000017500617024655652440000006439730304920809094_);}
	.st2{fill-opacity:0.5;}
	.st3{clip-path:url(#SVGID_00000120556277755417747840000006989930087403539377_);}
	.st4{clip-path:url(#SVGID_00000018210642377653903350000014921173383452581279_);}
	.st5{clip-path:url(#SVGID_00000152974681086565745600000009784041204144413829_);}
	.st6{clip-path:url(#SVGID_00000098928469381443696770000016794629493201385096_);}
	.st7{clip-path:url(#SVGID_00000085246679461111049750000009514870917442572698_);}
	.st8{clip-path:url(#SVGID_00000116226445478142581760000008206630462111998142_);}
	.st9{clip-path:url(#SVGID_00000033354241666406678290000009074180521561833145_);}
	.st10{clip-path:url(#SVGID_00000151523448202706541760000015567706318826604679_);}
	.st11{clip-path:url(#SVGID_00000163052123330308119890000014395084665172255124_);}
	.st12{clip-path:url(#SVGID_00000124871670751395967000000005025884732406750136_);}
	.st13{clip-path:url(#SVGID_00000102515984815101526830000013965630256894450367_);}
	.st14{clip-path:url(#SVGID_00000089554005167007385540000005471794868230272919_);}
	.st15{clip-path:url(#SVGID_00000031199852540308978860000005974297461131495603_);}
	.st16{clip-path:url(#SVGID_00000036949823742969587220000001071465251322770827_);}
	.st17{clip-path:url(#SVGID_00000039835008512314577860000010948829031134216852_);}
	.st18{clip-path:url(#SVGID_00000072237948992117404210000017938352302258127780_);}
	.st19{clip-path:url(#SVGID_00000065783779506538667260000001462860446198218681_);}
	.st20{clip-path:url(#SVGID_00000161619160235420815440000002560975815408636046_);}
	.st21{clip-path:url(#SVGID_00000008148351746640087780000003850782389590975421_);}
	.st22{clip-path:url(#SVGID_00000151521774394382648110000014053322301571339189_);}
	.st23{clip-path:url(#SVGID_00000029756074920342458350000008531509757788528028_);}
	.st24{clip-path:url(#SVGID_00000010271126454797266020000006797708192278010497_);}
	.st25{clip-path:url(#SVGID_00000033357166903495290130000012558347049382680226_);}
	.st26{clip-path:url(#SVGID_00000076587149504664336740000008696906558084938914_);}
	.st27{clip-path:url(#SVGID_00000159463928300400739230000001853237071528606387_);}
	.st28{clip-path:url(#SVGID_00000101085424997954071830000008415818269212301195_);}
	.st29{clip-path:url(#SVGID_00000121251930650368818840000009797370159300103847_);}
	.st30{clip-path:url(#SVGID_00000092441621120119885600000001015960331195091879_);}
	.st31{clip-path:url(#SVGID_00000151506579051477260120000008956211409285724829_);}
	.st32{clip-path:url(#SVGID_00000026861042495762907620000009955422964869261494_);}
	.st33{clip-path:url(#SVGID_00000101066332482270127560000008368328638001110957_);}
	.st34{clip-path:url(#SVGID_00000170274408627493633670000015479295778041633427_);}
	.st35{clip-path:url(#SVGID_00000055664534014313972430000004655789557413756320_);}
	.st36{clip-path:url(#SVGID_00000001621879085750124370000006297381348175798713_);}
	.st37{clip-path:url(#SVGID_00000114790801857031524580000001525160958266113677_);}
	.st38{clip-path:url(#SVGID_00000067944769508449909480000017849537366606567821_);}
	.st39{clip-path:url(#SVGID_00000078766233499969406840000012825226324424382636_);}
	.st40{clip-path:url(#SVGID_00000116208838642039937750000004908487281430143368_);}
	.st41{clip-path:url(#SVGID_00000142871827595168232230000011620359266695880359_);}
	.st42{clip-path:url(#SVGID_00000048485169372540079580000002514915554607157149_);}
	.st43{clip-path:url(#SVGID_00000080919212152220753120000002023549616252015502_);}
	.st44{clip-path:url(#SVGID_00000019638194220294150460000016125809767566367104_);}
	.st45{clip-path:url(#SVGID_00000041272065712566929210000004638560828117257392_);}
	.st46{clip-path:url(#SVGID_00000017513775399955664230000012706189368869721018_);fill-opacity:0.5;}
	.st47{stroke:#000000;stroke-width:0.8;stroke-linejoin:round;}
	
		.st48{clip-path:url(#SVGID_00000103970377485569078310000001213269146105197231_);fill:none;stroke:#000000;stroke-width:1.5;stroke-linecap:square;stroke-linejoin:round;}
	.st49{fill:none;stroke:#000000;stroke-width:0.8;stroke-linecap:square;}
</style>
<g id="figure_1">
	<g id="axes_1">
		<g id="patch_2">
			<path class="st0" d="M24.9,141.2h154.2V19H24.9V141.2z"/>
		</g>
		<g id="PathCollection_1">
			<g>
				<defs>
					<rect id="SVGID_1_" x="24.9" y="19" width="154.2" height="122.2"/>
				</defs>
				<clipPath id="SVGID_00000096059129193311255970000001496723619806990728_">
					<use xlink:href="#SVGID_1_"  style="overflow:visible;"/>
				</clipPath>
				<g style="clip-path:url(#SVGID_00000096059129193311255970000001496723619806990728_);">
					<g>
						<path id="C0_0_7ea3d59413" class="st2" d="M31.9,138.6c0.8,0,1.6-0.3,2.1-0.9c0.6-0.6,0.9-1.3,0.9-2.1s-0.3-1.6-0.9-2.1
							c-0.6-0.6-1.3-0.9-2.1-0.9s-1.6,0.3-2.1,0.9s-0.9,1.3-0.9,2.1s0.3,1.6,0.9,2.1S31.1,138.6,31.9,138.6z"/>
					</g>
				</g>
			</g>
			<g>
				<defs>
					<rect id="SVGID_00000058573605457304963710000006619013287162353843_" x="24.9" y="19" width="154.2" height="122.2"/>
				</defs>
				<clipPath id="SVGID_00000052069597376818681620000003046326211232297362_">
					<use xlink:href="#SVGID_00000058573605457304963710000006619013287162353843_"  style="overflow:visible;"/>
				</clipPath>
				<g style="clip-path:url(#SVGID_00000052069597376818681620000003046326211232297362_);">
					<g>
						<path id="C0_0_7ea3d59413_00000058566879430581840620000003064400444864469131_" class="st2" d="M31.9,109.8
							c0.8,0,1.6-0.3,2.1-0.9c0.6-0.6,0.9-1.3,0.9-2.1s-0.3-1.6-0.9-2.1c-0.6-0.6-1.3-0.9-2.1-0.9s-1.6,0.3-2.1,0.9
							c-0.6,0.6-0.9,1.3-0.9,2.1s0.3,1.6,0.9,2.1C30.3,109.5,31.1,109.8,31.9,109.8z"/>
					</g>
				</g>
			</g>
			<g>
				<defs>
					<rect id="SVGID_00000078024263854756624750000002370163800839037837_" x="24.9" y="19" width="154.2" height="122.2"/>
				</defs>
				<clipPath id="SVGID_00000098196113999020033910000012885610044414096032_">
					<use xlink:href="#SVGID_00000078024263854756624750000002370163800839037837_"  style="overflow:visible;"/>
				</clipPath>
				<g style="clip-path:url(#SVGID_00000098196113999020033910000012885610044414096032_);">
					<g>
						<path id="C0_0_7ea3d59413_00000118395159421615715110000016823899391019839146_" class="st2" d="M31.9,113.6
							c0.8,0,1.6-0.3,2.1-0.9c0.6-0.6,0.9-1.3,0.9-2.1s-0.3-1.6-0.9-2.1c-0.6-0.6-1.3-0.9-2.1-0.9s-1.6,0.3-2.1,0.9
							c-0.6,0.6-0.9,1.3-0.9,2.1s0.3,1.6,0.9,2.1C30.3,113.2,31.1,113.6,31.9,113.6z"/>
					</g>
				</g>
			</g>
			<g>
				<defs>
					<rect id="SVGID_00000074409921892781023570000008653918653690546355_" x="24.9" y="19" width="154.2" height="122.2"/>
				</defs>
				<clipPath id="SVGID_00000065780519820703244060000014905962594347860378_">
					<use xlink:href="#SVGID_00000074409921892781023570000008653918653690546355_"  style="overflow:visible;"/>
				</clipPath>
				<g style="clip-path:url(#SVGID_00000065780519820703244060000014905962594347860378_);">
					<g>
						<path id="C0_0_7ea3d59413_00000070820494874996073350000007483230920225567158_" class="st2" d="M31.9,91.3
							c0.8,0,1.6-0.3,2.1-0.9c0.6-0.6,0.9-1.3,0.9-2.1s-0.3-1.6-0.9-2.1c-0.6-0.6-1.3-0.9-2.1-0.9s-1.6,0.3-2.1,0.9
							c-0.6,0.6-0.9,1.3-0.9,2.1s0.3,1.6,0.9,2.1C30.3,91,31.1,91.3,31.9,91.3z"/>
					</g>
				</g>
			</g>
			<g>
				<defs>
					<rect id="SVGID_00000013907429789569435090000000265707453419372479_" x="24.9" y="19" width="154.2" height="122.2"/>
				</defs>
				<clipPath id="SVGID_00000026152369529647350230000008752186248117679029_">
					<use xlink:href="#SVGID_00000013907429789569435090000000265707453419372479_"  style="overflow:visible;"/>
				</clipPath>
				<g style="clip-path:url(#SVGID_00000026152369529647350230000008752186248117679029_);">
					<g>
						<path id="C0_0_7ea3d59413_00000103980333379923400940000008005019272479884212_" class="st2" d="M31.9,114.2
							c0.8,0,1.6-0.3,2.1-0.9c0.6-0.6,0.9-1.3,0.9-2.1s-0.3-1.6-0.9-2.1c-0.6-0.6-1.3-0.9-2.1-0.9s-1.6,0.3-2.1,0.9
							c-0.6,0.6-0.9,1.3-0.9,2.1s0.3,1.6,0.9,2.1C30.3,113.9,31.1,114.2,31.9,114.2z"/>
					</g>
				</g>
			</g>
			<g>
				<defs>
					<rect id="SVGID_00000105386068894186103540000005361847538679015614_" x="24.9" y="19" width="154.2" height="122.2"/>
				</defs>
				<clipPath id="SVGID_00000158029342762160915000000003650096298027578752_">
					<use xlink:href="#SVGID_00000105386068894186103540000005361847538679015614_"  style="overflow:visible;"/>
				</clipPath>
				<g style="clip-path:url(#SVGID_00000158029342762160915000000003650096298027578752_);">
					<g>
						<path id="C0_0_7ea3d59413_00000044885725542517126390000013801195006350451132_" class="st2" d="M31.9,105.4
							c0.8,0,1.6-0.3,2.1-0.9c0.6-0.6,0.9-1.3,0.9-2.1s-0.3-1.6-0.9-2.1c-0.6-0.6-1.3-0.9-2.1-0.9s-1.6,0.3-2.1,0.9
							c-0.6,0.6-0.9,1.3-0.9,2.1s0.3,1.6,0.9,2.1C30.3,105.1,31.1,105.4,31.9,105.4z"/>
					</g>
				</g>
			</g>
			<g>
				<defs>
					<rect id="SVGID_00000049219368475811783000000009811627378893605255_" x="24.9" y="19" width="154.2" height="122.2"/>
				</defs>
				<clipPath id="SVGID_00000129906117308071197970000013093944175093322400_">
					<use xlink:href="#SVGID_00000049219368475811783000000009811627378893605255_"  style="overflow:visible;"/>
				</clipPath>
				<g style="clip-path:url(#SVGID_00000129906117308071197970000013093944175093322400_);">
					<g>
						<path id="C0_0_7ea3d59413_00000004505982049413977060000018321998795539292057_" class="st2" d="M31.9,115.8
							c0.8,0,1.6-0.3,2.1-0.9c0.6-0.6,0.9-1.3,0.9-2.1s-0.3-1.6-0.9-2.1c-0.6-0.6-1.3-0.9-2.1-0.9s-1.6,0.3-2.1,0.9
							c-0.6,0.6-0.9,1.3-0.9,2.1s0.3,1.6,0.9,2.1C30.3,115.4,31.1,115.8,31.9,115.8z"/>
					</g>
				</g>
			</g>
			<g>
				<defs>
					<rect id="SVGID_00000038382115501697148840000006249588126646355636_" x="24.9" y="19" width="154.2" height="122.2"/>
				</defs>
				<clipPath id="SVGID_00000040576817641396467000000006373086808292053671_">
					<use xlink:href="#SVGID_00000038382115501697148840000006249588126646355636_"  style="overflow:visible;"/>
				</clipPath>
				<g style="clip-path:url(#SVGID_00000040576817641396467000000006373086808292053671_);">
					<g>
						<path id="C0_0_7ea3d59413_00000103261187829663857210000011151529581783515056_" class="st2" d="M31.9,99.9
							c0.8,0,1.6-0.3,2.1-0.9c0.6-0.6,0.9-1.3,0.9-2.1s-0.3-1.6-0.9-2.1c-0.6-0.6-1.3-0.9-2.1-0.9s-1.6,0.3-2.1,0.9
							c-0.6,0.6-0.9,1.3-0.9,2.1s0.3,1.6,0.9,2.1C30.3,99.6,31.1,99.9,31.9,99.9z"/>
					</g>
				</g>
			</g>
			<g>
				<defs>
					<rect id="SVGID_00000021087146688141597100000013539947903308906420_" x="24.9" y="19" width="154.2" height="122.2"/>
				</defs>
				<clipPath id="SVGID_00000080900271964771248580000006510814973535064502_">
					<use xlink:href="#SVGID_00000021087146688141597100000013539947903308906420_"  style="overflow:visible;"/>
				</clipPath>
				<g style="clip-path:url(#SVGID_00000080900271964771248580000006510814973535064502_);">
					<g>
						<path id="C0_0_7ea3d59413_00000163038589808639159220000007466350608174225580_" class="st2" d="M31.9,132.6
							c0.8,0,1.6-0.3,2.1-0.9c0.6-0.6,0.9-1.3,0.9-2.1s-0.3-1.6-0.9-2.1c-0.6-0.6-1.3-0.9-2.1-0.9s-1.6,0.3-2.1,0.9
							s-0.9,1.3-0.9,2.1s0.3,1.6,0.9,2.1S31.1,132.6,31.9,132.6z"/>
					</g>
				</g>
			</g>
		</g>
		<g id="PathCollection_2">
			<g>
				<defs>
					<rect id="SVGID_00000127011894336701961790000004467293139572741775_" x="24.9" y="19" width="154.2" height="122.2"/>
				</defs>
				<clipPath id="SVGID_00000131353939720676633890000015471198995970468249_">
					<use xlink:href="#SVGID_00000127011894336701961790000004467293139572741775_"  style="overflow:visible;"/>
				</clipPath>
				<g style="clip-path:url(#SVGID_00000131353939720676633890000015471198995970468249_);">
					<g>
						<path id="C1_0_e072538cab" class="st2" d="M49.4,116.7c0.8,0,1.6-0.3,2.1-0.9c0.6-0.6,0.9-1.3,0.9-2.1s-0.3-1.6-0.9-2.1
							c-0.6-0.6-1.3-0.9-2.1-0.9s-1.6,0.3-2.1,0.9c-0.6,0.6-0.9,1.3-0.9,2.1s0.3,1.6,0.9,2.1C47.8,116.4,48.6,116.7,49.4,116.7z"/>
					</g>
				</g>
			</g>
			<g>
				<defs>
					<rect id="SVGID_00000109708557625497917840000011392590922215577006_" x="24.9" y="19" width="154.2" height="122.2"/>
				</defs>
				<clipPath id="SVGID_00000113333980654388327060000013321822921093982879_">
					<use xlink:href="#SVGID_00000109708557625497917840000011392590922215577006_"  style="overflow:visible;"/>
				</clipPath>
				<g style="clip-path:url(#SVGID_00000113333980654388327060000013321822921093982879_);">
					<g>
						<path id="C1_0_e072538cab_00000179609779146654122660000003475374700792056977_" class="st2" d="M49.4,110.7
							c0.8,0,1.6-0.3,2.1-0.9c0.6-0.6,0.9-1.3,0.9-2.1s-0.3-1.6-0.9-2.1c-0.6-0.6-1.3-0.9-2.1-0.9s-1.6,0.3-2.1,0.9
							c-0.6,0.6-0.9,1.3-0.9,2.1s0.3,1.6,0.9,2.1C47.8,110.4,48.6,110.7,49.4,110.7z"/>
					</g>
				</g>
			</g>
			<g>
				<defs>
					<rect id="SVGID_00000072261060416425214610000011414876726687346589_" x="24.9" y="19" width="154.2" height="122.2"/>
				</defs>
				<clipPath id="SVGID_00000111903951430907718170000002865093035985118900_">
					<use xlink:href="#SVGID_00000072261060416425214610000011414876726687346589_"  style="overflow:visible;"/>
				</clipPath>
				<g style="clip-path:url(#SVGID_00000111903951430907718170000002865093035985118900_);">
					<g>
						<path id="C1_0_e072538cab_00000147202641975696356750000000803837064343106722_" class="st2" d="M49.4,85.1
							c0.8,0,1.6-0.3,2.1-0.9c0.6-0.6,0.9-1.3,0.9-2.1s-0.3-1.6-0.9-2.1c-0.6-0.6-1.3-0.9-2.1-0.9s-1.6,0.3-2.1,0.9
							c-0.6,0.6-0.9,1.3-0.9,2.1s0.3,1.6,0.9,2.1C47.8,84.8,48.6,85.1,49.4,85.1z"/>
					</g>
				</g>
			</g>
			<g>
				<defs>
					<rect id="SVGID_00000121962390466014558890000016699446239871624888_" x="24.9" y="19" width="154.2" height="122.2"/>
				</defs>
				<clipPath id="SVGID_00000072993712228383245140000003664430831036214713_">
					<use xlink:href="#SVGID_00000121962390466014558890000016699446239871624888_"  style="overflow:visible;"/>
				</clipPath>
				<g style="clip-path:url(#SVGID_00000072993712228383245140000003664430831036214713_);">
					<g>
						<path id="C1_0_e072538cab_00000026154493628192462660000011235314973063960963_" class="st2" d="M49.4,120.1
							c0.8,0,1.6-0.3,2.1-0.9c0.6-0.6,0.9-1.3,0.9-2.1s-0.3-1.6-0.9-2.1c-0.6-0.6-1.3-0.9-2.1-0.9s-1.6,0.3-2.1,0.9
							c-0.6,0.6-0.9,1.3-0.9,2.1s0.3,1.6,0.9,2.1C47.8,119.8,48.6,120.1,49.4,120.1z"/>
					</g>
				</g>
			</g>
			<g>
				<defs>
					<rect id="SVGID_00000118399219489412808840000004114872671545770671_" x="24.9" y="19" width="154.2" height="122.2"/>
				</defs>
				<clipPath id="SVGID_00000176002339409338930520000003801045975854188452_">
					<use xlink:href="#SVGID_00000118399219489412808840000004114872671545770671_"  style="overflow:visible;"/>
				</clipPath>
				<g style="clip-path:url(#SVGID_00000176002339409338930520000003801045975854188452_);">
					<g>
						<path id="C1_0_e072538cab_00000035500030539731334700000016923394096038115258_" class="st2" d="M49.4,117.6
							c0.8,0,1.6-0.3,2.1-0.9c0.6-0.6,0.9-1.3,0.9-2.1s-0.3-1.6-0.9-2.1c-0.6-0.6-1.3-0.9-2.1-0.9s-1.6,0.3-2.1,0.9
							c-0.6,0.6-0.9,1.3-0.9,2.1s0.3,1.6,0.9,2.1C47.8,117.3,48.6,117.6,49.4,117.6z"/>
					</g>
				</g>
			</g>
			<g>
				<defs>
					<rect id="SVGID_00000048465296584410984760000006330251698563208620_" x="24.9" y="19" width="154.2" height="122.2"/>
				</defs>
				<clipPath id="SVGID_00000016787975482109823950000007307092700756256163_">
					<use xlink:href="#SVGID_00000048465296584410984760000006330251698563208620_"  style="overflow:visible;"/>
				</clipPath>
				<g style="clip-path:url(#SVGID_00000016787975482109823950000007307092700756256163_);">
					<g>
						<path id="C1_0_e072538cab_00000119823083103475052940000012375134082373773490_" class="st2" d="M49.4,93.6
							c0.8,0,1.6-0.3,2.1-0.9c0.6-0.6,0.9-1.3,0.9-2.1s-0.3-1.6-0.9-2.1c-0.6-0.6-1.3-0.9-2.1-0.9s-1.6,0.3-2.1,0.9
							c-0.6,0.6-0.9,1.3-0.9,2.1s0.3,1.6,0.9,2.1C47.8,93.3,48.6,93.6,49.4,93.6z"/>
					</g>
				</g>
			</g>
			<g>
				<defs>
					<rect id="SVGID_00000024691047210633873270000016120024705891447728_" x="24.9" y="19" width="154.2" height="122.2"/>
				</defs>
				<clipPath id="SVGID_00000083064189191251072580000001300396686942606259_">
					<use xlink:href="#SVGID_00000024691047210633873270000016120024705891447728_"  style="overflow:visible;"/>
				</clipPath>
				<g style="clip-path:url(#SVGID_00000083064189191251072580000001300396686942606259_);">
					<g>
						<path id="C1_0_e072538cab_00000040567595892758868930000002937338439731566211_" class="st2" d="M49.4,117.8
							c0.8,0,1.6-0.3,2.1-0.9c0.6-0.6,0.9-1.3,0.9-2.1s-0.3-1.6-0.9-2.1c-0.6-0.6-1.3-0.9-2.1-0.9s-1.6,0.3-2.1,0.9
							c-0.6,0.6-0.9,1.3-0.9,2.1s0.3,1.6,0.9,2.1C47.8,117.5,48.6,117.8,49.4,117.8z"/>
					</g>
				</g>
			</g>
			<g>
				<defs>
					<rect id="SVGID_00000176021531979277416970000009617847944626614181_" x="24.9" y="19" width="154.2" height="122.2"/>
				</defs>
				<clipPath id="SVGID_00000176019123321975499920000004012930933463203731_">
					<use xlink:href="#SVGID_00000176021531979277416970000009617847944626614181_"  style="overflow:visible;"/>
				</clipPath>
				<g style="clip-path:url(#SVGID_00000176019123321975499920000004012930933463203731_);">
					<g>
						<path id="C1_0_e072538cab_00000016757006204538273970000017537884594965132977_" class="st2" d="M49.4,125.6
							c0.8,0,1.6-0.3,2.1-0.9c0.6-0.6,0.9-1.3,0.9-2.1s-0.3-1.6-0.9-2.1c-0.6-0.6-1.3-0.9-2.1-0.9s-1.6,0.3-2.1,0.9
							c-0.6,0.6-0.9,1.3-0.9,2.1s0.3,1.6,0.9,2.1C47.8,125.3,48.6,125.6,49.4,125.6z"/>
					</g>
				</g>
			</g>
		</g>
		<g id="PathCollection_3">
			<g>
				<defs>
					<rect id="SVGID_00000176722208790558305010000014215782296780438195_" x="24.9" y="19" width="154.2" height="122.2"/>
				</defs>
				<clipPath id="SVGID_00000028322530550577006660000007178174252623079556_">
					<use xlink:href="#SVGID_00000176722208790558305010000014215782296780438195_"  style="overflow:visible;"/>
				</clipPath>
				<g style="clip-path:url(#SVGID_00000028322530550577006660000007178174252623079556_);">
					<g>
						<path id="C2_0_57fc3ffa5d" class="st2" d="M66.9,73.4c0.8,0,1.6-0.3,2.1-0.9c0.6-0.6,0.9-1.3,0.9-2.1s-0.3-1.6-0.9-2.1
							c-0.6-0.6-1.3-0.9-2.1-0.9s-1.6,0.3-2.1,0.9c-0.6,0.6-0.9,1.3-0.9,2.1s0.3,1.6,0.9,2.1C65.4,73.1,66.1,73.4,66.9,73.4z"/>
					</g>
				</g>
			</g>
			<g>
				<defs>
					<rect id="SVGID_00000059305059405934386370000013829045040050493322_" x="24.9" y="19" width="154.2" height="122.2"/>
				</defs>
				<clipPath id="SVGID_00000017481785273126654770000017262543192200060548_">
					<use xlink:href="#SVGID_00000059305059405934386370000013829045040050493322_"  style="overflow:visible;"/>
				</clipPath>
				<g style="clip-path:url(#SVGID_00000017481785273126654770000017262543192200060548_);">
					<g>
						<path id="C2_0_57fc3ffa5d_00000090975707033711087760000015618504433582532026_" class="st2" d="M66.9,50.1
							c0.8,0,1.6-0.3,2.1-0.9c0.6-0.6,0.9-1.3,0.9-2.1S69.6,45.6,69,45c-0.6-0.6-1.3-0.9-2.1-0.9s-1.6,0.3-2.1,0.9
							c-0.6,0.6-0.9,1.3-0.9,2.1s0.3,1.6,0.9,2.1C65.4,49.8,66.1,50.1,66.9,50.1z"/>
					</g>
				</g>
			</g>
			<g>
				<defs>
					<rect id="SVGID_00000028321403593373357540000012801025193402325165_" x="24.9" y="19" width="154.2" height="122.2"/>
				</defs>
				<clipPath id="SVGID_00000020368023239944058180000005305994556709833151_">
					<use xlink:href="#SVGID_00000028321403593373357540000012801025193402325165_"  style="overflow:visible;"/>
				</clipPath>
				<g style="clip-path:url(#SVGID_00000020368023239944058180000005305994556709833151_);">
					<g>
						<path id="C2_0_57fc3ffa5d_00000167374006780067545410000001991849706824562353_" class="st2" d="M66.9,91.3
							c0.8,0,1.6-0.3,2.1-0.9c0.6-0.6,0.9-1.3,0.9-2.1s-0.3-1.6-0.9-2.1c-0.6-0.6-1.3-0.9-2.1-0.9s-1.6,0.3-2.1,0.9
							c-0.6,0.6-0.9,1.3-0.9,2.1s0.3,1.6,0.9,2.1C65.4,91,66.1,91.3,66.9,91.3z"/>
					</g>
				</g>
			</g>
			<g>
				<defs>
					<rect id="SVGID_00000031892327475392368010000001245815148666483896_" x="24.9" y="19" width="154.2" height="122.2"/>
				</defs>
				<clipPath id="SVGID_00000093171870693382543450000010311812966739723955_">
					<use xlink:href="#SVGID_00000031892327475392368010000001245815148666483896_"  style="overflow:visible;"/>
				</clipPath>
				<g style="clip-path:url(#SVGID_00000093171870693382543450000010311812966739723955_);">
					<g>
						<path id="C2_0_57fc3ffa5d_00000088117822909480452200000016142670587956129439_" class="st2" d="M66.9,75.8
							c0.8,0,1.6-0.3,2.1-0.9c0.6-0.6,0.9-1.3,0.9-2.1s-0.3-1.6-0.9-2.1c-0.6-0.6-1.3-0.9-2.1-0.9s-1.6,0.3-2.1,0.9
							c-0.6,0.6-0.9,1.3-0.9,2.1s0.3,1.6,0.9,2.1C65.4,75.5,66.1,75.8,66.9,75.8z"/>
					</g>
				</g>
			</g>
			<g>
				<defs>
					<rect id="SVGID_00000144318903854175563430000014110870186230658999_" x="24.9" y="19" width="154.2" height="122.2"/>
				</defs>
				<clipPath id="SVGID_00000183245963677596248730000003291088356252321934_">
					<use xlink:href="#SVGID_00000144318903854175563430000014110870186230658999_"  style="overflow:visible;"/>
				</clipPath>
				<g style="clip-path:url(#SVGID_00000183245963677596248730000003291088356252321934_);">
					<g>
						<path id="C2_0_57fc3ffa5d_00000161593651617865491420000013983786738773251261_" class="st2" d="M66.9,79
							c0.8,0,1.6-0.3,2.1-0.9c0.6-0.6,0.9-1.3,0.9-2.1s-0.3-1.6-0.9-2.1c-0.6-0.6-1.3-0.9-2.1-0.9s-1.6,0.3-2.1,0.9
							c-0.6,0.6-0.9,1.3-0.9,2.1s0.3,1.6,0.9,2.1C65.4,78.7,66.1,79,66.9,79z"/>
					</g>
				</g>
			</g>
			<g>
				<defs>
					<rect id="SVGID_00000037650437083441873650000009935158881454998193_" x="24.9" y="19" width="154.2" height="122.2"/>
				</defs>
				<clipPath id="SVGID_00000137122544268179337990000018019772658041247649_">
					<use xlink:href="#SVGID_00000037650437083441873650000009935158881454998193_"  style="overflow:visible;"/>
				</clipPath>
				<g style="clip-path:url(#SVGID_00000137122544268179337990000018019772658041247649_);">
					<g>
						<path id="C2_0_57fc3ffa5d_00000013886396947681634720000002935823730717432745_" class="st2" d="M66.9,27.6
							c0.8,0,1.6-0.3,2.1-0.9c0.6-0.6,0.9-1.3,0.9-2.1S69.6,23,69,22.5c-0.6-0.6-1.3-0.9-2.1-0.9s-1.6,0.3-2.1,0.9
							c-0.6,0.6-0.9,1.3-0.9,2.1s0.3,1.6,0.9,2.1C65.4,27.3,66.1,27.6,66.9,27.6z"/>
					</g>
				</g>
			</g>
			<g>
				<defs>
					<rect id="SVGID_00000136410027123049892120000009172560664165890733_" x="24.9" y="19" width="154.2" height="122.2"/>
				</defs>
				<clipPath id="SVGID_00000150817464167818222700000001162082540587768502_">
					<use xlink:href="#SVGID_00000136410027123049892120000009172560664165890733_"  style="overflow:visible;"/>
				</clipPath>
				<g style="clip-path:url(#SVGID_00000150817464167818222700000001162082540587768502_);">
					<g>
						<path id="C2_0_57fc3ffa5d_00000111185763793534234500000005431135838417323952_" class="st2" d="M66.9,111.5
							c0.8,0,1.6-0.3,2.1-0.9c0.6-0.6,0.9-1.3,0.9-2.1s-0.3-1.6-0.9-2.1c-0.6-0.6-1.3-0.9-2.1-0.9s-1.6,0.3-2.1,0.9
							c-0.6,0.6-0.9,1.3-0.9,2.1s0.3,1.6,0.9,2.1C65.4,111.2,66.1,111.5,66.9,111.5z"/>
					</g>
				</g>
			</g>
		</g>
		<g id="PathCollection_4">
			<g>
				<defs>
					<rect id="SVGID_00000055664656719515077730000016888534951630047924_" x="24.9" y="19" width="154.2" height="122.2"/>
				</defs>
				<clipPath id="SVGID_00000082348127989653860870000004331312210301157812_">
					<use xlink:href="#SVGID_00000055664656719515077730000016888534951630047924_"  style="overflow:visible;"/>
				</clipPath>
				<g style="clip-path:url(#SVGID_00000082348127989653860870000004331312210301157812_);">
					<g>
						<path id="C3_0_032293cff1" class="st2" d="M84.4,68.8c0.8,0,1.6-0.3,2.1-0.9c0.6-0.6,0.9-1.3,0.9-2.1s-0.3-1.6-0.9-2.1
							c-0.6-0.6-1.3-0.9-2.1-0.9s-1.6,0.3-2.1,0.9c-0.6,0.6-0.9,1.3-0.9,2.1s0.3,1.6,0.9,2.1C82.9,68.5,83.6,68.8,84.4,68.8z"/>
					</g>
				</g>
			</g>
			<g>
				<defs>
					<rect id="SVGID_00000105390891900992190820000004654578256783304362_" x="24.9" y="19" width="154.2" height="122.2"/>
				</defs>
				<clipPath id="SVGID_00000075847637293207955680000011742144509967483528_">
					<use xlink:href="#SVGID_00000105390891900992190820000004654578256783304362_"  style="overflow:visible;"/>
				</clipPath>
				<g style="clip-path:url(#SVGID_00000075847637293207955680000011742144509967483528_);">
					<g>
						<path id="C3_0_032293cff1_00000018917142894062853260000002178673478889350567_" class="st2" d="M84.4,103
							c0.8,0,1.6-0.3,2.1-0.9c0.6-0.6,0.9-1.3,0.9-2.1s-0.3-1.6-0.9-2.1C86,97.3,85.2,97,84.4,97s-1.6,0.3-2.1,0.9
							c-0.6,0.6-0.9,1.3-0.9,2.1s0.3,1.6,0.9,2.1C82.9,102.6,83.6,103,84.4,103z"/>
					</g>
				</g>
			</g>
			<g>
				<defs>
					<rect id="SVGID_00000153688820429406008070000005570613008524483722_" x="24.9" y="19" width="154.2" height="122.2"/>
				</defs>
				<clipPath id="SVGID_00000021842172513913554950000003328653095060279222_">
					<use xlink:href="#SVGID_00000153688820429406008070000005570613008524483722_"  style="overflow:visible;"/>
				</clipPath>
				<g style="clip-path:url(#SVGID_00000021842172513913554950000003328653095060279222_);">
					<g>
						<path id="C3_0_032293cff1_00000142870771110213213710000007489324174123068563_" class="st2" d="M84.4,94.7
							c0.8,0,1.6-0.3,2.1-0.9c0.6-0.6,0.9-1.3,0.9-2.1s-0.3-1.6-0.9-2.1c-0.6-0.6-1.3-0.9-2.1-0.9s-1.6,0.3-2.1,0.9
							c-0.6,0.6-0.9,1.3-0.9,2.1s0.3,1.6,0.9,2.1C82.9,94.4,83.6,94.7,84.4,94.7z"/>
					</g>
				</g>
			</g>
			<g>
				<defs>
					<rect id="SVGID_00000062900930823820549520000001743693388248591775_" x="24.9" y="19" width="154.2" height="122.2"/>
				</defs>
				<clipPath id="SVGID_00000079486721766229495120000001453915627691986851_">
					<use xlink:href="#SVGID_00000062900930823820549520000001743693388248591775_"  style="overflow:visible;"/>
				</clipPath>
				<g style="clip-path:url(#SVGID_00000079486721766229495120000001453915627691986851_);">
					<g>
						<path id="C3_0_032293cff1_00000005258322534508533290000012392184642629677998_" class="st2" d="M84.4,90.7
							c0.8,0,1.6-0.3,2.1-0.9c0.6-0.6,0.9-1.3,0.9-2.1s-0.3-1.6-0.9-2.1c-0.6-0.6-1.3-0.9-2.1-0.9s-1.6,0.3-2.1,0.9
							c-0.6,0.6-0.9,1.3-0.9,2.1s0.3,1.6,0.9,2.1C82.9,90.3,83.6,90.7,84.4,90.7z"/>
					</g>
				</g>
			</g>
			<g>
				<defs>
					<rect id="SVGID_00000081633285355135124510000018066704702849963451_" x="24.9" y="19" width="154.2" height="122.2"/>
				</defs>
				<clipPath id="SVGID_00000065070519344892230730000004909106016309198259_">
					<use xlink:href="#SVGID_00000081633285355135124510000018066704702849963451_"  style="overflow:visible;"/>
				</clipPath>
				<g style="clip-path:url(#SVGID_00000065070519344892230730000004909106016309198259_);">
					<g>
						<path id="C3_0_032293cff1_00000130617246939730051750000000771951929164240001_" class="st2" d="M84.4,65.6
							c0.8,0,1.6-0.3,2.1-0.9c0.6-0.6,0.9-1.3,0.9-2.1s-0.3-1.6-0.9-2.1c-0.6-0.6-1.3-0.9-2.1-0.9s-1.6,0.3-2.1,0.9
							c-0.6,0.6-0.9,1.3-0.9,2.1s0.3,1.6,0.9,2.1C82.9,65.3,83.6,65.6,84.4,65.6z"/>
					</g>
				</g>
			</g>
			<g>
				<defs>
					<rect id="SVGID_00000132806654104808363420000008547341070691692468_" x="24.9" y="19" width="154.2" height="122.2"/>
				</defs>
				<clipPath id="SVGID_00000049927457188585374940000002024253357217859457_">
					<use xlink:href="#SVGID_00000132806654104808363420000008547341070691692468_"  style="overflow:visible;"/>
				</clipPath>
				<g style="clip-path:url(#SVGID_00000049927457188585374940000002024253357217859457_);">
					<g>
						<path id="C3_0_032293cff1_00000129898295504957044490000012563207878418062998_" class="st2" d="M84.4,121.7
							c0.8,0,1.6-0.3,2.1-0.9c0.6-0.6,0.9-1.3,0.9-2.1s-0.3-1.6-0.9-2.1c-0.6-0.6-1.3-0.9-2.1-0.9s-1.6,0.3-2.1,0.9
							c-0.6,0.6-0.9,1.3-0.9,2.1s0.3,1.6,0.9,2.1C82.9,121.3,83.6,121.7,84.4,121.7z"/>
					</g>
				</g>
			</g>
		</g>
		<g id="PathCollection_5">
			<g>
				<defs>
					<rect id="SVGID_00000041997617553427168480000015707646332944931234_" x="24.9" y="19" width="154.2" height="122.2"/>
				</defs>
				<clipPath id="SVGID_00000154403982067248771620000018191262679191772816_">
					<use xlink:href="#SVGID_00000041997617553427168480000015707646332944931234_"  style="overflow:visible;"/>
				</clipPath>
				<g style="clip-path:url(#SVGID_00000154403982067248771620000018191262679191772816_);">
					<g>
						<path id="C4_0_e561921d6e" class="st2" d="M102,93.1c0.8,0,1.6-0.3,2.1-0.9c0.6-0.6,0.9-1.3,0.9-2.1s-0.3-1.6-0.9-2.1
							c-0.6-0.6-1.3-0.9-2.1-0.9s-1.6,0.3-2.1,0.9c-0.6,0.6-0.9,1.3-0.9,2.1s0.3,1.6,0.9,2.1C100.4,92.8,101.2,93.1,102,93.1z"/>
					</g>
				</g>
			</g>
			<g>
				<defs>
					<rect id="SVGID_00000178903804332772909910000001781119820301150391_" x="24.9" y="19" width="154.2" height="122.2"/>
				</defs>
				<clipPath id="SVGID_00000000193714019940310980000008567359348971876528_">
					<use xlink:href="#SVGID_00000178903804332772909910000001781119820301150391_"  style="overflow:visible;"/>
				</clipPath>
				<g style="clip-path:url(#SVGID_00000000193714019940310980000008567359348971876528_);">
					<g>
						<path id="C4_0_e561921d6e_00000011025356176986103320000001231618572095022229_" class="st2" d="M102,110.5
							c0.8,0,1.6-0.3,2.1-0.9c0.6-0.6,0.9-1.3,0.9-2.1s-0.3-1.6-0.9-2.1c-0.6-0.6-1.3-0.9-2.1-0.9s-1.6,0.3-2.1,0.9
							c-0.6,0.6-0.9,1.3-0.9,2.1s0.3,1.6,0.9,2.1C100.4,110.2,101.2,110.5,102,110.5z"/>
					</g>
				</g>
			</g>
			<g>
				<defs>
					<rect id="SVGID_00000160168629781037920000000010043408811622807953_" x="24.9" y="19" width="154.2" height="122.2"/>
				</defs>
				<clipPath id="SVGID_00000043435609208438184320000006119568893110210740_">
					<use xlink:href="#SVGID_00000160168629781037920000000010043408811622807953_"  style="overflow:visible;"/>
				</clipPath>
				<g style="clip-path:url(#SVGID_00000043435609208438184320000006119568893110210740_);">
					<g>
						<path id="C4_0_e561921d6e_00000168101661035260120210000011341288572845928077_" class="st2" d="M102,102.5
							c0.8,0,1.6-0.3,2.1-0.9c0.6-0.6,0.9-1.3,0.9-2.1s-0.3-1.6-0.9-2.1c-0.6-0.6-1.3-0.9-2.1-0.9s-1.6,0.3-2.1,0.9
							c-0.6,0.6-0.9,1.3-0.9,2.1s0.3,1.6,0.9,2.1C100.4,102.2,101.2,102.5,102,102.5z"/>
					</g>
				</g>
			</g>
			<g>
				<defs>
					<rect id="SVGID_00000061446766518949310680000015145789132729152432_" x="24.9" y="19" width="154.2" height="122.2"/>
				</defs>
				<clipPath id="SVGID_00000093886280504382357290000007967542574682365063_">
					<use xlink:href="#SVGID_00000061446766518949310680000015145789132729152432_"  style="overflow:visible;"/>
				</clipPath>
				<g style="clip-path:url(#SVGID_00000093886280504382357290000007967542574682365063_);">
					<g>
						<path id="C4_0_e561921d6e_00000158710324307692385040000000880388002935355269_" class="st2" d="M102,90.1
							c0.8,0,1.6-0.3,2.1-0.9c0.6-0.6,0.9-1.3,0.9-2.1s-0.3-1.6-0.9-2.1c-0.6-0.6-1.3-0.9-2.1-0.9s-1.6,0.3-2.1,0.9
							c-0.6,0.6-0.9,1.3-0.9,2.1s0.3,1.6,0.9,2.1C100.4,89.8,101.2,90.1,102,90.1z"/>
					</g>
				</g>
			</g>
			<g>
				<defs>
					<rect id="SVGID_00000137822947302064906170000005139638385380312991_" x="24.9" y="19" width="154.2" height="122.2"/>
				</defs>
				<clipPath id="SVGID_00000099629372361103043500000004624558810346786228_">
					<use xlink:href="#SVGID_00000137822947302064906170000005139638385380312991_"  style="overflow:visible;"/>
				</clipPath>
				<g style="clip-path:url(#SVGID_00000099629372361103043500000004624558810346786228_);">
					<g>
						<path id="C4_0_e561921d6e_00000018917569035118820790000002479173283910908815_" class="st2" d="M102,102.5
							c0.8,0,1.6-0.3,2.1-0.9c0.6-0.6,0.9-1.3,0.9-2.1s-0.3-1.6-0.9-2.1c-0.6-0.6-1.3-0.9-2.1-0.9s-1.6,0.3-2.1,0.9
							C99.3,98,99,98.7,99,99.5s0.3,1.6,0.9,2.1C100.4,102.2,101.2,102.5,102,102.5z"/>
					</g>
				</g>
			</g>
		</g>
		<g id="PathCollection_6">
			<g>
				<defs>
					<rect id="SVGID_00000030487815464612553060000015823837114473177227_" x="24.9" y="19" width="154.2" height="122.2"/>
				</defs>
				<clipPath id="SVGID_00000157986304284136023690000018005820869305881252_">
					<use xlink:href="#SVGID_00000030487815464612553060000015823837114473177227_"  style="overflow:visible;"/>
				</clipPath>
				<g style="clip-path:url(#SVGID_00000157986304284136023690000018005820869305881252_);">
					<g>
						<path id="C5_0_0673fff20f" class="st2" d="M119.5,71.3c0.8,0,1.6-0.3,2.1-0.9c0.6-0.6,0.9-1.3,0.9-2.1s-0.3-1.6-0.9-2.1
							c-0.6-0.6-1.3-0.9-2.1-0.9s-1.6,0.3-2.1,0.9c-0.6,0.6-0.9,1.3-0.9,2.1s0.3,1.6,0.9,2.1C117.9,70.9,118.7,71.3,119.5,71.3z"/>
					</g>
				</g>
			</g>
			<g>
				<defs>
					<rect id="SVGID_00000085937819493020043840000008537711832384632725_" x="24.9" y="19" width="154.2" height="122.2"/>
				</defs>
				<clipPath id="SVGID_00000095323234299828969590000014339405715919964058_">
					<use xlink:href="#SVGID_00000085937819493020043840000008537711832384632725_"  style="overflow:visible;"/>
				</clipPath>
				<g style="clip-path:url(#SVGID_00000095323234299828969590000014339405715919964058_);">
					<g>
						<path id="C5_0_0673fff20f_00000027564824640653086720000016770568413902769848_" class="st2" d="M119.5,61.6
							c0.8,0,1.6-0.3,2.1-0.9c0.6-0.6,0.9-1.3,0.9-2.1s-0.3-1.6-0.9-2.1c-0.6-0.6-1.3-0.9-2.1-0.9s-1.6,0.3-2.1,0.9
							c-0.6,0.6-0.9,1.3-0.9,2.1s0.3,1.6,0.9,2.1C117.9,61.3,118.7,61.6,119.5,61.6z"/>
					</g>
				</g>
			</g>
			<g>
				<defs>
					<rect id="SVGID_00000067231067158554212920000005508679120973768581_" x="24.9" y="19" width="154.2" height="122.2"/>
				</defs>
				<clipPath id="SVGID_00000140712260566687603440000002916515084197334955_">
					<use xlink:href="#SVGID_00000067231067158554212920000005508679120973768581_"  style="overflow:visible;"/>
				</clipPath>
				<g style="clip-path:url(#SVGID_00000140712260566687603440000002916515084197334955_);">
					<g>
						<path id="C5_0_0673fff20f_00000047050407013310291100000015639105840215777457_" class="st2" d="M119.5,80.1
							c0.8,0,1.6-0.3,2.1-0.9c0.6-0.6,0.9-1.3,0.9-2.1s-0.3-1.6-0.9-2.1c-0.6-0.6-1.3-0.9-2.1-0.9s-1.6,0.3-2.1,0.9
							c-0.6,0.6-0.9,1.3-0.9,2.1s0.3,1.6,0.9,2.1C117.9,79.8,118.7,80.1,119.5,80.1z"/>
					</g>
				</g>
			</g>
			<g>
				<defs>
					<rect id="SVGID_00000110443527319190366240000010538734142756857769_" x="24.9" y="19" width="154.2" height="122.2"/>
				</defs>
				<clipPath id="SVGID_00000042707834482613836080000017984484499441725322_">
					<use xlink:href="#SVGID_00000110443527319190366240000010538734142756857769_"  style="overflow:visible;"/>
				</clipPath>
				<g style="clip-path:url(#SVGID_00000042707834482613836080000017984484499441725322_);">
					<g>
						<path id="C5_0_0673fff20f_00000081614677041823539520000001032061986183778446_" class="st2" d="M119.5,102.2
							c0.8,0,1.6-0.3,2.1-0.9c0.6-0.6,0.9-1.3,0.9-2.1s-0.3-1.6-0.9-2.1c-0.6-0.6-1.3-0.9-2.1-0.9s-1.6,0.3-2.1,0.9
							c-0.6,0.6-0.9,1.3-0.9,2.1s0.3,1.6,0.9,2.1C117.9,101.8,118.7,102.2,119.5,102.2z"/>
					</g>
				</g>
			</g>
		</g>
		<g id="PathCollection_7">
			<g>
				<defs>
					<rect id="SVGID_00000119093088665939199460000001465279253784308614_" x="24.9" y="19" width="154.2" height="122.2"/>
				</defs>
				<clipPath id="SVGID_00000057145888056423397860000005744616320746453669_">
					<use xlink:href="#SVGID_00000119093088665939199460000001465279253784308614_"  style="overflow:visible;"/>
				</clipPath>
				<g style="clip-path:url(#SVGID_00000057145888056423397860000005744616320746453669_);">
					<g>
						<path id="C6_0_2e67f529ec" class="st2" d="M137,74c0.8,0,1.6-0.3,2.1-0.9c0.6-0.6,0.9-1.3,0.9-2.1s-0.3-1.6-0.9-2.1
							c-0.6-0.6-1.3-0.9-2.1-0.9s-1.6,0.3-2.1,0.9c-0.6,0.6-0.9,1.3-0.9,2.1s0.3,1.6,0.9,2.1C135.5,73.7,136.2,74,137,74z"/>
					</g>
				</g>
			</g>
			<g>
				<defs>
					<rect id="SVGID_00000107564436836152851880000002530254181016991119_" x="24.9" y="19" width="154.2" height="122.2"/>
				</defs>
				<clipPath id="SVGID_00000002362992450012124510000010330739666780723878_">
					<use xlink:href="#SVGID_00000107564436836152851880000002530254181016991119_"  style="overflow:visible;"/>
				</clipPath>
				<g style="clip-path:url(#SVGID_00000002362992450012124510000010330739666780723878_);">
					<g>
						<path id="C6_0_2e67f529ec_00000044876647409017671640000006034824618812836247_" class="st2" d="M137,69
							c0.8,0,1.6-0.3,2.1-0.9c0.6-0.6,0.9-1.3,0.9-2.1s-0.3-1.6-0.9-2.1c-0.6-0.6-1.3-0.9-2.1-0.9s-1.6,0.3-2.1,0.9
							c-0.6,0.6-0.9,1.3-0.9,2.1s0.3,1.6,0.9,2.1C135.5,68.7,136.2,69,137,69z"/>
					</g>
				</g>
			</g>
			<g>
				<defs>
					<rect id="SVGID_00000041289617801548197460000010957788163084375226_" x="24.9" y="19" width="154.2" height="122.2"/>
				</defs>
				<clipPath id="SVGID_00000119108984488824038570000010908959194191465117_">
					<use xlink:href="#SVGID_00000041289617801548197460000010957788163084375226_"  style="overflow:visible;"/>
				</clipPath>
				<g style="clip-path:url(#SVGID_00000119108984488824038570000010908959194191465117_);">
					<g>
						<path id="C6_0_2e67f529ec_00000005974164657812121570000009545343214893534392_" class="st2" d="M137,93.6
							c0.8,0,1.6-0.3,2.1-0.9c0.6-0.6,0.9-1.3,0.9-2.1s-0.3-1.6-0.9-2.1c-0.6-0.6-1.3-0.9-2.1-0.9s-1.6,0.3-2.1,0.9
							c-0.6,0.6-0.9,1.3-0.9,2.1s0.3,1.6,0.9,2.1C135.5,93.3,136.2,93.6,137,93.6z"/>
					</g>
				</g>
			</g>
		</g>
		<g id="PathCollection_8">
			<g>
				<defs>
					<rect id="SVGID_00000063617526795128427290000008317347378952336814_" x="24.9" y="19" width="154.2" height="122.2"/>
				</defs>
				<clipPath id="SVGID_00000099637715006218178590000018212276714923829424_">
					<use xlink:href="#SVGID_00000063617526795128427290000008317347378952336814_"  style="overflow:visible;"/>
				</clipPath>
				<g style="clip-path:url(#SVGID_00000099637715006218178590000018212276714923829424_);">
					<g>
						<path id="C7_0_d521f3831c" class="st2" d="M154.5,70.4c0.8,0,1.6-0.3,2.1-0.9c0.6-0.6,0.9-1.3,0.9-2.1s-0.3-1.6-0.9-2.1
							c-0.6-0.6-1.3-0.9-2.1-0.9s-1.6,0.3-2.1,0.9c-0.6,0.6-0.9,1.3-0.9,2.1s0.3,1.6,0.9,2.1C153,70.1,153.7,70.4,154.5,70.4z"/>
					</g>
				</g>
			</g>
			<g>
				<defs>
					<rect id="SVGID_00000115480405097409306750000001020374769576584119_" x="24.9" y="19" width="154.2" height="122.2"/>
				</defs>
				<clipPath id="SVGID_00000095320586718704386460000004928361423585665457_">
					<use xlink:href="#SVGID_00000115480405097409306750000001020374769576584119_"  style="overflow:visible;"/>
				</clipPath>
				<g style="clip-path:url(#SVGID_00000095320586718704386460000004928361423585665457_);">
					<g>
						<path id="C7_0_d521f3831c_00000145750077608117627410000001039222309889583550_" class="st2" d="M154.5,98.7
							c0.8,0,1.6-0.3,2.1-0.9c0.6-0.6,0.9-1.3,0.9-2.1s-0.3-1.6-0.9-2.1c-0.6-0.6-1.3-0.9-2.1-0.9s-1.6,0.3-2.1,0.9
							c-0.6,0.6-0.9,1.3-0.9,2.1s0.3,1.6,0.9,2.1C153,98.4,153.7,98.7,154.5,98.7z"/>
					</g>
				</g>
			</g>
		</g>
		<g id="PathCollection_9">
			<g>
				<defs>
					<rect id="SVGID_00000121255911297776253980000011490259025443420058_" x="24.9" y="19" width="154.2" height="122.2"/>
				</defs>
				<clipPath id="SVGID_00000103971172471721503170000006868917329929229707_">
					<use xlink:href="#SVGID_00000121255911297776253980000011490259025443420058_"  style="overflow:visible;"/>
				</clipPath>
				<path style="clip-path:url(#SVGID_00000103971172471721503170000006868917329929229707_);fill-opacity:0.5;" d="M172.1,84.1
					c0.8,0,1.6-0.3,2.1-0.9c0.6-0.6,0.9-1.3,0.9-2.1s-0.3-1.6-0.9-2.1c-0.6-0.6-1.3-0.9-2.1-0.9s-1.6,0.3-2.1,0.9
					c-0.6,0.6-0.9,1.3-0.9,2.1s0.3,1.6,0.9,2.1C170.5,83.8,171.3,84.1,172.1,84.1z"/>
			</g>
		</g>
		<g id="matplotlib.axis_1">
			<g id="xtick_1">
				<g id="line2d_1">
					<g>
						<g>
							<path id="mfefe00f8b9" class="st47" d="M31.9,141.2v3.5"/>
						</g>
					</g>
				</g>
			</g>
			<g id="xtick_2">
				<g id="line2d_2">
					<g>
						<g>
							<path id="mfefe00f8b9_00000067937363493142088070000012633538376881973890_" class="st47" d="M49.4,141.2v3.5"/>
						</g>
					</g>
				</g>
			</g>
			<g id="xtick_3">
				<g id="line2d_3">
					<g>
						<g>
							<path id="mfefe00f8b9_00000137112636184601491420000004814631881258780814_" class="st47" d="M66.9,141.2v3.5"/>
						</g>
					</g>
				</g>
			</g>
			<g id="xtick_4">
				<g id="line2d_4">
					<g>
						<g>
							<path id="mfefe00f8b9_00000013911664618998259880000016890577035566746764_" class="st47" d="M84.4,141.2v3.5"/>
						</g>
					</g>
				</g>
			</g>
			<g id="xtick_5">
				<g id="line2d_5">
					<g>
						<g>
							<path id="mfefe00f8b9_00000137845873422743155590000013992315234533841049_" class="st47" d="M102,141.2v3.5"/>
						</g>
					</g>
				</g>
			</g>
			<g id="xtick_6">
				<g id="line2d_6">
					<g>
						<g>
							<path id="mfefe00f8b9_00000021117741219690852680000011874992914575128506_" class="st47" d="M119.5,141.2v3.5"/>
						</g>
					</g>
				</g>
			</g>
			<g id="xtick_7">
				<g id="line2d_7">
					<g>
						<g>
							<path id="mfefe00f8b9_00000066514736528031505090000009065806784016174744_" class="st47" d="M137,141.2v3.5"/>
						</g>
					</g>
				</g>
			</g>
			<g id="xtick_8">
				<g id="line2d_8">
					<g>
						<g>
							<path id="mfefe00f8b9_00000029736143979144450160000012480862412146659978_" class="st47" d="M154.5,141.2v3.5"/>
						</g>
					</g>
				</g>
			</g>
			<g id="xtick_9">
				<g id="line2d_9">
					<g>
						<g>
							<path id="mfefe00f8b9_00000007410972673951166290000016775666253614206118_" class="st47" d="M172.1,141.2v3.5"/>
						</g>
					</g>
				</g>
			</g>
		</g>
		<g id="matplotlib.axis_2">
			<g id="ytick_1">
				<g id="line2d_10">
					<g>
						<g>
							<path id="mcbe1752f59" class="st47" d="M24.9,135h-3.5"/>
						</g>
					</g>
				</g>
			</g>
			<g id="ytick_2">
				<g id="line2d_11">
					<g>
						<g>
							<path id="mcbe1752f59_00000018221278295264535890000012870360590359020463_" class="st47" d="M24.9,112.7h-3.5"/>
						</g>
					</g>
				</g>
			</g>
			<g id="ytick_3">
				<g id="line2d_12">
					<g>
						<g>
							<path id="mcbe1752f59_00000104669467015841638290000012739814842765575848_" class="st47" d="M24.9,90.4h-3.5"/>
						</g>
					</g>
				</g>
			</g>
			<g id="ytick_4">
				<g id="line2d_13">
					<g>
						<g>
							<path id="mcbe1752f59_00000176760487121023629000000006266435253535366063_" class="st47" d="M24.9,68.1h-3.5"/>
						</g>
					</g>
				</g>
			</g>
			<g id="ytick_5">
				<g id="line2d_14">
					<g>
						<g>
							<path id="mcbe1752f59_00000115479119216212545710000012823356966847568824_" class="st47" d="M24.9,45.8h-3.5"/>
						</g>
					</g>
				</g>
			</g>
			<g id="ytick_6">
				<g id="line2d_15">
					<g>
						<g>
							<path id="mcbe1752f59_00000178886965291394617060000015221007149691262626_" class="st47" d="M24.9,23.5h-3.5"/>
						</g>
					</g>
				</g>
			</g>
		</g>
		<g id="line2d_16">
			<g>
				<defs>
					<rect id="SVGID_00000183939295953298335270000005801380237841572013_" x="24.9" y="19" width="154.2" height="122.2"/>
				</defs>
				<clipPath id="SVGID_00000070798249826601847080000015326961181216330670_">
					<use xlink:href="#SVGID_00000183939295953298335270000005801380237841572013_"  style="overflow:visible;"/>
				</clipPath>
				
					<path style="clip-path:url(#SVGID_00000070798249826601847080000015326961181216330670_);fill:none;stroke:#000000;stroke-width:1.5;stroke-linecap:square;stroke-linejoin:round;" d="
					M31.9,105.1l17.5-4.1l17.5-4.1l17.5-4.1l17.5-4.1l17.5-4.1l17.5-4.1l17.5-4.1l17.5-4.1"/>
			</g>
		</g>
		<g id="patch_3">
			<path class="st49" d="M24.9,141.2V19"/>
		</g>
		<g id="patch_5">
			<path class="st49" d="M24.9,141.2h154.2"/>
		</g>
	</g>
</g>
</svg>
