<?xml version="1.0" encoding="utf-8" standalone="no"?>
<!DOCTYPE svg PUBLIC "-//W3C//DTD SVG 1.1//EN"
  "http://www.w3.org/Graphics/SVG/1.1/DTD/svg11.dtd">
<svg xmlns:xlink="http://www.w3.org/1999/xlink" width="143.52pt" height="146.16pt" viewBox="0 0 143.52 146.16" xmlns="http://www.w3.org/2000/svg" version="1.1">
 <metadata>
  <rdf:RDF xmlns:dc="http://purl.org/dc/elements/1.1/" xmlns:cc="http://creativecommons.org/ns#" xmlns:rdf="http://www.w3.org/1999/02/22-rdf-syntax-ns#">
   <cc:Work>
    <dc:type rdf:resource="http://purl.org/dc/dcmitype/StillImage"/>
    <dc:date>2024-05-11T17:27:45.730072</dc:date>
    <dc:format>image/svg+xml</dc:format>
    <dc:creator>
     <cc:Agent>
      <dc:title>Matplotlib v3.5.2, https://matplotlib.org/</dc:title>
     </cc:Agent>
    </dc:creator>
   </cc:Work>
  </rdf:RDF>
 </metadata>
 <defs>
  <style type="text/css">*{stroke-linejoin: round; stroke-linecap: butt}</style>
 </defs>
 <g id="figure_1">
  <g id="patch_1">
   <path d="M 0 146.16 
L 143.52 146.16 
L 143.52 0 
L 0 0 
z
" style="fill: #ffffff"/>
  </g>
  <g id="axes_1">
   <g id="patch_2">
    <path d="M 17.94 130.0824 
L 129.168 130.0824 
L 129.168 17.5392 
L 17.94 17.5392 
z
" style="fill: #ffffff"/>
   </g>
   <g id="PathCollection_1">
    <defs>
     <path id="C0_0_98d240c39c" d="M 0 3 
C 0.795609 3 1.55874 2.683901 2.12132 2.12132 
C 2.683901 1.55874 3 0.795609 3 -0 
C 3 -0.795609 2.683901 -1.55874 2.12132 -2.12132 
C 1.55874 -2.683901 0.795609 -3 0 -3 
C -0.795609 -3 -1.55874 -2.683901 -2.12132 -2.12132 
C -2.683901 -1.55874 -3 -0.795609 -3 0 
C -3 0.795609 -2.683901 1.55874 -2.12132 2.12132 
C -1.55874 2.683901 -0.795609 3 0 3 
z
"/>
    </defs>
    <g clip-path="url(#pf4ea56a53d)">
     <use xlink:href="#C0_0_98d240c39c" x="22.995818" y="90.531955" style="fill-opacity: 0.25"/>
    </g>
    <g clip-path="url(#pf4ea56a53d)">
     <use xlink:href="#C0_0_98d240c39c" x="22.995818" y="94.793152" style="fill-opacity: 0.25"/>
    </g>
    <g clip-path="url(#pf4ea56a53d)">
     <use xlink:href="#C0_0_98d240c39c" x="22.995818" y="81.475475" style="fill-opacity: 0.25"/>
    </g>
    <g clip-path="url(#pf4ea56a53d)">
     <use xlink:href="#C0_0_98d240c39c" x="22.995818" y="88.970549" style="fill-opacity: 0.25"/>
    </g>
    <g clip-path="url(#pf4ea56a53d)">
     <use xlink:href="#C0_0_98d240c39c" x="22.995818" y="93.199569" style="fill-opacity: 0.25"/>
    </g>
    <g clip-path="url(#pf4ea56a53d)">
     <use xlink:href="#C0_0_98d240c39c" x="22.995818" y="66.914013" style="fill-opacity: 0.25"/>
    </g>
    <g clip-path="url(#pf4ea56a53d)">
     <use xlink:href="#C0_0_98d240c39c" x="22.995818" y="79.27209" style="fill-opacity: 0.25"/>
    </g>
    <g clip-path="url(#pf4ea56a53d)">
     <use xlink:href="#C0_0_98d240c39c" x="22.995818" y="87.607511" style="fill-opacity: 0.25"/>
    </g>
    <g clip-path="url(#pf4ea56a53d)">
     <use xlink:href="#C0_0_98d240c39c" x="22.995818" y="87.036471" style="fill-opacity: 0.25"/>
    </g>
    <g clip-path="url(#pf4ea56a53d)">
     <use xlink:href="#C0_0_98d240c39c" x="22.995818" y="92.900508" style="fill-opacity: 0.25"/>
    </g>
   </g>
   <g id="PathCollection_2">
    <defs>
     <path id="C1_0_ea91c7bee0" d="M 0 3 
C 0.795609 3 1.55874 2.683901 2.12132 2.12132 
C 2.683901 1.55874 3 0.795609 3 -0 
C 3 -0.795609 2.683901 -1.55874 2.12132 -2.12132 
C 1.55874 -2.683901 0.795609 -3 0 -3 
C -0.795609 -3 -1.55874 -2.683901 -2.12132 -2.12132 
C -2.683901 -1.55874 -3 -0.795609 -3 0 
C -3 0.795609 -2.683901 1.55874 -2.12132 2.12132 
C -1.55874 2.683901 -0.795609 3 0 3 
z
"/>
    </defs>
    <g clip-path="url(#pf4ea56a53d)">
     <use xlink:href="#C1_0_ea91c7bee0" x="34.23097" y="79.195228" style="fill-opacity: 0.25"/>
    </g>
    <g clip-path="url(#pf4ea56a53d)">
     <use xlink:href="#C1_0_ea91c7bee0" x="34.23097" y="67.902224" style="fill-opacity: 0.25"/>
    </g>
    <g clip-path="url(#pf4ea56a53d)">
     <use xlink:href="#C1_0_ea91c7bee0" x="34.23097" y="77.855062" style="fill-opacity: 0.25"/>
    </g>
    <g clip-path="url(#pf4ea56a53d)">
     <use xlink:href="#C1_0_ea91c7bee0" x="34.23097" y="84.617188" style="fill-opacity: 0.25"/>
    </g>
    <g clip-path="url(#pf4ea56a53d)">
     <use xlink:href="#C1_0_ea91c7bee0" x="34.23097" y="73.997488" style="fill-opacity: 0.25"/>
    </g>
    <g clip-path="url(#pf4ea56a53d)">
     <use xlink:href="#C1_0_ea91c7bee0" x="34.23097" y="75.891061" style="fill-opacity: 0.25"/>
    </g>
    <g clip-path="url(#pf4ea56a53d)">
     <use xlink:href="#C1_0_ea91c7bee0" x="34.23097" y="66.897039" style="fill-opacity: 0.25"/>
    </g>
    <g clip-path="url(#pf4ea56a53d)">
     <use xlink:href="#C1_0_ea91c7bee0" x="34.23097" y="67.248044" style="fill-opacity: 0.25"/>
    </g>
    <g clip-path="url(#pf4ea56a53d)">
     <use xlink:href="#C1_0_ea91c7bee0" x="34.23097" y="85.565499" style="fill-opacity: 0.25"/>
    </g>
   </g>
   <g id="PathCollection_3">
    <defs>
     <path id="C2_0_39825d89e8" d="M 0 3 
C 0.795609 3 1.55874 2.683901 2.12132 2.12132 
C 2.683901 1.55874 3 0.795609 3 -0 
C 3 -0.795609 2.683901 -1.55874 2.12132 -2.12132 
C 1.55874 -2.683901 0.795609 -3 0 -3 
C -0.795609 -3 -1.55874 -2.683901 -2.12132 -2.12132 
C -2.683901 -1.55874 -3 -0.795609 -3 0 
C -3 0.795609 -2.683901 1.55874 -2.12132 2.12132 
C -1.55874 2.683901 -0.795609 3 0 3 
z
"/>
    </defs>
    <g clip-path="url(#pf4ea56a53d)">
     <use xlink:href="#C2_0_39825d89e8" x="45.466121" y="56.678739" style="fill-opacity: 0.25"/>
    </g>
    <g clip-path="url(#pf4ea56a53d)">
     <use xlink:href="#C2_0_39825d89e8" x="45.466121" y="70.351496" style="fill-opacity: 0.25"/>
    </g>
    <g clip-path="url(#pf4ea56a53d)">
     <use xlink:href="#C2_0_39825d89e8" x="45.466121" y="76.503985" style="fill-opacity: 0.25"/>
    </g>
    <g clip-path="url(#pf4ea56a53d)">
     <use xlink:href="#C2_0_39825d89e8" x="45.466121" y="74.861303" style="fill-opacity: 0.25"/>
    </g>
    <g clip-path="url(#pf4ea56a53d)">
     <use xlink:href="#C2_0_39825d89e8" x="45.466121" y="79.50638" style="fill-opacity: 0.25"/>
    </g>
    <g clip-path="url(#pf4ea56a53d)">
     <use xlink:href="#C2_0_39825d89e8" x="45.466121" y="49.42871" style="fill-opacity: 0.25"/>
    </g>
    <g clip-path="url(#pf4ea56a53d)">
     <use xlink:href="#C2_0_39825d89e8" x="45.466121" y="67.431322" style="fill-opacity: 0.25"/>
    </g>
    <g clip-path="url(#pf4ea56a53d)">
     <use xlink:href="#C2_0_39825d89e8" x="45.466121" y="72.924164" style="fill-opacity: 0.25"/>
    </g>
   </g>
   <g id="PathCollection_4">
    <defs>
     <path id="C3_0_0bac6d05d2" d="M 0 3 
C 0.795609 3 1.55874 2.683901 2.12132 2.12132 
C 2.683901 1.55874 3 0.795609 3 -0 
C 3 -0.795609 2.683901 -1.55874 2.12132 -2.12132 
C 1.55874 -2.683901 0.795609 -3 0 -3 
C -0.795609 -3 -1.55874 -2.683901 -2.12132 -2.12132 
C -2.683901 -1.55874 -3 -0.795609 -3 0 
C -3 0.795609 -2.683901 1.55874 -2.12132 2.12132 
C -1.55874 2.683901 -0.795609 3 0 3 
z
"/>
    </defs>
    <g clip-path="url(#pf4ea56a53d)">
     <use xlink:href="#C3_0_0bac6d05d2" x="56.701273" y="64.231716" style="fill-opacity: 0.25"/>
    </g>
    <g clip-path="url(#pf4ea56a53d)">
     <use xlink:href="#C3_0_0bac6d05d2" x="56.701273" y="69.629365" style="fill-opacity: 0.25"/>
    </g>
    <g clip-path="url(#pf4ea56a53d)">
     <use xlink:href="#C3_0_0bac6d05d2" x="56.701273" y="70.09193" style="fill-opacity: 0.25"/>
    </g>
    <g clip-path="url(#pf4ea56a53d)">
     <use xlink:href="#C3_0_0bac6d05d2" x="56.701273" y="64.332326" style="fill-opacity: 0.25"/>
    </g>
    <g clip-path="url(#pf4ea56a53d)">
     <use xlink:href="#C3_0_0bac6d05d2" x="56.701273" y="55.154427" style="fill-opacity: 0.25"/>
    </g>
    <g clip-path="url(#pf4ea56a53d)">
     <use xlink:href="#C3_0_0bac6d05d2" x="56.701273" y="54.016371" style="fill-opacity: 0.25"/>
    </g>
    <g clip-path="url(#pf4ea56a53d)">
     <use xlink:href="#C3_0_0bac6d05d2" x="56.701273" y="79.502247" style="fill-opacity: 0.25"/>
    </g>
   </g>
   <g id="PathCollection_5">
    <defs>
     <path id="C4_0_18bbbaf590" d="M 0 3 
C 0.795609 3 1.55874 2.683901 2.12132 2.12132 
C 2.683901 1.55874 3 0.795609 3 -0 
C 3 -0.795609 2.683901 -1.55874 2.12132 -2.12132 
C 1.55874 -2.683901 0.795609 -3 0 -3 
C -0.795609 -3 -1.55874 -2.683901 -2.12132 -2.12132 
C -2.683901 -1.55874 -3 -0.795609 -3 0 
C -3 0.795609 -2.683901 1.55874 -2.12132 2.12132 
C -1.55874 2.683901 -0.795609 3 0 3 
z
"/>
    </defs>
    <g clip-path="url(#pf4ea56a53d)">
     <use xlink:href="#C4_0_18bbbaf590" x="67.936424" y="58.620564" style="fill-opacity: 0.25"/>
    </g>
    <g clip-path="url(#pf4ea56a53d)">
     <use xlink:href="#C4_0_18bbbaf590" x="67.936424" y="53.450165" style="fill-opacity: 0.25"/>
    </g>
    <g clip-path="url(#pf4ea56a53d)">
     <use xlink:href="#C4_0_18bbbaf590" x="67.936424" y="57.369942" style="fill-opacity: 0.25"/>
    </g>
    <g clip-path="url(#pf4ea56a53d)">
     <use xlink:href="#C4_0_18bbbaf590" x="67.936424" y="43.287959" style="fill-opacity: 0.25"/>
    </g>
    <g clip-path="url(#pf4ea56a53d)">
     <use xlink:href="#C4_0_18bbbaf590" x="67.936424" y="48.262317" style="fill-opacity: 0.25"/>
    </g>
    <g clip-path="url(#pf4ea56a53d)">
     <use xlink:href="#C4_0_18bbbaf590" x="67.936424" y="65.638338" style="fill-opacity: 0.25"/>
    </g>
   </g>
   <g id="PathCollection_6">
    <defs>
     <path id="C5_0_ea596d5f22" d="M 0 3 
C 0.795609 3 1.55874 2.683901 2.12132 2.12132 
C 2.683901 1.55874 3 0.795609 3 -0 
C 3 -0.795609 2.683901 -1.55874 2.12132 -2.12132 
C 1.55874 -2.683901 0.795609 -3 0 -3 
C -0.795609 -3 -1.55874 -2.683901 -2.12132 -2.12132 
C -2.683901 -1.55874 -3 -0.795609 -3 0 
C -3 0.795609 -2.683901 1.55874 -2.12132 2.12132 
C -1.55874 2.683901 -0.795609 3 0 3 
z
"/>
    </defs>
    <g clip-path="url(#pf4ea56a53d)">
     <use xlink:href="#C5_0_ea596d5f22" x="79.171576" y="55.753039" style="fill-opacity: 0.25"/>
    </g>
    <g clip-path="url(#pf4ea56a53d)">
     <use xlink:href="#C5_0_ea596d5f22" x="79.171576" y="52.277872" style="fill-opacity: 0.25"/>
    </g>
    <g clip-path="url(#pf4ea56a53d)">
     <use xlink:href="#C5_0_ea596d5f22" x="79.171576" y="50.58895" style="fill-opacity: 0.25"/>
    </g>
    <g clip-path="url(#pf4ea56a53d)">
     <use xlink:href="#C5_0_ea596d5f22" x="79.171576" y="44.346738" style="fill-opacity: 0.25"/>
    </g>
    <g clip-path="url(#pf4ea56a53d)">
     <use xlink:href="#C5_0_ea596d5f22" x="79.171576" y="68.509681" style="fill-opacity: 0.25"/>
    </g>
   </g>
   <g id="PathCollection_7">
    <defs>
     <path id="C6_0_9d80412848" d="M 0 3 
C 0.795609 3 1.55874 2.683901 2.12132 2.12132 
C 2.683901 1.55874 3 0.795609 3 -0 
C 3 -0.795609 2.683901 -1.55874 2.12132 -2.12132 
C 1.55874 -2.683901 0.795609 -3 0 -3 
C -0.795609 -3 -1.55874 -2.683901 -2.12132 -2.12132 
C -2.683901 -1.55874 -3 -0.795609 -3 0 
C -3 0.795609 -2.683901 1.55874 -2.12132 2.12132 
C -1.55874 2.683901 -0.795609 3 0 3 
z
"/>
    </defs>
    <g clip-path="url(#pf4ea56a53d)">
     <use xlink:href="#C6_0_9d80412848" x="90.406727" y="44.827935" style="fill-opacity: 0.25"/>
    </g>
    <g clip-path="url(#pf4ea56a53d)">
     <use xlink:href="#C6_0_9d80412848" x="90.406727" y="23.555101" style="fill-opacity: 0.25"/>
    </g>
    <g clip-path="url(#pf4ea56a53d)">
     <use xlink:href="#C6_0_9d80412848" x="90.406727" y="33.630721" style="fill-opacity: 0.25"/>
    </g>
    <g clip-path="url(#pf4ea56a53d)">
     <use xlink:href="#C6_0_9d80412848" x="90.406727" y="64.086312" style="fill-opacity: 0.25"/>
    </g>
   </g>
   <g id="PathCollection_8">
    <defs>
     <path id="C7_0_82e380afb2" d="M 0 3 
C 0.795609 3 1.55874 2.683901 2.12132 2.12132 
C 2.683901 1.55874 3 0.795609 3 -0 
C 3 -0.795609 2.683901 -1.55874 2.12132 -2.12132 
C 1.55874 -2.683901 0.795609 -3 0 -3 
C -0.795609 -3 -1.55874 -2.683901 -2.12132 -2.12132 
C -2.683901 -1.55874 -3 -0.795609 -3 0 
C -3 0.795609 -2.683901 1.55874 -2.12132 2.12132 
C -1.55874 2.683901 -0.795609 3 0 3 
z
"/>
    </defs>
    <g clip-path="url(#pf4ea56a53d)">
     <use xlink:href="#C7_0_82e380afb2" x="101.641879" y="29.559427" style="fill-opacity: 0.25"/>
    </g>
    <g clip-path="url(#pf4ea56a53d)">
     <use xlink:href="#C7_0_82e380afb2" x="101.641879" y="44.820578" style="fill-opacity: 0.25"/>
    </g>
    <g clip-path="url(#pf4ea56a53d)">
     <use xlink:href="#C7_0_82e380afb2" x="101.641879" y="60.187392" style="fill-opacity: 0.25"/>
    </g>
   </g>
   <g id="PathCollection_9">
    <defs>
     <path id="C8_0_6270b7cc3a" d="M 0 3 
C 0.795609 3 1.55874 2.683901 2.12132 2.12132 
C 2.683901 1.55874 3 0.795609 3 -0 
C 3 -0.795609 2.683901 -1.55874 2.12132 -2.12132 
C 1.55874 -2.683901 0.795609 -3 0 -3 
C -0.795609 -3 -1.55874 -2.683901 -2.12132 -2.12132 
C -2.683901 -1.55874 -3 -0.795609 -3 0 
C -3 0.795609 -2.683901 1.55874 -2.12132 2.12132 
C -1.55874 2.683901 -0.795609 3 0 3 
z
"/>
    </defs>
    <g clip-path="url(#pf4ea56a53d)">
     <use xlink:href="#C8_0_6270b7cc3a" x="112.87703" y="29.679635" style="fill-opacity: 0.25"/>
    </g>
    <g clip-path="url(#pf4ea56a53d)">
     <use xlink:href="#C8_0_6270b7cc3a" x="112.87703" y="59.202398" style="fill-opacity: 0.25"/>
    </g>
   </g>
   <g id="PathCollection_10">
    <path d="M 124.112182 53.780696 
C 124.907791 53.780696 125.670921 53.464597 126.233502 52.902016 
C 126.796083 52.339435 127.112182 51.576305 127.112182 50.780696 
C 127.112182 49.985086 126.796083 49.221956 126.233502 48.659375 
C 125.670921 48.096795 124.907791 47.780696 124.112182 47.780696 
C 123.316573 47.780696 122.553442 48.096795 121.990861 48.659375 
C 121.428281 49.221956 121.112182 49.985086 121.112182 50.780696 
C 121.112182 51.576305 121.428281 52.339435 121.990861 52.902016 
C 122.553442 53.464597 123.316573 53.780696 124.112182 53.780696 
z
" clip-path="url(#pf4ea56a53d)" style="fill-opacity: 0.25"/>
   </g>
   <g id="matplotlib.axis_1">
    <g id="xtick_1">
     <g id="line2d_1">
      <defs>
       <path id="m55f6ec609c" d="M 0 0 
L 0 3.5 
" style="stroke: #000000; stroke-width: 0.8"/>
      </defs>
      <g>
       <use xlink:href="#m55f6ec609c" x="22.995818" y="130.0824" style="stroke: #000000; stroke-width: 0.8"/>
      </g>
     </g>
    </g>
    <g id="xtick_2">
     <g id="line2d_2">
      <g>
       <use xlink:href="#m55f6ec609c" x="34.23097" y="130.0824" style="stroke: #000000; stroke-width: 0.8"/>
      </g>
     </g>
    </g>
    <g id="xtick_3">
     <g id="line2d_3">
      <g>
       <use xlink:href="#m55f6ec609c" x="45.466121" y="130.0824" style="stroke: #000000; stroke-width: 0.8"/>
      </g>
     </g>
    </g>
    <g id="xtick_4">
     <g id="line2d_4">
      <g>
       <use xlink:href="#m55f6ec609c" x="56.701273" y="130.0824" style="stroke: #000000; stroke-width: 0.8"/>
      </g>
     </g>
    </g>
    <g id="xtick_5">
     <g id="line2d_5">
      <g>
       <use xlink:href="#m55f6ec609c" x="67.936424" y="130.0824" style="stroke: #000000; stroke-width: 0.8"/>
      </g>
     </g>
    </g>
    <g id="xtick_6">
     <g id="line2d_6">
      <g>
       <use xlink:href="#m55f6ec609c" x="79.171576" y="130.0824" style="stroke: #000000; stroke-width: 0.8"/>
      </g>
     </g>
    </g>
    <g id="xtick_7">
     <g id="line2d_7">
      <g>
       <use xlink:href="#m55f6ec609c" x="90.406727" y="130.0824" style="stroke: #000000; stroke-width: 0.8"/>
      </g>
     </g>
    </g>
    <g id="xtick_8">
     <g id="line2d_8">
      <g>
       <use xlink:href="#m55f6ec609c" x="101.641879" y="130.0824" style="stroke: #000000; stroke-width: 0.8"/>
      </g>
     </g>
    </g>
    <g id="xtick_9">
     <g id="line2d_9">
      <g>
       <use xlink:href="#m55f6ec609c" x="112.87703" y="130.0824" style="stroke: #000000; stroke-width: 0.8"/>
      </g>
     </g>
    </g>
    <g id="xtick_10">
     <g id="line2d_10">
      <g>
       <use xlink:href="#m55f6ec609c" x="124.112182" y="130.0824" style="stroke: #000000; stroke-width: 0.8"/>
      </g>
     </g>
    </g>
   </g>
   <g id="matplotlib.axis_2">
    <g id="ytick_1">
     <g id="line2d_11">
      <defs>
       <path id="mca0995b73b" d="M 0 0 
L -3.5 0 
" style="stroke: #000000; stroke-width: 0.8"/>
      </defs>
      <g>
       <use xlink:href="#mca0995b73b" x="17.94" y="130.0824" style="stroke: #000000; stroke-width: 0.8"/>
      </g>
     </g>
    </g>
    <g id="ytick_2">
     <g id="line2d_12">
      <g>
       <use xlink:href="#mca0995b73b" x="17.94" y="116.0145" style="stroke: #000000; stroke-width: 0.8"/>
      </g>
     </g>
    </g>
    <g id="ytick_3">
     <g id="line2d_13">
      <g>
       <use xlink:href="#mca0995b73b" x="17.94" y="101.9466" style="stroke: #000000; stroke-width: 0.8"/>
      </g>
     </g>
    </g>
    <g id="ytick_4">
     <g id="line2d_14">
      <g>
       <use xlink:href="#mca0995b73b" x="17.94" y="87.8787" style="stroke: #000000; stroke-width: 0.8"/>
      </g>
     </g>
    </g>
    <g id="ytick_5">
     <g id="line2d_15">
      <g>
       <use xlink:href="#mca0995b73b" x="17.94" y="73.8108" style="stroke: #000000; stroke-width: 0.8"/>
      </g>
     </g>
    </g>
    <g id="ytick_6">
     <g id="line2d_16">
      <g>
       <use xlink:href="#mca0995b73b" x="17.94" y="59.7429" style="stroke: #000000; stroke-width: 0.8"/>
      </g>
     </g>
    </g>
    <g id="ytick_7">
     <g id="line2d_17">
      <g>
       <use xlink:href="#mca0995b73b" x="17.94" y="45.675" style="stroke: #000000; stroke-width: 0.8"/>
      </g>
     </g>
    </g>
    <g id="ytick_8">
     <g id="line2d_18">
      <g>
       <use xlink:href="#mca0995b73b" x="17.94" y="31.6071" style="stroke: #000000; stroke-width: 0.8"/>
      </g>
     </g>
    </g>
    <g id="ytick_9">
     <g id="line2d_19">
      <g>
       <use xlink:href="#mca0995b73b" x="17.94" y="17.5392" style="stroke: #000000; stroke-width: 0.8"/>
      </g>
     </g>
    </g>
   </g>
   <g id="line2d_20">
    <defs>
     <path id="m6c34c180bc" d="M -0 2.5 
L 2.5 -2.5 
L -2.5 -2.5 
z
" style="stroke: #bf00bf; stroke-linejoin: miter"/>
    </defs>
    <g clip-path="url(#pf4ea56a53d)">
     <use xlink:href="#m6c34c180bc" x="22.995818" y="88.28903" style="fill: #bf00bf; stroke: #bf00bf; stroke-linejoin: miter"/>
    </g>
   </g>
   <g id="line2d_21">
    <g clip-path="url(#pf4ea56a53d)">
     <use xlink:href="#m6c34c180bc" x="34.23097" y="75.891061" style="fill: #bf00bf; stroke: #bf00bf; stroke-linejoin: miter"/>
    </g>
   </g>
   <g id="line2d_22">
    <g clip-path="url(#pf4ea56a53d)">
     <use xlink:href="#m6c34c180bc" x="45.466121" y="71.63783" style="fill: #bf00bf; stroke: #bf00bf; stroke-linejoin: miter"/>
    </g>
   </g>
   <g id="line2d_23">
    <g clip-path="url(#pf4ea56a53d)">
     <use xlink:href="#m6c34c180bc" x="56.701273" y="64.332326" style="fill: #bf00bf; stroke: #bf00bf; stroke-linejoin: miter"/>
    </g>
   </g>
   <g id="line2d_24">
    <g clip-path="url(#pf4ea56a53d)">
     <use xlink:href="#m6c34c180bc" x="67.936424" y="55.410054" style="fill: #bf00bf; stroke: #bf00bf; stroke-linejoin: miter"/>
    </g>
   </g>
   <g id="line2d_25">
    <g clip-path="url(#pf4ea56a53d)">
     <use xlink:href="#m6c34c180bc" x="79.171576" y="52.277872" style="fill: #bf00bf; stroke: #bf00bf; stroke-linejoin: miter"/>
    </g>
   </g>
   <g id="line2d_26">
    <g clip-path="url(#pf4ea56a53d)">
     <use xlink:href="#m6c34c180bc" x="90.406727" y="39.229328" style="fill: #bf00bf; stroke: #bf00bf; stroke-linejoin: miter"/>
    </g>
   </g>
   <g id="line2d_27">
    <g clip-path="url(#pf4ea56a53d)">
     <use xlink:href="#m6c34c180bc" x="101.641879" y="44.820578" style="fill: #bf00bf; stroke: #bf00bf; stroke-linejoin: miter"/>
    </g>
   </g>
   <g id="line2d_28">
    <g clip-path="url(#pf4ea56a53d)">
     <use xlink:href="#m6c34c180bc" x="112.87703" y="44.441016" style="fill: #bf00bf; stroke: #bf00bf; stroke-linejoin: miter"/>
    </g>
   </g>
   <g id="line2d_29">
    <g clip-path="url(#pf4ea56a53d)">
     <use xlink:href="#m6c34c180bc" x="124.112182" y="50.780696" style="fill: #bf00bf; stroke: #bf00bf; stroke-linejoin: miter"/>
    </g>
   </g>
   <g id="line2d_30">
    <path d="M 22.995818 79.717872 
L 34.23097 75.049674 
L 45.466121 70.381475 
L 56.701273 65.713277 
L 67.936424 61.045078 
L 79.171576 56.37688 
L 90.406727 51.708681 
L 101.641879 47.040483 
L 112.87703 42.372284 
L 124.112182 37.704086 
" clip-path="url(#pf4ea56a53d)" style="fill: none; stroke: #bf00bf; stroke-width: 1.5; stroke-linecap: square"/>
   </g>
   <g id="patch_3">
    <path d="M 17.94 130.0824 
L 17.94 17.5392 
" style="fill: none; stroke: #000000; stroke-width: 0.8; stroke-linejoin: miter; stroke-linecap: square"/>
   </g>
   <g id="patch_4">
    <path d="M 129.168 130.0824 
L 129.168 17.5392 
" style="fill: none; stroke: #000000; stroke-width: 0.8; stroke-linejoin: miter; stroke-linecap: square"/>
   </g>
   <g id="patch_5">
    <path d="M 17.94 130.0824 
L 129.168 130.0824 
" style="fill: none; stroke: #000000; stroke-width: 0.8; stroke-linejoin: miter; stroke-linecap: square"/>
   </g>
   <g id="patch_6">
    <path d="M 17.94 17.5392 
L 129.168 17.5392 
" style="fill: none; stroke: #000000; stroke-width: 0.8; stroke-linejoin: miter; stroke-linecap: square"/>
   </g>
  </g>
 </g>
 <defs>
  <clipPath id="pf4ea56a53d">
   <rect x="17.94" y="17.5392" width="111.228" height="112.5432"/>
  </clipPath>
 </defs>
</svg>
