<?xml version="1.0" encoding="utf-8"?>
<!-- Generator: Adobe Illustrator 26.4.1, SVG Export Plug-In . SVG Version: 6.00 Build 0)  -->
<svg version="1.1" id="Layer_1" xmlns="http://www.w3.org/2000/svg" xmlns:xlink="http://www.w3.org/1999/xlink" x="0px" y="0px"
	 viewBox="0 0 168.5 133.4" style="enable-background:new 0 0 168.5 133.4;" xml:space="preserve">
<style type="text/css">
	.st0{fill:#FFFFFF;}
	.st1{stroke:#000000;stroke-width:0.8;stroke-linejoin:round;}
	
		.st2{clip-path:url(#SVGID_00000046331184270409629580000008621269758675074747_);fill:none;stroke:#000000;stroke-linecap:square;stroke-linejoin:round;}
	
		.st3{clip-path:url(#SVGID_00000156578277246655796460000018386914768294913442_);fill:none;stroke:#000000;stroke-linecap:square;stroke-linejoin:round;}
	
		.st4{clip-path:url(#SVGID_00000090989459463531287260000014279584006109301949_);fill:none;stroke:#000000;stroke-linecap:square;stroke-linejoin:round;}
	
		.st5{clip-path:url(#SVGID_00000028287252728179155240000005596447293126499724_);fill:none;stroke:#000000;stroke-linecap:square;stroke-linejoin:round;}
	
		.st6{clip-path:url(#SVGID_00000108996810741587048280000004343773628182737323_);fill:none;stroke:#000000;stroke-linecap:square;stroke-linejoin:round;}
	
		.st7{clip-path:url(#SVGID_00000112594173184340768530000004345053914737081501_);fill:none;stroke:#000000;stroke-linecap:square;stroke-linejoin:round;}
	
		.st8{clip-path:url(#SVGID_00000164490199158283707050000013142089471942918307_);fill:none;stroke:#000000;stroke-linecap:square;stroke-linejoin:round;}
	
		.st9{clip-path:url(#SVGID_00000091719051438205548530000010773887900745848736_);fill:none;stroke:#000000;stroke-linecap:square;stroke-linejoin:round;}
	
		.st10{clip-path:url(#SVGID_00000003095962083723443850000014957690317381413816_);fill:none;stroke:#000000;stroke-linecap:square;stroke-linejoin:round;}
	
		.st11{clip-path:url(#SVGID_00000020379403060662397260000009100160021933366457_);fill:none;stroke:#000000;stroke-linecap:square;stroke-linejoin:round;}
	
		.st12{clip-path:url(#SVGID_00000079468766354951245200000013398747400314759344_);fill:none;stroke:#000000;stroke-linecap:square;stroke-linejoin:round;}
	
		.st13{clip-path:url(#SVGID_00000027593776390127355090000003421457430878730629_);fill:none;stroke:#000000;stroke-linecap:square;stroke-linejoin:round;}
	
		.st14{clip-path:url(#SVGID_00000057121711859784057140000004575564978412016532_);fill:none;stroke:#000000;stroke-linecap:square;stroke-linejoin:round;}
	
		.st15{clip-path:url(#SVGID_00000033327923323908113320000012224891006980875708_);fill:none;stroke:#000000;stroke-linecap:square;stroke-linejoin:round;}
	
		.st16{clip-path:url(#SVGID_00000181045237819501495380000002438765766481319056_);fill:none;stroke:#000000;stroke-linecap:square;stroke-linejoin:round;}
	
		.st17{clip-path:url(#SVGID_00000051351865576502318470000012064765583530139300_);fill:none;stroke:#FF7F0E;stroke-linecap:square;stroke-linejoin:round;}
	
		.st18{clip-path:url(#SVGID_00000176027505482985089750000014895968302688653752_);fill:none;stroke:#FF7F0E;stroke-linecap:square;stroke-linejoin:round;}
	
		.st19{clip-path:url(#SVGID_00000016770826344736318520000009446366296906040718_);fill:none;stroke:#FF7F0E;stroke-linecap:square;stroke-linejoin:round;}
	.st20{fill:none;stroke:#000000;stroke-width:0.8;stroke-linecap:square;}
</style>
<g id="figure_1">
	<g id="axes_1">
		<g id="patch_2">
			<path class="st0" d="M21.1,118.8h130.6V16H21.1V118.8z"/>
		</g>
		<g id="matplotlib.axis_1">
			<g id="xtick_1">
				<g id="line2d_1">
					<g>
						<g>
							<path id="m3901df16fe" class="st1" d="M42.8,118.8v3.5"/>
						</g>
					</g>
				</g>
				<g id="text_1">
					<g transform="translate(30.481688 130.056287)scale(0.06 -0.06)">
						<g>
							<path id="ArialMT-49" d="M9.3,0v71.6h9.5V0H9.3z"/>
						</g>
						<g>
							<path id="ArialMT-6d" d="M34.4,0v51.9h7.9v-7.3c1.6,2.5,3.8,4.6,6.5,6.1c2.7,1.6,5.8,2.3,9.2,2.3c3.8,0,7-0.8,9.5-2.4
								c2.5-1.6,4.2-3.8,5.2-6.7c4.1,6.1,9.4,9.1,16,9.1c5.1,0,9.1-1.4,11.9-4.3c2.8-2.8,4.2-7.2,4.2-13.2V0h-8.8v32.7
								c0,3.5-0.3,6-0.9,7.6c-0.6,1.6-1.6,2.8-3.1,3.7c-1.5,0.9-3.2,1.4-5.3,1.4c-3.6,0-6.7-1.2-9.1-3.6c-2.4-2.4-3.6-6.3-3.6-11.6
								V0h-8.8v33.7c0,3.9-0.7,6.8-2.2,8.8c-1.4,2-3.8,2.9-7,2.9c-2.5,0-4.8-0.7-6.9-2c-2.1-1.3-3.6-3.2-4.6-5.7
								c-0.9-2.5-1.4-6.1-1.4-10.8V0H34.4z"/>
						</g>
						<g>
							<path id="ArialMT-61" d="M151.5,6.4c-3.3-2.8-6.4-4.7-9.4-5.9c-3-1.1-6.2-1.7-9.7-1.7c-5.7,0-10.1,1.4-13.1,4.2
								s-4.6,6.3-4.6,10.7c0,2.5,0.6,4.9,1.7,7c1.2,2.1,2.7,3.8,4.5,5.1s4,2.2,6.3,2.9c1.7,0.5,4.3,0.9,7.8,1.3
								c7.1,0.8,12.3,1.8,15.7,3c0,1.2,0,2,0,2.3c0,3.6-0.8,6.1-2.5,7.6c-2.2,2-5.6,3-10,3c-4.1,0-7.2-0.7-9.2-2.2
								c-2-1.4-3.4-4-4.4-7.7l-8.6,1.2c0.8,3.7,2.1,6.6,3.9,8.9c1.8,2.3,4.4,4,7.8,5.2c3.4,1.2,7.3,1.8,11.8,1.8
								c4.4,0,8-0.5,10.8-1.6c2.8-1,4.8-2.4,6.1-3.9c1.3-1.6,2.2-3.6,2.7-6c0.3-1.5,0.4-4.2,0.4-8.1V21.7c0-8.2,0.2-13.3,0.6-15.5
								c0.4-2.2,1.1-4.2,2.2-6.2h-9.2C152.4,1.8,151.8,4,151.5,6.4z M150.8,26c-3.2-1.3-8-2.4-14.4-3.3c-3.6-0.5-6.2-1.1-7.7-1.8
								c-1.5-0.6-2.6-1.6-3.5-2.8c-0.8-1.2-1.2-2.6-1.2-4.2c0-2.3,0.9-4.3,2.7-5.9c1.8-1.6,4.4-2.3,7.8-2.3c3.4,0,6.4,0.7,9,2.2
								c2.6,1.5,4.6,3.5,5.8,6.1c0.9,2,1.4,4.9,1.4,8.8V26z"/>
						</g>
						<g>
							<path id="ArialMT-67" d="M171.7-4.3l8.5-1.3c0.4-2.6,1.3-4.6,3-5.8c2.2-1.6,5.2-2.4,8.9-2.4c4.1,0,7.2,0.8,9.4,2.4
								c2.2,1.6,3.7,3.9,4.5,6.8c0.5,1.8,0.7,5.6,0.6,11.3c-3.8-4.5-8.6-6.8-14.3-6.8c-7.1,0-12.7,2.6-16.6,7.7s-5.9,11.3-5.9,18.5
								c0,4.9,0.9,9.5,2.7,13.7c1.8,4.2,4.4,7.4,7.8,9.7c3.4,2.3,7.4,3.4,12,3.4c6.1,0,11.2-2.5,15.1-7.4v6.2h8.1V7
								c0-8.1-0.8-13.8-2.5-17.2c-1.6-3.4-4.2-6-7.8-8c-3.6-2-7.9-2.9-13.2-2.9c-6.2,0-11.2,1.4-15,4.2S171.5-9.9,171.7-4.3z
								 M178.9,26.9c0-6.8,1.3-11.8,4-14.9c2.7-3.1,6.1-4.7,10.2-4.7c4,0,7.4,1.6,10.1,4.7c2.7,3.1,4.1,8,4.1,14.6
								c0,6.3-1.4,11.1-4.2,14.3c-2.8,3.2-6.2,4.8-10.2,4.8c-3.9,0-7.2-1.6-10-4.8C180.3,37.8,178.9,33.1,178.9,26.9z"/>
						</g>
						<g>
							<path id="ArialMT-69" d="M229,61.5v10.1h8.8V61.5H229z M229,0v51.9h8.8V0H229z"/>
						</g>
						<g>
							<path id="ArialMT-6e" d="M251.1,0v51.9h7.9v-7.4c3.8,5.7,9.3,8.5,16.5,8.5c3.1,0,6-0.6,8.6-1.7s4.6-2.6,5.9-4.4
								c1.3-1.8,2.2-4,2.7-6.5c0.3-1.6,0.5-4.5,0.5-8.5V0h-8.8v31.5c0,3.6-0.3,6.3-1,8c-0.7,1.8-1.9,3.2-3.6,4.2
								c-1.7,1.1-3.8,1.6-6.1,1.6c-3.8,0-7-1.2-9.7-3.6s-4.1-6.9-4.1-13.5V0H251.1z"/>
						</g>
						<g>
							<path id="ArialMT-65" d="M342.2,16.7l9.1-1.1c-1.4-5.3-4.1-9.4-8-12.4c-3.9-2.9-8.8-4.4-14.8-4.4c-7.6,0-13.6,2.3-18,7
								c-4.4,4.7-6.7,11.2-6.7,19.7c0,8.7,2.2,15.5,6.7,20.3C315,50.6,320.9,53,328,53c6.9,0,12.6-2.4,17-7.1
								c4.4-4.7,6.6-11.4,6.6-19.9c0-0.5,0-1.3,0-2.3h-38.7c0.3-5.7,1.9-10.1,4.8-13.1c2.9-3,6.5-4.5,10.8-4.5c3.2,0,6,0.8,8.2,2.5
								C339.1,10.3,340.9,13,342.2,16.7z M313.4,30.9h29c-0.4,4.4-1.5,7.6-3.3,9.8c-2.8,3.4-6.4,5.1-10.9,5.1c-4,0-7.4-1.3-10.2-4
								S313.7,35.4,313.4,30.9z"/>
						</g>
						<g>
							<path id="ArialMT-64" d="M396,0v6.5c-3.3-5.1-8.1-7.7-14.5-7.7c-4.1,0-7.9,1.1-11.4,3.4s-6.2,5.5-8.1,9.5
								c-1.9,4.1-2.8,8.8-2.8,14.1c0,5.2,0.9,9.9,2.6,14.1c1.7,4.2,4.3,7.4,7.8,9.7c3.5,2.2,7.3,3.4,11.6,3.4c3.1,0,5.9-0.7,8.3-2
								c2.4-1.3,4.4-3,6-5.1v25.7h8.7V0H396z M368.2,25.9c0-6.6,1.4-11.6,4.2-14.9c2.8-3.3,6.1-4.9,9.9-4.9c3.8,0,7.1,1.6,9.8,4.7
								c2.7,3.1,4,7.9,4,14.4c0,7.1-1.4,12.3-4.1,15.6c-2.7,3.3-6.1,5-10.1,5c-3.9,0-7.2-1.6-9.8-4.8
								C369.5,37.8,368.2,32.8,368.2,25.9z"/>
						</g>
					</g>
				</g>
			</g>
			<g id="xtick_2">
				<g id="line2d_2">
					<g>
						<g>
							<path id="m3901df16fe_00000119822502842301249310000013088475444569161372_" class="st1" d="M86.3,118.8v3.5"/>
						</g>
					</g>
				</g>
				<g id="text_2">
					<g transform="translate(77.674594 130.056287)scale(0.06 -0.06)">
						<g>
							<path id="ArialMT-4f" d="M4.8,34.9C4.8,46.7,8,56,14.4,62.8c6.4,6.7,14.6,10.1,24.7,10.1c6.6,0,12.6-1.6,17.9-4.8
								c5.3-3.2,9.3-7.6,12.1-13.2c2.8-5.6,4.2-12.1,4.2-19.2c0-7.2-1.5-13.7-4.4-19.5c-2.9-5.7-7.1-10.1-12.5-13
								c-5.4-2.9-11.2-4.4-17.4-4.4c-6.7,0-12.8,1.6-18.1,4.9C15.7,6.9,11.7,11.4,8.9,17C6.2,22.6,4.8,28.6,4.8,34.9z M14.6,34.7
								c0-8.6,2.3-15.4,7-20.4C26.2,9.4,32,6.9,39,6.9c7.1,0,13,2.5,17.6,7.5c4.6,5,6.9,12.1,6.9,21.3c0,5.8-1,10.9-3,15.2
								s-4.9,7.7-8.7,10.1c-3.8,2.4-8,3.6-12.8,3.6c-6.7,0-12.5-2.3-17.3-6.9C17,53.2,14.6,45.5,14.6,34.7z"/>
						</g>
						<g>
							<path id="ArialMT-6e_00000148656333529517395470000003961065974897023893_" d="M84.4,0v51.9h7.9v-7.4
								c3.8,5.7,9.3,8.5,16.5,8.5c3.1,0,6-0.6,8.6-1.7s4.6-2.6,5.9-4.4c1.3-1.8,2.2-4,2.7-6.5c0.3-1.6,0.5-4.5,0.5-8.5V0h-8.8v31.5
								c0,3.6-0.3,6.3-1,8c-0.7,1.8-1.9,3.2-3.6,4.2c-1.7,1.1-3.8,1.6-6.1,1.6c-3.8,0-7-1.2-9.7-3.6s-4.1-6.9-4.1-13.5V0H84.4z"/>
						</g>
						<g>
							<path id="ArialMT-6c" d="M139.8,0v71.6h8.8V0H139.8z"/>
						</g>
						<g>
							<path id="ArialMT-69_00000009572511810022939870000000538751108160750982_" d="M162.3,61.5v10.1h8.8V61.5H162.3z M162.3,0
								v51.9h8.8V0H162.3z"/>
						</g>
						<g>
							<path id="ArialMT-6e_00000020400524132811858860000015249714200693878668_" d="M184.4,0v51.9h7.9v-7.4
								c3.8,5.7,9.3,8.5,16.5,8.5c3.1,0,6-0.6,8.6-1.7s4.6-2.6,5.9-4.4c1.3-1.8,2.2-4,2.7-6.5c0.3-1.6,0.5-4.5,0.5-8.5V0h-8.8v31.5
								c0,3.6-0.3,6.3-1,8c-0.7,1.8-1.9,3.2-3.6,4.2c-1.7,1.1-3.8,1.6-6.1,1.6c-3.8,0-7-1.2-9.7-3.6s-4.1-6.9-4.1-13.5V0H184.4z"/>
						</g>
						<g>
							<path id="ArialMT-65_00000124120305289969841470000007468543020293479821_" d="M275.5,16.7l9.1-1.1c-1.4-5.3-4.1-9.4-8-12.4
								c-3.9-2.9-8.8-4.4-14.8-4.4c-7.6,0-13.6,2.3-18,7c-4.4,4.7-6.7,11.2-6.7,19.7c0,8.7,2.2,15.5,6.7,20.3
								c4.5,4.8,10.3,7.2,17.5,7.2c6.9,0,12.6-2.4,17-7.1c4.4-4.7,6.6-11.4,6.6-19.9c0-0.5,0-1.3,0-2.3h-38.7
								c0.3-5.7,1.9-10.1,4.8-13.1c2.9-3,6.5-4.5,10.8-4.5c3.2,0,6,0.8,8.2,2.5C272.4,10.3,274.2,13,275.5,16.7z M246.7,30.9h29
								c-0.4,4.4-1.5,7.6-3.3,9.8c-2.8,3.4-6.4,5.1-10.9,5.1c-4,0-7.4-1.3-10.2-4S247,35.4,246.7,30.9z"/>
						</g>
					</g>
				</g>
			</g>
			<g id="xtick_3">
				<g id="line2d_3">
					<g>
						<g>
							<path id="m3901df16fe_00000133492663813764752540000002574194577227375493_" class="st1" d="M129.9,118.8v3.5"/>
						</g>
					</g>
				</g>
				<g id="text_3">
					<g transform="translate(122.198906 130.056287)scale(0.06 -0.06)">
						<g>
							<path id="ArialMT-42" d="M7.3,0v71.6h26.9c5.5,0,9.9-0.7,13.2-2.2c3.3-1.4,5.9-3.7,7.8-6.7c1.9-3,2.8-6.2,2.8-9.5
								c0-3.1-0.8-5.9-2.5-8.6c-1.7-2.7-4.2-4.9-7.5-6.5c4.3-1.3,7.6-3.4,10-6.5c2.3-3.1,3.5-6.7,3.5-10.8c0-3.4-0.7-6.5-2.1-9.4
								c-1.4-2.9-3.2-5.1-5.2-6.7S49.3,2,46.2,1.2C43,0.4,39.2,0,34.6,0H7.3z M16.8,41.5h15.5c4.2,0,7.2,0.3,9,0.8
								c2.4,0.7,4.2,1.9,5.4,3.6c1.2,1.7,1.8,3.8,1.8,6.3c0,2.4-0.6,4.5-1.7,6.3c-1.1,1.8-2.8,3.1-4.9,3.7c-2.1,0.7-5.7,1-10.9,1
								H16.8V41.5z M16.8,8.5h17.8c3.1,0,5.2,0.1,6.4,0.3c2.2,0.4,4,1,5.5,1.9c1.5,0.9,2.7,2.2,3.6,4c0.9,1.7,1.4,3.8,1.4,6
								c0,2.7-0.7,5-2,7c-1.4,2-3.3,3.4-5.7,4.2c-2.4,0.8-5.9,1.2-10.5,1.2H16.8V8.5z"/>
						</g>
						<g>
							<path id="ArialMT-61_00000051350138330218958250000008726987641687574938_" d="M107.1,6.4c-3.3-2.8-6.4-4.7-9.4-5.9
								c-3-1.1-6.2-1.7-9.7-1.7C82.3-1.2,78,0.2,74.9,3s-4.6,6.3-4.6,10.7c0,2.5,0.6,4.9,1.7,7c1.2,2.1,2.7,3.8,4.5,5.1
								s4,2.2,6.3,2.9c1.7,0.5,4.3,0.9,7.8,1.3c7.1,0.8,12.3,1.8,15.7,3c0,1.2,0,2,0,2.3c0,3.6-0.8,6.1-2.5,7.6c-2.2,2-5.6,3-10,3
								c-4.1,0-7.2-0.7-9.2-2.2s-3.4-4-4.4-7.7l-8.6,1.2c0.8,3.7,2.1,6.6,3.9,8.9c1.8,2.3,4.4,4,7.8,5.2c3.4,1.2,7.3,1.8,11.8,1.8
								c4.4,0,8-0.5,10.8-1.6c2.8-1,4.8-2.4,6.1-3.9c1.3-1.6,2.2-3.6,2.7-6c0.3-1.5,0.4-4.2,0.4-8.1V21.7c0-8.2,0.2-13.3,0.6-15.5
								c0.4-2.2,1.1-4.2,2.2-6.2h-9.2C108,1.8,107.4,4,107.1,6.4z M106.4,26c-3.2-1.3-8-2.4-14.4-3.3c-3.6-0.5-6.2-1.1-7.7-1.8
								c-1.5-0.6-2.6-1.6-3.5-2.8c-0.8-1.2-1.2-2.6-1.2-4.2c0-2.3,0.9-4.3,2.7-5.9c1.8-1.6,4.4-2.3,7.8-2.3c3.4,0,6.4,0.7,9,2.2
								c2.6,1.5,4.6,3.5,5.8,6.1c0.9,2,1.4,4.9,1.4,8.8V26z"/>
						</g>
						<g>
							<path id="ArialMT-74" d="M148.1,7.9l1.3-7.8c-2.5-0.5-4.7-0.8-6.6-0.8c-3.2,0-5.7,0.5-7.4,1.5c-1.8,1-3,2.3-3.7,4
								s-1.1,5.1-1.1,10.4V45h-6.4v6.8h6.4v12.8l8.7,5.3V51.9h8.8V45h-8.8V14.7c0-2.5,0.2-4.1,0.5-4.8c0.3-0.7,0.8-1.3,1.5-1.7
								c0.7-0.4,1.7-0.6,3-0.6C145.2,7.5,146.5,7.6,148.1,7.9z"/>
						</g>
						<g>
							<path id="ArialMT-63" d="M190.5,19l8.6-1.1c-0.9-6-3.4-10.6-7.3-14c-3.9-3.4-8.7-5-14.3-5c-7.1,0-12.8,2.3-17.1,7
								c-4.3,4.6-6.5,11.3-6.5,20c0,5.6,0.9,10.5,2.8,14.7c1.9,4.2,4.7,7.4,8.5,9.5c3.8,2.1,7.9,3.2,12.4,3.2
								c5.6,0,10.2-1.4,13.8-4.3c3.6-2.8,5.9-6.9,6.9-12.1l-8.5-1.3c-0.8,3.5-2.3,6.1-4.3,7.9c-2.1,1.8-4.6,2.6-7.5,2.6
								c-4.4,0-8-1.6-10.8-4.8c-2.8-3.2-4.1-8.2-4.1-15c0-7,1.3-12,4-15.2c2.7-3.2,6.2-4.7,10.5-4.7c3.4,0,6.3,1.1,8.6,3.2
								S189.9,14.6,190.5,19z"/>
						</g>
						<g>
							<path id="ArialMT-68" d="M206.7,0v71.6h8.8V45.9c4.1,4.8,9.3,7.1,15.5,7.1c3.8,0,7.2-0.8,10-2.3c2.8-1.5,4.9-3.6,6.1-6.3
								s1.8-6.5,1.8-11.6V0h-8.8v32.9c0,4.4-1,7.6-2.9,9.6s-4.6,3-8.1,3c-2.6,0-5.1-0.7-7.4-2c-2.3-1.3-3.9-3.2-4.9-5.5
								c-1-2.3-1.5-5.5-1.5-9.6V0H206.7z"/>
						</g>
					</g>
				</g>
			</g>
		</g>
		<g id="matplotlib.axis_2">
			<g id="ytick_1">
				<g id="line2d_4">
					<g>
						<g>
							<path id="m8ce3e9825d" class="st1" d="M21.1,109.5h-3.5"/>
						</g>
					</g>
				</g>
				<g id="text_4">
					<g transform="translate(10.723437 111.67356)scale(0.06 -0.06)">
						<g>
							<path id="ArialMT-31" d="M37.3,0h-8.8v56c-2.1-2-4.9-4-8.3-6s-6.5-3.5-9.2-4.5v8.5c4.9,2.3,9.2,5.1,12.9,8.4
								c3.7,3.3,6.3,6.5,7.8,9.6h5.7V0z"/>
						</g>
					</g>
				</g>
			</g>
			<g id="ytick_2">
				<g id="line2d_5">
					<g>
						<g>
							<path id="m8ce3e9825d_00000112614134192696770650000000109021093710864009_" class="st1" d="M21.1,89.7h-3.5"/>
						</g>
					</g>
				</g>
				<g id="text_5">
					<g transform="translate(10.723437 91.890484)scale(0.06 -0.06)">
						<g>
							<path id="ArialMT-32" d="M50.3,8.5V0H3C3,2.1,3.3,4.2,4,6.1c1.2,3.2,3.1,6.4,5.8,9.5c2.7,3.1,6.5,6.7,11.5,10.8
								c7.8,6.4,13,11.4,15.8,15.2c2.7,3.7,4.1,7.3,4.1,10.6c0,3.5-1.2,6.4-3.8,8.8c-2.5,2.4-5.7,3.6-9.7,3.6
								c-4.2,0-7.6-1.3-10.2-3.8c-2.5-2.5-3.8-6-3.9-10.5l-9,0.9c0.6,6.7,2.9,11.9,7,15.4c4,3.5,9.5,5.3,16.3,5.3
								c6.9,0,12.3-1.9,16.3-5.7c4-3.8,6-8.5,6-14.2c0-2.9-0.6-5.7-1.8-8.5c-1.2-2.8-3.1-5.7-5.8-8.7s-7.2-7.3-13.5-12.6
								c-5.3-4.4-8.7-7.4-10.2-9c-1.5-1.6-2.7-3.2-3.7-4.7H50.3z"/>
						</g>
					</g>
				</g>
			</g>
			<g id="ytick_3">
				<g id="line2d_6">
					<g>
						<g>
							<path id="m8ce3e9825d_00000055684273125718559670000007721929476386465970_" class="st1" d="M21.1,70h-3.5"/>
						</g>
					</g>
				</g>
				<g id="text_6">
					<g transform="translate(10.723437 72.107407)scale(0.06 -0.06)">
						<g>
							<path id="ArialMT-33" d="M4.2,18.9l8.8,1.2c1-5,2.7-8.6,5.2-10.8S23.5,6,27,6c4.1,0,7.6,1.4,10.5,4.3
								c2.9,2.9,4.3,6.4,4.3,10.7c0,4-1.3,7.4-4,10c-2.6,2.6-6,3.9-10.1,3.9c-1.7,0-3.7-0.3-6.2-1l1,7.7c0.6-0.1,1.1-0.1,1.4-0.1
								c3.8,0,7.1,1,10.1,2.9c3,2,4.5,5,4.5,9c0,3.2-1.1,5.9-3.3,8c-2.2,2.1-5,3.2-8.4,3.2c-3.4,0-6.3-1.1-8.5-3.2
								c-2.3-2.1-3.7-5.4-4.4-9.7l-8.8,1.6c1.1,5.9,3.5,10.4,7.3,13.7c3.8,3.2,8.6,4.9,14.2,4.9c3.9,0,7.5-0.8,10.8-2.5
								c3.3-1.7,5.8-4,7.5-6.9c1.8-2.9,2.6-6,2.6-9.2c0-3.1-0.8-5.9-2.5-8.4c-1.7-2.5-4.1-4.6-7.4-6.1c4.2-1,7.5-3,9.9-6.1
								c2.3-3.1,3.5-6.9,3.5-11.5c0-6.2-2.3-11.5-6.8-15.9C39.7,0.9,33.9-1.3,27-1.3c-6.3,0-11.5,1.9-15.7,5.6
								C7.2,8.1,4.8,12.9,4.2,18.9z"/>
						</g>
					</g>
				</g>
			</g>
			<g id="ytick_4">
				<g id="line2d_7">
					<g>
						<g>
							<path id="m8ce3e9825d_00000181778906019570844680000009877591818681377956_" class="st1" d="M21.1,50.2h-3.5"/>
						</g>
					</g>
				</g>
				<g id="text_7">
					<g transform="translate(10.723437 52.324331)scale(0.06 -0.06)">
						<g>
							<path id="ArialMT-34" d="M32.3,0v17.1H1.3v8.1l32.7,46.4h7.2V25.2h9.7v-8.1h-9.7V0H32.3z M32.3,25.2v32.3L9.9,25.2H32.3z"/>
						</g>
					</g>
				</g>
			</g>
			<g id="ytick_5">
				<g id="line2d_8">
					<g>
						<g>
							<path id="m8ce3e9825d_00000069360152913539629380000003049567044540554380_" class="st1" d="M21.1,30.4h-3.5"/>
						</g>
					</g>
				</g>
				<g id="text_8">
					<g transform="translate(10.723437 32.541255)scale(0.06 -0.06)">
						<g>
							<path id="ArialMT-35" d="M4.2,18.8l9.2,0.8c0.7-4.5,2.3-7.9,4.8-10.1c2.5-2.3,5.5-3.4,9-3.4c4.2,0,7.8,1.6,10.7,4.8
								c2.9,3.2,4.4,7.4,4.4,12.7c0,5-1.4,9-4.2,11.9c-2.8,2.9-6.5,4.4-11.1,4.4c-2.8,0-5.4-0.6-7.7-1.9c-2.3-1.3-4.1-2.9-5.4-5
								l-8.2,1.1l6.9,36.8h35.6v-8.4H19.7L15.8,43c4.3,3,8.8,4.5,13.5,4.5c6.2,0,11.5-2.2,15.8-6.5c4.3-4.3,6.5-9.9,6.5-16.7
								c0-6.5-1.9-12.1-5.7-16.8c-4.6-5.8-10.9-8.7-18.8-8.7c-6.5,0-11.8,1.8-16,5.5C7.1,7.9,4.7,12.7,4.2,18.8z"/>
						</g>
					</g>
				</g>
			</g>
			<g id="text_9">
				<g transform="translate(5.530937 92.397825)rotate(-90)scale(0.06 -0.06)">
					<g>
						<path id="ArialMT-43" d="M58.8,25.1l9.5-2.4c-2-7.8-5.6-13.7-10.7-17.8S46.1-1.2,38.6-1.2c-7.7,0-14,1.6-18.8,4.7
							c-4.8,3.1-8.5,7.7-11,13.7S5,29.5,5,36.3c0,7.5,1.4,14,4.3,19.5c2.9,5.6,6.9,9.8,12.2,12.6c5.3,2.9,11,4.3,17.4,4.3
							c7.2,0,13.2-1.8,18.1-5.5c4.9-3.6,8.3-8.8,10.2-15.4l-9.3-2.2c-1.7,5.2-4.1,9-7.2,11.4c-3.2,2.4-7.1,3.6-11.9,3.6
							c-5.5,0-10.1-1.3-13.8-4c-3.7-2.6-6.3-6.2-7.8-10.6c-1.5-4.4-2.2-9-2.2-13.7c0-6.1,0.9-11.4,2.7-15.9
							c1.8-4.5,4.5-7.9,8.3-10.2c3.8-2.2,7.8-3.4,12.2-3.4c5.3,0,9.8,1.5,13.5,4.6C55,14.5,57.5,19.1,58.8,25.1z"/>
					</g>
					<g>
						<path id="ArialMT-65_00000162327523936158243550000015578364683329526936_" d="M114.3,16.7l9.1-1.1c-1.4-5.3-4.1-9.4-8-12.4
							c-3.9-2.9-8.8-4.4-14.8-4.4c-7.6,0-13.6,2.3-18,7c-4.4,4.7-6.7,11.2-6.7,19.7c0,8.7,2.2,15.5,6.7,20.3
							c4.5,4.8,10.3,7.2,17.5,7.2c6.9,0,12.6-2.4,17-7.1c4.4-4.7,6.6-11.4,6.6-19.9c0-0.5,0-1.3,0-2.3H85c0.3-5.7,1.9-10.1,4.8-13.1
							c2.9-3,6.5-4.5,10.8-4.5c3.2,0,6,0.8,8.2,2.5C111.2,10.3,113,13,114.3,16.7z M85.5,30.9h29c-0.4,4.4-1.5,7.6-3.3,9.8
							c-2.8,3.4-6.4,5.1-10.9,5.1c-4,0-7.4-1.3-10.2-4S85.7,35.4,85.5,30.9z"/>
					</g>
					<g>
						<path id="ArialMT-6e_00000152952723875447957650000000422797034711350163_" d="M134.4,0v51.9h7.9v-7.4
							c3.8,5.7,9.3,8.5,16.5,8.5c3.1,0,6-0.6,8.6-1.7s4.6-2.6,5.9-4.4c1.3-1.8,2.2-4,2.7-6.5c0.3-1.6,0.5-4.5,0.5-8.5V0h-8.8v31.5
							c0,3.6-0.3,6.3-1,8c-0.7,1.8-1.9,3.2-3.6,4.2c-1.7,1.1-3.8,1.6-6.1,1.6c-3.8,0-7-1.2-9.7-3.6s-4.1-6.9-4.1-13.5V0H134.4z"/>
					</g>
					<g>
						<path id="ArialMT-74_00000125600623237464654080000013004986947079121027_" d="M209.2,7.9l1.3-7.8c-2.5-0.5-4.7-0.8-6.6-0.8
							c-3.2,0-5.7,0.5-7.4,1.5c-1.8,1-3,2.3-3.7,4s-1.1,5.1-1.1,10.4V45h-6.4v6.8h6.4v12.8l8.7,5.3V51.9h8.8V45h-8.8V14.7
							c0-2.5,0.2-4.1,0.5-4.8c0.3-0.7,0.8-1.3,1.5-1.7c0.7-0.4,1.7-0.6,3-0.6C206.3,7.5,207.6,7.6,209.2,7.9z"/>
					</g>
					<g>
						<path id="ArialMT-72" d="M217.7,0v51.9h7.9V44c2,3.7,3.9,6.1,5.6,7.3c1.7,1.2,3.6,1.8,5.6,1.8c3,0,6-0.9,9-2.8l-3-8.2
							c-2.1,1.3-4.3,1.9-6.4,1.9c-1.9,0-3.7-0.6-5.2-1.7c-1.5-1.2-2.6-2.8-3.3-4.8c-1-3.1-1.5-6.5-1.5-10.2V0H217.7z"/>
					</g>
					<g>
						<path id="ArialMT-6f" d="M247.9,25.9c0,9.6,2.7,16.7,8,21.3c4.5,3.8,9.9,5.8,16.3,5.8c7.1,0,12.9-2.3,17.5-7
							c4.5-4.7,6.8-11.1,6.8-19.4c0-6.7-1-11.9-3-15.8c-2-3.8-4.9-6.8-8.8-8.9c-3.8-2.1-8-3.2-12.5-3.2c-7.3,0-13.1,2.3-17.6,7
							C250.1,10.5,247.9,17.2,247.9,25.9z M256.9,25.9c0-6.6,1.4-11.6,4.3-14.9c2.9-3.3,6.5-5,10.9-5c4.4,0,8,1.7,10.9,5
							c2.9,3.3,4.3,8.4,4.3,15.2c0,6.4-1.5,11.3-4.4,14.6c-2.9,3.3-6.5,5-10.9,5c-4.4,0-8-1.6-10.9-4.9
							C258.3,37.5,256.9,32.6,256.9,25.9z"/>
					</g>
					<g>
						<path id="ArialMT-69_00000068673279424268172330000010097512060437908871_" d="M306.8,61.5v10.1h8.8V61.5H306.8z M306.8,0
							v51.9h8.8V0H306.8z"/>
					</g>
					<g>
						<path id="ArialMT-64_00000057862981713724862690000001225173128097146273_" d="M362.6,0v6.5c-3.3-5.1-8.1-7.7-14.5-7.7
							c-4.1,0-7.9,1.1-11.4,3.4s-6.2,5.5-8.1,9.5c-1.9,4.1-2.8,8.8-2.8,14.1c0,5.2,0.9,9.9,2.6,14.1c1.7,4.2,4.3,7.4,7.8,9.7
							c3.5,2.2,7.3,3.4,11.6,3.4c3.1,0,5.9-0.7,8.3-2c2.4-1.3,4.4-3,6-5.1v25.7h8.7V0H362.6z M334.8,25.9c0-6.6,1.4-11.6,4.2-14.9
							c2.8-3.3,6.1-4.9,9.9-4.9c3.8,0,7.1,1.6,9.8,4.7c2.7,3.1,4,7.9,4,14.4c0,7.1-1.4,12.3-4.1,15.6c-2.7,3.3-6.1,5-10.1,5
							c-3.9,0-7.2-1.6-9.8-4.8C336.1,37.8,334.8,32.7,334.8,25.9z"/>
					</g>
					<g>
						<path id="ArialMT-20" d="M378,0"/>
					</g>
					<g>
						<path id="ArialMT-76" d="M426.8,0L407,51.9h9.3l11.1-31.1c1.2-3.4,2.3-6.8,3.3-10.4c0.8,2.7,1.9,6,3.3,9.9l11.5,31.6h9L435,0
							H426.8z"/>
					</g>
					<g>
						<path id="ArialMT-61_00000136373977528668225810000002000499764309092482_" d="M496.2,6.4c-3.3-2.8-6.4-4.7-9.4-5.9
							c-3-1.1-6.2-1.7-9.7-1.7C471.4-1.2,467,0.2,464,3s-4.6,6.3-4.6,10.7c0,2.5,0.6,4.9,1.7,7c1.2,2.1,2.7,3.8,4.5,5.1
							s4,2.2,6.3,2.9c1.7,0.5,4.3,0.9,7.8,1.3c7.1,0.8,12.3,1.8,15.7,3c0,1.2,0,2,0,2.3c0,3.6-0.8,6.1-2.5,7.6c-2.2,2-5.6,3-10,3
							c-4.1,0-7.2-0.7-9.2-2.2s-3.4-4-4.4-7.7l-8.6,1.2c0.8,3.7,2.1,6.6,3.9,8.9c1.8,2.3,4.4,4,7.8,5.2c3.4,1.2,7.3,1.8,11.8,1.8
							c4.4,0,8-0.5,10.8-1.6c2.8-1,4.8-2.4,6.1-3.9c1.3-1.6,2.2-3.6,2.7-6c0.3-1.5,0.4-4.2,0.4-8.1V21.7c0-8.2,0.2-13.3,0.6-15.5
							c0.4-2.2,1.1-4.2,2.2-6.2h-9.2C497,1.8,496.5,4,496.2,6.4z M495.5,26c-3.2-1.3-8-2.4-14.4-3.3c-3.6-0.5-6.2-1.1-7.7-1.8
							c-1.5-0.6-2.6-1.6-3.5-2.8c-0.8-1.2-1.2-2.6-1.2-4.2c0-2.3,0.9-4.3,2.7-5.9c1.8-1.6,4.4-2.3,7.8-2.3c3.4,0,6.4,0.7,9,2.2
							c2.6,1.5,4.6,3.5,5.8,6.1c0.9,2,1.4,4.9,1.4,8.8V26z"/>
					</g>
					<g>
						<path id="ArialMT-72_00000062189445795435810180000009542804387395220136_" d="M517.9,0v51.9h7.9V44c2,3.7,3.9,6.1,5.6,7.3
							c1.7,1.2,3.6,1.8,5.6,1.8c3,0,6-0.9,9-2.8l-3-8.2c-2.1,1.3-4.3,1.9-6.4,1.9c-1.9,0-3.7-0.6-5.2-1.7s-2.6-2.8-3.3-4.8
							c-1-3.1-1.5-6.5-1.5-10.2V0H517.9z"/>
					</g>
					<g>
						<path id="ArialMT-69_00000124142309401922250110000002813506151810763904_" d="M551.3,61.5v10.1h8.8V61.5H551.3z M551.3,0
							v51.9h8.8V0H551.3z"/>
					</g>
					<g>
						<path id="ArialMT-61_00000178195001607088048140000000239607276940074415_" d="M607.3,6.4c-3.3-2.8-6.4-4.7-9.4-5.9
							c-3-1.1-6.2-1.7-9.7-1.7c-5.7,0-10.1,1.4-13.1,4.2s-4.6,6.3-4.6,10.7c0,2.5,0.6,4.9,1.7,7c1.2,2.1,2.7,3.8,4.5,5.1
							s4,2.2,6.3,2.9c1.7,0.5,4.3,0.9,7.8,1.3c7.1,0.8,12.3,1.8,15.7,3c0,1.2,0,2,0,2.3c0,3.6-0.8,6.1-2.5,7.6c-2.2,2-5.6,3-10,3
							c-4.1,0-7.2-0.7-9.2-2.2s-3.4-4-4.4-7.7l-8.6,1.2c0.8,3.7,2.1,6.6,3.9,8.9c1.8,2.3,4.4,4,7.8,5.2c3.4,1.2,7.3,1.8,11.8,1.8
							c4.4,0,8-0.5,10.8-1.6c2.8-1,4.8-2.4,6.1-3.9c1.3-1.6,2.2-3.6,2.7-6c0.3-1.5,0.4-4.2,0.4-8.1V21.7c0-8.2,0.2-13.3,0.6-15.5
							c0.4-2.2,1.1-4.2,2.2-6.2h-9.2C608.2,1.8,607.6,4,607.3,6.4z M606.6,26c-3.2-1.3-8-2.4-14.4-3.3c-3.6-0.5-6.2-1.1-7.7-1.8
							c-1.5-0.6-2.6-1.6-3.5-2.8c-0.8-1.2-1.2-2.6-1.2-4.2c0-2.3,0.9-4.3,2.7-5.9c1.8-1.6,4.4-2.3,7.8-2.3c3.4,0,6.4,0.7,9,2.2
							c2.6,1.5,4.6,3.5,5.8,6.1c0.9,2,1.4,4.9,1.4,8.8V26z"/>
					</g>
					<g>
						<path id="ArialMT-6e_00000005261775021367119240000010657378390693194391_" d="M629.1,0v51.9h7.9v-7.4
							c3.8,5.7,9.3,8.5,16.5,8.5c3.1,0,6-0.6,8.6-1.7s4.6-2.6,5.9-4.4c1.3-1.8,2.2-4,2.7-6.5c0.3-1.6,0.5-4.5,0.5-8.5V0h-8.8v31.5
							c0,3.6-0.3,6.3-1,8c-0.7,1.8-1.9,3.2-3.6,4.2c-1.7,1.1-3.8,1.6-6.1,1.6c-3.8,0-7-1.2-9.7-3.6s-4.1-6.9-4.1-13.5V0H629.1z"/>
					</g>
					<g>
						<path id="ArialMT-63_00000017499407357898150380000012438293368213502597_" d="M718.6,19l8.6-1.1c-0.9-6-3.4-10.6-7.3-14
							c-3.9-3.4-8.7-5-14.3-5c-7.1,0-12.8,2.3-17.1,7c-4.3,4.6-6.5,11.3-6.5,20c0,5.6,0.9,10.5,2.8,14.7c1.9,4.2,4.7,7.4,8.5,9.5
							c3.8,2.1,7.9,3.2,12.4,3.2c5.6,0,10.2-1.4,13.8-4.3c3.6-2.8,5.9-6.9,6.9-12.1l-8.5-1.3c-0.8,3.5-2.3,6.1-4.3,7.9
							c-2.1,1.8-4.6,2.6-7.5,2.6c-4.4,0-8-1.6-10.8-4.8c-2.8-3.2-4.1-8.2-4.1-15c0-7,1.3-12,4-15.2c2.7-3.2,6.2-4.7,10.5-4.7
							c3.4,0,6.3,1.1,8.6,3.2S717.9,14.6,718.6,19z"/>
					</g>
					<g>
						<path id="ArialMT-65_00000111151702071999295890000010746528186252426918_" d="M770.2,16.7l9.1-1.1c-1.4-5.3-4.1-9.4-8-12.4
							c-3.9-2.9-8.8-4.4-14.8-4.4c-7.6,0-13.6,2.3-18,7c-4.4,4.7-6.7,11.2-6.7,19.7c0,8.7,2.2,15.5,6.7,20.3
							C743,50.6,748.8,53,756,53c6.9,0,12.6-2.4,17-7.1c4.4-4.7,6.6-11.4,6.6-19.9c0-0.5,0-1.3,0-2.3h-38.7
							c0.3-5.7,1.9-10.1,4.8-13.1c2.9-3,6.5-4.5,10.8-4.5c3.2,0,6,0.8,8.2,2.5C767.1,10.3,768.9,13,770.2,16.7z M741.4,30.9h29
							c-0.4,4.4-1.5,7.6-3.3,9.8c-2.8,3.4-6.4,5.1-10.9,5.1c-4,0-7.4-1.3-10.2-4S741.7,35.4,741.4,30.9z"/>
					</g>
					<g>
						<path id="ArialMT-73" d="M786.8,15.5l8.7,1.4c0.5-3.5,1.8-6.1,4.1-8c2.2-1.9,5.3-2.8,9.4-2.8c4,0,7,0.8,9,2.5
							c2,1.6,2.9,3.6,2.9,5.8c0,2-0.9,3.5-2.6,4.7c-1.2,0.8-4.2,1.8-9,3c-6.4,1.6-10.9,3-13.4,4.2c-2.5,1.2-4.4,2.8-5.7,4.9
							c-1.3,2.1-1.9,4.4-1.9,7c0,2.3,0.5,4.4,1.6,6.4c1.1,2,2.5,3.6,4.3,4.9c1.4,1,3.2,1.8,5.6,2.5c2.4,0.7,4.9,1.1,7.6,1.1
							c4.1,0,7.6-0.6,10.7-1.8c3.1-1.2,5.4-2.8,6.8-4.8c1.5-2,2.5-4.7,3-8l-8.6-1.2c-0.4,2.7-1.5,4.7-3.4,6.2
							c-1.9,1.5-4.5,2.2-7.9,2.2c-4,0-6.9-0.7-8.6-2c-1.7-1.3-2.6-2.9-2.6-4.7c0-1.1,0.4-2.2,1.1-3.1c0.7-0.9,1.8-1.7,3.4-2.3
							c0.9-0.3,3.5-1.1,7.8-2.2c6.2-1.7,10.6-3,13-4.1c2.5-1.1,4.4-2.6,5.8-4.6c1.4-2,2.1-4.5,2.1-7.5c0-2.9-0.9-5.7-2.6-8.3
							c-1.7-2.6-4.2-4.6-7.4-6c-3.2-1.4-6.9-2.1-10.9-2.1c-6.7,0-11.9,1.4-15.4,4.2S787.8,10,786.8,15.5z"/>
					</g>
				</g>
			</g>
		</g>
		<g id="line2d_9">
			<g>
				<defs>
					<rect id="SVGID_1_" x="21.1" y="16" width="130.6" height="102.7"/>
				</defs>
				<clipPath id="SVGID_00000090285081243535526050000006962040007654486713_">
					<use xlink:href="#SVGID_1_"  style="overflow:visible;"/>
				</clipPath>
				
					<path style="clip-path:url(#SVGID_00000090285081243535526050000006962040007654486713_);fill:none;stroke:#000000;stroke-linecap:square;stroke-linejoin:round;" d="
					M36.3,49.1h13.1V24.3H36.3V49.1"/>
			</g>
		</g>
		<g id="line2d_10">
			<g>
				<defs>
					<rect id="SVGID_00000173134530489262513140000007824002228788753818_" x="21.1" y="16" width="130.6" height="102.7"/>
				</defs>
				<clipPath id="SVGID_00000147205124754847350250000003486570567637263033_">
					<use xlink:href="#SVGID_00000173134530489262513140000007824002228788753818_"  style="overflow:visible;"/>
				</clipPath>
				
					<path style="clip-path:url(#SVGID_00000147205124754847350250000003486570567637263033_);fill:none;stroke:#000000;stroke-linecap:square;stroke-linejoin:round;" d="
					M42.8,49.1v2.1"/>
			</g>
		</g>
		<g id="line2d_11">
			<g>
				<defs>
					<rect id="SVGID_00000067956104152756493560000005964512296964173246_" x="21.1" y="16" width="130.6" height="102.7"/>
				</defs>
				<clipPath id="SVGID_00000137090678639448429800000010117944836804331197_">
					<use xlink:href="#SVGID_00000067956104152756493560000005964512296964173246_"  style="overflow:visible;"/>
				</clipPath>
				
					<path style="clip-path:url(#SVGID_00000137090678639448429800000010117944836804331197_);fill:none;stroke:#000000;stroke-linecap:square;stroke-linejoin:round;" d="
					M42.8,24.3v-3.6"/>
			</g>
		</g>
		<g id="line2d_12">
			<g>
				<defs>
					<rect id="SVGID_00000067226251673780053430000014755364653717022117_" x="21.1" y="16" width="130.6" height="102.7"/>
				</defs>
				<clipPath id="SVGID_00000059270575582701921490000005911521449500229293_">
					<use xlink:href="#SVGID_00000067226251673780053430000014755364653717022117_"  style="overflow:visible;"/>
				</clipPath>
				
					<path style="clip-path:url(#SVGID_00000059270575582701921490000005911521449500229293_);fill:none;stroke:#000000;stroke-linecap:square;stroke-linejoin:round;" d="
					M39.6,51.2h6.5"/>
			</g>
		</g>
		<g id="line2d_13">
			<g>
				<defs>
					<rect id="SVGID_00000005977364510719463550000005766858407351216824_" x="21.1" y="16" width="130.6" height="102.7"/>
				</defs>
				<clipPath id="SVGID_00000159439719515590776880000013413850574307928980_">
					<use xlink:href="#SVGID_00000005977364510719463550000005766858407351216824_"  style="overflow:visible;"/>
				</clipPath>
				
					<path style="clip-path:url(#SVGID_00000159439719515590776880000013413850574307928980_);fill:none;stroke:#000000;stroke-linecap:square;stroke-linejoin:round;" d="
					M39.6,20.7h6.5"/>
			</g>
		</g>
		<g id="line2d_14">
			<g>
				<defs>
					<rect id="SVGID_00000114043430920522609100000008134096856814747571_" x="21.1" y="16" width="130.6" height="102.7"/>
				</defs>
				<clipPath id="SVGID_00000114052560292124132790000002685280153883056790_">
					<use xlink:href="#SVGID_00000114043430920522609100000008134096856814747571_"  style="overflow:visible;"/>
				</clipPath>
				
					<path style="clip-path:url(#SVGID_00000114052560292124132790000002685280153883056790_);fill:none;stroke:#000000;stroke-linecap:square;stroke-linejoin:round;" d="
					M79.8,90.4h13.1V74.5H79.8V90.4"/>
			</g>
		</g>
		<g id="line2d_15">
			<g>
				<defs>
					<rect id="SVGID_00000109740410084706239420000012194965047751153068_" x="21.1" y="16" width="130.6" height="102.7"/>
				</defs>
				<clipPath id="SVGID_00000103267268896931330230000009855972924312676534_">
					<use xlink:href="#SVGID_00000109740410084706239420000012194965047751153068_"  style="overflow:visible;"/>
				</clipPath>
				
					<path style="clip-path:url(#SVGID_00000103267268896931330230000009855972924312676534_);fill:none;stroke:#000000;stroke-linecap:square;stroke-linejoin:round;" d="
					M86.3,90.4v6.3"/>
			</g>
		</g>
		<g id="line2d_16">
			<g>
				<defs>
					<rect id="SVGID_00000067227139082364167260000006622974139623726221_" x="21.1" y="16" width="130.6" height="102.7"/>
				</defs>
				<clipPath id="SVGID_00000135656474499390836840000001622404471062451601_">
					<use xlink:href="#SVGID_00000067227139082364167260000006622974139623726221_"  style="overflow:visible;"/>
				</clipPath>
				
					<path style="clip-path:url(#SVGID_00000135656474499390836840000001622404471062451601_);fill:none;stroke:#000000;stroke-linecap:square;stroke-linejoin:round;" d="
					M86.3,74.5V62.2"/>
			</g>
		</g>
		<g id="line2d_17">
			<g>
				<defs>
					<rect id="SVGID_00000044899509666867875950000004694412653070048396_" x="21.1" y="16" width="130.6" height="102.7"/>
				</defs>
				<clipPath id="SVGID_00000027601728591423321690000011598609245230161812_">
					<use xlink:href="#SVGID_00000044899509666867875950000004694412653070048396_"  style="overflow:visible;"/>
				</clipPath>
				
					<path style="clip-path:url(#SVGID_00000027601728591423321690000011598609245230161812_);fill:none;stroke:#000000;stroke-linecap:square;stroke-linejoin:round;" d="
					M83.1,96.7h6.5"/>
			</g>
		</g>
		<g id="line2d_18">
			<g>
				<defs>
					<rect id="SVGID_00000124853442083445600370000018333406421450434696_" x="21.1" y="16" width="130.6" height="102.7"/>
				</defs>
				<clipPath id="SVGID_00000035510208814834312060000011086573346473610625_">
					<use xlink:href="#SVGID_00000124853442083445600370000018333406421450434696_"  style="overflow:visible;"/>
				</clipPath>
				
					<path style="clip-path:url(#SVGID_00000035510208814834312060000011086573346473610625_);fill:none;stroke:#000000;stroke-linecap:square;stroke-linejoin:round;" d="
					M83.1,62.2h6.5"/>
			</g>
		</g>
		<g id="line2d_19">
			<g>
				<defs>
					<rect id="SVGID_00000142865298777111486900000004414960874063369088_" x="21.1" y="16" width="130.6" height="102.7"/>
				</defs>
				<clipPath id="SVGID_00000106869930564425785650000002467134754026936980_">
					<use xlink:href="#SVGID_00000142865298777111486900000004414960874063369088_"  style="overflow:visible;"/>
				</clipPath>
				
					<path style="clip-path:url(#SVGID_00000106869930564425785650000002467134754026936980_);fill:none;stroke:#000000;stroke-linecap:square;stroke-linejoin:round;" d="
					M123.3,105.9h13.1v-27h-13.1V105.9"/>
			</g>
		</g>
		<g id="line2d_20">
			<g>
				<defs>
					<rect id="SVGID_00000075853615970879437150000009469336227506029963_" x="21.1" y="16" width="130.6" height="102.7"/>
				</defs>
				<clipPath id="SVGID_00000034806718795683969950000015657550685107595454_">
					<use xlink:href="#SVGID_00000075853615970879437150000009469336227506029963_"  style="overflow:visible;"/>
				</clipPath>
				
					<path style="clip-path:url(#SVGID_00000034806718795683969950000015657550685107595454_);fill:none;stroke:#000000;stroke-linecap:square;stroke-linejoin:round;" d="
					M129.9,105.9v8.2"/>
			</g>
		</g>
		<g id="line2d_21">
			<g>
				<defs>
					<rect id="SVGID_00000111911990033727141470000018299521896897991824_" x="21.1" y="16" width="130.6" height="102.7"/>
				</defs>
				<clipPath id="SVGID_00000112626815215976015640000016419573803896130216_">
					<use xlink:href="#SVGID_00000111911990033727141470000018299521896897991824_"  style="overflow:visible;"/>
				</clipPath>
				
					<path style="clip-path:url(#SVGID_00000112626815215976015640000016419573803896130216_);fill:none;stroke:#000000;stroke-linecap:square;stroke-linejoin:round;" d="
					M129.9,78.9v-4.5"/>
			</g>
		</g>
		<g id="line2d_22">
			<g>
				<defs>
					<rect id="SVGID_00000119099054559369387270000002145029077620573602_" x="21.1" y="16" width="130.6" height="102.7"/>
				</defs>
				<clipPath id="SVGID_00000103964698799088072260000016932244244975365799_">
					<use xlink:href="#SVGID_00000119099054559369387270000002145029077620573602_"  style="overflow:visible;"/>
				</clipPath>
				
					<path style="clip-path:url(#SVGID_00000103964698799088072260000016932244244975365799_);fill:none;stroke:#000000;stroke-linecap:square;stroke-linejoin:round;" d="
					M126.6,114.1h6.5"/>
			</g>
		</g>
		<g id="line2d_23">
			<g>
				<defs>
					<rect id="SVGID_00000100380967855831831410000002650678683418071963_" x="21.1" y="16" width="130.6" height="102.7"/>
				</defs>
				<clipPath id="SVGID_00000070076067021680194110000014110468005424464571_">
					<use xlink:href="#SVGID_00000100380967855831831410000002650678683418071963_"  style="overflow:visible;"/>
				</clipPath>
				
					<path style="clip-path:url(#SVGID_00000070076067021680194110000014110468005424464571_);fill:none;stroke:#000000;stroke-linecap:square;stroke-linejoin:round;" d="
					M126.6,74.4h6.5"/>
			</g>
		</g>
		<g id="line2d_24">
			<g>
				<defs>
					<rect id="SVGID_00000112612071410628451890000015699702257520277135_" x="21.1" y="16" width="130.6" height="102.7"/>
				</defs>
				<clipPath id="SVGID_00000049942673909769509350000008659875584303271844_">
					<use xlink:href="#SVGID_00000112612071410628451890000015699702257520277135_"  style="overflow:visible;"/>
				</clipPath>
				
					<path style="clip-path:url(#SVGID_00000049942673909769509350000008659875584303271844_);fill:none;stroke:#FF7F0E;stroke-linecap:square;stroke-linejoin:round;" d="
					M36.3,41h13.1"/>
			</g>
		</g>
		<g id="line2d_25">
			<g>
				<defs>
					<rect id="SVGID_00000052790867851518519940000016991955280991847072_" x="21.1" y="16" width="130.6" height="102.7"/>
				</defs>
				<clipPath id="SVGID_00000127014443583835815880000017468975151546678966_">
					<use xlink:href="#SVGID_00000052790867851518519940000016991955280991847072_"  style="overflow:visible;"/>
				</clipPath>
				
					<path style="clip-path:url(#SVGID_00000127014443583835815880000017468975151546678966_);fill:none;stroke:#FF7F0E;stroke-linecap:square;stroke-linejoin:round;" d="
					M79.8,82.8h13.1"/>
			</g>
		</g>
		<g id="line2d_26">
			<g>
				<defs>
					<rect id="SVGID_00000038395596011895190350000003435198782977595287_" x="21.1" y="16" width="130.6" height="102.7"/>
				</defs>
				<clipPath id="SVGID_00000094618639444656394410000001436375770459681938_">
					<use xlink:href="#SVGID_00000038395596011895190350000003435198782977595287_"  style="overflow:visible;"/>
				</clipPath>
				
					<path style="clip-path:url(#SVGID_00000094618639444656394410000001436375770459681938_);fill:none;stroke:#FF7F0E;stroke-linecap:square;stroke-linejoin:round;" d="
					M123.3,94.2h13.1"/>
			</g>
		</g>
		<g id="patch_3">
			<path class="st20" d="M21.1,118.8V16"/>
		</g>
		<g id="patch_4">
			<path class="st20" d="M151.6,118.8V16"/>
		</g>
		<g id="patch_5">
			<path class="st20" d="M21.1,118.8h130.6"/>
		</g>
		<g id="patch_6">
			<path class="st20" d="M21.1,16h130.6"/>
		</g>
	</g>
</g>
</svg>
