<?xml version="1.0" encoding="utf-8"?>
<!-- Generator: Adobe Illustrator 26.4.1, SVG Export Plug-In . SVG Version: 6.00 Build 0)  -->
<svg version="1.1" id="Layer_1" xmlns="http://www.w3.org/2000/svg" xmlns:xlink="http://www.w3.org/1999/xlink" x="0px" y="0px"
	 viewBox="0 0 132.7 102.7" style="enable-background:new 0 0 132.7 102.7;" xml:space="preserve">
<style type="text/css">
	.st0{fill:#FFFFFF;}
	.st1{stroke:#000000;stroke-width:0.8;stroke-linejoin:round;}
	
		.st2{clip-path:url(#SVGID_00000000183065414367794110000014947836087851948219_);fill:none;stroke:#000000;stroke-linecap:square;stroke-linejoin:round;}
	
		.st3{clip-path:url(#SVGID_00000114760576710832569560000002067476107219035296_);fill:none;stroke:#000000;stroke-linecap:square;stroke-linejoin:round;}
	
		.st4{clip-path:url(#SVGID_00000091722087118452832620000005382691355995939747_);fill:none;stroke:#000000;stroke-linecap:square;stroke-linejoin:round;}
	
		.st5{clip-path:url(#SVGID_00000078010370165793504920000008762162235440540298_);fill:none;stroke:#000000;stroke-linecap:square;stroke-linejoin:round;}
	
		.st6{clip-path:url(#SVGID_00000178884159293540405930000004143358153818442669_);fill:none;stroke:#000000;stroke-linecap:square;stroke-linejoin:round;}
	
		.st7{clip-path:url(#SVGID_00000142869567518177394520000011983269794273995925_);fill:none;stroke:#000000;stroke-linecap:square;stroke-linejoin:round;}
	
		.st8{clip-path:url(#SVGID_00000001657091302724173850000007462866901357256893_);fill:none;stroke:#000000;stroke-linecap:square;stroke-linejoin:round;}
	
		.st9{clip-path:url(#SVGID_00000119111374135346716680000010042135090617881232_);fill:none;stroke:#000000;stroke-linecap:square;stroke-linejoin:round;}
	
		.st10{clip-path:url(#SVGID_00000165913303936748873700000006271634486909752704_);fill:none;stroke:#000000;stroke-linecap:square;stroke-linejoin:round;}
	
		.st11{clip-path:url(#SVGID_00000114066232981645408130000008205949631049688490_);fill:none;stroke:#000000;stroke-linecap:square;stroke-linejoin:round;}
	
		.st12{clip-path:url(#SVGID_00000095298690489783617340000013307752279171061945_);fill:none;stroke:#000000;stroke-linecap:square;stroke-linejoin:round;}
	
		.st13{clip-path:url(#SVGID_00000142173602425451207160000006477873716595516836_);fill:none;stroke:#000000;stroke-linecap:square;stroke-linejoin:round;}
	
		.st14{clip-path:url(#SVGID_00000121274438675247167820000015722313514093559199_);fill:none;stroke:#000000;stroke-linecap:square;stroke-linejoin:round;}
	
		.st15{clip-path:url(#SVGID_00000083773370223119355820000017367919432802656930_);fill:none;stroke:#000000;stroke-linecap:square;stroke-linejoin:round;}
	
		.st16{clip-path:url(#SVGID_00000109022416473151603550000013367160524374156202_);fill:none;stroke:#000000;stroke-linecap:square;stroke-linejoin:round;}
	
		.st17{clip-path:url(#SVGID_00000176011537724402828360000009239452121171958457_);fill:none;stroke:#FF7F0E;stroke-linecap:square;stroke-linejoin:round;}
	
		.st18{clip-path:url(#SVGID_00000005245037477306676330000015959665289204695743_);fill:none;stroke:#FF7F0E;stroke-linecap:square;stroke-linejoin:round;}
	
		.st19{clip-path:url(#SVGID_00000008833368958253139270000017228762270716284350_);fill:none;stroke:#FF7F0E;stroke-linecap:square;stroke-linejoin:round;}
	.st20{fill:none;stroke:#000000;stroke-width:0.8;stroke-linecap:square;}
</style>
<g id="figure_1">
	<g id="axes_1">
		<g id="patch_2">
			<path class="st0" d="M16.6,91.4h102.9V12.3H16.6V91.4z"/>
		</g>
		<g id="matplotlib.axis_1">
			<g id="xtick_1">
				<g id="line2d_1">
					<g>
						<g>
							<path id="m0e9a3a9441" class="st1" d="M33.7,91.4v3.5"/>
						</g>
					</g>
				</g>
			</g>
			<g id="xtick_2">
				<g id="line2d_2">
					<g>
						<g>
							<path id="m0e9a3a9441_00000165927847693215060720000017765259563406738878_" class="st1" d="M68,91.4v3.5"/>
						</g>
					</g>
				</g>
			</g>
			<g id="xtick_3">
				<g id="line2d_3">
					<g>
						<g>
							<path id="m0e9a3a9441_00000180356542866833532600000005950460543052414361_" class="st1" d="M102.3,91.4v3.5"/>
						</g>
					</g>
				</g>
			</g>
		</g>
		<g id="matplotlib.axis_2">
			<g id="ytick_1">
				<g id="line2d_4">
					<g>
						<g>
							<path id="m29653ae812" class="st1" d="M16.6,91.4h-3.5"/>
						</g>
					</g>
				</g>
			</g>
			<g id="ytick_2">
				<g id="line2d_5">
					<g>
						<g>
							<path id="m29653ae812_00000134241856628850476560000000025138313316724647_" class="st1" d="M16.6,73.4h-3.5"/>
						</g>
					</g>
				</g>
			</g>
			<g id="ytick_3">
				<g id="line2d_6">
					<g>
						<g>
							<path id="m29653ae812_00000039844445715772726210000006434949435597661352_" class="st1" d="M16.6,55.3h-3.5"/>
						</g>
					</g>
				</g>
			</g>
			<g id="ytick_4">
				<g id="line2d_7">
					<g>
						<g>
							<path id="m29653ae812_00000033328950933869112080000018167580745130829224_" class="st1" d="M16.6,37.2h-3.5"/>
						</g>
					</g>
				</g>
			</g>
			<g id="ytick_5">
				<g id="line2d_8">
					<g>
						<g>
							<path id="m29653ae812_00000119076846377873370710000009038311629596819642_" class="st1" d="M16.6,19.2h-3.5"/>
						</g>
					</g>
				</g>
			</g>
			<g id="text_1">
				<g transform="translate(4.3975 72.385631)rotate(-90)scale(0.06 -0.06)">
					<g>
						<path id="ArialMT-4c" d="M7.3,0v71.6h9.5V8.5H52V0H7.3z"/>
					</g>
					<g>
						<path id="ArialMT-61" d="M96.1,6.4c-3.3-2.8-6.4-4.7-9.4-5.9c-3-1.1-6.2-1.7-9.7-1.7c-5.7,0-10.1,1.4-13.1,4.2
							c-3.1,2.8-4.6,6.3-4.6,10.7c0,2.5,0.6,4.9,1.7,7c1.2,2.1,2.7,3.8,4.5,5.1c1.9,1.3,4,2.2,6.3,2.9c1.7,0.5,4.3,0.9,7.8,1.3
							c7.1,0.8,12.3,1.8,15.7,3c0,1.2,0,2,0,2.3c0,3.6-0.8,6.1-2.5,7.6c-2.2,2-5.6,3-10,3c-4.1,0-7.2-0.7-9.2-2.2s-3.4-4-4.4-7.7
							l-8.6,1.2c0.8,3.7,2.1,6.6,3.9,8.9c1.8,2.3,4.4,4,7.8,5.2c3.4,1.2,7.3,1.8,11.8,1.8c4.4,0,8-0.5,10.8-1.6
							c2.8-1,4.8-2.4,6.1-3.9c1.3-1.6,2.2-3.6,2.7-6c0.3-1.5,0.4-4.2,0.4-8.1V21.7c0-8.2,0.2-13.3,0.6-15.5c0.4-2.2,1.1-4.2,2.2-6.2
							h-9.2C96.9,1.8,96.3,4,96.1,6.4z M95.3,26c-3.2-1.3-8-2.4-14.4-3.3c-3.6-0.5-6.2-1.1-7.7-1.8c-1.5-0.6-2.6-1.6-3.5-2.8
							c-0.8-1.2-1.2-2.6-1.2-4.2c0-2.3,0.9-4.3,2.7-5.9c1.8-1.6,4.4-2.3,7.8-2.3c3.4,0,6.4,0.7,9,2.2c2.6,1.5,4.6,3.5,5.8,6.1
							c0.9,2,1.4,4.9,1.4,8.8V26z"/>
					</g>
					<g>
						<path id="ArialMT-74" d="M137,7.9l1.3-7.8c-2.5-0.5-4.7-0.8-6.6-0.8c-3.2,0-5.7,0.5-7.4,1.5c-1.8,1-3,2.3-3.7,4
							s-1.1,5.1-1.1,10.4V45H113v6.8h6.4v12.8l8.7,5.3V51.9h8.8V45h-8.8V14.7c0-2.5,0.2-4.1,0.5-4.8c0.3-0.7,0.8-1.3,1.5-1.7
							c0.7-0.4,1.7-0.6,3-0.6C134.1,7.5,135.4,7.6,137,7.9z"/>
					</g>
					<g>
						<path id="ArialMT-65" d="M181.1,16.7l9.1-1.1c-1.4-5.3-4.1-9.4-8-12.4c-3.9-2.9-8.8-4.4-14.8-4.4c-7.6,0-13.6,2.3-18,7
							c-4.4,4.7-6.7,11.2-6.7,19.7c0,8.7,2.2,15.5,6.7,20.3c4.5,4.8,10.3,7.2,17.5,7.2c6.9,0,12.6-2.4,17-7.1s6.6-11.4,6.6-19.9
							c0-0.5,0-1.3,0-2.3h-38.7c0.3-5.7,1.9-10.1,4.8-13.1c2.9-3,6.5-4.5,10.8-4.5c3.2,0,6,0.8,8.2,2.5
							C178,10.3,179.8,13,181.1,16.7z M152.2,30.9h29c-0.4,4.4-1.5,7.6-3.3,9.8c-2.8,3.4-6.4,5.1-10.9,5.1c-4,0-7.4-1.3-10.2-4
							S152.5,35.4,152.2,30.9z"/>
					</g>
					<g>
						<path id="ArialMT-6e" d="M201.2,0v51.9h7.9v-7.4c3.8,5.7,9.3,8.5,16.5,8.5c3.1,0,6-0.6,8.6-1.7s4.6-2.6,5.9-4.4s2.2-4,2.7-6.5
							c0.3-1.6,0.5-4.5,0.5-8.5V0h-8.8v31.5c0,3.6-0.3,6.3-1,8c-0.7,1.8-1.9,3.2-3.6,4.2c-1.7,1.1-3.8,1.6-6.1,1.6
							c-3.8,0-7-1.2-9.7-3.6S210,35,210,28.3V0H201.2z"/>
					</g>
					<g>
						<path id="ArialMT-74_00000147940512942040238170000001900627756605856408_" d="M276,7.9l1.3-7.8c-2.5-0.5-4.7-0.8-6.6-0.8
							c-3.2,0-5.7,0.5-7.4,1.5c-1.8,1-3,2.3-3.7,4s-1.1,5.1-1.1,10.4V45H252v6.8h6.4v12.8l8.7,5.3V51.9h8.8V45h-8.8V14.7
							c0-2.5,0.2-4.1,0.5-4.8c0.3-0.7,0.8-1.3,1.5-1.7c0.7-0.4,1.7-0.6,3-0.6C273.1,7.5,274.4,7.6,276,7.9z"/>
					</g>
					<g>
						<path id="ArialMT-20" d="M278,0"/>
					</g>
					<g>
						<path id="ArialMT-76" d="M326.8,0l-19.7,51.9h9.3l11.1-31.1c1.2-3.4,2.3-6.8,3.3-10.4c0.8,2.7,1.9,6,3.3,9.9l11.5,31.6h9
							L335,0H326.8z"/>
					</g>
					<g>
						<path id="ArialMT-61_00000175282314044515747090000013453939344455260836_" d="M396.2,6.4c-3.3-2.8-6.4-4.7-9.4-5.9
							c-3-1.1-6.2-1.7-9.7-1.7c-5.7,0-10.1,1.4-13.1,4.2s-4.6,6.3-4.6,10.7c0,2.5,0.6,4.9,1.7,7c1.2,2.1,2.7,3.8,4.5,5.1
							s4,2.2,6.3,2.9c1.7,0.5,4.3,0.9,7.8,1.3c7.1,0.8,12.3,1.8,15.7,3c0,1.2,0,2,0,2.3c0,3.6-0.8,6.1-2.5,7.6c-2.2,2-5.6,3-10,3
							c-4.1,0-7.2-0.7-9.2-2.2s-3.4-4-4.4-7.7l-8.6,1.2c0.8,3.7,2.1,6.6,3.9,8.9s4.4,4,7.8,5.2c3.4,1.2,7.3,1.8,11.8,1.8
							c4.4,0,8-0.5,10.8-1.6c2.8-1,4.8-2.4,6.1-3.9c1.3-1.6,2.2-3.6,2.7-6c0.3-1.5,0.4-4.2,0.4-8.1V21.7c0-8.2,0.2-13.3,0.6-15.5
							c0.4-2.2,1.1-4.2,2.2-6.2H398C397.1,1.8,396.5,4,396.2,6.4z M395.5,26c-3.2-1.3-8-2.4-14.4-3.3c-3.6-0.5-6.2-1.1-7.7-1.8
							c-1.5-0.6-2.6-1.6-3.5-2.8c-0.8-1.2-1.2-2.6-1.2-4.2c0-2.3,0.9-4.3,2.7-5.9c1.8-1.6,4.4-2.3,7.8-2.3c3.4,0,6.4,0.7,9,2.2
							s4.6,3.5,5.8,6.1c0.9,2,1.4,4.9,1.4,8.8V26z"/>
					</g>
					<g>
						<path id="ArialMT-72" d="M417.9,0v51.9h7.9V44c2,3.7,3.9,6.1,5.6,7.3c1.7,1.2,3.6,1.8,5.6,1.8c3,0,6-0.9,9-2.8l-3-8.2
							c-2.1,1.3-4.3,1.9-6.4,1.9c-1.9,0-3.7-0.6-5.2-1.7s-2.6-2.8-3.3-4.8c-1-3.1-1.5-6.5-1.5-10.3V0H417.9z"/>
					</g>
					<g>
						<path id="ArialMT-69" d="M451.4,61.5v10.1h8.8V61.5H451.4z M451.4,0v51.9h8.8V0H451.4z"/>
					</g>
					<g>
						<path id="ArialMT-61_00000170257793812081251190000003715671112600480936_" d="M507.4,6.4c-3.3-2.8-6.4-4.7-9.4-5.9
							c-3-1.1-6.2-1.7-9.7-1.7c-5.7,0-10.1,1.4-13.1,4.2s-4.6,6.3-4.6,10.7c0,2.5,0.6,4.9,1.7,7c1.2,2.1,2.7,3.8,4.5,5.1
							s4,2.2,6.3,2.9c1.7,0.5,4.3,0.9,7.8,1.3c7.1,0.8,12.3,1.8,15.7,3c0,1.2,0,2,0,2.3c0,3.6-0.8,6.1-2.5,7.6c-2.2,2-5.6,3-10,3
							c-4.1,0-7.2-0.7-9.2-2.2s-3.4-4-4.4-7.7l-8.6,1.2c0.8,3.7,2.1,6.6,3.9,8.9c1.8,2.3,4.4,4,7.8,5.2c3.4,1.2,7.3,1.8,11.8,1.8
							c4.4,0,8-0.5,10.8-1.6c2.8-1,4.8-2.4,6.1-3.9c1.3-1.6,2.2-3.6,2.7-6c0.3-1.5,0.4-4.2,0.4-8.1V21.7c0-8.2,0.2-13.3,0.6-15.5
							c0.4-2.2,1.1-4.2,2.2-6.2h-9.2C508.2,1.8,507.6,4,507.4,6.4z M506.6,26c-3.2-1.3-8-2.4-14.4-3.3c-3.6-0.5-6.2-1.1-7.7-1.8
							c-1.5-0.6-2.6-1.6-3.5-2.8c-0.8-1.2-1.2-2.6-1.2-4.2c0-2.3,0.9-4.3,2.7-5.9c1.8-1.6,4.4-2.3,7.8-2.3c3.4,0,6.4,0.7,9,2.2
							c2.6,1.5,4.6,3.5,5.8,6.1c0.9,2,1.4,4.9,1.4,8.8V26z"/>
					</g>
					<g>
						<path id="ArialMT-6e_00000068666468004027332500000014673049435660131735_" d="M529.2,0v51.9h7.9v-7.4
							c3.8,5.7,9.3,8.5,16.5,8.5c3.1,0,6-0.6,8.6-1.7s4.6-2.6,5.9-4.4s2.2-4,2.7-6.5c0.3-1.6,0.5-4.5,0.5-8.5V0h-8.8v31.5
							c0,3.6-0.3,6.3-1,8c-0.7,1.8-1.9,3.2-3.6,4.2c-1.7,1.1-3.8,1.6-6.1,1.6c-3.8,0-7-1.2-9.7-3.6s-4.1-6.9-4.1-13.5V0H529.2z"/>
					</g>
					<g>
						<path id="ArialMT-63" d="M618.6,19l8.6-1.1c-0.9-6-3.4-10.6-7.3-14c-3.9-3.4-8.7-5-14.3-5c-7.1,0-12.8,2.3-17.1,7
							c-4.3,4.6-6.5,11.3-6.5,20c0,5.6,0.9,10.5,2.8,14.7c1.9,4.2,4.7,7.4,8.5,9.5c3.8,2.1,7.9,3.2,12.4,3.2
							c5.6,0,10.2-1.4,13.8-4.3c3.6-2.8,5.9-6.9,6.9-12.1l-8.5-1.3c-0.8,3.5-2.3,6.1-4.3,7.9c-2.1,1.8-4.6,2.6-7.5,2.6
							c-4.4,0-8-1.6-10.8-4.8c-2.8-3.2-4.1-8.2-4.1-15c0-7,1.3-12,4-15.2c2.7-3.2,6.2-4.7,10.5-4.7c3.4,0,6.3,1.1,8.6,3.2
							S618,14.6,618.6,19z"/>
					</g>
					<g>
						<path id="ArialMT-65_00000128448772668515416830000014538397360645349820_" d="M670.3,16.7l9.1-1.1c-1.4-5.3-4.1-9.4-8-12.4
							c-3.9-2.9-8.8-4.4-14.8-4.4c-7.6,0-13.6,2.3-18,7c-4.4,4.7-6.7,11.2-6.7,19.7c0,8.7,2.2,15.5,6.7,20.3
							c4.5,4.8,10.3,7.2,17.5,7.2c6.9,0,12.6-2.4,17-7.1s6.6-11.4,6.6-19.9c0-0.5,0-1.3,0-2.3h-38.7c0.3-5.7,1.9-10.1,4.8-13.1
							c2.9-3,6.5-4.5,10.8-4.5c3.2,0,6,0.8,8.2,2.5C667.1,10.3,668.9,13,670.3,16.7z M641.4,30.9h29c-0.4,4.4-1.5,7.6-3.3,9.8
							c-2.8,3.4-6.4,5.1-10.9,5.1c-4,0-7.4-1.3-10.2-4S641.7,35.4,641.4,30.9z"/>
					</g>
				</g>
			</g>
		</g>
		<g id="line2d_9">
			<g>
				<defs>
					<rect id="SVGID_1_" x="16.6" y="12.3" width="102.9" height="79.1"/>
				</defs>
				<clipPath id="SVGID_00000074425059180358733340000009298945765804420017_">
					<use xlink:href="#SVGID_1_"  style="overflow:visible;"/>
				</clipPath>
				
					<path style="clip-path:url(#SVGID_00000074425059180358733340000009298945765804420017_);fill:none;stroke:#000000;stroke-linecap:square;stroke-linejoin:round;" d="
					M28.6,41h10.3V28H28.6V41"/>
			</g>
		</g>
		<g id="line2d_10">
			<g>
				<defs>
					<rect id="SVGID_00000124869348329158514230000006850630427357490056_" x="16.6" y="12.3" width="102.9" height="79.1"/>
				</defs>
				<clipPath id="SVGID_00000114769898406811360070000014924338752303572119_">
					<use xlink:href="#SVGID_00000124869348329158514230000006850630427357490056_"  style="overflow:visible;"/>
				</clipPath>
				
					<path style="clip-path:url(#SVGID_00000114769898406811360070000014924338752303572119_);fill:none;stroke:#000000;stroke-linecap:square;stroke-linejoin:round;" d="
					M33.7,41v8.2"/>
			</g>
		</g>
		<g id="line2d_11">
			<g>
				<defs>
					<rect id="SVGID_00000081645805982693198600000004775625480741099150_" x="16.6" y="12.3" width="102.9" height="79.1"/>
				</defs>
				<clipPath id="SVGID_00000047053290343736163050000007309782974291256704_">
					<use xlink:href="#SVGID_00000081645805982693198600000004775625480741099150_"  style="overflow:visible;"/>
				</clipPath>
				
					<path style="clip-path:url(#SVGID_00000047053290343736163050000007309782974291256704_);fill:none;stroke:#000000;stroke-linecap:square;stroke-linejoin:round;" d="
					M33.7,28V15.9"/>
			</g>
		</g>
		<g id="line2d_12">
			<g>
				<defs>
					<rect id="SVGID_00000150805056562977353460000008632606215390612893_" x="16.6" y="12.3" width="102.9" height="79.1"/>
				</defs>
				<clipPath id="SVGID_00000001639419034697693990000017444703463969768096_">
					<use xlink:href="#SVGID_00000150805056562977353460000008632606215390612893_"  style="overflow:visible;"/>
				</clipPath>
				
					<path style="clip-path:url(#SVGID_00000001639419034697693990000017444703463969768096_);fill:none;stroke:#000000;stroke-linecap:square;stroke-linejoin:round;" d="
					M31.2,49.2h5.1"/>
			</g>
		</g>
		<g id="line2d_13">
			<g>
				<defs>
					<rect id="SVGID_00000147219739664839239510000002363086702903153282_" x="16.6" y="12.3" width="102.9" height="79.1"/>
				</defs>
				<clipPath id="SVGID_00000023262604184832998100000018205147874519566511_">
					<use xlink:href="#SVGID_00000147219739664839239510000002363086702903153282_"  style="overflow:visible;"/>
				</clipPath>
				
					<path style="clip-path:url(#SVGID_00000023262604184832998100000018205147874519566511_);fill:none;stroke:#000000;stroke-linecap:square;stroke-linejoin:round;" d="
					M31.2,15.9h5.1"/>
			</g>
		</g>
		<g id="line2d_14">
			<g>
				<defs>
					<rect id="SVGID_00000037676190961534943980000017952628284983077013_" x="16.6" y="12.3" width="102.9" height="79.1"/>
				</defs>
				<clipPath id="SVGID_00000159460779492326681710000000180275513396144058_">
					<use xlink:href="#SVGID_00000037676190961534943980000017952628284983077013_"  style="overflow:visible;"/>
				</clipPath>
				
					<path style="clip-path:url(#SVGID_00000159460779492326681710000000180275513396144058_);fill:none;stroke:#000000;stroke-linecap:square;stroke-linejoin:round;" d="
					M62.9,58.1h10.3V43.1H62.9V58.1"/>
			</g>
		</g>
		<g id="line2d_15">
			<g>
				<defs>
					<rect id="SVGID_00000123406104235641286380000002236782610960957833_" x="16.6" y="12.3" width="102.9" height="79.1"/>
				</defs>
				<clipPath id="SVGID_00000085969093761373835230000008915960683130028463_">
					<use xlink:href="#SVGID_00000123406104235641286380000002236782610960957833_"  style="overflow:visible;"/>
				</clipPath>
				
					<path style="clip-path:url(#SVGID_00000085969093761373835230000008915960683130028463_);fill:none;stroke:#000000;stroke-linecap:square;stroke-linejoin:round;" d="
					M68,58.1v13.4"/>
			</g>
		</g>
		<g id="line2d_16">
			<g>
				<defs>
					<rect id="SVGID_00000022559311714728749470000017973273438295870383_" x="16.6" y="12.3" width="102.9" height="79.1"/>
				</defs>
				<clipPath id="SVGID_00000118398117074322993190000013641748200773659312_">
					<use xlink:href="#SVGID_00000022559311714728749470000017973273438295870383_"  style="overflow:visible;"/>
				</clipPath>
				
					<path style="clip-path:url(#SVGID_00000118398117074322993190000013641748200773659312_);fill:none;stroke:#000000;stroke-linecap:square;stroke-linejoin:round;" d="
					M68,43.1v-9.2"/>
			</g>
		</g>
		<g id="line2d_17">
			<g>
				<defs>
					<rect id="SVGID_00000178916472073573703800000007483721900743295906_" x="16.6" y="12.3" width="102.9" height="79.1"/>
				</defs>
				<clipPath id="SVGID_00000040555875981089769610000009967840608617573304_">
					<use xlink:href="#SVGID_00000178916472073573703800000007483721900743295906_"  style="overflow:visible;"/>
				</clipPath>
				
					<path style="clip-path:url(#SVGID_00000040555875981089769610000009967840608617573304_);fill:none;stroke:#000000;stroke-linecap:square;stroke-linejoin:round;" d="
					M65.4,71.5h5.1"/>
			</g>
		</g>
		<g id="line2d_18">
			<g>
				<defs>
					<rect id="SVGID_00000135653274924696335980000000173433314874026411_" x="16.6" y="12.3" width="102.9" height="79.1"/>
				</defs>
				<clipPath id="SVGID_00000081611329528120326090000016209900632754871982_">
					<use xlink:href="#SVGID_00000135653274924696335980000000173433314874026411_"  style="overflow:visible;"/>
				</clipPath>
				
					<path style="clip-path:url(#SVGID_00000081611329528120326090000016209900632754871982_);fill:none;stroke:#000000;stroke-linecap:square;stroke-linejoin:round;" d="
					M65.4,33.8h5.1"/>
			</g>
		</g>
		<g id="line2d_19">
			<g>
				<defs>
					<rect id="SVGID_00000004535186363301361890000000768748535493548672_" x="16.6" y="12.3" width="102.9" height="79.1"/>
				</defs>
				<clipPath id="SVGID_00000145043113098110427150000009710166782497089442_">
					<use xlink:href="#SVGID_00000004535186363301361890000000768748535493548672_"  style="overflow:visible;"/>
				</clipPath>
				
					<path style="clip-path:url(#SVGID_00000145043113098110427150000009710166782497089442_);fill:none;stroke:#000000;stroke-linecap:square;stroke-linejoin:round;" d="
					M97.2,65.1h10.3V50.2H97.2V65.1"/>
			</g>
		</g>
		<g id="line2d_20">
			<g>
				<defs>
					<rect id="SVGID_00000150079924563920009940000013114932397478025148_" x="16.6" y="12.3" width="102.9" height="79.1"/>
				</defs>
				<clipPath id="SVGID_00000133523924303053552490000013706250501628337543_">
					<use xlink:href="#SVGID_00000150079924563920009940000013114932397478025148_"  style="overflow:visible;"/>
				</clipPath>
				
					<path style="clip-path:url(#SVGID_00000133523924303053552490000013706250501628337543_);fill:none;stroke:#000000;stroke-linecap:square;stroke-linejoin:round;" d="
					M102.3,65.1v22.4"/>
			</g>
		</g>
		<g id="line2d_21">
			<g>
				<defs>
					<rect id="SVGID_00000062892891098685180210000014870832605201493388_" x="16.6" y="12.3" width="102.9" height="79.1"/>
				</defs>
				<clipPath id="SVGID_00000095305526203423114710000018029188256032977029_">
					<use xlink:href="#SVGID_00000062892891098685180210000014870832605201493388_"  style="overflow:visible;"/>
				</clipPath>
				
					<path style="clip-path:url(#SVGID_00000095305526203423114710000018029188256032977029_);fill:none;stroke:#000000;stroke-linecap:square;stroke-linejoin:round;" d="
					M102.3,50.2V35.5"/>
			</g>
		</g>
		<g id="line2d_22">
			<g>
				<defs>
					<rect id="SVGID_00000062192252741941541980000018229524723037965465_" x="16.6" y="12.3" width="102.9" height="79.1"/>
				</defs>
				<clipPath id="SVGID_00000054235380714715920710000007828471636662633124_">
					<use xlink:href="#SVGID_00000062192252741941541980000018229524723037965465_"  style="overflow:visible;"/>
				</clipPath>
				
					<path style="clip-path:url(#SVGID_00000054235380714715920710000007828471636662633124_);fill:none;stroke:#000000;stroke-linecap:square;stroke-linejoin:round;" d="
					M99.7,87.6h5.1"/>
			</g>
		</g>
		<g id="line2d_23">
			<g>
				<defs>
					<rect id="SVGID_00000177472005147618610850000011095160896171675053_" x="16.6" y="12.3" width="102.9" height="79.1"/>
				</defs>
				<clipPath id="SVGID_00000134933915278218374510000012179251477231403908_">
					<use xlink:href="#SVGID_00000177472005147618610850000011095160896171675053_"  style="overflow:visible;"/>
				</clipPath>
				
					<path style="clip-path:url(#SVGID_00000134933915278218374510000012179251477231403908_);fill:none;stroke:#000000;stroke-linecap:square;stroke-linejoin:round;" d="
					M99.7,35.5h5.1"/>
			</g>
		</g>
		<g id="line2d_24">
			<g>
				<defs>
					<rect id="SVGID_00000093871908326576835900000001050125728755141305_" x="16.6" y="12.3" width="102.9" height="79.1"/>
				</defs>
				<clipPath id="SVGID_00000129924599963640239330000012714100947206368170_">
					<use xlink:href="#SVGID_00000093871908326576835900000001050125728755141305_"  style="overflow:visible;"/>
				</clipPath>
				
					<path style="clip-path:url(#SVGID_00000129924599963640239330000012714100947206368170_);fill:none;stroke:#FF7F0E;stroke-linecap:square;stroke-linejoin:round;" d="
					M28.6,33.4h10.3"/>
			</g>
		</g>
		<g id="line2d_25">
			<g>
				<defs>
					<rect id="SVGID_00000025440168743453342150000016672810671667644567_" x="16.6" y="12.3" width="102.9" height="79.1"/>
				</defs>
				<clipPath id="SVGID_00000011728902072003143010000013138974616239613337_">
					<use xlink:href="#SVGID_00000025440168743453342150000016672810671667644567_"  style="overflow:visible;"/>
				</clipPath>
				
					<path style="clip-path:url(#SVGID_00000011728902072003143010000013138974616239613337_);fill:none;stroke:#FF7F0E;stroke-linecap:square;stroke-linejoin:round;" d="
					M62.9,53.2h10.3"/>
			</g>
		</g>
		<g id="line2d_26">
			<g>
				<defs>
					<rect id="SVGID_00000008834632394895935490000013022706417402132404_" x="16.6" y="12.3" width="102.9" height="79.1"/>
				</defs>
				<clipPath id="SVGID_00000036946746107209689270000007528970110692141468_">
					<use xlink:href="#SVGID_00000008834632394895935490000013022706417402132404_"  style="overflow:visible;"/>
				</clipPath>
				
					<path style="clip-path:url(#SVGID_00000036946746107209689270000007528970110692141468_);fill:none;stroke:#FF7F0E;stroke-linecap:square;stroke-linejoin:round;" d="
					M97.2,59h10.3"/>
			</g>
		</g>
		<g id="patch_3">
			<path class="st20" d="M16.6,91.4V12.3"/>
		</g>
		<g id="patch_4">
			<path class="st20" d="M119.4,91.4V12.3"/>
		</g>
		<g id="patch_5">
			<path class="st20" d="M16.6,91.4h102.9"/>
		</g>
		<g id="patch_6">
			<path class="st20" d="M16.6,12.3h102.9"/>
		</g>
	</g>
</g>
</svg>
