<?xml version="1.0" encoding="utf-8"?>
<!-- Generator: Adobe Illustrator 26.4.1, SVG Export Plug-In . SVG Version: 6.00 Build 0)  -->
<svg version="1.1" id="Layer_1" xmlns="http://www.w3.org/2000/svg" xmlns:xlink="http://www.w3.org/1999/xlink" x="0px" y="0px"
	 viewBox="0 0 206.4 141.4" style="enable-background:new 0 0 206.4 141.4;" xml:space="preserve">
<style type="text/css">
	.st0{fill:#FFFFFF;}
	.st1{stroke:#000000;stroke-width:0.8;stroke-linejoin:round;}
	
		.st2{clip-path:url(#SVGID_00000124846769313319657980000007967945095512717457_);fill:none;stroke:#000000;stroke-linecap:square;stroke-linejoin:round;}
	
		.st3{clip-path:url(#SVGID_00000070836352013797979310000017981645098981588357_);fill:none;stroke:#000000;stroke-linecap:square;stroke-linejoin:round;}
	
		.st4{clip-path:url(#SVGID_00000011709561128519156710000014861109657044786609_);fill:none;stroke:#000000;stroke-linecap:square;stroke-linejoin:round;}
	
		.st5{clip-path:url(#SVGID_00000008851600752475171200000008927946731736801193_);fill:none;stroke:#000000;stroke-linecap:square;stroke-linejoin:round;}
	
		.st6{clip-path:url(#SVGID_00000113316849666983320110000004284872259991010201_);fill:none;stroke:#000000;stroke-linecap:square;stroke-linejoin:round;}
	
		.st7{clip-path:url(#SVGID_00000144325635658888301740000007656728658571835282_);fill:none;stroke:#000000;stroke-linecap:square;stroke-linejoin:round;}
	
		.st8{clip-path:url(#SVGID_00000103223342108329734580000010856264234952913593_);fill:none;stroke:#000000;stroke-linecap:square;stroke-linejoin:round;}
	
		.st9{clip-path:url(#SVGID_00000067923471344857768360000010324211818683858870_);fill:none;stroke:#000000;stroke-linecap:square;stroke-linejoin:round;}
	
		.st10{clip-path:url(#SVGID_00000091720124700294263280000015614693910712540343_);fill:none;stroke:#000000;stroke-linecap:square;stroke-linejoin:round;}
	
		.st11{clip-path:url(#SVGID_00000057145422415769018300000016711413265548330113_);fill:none;stroke:#000000;stroke-linecap:square;stroke-linejoin:round;}
	
		.st12{clip-path:url(#SVGID_00000064327660641154115100000005390359049334070402_);fill:none;stroke:#000000;stroke-linecap:square;stroke-linejoin:round;}
	
		.st13{clip-path:url(#SVGID_00000062161463645549975310000004957795647722329991_);fill:none;stroke:#000000;stroke-linecap:square;stroke-linejoin:round;}
	
		.st14{clip-path:url(#SVGID_00000183957238323295375450000014521392336843568000_);fill:none;stroke:#000000;stroke-linecap:square;stroke-linejoin:round;}
	
		.st15{clip-path:url(#SVGID_00000141426093871507090520000011350689061222552456_);fill:none;stroke:#000000;stroke-linecap:square;stroke-linejoin:round;}
	
		.st16{clip-path:url(#SVGID_00000039853886818767206640000007348714652197063041_);fill:none;stroke:#000000;stroke-linecap:square;stroke-linejoin:round;}
	
		.st17{clip-path:url(#SVGID_00000139992787065540146800000012230003817021333172_);fill:none;stroke:#FF7F0E;stroke-linecap:square;stroke-linejoin:round;}
	
		.st18{clip-path:url(#SVGID_00000150091279145289414890000014485801371493608367_);fill:none;stroke:#FF7F0E;stroke-linecap:square;stroke-linejoin:round;}
	
		.st19{clip-path:url(#SVGID_00000057861990476644953790000007776859040248789691_);fill:none;stroke:#FF7F0E;stroke-linecap:square;stroke-linejoin:round;}
	.st20{fill:none;stroke:#000000;stroke-width:0.8;stroke-linecap:square;}
</style>
<g id="figure_1">
	<g id="axes_1">
		<g id="patch_2">
			<path class="st0" d="M25.8,125.8h160V17h-160V125.8z"/>
		</g>
		<g id="matplotlib.axis_1">
			<g id="xtick_1">
				<g id="line2d_1">
					<g>
						<g>
							<path id="m6b04f000ad" class="st1" d="M52.5,125.8v3.5"/>
						</g>
					</g>
				</g>
				<g id="text_1">
					<g transform="translate(48.458281 137.105088)scale(0.06 -0.06)">
						<g>
							<path id="ArialMT-4f" d="M4.8,34.9C4.8,46.7,8,56,14.4,62.8c6.4,6.7,14.6,10.1,24.7,10.1c6.6,0,12.6-1.6,17.9-4.8
								c5.3-3.2,9.3-7.6,12.1-13.2c2.8-5.6,4.2-12.1,4.2-19.2c0-7.3-1.5-13.7-4.4-19.5c-2.9-5.7-7.1-10.1-12.5-13
								c-5.4-2.9-11.2-4.4-17.4-4.4c-6.7,0-12.8,1.6-18.1,4.9C15.7,6.9,11.7,11.4,8.9,17C6.2,22.6,4.8,28.6,4.8,34.9z M14.6,34.7
								c0-8.6,2.3-15.4,7-20.4C26.2,9.4,32,6.9,39,6.9c7.1,0,13,2.5,17.6,7.5c4.6,5,6.9,12.1,6.9,21.3c0,5.8-1,10.9-3,15.2
								s-4.9,7.7-8.7,10.1c-3.8,2.4-8,3.6-12.8,3.6c-6.7,0-12.5-2.3-17.3-6.9C17,53.2,14.6,45.5,14.6,34.7z"/>
						</g>
						<g>
							<path id="ArialMT-4c" d="M85.1,0v71.6h9.5V8.5h35.2V0H85.1z"/>
						</g>
					</g>
				</g>
			</g>
			<g id="xtick_2">
				<g id="line2d_2">
					<g>
						<g>
							<path id="m6b04f000ad_00000031176598008591581760000007380451830776457116_" class="st1" d="M105.8,125.8v3.5"/>
						</g>
					</g>
				</g>
				<g id="text_2">
					<g transform="translate(100.276875 137.105088)scale(0.06 -0.06)">
						<g>
							<path id="ArialMT-43" d="M58.8,25.1l9.5-2.4c-2-7.8-5.6-13.7-10.7-17.8S46.1-1.2,38.6-1.2c-7.7,0-14,1.6-18.8,4.7
								c-4.8,3.1-8.5,7.7-11,13.7S5,29.5,5,36.3c0,7.5,1.4,14,4.3,19.5c2.9,5.6,6.9,9.8,12.2,12.6c5.3,2.9,11,4.3,17.4,4.3
								c7.2,0,13.2-1.8,18.1-5.5c4.9-3.6,8.3-8.8,10.2-15.4l-9.3-2.2c-1.7,5.2-4.1,9-7.2,11.4c-3.2,2.4-7.1,3.6-11.9,3.6
								c-5.5,0-10.1-1.3-13.8-4c-3.7-2.6-6.3-6.2-7.8-10.6c-1.5-4.4-2.2-9-2.2-13.7c0-6.1,0.9-11.4,2.7-15.9s4.5-7.9,8.3-10.2
								c3.8-2.2,7.8-3.4,12.2-3.4c5.3,0,9.8,1.5,13.5,4.6C55,14.5,57.5,19.1,58.8,25.1z"/>
						</g>
						<g>
							<path id="ArialMT-4c_00000127016038852394223360000007400543697809925552_" d="M79.5,0v71.6H89V8.5h35.2V0H79.5z"/>
						</g>
						<g>
							<path id="ArialMT-31" d="M165.1,0h-8.8v56c-2.1-2-4.9-4-8.3-6s-6.5-3.5-9.2-4.5v8.5c4.9,2.3,9.2,5.1,12.9,8.4
								c3.7,3.3,6.3,6.5,7.8,9.6h5.7V0z"/>
						</g>
					</g>
				</g>
			</g>
			<g id="xtick_3">
				<g id="line2d_3">
					<g>
						<g>
							<path id="m6b04f000ad_00000059289209474744556120000004875512841703534757_" class="st1" d="M159.1,125.8v3.5"/>
						</g>
					</g>
				</g>
				<g id="text_3">
					<g transform="translate(153.596875 137.105088)scale(0.06 -0.06)">
						<g>
							<path id="ArialMT-43_00000022531114840152274880000002901121943446090645_" d="M58.8,25.1l9.5-2.4c-2-7.8-5.6-13.7-10.7-17.8
								S46.1-1.2,38.6-1.2c-7.7,0-14,1.6-18.8,4.7c-4.8,3.1-8.5,7.7-11,13.7S5,29.5,5,36.3c0,7.5,1.4,14,4.3,19.5
								c2.9,5.6,6.9,9.8,12.2,12.6c5.3,2.9,11,4.3,17.4,4.3c7.2,0,13.2-1.8,18.1-5.5c4.9-3.6,8.3-8.8,10.2-15.4l-9.3-2.2
								c-1.7,5.2-4.1,9-7.2,11.4c-3.2,2.4-7.1,3.6-11.9,3.6c-5.5,0-10.1-1.3-13.8-4c-3.7-2.6-6.3-6.2-7.8-10.6
								c-1.5-4.4-2.2-9-2.2-13.7c0-6.1,0.9-11.4,2.7-15.9c1.8-4.5,4.5-7.9,8.3-10.2c3.8-2.2,7.8-3.4,12.2-3.4
								c5.3,0,9.8,1.5,13.5,4.6C55,14.5,57.5,19.1,58.8,25.1z"/>
						</g>
						<g>
							<path id="ArialMT-4c_00000075867696182845889340000005784352735514481325_" d="M79.5,0v71.6H89V8.5h35.2V0H79.5z"/>
						</g>
						<g>
							<path id="ArialMT-32" d="M178.2,8.5V0h-47.3c-0.1,2.1,0.3,4.2,1,6.1c1.2,3.2,3.1,6.4,5.8,9.5c2.7,3.1,6.5,6.7,11.5,10.8
								c7.8,6.4,13,11.4,15.8,15.2c2.7,3.7,4.1,7.3,4.1,10.6c0,3.5-1.2,6.4-3.8,8.8c-2.5,2.4-5.7,3.6-9.7,3.6
								c-4.2,0-7.6-1.3-10.2-3.8c-2.5-2.5-3.8-6-3.9-10.5l-9,0.9c0.6,6.7,2.9,11.9,7,15.4c4,3.5,9.5,5.3,16.3,5.3
								c6.9,0,12.3-1.9,16.3-5.7c4-3.8,6-8.5,6-14.2c0-2.9-0.6-5.7-1.8-8.5c-1.2-2.8-3.1-5.7-5.8-8.7s-7.2-7.3-13.5-12.6
								c-5.3-4.4-8.7-7.4-10.2-9c-1.5-1.6-2.7-3.2-3.7-4.8H178.2z"/>
						</g>
					</g>
				</g>
			</g>
		</g>
		<g id="matplotlib.axis_2">
			<g id="ytick_1">
				<g id="line2d_4">
					<g>
						<g>
							<path id="mf680374235" class="st1" d="M25.8,114.2h-3.5"/>
						</g>
					</g>
				</g>
				<g id="text_4">
					<g transform="translate(0.2825 116.379772)scale(0.06 -0.06)">
						<g>
							<path id="ArialMT-2212" d="M52.8,31.2H5.6v8.2h47.3V31.2z"/>
						</g>
						<g>
							<path id="ArialMT-30" d="M62.6,35.3c0,8.5,0.9,15.3,2.6,20.4c1.7,5.2,4.3,9.1,7.8,11.9c3.4,2.8,7.8,4.2,13,4.2
								c3.8,0,7.2-0.8,10.1-2.3c2.9-1.5,5.3-3.8,7.2-6.7c1.9-2.9,3.4-6.5,4.5-10.6c1.1-4.2,1.6-9.8,1.6-16.9
								c0-8.4-0.9-15.2-2.6-20.3c-1.7-5.2-4.3-9.1-7.7-12c-3.4-2.8-7.8-4.2-13-4.2c-6.9,0-12.3,2.5-16.2,7.4
								C64.9,12.2,62.6,21.9,62.6,35.3z M71.6,35.3c0-11.8,1.4-19.6,4.1-23.5C78.5,7.9,81.9,6,85.9,6c4,0,7.4,2,10.2,5.9
								s4.1,11.7,4.1,23.4c0,11.8-1.4,19.6-4.1,23.5c-2.8,3.9-6.2,5.8-10.3,5.8c-4,0-7.3-1.7-9.7-5.1C73.1,55.1,71.6,47.1,71.6,35.3
								z"/>
						</g>
						<g>
							<path id="ArialMT-2e" d="M123.1,0v10h10V0H123.1z"/>
						</g>
						<g>
							<path id="ArialMT-30_00000157293663682800156770000000266970269286714033_" d="M146,35.3c0,8.5,0.9,15.3,2.6,20.4
								c1.7,5.2,4.3,9.1,7.8,11.9c3.4,2.8,7.8,4.2,13,4.2c3.8,0,7.2-0.8,10.1-2.3c2.9-1.5,5.3-3.8,7.2-6.7c1.9-2.9,3.4-6.5,4.5-10.6
								c1.1-4.2,1.6-9.8,1.6-16.9c0-8.4-0.9-15.2-2.6-20.3c-1.7-5.2-4.3-9.1-7.7-12c-3.4-2.8-7.8-4.2-13-4.2
								c-6.9,0-12.3,2.5-16.2,7.4C148.3,12.2,146,21.9,146,35.3z M155,35.3c0-11.8,1.4-19.6,4.1-23.5c2.8-3.9,6.1-5.8,10.2-5.8
								c4,0,7.4,2,10.2,5.9s4.1,11.7,4.1,23.4c0,11.8-1.4,19.6-4.1,23.5c-2.8,3.9-6.2,5.8-10.3,5.8c-4,0-7.3-1.7-9.7-5.1
								C156.5,55.1,155,47.1,155,35.3z"/>
						</g>
						<g>
							<path id="ArialMT-38" d="M215.1,38.8c-3.6,1.3-6.3,3.2-8.1,5.7c-1.8,2.5-2.6,5.4-2.6,8.9c0,5.2,1.9,9.6,5.6,13.1
								c3.8,3.6,8.7,5.3,14.9,5.3c6.2,0,11.3-1.8,15.1-5.5c3.8-3.6,5.7-8,5.7-13.2c0-3.3-0.9-6.2-2.6-8.7c-1.7-2.4-4.4-4.3-7.9-5.7
								c4.4-1.4,7.7-3.7,10-6.9c2.3-3.2,3.4-7,3.4-11.4c0-6.1-2.2-11.3-6.5-15.4c-4.3-4.2-10-6.2-17.1-6.2S212.3,0.9,208,5
								c-4.3,4.2-6.5,9.4-6.5,15.7c0,4.7,1.2,8.6,3.5,11.7C207.4,35.5,210.7,37.7,215.1,38.8z M213.3,53.7c0-3.4,1.1-6.2,3.3-8.3
								c2.2-2.1,5-3.2,8.5-3.2c3.4,0,6.2,1.1,8.3,3.2c2.2,2.1,3.2,4.8,3.2,7.8c0,3.2-1.1,5.9-3.4,8.1c-2.2,2.2-5,3.3-8.3,3.3
								c-3.4,0-6.1-1.1-8.4-3.2C214.4,59.3,213.3,56.7,213.3,53.7z M210.5,20.7c0-2.5,0.6-4.9,1.8-7.3s3-4.2,5.3-5.5
								c2.3-1.3,4.9-1.9,7.6-1.9c4.2,0,7.7,1.3,10.4,4c2.7,2.7,4.1,6.1,4.1,10.3c0,4.2-1.4,7.7-4.2,10.5s-6.3,4.2-10.6,4.2
								c-4.1,0-7.6-1.4-10.3-4.1C211.9,28.2,210.5,24.8,210.5,20.7z"/>
						</g>
						<g>
							<path id="ArialMT-35" d="M257.2,18.7l9.2,0.8c0.7-4.5,2.3-7.9,4.8-10.1c2.5-2.3,5.5-3.4,9-3.4c4.2,0,7.8,1.6,10.7,4.8
								c2.9,3.2,4.4,7.4,4.4,12.7c0,5-1.4,9-4.2,11.9c-2.8,2.9-6.5,4.4-11.1,4.4c-2.8,0-5.4-0.6-7.7-1.9c-2.3-1.3-4.1-2.9-5.4-5
								l-8.2,1.1l6.9,36.8h35.6v-8.4h-28.6L268.9,43c4.3,3,8.8,4.5,13.5,4.5c6.2,0,11.5-2.2,15.8-6.5c4.3-4.3,6.5-9.9,6.5-16.7
								c0-6.5-1.9-12.1-5.7-16.8c-4.6-5.8-10.9-8.7-18.8-8.7c-6.5,0-11.8,1.8-16,5.5C260.1,7.9,257.8,12.7,257.2,18.7z"/>
						</g>
					</g>
				</g>
			</g>
			<g id="ytick_2">
				<g id="line2d_5">
					<g>
						<g>
							<path id="mf680374235_00000029033709401897839920000007621028072094171811_" class="st1" d="M25.8,98.9h-3.5"/>
						</g>
					</g>
				</g>
				<g id="text_5">
					<g transform="translate(0.2825 101.0467)scale(0.06 -0.06)">
						<g>
							<path id="ArialMT-2212_00000042722876735960385910000002166856350209865149_" d="M52.8,31.2H5.6v8.2h47.3V31.2z"/>
						</g>
						<g>
							<path id="ArialMT-30_00000101072822026117191030000006968483230203246236_" d="M62.6,35.3c0,8.5,0.9,15.3,2.6,20.4
								c1.7,5.2,4.3,9.1,7.8,11.9c3.4,2.8,7.8,4.2,13,4.2c3.8,0,7.2-0.8,10.1-2.3c2.9-1.5,5.3-3.8,7.2-6.7c1.9-2.9,3.4-6.5,4.5-10.6
								c1.1-4.2,1.6-9.8,1.6-16.9c0-8.4-0.9-15.2-2.6-20.3c-1.7-5.2-4.3-9.1-7.7-12c-3.4-2.8-7.8-4.2-13-4.2
								c-6.9,0-12.3,2.5-16.2,7.4C64.9,12.2,62.6,21.9,62.6,35.3z M71.6,35.3c0-11.8,1.4-19.6,4.1-23.5C78.5,7.9,81.9,6,85.9,6
								c4,0,7.4,2,10.2,5.9s4.1,11.7,4.1,23.4c0,11.8-1.4,19.6-4.1,23.5c-2.8,3.9-6.2,5.8-10.3,5.8c-4,0-7.3-1.7-9.7-5.1
								C73.1,55.1,71.6,47.1,71.6,35.3z"/>
						</g>
						<g>
							<path id="ArialMT-2e_00000083786079091030180890000012591829186223226045_" d="M123.1,0v10h10V0H123.1z"/>
						</g>
						<g>
							<path id="ArialMT-30_00000158730807601206878690000015039661232532013955_" d="M146,35.3c0,8.5,0.9,15.3,2.6,20.4
								c1.7,5.2,4.3,9.1,7.8,11.9c3.4,2.8,7.8,4.2,13,4.2c3.8,0,7.2-0.8,10.1-2.3c2.9-1.5,5.3-3.8,7.2-6.7c1.9-2.9,3.4-6.5,4.5-10.6
								c1.1-4.2,1.6-9.8,1.6-16.9c0-8.4-0.9-15.2-2.6-20.3c-1.7-5.2-4.3-9.1-7.7-12c-3.4-2.8-7.8-4.2-13-4.2
								c-6.9,0-12.3,2.5-16.2,7.4C148.3,12.2,146,21.9,146,35.3z M155,35.3c0-11.8,1.4-19.6,4.1-23.5c2.8-3.9,6.1-5.8,10.2-5.8
								c4,0,7.4,2,10.2,5.9s4.1,11.7,4.1,23.4c0,11.8-1.4,19.6-4.1,23.5c-2.8,3.9-6.2,5.8-10.3,5.8c-4,0-7.3-1.7-9.7-5.1
								C156.5,55.1,155,47.1,155,35.3z"/>
						</g>
						<g>
							<path id="ArialMT-38_00000040575893350866837260000012789209748069051836_" d="M215.1,38.8c-3.6,1.3-6.3,3.2-8.1,5.7
								c-1.8,2.5-2.6,5.4-2.6,8.9c0,5.2,1.9,9.6,5.6,13.1c3.8,3.6,8.7,5.3,14.9,5.3c6.2,0,11.3-1.8,15.1-5.5c3.8-3.6,5.7-8,5.7-13.2
								c0-3.3-0.9-6.2-2.6-8.7c-1.7-2.4-4.4-4.3-7.9-5.7c4.4-1.4,7.7-3.7,10-6.9c2.3-3.2,3.4-7,3.4-11.4c0-6.1-2.2-11.3-6.5-15.4
								c-4.3-4.2-10-6.2-17.1-6.2S212.3,0.9,208,5c-4.3,4.2-6.5,9.4-6.5,15.7c0,4.7,1.2,8.6,3.5,11.7
								C207.4,35.5,210.7,37.7,215.1,38.8z M213.3,53.7c0-3.4,1.1-6.2,3.3-8.3c2.2-2.1,5-3.2,8.5-3.2c3.4,0,6.2,1.1,8.3,3.2
								c2.2,2.1,3.2,4.8,3.2,7.8c0,3.2-1.1,5.9-3.4,8.1c-2.2,2.2-5,3.3-8.3,3.3c-3.4,0-6.1-1.1-8.4-3.2
								C214.4,59.3,213.3,56.7,213.3,53.7z M210.5,20.7c0-2.5,0.6-4.9,1.8-7.3s3-4.2,5.3-5.5c2.3-1.3,4.9-1.9,7.6-1.9
								c4.2,0,7.7,1.3,10.4,4c2.7,2.7,4.1,6.1,4.1,10.3c0,4.2-1.4,7.7-4.2,10.5s-6.3,4.2-10.6,4.2c-4.1,0-7.6-1.4-10.3-4.1
								C211.9,28.2,210.5,24.8,210.5,20.7z"/>
						</g>
						<g>
							<path id="ArialMT-30_00000118378670843708114680000002677492941059024040_" d="M257.2,35.3c0,8.5,0.9,15.3,2.6,20.4
								c1.7,5.2,4.3,9.1,7.8,11.9c3.4,2.8,7.8,4.2,13,4.2c3.8,0,7.2-0.8,10.1-2.3c2.9-1.5,5.3-3.8,7.2-6.7c1.9-2.9,3.4-6.5,4.5-10.6
								c1.1-4.2,1.6-9.8,1.6-16.9c0-8.4-0.9-15.2-2.6-20.3c-1.7-5.2-4.3-9.1-7.7-12c-3.4-2.8-7.8-4.2-13-4.2
								c-6.9,0-12.3,2.5-16.2,7.4C259.5,12.2,257.2,21.9,257.2,35.3z M266.2,35.3c0-11.8,1.4-19.6,4.1-23.5
								c2.8-3.9,6.1-5.8,10.2-5.8c4,0,7.4,2,10.2,5.9s4.1,11.7,4.1,23.4c0,11.8-1.4,19.6-4.1,23.5c-2.8,3.9-6.2,5.8-10.3,5.8
								c-4,0-7.3-1.7-9.7-5.1C267.7,55.1,266.2,47.1,266.2,35.3z"/>
						</g>
					</g>
				</g>
			</g>
			<g id="ytick_3">
				<g id="line2d_6">
					<g>
						<g>
							<path id="mf680374235_00000063591374575640963890000003468563205286577025_" class="st1" d="M25.8,83.6h-3.5"/>
						</g>
					</g>
				</g>
				<g id="text_6">
					<g transform="translate(0.2825 85.713629)scale(0.06 -0.06)">
						<g>
							<path id="ArialMT-2212_00000072252490106926907660000010973771710064139667_" d="M52.8,31.2H5.6v8.2h47.3V31.2z"/>
						</g>
						<g>
							<path id="ArialMT-30_00000075868072846792590310000007363478116483492013_" d="M62.6,35.3c0,8.5,0.9,15.3,2.6,20.4
								c1.7,5.2,4.3,9.1,7.8,11.9c3.4,2.8,7.8,4.2,13,4.2c3.8,0,7.2-0.8,10.1-2.3c2.9-1.5,5.3-3.8,7.2-6.7c1.9-2.9,3.4-6.5,4.5-10.6
								c1.1-4.2,1.6-9.8,1.6-16.9c0-8.4-0.9-15.2-2.6-20.3c-1.7-5.2-4.3-9.1-7.7-12c-3.4-2.8-7.8-4.2-13-4.2
								c-6.9,0-12.3,2.5-16.2,7.4C64.9,12.2,62.6,21.9,62.6,35.3z M71.6,35.3c0-11.7,1.4-19.6,4.1-23.5C78.5,7.9,81.9,6,85.9,6
								c4,0,7.4,2,10.2,5.9s4.1,11.7,4.1,23.4c0,11.8-1.4,19.6-4.1,23.5c-2.8,3.9-6.2,5.8-10.3,5.8c-4,0-7.3-1.7-9.7-5.1
								C73.1,55.1,71.6,47.1,71.6,35.3z"/>
						</g>
						<g>
							<path id="ArialMT-2e_00000139294974652432189900000000837016609999505060_" d="M123.1,0v10h10V0H123.1z"/>
						</g>
						<g>
							<path id="ArialMT-30_00000029758054778578047780000015517837857941398972_" d="M146,35.3c0,8.5,0.9,15.3,2.6,20.4
								c1.7,5.2,4.3,9.1,7.8,11.9c3.4,2.8,7.8,4.2,13,4.2c3.8,0,7.2-0.8,10.1-2.3c2.9-1.5,5.3-3.8,7.2-6.7c1.9-2.9,3.4-6.5,4.5-10.6
								c1.1-4.2,1.6-9.8,1.6-16.9c0-8.4-0.9-15.2-2.6-20.3c-1.7-5.2-4.3-9.1-7.7-12c-3.4-2.8-7.8-4.2-13-4.2
								c-6.9,0-12.3,2.5-16.2,7.4C148.3,12.2,146,21.9,146,35.3z M155,35.3c0-11.7,1.4-19.6,4.1-23.5c2.8-3.9,6.1-5.8,10.2-5.8
								c4,0,7.4,2,10.2,5.9s4.1,11.7,4.1,23.4c0,11.8-1.4,19.6-4.1,23.5c-2.8,3.9-6.2,5.8-10.3,5.8c-4,0-7.3-1.7-9.7-5.1
								C156.5,55.1,155,47.1,155,35.3z"/>
						</g>
						<g>
							<path id="ArialMT-37" d="M202.1,62.2v8.5h46.3v-6.8c-4.6-4.8-9.1-11.3-13.6-19.3c-4.5-8-7.9-16.3-10.4-24.8
								c-1.8-6-2.9-12.5-3.4-19.7h-9c0.1,5.6,1.2,12.4,3.3,20.4c2.1,8,5.2,15.7,9.1,23.1c4,7.4,8.2,13.6,12.6,18.7H202.1z"/>
						</g>
						<g>
							<path id="ArialMT-35_00000150803695881739209230000013655222069075305385_" d="M257.2,18.8l9.2,0.8c0.7-4.5,2.3-7.9,4.8-10.1
								c2.5-2.3,5.5-3.4,9-3.4c4.2,0,7.8,1.6,10.7,4.8c2.9,3.2,4.4,7.4,4.4,12.7c0,5-1.4,9-4.2,11.9c-2.8,2.9-6.5,4.4-11.1,4.4
								c-2.8,0-5.4-0.6-7.7-1.9c-2.3-1.3-4.1-2.9-5.4-5l-8.2,1.1l6.9,36.8h35.6v-8.4h-28.6L268.9,43c4.3,3,8.8,4.5,13.5,4.5
								c6.2,0,11.5-2.2,15.8-6.5c4.3-4.3,6.5-9.9,6.5-16.7c0-6.5-1.9-12.1-5.7-16.8c-4.6-5.8-10.9-8.7-18.8-8.7
								c-6.5,0-11.8,1.8-16,5.5C260.1,7.9,257.8,12.7,257.2,18.8z"/>
						</g>
					</g>
				</g>
			</g>
			<g id="ytick_4">
				<g id="line2d_7">
					<g>
						<g>
							<path id="mf680374235_00000080170605452897192930000013736140639523034257_" class="st1" d="M25.8,68.2h-3.5"/>
						</g>
					</g>
				</g>
				<g id="text_7">
					<g transform="translate(0.2825 70.380557)scale(0.06 -0.06)">
						<g>
							<path id="ArialMT-2212_00000082359706455437195260000011789389779706674849_" d="M52.8,31.2H5.6v8.2h47.3V31.2z"/>
						</g>
						<g>
							<path id="ArialMT-30_00000083770504298947702040000004099278929096109442_" d="M62.6,35.3c0,8.5,0.9,15.3,2.6,20.4
								c1.7,5.2,4.3,9.1,7.8,11.9c3.4,2.8,7.8,4.2,13,4.2c3.8,0,7.2-0.8,10.1-2.3c2.9-1.5,5.3-3.8,7.2-6.7c1.9-2.9,3.4-6.5,4.5-10.6
								c1.1-4.2,1.6-9.8,1.6-16.9c0-8.4-0.9-15.2-2.6-20.3c-1.7-5.2-4.3-9.1-7.7-12c-3.4-2.8-7.8-4.2-13-4.2
								c-6.9,0-12.3,2.5-16.2,7.4C64.9,12.2,62.6,21.9,62.6,35.3z M71.6,35.3c0-11.8,1.4-19.6,4.1-23.5C78.5,7.9,81.9,6,85.9,6
								c4,0,7.4,2,10.2,5.9s4.1,11.7,4.1,23.4c0,11.8-1.4,19.6-4.1,23.5c-2.8,3.9-6.2,5.8-10.3,5.8c-4,0-7.3-1.7-9.7-5.1
								C73.1,55.1,71.6,47.1,71.6,35.3z"/>
						</g>
						<g>
							<path id="ArialMT-2e_00000170237636113898734540000005814234811568455828_" d="M123.1,0v10h10V0H123.1z"/>
						</g>
						<g>
							<path id="ArialMT-30_00000028317702615289950860000006881144883037261992_" d="M146,35.3c0,8.5,0.9,15.3,2.6,20.4
								c1.7,5.2,4.3,9.1,7.8,11.9c3.4,2.8,7.8,4.2,13,4.2c3.8,0,7.2-0.8,10.1-2.3c2.9-1.5,5.3-3.8,7.2-6.7c1.9-2.9,3.4-6.5,4.5-10.6
								c1.1-4.2,1.6-9.8,1.6-16.9c0-8.4-0.9-15.2-2.6-20.3c-1.7-5.2-4.3-9.1-7.7-12c-3.4-2.8-7.8-4.2-13-4.2
								c-6.9,0-12.3,2.5-16.2,7.4C148.3,12.2,146,21.9,146,35.3z M155,35.3c0-11.8,1.4-19.6,4.1-23.5c2.8-3.9,6.1-5.8,10.2-5.8
								c4,0,7.4,2,10.2,5.9s4.1,11.7,4.1,23.4c0,11.8-1.4,19.6-4.1,23.5c-2.8,3.9-6.2,5.8-10.3,5.8c-4,0-7.3-1.7-9.7-5.1
								C156.5,55.1,155,47.1,155,35.3z"/>
						</g>
						<g>
							<path id="ArialMT-37_00000060717816348544095930000003392562019701155462_" d="M202.1,62.2v8.5h46.3v-6.8
								c-4.6-4.8-9.1-11.3-13.6-19.3c-4.5-8-7.9-16.3-10.4-24.8c-1.8-6-2.9-12.5-3.4-19.7h-9c0.1,5.6,1.2,12.4,3.3,20.4
								c2.1,8,5.2,15.7,9.1,23.1c4,7.4,8.2,13.6,12.6,18.7H202.1z"/>
						</g>
						<g>
							<path id="ArialMT-30_00000009576880333824699700000008197374402421417860_" d="M257.2,35.3c0,8.5,0.9,15.3,2.6,20.4
								c1.7,5.2,4.3,9.1,7.8,11.9c3.4,2.8,7.8,4.2,13,4.2c3.8,0,7.2-0.8,10.1-2.3c2.9-1.5,5.3-3.8,7.2-6.7c1.9-2.9,3.4-6.5,4.5-10.6
								c1.1-4.2,1.6-9.8,1.6-16.9c0-8.4-0.9-15.2-2.6-20.3c-1.7-5.2-4.3-9.1-7.7-12c-3.4-2.8-7.8-4.2-13-4.2
								c-6.9,0-12.3,2.5-16.2,7.4C259.5,12.2,257.2,21.9,257.2,35.3z M266.2,35.3c0-11.8,1.4-19.6,4.1-23.5
								c2.8-3.9,6.1-5.8,10.2-5.8c4,0,7.4,2,10.2,5.9s4.1,11.7,4.1,23.4c0,11.8-1.4,19.6-4.1,23.5c-2.8,3.9-6.2,5.8-10.3,5.8
								c-4,0-7.3-1.7-9.7-5.1C267.7,55.1,266.2,47.1,266.2,35.3z"/>
						</g>
					</g>
				</g>
			</g>
			<g id="ytick_5">
				<g id="line2d_8">
					<g>
						<g>
							<path id="mf680374235_00000168824561882298028190000012483058052938468505_" class="st1" d="M25.8,52.9h-3.5"/>
						</g>
					</g>
				</g>
				<g id="text_8">
					<g transform="translate(0.2825 55.047485)scale(0.06 -0.06)">
						<g>
							<path id="ArialMT-2212_00000012431187157074224120000002399344834958420901_" d="M52.8,31.2H5.6v8.2h47.3V31.2z"/>
						</g>
						<g>
							<path id="ArialMT-30_00000003077995726788352330000014162461397844422795_" d="M62.6,35.3c0,8.5,0.9,15.3,2.6,20.4
								c1.7,5.2,4.3,9.1,7.8,11.9c3.4,2.8,7.8,4.2,13,4.2c3.8,0,7.2-0.8,10.1-2.3c2.9-1.5,5.3-3.8,7.2-6.7c1.9-2.9,3.4-6.5,4.5-10.6
								c1.1-4.2,1.6-9.8,1.6-16.9c0-8.4-0.9-15.2-2.6-20.3c-1.7-5.2-4.3-9.1-7.7-12c-3.4-2.8-7.8-4.2-13-4.2
								c-6.9,0-12.3,2.5-16.2,7.4C64.9,12.2,62.6,21.9,62.6,35.3z M71.6,35.3c0-11.7,1.4-19.6,4.1-23.5C78.5,7.9,81.9,6,85.9,6
								c4,0,7.4,2,10.2,5.9s4.1,11.7,4.1,23.4c0,11.8-1.4,19.6-4.1,23.5c-2.8,3.9-6.2,5.8-10.3,5.8c-4,0-7.3-1.7-9.7-5.1
								C73.1,55.1,71.6,47.1,71.6,35.3z"/>
						</g>
						<g>
							<path id="ArialMT-2e_00000119830517572481162700000012950662527332758144_" d="M123.1,0v10h10V0H123.1z"/>
						</g>
						<g>
							<path id="ArialMT-30_00000105385038732078983250000009210566552671401090_" d="M146,35.3c0,8.5,0.9,15.3,2.6,20.4
								c1.7,5.2,4.3,9.1,7.8,11.9c3.4,2.8,7.8,4.2,13,4.2c3.8,0,7.2-0.8,10.1-2.3c2.9-1.5,5.3-3.8,7.2-6.7c1.9-2.9,3.4-6.5,4.5-10.6
								c1.1-4.2,1.6-9.8,1.6-16.9c0-8.4-0.9-15.2-2.6-20.3c-1.7-5.2-4.3-9.1-7.7-12c-3.4-2.8-7.8-4.2-13-4.2
								c-6.9,0-12.3,2.5-16.2,7.4C148.3,12.2,146,21.9,146,35.3z M155,35.3c0-11.7,1.4-19.6,4.1-23.5c2.8-3.9,6.1-5.8,10.2-5.8
								c4,0,7.4,2,10.2,5.9s4.1,11.7,4.1,23.4c0,11.8-1.4,19.6-4.1,23.5c-2.8,3.9-6.2,5.8-10.3,5.8c-4,0-7.3-1.7-9.7-5.1
								C156.5,55.1,155,47.1,155,35.3z"/>
						</g>
						<g>
							<path id="ArialMT-36" d="M247.2,54l-8.7-0.7c-0.8,3.4-1.9,6-3.3,7.5c-2.4,2.5-5.3,3.8-8.8,3.8c-2.8,0-5.3-0.8-7.4-2.3
								c-2.8-2-4.9-5-6.5-8.8c-1.6-3.9-2.4-9.4-2.5-16.5c2.1,3.2,4.7,5.6,7.8,7.2s6.3,2.3,9.6,2.3c5.9,0,10.8-2.2,15-6.5
								c4.1-4.3,6.2-9.9,6.2-16.7c0-4.5-1-8.7-2.9-12.5s-4.6-6.8-8-8.9c-3.4-2.1-7.2-3.1-11.5-3.1c-7.3,0-13.3,2.7-17.9,8.1
								c-4.6,5.4-6.9,14.3-6.9,26.6c0,13.8,2.6,23.9,7.7,30.2c4.5,5.5,10.5,8.2,18,8.2c5.6,0,10.2-1.6,13.8-4.7
								C244.3,64,246.5,59.6,247.2,54z M211.3,23.2c0-3,0.6-5.9,1.9-8.7c1.3-2.8,3.1-4.9,5.4-6.3c2.3-1.4,4.7-2.2,7.3-2.2
								c3.7,0,6.9,1.5,9.6,4.5c2.7,3,4,7.1,4,12.2c0,4.9-1.3,8.8-4,11.7c-2.6,2.9-6,4.3-10,4.3c-4,0-7.3-1.4-10.1-4.3
								C212.7,31.5,211.3,27.8,211.3,23.2z"/>
						</g>
						<g>
							<path id="ArialMT-35_00000105403634819230885500000008152889910245974934_" d="M257.2,18.7l9.2,0.8c0.7-4.5,2.3-7.9,4.8-10.1
								c2.5-2.3,5.5-3.4,9-3.4c4.2,0,7.8,1.6,10.7,4.8c2.9,3.2,4.4,7.4,4.4,12.7c0,5-1.4,9-4.2,11.9c-2.8,2.9-6.5,4.4-11.1,4.4
								c-2.8,0-5.4-0.6-7.7-1.9c-2.3-1.3-4.1-2.9-5.4-5l-8.2,1.1l6.9,36.8h35.6v-8.4h-28.6L268.9,43c4.3,3,8.8,4.5,13.5,4.5
								c6.2,0,11.5-2.2,15.8-6.5c4.3-4.3,6.5-9.9,6.5-16.7c0-6.5-1.9-12.1-5.7-16.8c-4.6-5.8-10.9-8.7-18.8-8.7
								c-6.5,0-11.8,1.8-16,5.5C260.1,7.9,257.8,12.7,257.2,18.7z"/>
						</g>
					</g>
				</g>
			</g>
			<g id="ytick_6">
				<g id="line2d_9">
					<g>
						<g>
							<path id="mf680374235_00000146461818072837268480000013871026092799725462_" class="st1" d="M25.8,37.6h-3.5"/>
						</g>
					</g>
				</g>
				<g id="text_9">
					<g transform="translate(0.2825 39.714414)scale(0.06 -0.06)">
						<g>
							<path id="ArialMT-2212_00000145781341193996428980000015836457057169537193_" d="M52.8,31.2H5.6v8.2h47.3V31.2z"/>
						</g>
						<g>
							<path id="ArialMT-30_00000032622925012547041900000011656272325733392791_" d="M62.6,35.3c0,8.5,0.9,15.3,2.6,20.4
								c1.7,5.2,4.3,9.1,7.8,11.9c3.4,2.8,7.8,4.2,13,4.2c3.8,0,7.2-0.8,10.1-2.3c2.9-1.5,5.3-3.8,7.2-6.7c1.9-2.9,3.4-6.5,4.5-10.6
								c1.1-4.2,1.6-9.8,1.6-16.9c0-8.4-0.9-15.2-2.6-20.3c-1.7-5.2-4.3-9.1-7.7-12c-3.4-2.8-7.8-4.2-13-4.2
								c-6.9,0-12.3,2.5-16.2,7.4C64.9,12.2,62.6,21.9,62.6,35.3z M71.6,35.3c0-11.8,1.4-19.6,4.1-23.5C78.5,7.9,81.9,6,85.9,6
								c4,0,7.4,2,10.2,5.9s4.1,11.7,4.1,23.4c0,11.8-1.4,19.6-4.1,23.5c-2.8,3.9-6.2,5.8-10.3,5.8c-4,0-7.3-1.7-9.7-5.1
								C73.1,55.1,71.6,47.1,71.6,35.3z"/>
						</g>
						<g>
							<path id="ArialMT-2e_00000155131761309044265480000003641722976993315988_" d="M123.1,0v10h10V0H123.1z"/>
						</g>
						<g>
							<path id="ArialMT-30_00000142856185572212404510000006136862897076946110_" d="M146,35.3c0,8.5,0.9,15.3,2.6,20.4
								c1.7,5.2,4.3,9.1,7.8,11.9c3.4,2.8,7.8,4.2,13,4.2c3.8,0,7.2-0.8,10.1-2.3c2.9-1.5,5.3-3.8,7.2-6.7c1.9-2.9,3.4-6.5,4.5-10.6
								c1.1-4.2,1.6-9.8,1.6-16.9c0-8.4-0.9-15.2-2.6-20.3c-1.7-5.2-4.3-9.1-7.7-12c-3.4-2.8-7.8-4.2-13-4.2
								c-6.9,0-12.3,2.5-16.2,7.4C148.3,12.2,146,21.9,146,35.3z M155,35.3c0-11.8,1.4-19.6,4.1-23.5c2.8-3.9,6.1-5.8,10.2-5.8
								c4,0,7.4,2,10.2,5.9s4.1,11.7,4.1,23.4c0,11.8-1.4,19.6-4.1,23.5c-2.8,3.9-6.2,5.8-10.3,5.8c-4,0-7.3-1.7-9.7-5.1
								C156.5,55.1,155,47.1,155,35.3z"/>
						</g>
						<g>
							<path id="ArialMT-36_00000059994651084965451120000013871898794037239465_" d="M247.2,54l-8.7-0.7c-0.8,3.4-1.9,6-3.3,7.5
								c-2.4,2.5-5.3,3.8-8.8,3.8c-2.8,0-5.3-0.8-7.4-2.3c-2.8-2-4.9-5-6.5-8.8c-1.6-3.9-2.4-9.4-2.5-16.5c2.1,3.2,4.7,5.6,7.8,7.2
								s6.3,2.3,9.6,2.3c5.9,0,10.8-2.2,15-6.5c4.1-4.3,6.2-9.9,6.2-16.7c0-4.5-1-8.7-2.9-12.5s-4.6-6.8-8-8.9
								c-3.4-2.1-7.2-3.1-11.5-3.1c-7.3,0-13.3,2.7-17.9,8.1c-4.6,5.4-6.9,14.3-6.9,26.6c0,13.8,2.6,23.9,7.7,30.2
								c4.5,5.5,10.5,8.2,18,8.2c5.6,0,10.2-1.6,13.8-4.7C244.3,64,246.5,59.6,247.2,54z M211.3,23.2c0-3,0.6-5.9,1.9-8.7
								c1.3-2.8,3.1-4.9,5.4-6.3c2.3-1.4,4.7-2.2,7.3-2.2c3.7,0,6.9,1.5,9.6,4.5c2.7,3,4,7.1,4,12.2c0,4.9-1.3,8.8-4,11.7
								c-2.6,2.9-6,4.3-10,4.3c-4,0-7.3-1.4-10.1-4.3C212.7,31.5,211.3,27.8,211.3,23.2z"/>
						</g>
						<g>
							<path id="ArialMT-30_00000021804713005014087890000012210151184974306698_" d="M257.2,35.3c0,8.5,0.9,15.3,2.6,20.4
								c1.7,5.2,4.3,9.1,7.8,11.9c3.4,2.8,7.8,4.2,13,4.2c3.8,0,7.2-0.8,10.1-2.3c2.9-1.5,5.3-3.8,7.2-6.7c1.9-2.9,3.4-6.5,4.5-10.6
								c1.1-4.2,1.6-9.8,1.6-16.9c0-8.4-0.9-15.2-2.6-20.3c-1.7-5.2-4.3-9.1-7.7-12c-3.4-2.8-7.8-4.2-13-4.2
								c-6.9,0-12.3,2.5-16.2,7.4C259.5,12.2,257.2,21.9,257.2,35.3z M266.2,35.3c0-11.8,1.4-19.6,4.1-23.5
								c2.8-3.9,6.1-5.8,10.2-5.8c4,0,7.4,2,10.2,5.9s4.1,11.7,4.1,23.4c0,11.8-1.4,19.6-4.1,23.5c-2.8,3.9-6.2,5.8-10.3,5.8
								c-4,0-7.3-1.7-9.7-5.1C267.7,55.1,266.2,47.1,266.2,35.3z"/>
						</g>
					</g>
				</g>
			</g>
			<g id="ytick_7">
				<g id="line2d_10">
					<g>
						<g>
							<path id="mf680374235_00000052784892025345060040000012418759570734644380_" class="st1" d="M25.8,22.2h-3.5"/>
						</g>
					</g>
				</g>
				<g id="text_10">
					<g transform="translate(0.2825 24.381342)scale(0.06 -0.06)">
						<g>
							<path id="ArialMT-2212_00000103986486425555562530000015356738783647726759_" d="M52.8,31.2H5.6v8.2h47.3V31.2z"/>
						</g>
						<g>
							<path id="ArialMT-30_00000155134839368552500330000011941675661801629102_" d="M62.6,35.3c0,8.5,0.9,15.3,2.6,20.4
								c1.7,5.2,4.3,9.1,7.8,11.9c3.4,2.8,7.8,4.2,13,4.2c3.8,0,7.2-0.8,10.1-2.3c2.9-1.5,5.3-3.8,7.2-6.7c1.9-2.9,3.4-6.5,4.5-10.6
								c1.1-4.2,1.6-9.8,1.6-16.9c0-8.4-0.9-15.2-2.6-20.3c-1.7-5.2-4.3-9.1-7.7-12c-3.4-2.8-7.8-4.2-13-4.2
								c-6.9,0-12.3,2.5-16.2,7.4C64.9,12.2,62.6,21.9,62.6,35.3z M71.6,35.3c0-11.8,1.4-19.6,4.1-23.5C78.5,7.9,81.9,6,85.9,6
								c4,0,7.4,2,10.2,5.9s4.1,11.7,4.1,23.4c0,11.8-1.4,19.6-4.1,23.5c-2.8,3.9-6.2,5.8-10.3,5.8c-4,0-7.3-1.7-9.7-5.1
								C73.1,55.1,71.6,47.1,71.6,35.3z"/>
						</g>
						<g>
							<path id="ArialMT-2e_00000005980997033602186730000018295886504645325494_" d="M123.1,0v10h10V0H123.1z"/>
						</g>
						<g>
							<path id="ArialMT-30_00000060744804379440896370000003346046541120599707_" d="M146,35.3c0,8.5,0.9,15.3,2.6,20.4
								c1.7,5.2,4.3,9.1,7.8,11.9c3.4,2.8,7.8,4.2,13,4.2c3.8,0,7.2-0.8,10.1-2.3c2.9-1.5,5.3-3.8,7.2-6.7c1.9-2.9,3.4-6.5,4.5-10.6
								c1.1-4.2,1.6-9.8,1.6-16.9c0-8.4-0.9-15.2-2.6-20.3c-1.7-5.2-4.3-9.1-7.7-12c-3.4-2.8-7.8-4.2-13-4.2
								c-6.9,0-12.3,2.5-16.2,7.4C148.3,12.2,146,21.9,146,35.3z M155,35.3c0-11.8,1.4-19.6,4.1-23.5c2.8-3.9,6.1-5.8,10.2-5.8
								c4,0,7.4,2,10.2,5.9s4.1,11.7,4.1,23.4c0,11.8-1.4,19.6-4.1,23.5c-2.8,3.9-6.2,5.8-10.3,5.8c-4,0-7.3-1.7-9.7-5.1
								C156.5,55.1,155,47.1,155,35.3z"/>
						</g>
						<g>
							<path id="ArialMT-35_00000181766728012006882110000003058142821029464963_" d="M201.6,18.8l9.2,0.8c0.7-4.5,2.3-7.9,4.8-10.1
								c2.5-2.3,5.5-3.4,9-3.4c4.2,0,7.8,1.6,10.7,4.8c2.9,3.2,4.4,7.4,4.4,12.7c0,5-1.4,9-4.2,11.9c-2.8,2.9-6.5,4.4-11.1,4.4
								c-2.8,0-5.4-0.6-7.7-1.9c-2.3-1.3-4.1-2.9-5.4-5l-8.2,1.1l6.9,36.8h35.6v-8.4h-28.6L213.2,43c4.3,3,8.8,4.5,13.5,4.5
								c6.2,0,11.5-2.2,15.8-6.5c4.3-4.3,6.5-9.9,6.5-16.7c0-6.5-1.9-12.1-5.7-16.8c-4.6-5.8-10.9-8.7-18.8-8.7
								c-6.5,0-11.8,1.8-16,5.5C204.5,7.9,202.2,12.7,201.6,18.8z"/>
						</g>
						<g>
							<path id="ArialMT-35_00000115494450880486683540000002955874112172032659_" d="M257.2,18.8l9.2,0.8c0.7-4.5,2.3-7.9,4.8-10.1
								c2.5-2.3,5.5-3.4,9-3.4c4.2,0,7.8,1.6,10.7,4.8c2.9,3.2,4.4,7.4,4.4,12.7c0,5-1.4,9-4.2,11.9c-2.8,2.9-6.5,4.4-11.1,4.4
								c-2.8,0-5.4-0.6-7.7-1.9c-2.3-1.3-4.1-2.9-5.4-5l-8.2,1.1l6.9,36.8h35.6v-8.4h-28.6L268.9,43c4.3,3,8.8,4.5,13.5,4.5
								c6.2,0,11.5-2.2,15.8-6.5c4.3-4.3,6.5-9.9,6.5-16.7c0-6.5-1.9-12.1-5.7-16.8c-4.6-5.8-10.9-8.7-18.8-8.7
								c-6.5,0-11.8,1.8-16,5.5C260.1,7.9,257.8,12.7,257.2,18.8z"/>
						</g>
					</g>
				</g>
			</g>
			<g id="text_11">
				<g transform="translate(-4.91 75.388519)rotate(-90)scale(0.06 -0.06)">
					<g>
						<path id="ArialMT-68" d="M6.6,0v71.6h8.8V45.9c4.1,4.8,9.3,7.1,15.5,7.1c3.8,0,7.2-0.8,10-2.3c2.8-1.5,4.9-3.6,6.1-6.3
							s1.8-6.5,1.8-11.6V0H40v32.9c0,4.4-1,7.6-2.9,9.6s-4.6,3-8.1,3c-2.6,0-5.1-0.7-7.4-2c-2.3-1.3-3.9-3.2-4.9-5.5
							s-1.5-5.5-1.5-9.6V0H6.6z"/>
					</g>
					<g>
						<path id="ArialMT-47" d="M96.8,28.1v8.4l30.3,0.1V10c-4.7-3.7-9.5-6.5-14.4-8.4c-4.9-1.9-10-2.8-15.2-2.8
							c-7,0-13.4,1.5-19.2,4.5c-5.7,3-10.1,7.4-13,13.1c-2.9,5.7-4.4,12.1-4.4,19.1c0,7,1.5,13.5,4.4,19.5c2.9,6,7.1,10.5,12.6,13.5
							s11.8,4.4,18.9,4.4c5.2,0,9.9-0.8,14-2.5c4.2-1.7,7.5-4,9.8-7c2.4-3,4.2-6.9,5.4-11.7l-8.5-2.3c-1.1,3.6-2.4,6.5-4,8.6
							s-3.9,3.8-6.8,5c-3,1.3-6.2,1.9-9.8,1.9c-4.3,0-8.1-0.7-11.2-2c-3.2-1.3-5.7-3-7.6-5.2c-1.9-2.1-3.4-4.5-4.5-7.1
							c-1.8-4.4-2.7-9.2-2.7-14.4c0-6.4,1.1-11.7,3.3-16c2.2-4.3,5.4-7.5,9.6-9.6c4.2-2.1,8.7-3.1,13.4-3.1c4.1,0,8.1,0.8,12,2.4
							c3.9,1.6,6.9,3.3,8.9,5.1v13.3H96.8z"/>
					</g>
				</g>
			</g>
		</g>
		<g id="line2d_11">
			<g>
				<defs>
					<rect id="SVGID_1_" x="25.8" y="17" width="160" height="108.8"/>
				</defs>
				<clipPath id="SVGID_00000125604336333995304830000013586033759115780785_">
					<use xlink:href="#SVGID_1_"  style="overflow:visible;"/>
				</clipPath>
				
					<path style="clip-path:url(#SVGID_00000125604336333995304830000013586033759115780785_);fill:none;stroke:#000000;stroke-linecap:square;stroke-linejoin:round;" d="
					M44.5,95.4h16V64.4h-16V95.4"/>
			</g>
		</g>
		<g id="line2d_12">
			<g>
				<defs>
					<rect id="SVGID_00000085932145768071247000000007707851276035272095_" x="25.8" y="17" width="160" height="108.8"/>
				</defs>
				<clipPath id="SVGID_00000047780972907676711110000008202636301178748547_">
					<use xlink:href="#SVGID_00000085932145768071247000000007707851276035272095_"  style="overflow:visible;"/>
				</clipPath>
				
					<path style="clip-path:url(#SVGID_00000047780972907676711110000008202636301178748547_);fill:none;stroke:#000000;stroke-linecap:square;stroke-linejoin:round;" d="
					M52.5,95.4v21.9"/>
			</g>
		</g>
		<g id="line2d_13">
			<g>
				<defs>
					<rect id="SVGID_00000080173780052701837830000011782203829234815121_" x="25.8" y="17" width="160" height="108.8"/>
				</defs>
				<clipPath id="SVGID_00000052816647349457510070000000658835919042222254_">
					<use xlink:href="#SVGID_00000080173780052701837830000011782203829234815121_"  style="overflow:visible;"/>
				</clipPath>
				
					<path style="clip-path:url(#SVGID_00000052816647349457510070000000658835919042222254_);fill:none;stroke:#000000;stroke-linecap:square;stroke-linejoin:round;" d="
					M52.5,64.4V21.9"/>
			</g>
		</g>
		<g id="line2d_14">
			<g>
				<defs>
					<rect id="SVGID_00000139976870510803718120000007242306641141255614_" x="25.8" y="17" width="160" height="108.8"/>
				</defs>
				<clipPath id="SVGID_00000057109143378227229980000003750681617757935292_">
					<use xlink:href="#SVGID_00000139976870510803718120000007242306641141255614_"  style="overflow:visible;"/>
				</clipPath>
				
					<path style="clip-path:url(#SVGID_00000057109143378227229980000003750681617757935292_);fill:none;stroke:#000000;stroke-linecap:square;stroke-linejoin:round;" d="
					M48.5,117.2h8"/>
			</g>
		</g>
		<g id="line2d_15">
			<g>
				<defs>
					<rect id="SVGID_00000177460945273693853040000011158185769105439648_" x="25.8" y="17" width="160" height="108.8"/>
				</defs>
				<clipPath id="SVGID_00000147210098187356284810000010727709640331373710_">
					<use xlink:href="#SVGID_00000177460945273693853040000011158185769105439648_"  style="overflow:visible;"/>
				</clipPath>
				
					<path style="clip-path:url(#SVGID_00000147210098187356284810000010727709640331373710_);fill:none;stroke:#000000;stroke-linecap:square;stroke-linejoin:round;" d="
					M48.5,21.9h8"/>
			</g>
		</g>
		<g id="line2d_16">
			<g>
				<defs>
					<rect id="SVGID_00000170983364735373918270000003943979885210082487_" x="25.8" y="17" width="160" height="108.8"/>
				</defs>
				<clipPath id="SVGID_00000183230198306666948450000001795193890203240119_">
					<use xlink:href="#SVGID_00000170983364735373918270000003943979885210082487_"  style="overflow:visible;"/>
				</clipPath>
				
					<path style="clip-path:url(#SVGID_00000183230198306666948450000001795193890203240119_);fill:none;stroke:#000000;stroke-linecap:square;stroke-linejoin:round;" d="
					M97.8,97h16V78.4h-16V97"/>
			</g>
		</g>
		<g id="line2d_17">
			<g>
				<defs>
					<rect id="SVGID_00000080912905899348636490000001079733090122731954_" x="25.8" y="17" width="160" height="108.8"/>
				</defs>
				<clipPath id="SVGID_00000168083505147443855760000011872898471753112204_">
					<use xlink:href="#SVGID_00000080912905899348636490000001079733090122731954_"  style="overflow:visible;"/>
				</clipPath>
				
					<path style="clip-path:url(#SVGID_00000168083505147443855760000011872898471753112204_);fill:none;stroke:#000000;stroke-linecap:square;stroke-linejoin:round;" d="
					M105.8,97v20.3"/>
			</g>
		</g>
		<g id="line2d_18">
			<g>
				<defs>
					<rect id="SVGID_00000024686333011721476660000007077572342386720387_" x="25.8" y="17" width="160" height="108.8"/>
				</defs>
				<clipPath id="SVGID_00000102529294727826018660000004807861092607390600_">
					<use xlink:href="#SVGID_00000024686333011721476660000007077572342386720387_"  style="overflow:visible;"/>
				</clipPath>
				
					<path style="clip-path:url(#SVGID_00000102529294727826018660000004807861092607390600_);fill:none;stroke:#000000;stroke-linecap:square;stroke-linejoin:round;" d="
					M105.8,78.4V50.9"/>
			</g>
		</g>
		<g id="line2d_19">
			<g>
				<defs>
					<rect id="SVGID_00000142869814548778345080000002334531637388234676_" x="25.8" y="17" width="160" height="108.8"/>
				</defs>
				<clipPath id="SVGID_00000072248613380623374010000013953992656103086515_">
					<use xlink:href="#SVGID_00000142869814548778345080000002334531637388234676_"  style="overflow:visible;"/>
				</clipPath>
				
					<path style="clip-path:url(#SVGID_00000072248613380623374010000013953992656103086515_);fill:none;stroke:#000000;stroke-linecap:square;stroke-linejoin:round;" d="
					M101.8,117.3h8"/>
			</g>
		</g>
		<g id="line2d_20">
			<g>
				<defs>
					<rect id="SVGID_00000153673961159265312760000000890480832543267507_" x="25.8" y="17" width="160" height="108.8"/>
				</defs>
				<clipPath id="SVGID_00000171704818186883161170000003022268442805484459_">
					<use xlink:href="#SVGID_00000153673961159265312760000000890480832543267507_"  style="overflow:visible;"/>
				</clipPath>
				
					<path style="clip-path:url(#SVGID_00000171704818186883161170000003022268442805484459_);fill:none;stroke:#000000;stroke-linecap:square;stroke-linejoin:round;" d="
					M101.8,50.9h8"/>
			</g>
		</g>
		<g id="line2d_21">
			<g>
				<defs>
					<rect id="SVGID_00000062898547533026275250000004432650656933179285_" x="25.8" y="17" width="160" height="108.8"/>
				</defs>
				<clipPath id="SVGID_00000140700043436069955530000009180399646651989120_">
					<use xlink:href="#SVGID_00000062898547533026275250000004432650656933179285_"  style="overflow:visible;"/>
				</clipPath>
				
					<path style="clip-path:url(#SVGID_00000140700043436069955530000009180399646651989120_);fill:none;stroke:#000000;stroke-linecap:square;stroke-linejoin:round;" d="
					M151.1,104.6h16V91.1h-16V104.6"/>
			</g>
		</g>
		<g id="line2d_22">
			<g>
				<defs>
					<rect id="SVGID_00000076598352696847616720000004854162802593194402_" x="25.8" y="17" width="160" height="108.8"/>
				</defs>
				<clipPath id="SVGID_00000166654428953100539420000001788131499866560700_">
					<use xlink:href="#SVGID_00000076598352696847616720000004854162802593194402_"  style="overflow:visible;"/>
				</clipPath>
				
					<path style="clip-path:url(#SVGID_00000166654428953100539420000001788131499866560700_);fill:none;stroke:#000000;stroke-linecap:square;stroke-linejoin:round;" d="
					M159.1,104.6v16.3"/>
			</g>
		</g>
		<g id="line2d_23">
			<g>
				<defs>
					<rect id="SVGID_00000134941624310186115090000013529461647305744050_" x="25.8" y="17" width="160" height="108.8"/>
				</defs>
				<clipPath id="SVGID_00000171685291000561685480000004285932587807052175_">
					<use xlink:href="#SVGID_00000134941624310186115090000013529461647305744050_"  style="overflow:visible;"/>
				</clipPath>
				
					<path style="clip-path:url(#SVGID_00000171685291000561685480000004285932587807052175_);fill:none;stroke:#000000;stroke-linecap:square;stroke-linejoin:round;" d="
					M159.1,91.1V73.8"/>
			</g>
		</g>
		<g id="line2d_24">
			<g>
				<defs>
					<rect id="SVGID_00000013911123634968691750000011443584877468722316_" x="25.8" y="17" width="160" height="108.8"/>
				</defs>
				<clipPath id="SVGID_00000016755194930370989670000015453550209786228415_">
					<use xlink:href="#SVGID_00000013911123634968691750000011443584877468722316_"  style="overflow:visible;"/>
				</clipPath>
				
					<path style="clip-path:url(#SVGID_00000016755194930370989670000015453550209786228415_);fill:none;stroke:#000000;stroke-linecap:square;stroke-linejoin:round;" d="
					M155.1,120.9h8"/>
			</g>
		</g>
		<g id="line2d_25">
			<g>
				<defs>
					<rect id="SVGID_00000170279072944549130490000015298586245842190236_" x="25.8" y="17" width="160" height="108.8"/>
				</defs>
				<clipPath id="SVGID_00000129894644729706021990000007467817927513857452_">
					<use xlink:href="#SVGID_00000170279072944549130490000015298586245842190236_"  style="overflow:visible;"/>
				</clipPath>
				
					<path style="clip-path:url(#SVGID_00000129894644729706021990000007467817927513857452_);fill:none;stroke:#000000;stroke-linecap:square;stroke-linejoin:round;" d="
					M155.1,73.8h8"/>
			</g>
		</g>
		<g id="line2d_26">
			<g>
				<defs>
					<rect id="SVGID_00000136397576436894019130000004840578521812499376_" x="25.8" y="17" width="160" height="108.8"/>
				</defs>
				<clipPath id="SVGID_00000058573154471590148410000007969501447019259547_">
					<use xlink:href="#SVGID_00000136397576436894019130000004840578521812499376_"  style="overflow:visible;"/>
				</clipPath>
				
					<path style="clip-path:url(#SVGID_00000058573154471590148410000007969501447019259547_);fill:none;stroke:#FF7F0E;stroke-linecap:square;stroke-linejoin:round;" d="
					M44.5,82.6h16"/>
			</g>
		</g>
		<g id="line2d_27">
			<g>
				<defs>
					<rect id="SVGID_00000043442547372805889960000011591963696239083399_" x="25.8" y="17" width="160" height="108.8"/>
				</defs>
				<clipPath id="SVGID_00000075153976639753306280000000775075123135002252_">
					<use xlink:href="#SVGID_00000043442547372805889960000011591963696239083399_"  style="overflow:visible;"/>
				</clipPath>
				
					<path style="clip-path:url(#SVGID_00000075153976639753306280000000775075123135002252_);fill:none;stroke:#FF7F0E;stroke-linecap:square;stroke-linejoin:round;" d="
					M97.8,88.4h16"/>
			</g>
		</g>
		<g id="line2d_28">
			<g>
				<defs>
					<rect id="SVGID_00000070805767123891041690000018176582404475087023_" x="25.8" y="17" width="160" height="108.8"/>
				</defs>
				<clipPath id="SVGID_00000004545530117033774510000018074909701792136328_">
					<use xlink:href="#SVGID_00000070805767123891041690000018176582404475087023_"  style="overflow:visible;"/>
				</clipPath>
				
					<path style="clip-path:url(#SVGID_00000004545530117033774510000018074909701792136328_);fill:none;stroke:#FF7F0E;stroke-linecap:square;stroke-linejoin:round;" d="
					M151.1,97.3h16"/>
			</g>
		</g>
		<g id="patch_3">
			<path class="st20" d="M25.8,125.8V17"/>
		</g>
		<g id="patch_4">
			<path class="st20" d="M185.8,125.8V17"/>
		</g>
		<g id="patch_5">
			<path class="st20" d="M25.8,125.8h160"/>
		</g>
		<g id="patch_6">
			<path class="st20" d="M25.8,17h160"/>
		</g>
	</g>
</g>
</svg>
