<?xml version="1.0" encoding="utf-8"?>
<!-- Generator: Adobe Illustrator 26.4.1, SVG Export Plug-In . SVG Version: 6.00 Build 0)  -->
<svg version="1.1" id="Layer_1" xmlns="http://www.w3.org/2000/svg" xmlns:xlink="http://www.w3.org/1999/xlink" x="0px" y="0px"
	 viewBox="0 0 324 332" style="enable-background:new 0 0 324 332;" xml:space="preserve">
<style type="text/css">
	.st0{fill:none;stroke:#262626;stroke-width:1.3333;stroke-linecap:square;stroke-linejoin:round;stroke-miterlimit:10;}
	.st1{fill:#262626;}
	.st2{font-family:'ArialMT';}
	.st3{font-size:12.6667px;}
	.st4{fill:#0000FF;}
	.st5{fill:none;stroke:#0000FF;stroke-width:1.3333;stroke-linejoin:round;stroke-miterlimit:10;}
	.st6{fill:none;stroke:#000000;stroke-width:1.3333;stroke-linejoin:round;stroke-miterlimit:10;}
	.st7{fill:#FF0000;}
	.st8{fill:none;stroke:#FF0000;stroke-width:1.3333;stroke-linejoin:round;stroke-miterlimit:10;}
</style>
<g>
	<g>
		<line class="st0" x1="42" y1="295" x2="293" y2="295"/>
		<line class="st0" x1="64.8" y1="295" x2="64.8" y2="292.3"/>
		<line class="st0" x1="87.6" y1="295" x2="87.6" y2="292.3"/>
		<line class="st0" x1="110.5" y1="295" x2="110.5" y2="292.3"/>
		<line class="st0" x1="133.3" y1="295" x2="133.3" y2="292.3"/>
		<line class="st0" x1="156.1" y1="295" x2="156.1" y2="292.3"/>
		<line class="st0" x1="178.9" y1="295" x2="178.9" y2="292.3"/>
		<line class="st0" x1="201.7" y1="295" x2="201.7" y2="292.3"/>
		<line class="st0" x1="224.5" y1="295" x2="224.5" y2="292.3"/>
		<line class="st0" x1="247.4" y1="295" x2="247.4" y2="292.3"/>
		<line class="st0" x1="270.2" y1="295" x2="270.2" y2="292.3"/>
	</g>
	<g transform="translate(64.8182,299.5333)">
		<text transform="matrix(1 0 0 1 -4 13)" class="st1 st2 st3">1</text>
	</g>
	<g transform="translate(87.6364,299.5333)">
		<text transform="matrix(1 0 0 1 -4 13)" class="st1 st2 st3">2</text>
	</g>
	<g transform="translate(110.4545,299.5333)">
		<text transform="matrix(1 0 0 1 -4 13)" class="st1 st2 st3">3</text>
	</g>
	<g transform="translate(133.2727,299.5333)">
		<text transform="matrix(1 0 0 1 -4 13)" class="st1 st2 st3">4</text>
	</g>
	<g transform="translate(156.0909,299.5333)">
		<text transform="matrix(1 0 0 1 -4 13)" class="st1 st2 st3">5</text>
	</g>
	<g transform="translate(178.9091,299.5333)">
		<text transform="matrix(1 0 0 1 -4 13)" class="st1 st2 st3">6</text>
	</g>
	<g transform="translate(201.7273,299.5333)">
		<text transform="matrix(1 0 0 1 -4 13)" class="st1 st2 st3">7</text>
	</g>
	<g transform="translate(224.5455,299.5333)">
		<text transform="matrix(1 0 0 1 -4 13)" class="st1 st2 st3">8</text>
	</g>
	<g transform="translate(247.3636,299.5333)">
		<text transform="matrix(1 0 0 1 -4 13)" class="st1 st2 st3">9</text>
	</g>
	<g transform="translate(270.1818,299.5333)">
		<text transform="matrix(1 0 0 1 -7.5 13)" class="st1 st2 st3">10</text>
	</g>
	<g>
		<line class="st0" x1="42" y1="295" x2="42" y2="25"/>
		<line class="st0" x1="42" y1="295" x2="44.7" y2="295"/>
		<line class="st0" x1="42" y1="250" x2="44.7" y2="250"/>
		<line class="st0" x1="42" y1="205" x2="44.7" y2="205"/>
		<line class="st0" x1="42" y1="160" x2="44.7" y2="160"/>
		<line class="st0" x1="42" y1="115" x2="44.7" y2="115"/>
		<line class="st0" x1="42" y1="70" x2="44.7" y2="70"/>
		<line class="st0" x1="42" y1="25" x2="44.7" y2="25"/>
	</g>
	<g transform="translate(37.4667,295)">
		<text transform="matrix(1 0 0 1 -8 5)" class="st1 st2 st3">5</text>
	</g>
	<g transform="translate(37.4667,250)">
		<text transform="matrix(1 0 0 1 -15 5)" class="st1 st2 st3">10</text>
	</g>
	<g transform="translate(37.4667,205)">
		<text transform="matrix(1 0 0 1 -15 5)" class="st1 st2 st3">15</text>
	</g>
	<g transform="translate(37.4667,160)">
		<text transform="matrix(1 0 0 1 -15 5)" class="st1 st2 st3">20</text>
	</g>
	<g transform="translate(37.4667,115)">
		<text transform="matrix(1 0 0 1 -15 5)" class="st1 st2 st3">25</text>
	</g>
	<g transform="translate(37.4667,70)">
		<text transform="matrix(1 0 0 1 -15 5)" class="st1 st2 st3">30</text>
	</g>
	<g transform="translate(37.4667,25)">
		<text transform="matrix(1 0 0 1 -15 5)" class="st1 st2 st3">35</text>
	</g>
	<g transform="translate(64.8182,260.0116)">
		<circle class="st4" cx="0" cy="0" r="3.9"/>
	</g>
	<g transform="translate(64.8182,260.0116)">
		<path class="st4" d="M0-3.2c1.8,0,3.2,1.5,3.2,3.2l0,0c0,1.8-1.5,3.2-3.2,3.2S-3.2,1.8-3.2,0S-1.8-3.2,0-3.2z M0-4.6
			c-2.5,0-4.6,2-4.6,4.6s2,4.6,4.6,4.6s4.6-2,4.6-4.6l0,0C4.6-2.5,2.5-4.6,0-4.6z"/>
	</g>
	<g transform="translate(87.6364,245.7214)">
		<circle class="st4" cx="0" cy="0" r="3.9"/>
	</g>
	<g transform="translate(87.6364,245.7214)">
		<path class="st4" d="M0-3.2c1.8,0,3.2,1.5,3.2,3.2l0,0c0,1.8-1.5,3.2-3.2,3.2S-3.2,1.8-3.2,0S-1.8-3.2,0-3.2z M0-4.6
			c-2.5,0-4.6,2-4.6,4.6s2,4.6,4.6,4.6s4.6-2,4.6-4.6l0,0C4.6-2.5,2.5-4.6,0-4.6z"/>
	</g>
	<g transform="translate(110.4545,222.9748)">
		<circle class="st4" cx="0" cy="0" r="3.9"/>
	</g>
	<g transform="translate(110.4545,222.9748)">
		<path class="st4" d="M0-3.2c1.8,0,3.2,1.5,3.2,3.2l0,0c0,1.8-1.5,3.2-3.2,3.2S-3.2,1.8-3.2,0S-1.8-3.2,0-3.2z M0-4.6
			c-2.5,0-4.6,2-4.6,4.6s2,4.6,4.6,4.6s4.6-2,4.6-4.6l0,0C4.6-2.5,2.5-4.6,0-4.6z"/>
	</g>
	<g transform="translate(133.2727,252.2775)">
		<circle class="st4" cx="0" cy="0" r="3.9"/>
	</g>
	<g transform="translate(133.2727,252.2775)">
		<path class="st4" d="M0-3.2c1.8,0,3.2,1.5,3.2,3.2l0,0c0,1.8-1.5,3.2-3.2,3.2S-3.2,1.8-3.2,0S-1.8-3.2,0-3.2z M0-4.6
			c-2.5,0-4.6,2-4.6,4.6s2,4.6,4.6,4.6s4.6-2,4.6-4.6l0,0C4.6-2.5,2.5-4.6,0-4.6z"/>
	</g>
	<g transform="translate(156.0909,241.4239)">
		<circle class="st4" cx="0" cy="0" r="3.9"/>
	</g>
	<g transform="translate(156.0909,241.4239)">
		<path class="st4" d="M0-3.2c1.8,0,3.2,1.5,3.2,3.2l0,0c0,1.8-1.5,3.2-3.2,3.2S-3.2,1.8-3.2,0S-1.8-3.2,0-3.2z M0-4.6
			c-2.5,0-4.6,2-4.6,4.6s2,4.6,4.6,4.6s4.6-2,4.6-4.6l0,0C4.6-2.5,2.5-4.6,0-4.6z"/>
	</g>
	<g transform="translate(178.9091,216.7045)">
		<circle class="st4" cx="0" cy="0" r="3.9"/>
	</g>
	<g transform="translate(178.9091,216.7045)">
		<path class="st4" d="M0-3.2c1.8,0,3.2,1.5,3.2,3.2l0,0c0,1.8-1.5,3.2-3.2,3.2S-3.2,1.8-3.2,0S-1.8-3.2,0-3.2z M0-4.6
			c-2.5,0-4.6,2-4.6,4.6s2,4.6,4.6,4.6s4.6-2,4.6-4.6l0,0C4.6-2.5,2.5-4.6,0-4.6z"/>
	</g>
	<g transform="translate(201.7273,256.1375)">
		<circle class="st4" cx="0" cy="0" r="3.9"/>
	</g>
	<g transform="translate(201.7273,256.1375)">
		<path class="st4" d="M0-3.2c1.8,0,3.2,1.5,3.2,3.2l0,0c0,1.8-1.5,3.2-3.2,3.2S-3.2,1.8-3.2,0S-1.8-3.2,0-3.2z M0-4.6
			c-2.5,0-4.6,2-4.6,4.6s2,4.6,4.6,4.6s4.6-2,4.6-4.6l0,0C4.6-2.5,2.5-4.6,0-4.6z"/>
	</g>
	<g transform="translate(224.5455,270.7094)">
		<circle class="st4" cx="0" cy="0" r="3.9"/>
	</g>
	<g transform="translate(224.5455,270.7094)">
		<path class="st4" d="M0-3.2c1.8,0,3.2,1.5,3.2,3.2l0,0c0,1.8-1.5,3.2-3.2,3.2S-3.2,1.8-3.2,0S-1.8-3.2,0-3.2z M0-4.6
			c-2.5,0-4.6,2-4.6,4.6s2,4.6,4.6,4.6s4.6-2,4.6-4.6l0,0C4.6-2.5,2.5-4.6,0-4.6z"/>
	</g>
	<g transform="translate(247.3636,246.5899)">
		<circle class="st4" cx="0" cy="0" r="3.9"/>
	</g>
	<g transform="translate(247.3636,246.5899)">
		<path class="st4" d="M0-3.2c1.8,0,3.2,1.5,3.2,3.2l0,0c0,1.8-1.5,3.2-3.2,3.2S-3.2,1.8-3.2,0S-1.8-3.2,0-3.2z M0-4.6
			c-2.5,0-4.6,2-4.6,4.6s2,4.6,4.6,4.6s4.6-2,4.6-4.6l0,0C4.6-2.5,2.5-4.6,0-4.6z"/>
	</g>
	<g transform="translate(270.1818,231.1135)">
		<circle class="st4" cx="0" cy="0" r="3.9"/>
	</g>
	<g transform="translate(270.1818,231.1135)">
		<path class="st4" d="M0-3.2c1.8,0,3.2,1.5,3.2,3.2l0,0c0,1.8-1.5,3.2-3.2,3.2S-3.2,1.8-3.2,0S-1.8-3.2,0-3.2z M0-4.6
			c-2.5,0-4.6,2-4.6,4.6s2,4.6,4.6,4.6s4.6-2,4.6-4.6l0,0C4.6-2.5,2.5-4.6,0-4.6z"/>
		<path class="st5" d="M-205.4,14l22.8-0.2l22.8-0.2l22.8-0.2l22.8-0.2l22.8-0.2l22.8-0.2l22.8-0.2l22.8-0.2L0,12.5"/>
	</g>
	<g transform="translate(64.8182,163.6927)">
		<circle cx="0" cy="0" r="3.9"/>
	</g>
	<g transform="translate(64.8182,163.6927)">
		<path d="M0-3.2c1.8,0,3.2,1.5,3.2,3.2l0,0c0,1.8-1.5,3.2-3.2,3.2S-3.2,1.8-3.2,0S-1.8-3.2,0-3.2z M0-4.6c-2.5,0-4.6,2-4.6,4.6
			s2,4.6,4.6,4.6s4.6-2,4.6-4.6l0,0C4.6-2.5,2.5-4.6,0-4.6z"/>
	</g>
	<g transform="translate(87.6364,156.1867)">
		<circle cx="0" cy="0" r="3.9"/>
	</g>
	<g transform="translate(87.6364,156.1867)">
		<path d="M0-3.2c1.8,0,3.2,1.5,3.2,3.2l0,0c0,1.8-1.5,3.2-3.2,3.2S-3.2,1.8-3.2,0S-1.8-3.2,0-3.2z M0-4.6c-2.5,0-4.6,2-4.6,4.6
			s2,4.6,4.6,4.6s4.6-2,4.6-4.6l0,0C4.6-2.5,2.5-4.6,0-4.6z"/>
	</g>
	<g transform="translate(110.4545,131.0875)">
		<circle cx="0" cy="0" r="3.9"/>
	</g>
	<g transform="translate(110.4545,131.0875)">
		<path d="M0-3.2c1.8,0,3.2,1.5,3.2,3.2l0,0c0,1.8-1.5,3.2-3.2,3.2S-3.2,1.8-3.2,0S-1.8-3.2,0-3.2z M0-4.6c-2.5,0-4.6,2-4.6,4.6
			s2,4.6,4.6,4.6s4.6-2,4.6-4.6l0,0C4.6-2.5,2.5-4.6,0-4.6z"/>
	</g>
	<g transform="translate(133.2727,112.1821)">
		<circle cx="0" cy="0" r="3.9"/>
	</g>
	<g transform="translate(133.2727,112.1821)">
		<path d="M0-3.2c1.8,0,3.2,1.5,3.2,3.2l0,0c0,1.8-1.5,3.2-3.2,3.2S-3.2,1.8-3.2,0S-1.8-3.2,0-3.2z M0-4.6c-2.5,0-4.6,2-4.6,4.6
			s2,4.6,4.6,4.6s4.6-2,4.6-4.6l0,0C4.6-2.5,2.5-4.6,0-4.6z"/>
	</g>
	<g transform="translate(156.0909,72.9331)">
		<circle cx="0" cy="0" r="3.9"/>
	</g>
	<g transform="translate(156.0909,72.9331)">
		<path d="M0-3.2c1.8,0,3.2,1.5,3.2,3.2l0,0c0,1.8-1.5,3.2-3.2,3.2S-3.2,1.8-3.2,0S-1.8-3.2,0-3.2z M0-4.6c-2.5,0-4.6,2-4.6,4.6
			s2,4.6,4.6,4.6s4.6-2,4.6-4.6l0,0C4.6-2.5,2.5-4.6,0-4.6z"/>
	</g>
	<g transform="translate(178.9091,102.2947)">
		<circle cx="0" cy="0" r="3.9"/>
	</g>
	<g transform="translate(178.9091,102.2947)">
		<path d="M0-3.2c1.8,0,3.2,1.5,3.2,3.2l0,0c0,1.8-1.5,3.2-3.2,3.2S-3.2,1.8-3.2,0S-1.8-3.2,0-3.2z M0-4.6c-2.5,0-4.6,2-4.6,4.6
			s2,4.6,4.6,4.6s4.6-2,4.6-4.6l0,0C4.6-2.5,2.5-4.6,0-4.6z"/>
	</g>
	<g transform="translate(201.7273,134.755)">
		<circle cx="0" cy="0" r="3.9"/>
	</g>
	<g transform="translate(201.7273,134.755)">
		<path d="M0-3.2c1.8,0,3.2,1.5,3.2,3.2l0,0c0,1.8-1.5,3.2-3.2,3.2S-3.2,1.8-3.2,0S-1.8-3.2,0-3.2z M0-4.6c-2.5,0-4.6,2-4.6,4.6
			s2,4.6,4.6,4.6s4.6-2,4.6-4.6l0,0C4.6-2.5,2.5-4.6,0-4.6z"/>
	</g>
	<g transform="translate(224.5455,86.4547)">
		<circle cx="0" cy="0" r="3.9"/>
	</g>
	<g transform="translate(224.5455,86.4547)">
		<path d="M0-3.2c1.8,0,3.2,1.5,3.2,3.2l0,0c0,1.8-1.5,3.2-3.2,3.2S-3.2,1.8-3.2,0S-1.8-3.2,0-3.2z M0-4.6c-2.5,0-4.6,2-4.6,4.6
			s2,4.6,4.6,4.6s4.6-2,4.6-4.6l0,0C4.6-2.5,2.5-4.6,0-4.6z"/>
	</g>
	<g transform="translate(247.3636,101.1409)">
		<circle cx="0" cy="0" r="3.9"/>
	</g>
	<g transform="translate(247.3636,101.1409)">
		<path d="M0-3.2c1.8,0,3.2,1.5,3.2,3.2l0,0c0,1.8-1.5,3.2-3.2,3.2S-3.2,1.8-3.2,0S-1.8-3.2,0-3.2z M0-4.6c-2.5,0-4.6,2-4.6,4.6
			s2,4.6,4.6,4.6s4.6-2,4.6-4.6l0,0C4.6-2.5,2.5-4.6,0-4.6z"/>
	</g>
	<g transform="translate(270.1818,112.1839)">
		<circle cx="0" cy="0" r="3.9"/>
	</g>
	<g transform="translate(270.1818,112.1839)">
		<path d="M0-3.2c1.8,0,3.2,1.5,3.2,3.2l0,0c0,1.8-1.5,3.2-3.2,3.2S-3.2,1.8-3.2,0S-1.8-3.2,0-3.2z M0-4.6c-2.5,0-4.6,2-4.6,4.6
			s2,4.6,4.6,4.6s4.6-2,4.6-4.6l0,0C4.6-2.5,2.5-4.6,0-4.6z"/>
		<path class="st6" d="M-205.4,31.7l22.8-5.9l22.8-5.9l22.8-5.9l22.8-5.9l22.8-5.9l22.8-5.9l22.8-5.9l22.8-5.9L0-21.5"/>
	</g>
	<g transform="translate(64.8182,110.9437)">
		<circle class="st7" cx="0" cy="0" r="3.9"/>
	</g>
	<g transform="translate(64.8182,110.9437)">
		<path class="st7" d="M0-3.2c1.8,0,3.2,1.5,3.2,3.2l0,0c0,1.8-1.5,3.2-3.2,3.2S-3.2,1.8-3.2,0S-1.8-3.2,0-3.2z M0-4.6
			c-2.5,0-4.6,2-4.6,4.6s2,4.6,4.6,4.6s4.6-2,4.6-4.6l0,0C4.6-2.5,2.5-4.6,0-4.6z"/>
	</g>
	<g transform="translate(87.6364,85.2613)">
		<circle class="st7" cx="0" cy="0" r="3.9"/>
	</g>
	<g transform="translate(87.6364,85.2613)">
		<path class="st7" d="M0-3.2c1.8,0,3.2,1.5,3.2,3.2l0,0c0,1.8-1.5,3.2-3.2,3.2S-3.2,1.8-3.2,0S-1.8-3.2,0-3.2z M0-4.6
			c-2.5,0-4.6,2-4.6,4.6s2,4.6,4.6,4.6s4.6-2,4.6-4.6l0,0C4.6-2.5,2.5-4.6,0-4.6z"/>
	</g>
	<g transform="translate(110.4545,85.1119)">
		<circle class="st7" cx="0" cy="0" r="3.9"/>
	</g>
	<g transform="translate(110.4545,85.1119)">
		<path class="st7" d="M0-3.2c1.8,0,3.2,1.5,3.2,3.2l0,0c0,1.8-1.5,3.2-3.2,3.2S-3.2,1.8-3.2,0S-1.8-3.2,0-3.2z M0-4.6
			c-2.5,0-4.6,2-4.6,4.6s2,4.6,4.6,4.6s4.6-2,4.6-4.6l0,0C4.6-2.5,2.5-4.6,0-4.6z"/>
	</g>
	<g transform="translate(133.2727,83.7349)">
		<circle class="st7" cx="0" cy="0" r="3.9"/>
	</g>
	<g transform="translate(133.2727,83.7349)">
		<path class="st7" d="M0-3.2c1.8,0,3.2,1.5,3.2,3.2l0,0c0,1.8-1.5,3.2-3.2,3.2S-3.2,1.8-3.2,0S-1.8-3.2,0-3.2z M0-4.6
			c-2.5,0-4.6,2-4.6,4.6s2,4.6,4.6,4.6s4.6-2,4.6-4.6l0,0C4.6-2.5,2.5-4.6,0-4.6z"/>
	</g>
	<g transform="translate(156.0909,62.7244)">
		<circle class="st7" cx="0" cy="0" r="3.9"/>
	</g>
	<g transform="translate(156.0909,62.7244)">
		<path class="st7" d="M0-3.2c1.8,0,3.2,1.5,3.2,3.2l0,0c0,1.8-1.5,3.2-3.2,3.2S-3.2,1.8-3.2,0S-1.8-3.2,0-3.2z M0-4.6
			c-2.5,0-4.6,2-4.6,4.6s2,4.6,4.6,4.6s4.6-2,4.6-4.6l0,0C4.6-2.5,2.5-4.6,0-4.6z"/>
	</g>
	<g transform="translate(178.9091,97.6399)">
		<circle class="st7" cx="0" cy="0" r="3.9"/>
	</g>
	<g transform="translate(178.9091,97.6399)">
		<path class="st7" d="M0-3.2c1.8,0,3.2,1.5,3.2,3.2l0,0c0,1.8-1.5,3.2-3.2,3.2S-3.2,1.8-3.2,0S-1.8-3.2,0-3.2z M0-4.6
			c-2.5,0-4.6,2-4.6,4.6s2,4.6,4.6,4.6s4.6-2,4.6-4.6l0,0C4.6-2.5,2.5-4.6,0-4.6z"/>
	</g>
	<g transform="translate(201.7273,109.6504)">
		<circle class="st7" cx="0" cy="0" r="3.9"/>
	</g>
	<g transform="translate(201.7273,109.6504)">
		<path class="st7" d="M0-3.2c1.8,0,3.2,1.5,3.2,3.2l0,0c0,1.8-1.5,3.2-3.2,3.2S-3.2,1.8-3.2,0S-1.8-3.2,0-3.2z M0-4.6
			c-2.5,0-4.6,2-4.6,4.6s2,4.6,4.6,4.6s4.6-2,4.6-4.6l0,0C4.6-2.5,2.5-4.6,0-4.6z"/>
	</g>
	<g transform="translate(224.5455,122.6743)">
		<circle class="st7" cx="0" cy="0" r="3.9"/>
	</g>
	<g transform="translate(224.5455,122.6743)">
		<path class="st7" d="M0-3.2c1.8,0,3.2,1.5,3.2,3.2l0,0c0,1.8-1.5,3.2-3.2,3.2S-3.2,1.8-3.2,0S-1.8-3.2,0-3.2z M0-4.6
			c-2.5,0-4.6,2-4.6,4.6s2,4.6,4.6,4.6s4.6-2,4.6-4.6l0,0C4.6-2.5,2.5-4.6,0-4.6z"/>
	</g>
	<g transform="translate(247.3636,53.0143)">
		<circle class="st7" cx="0" cy="0" r="3.9"/>
	</g>
	<g transform="translate(247.3636,53.0143)">
		<path class="st7" d="M0-3.2c1.8,0,3.2,1.5,3.2,3.2l0,0c0,1.8-1.5,3.2-3.2,3.2S-3.2,1.8-3.2,0S-1.8-3.2,0-3.2z M0-4.6
			c-2.5,0-4.6,2-4.6,4.6s2,4.6,4.6,4.6s4.6-2,4.6-4.6l0,0C4.6-2.5,2.5-4.6,0-4.6z"/>
	</g>
	<g transform="translate(270.1818,40.0138)">
		<circle class="st7" cx="0" cy="0" r="3.9"/>
	</g>
	<g transform="translate(270.1818,40.0138)">
		<path class="st7" d="M0-3.2c1.8,0,3.2,1.5,3.2,3.2l0,0c0,1.8-1.5,3.2-3.2,3.2S-3.2,1.8-3.2,0S-1.8-3.2,0-3.2z M0-4.6
			c-2.5,0-4.6,2-4.6,4.6s2,4.6,4.6,4.6s4.6-2,4.6-4.6l0,0C4.6-2.5,2.5-4.6,0-4.6z"/>
		<path class="st8" d="M-205.4,60.4l22.8-3.4l22.8-3.4l22.8-3.4l22.8-3.4l22.8-3.4l22.8-3.4l22.8-3.4l22.8-3.4L0,29.7"/>
	</g>
</g>
</svg>
