<?xml version="1.0" encoding="utf-8"?>
<!-- Generator: Adobe Illustrator 26.4.1, SVG Export Plug-In . SVG Version: 6.00 Build 0)  -->
<svg version="1.1" id="Layer_1" xmlns="http://www.w3.org/2000/svg" xmlns:xlink="http://www.w3.org/1999/xlink" x="0px" y="0px"
	 viewBox="0 0 237 303" style="enable-background:new 0 0 237 303;" xml:space="preserve">
<style type="text/css">
	.st0{fill:none;stroke:#262626;stroke-width:1.3333;stroke-linecap:square;stroke-linejoin:round;stroke-miterlimit:10;}
	.st1{fill:#262626;}
	.st2{font-family:'ArialMT';}
	.st3{font-size:16px;}
	.st4{fill:#0072BD;}
	.st5{fill:none;stroke:#0000FF;stroke-width:1.3333;stroke-linejoin:round;stroke-miterlimit:10;}
	.st6{fill:none;stroke:#000000;stroke-width:1.3333;stroke-linejoin:round;stroke-miterlimit:10;}
	.st7{fill:#FF0000;}
	.st8{fill:none;stroke:#FF0000;stroke-width:1.3333;stroke-linejoin:round;stroke-miterlimit:10;}
</style>
<g>
	<g>
		<line class="st0" x1="31" y1="270" x2="214" y2="270"/>
		<line class="st0" x1="53.9" y1="270" x2="53.9" y2="267.5"/>
		<line class="st0" x1="99.6" y1="270" x2="99.6" y2="267.5"/>
		<line class="st0" x1="145.4" y1="270" x2="145.4" y2="267.5"/>
		<line class="st0" x1="191.1" y1="270" x2="191.1" y2="267.5"/>
	</g>
	<g transform="translate(53.875,275.8667)">
		<text transform="matrix(1 0 0 1 -4.5 17)" class="st1 st2 st3">1</text>
	</g>
	<g transform="translate(99.625,275.8667)">
		<text transform="matrix(1 0 0 1 -4.5 17)" class="st1 st2 st3">2</text>
	</g>
	<g transform="translate(145.375,275.8667)">
		<text transform="matrix(1 0 0 1 -4.5 17)" class="st1 st2 st3">3</text>
	</g>
	<g transform="translate(191.125,275.8667)">
		<text transform="matrix(1 0 0 1 -4.5 17)" class="st1 st2 st3">4</text>
	</g>
	<g>
		<line class="st0" x1="31" y1="270" x2="31" y2="23"/>
		<line class="st0" x1="31" y1="270" x2="33.5" y2="270"/>
		<line class="st0" x1="31" y1="199.4" x2="33.5" y2="199.4"/>
		<line class="st0" x1="31" y1="128.9" x2="33.5" y2="128.9"/>
		<line class="st0" x1="31" y1="58.3" x2="33.5" y2="58.3"/>
	</g>
	<g transform="translate(25.1333,270)">
		<text transform="matrix(1 0 0 1 -9 6.5)" class="st1 st2 st3">0</text>
	</g>
	<g transform="translate(25.1333,199.4286)">
		<text transform="matrix(1 0 0 1 -9 6.5)" class="st1 st2 st3">1</text>
	</g>
	<g transform="translate(25.1333,128.8571)">
		<text transform="matrix(1 0 0 1 -9 6.5)" class="st1 st2 st3">2</text>
	</g>
	<g transform="translate(25.1333,58.2857)">
		<text transform="matrix(1 0 0 1 -9 6.5)" class="st1 st2 st3">3</text>
	</g>
	<g transform="translate(53.875,236.6963)">
		<circle class="st4" cx="0" cy="0" r="3.9"/>
	</g>
	<g transform="translate(53.875,236.6963)">
		<path class="st4" d="M0-3.2c1.8,0,3.2,1.5,3.2,3.2l0,0c0,1.8-1.5,3.2-3.2,3.2S-3.2,1.8-3.2,0S-1.8-3.2,0-3.2z M0-4.6
			c-2.5,0-4.6,2-4.6,4.6s2,4.6,4.6,4.6s4.6-2,4.6-4.6l0,0C4.6-2.5,2.5-4.6,0-4.6z"/>
	</g>
	<g transform="translate(99.625,232.8144)">
		<circle class="st4" cx="0" cy="0" r="3.9"/>
	</g>
	<g transform="translate(99.625,232.8144)">
		<path class="st4" d="M0-3.2c1.8,0,3.2,1.5,3.2,3.2l0,0c0,1.8-1.5,3.2-3.2,3.2S-3.2,1.8-3.2,0S-1.8-3.2,0-3.2z M0-4.6
			c-2.5,0-4.6,2-4.6,4.6s2,4.6,4.6,4.6s4.6-2,4.6-4.6l0,0C4.6-2.5,2.5-4.6,0-4.6z"/>
	</g>
	<g transform="translate(145.375,256.7768)">
		<circle class="st4" cx="0" cy="0" r="3.9"/>
	</g>
	<g transform="translate(145.375,256.7768)">
		<path class="st4" d="M0-3.2c1.8,0,3.2,1.5,3.2,3.2l0,0c0,1.8-1.5,3.2-3.2,3.2S-3.2,1.8-3.2,0S-1.8-3.2,0-3.2z M0-4.6
			c-2.5,0-4.6,2-4.6,4.6s2,4.6,4.6,4.6s4.6-2,4.6-4.6l0,0C4.6-2.5,2.5-4.6,0-4.6z"/>
	</g>
	<g transform="translate(191.125,226.836)">
		<circle class="st4" cx="0" cy="0" r="3.9"/>
	</g>
	<g transform="translate(191.125,226.836)">
		<path class="st4" d="M0-3.2c1.8,0,3.2,1.5,3.2,3.2l0,0c0,1.8-1.5,3.2-3.2,3.2S-3.2,1.8-3.2,0S-1.8-3.2,0-3.2z M0-4.6
			c-2.5,0-4.6,2-4.6,4.6s2,4.6,4.6,4.6s4.6-2,4.6-4.6l0,0C4.6-2.5,2.5-4.6,0-4.6z"/>
		<path class="st5" d="M-137.2,12.3l45.8-0.6l45.8-0.6L0,10.6"/>
	</g>
	<g transform="translate(53.875,166.7498)">
		<circle cx="0" cy="0" r="3.9"/>
	</g>
	<g transform="translate(53.875,166.7498)">
		<path d="M0-3.2c1.8,0,3.2,1.5,3.2,3.2l0,0c0,1.8-1.5,3.2-3.2,3.2S-3.2,1.8-3.2,0S-1.8-3.2,0-3.2z M0-4.6c-2.5,0-4.6,2-4.6,4.6
			s2,4.6,4.6,4.6s4.6-2,4.6-4.6l0,0C4.6-2.5,2.5-4.6,0-4.6z"/>
	</g>
	<g transform="translate(99.625,203.6798)">
		<circle cx="0" cy="0" r="3.9"/>
	</g>
	<g transform="translate(99.625,203.6798)">
		<path d="M0-3.2c1.8,0,3.2,1.5,3.2,3.2l0,0c0,1.8-1.5,3.2-3.2,3.2S-3.2,1.8-3.2,0S-1.8-3.2,0-3.2z M0-4.6c-2.5,0-4.6,2-4.6,4.6
			s2,4.6,4.6,4.6s4.6-2,4.6-4.6l0,0C4.6-2.5,2.5-4.6,0-4.6z"/>
	</g>
	<g transform="translate(145.375,119.318)">
		<circle cx="0" cy="0" r="3.9"/>
	</g>
	<g transform="translate(145.375,119.318)">
		<path d="M0-3.2c1.8,0,3.2,1.5,3.2,3.2l0,0c0,1.8-1.5,3.2-3.2,3.2S-3.2,1.8-3.2,0S-1.8-3.2,0-3.2z M0-4.6c-2.5,0-4.6,2-4.6,4.6
			s2,4.6,4.6,4.6s4.6-2,4.6-4.6l0,0C4.6-2.5,2.5-4.6,0-4.6z"/>
	</g>
	<g transform="translate(191.125,195.8181)">
		<circle cx="0" cy="0" r="3.9"/>
	</g>
	<g transform="translate(191.125,195.8181)">
		<path d="M0-3.2c1.8,0,3.2,1.5,3.2,3.2l0,0c0,1.8-1.5,3.2-3.2,3.2S-3.2,1.8-3.2,0S-1.8-3.2,0-3.2z M0-4.6c-2.5,0-4.6,2-4.6,4.6
			s2,4.6,4.6,4.6s4.6-2,4.6-4.6l0,0C4.6-2.5,2.5-4.6,0-4.6z"/>
		<path class="st6" d="M-137.2-24.9l45.8,0.3l45.8,0.3L0-24"/>
	</g>
	<g transform="translate(53.875,158.4075)">
		<circle class="st7" cx="0" cy="0" r="3.9"/>
	</g>
	<g transform="translate(53.875,158.4075)">
		<path class="st7" d="M0-3.2c1.8,0,3.2,1.5,3.2,3.2l0,0c0,1.8-1.5,3.2-3.2,3.2S-3.2,1.8-3.2,0S-1.8-3.2,0-3.2z M0-4.6
			c-2.5,0-4.6,2-4.6,4.6s2,4.6,4.6,4.6s4.6-2,4.6-4.6l0,0C4.6-2.5,2.5-4.6,0-4.6z"/>
	</g>
	<g transform="translate(99.625,94.7965)">
		<circle class="st7" cx="0" cy="0" r="3.9"/>
	</g>
	<g transform="translate(99.625,94.7965)">
		<path class="st7" d="M0-3.2c1.8,0,3.2,1.5,3.2,3.2l0,0c0,1.8-1.5,3.2-3.2,3.2S-3.2,1.8-3.2,0S-1.8-3.2,0-3.2z M0-4.6
			c-2.5,0-4.6,2-4.6,4.6s2,4.6,4.6,4.6s4.6-2,4.6-4.6l0,0C4.6-2.5,2.5-4.6,0-4.6z"/>
	</g>
	<g transform="translate(145.375,39.6097)">
		<circle class="st7" cx="0" cy="0" r="3.9"/>
	</g>
	<g transform="translate(145.375,39.6097)">
		<path class="st7" d="M0-3.2c1.8,0,3.2,1.5,3.2,3.2l0,0c0,1.8-1.5,3.2-3.2,3.2S-3.2,1.8-3.2,0S-1.8-3.2,0-3.2z M0-4.6
			c-2.5,0-4.6,2-4.6,4.6s2,4.6,4.6,4.6s4.6-2,4.6-4.6l0,0C4.6-2.5,2.5-4.6,0-4.6z"/>
	</g>
	<g transform="translate(191.125,50.7219)">
		<circle class="st7" cx="0" cy="0" r="3.9"/>
	</g>
	<g transform="translate(191.125,50.7219)">
		<path class="st7" d="M0-3.2c1.8,0,3.2,1.5,3.2,3.2l0,0c0,1.8-1.5,3.2-3.2,3.2S-3.2,1.8-3.2,0S-1.8-3.2,0-3.2z M0-4.6
			c-2.5,0-4.6,2-4.6,4.6s2,4.6,4.6,4.6s4.6-2,4.6-4.6l0,0C4.6-2.5,2.5-4.6,0-4.6z"/>
		<path class="st8" d="M-137.2,91.9l45.8-37.8l45.8-37.8L0-21.6"/>
	</g>
</g>
</svg>
