<?xml version="1.0" encoding="utf-8"?>
<!-- Generator: Adobe Illustrator 26.4.1, SVG Export Plug-In . SVG Version: 6.00 Build 0)  -->
<svg version="1.1" id="Layer_1" xmlns="http://www.w3.org/2000/svg" xmlns:xlink="http://www.w3.org/1999/xlink" x="0px" y="0px"
	 viewBox="0 0 460.8 246.5" style="enable-background:new 0 0 460.8 246.5;" xml:space="preserve">
<style type="text/css">
	.st0{fill:#FFFFFF;}
	.st1{clip-path:url(#SVGID_00000051362598982871192370000016991092679268064642_);}
	.st2{fill-opacity:0.2;stroke:#000000;stroke-linejoin:round;stroke-opacity:0.2;}
	.st3{clip-path:url(#SVGID_00000119085368661384117140000007341987322602408604_);}
	.st4{fill:#0000FF;fill-opacity:0.2;stroke:#0000FF;stroke-linejoin:round;stroke-opacity:0.2;}
	.st5{clip-path:url(#SVGID_00000114784749962150549710000010034385223006018746_);}
	.st6{fill:#FF0000;fill-opacity:0.2;stroke:#FF0000;stroke-linejoin:round;stroke-opacity:0.2;}
	.st7{stroke:#000000;stroke-width:0.8;stroke-linejoin:round;}
	
		.st8{clip-path:url(#SVGID_00000165208564292524395510000014238641104789435782_);fill:none;stroke:#000000;stroke-width:1.5;stroke-linecap:square;stroke-linejoin:round;}
	
		.st9{clip-path:url(#SVGID_00000173136381473144789090000017685083263245731203_);fill:none;stroke:#0000FF;stroke-width:1.5;stroke-linecap:square;stroke-linejoin:round;}
	
		.st10{clip-path:url(#SVGID_00000176762226050959766580000017642892576393816214_);fill:none;stroke:#FF0000;stroke-width:1.5;stroke-linecap:square;stroke-linejoin:round;}
	.st11{fill:none;stroke:#000000;stroke-width:0.8;stroke-linecap:square;}
	.st12{opacity:0.8;fill:#FFFFFF;stroke:#CCCCCC;enable-background:new    ;}
	.st13{fill:none;stroke:#000000;stroke-width:1.5;stroke-linecap:square;stroke-linejoin:round;}
	.st14{fill:none;stroke:#0000FF;stroke-width:1.5;stroke-linecap:square;stroke-linejoin:round;}
	.st15{fill:none;stroke:#FF0000;stroke-width:1.5;stroke-linecap:square;stroke-linejoin:round;}
</style>
<g id="figure_1">
	<g id="axes_1">
		<g id="patch_2">
			<path class="st0" d="M57.6,219.4h357.1V29.6H57.6V219.4z"/>
		</g>
		<g id="PolyCollection_1">
			<g>
				<defs>
					<rect id="SVGID_1_" x="57.6" y="29.6" width="357.1" height="189.8"/>
				</defs>
				<clipPath id="SVGID_00000034812812173492632310000001903242471096233368_">
					<use xlink:href="#SVGID_1_"  style="overflow:visible;"/>
				</clipPath>
				<g style="clip-path:url(#SVGID_00000034812812173492632310000001903242471096233368_);">
					<g>
						<path id="mad1b3492cf" class="st2" d="M73.8,176v29.2l36.1-4l36.1-0.7l36.1,0.3l36.1-4.4l36.1,5.3l36.1,9l36.1-1.3l36.1-5.5
							l36.1-2.7v-37.9l0,0l-36.1,3.7l-36.1,10.4l-36.1,1.8l-36.1-9.4l-36.1-3.9l-36.1,6.7l-36.1-1.1l-36.1-0.9L73.8,176z"/>
					</g>
				</g>
			</g>
		</g>
		<g id="PolyCollection_2">
			<g>
				<defs>
					<rect id="SVGID_00000167380672970590373980000007574741886343463081_" x="57.6" y="29.6" width="357.1" height="189.8"/>
				</defs>
				<clipPath id="SVGID_00000124135251116982008870000017247201603416158105_">
					<use xlink:href="#SVGID_00000167380672970590373980000007574741886343463081_"  style="overflow:visible;"/>
				</clipPath>
				<g style="clip-path:url(#SVGID_00000124135251116982008870000017247201603416158105_);">
					<g>
						<path id="m4c4e873a27" class="st4" d="M73.8,113.5v41.9l36.1-8.2l36.1-14.9l36.1-14.3l36.1-1.7l36.1,12.5l36.1,1.9l36.1-4.1
							l36.1-0.4l36.1-1.4V73.4l0,0l-36.1-6.3l-36.1-7.2l-36.1,7.8l-36.1,6.4l-36.1-8.3l-36.1,4L146,84.9L109.9,102L73.8,113.5z"/>
					</g>
				</g>
			</g>
		</g>
		<g id="PolyCollection_3">
			<g>
				<defs>
					<rect id="SVGID_00000037654186389230275310000016893423024238614685_" x="54.8" y="30.5" width="357.1" height="189.8"/>
				</defs>
				<clipPath id="SVGID_00000119837005682719640840000013205080064579710338_">
					<use xlink:href="#SVGID_00000037654186389230275310000016893423024238614685_"  style="overflow:visible;"/>
				</clipPath>
				<g style="clip-path:url(#SVGID_00000119837005682719640840000013205080064579710338_);">
					<g>
						<path id="m462ae389ce" class="st6" d="M71,66.4v48.1l36.1,1.9l36.1,4.7l36.1-5l36.1-3.9l36.1,6.1l36.1,7l36.1-2.5l36.1-8.4
							l36.1,8.3V55.1l0,0l-36.1-15.9l-36.1,18.6l-36.1,17.9l-36.1-4.3L215.3,55l-36.1-3.9l-36.1,8.1l-36.1,2.7L71,66.4z"/>
					</g>
				</g>
			</g>
		</g>
		<g id="matplotlib.axis_1">
			<g id="xtick_1">
				<g id="line2d_1">
					<g>
						<g>
							<path id="m95a8dc029a" class="st7" d="M109.9,219.4v3.5"/>
						</g>
					</g>
				</g>
				<g id="text_1">
					<g transform="translate(108.237173 230.661888)scale(0.06 -0.06)">
						<g>
							<path id="ArialMT-32" d="M50.3,8.5V0H3C3,2.1,3.3,4.2,4,6.1c1.2,3.2,3.1,6.4,5.8,9.5c2.7,3.1,6.5,6.7,11.5,10.8
								c7.8,6.4,13,11.4,15.8,15.2c2.7,3.7,4.1,7.3,4.1,10.6c0,3.5-1.2,6.4-3.8,8.8c-2.5,2.4-5.7,3.6-9.7,3.6
								c-4.2,0-7.6-1.3-10.2-3.8c-2.5-2.5-3.8-6-3.9-10.5l-9,0.9c0.6,6.7,2.9,11.9,7,15.4c4,3.5,9.5,5.3,16.3,5.3
								c6.9,0,12.3-1.9,16.3-5.7c4-3.8,6-8.5,6-14.2c0-2.9-0.6-5.7-1.8-8.5c-1.2-2.8-3.1-5.7-5.8-8.7s-7.2-7.3-13.5-12.6
								c-5.3-4.4-8.7-7.4-10.2-9c-1.5-1.6-2.7-3.2-3.7-4.7H50.3z"/>
						</g>
					</g>
				</g>
			</g>
			<g id="xtick_2">
				<g id="line2d_2">
					<g>
						<g>
							<path id="m95a8dc029a_00000036972403339011683720000003487350395437133997_" class="st7" d="M182.1,219.4v3.5"/>
						</g>
					</g>
				</g>
				<g id="text_2">
					<g transform="translate(180.382628 230.661888)scale(0.06 -0.06)">
						<g>
							<path id="ArialMT-34" d="M32.3,0v17.1H1.3v8.1l32.7,46.4h7.2V25.2h9.7v-8.1h-9.7V0H32.3z M32.3,25.2v32.3L9.9,25.2H32.3z"/>
						</g>
					</g>
				</g>
			</g>
			<g id="xtick_3">
				<g id="line2d_3">
					<g>
						<g>
							<path id="m95a8dc029a_00000108271654832037423580000017227832952631127976_" class="st7" d="M254.2,219.4v3.5"/>
						</g>
					</g>
				</g>
				<g id="text_3">
					<g transform="translate(252.528082 230.661888)scale(0.06 -0.06)">
						<g>
							<path id="ArialMT-36" d="M49.8,54L41,53.4c-0.8,3.4-1.9,6-3.3,7.5c-2.4,2.5-5.3,3.8-8.8,3.8c-2.8,0-5.3-0.8-7.4-2.3
								c-2.8-2-4.9-5-6.5-8.8c-1.6-3.9-2.4-9.4-2.5-16.5c2.1,3.2,4.7,5.6,7.8,7.2s6.3,2.3,9.6,2.3c5.9,0,10.8-2.2,15-6.5
								C49,35.7,51,30.1,51,23.2c0-4.5-1-8.7-2.9-12.5s-4.6-6.8-8-8.9c-3.4-2.1-7.2-3.1-11.5-3.1c-7.3,0-13.3,2.7-17.9,8.1
								c-4.6,5.4-6.9,14.3-6.9,26.6c0,13.8,2.6,23.9,7.7,30.2c4.5,5.5,10.5,8.2,18,8.2c5.6,0,10.3-1.6,13.8-4.7
								C46.9,64,49,59.6,49.8,54z M13.9,23.2c0-3,0.6-5.9,1.9-8.7c1.3-2.8,3.1-4.9,5.4-6.3C23.5,6.7,25.9,6,28.5,6
								c3.7,0,6.9,1.5,9.6,4.5c2.7,3,4,7.1,4,12.2c0,4.9-1.3,8.8-4,11.7c-2.6,2.9-6,4.3-10,4.3c-4,0-7.3-1.4-10.1-4.3
								C15.3,31.5,13.9,27.8,13.9,23.2z"/>
						</g>
					</g>
				</g>
			</g>
			<g id="xtick_4">
				<g id="line2d_4">
					<g>
						<g>
							<path id="m95a8dc029a_00000067238061933156057400000012687135689542785724_" class="st7" d="M326.3,219.4v3.5"/>
						</g>
					</g>
				</g>
				<g id="text_4">
					<g transform="translate(324.673537 230.661888)scale(0.06 -0.06)">
						<g>
							<path id="ArialMT-38" d="M17.7,38.8c-3.6,1.3-6.3,3.2-8.1,5.7C7.8,47,6.9,50,6.9,53.4c0,5.2,1.9,9.6,5.6,13.1
								c3.7,3.6,8.7,5.3,14.9,5.3c6.3,0,11.3-1.8,15.1-5.5c3.8-3.6,5.7-8,5.7-13.2c0-3.3-0.9-6.2-2.6-8.7c-1.7-2.4-4.4-4.3-7.9-5.7
								c4.4-1.4,7.7-3.7,10-6.9c2.3-3.2,3.4-7,3.4-11.4c0-6.1-2.2-11.3-6.5-15.4c-4.3-4.2-10-6.2-17.1-6.2S14.9,0.9,10.5,5
								C6.2,9.2,4,14.5,4,20.7c0,4.7,1.2,8.6,3.5,11.7C10,35.5,13.3,37.7,17.7,38.8z M15.9,53.7c0-3.4,1.1-6.2,3.3-8.3
								c2.2-2.1,5-3.2,8.5-3.2c3.4,0,6.2,1.1,8.3,3.2c2.2,2.1,3.2,4.8,3.2,7.8c0,3.2-1.1,5.9-3.4,8.1c-2.2,2.2-5,3.3-8.3,3.3
								c-3.4,0-6.1-1.1-8.4-3.2C17,59.3,15.9,56.7,15.9,53.7z M13.1,20.7c0-2.5,0.6-4.9,1.8-7.3s3-4.2,5.3-5.5C22.5,6.6,25,6,27.7,6
								c4.2,0,7.7,1.3,10.4,4c2.7,2.7,4.1,6.1,4.1,10.3c0,4.2-1.4,7.7-4.2,10.5S31.7,35,27.4,35c-4.1,0-7.6-1.4-10.3-4.1
								C14.4,28.2,13.1,24.8,13.1,20.7z"/>
						</g>
					</g>
				</g>
			</g>
			<g id="xtick_5">
				<g id="line2d_5">
					<g>
						<g>
							<path id="m95a8dc029a_00000043444234818186922570000005235396313044600483_" class="st7" d="M398.5,219.4v3.5"/>
						</g>
					</g>
				</g>
				<g id="text_5">
					<g transform="translate(395.15071 230.661888)scale(0.06 -0.06)">
						<g>
							<path id="ArialMT-31" d="M37.2,0h-8.8v56c-2.1-2-4.9-4-8.3-6s-6.5-3.5-9.2-4.5v8.5c4.9,2.3,9.2,5.1,12.9,8.4
								c3.7,3.3,6.3,6.5,7.8,9.6h5.7V0z"/>
						</g>
						<g>
							<path id="ArialMT-30" d="M59.8,35.3c0,8.5,0.9,15.3,2.6,20.4c1.7,5.2,4.3,9.1,7.7,11.9c3.4,2.8,7.8,4.2,13,4.2
								c3.8,0,7.2-0.8,10.1-2.3c2.9-1.5,5.3-3.8,7.2-6.7c1.9-2.9,3.4-6.5,4.5-10.6c1.1-4.2,1.6-9.8,1.6-16.9
								c0-8.4-0.9-15.2-2.6-20.3c-1.7-5.2-4.3-9.1-7.7-12c-3.4-2.8-7.8-4.2-13-4.2c-6.9,0-12.3,2.5-16.2,7.4
								C62.1,12.2,59.8,21.9,59.8,35.3z M68.8,35.3c0-11.8,1.4-19.6,4.1-23.5C75.7,7.9,79.1,6,83.1,6c4,0,7.4,2,10.2,5.9
								s4.1,11.7,4.1,23.4c0,11.8-1.4,19.6-4.1,23.5c-2.8,3.9-6.2,5.8-10.3,5.8c-4,0-7.3-1.7-9.7-5.1C70.3,55.1,68.8,47.1,68.8,35.3
								z"/>
						</g>
					</g>
				</g>
			</g>
			<g id="text_6">
				<g transform="translate(229.325156 240.149075)scale(0.06 -0.06)">
					<g>
						<path id="ArialMT-44" d="M7.7,0v71.6h24.7c5.6,0,9.8-0.3,12.8-1c4.1-0.9,7.6-2.7,10.5-5.1c3.8-3.2,6.6-7.3,8.5-12.3
							c1.9-5,2.8-10.6,2.8-17c0-5.4-0.6-10.3-1.9-14.5c-1.3-4.2-2.9-7.7-4.9-10.4c-2-2.8-4.2-4.9-6.5-6.5C51.2,3.2,48.4,2,45,1.2
							S37.9,0,33.5,0H7.7z M17.2,8.5h15.3c4.7,0,8.4,0.4,11.1,1.3s4.8,2.1,6.4,3.7c2.2,2.2,4,5.3,5.2,9s1.9,8.4,1.9,13.8
							c0,7.5-1.2,13.2-3.7,17.3s-5.4,6.7-9,8.1c-2.5,1-6.6,1.5-12.2,1.5h-15V8.5z"/>
					</g>
					<g>
						<path id="ArialMT-61" d="M112.7,6.4c-3.3-2.8-6.4-4.7-9.4-5.9c-3-1.1-6.2-1.7-9.7-1.7c-5.7,0-10.1,1.4-13.1,4.2
							s-4.6,6.3-4.6,10.7c0,2.5,0.6,4.9,1.7,7c1.2,2.1,2.7,3.8,4.5,5.1s4,2.2,6.3,2.9c1.7,0.5,4.3,0.9,7.8,1.3
							c7.1,0.8,12.3,1.8,15.7,3c0,1.2,0,2,0,2.3c0,3.6-0.8,6.1-2.5,7.6c-2.2,2-5.6,3-10,3c-4.1,0-7.2-0.7-9.2-2.2s-3.4-4-4.4-7.7
							l-8.6,1.2c0.8,3.7,2.1,6.6,3.9,8.9c1.8,2.3,4.4,4,7.8,5.2c3.4,1.2,7.3,1.8,11.8,1.8c4.4,0,8-0.5,10.8-1.6
							c2.8-1,4.8-2.4,6.1-3.9c1.3-1.6,2.2-3.6,2.7-6c0.3-1.5,0.4-4.2,0.4-8.1V21.7c0-8.2,0.2-13.3,0.6-15.5c0.4-2.2,1.1-4.2,2.2-6.2
							h-9.2C113.5,1.8,112.9,4,112.7,6.4z M111.9,26c-3.2-1.3-8-2.4-14.4-3.3c-3.6-0.5-6.2-1.1-7.7-1.8c-1.5-0.6-2.6-1.6-3.5-2.8
							c-0.8-1.2-1.2-2.6-1.2-4.2c0-2.3,0.9-4.3,2.7-5.9c1.8-1.6,4.4-2.3,7.8-2.3c3.4,0,6.4,0.7,9,2.2c2.6,1.5,4.6,3.5,5.8,6.1
							c0.9,2,1.4,4.9,1.4,8.8V26z"/>
					</g>
					<g>
						<path id="ArialMT-79" d="M134-20l-1,8.2c1.9-0.5,3.6-0.8,5-0.8c2,0,3.5,0.3,4.7,1c1.2,0.6,2.1,1.6,2.9,2.7
							c0.6,0.9,1.4,3.1,2.7,6.5c0.2,0.5,0.4,1.2,0.8,2.2l-19.7,52h9.5l10.8-30c1.4-3.8,2.7-7.8,3.8-12c1,4,2.2,8,3.6,11.8l11.1,30.2
							h8.8L157.2-0.9c-2.1-5.7-3.8-9.6-4.9-11.8c-1.6-2.9-3.4-5-5.4-6.4c-2-1.4-4.4-2-7.2-2C138-21,136.1-20.7,134-20z"/>
					</g>
					<g>
						<path id="ArialMT-73" d="M180.9,15.5l8.7,1.4c0.5-3.5,1.8-6.1,4.1-8c2.2-1.9,5.3-2.8,9.4-2.8c4,0,7,0.8,9,2.5
							c2,1.6,2.9,3.6,2.9,5.8c0,2-0.9,3.5-2.6,4.7c-1.2,0.8-4.2,1.8-9,3c-6.4,1.6-10.9,3-13.4,4.2c-2.5,1.2-4.4,2.8-5.7,4.9
							c-1.3,2.1-1.9,4.4-1.9,7c0,2.3,0.5,4.4,1.6,6.4c1.1,2,2.5,3.6,4.3,4.9c1.4,1,3.2,1.8,5.6,2.5c2.4,0.7,4.9,1.1,7.6,1.1
							c4.1,0,7.6-0.6,10.7-1.8c3.1-1.2,5.4-2.8,6.8-4.8c1.5-2,2.5-4.7,3-8l-8.6-1.2c-0.4,2.7-1.5,4.7-3.4,6.2
							c-1.9,1.5-4.5,2.2-7.9,2.2c-4,0-6.9-0.7-8.6-2c-1.7-1.3-2.6-2.9-2.6-4.7c0-1.1,0.4-2.2,1.1-3.1c0.7-0.9,1.8-1.7,3.4-2.3
							c0.9-0.3,3.5-1.1,7.8-2.2c6.2-1.7,10.6-3,13-4.1c2.5-1.1,4.4-2.6,5.8-4.6c1.4-2,2.1-4.5,2.1-7.5c0-2.9-0.9-5.7-2.6-8.3
							c-1.7-2.6-4.2-4.6-7.4-6c-3.2-1.4-6.9-2.1-10.9-2.1c-6.7,0-11.9,1.4-15.4,4.2S181.9,10,180.9,15.5z"/>
					</g>
				</g>
			</g>
		</g>
		<g id="matplotlib.axis_2">
			<g id="ytick_1">
				<g id="line2d_6">
					<g>
						<g>
							<path id="m43f8636cec" class="st7" d="M57.6,217.3h-3.5"/>
						</g>
					</g>
				</g>
				<g id="text_7">
					<g transform="translate(47.263438 219.43404)scale(0.06 -0.06)">
						<g>
							<path id="ArialMT-35" d="M4.2,18.7l9.2,0.8c0.7-4.5,2.3-7.9,4.8-10.1c2.5-2.3,5.5-3.4,9-3.4c4.2,0,7.8,1.6,10.7,4.8
								c2.9,3.2,4.4,7.4,4.4,12.7c0,5-1.4,9-4.2,11.9c-2.8,2.9-6.5,4.4-11.1,4.4c-2.8,0-5.4-0.6-7.7-1.9c-2.3-1.3-4.1-2.9-5.4-5
								l-8.2,1.1l6.9,36.8h35.6v-8.4H19.7L15.8,43c4.3,3,8.8,4.5,13.5,4.5c6.3,0,11.5-2.2,15.8-6.5c4.3-4.3,6.5-9.9,6.5-16.7
								c0-6.5-1.9-12.1-5.7-16.8c-4.6-5.8-10.9-8.7-18.8-8.7c-6.5,0-11.8,1.8-16,5.5C7.1,7.9,4.7,12.7,4.2,18.7z"/>
						</g>
					</g>
				</g>
			</g>
			<g id="ytick_2">
				<g id="line2d_7">
					<g>
						<g>
							<path id="m43f8636cec_00000154389583797445850650000010872961532555350167_" class="st7" d="M57.6,190h-3.5"/>
						</g>
					</g>
				</g>
				<g id="text_8">
					<g transform="translate(43.926875 192.16704)scale(0.06 -0.06)">
						<g>
							<path id="ArialMT-31_00000134940746973829388460000018299806068802750644_" d="M37.2,0h-8.8v56c-2.1-2-4.9-4-8.3-6
								s-6.5-3.5-9.2-4.5v8.5c4.9,2.3,9.2,5.1,12.9,8.4c3.7,3.3,6.3,6.5,7.8,9.6h5.7V0z"/>
						</g>
						<g>
							<path id="ArialMT-30_00000021831387995658661660000010139436647692706181_" d="M59.8,35.3c0,8.5,0.9,15.3,2.6,20.4
								c1.7,5.2,4.3,9.1,7.8,11.9c3.4,2.8,7.8,4.2,13,4.2c3.8,0,7.2-0.8,10.1-2.3c2.9-1.5,5.3-3.8,7.2-6.7c1.9-2.9,3.4-6.5,4.5-10.6
								c1.1-4.2,1.6-9.8,1.6-16.9c0-8.4-0.9-15.2-2.6-20.3c-1.7-5.2-4.3-9.1-7.7-12c-3.4-2.8-7.8-4.2-13-4.2
								c-6.9,0-12.3,2.5-16.2,7.4C62.1,12.2,59.8,21.9,59.8,35.3z M68.8,35.3c0-11.7,1.4-19.6,4.1-23.5C75.7,7.9,79.1,6,83.1,6
								c4,0,7.4,2,10.2,5.9s4.1,11.7,4.1,23.4c0,11.8-1.4,19.6-4.1,23.5c-2.8,3.9-6.2,5.8-10.3,5.8c-4,0-7.3-1.7-9.7-5.1
								C70.3,55.1,68.8,47.1,68.8,35.3z"/>
						</g>
					</g>
				</g>
			</g>
			<g id="ytick_3">
				<g id="line2d_8">
					<g>
						<g>
							<path id="m43f8636cec_00000034783832151240194520000006246587600158157956_" class="st7" d="M57.6,162.8h-3.5"/>
						</g>
					</g>
				</g>
				<g id="text_9">
					<g transform="translate(43.926875 164.90004)scale(0.06 -0.06)">
						<g>
							<path id="ArialMT-31_00000162311644992133318440000018034653278039255683_" d="M37.2,0h-8.8v56c-2.1-2-4.9-4-8.3-6
								s-6.5-3.5-9.2-4.5v8.5c4.9,2.3,9.2,5.1,12.9,8.4c3.7,3.3,6.3,6.5,7.8,9.6h5.7V0z"/>
						</g>
						<g>
							<path id="ArialMT-35_00000132067531502312850770000014953915096064535999_" d="M59.8,18.7l9.2,0.8c0.7-4.5,2.3-7.9,4.8-10.1
								c2.5-2.3,5.5-3.4,9-3.4c4.2,0,7.8,1.6,10.7,4.8c2.9,3.2,4.4,7.4,4.4,12.7c0,5-1.4,9-4.2,11.9c-2.8,2.9-6.5,4.4-11.1,4.4
								c-2.8,0-5.4-0.6-7.7-1.9c-2.3-1.3-4.1-2.9-5.4-5l-8.2,1.1l6.9,36.8h35.6v-8.4H75.3L71.4,43c4.3,3,8.8,4.5,13.5,4.5
								c6.2,0,11.5-2.2,15.8-6.5c4.3-4.3,6.5-9.9,6.5-16.7c0-6.5-1.9-12.1-5.7-16.8C97,1.7,90.7-1.2,82.8-1.2
								c-6.5,0-11.8,1.8-16,5.5C62.7,7.9,60.4,12.7,59.8,18.7z"/>
						</g>
					</g>
				</g>
			</g>
			<g id="ytick_4">
				<g id="line2d_9">
					<g>
						<g>
							<path id="m43f8636cec_00000036973868531563996710000004504845151894746029_" class="st7" d="M57.6,135.5h-3.5"/>
						</g>
					</g>
				</g>
				<g id="text_10">
					<g transform="translate(43.926875 137.63304)scale(0.06 -0.06)">
						<g>
							<path id="ArialMT-32_00000150091887767114007320000008083032150930110639_" d="M50.3,8.5V0H3C3,2.1,3.3,4.2,4,6.1
								c1.2,3.2,3.1,6.4,5.8,9.5c2.7,3.1,6.5,6.7,11.5,10.8c7.8,6.4,13,11.4,15.8,15.2c2.7,3.7,4.1,7.3,4.1,10.6
								c0,3.5-1.2,6.4-3.8,8.8c-2.5,2.4-5.7,3.6-9.7,3.6c-4.2,0-7.6-1.3-10.2-3.8c-2.5-2.5-3.8-6-3.9-10.5l-9,0.9
								c0.6,6.7,2.9,11.9,7,15.4c4,3.5,9.5,5.3,16.3,5.3c6.9,0,12.3-1.9,16.3-5.7c4-3.8,6-8.5,6-14.2c0-2.9-0.6-5.7-1.8-8.5
								c-1.2-2.8-3.1-5.7-5.8-8.7s-7.2-7.3-13.5-12.6c-5.3-4.4-8.7-7.4-10.2-9c-1.5-1.6-2.7-3.2-3.7-4.8H50.3z"/>
						</g>
						<g>
							<path id="ArialMT-30_00000119096247970863076440000004843689422962353314_" d="M59.8,35.3c0,8.5,0.9,15.3,2.6,20.4
								c1.7,5.2,4.3,9.1,7.8,11.9c3.4,2.8,7.8,4.2,13,4.2c3.8,0,7.2-0.8,10.1-2.3c2.9-1.5,5.3-3.8,7.2-6.7c1.9-2.9,3.4-6.5,4.5-10.6
								c1.1-4.2,1.6-9.8,1.6-16.9c0-8.4-0.9-15.2-2.6-20.3c-1.7-5.2-4.3-9.1-7.7-12c-3.4-2.8-7.8-4.2-13-4.2
								c-6.9,0-12.3,2.5-16.2,7.4C62.1,12.2,59.8,21.9,59.8,35.3z M68.8,35.3c0-11.7,1.4-19.6,4.1-23.5C75.7,7.9,79.1,6,83.1,6
								c4,0,7.4,2,10.2,5.9s4.1,11.7,4.1,23.4c0,11.8-1.4,19.6-4.1,23.5c-2.8,3.9-6.2,5.8-10.3,5.8c-4,0-7.3-1.7-9.7-5.1
								C70.3,55.1,68.8,47.1,68.8,35.3z"/>
						</g>
					</g>
				</g>
			</g>
			<g id="ytick_5">
				<g id="line2d_10">
					<g>
						<g>
							<path id="m43f8636cec_00000170261277340895960620000001516887080215097505_" class="st7" d="M57.6,108.2h-3.5"/>
						</g>
					</g>
				</g>
				<g id="text_11">
					<g transform="translate(43.926875 110.36604)scale(0.06 -0.06)">
						<g>
							<path id="ArialMT-32_00000132061986725156235070000010634385460273855153_" d="M50.3,8.5V0H3C3,2.1,3.3,4.2,4,6.1
								c1.2,3.2,3.1,6.4,5.8,9.5c2.7,3.1,6.5,6.7,11.5,10.8c7.8,6.4,13,11.4,15.8,15.2c2.7,3.7,4.1,7.3,4.1,10.6
								c0,3.5-1.2,6.4-3.8,8.8c-2.5,2.4-5.7,3.6-9.7,3.6c-4.2,0-7.6-1.3-10.2-3.8c-2.5-2.5-3.8-6-3.9-10.5l-9,0.9
								c0.6,6.7,2.9,11.9,7,15.4c4,3.5,9.5,5.3,16.3,5.3c6.9,0,12.3-1.9,16.3-5.7c4-3.8,6-8.5,6-14.2c0-2.9-0.6-5.7-1.8-8.5
								c-1.2-2.8-3.1-5.7-5.8-8.7s-7.2-7.3-13.5-12.6c-5.3-4.4-8.7-7.4-10.2-9c-1.5-1.6-2.7-3.2-3.7-4.7H50.3z"/>
						</g>
						<g>
							<path id="ArialMT-35_00000137845378518928030970000003594657957281177770_" d="M59.8,18.7l9.2,0.8c0.7-4.5,2.3-7.9,4.8-10.1
								c2.5-2.3,5.5-3.4,9-3.4c4.2,0,7.8,1.6,10.7,4.8c2.9,3.2,4.4,7.4,4.4,12.7c0,5-1.4,9-4.2,11.9c-2.8,2.9-6.5,4.4-11.1,4.4
								c-2.8,0-5.4-0.6-7.7-1.9c-2.3-1.3-4.1-2.9-5.4-5l-8.2,1.1l6.9,36.8h35.6v-8.4H75.3L71.4,43c4.3,3,8.8,4.5,13.5,4.5
								c6.2,0,11.5-2.2,15.8-6.5c4.3-4.3,6.5-9.9,6.5-16.7c0-6.5-1.9-12.1-5.7-16.8C97,1.7,90.7-1.2,82.8-1.2
								c-6.5,0-11.8,1.8-16,5.5C62.7,7.9,60.4,12.7,59.8,18.7z"/>
						</g>
					</g>
				</g>
			</g>
			<g id="ytick_6">
				<g id="line2d_11">
					<g>
						<g>
							<path id="m43f8636cec_00000117668893569526632940000008838233790655359655_" class="st7" d="M57.6,81h-3.5"/>
						</g>
					</g>
				</g>
				<g id="text_12">
					<g transform="translate(43.926875 83.09904)scale(0.06 -0.06)">
						<g>
							<path id="ArialMT-33" d="M4.2,18.9l8.8,1.2c1-5,2.7-8.6,5.2-10.8S23.5,6,27,6c4.1,0,7.6,1.4,10.5,4.3
								c2.9,2.9,4.3,6.4,4.3,10.7c0,4-1.3,7.4-4,10c-2.6,2.6-6,3.9-10.1,3.9c-1.7,0-3.7-0.3-6.2-1l1,7.7c0.6-0.1,1.1-0.1,1.4-0.1
								c3.8,0,7.1,1,10.1,2.9c3,2,4.5,5,4.5,9c0,3.2-1.1,5.9-3.3,8c-2.2,2.1-5,3.2-8.4,3.2c-3.4,0-6.3-1.1-8.5-3.2
								c-2.3-2.1-3.7-5.4-4.4-9.7l-8.8,1.6c1.1,5.9,3.5,10.4,7.3,13.7c3.8,3.2,8.6,4.9,14.2,4.9c3.9,0,7.5-0.8,10.8-2.5
								c3.3-1.7,5.8-4,7.5-6.9c1.8-2.9,2.6-6,2.6-9.2c0-3.1-0.8-5.9-2.5-8.4c-1.7-2.5-4.1-4.6-7.4-6.1c4.2-1,7.5-3,9.9-6.1
								c2.3-3.1,3.5-6.9,3.5-11.5c0-6.2-2.3-11.5-6.8-15.9C39.7,0.9,33.9-1.3,27-1.3c-6.3,0-11.5,1.9-15.7,5.6
								C7.2,8.1,4.8,12.9,4.2,18.9z"/>
						</g>
						<g>
							<path id="ArialMT-30_00000164480906159083933160000012808951529243859369_" d="M59.8,35.3c0,8.5,0.9,15.3,2.6,20.4
								c1.7,5.2,4.3,9.1,7.8,11.9c3.4,2.8,7.8,4.2,13,4.2c3.8,0,7.2-0.8,10.1-2.3c2.9-1.5,5.3-3.8,7.2-6.7c1.9-2.9,3.4-6.5,4.5-10.6
								c1.1-4.2,1.6-9.8,1.6-16.9c0-8.4-0.9-15.2-2.6-20.3c-1.7-5.2-4.3-9.1-7.7-12c-3.4-2.8-7.8-4.2-13-4.2
								c-6.9,0-12.3,2.5-16.2,7.4C62.1,12.2,59.8,21.9,59.8,35.3z M68.8,35.3c0-11.7,1.4-19.6,4.1-23.5C75.7,7.9,79.1,6,83.1,6
								c4,0,7.4,2,10.2,5.9s4.1,11.7,4.1,23.4c0,11.8-1.4,19.6-4.1,23.5c-2.8,3.9-6.2,5.8-10.3,5.8c-4,0-7.3-1.7-9.7-5.1
								C70.3,55.1,68.8,47.1,68.8,35.3z"/>
						</g>
					</g>
				</g>
			</g>
			<g id="ytick_7">
				<g id="line2d_12">
					<g>
						<g>
							<path id="m43f8636cec_00000061462806827052937510000000787954371758224054_" class="st7" d="M57.6,53.7h-3.5"/>
						</g>
					</g>
				</g>
				<g id="text_13">
					<g transform="translate(43.926875 55.83204)scale(0.06 -0.06)">
						<g>
							<path id="ArialMT-33_00000063608041226505188330000009285851124840076695_" d="M4.2,18.9l8.8,1.2c1-5,2.7-8.6,5.2-10.8
								S23.5,6,27,6c4.1,0,7.6,1.4,10.5,4.3c2.9,2.9,4.3,6.4,4.3,10.7c0,4-1.3,7.4-4,10c-2.6,2.6-6,3.9-10.1,3.9
								c-1.7,0-3.7-0.3-6.2-1l1,7.7c0.6-0.1,1.1-0.1,1.4-0.1c3.8,0,7.1,1,10.1,2.9c3,2,4.5,5,4.5,9c0,3.2-1.1,5.9-3.3,8
								c-2.2,2.1-5,3.2-8.4,3.2c-3.4,0-6.3-1.1-8.5-3.2c-2.3-2.1-3.7-5.4-4.4-9.7l-8.8,1.6c1.1,5.9,3.5,10.4,7.3,13.7
								c3.8,3.2,8.6,4.9,14.2,4.9c3.9,0,7.5-0.8,10.8-2.5c3.3-1.7,5.8-4,7.5-6.9c1.8-2.9,2.6-6,2.6-9.2c0-3.1-0.8-5.9-2.5-8.4
								c-1.7-2.5-4.1-4.6-7.4-6.1c4.2-1,7.5-3,9.9-6.1c2.3-3.1,3.5-6.9,3.5-11.5c0-6.2-2.3-11.5-6.8-15.9C39.7,0.9,33.9-1.3,27-1.3
								c-6.3,0-11.5,1.9-15.7,5.6C7.2,8.1,4.8,12.9,4.2,18.9z"/>
						</g>
						<g>
							<path id="ArialMT-35_00000062182175059235887610000010807111784598814113_" d="M59.8,18.7l9.2,0.8c0.7-4.5,2.3-7.9,4.8-10.1
								c2.5-2.3,5.5-3.4,9-3.4c4.2,0,7.8,1.6,10.7,4.8c2.9,3.2,4.4,7.4,4.4,12.7c0,5-1.4,9-4.2,11.9c-2.8,2.9-6.5,4.4-11.1,4.4
								c-2.8,0-5.4-0.6-7.7-1.9c-2.3-1.3-4.1-2.9-5.4-5l-8.2,1.1l6.9,36.8h35.6v-8.4H75.3L71.4,43c4.3,3,8.8,4.5,13.5,4.5
								c6.2,0,11.5-2.2,15.8-6.5c4.3-4.3,6.5-9.9,6.5-16.7c0-6.5-1.9-12.1-5.7-16.8C97,1.7,90.7-1.2,82.8-1.2
								c-6.5,0-11.8,1.8-16,5.5C62.7,7.9,60.4,12.7,59.8,18.7z"/>
						</g>
					</g>
				</g>
			</g>
			<g id="text_14">
				<g transform="translate(38.734375 186.840994)rotate(-90)scale(0.06 -0.06)">
					<g>
						<path id="ArialMT-4d" d="M7.4,0v71.6h14.3l16.9-50.7c1.6-4.7,2.7-8.3,3.4-10.6c0.8,2.6,2.1,6.4,3.8,11.5L63,71.6h12.8V0h-9.1
							v59.9L45.8,0h-8.5L16.5,60.9V0H7.4z"/>
					</g>
					<g>
						<path id="ArialMT-61_00000121257147762896742000000012347687448653163662_" d="M123.7,6.4c-3.3-2.8-6.4-4.7-9.4-5.9
							c-3-1.1-6.2-1.7-9.7-1.7c-5.7,0-10.1,1.4-13.1,4.2s-4.6,6.3-4.6,10.7c0,2.5,0.6,4.9,1.7,7c1.2,2.1,2.7,3.8,4.5,5.1
							s4,2.2,6.3,2.9c1.7,0.5,4.3,0.9,7.8,1.3c7.1,0.8,12.3,1.8,15.7,3c0,1.2,0,2,0,2.3c0,3.6-0.8,6.1-2.5,7.6c-2.2,2-5.6,3-10,3
							c-4.1,0-7.2-0.7-9.2-2.2s-3.4-4-4.4-7.7l-8.6,1.2c0.8,3.7,2.1,6.6,3.9,8.9s4.4,4,7.8,5.2c3.4,1.2,7.3,1.8,11.8,1.8
							c4.4,0,8-0.5,10.8-1.6c2.8-1,4.8-2.4,6.1-3.9c1.3-1.6,2.2-3.6,2.7-6c0.3-1.5,0.4-4.2,0.4-8.1V21.7c0-8.2,0.2-13.3,0.6-15.5
							c0.4-2.2,1.1-4.2,2.2-6.2h-9.2C124.6,1.8,124,4,123.7,6.4z M123,26c-3.2-1.3-8-2.4-14.4-3.3c-3.6-0.5-6.2-1.1-7.7-1.8
							c-1.5-0.6-2.6-1.6-3.5-2.8c-0.8-1.2-1.2-2.6-1.2-4.2c0-2.3,0.9-4.3,2.7-5.9c1.8-1.6,4.4-2.3,7.8-2.3c3.4,0,6.4,0.7,9,2.2
							s4.6,3.5,5.8,6.1c0.9,2,1.4,4.9,1.4,8.8V26z"/>
					</g>
					<g>
						<path id="ArialMT-68" d="M145.5,0v71.6h8.8V45.9c4.1,4.8,9.3,7.1,15.5,7.1c3.8,0,7.2-0.8,10-2.3c2.8-1.5,4.9-3.6,6.1-6.3
							s1.8-6.5,1.8-11.6V0H179v32.9c0,4.4-1,7.6-2.9,9.6s-4.6,3-8.1,3c-2.6,0-5.1-0.7-7.4-2c-2.3-1.3-3.9-3.2-4.9-5.5
							s-1.5-5.5-1.5-9.6V0H145.5z"/>
					</g>
					<g>
						<path id="ArialMT-61_00000002366545439463413270000014469030368378569393_" d="M235,6.4c-3.3-2.8-6.4-4.7-9.4-5.9
							c-3-1.1-6.2-1.7-9.7-1.7c-5.7,0-10.1,1.4-13.1,4.2s-4.6,6.3-4.6,10.7c0,2.5,0.6,4.9,1.7,7c1.2,2.1,2.7,3.8,4.5,5.1
							s4,2.2,6.3,2.9c1.7,0.5,4.3,0.9,7.8,1.3c7.1,0.8,12.3,1.8,15.7,3c0,1.2,0,2,0,2.3c0,3.6-0.8,6.1-2.5,7.6c-2.2,2-5.6,3-10,3
							c-4.1,0-7.2-0.7-9.2-2.2s-3.4-4-4.4-7.7l-8.6,1.2c0.8,3.7,2.1,6.6,3.9,8.9s4.4,4,7.8,5.2c3.4,1.2,7.3,1.8,11.8,1.8
							c4.4,0,8-0.5,10.8-1.6c2.8-1,4.8-2.4,6.1-3.9c1.3-1.6,2.2-3.6,2.7-6c0.3-1.5,0.4-4.2,0.4-8.1V21.7c0-8.2,0.2-13.3,0.6-15.5
							c0.4-2.2,1.1-4.2,2.2-6.2h-9.2C235.8,1.8,235.2,4,235,6.4z M234.2,26c-3.2-1.3-8-2.4-14.4-3.3c-3.6-0.5-6.2-1.1-7.7-1.8
							c-1.5-0.6-2.6-1.6-3.5-2.8c-0.8-1.2-1.2-2.6-1.2-4.2c0-2.3,0.9-4.3,2.7-5.9c1.8-1.6,4.4-2.3,7.8-2.3c3.4,0,6.4,0.7,9,2.2
							s4.6,3.5,5.8,6.1c0.9,2,1.4,4.9,1.4,8.8V26z"/>
					</g>
					<g>
						<path id="ArialMT-6c" d="M256.5,0v71.6h8.8V0H256.5z"/>
					</g>
					<g>
						<path id="ArialMT-61_00000153686122056733770230000001253174953125013693_" d="M312.8,6.4c-3.3-2.8-6.4-4.7-9.4-5.9
							c-3-1.1-6.2-1.7-9.7-1.7c-5.7,0-10.1,1.4-13.1,4.2S276,9.3,276,13.7c0,2.5,0.6,4.9,1.7,7c1.2,2.1,2.7,3.8,4.5,5.1
							s4,2.2,6.3,2.9c1.7,0.5,4.3,0.9,7.8,1.3c7.1,0.8,12.3,1.8,15.7,3c0,1.2,0,2,0,2.3c0,3.6-0.8,6.1-2.5,7.6c-2.2,2-5.6,3-10,3
							c-4.1,0-7.2-0.7-9.2-2.2s-3.4-4-4.4-7.7l-8.6,1.2c0.8,3.7,2.1,6.6,3.9,8.9c1.8,2.3,4.4,4,7.8,5.2c3.4,1.2,7.3,1.8,11.8,1.8
							c4.4,0,8-0.5,10.8-1.6c2.8-1,4.8-2.4,6.1-3.9c1.3-1.6,2.2-3.6,2.7-6c0.3-1.5,0.4-4.2,0.4-8.1V21.7c0-8.2,0.2-13.3,0.6-15.5
							c0.4-2.2,1.1-4.2,2.2-6.2h-9.2C313.6,1.8,313.1,4,312.8,6.4z M312.1,26c-3.2-1.3-8-2.4-14.4-3.3c-3.6-0.5-6.2-1.1-7.7-1.8
							c-1.5-0.6-2.6-1.6-3.5-2.8c-0.8-1.2-1.2-2.6-1.2-4.2c0-2.3,0.9-4.3,2.7-5.9c1.8-1.6,4.4-2.3,7.8-2.3c3.4,0,6.4,0.7,9,2.2
							c2.6,1.5,4.6,3.5,5.8,6.1c0.9,2,1.4,4.9,1.4,8.8V26z"/>
					</g>
					<g>
						<path id="ArialMT-6e" d="M334.6,0v51.9h7.9v-7.4c3.8,5.7,9.3,8.5,16.5,8.5c3.1,0,6-0.6,8.6-1.7s4.6-2.6,5.9-4.4
							c1.3-1.8,2.2-4,2.7-6.5c0.3-1.6,0.5-4.5,0.5-8.5V0h-8.8v31.5c0,3.6-0.3,6.3-1,8c-0.7,1.8-1.9,3.2-3.6,4.2
							c-1.7,1.1-3.8,1.6-6.1,1.6c-3.8,0-7-1.2-9.7-3.6s-4.1-6.9-4.1-13.5V0H334.6z"/>
					</g>
					<g>
						<path id="ArialMT-6f" d="M386.9,25.9c0,9.6,2.7,16.7,8,21.3c4.5,3.8,9.9,5.8,16.3,5.8c7.1,0,12.9-2.3,17.5-7
							c4.5-4.7,6.8-11.1,6.8-19.4c0-6.7-1-11.9-3-15.8c-2-3.8-4.9-6.8-8.8-8.9c-3.8-2.1-8-3.2-12.5-3.2c-7.3,0-13.1,2.3-17.6,7
							C389.2,10.5,386.9,17.2,386.9,25.9z M396,25.9c0-6.6,1.4-11.6,4.3-14.9c2.9-3.3,6.5-5,10.9-5c4.4,0,8,1.7,10.9,5
							c2.9,3.3,4.3,8.4,4.3,15.2c0,6.4-1.5,11.3-4.4,14.6c-2.9,3.3-6.5,5-10.9,5c-4.4,0-8-1.6-10.9-4.9
							C397.4,37.5,396,32.6,396,25.9z"/>
					</g>
					<g>
						<path id="ArialMT-62" d="M453.9,0h-8.2v71.6h8.8V46c3.7,4.7,8.5,7,14.2,7c3.2,0,6.2-0.6,9-1.9c2.9-1.3,5.2-3.1,7-5.4
							c1.8-2.3,3.3-5.1,4.3-8.4c1-3.3,1.6-6.8,1.6-10.5c0-8.9-2.2-15.8-6.6-20.6c-4.4-4.8-9.7-7.3-15.8-7.3
							c-6.1,0-10.9,2.6-14.4,7.7V0z M453.8,26.3c0-6.2,0.8-10.7,2.5-13.5c2.8-4.5,6.5-6.8,11.2-6.8c3.8,0,7.2,1.7,10,5
							c2.8,3.3,4.2,8.3,4.2,14.9c0,6.8-1.3,11.8-4,15s-5.9,4.8-9.7,4.8c-3.8,0-7.2-1.7-10-5C455.2,37.5,453.8,32.6,453.8,26.3z"/>
					</g>
					<g>
						<path id="ArialMT-69" d="M501.5,61.5v10.1h8.8V61.5H501.5z M501.5,0v51.9h8.8V0H501.5z"/>
					</g>
					<g>
						<path id="ArialMT-73_00000023277866505362585290000002503814305395188865_" d="M520.1,15.5l8.7,1.4c0.5-3.5,1.8-6.1,4.1-8
							c2.2-1.9,5.3-2.8,9.4-2.8c4,0,7,0.8,9,2.5c2,1.6,2.9,3.6,2.9,5.8c0,2-0.9,3.5-2.6,4.7c-1.2,0.8-4.2,1.8-9,3
							c-6.4,1.6-10.9,3-13.4,4.2c-2.5,1.2-4.4,2.8-5.7,4.9c-1.3,2.1-1.9,4.4-1.9,7c0,2.3,0.5,4.4,1.6,6.4c1.1,2,2.5,3.6,4.3,4.9
							c1.4,1,3.2,1.8,5.6,2.5c2.4,0.7,4.9,1.1,7.6,1.1c4.1,0,7.6-0.6,10.7-1.8c3.1-1.2,5.4-2.8,6.8-4.8c1.5-2,2.5-4.7,3-8l-8.6-1.2
							c-0.4,2.7-1.5,4.7-3.4,6.2c-1.9,1.5-4.5,2.2-7.9,2.2c-4,0-6.9-0.7-8.6-2c-1.7-1.3-2.6-2.9-2.6-4.7c0-1.1,0.4-2.2,1.1-3.1
							c0.7-0.9,1.8-1.7,3.4-2.3c0.9-0.3,3.5-1.1,7.8-2.2c6.2-1.7,10.6-3,13-4.1c2.5-1.1,4.4-2.6,5.8-4.6c1.4-2,2.1-4.5,2.1-7.5
							c0-2.9-0.9-5.7-2.6-8.3c-1.7-2.6-4.2-4.6-7.4-6c-3.2-1.4-6.9-2.1-10.9-2.1c-6.7,0-11.9,1.4-15.4,4.2S521.1,10,520.1,15.5z"/>
					</g>
					<g>
						<path id="ArialMT-20" d="M567,0"/>
					</g>
					<g>
						<path id="ArialMT-64" d="M635.1,0v6.5c-3.3-5.1-8.1-7.7-14.5-7.7c-4.1,0-7.9,1.1-11.4,3.4s-6.2,5.5-8.1,9.5
							c-1.9,4.1-2.8,8.8-2.8,14.1c0,5.2,0.9,9.9,2.6,14.1c1.7,4.2,4.3,7.4,7.8,9.7c3.5,2.2,7.3,3.4,11.6,3.4c3.1,0,5.9-0.7,8.3-2
							c2.4-1.3,4.4-3,6-5.1v25.7h8.7V0H635.1z M607.3,25.9c0-6.6,1.4-11.6,4.2-14.9c2.8-3.3,6.1-4.9,9.9-4.9c3.8,0,7.1,1.6,9.8,4.7
							c2.7,3.1,4,7.9,4,14.4c0,7.1-1.4,12.3-4.1,15.6c-2.7,3.3-6.1,5-10.1,5c-3.9,0-7.2-1.6-9.8-4.8
							C608.6,37.8,607.3,32.8,607.3,25.9z"/>
					</g>
					<g>
						<path id="ArialMT-69_00000159430049298486337580000010571501880866282168_" d="M657.1,61.5v10.1h8.8V61.5H657.1z M657.1,0
							v51.9h8.8V0H657.1z"/>
					</g>
					<g>
						<path id="ArialMT-73_00000052802061913591474110000003651364604107641238_" d="M675.7,15.5l8.7,1.4c0.5-3.5,1.8-6.1,4.1-8
							c2.2-1.9,5.3-2.8,9.4-2.8c4,0,7,0.8,9,2.5c2,1.6,2.9,3.6,2.9,5.8c0,2-0.9,3.5-2.6,4.7c-1.2,0.8-4.2,1.8-9,3
							c-6.4,1.6-10.9,3-13.4,4.2c-2.5,1.2-4.4,2.8-5.7,4.9c-1.3,2.1-1.9,4.4-1.9,7c0,2.3,0.5,4.4,1.6,6.4c1.1,2,2.5,3.6,4.3,4.9
							c1.4,1,3.2,1.8,5.6,2.5c2.4,0.7,4.9,1.1,7.6,1.1c4.1,0,7.6-0.6,10.7-1.8c3.1-1.2,5.4-2.8,6.8-4.8c1.5-2,2.5-4.7,3-8l-8.6-1.2
							c-0.4,2.7-1.5,4.7-3.4,6.2c-1.9,1.5-4.5,2.2-7.9,2.2c-4,0-6.9-0.7-8.6-2c-1.7-1.3-2.6-2.9-2.6-4.7c0-1.1,0.4-2.2,1.1-3.1
							c0.7-0.9,1.8-1.7,3.4-2.3c0.9-0.3,3.5-1.1,7.8-2.2c6.2-1.7,10.6-3,13-4.1c2.5-1.1,4.4-2.6,5.8-4.6c1.4-2,2.1-4.5,2.1-7.5
							c0-2.9-0.9-5.7-2.6-8.3c-1.7-2.6-4.2-4.6-7.4-6c-3.2-1.4-6.9-2.1-10.9-2.1c-6.7,0-11.9,1.4-15.4,4.2S676.7,10,675.7,15.5z"/>
					</g>
					<g>
						<path id="ArialMT-74" d="M748.4,7.9l1.3-7.8c-2.5-0.5-4.7-0.8-6.6-0.8c-3.2,0-5.7,0.5-7.4,1.5c-1.8,1-3,2.3-3.7,4
							s-1.1,5.1-1.1,10.4V45h-6.4v6.8h6.4v12.8l8.7,5.3V51.9h8.8V45h-8.8V14.7c0-2.5,0.2-4.1,0.5-4.8c0.3-0.7,0.8-1.3,1.5-1.7
							c0.7-0.4,1.7-0.6,3-0.6C745.6,7.5,746.8,7.6,748.4,7.9z"/>
					</g>
					<g>
						<path id="ArialMT-61_00000076596447676603637060000003330423071073680002_" d="M790.9,6.4c-3.3-2.8-6.4-4.7-9.4-5.9
							c-3-1.1-6.2-1.7-9.7-1.7c-5.7,0-10.1,1.4-13.1,4.2S754,9.3,754,13.7c0,2.5,0.6,4.9,1.7,7c1.2,2.1,2.7,3.8,4.5,5.1
							s4,2.2,6.3,2.9c1.7,0.5,4.3,0.9,7.8,1.3c7.1,0.8,12.3,1.8,15.7,3c0,1.2,0,2,0,2.3c0,3.6-0.8,6.1-2.5,7.6c-2.2,2-5.6,3-10,3
							c-4.1,0-7.2-0.7-9.2-2.2s-3.4-4-4.4-7.7l-8.6,1.2c0.8,3.7,2.1,6.6,3.9,8.9c1.8,2.3,4.4,4,7.8,5.2c3.4,1.2,7.3,1.8,11.8,1.8
							c4.4,0,8-0.5,10.8-1.6c2.8-1,4.8-2.4,6.1-3.9c1.3-1.6,2.2-3.6,2.7-6c0.3-1.5,0.4-4.2,0.4-8.1V21.7c0-8.2,0.2-13.3,0.6-15.5
							c0.4-2.2,1.1-4.2,2.2-6.2h-9.2C791.7,1.8,791.1,4,790.9,6.4z M790.1,26c-3.2-1.3-8-2.4-14.4-3.3c-3.6-0.5-6.2-1.1-7.7-1.8
							c-1.5-0.6-2.6-1.6-3.5-2.8c-0.8-1.2-1.2-2.6-1.2-4.2c0-2.3,0.9-4.3,2.7-5.9c1.8-1.6,4.4-2.3,7.8-2.3c3.4,0,6.4,0.7,9,2.2
							c2.6,1.5,4.6,3.5,5.8,6.1c0.9,2,1.4,4.9,1.4,8.8V26z"/>
					</g>
					<g>
						<path id="ArialMT-6e_00000049193896750598008530000005580993177478938503_" d="M812.6,0v51.9h7.9v-7.4
							c3.8,5.7,9.3,8.5,16.5,8.5c3.1,0,6-0.6,8.6-1.7s4.6-2.6,5.9-4.4c1.3-1.8,2.2-4,2.7-6.5c0.3-1.6,0.5-4.5,0.5-8.5V0H846v31.5
							c0,3.6-0.3,6.3-1,8c-0.7,1.8-1.9,3.2-3.6,4.2c-1.7,1.1-3.8,1.6-6.1,1.6c-3.8,0-7-1.2-9.7-3.6s-4.1-6.9-4.1-13.5V0H812.6z"/>
					</g>
					<g>
						<path id="ArialMT-63" d="M902.1,19l8.6-1.1c-0.9-6-3.4-10.6-7.3-14c-3.9-3.4-8.7-5-14.3-5c-7.1,0-12.8,2.3-17.1,7
							c-4.3,4.6-6.5,11.3-6.5,20c0,5.6,0.9,10.5,2.8,14.7c1.9,4.2,4.7,7.4,8.5,9.5c3.8,2.1,7.9,3.2,12.4,3.2
							c5.6,0,10.2-1.4,13.8-4.3c3.6-2.8,5.9-6.9,6.9-12.1l-8.5-1.3c-0.8,3.5-2.3,6.1-4.3,7.9c-2.1,1.8-4.6,2.6-7.5,2.6
							c-4.4,0-8-1.6-10.8-4.8c-2.8-3.2-4.1-8.2-4.1-15c0-7,1.3-12,4-15.2c2.7-3.2,6.2-4.7,10.5-4.7c3.4,0,6.3,1.1,8.6,3.2
							S901.5,14.6,902.1,19z"/>
					</g>
					<g>
						<path id="ArialMT-65" d="M953.8,16.7l9.1-1.1c-1.4-5.3-4.1-9.4-8-12.4c-3.9-2.9-8.8-4.4-14.8-4.4c-7.6,0-13.6,2.3-18,7
							c-4.4,4.7-6.7,11.2-6.7,19.7c0,8.7,2.2,15.5,6.7,20.3c4.5,4.8,10.3,7.2,17.5,7.2c6.9,0,12.6-2.4,17-7.1
							c4.4-4.7,6.6-11.4,6.6-19.9c0-0.5,0-1.3,0-2.3h-38.7c0.3-5.7,1.9-10.1,4.8-13.1c2.9-3,6.5-4.5,10.8-4.5c3.2,0,6,0.8,8.2,2.5
							C950.6,10.3,952.4,13,953.8,16.7z M924.9,30.9h29c-0.4,4.4-1.5,7.6-3.3,9.8c-2.8,3.4-6.4,5.1-10.9,5.1c-4,0-7.4-1.3-10.2-4
							S925.2,35.4,924.9,30.9z"/>
					</g>
					<g>
						<path id="ArialMT-20_00000164492686878048722400000016990036880015509408_" d="M967.3,0"/>
					</g>
					<g>
						<path id="ArialMT-62_00000129918035325264059290000009409981038256009863_" d="M1009.8,0h-8.2v71.6h8.8V46
							c3.7,4.7,8.5,7,14.2,7c3.2,0,6.2-0.6,9-1.9c2.9-1.3,5.2-3.1,7-5.4c1.8-2.3,3.3-5.1,4.3-8.4c1-3.3,1.6-6.8,1.6-10.5
							c0-8.9-2.2-15.8-6.6-20.6c-4.4-4.8-9.7-7.3-15.8-7.3c-6.1,0-10.9,2.6-14.4,7.7V0z M1009.7,26.3c0-6.2,0.8-10.7,2.5-13.5
							c2.8-4.5,6.5-6.8,11.2-6.8c3.8,0,7.2,1.7,10,5c2.8,3.3,4.2,8.3,4.2,14.9c0,6.8-1.3,11.8-4,15s-5.9,4.8-9.7,4.8
							c-3.8,0-7.2-1.7-10-5C1011.1,37.5,1009.7,32.6,1009.7,26.3z"/>
					</g>
					<g>
						<path id="ArialMT-65_00000052075205182165818240000011970737814234003902_" d="M1092.8,16.7l9.1-1.1c-1.4-5.3-4.1-9.4-8-12.4
							c-3.9-2.9-8.8-4.4-14.8-4.4c-7.6,0-13.6,2.3-18,7c-4.4,4.7-6.7,11.2-6.7,19.7c0,8.7,2.2,15.5,6.7,20.3
							c4.5,4.8,10.3,7.2,17.5,7.2c6.9,0,12.6-2.4,17-7.1c4.4-4.7,6.6-11.4,6.6-19.9c0-0.5,0-1.3,0-2.3h-38.7
							c0.3-5.7,1.9-10.1,4.8-13.1c2.9-3,6.5-4.5,10.8-4.5c3.2,0,6,0.8,8.2,2.5C1089.6,10.3,1091.4,13,1092.8,16.7z M1063.9,30.9h29
							c-0.4,4.4-1.5,7.6-3.3,9.8c-2.8,3.4-6.4,5.1-10.9,5.1c-4,0-7.4-1.3-10.2-4S1064.2,35.4,1063.9,30.9z"/>
					</g>
					<g>
						<path id="ArialMT-74_00000164487474047706604690000018157000384739065736_" d="M1132.1,7.9l1.3-7.8c-2.5-0.5-4.7-0.8-6.6-0.8
							c-3.2,0-5.7,0.5-7.4,1.5c-1.8,1-3,2.3-3.7,4s-1.1,5.1-1.1,10.4V45h-6.4v6.8h6.4v12.8l8.7,5.3V51.9h8.8V45h-8.8V14.7
							c0-2.5,0.2-4.1,0.5-4.8c0.3-0.7,0.8-1.3,1.5-1.7c0.7-0.4,1.7-0.6,3-0.6C1129.2,7.5,1130.5,7.6,1132.1,7.9z"/>
					</g>
					<g>
						<path id="ArialMT-77" d="M1150.2,0l-15.9,51.9h9.1l8.2-29.9l3.1-11.1c0.1,0.6,1,4.1,2.7,10.7l8.2,30.4h9l7.8-30.1l2.6-9.9
							l3,10l8.9,30h8.5L1189.3,0h-9.1l-8.2,31.1l-2,8.8L1159.4,0H1150.2z"/>
					</g>
					<g>
						<path id="ArialMT-65_00000152978142128081012380000009848347168041750711_" d="M1248.4,16.7l9.1-1.1c-1.4-5.3-4.1-9.4-8-12.4
							c-3.9-2.9-8.8-4.4-14.8-4.4c-7.6,0-13.6,2.3-18,7c-4.4,4.7-6.7,11.2-6.7,19.7c0,8.7,2.2,15.5,6.7,20.3
							c4.5,4.8,10.3,7.2,17.5,7.2c6.9,0,12.6-2.4,17-7.1c4.4-4.7,6.6-11.4,6.6-19.9c0-0.5,0-1.3,0-2.3H1219
							c0.3-5.7,1.9-10.1,4.8-13.1c2.9-3,6.5-4.5,10.8-4.5c3.2,0,6,0.8,8.2,2.5C1245.3,10.3,1247.1,13,1248.4,16.7z M1219.5,30.9h29
							c-0.4,4.4-1.5,7.6-3.3,9.8c-2.8,3.4-6.4,5.1-10.9,5.1c-4,0-7.4-1.3-10.2-4S1219.8,35.4,1219.5,30.9z"/>
					</g>
					<g>
						<path id="ArialMT-65_00000111150257833989020600000010484836477056009609_" d="M1304,16.7l9.1-1.1c-1.4-5.3-4.1-9.4-8-12.4
							c-3.9-2.9-8.8-4.4-14.8-4.4c-7.6,0-13.6,2.3-18,7c-4.4,4.7-6.7,11.2-6.7,19.7c0,8.7,2.2,15.5,6.7,20.3
							c4.5,4.8,10.3,7.2,17.5,7.2c6.9,0,12.6-2.4,17-7.1c4.4-4.7,6.6-11.4,6.6-19.9c0-0.5,0-1.3,0-2.3h-38.7
							c0.3-5.7,1.9-10.1,4.8-13.1c2.9-3,6.5-4.5,10.8-4.5c3.2,0,6,0.8,8.2,2.5C1300.9,10.3,1302.7,13,1304,16.7z M1275.1,30.9h29
							c-0.4,4.4-1.5,7.6-3.3,9.8c-2.8,3.4-6.4,5.1-10.9,5.1c-4,0-7.4-1.3-10.2-4S1275.4,35.4,1275.1,30.9z"/>
					</g>
					<g>
						<path id="ArialMT-6e_00000034090273547389195380000004218509156121649302_" d="M1324.1,0v51.9h7.9v-7.4
							c3.8,5.7,9.3,8.5,16.5,8.5c3.1,0,6-0.6,8.6-1.7s4.6-2.6,5.9-4.4c1.3-1.8,2.2-4,2.7-6.5c0.3-1.6,0.5-4.5,0.5-8.5V0h-8.8v31.5
							c0,3.6-0.3,6.3-1,8c-0.7,1.8-1.9,3.2-3.6,4.2c-1.7,1.1-3.8,1.6-6.1,1.6c-3.8,0-7-1.2-9.7-3.6s-4.1-6.9-4.1-13.5V0H1324.1z"/>
					</g>
					<g>
						<path id="ArialMT-20_00000060016911899482796820000005170219386561886629_" d="M1373.1,0"/>
					</g>
					<g>
						<path id="ArialMT-6c_00000127031188664739330500000017384355371793831080_" d="M1407.3,0v71.6h8.8V0H1407.3z"/>
					</g>
					<g>
						<path id="ArialMT-61_00000036966633283853748470000005450234410467614392_" d="M1463.6,6.4c-3.3-2.8-6.4-4.7-9.4-5.9
							c-3-1.1-6.2-1.7-9.7-1.7c-5.7,0-10.1,1.4-13.1,4.2s-4.6,6.3-4.6,10.7c0,2.5,0.6,4.9,1.7,7c1.2,2.1,2.7,3.8,4.5,5.1
							s4,2.2,6.3,2.9c1.7,0.5,4.3,0.9,7.8,1.3c7.1,0.8,12.3,1.8,15.7,3c0,1.2,0,2,0,2.3c0,3.6-0.8,6.1-2.5,7.6c-2.2,2-5.6,3-10,3
							c-4.1,0-7.2-0.7-9.2-2.2s-3.4-4-4.4-7.7l-8.6,1.2c0.8,3.7,2.1,6.6,3.9,8.9c1.8,2.3,4.4,4,7.8,5.2c3.4,1.2,7.3,1.8,11.8,1.8
							c4.4,0,8-0.5,10.8-1.6c2.8-1,4.8-2.4,6.1-3.9c1.3-1.6,2.2-3.6,2.7-6c0.3-1.5,0.4-4.2,0.4-8.1V21.7c0-8.2,0.2-13.3,0.6-15.5
							c0.4-2.2,1.1-4.2,2.2-6.2h-9.2C1464.4,1.8,1463.8,4,1463.6,6.4z M1462.8,26c-3.2-1.3-8-2.4-14.4-3.3c-3.6-0.5-6.2-1.1-7.7-1.8
							c-1.5-0.6-2.6-1.6-3.5-2.8c-0.8-1.2-1.2-2.6-1.2-4.2c0-2.3,0.9-4.3,2.7-5.9c1.8-1.6,4.4-2.3,7.8-2.3c3.4,0,6.4,0.7,9,2.2
							c2.6,1.5,4.6,3.5,5.8,6.1c0.9,2,1.4,4.9,1.4,8.8V26z"/>
					</g>
					<g>
						<path id="ArialMT-74_00000106865911193317153060000005231782328934650262_" d="M1504.5,7.9l1.3-7.8c-2.5-0.5-4.7-0.8-6.6-0.8
							c-3.2,0-5.7,0.5-7.4,1.5c-1.8,1-3,2.3-3.7,4s-1.1,5.1-1.1,10.4V45h-6.4v6.8h6.4v12.8l8.7,5.3V51.9h8.8V45h-8.8V14.7
							c0-2.5,0.2-4.1,0.5-4.8c0.3-0.7,0.8-1.3,1.5-1.7c0.7-0.4,1.7-0.6,3-0.6C1501.7,7.5,1502.9,7.6,1504.5,7.9z"/>
					</g>
					<g>
						<path id="ArialMT-65_00000020384456448174523480000003413550448413256618_" d="M1548.6,16.7l9.1-1.1c-1.4-5.3-4.1-9.4-8-12.4
							c-3.9-2.9-8.8-4.4-14.8-4.4c-7.6,0-13.6,2.3-18,7c-4.4,4.7-6.7,11.2-6.7,19.7c0,8.7,2.2,15.5,6.7,20.3
							c4.5,4.8,10.3,7.2,17.5,7.2c6.9,0,12.6-2.4,17-7.1c4.4-4.7,6.6-11.4,6.6-19.9c0-0.5,0-1.3,0-2.3h-38.7
							c0.3-5.7,1.9-10.1,4.8-13.1c2.9-3,6.5-4.5,10.8-4.5c3.2,0,6,0.8,8.2,2.5C1545.5,10.3,1547.3,13,1548.6,16.7z M1519.8,30.9h29
							c-0.4,4.4-1.5,7.6-3.3,9.8c-2.8,3.4-6.4,5.1-10.9,5.1c-4,0-7.4-1.3-10.2-4S1520.1,35.4,1519.8,30.9z"/>
					</g>
					<g>
						<path id="ArialMT-6e_00000128468211412935029670000015155550233372001709_" d="M1568.8,0v51.9h7.9v-7.4
							c3.8,5.7,9.3,8.5,16.5,8.5c3.1,0,6-0.6,8.6-1.7s4.6-2.6,5.9-4.4c1.3-1.8,2.2-4,2.7-6.5c0.3-1.6,0.5-4.5,0.5-8.5V0h-8.8v31.5
							c0,3.6-0.3,6.3-1,8c-0.7,1.8-1.9,3.2-3.6,4.2c-1.7,1.1-3.8,1.6-6.1,1.6c-3.8,0-7-1.2-9.7-3.6s-4.1-6.9-4.1-13.5V0H1568.8z"/>
					</g>
					<g>
						<path id="ArialMT-74_00000181047014064509792090000008911019800000041123_" d="M1643.6,7.9l1.3-7.8c-2.5-0.5-4.7-0.8-6.6-0.8
							c-3.2,0-5.7,0.5-7.4,1.5c-1.8,1-3,2.3-3.7,4s-1.1,5.1-1.1,10.4V45h-6.4v6.8h6.4v12.8l8.7,5.3V51.9h8.8V45h-8.8V14.7
							c0-2.5,0.2-4.1,0.5-4.8c0.3-0.7,0.8-1.3,1.5-1.7c0.7-0.4,1.7-0.6,3-0.6C1640.7,7.5,1642,7.6,1643.6,7.9z"/>
					</g>
					<g>
						<path id="ArialMT-20_00000039826007977434600510000004760543891401421703_" d="M1645.6,0"/>
					</g>
					<g>
						<path id="ArialMT-63_00000157309048855498414940000006915108892410975909_" d="M1713.8,19l8.6-1.1c-0.9-6-3.4-10.6-7.3-14
							c-3.9-3.4-8.7-5-14.3-5c-7.1,0-12.8,2.3-17.1,7c-4.3,4.6-6.5,11.3-6.5,20c0,5.6,0.9,10.5,2.8,14.7c1.9,4.2,4.7,7.4,8.5,9.5
							c3.8,2.1,7.9,3.2,12.4,3.2c5.6,0,10.2-1.4,13.8-4.3c3.6-2.8,5.9-6.9,6.9-12.1l-8.5-1.3c-0.8,3.5-2.3,6.1-4.3,7.9
							c-2.1,1.8-4.6,2.6-7.5,2.6c-4.4,0-8-1.6-10.8-4.8c-2.8-3.2-4.1-8.2-4.1-15c0-7,1.3-12,4-15.2c2.7-3.2,6.2-4.7,10.5-4.7
							c3.4,0,6.3,1.1,8.6,3.2S1713.2,14.6,1713.8,19z"/>
					</g>
					<g>
						<path id="ArialMT-65_00000053530291462918700070000005657363195475948470_" d="M1765.4,16.7l9.1-1.1c-1.4-5.3-4.1-9.4-8-12.4
							c-3.9-2.9-8.8-4.4-14.8-4.4c-7.6,0-13.6,2.3-18,7c-4.4,4.7-6.7,11.2-6.7,19.7c0,8.7,2.2,15.5,6.7,20.3
							c4.5,4.8,10.3,7.2,17.5,7.2c6.9,0,12.6-2.4,17-7.1c4.4-4.7,6.6-11.4,6.6-19.9c0-0.5,0-1.3,0-2.3h-38.7
							c0.3-5.7,1.9-10.1,4.8-13.1c2.9-3,6.5-4.5,10.8-4.5c3.2,0,6,0.8,8.2,2.5C1762.3,10.3,1764.1,13,1765.4,16.7z M1736.6,30.9h29
							c-0.4,4.4-1.5,7.6-3.3,9.8c-2.8,3.4-6.4,5.1-10.9,5.1c-4,0-7.4-1.3-10.2-4S1736.9,35.4,1736.6,30.9z"/>
					</g>
					<g>
						<path id="ArialMT-6e_00000051352020635876610690000005393164415710372237_" d="M1785.5,0v51.9h7.9v-7.4
							c3.8,5.7,9.3,8.5,16.5,8.5c3.1,0,6-0.6,8.6-1.7s4.6-2.6,5.9-4.4c1.3-1.8,2.2-4,2.7-6.5c0.3-1.6,0.5-4.5,0.5-8.5V0h-8.8v31.5
							c0,3.6-0.3,6.3-1,8c-0.7,1.8-1.9,3.2-3.6,4.2c-1.7,1.1-3.8,1.6-6.1,1.6c-3.8,0-7-1.2-9.7-3.6s-4.1-6.9-4.1-13.5V0H1785.5z"/>
					</g>
					<g>
						<path id="ArialMT-74_00000150809321393787996790000010562288872892921251_" d="M1860.4,7.9l1.3-7.8c-2.5-0.5-4.7-0.8-6.6-0.8
							c-3.2,0-5.7,0.5-7.4,1.5c-1.8,1-3,2.3-3.7,4s-1.1,5.1-1.1,10.4V45h-6.4v6.8h6.4v12.8l8.7,5.3V51.9h8.8V45h-8.8V14.7
							c0-2.5,0.2-4.1,0.5-4.8c0.3-0.7,0.8-1.3,1.5-1.7c0.7-0.4,1.7-0.6,3-0.6C1857.5,7.5,1858.8,7.6,1860.4,7.9z"/>
					</g>
					<g>
						<path id="ArialMT-72" d="M1868.9,0v51.9h7.9V44c2,3.7,3.9,6.1,5.6,7.3c1.7,1.2,3.6,1.8,5.6,1.8c3,0,6-0.9,9-2.8l-3-8.2
							c-2.1,1.3-4.3,1.9-6.4,1.9c-1.9,0-3.7-0.6-5.2-1.7s-2.6-2.8-3.3-4.8c-1-3.1-1.5-6.5-1.5-10.2V0H1868.9z"/>
					</g>
					<g>
						<path id="ArialMT-6f_00000070113787629684682380000017721260334181905280_" d="M1899,25.9c0,9.6,2.7,16.7,8,21.3
							c4.5,3.8,9.9,5.8,16.3,5.8c7.1,0,12.9-2.3,17.5-7c4.5-4.7,6.8-11.1,6.8-19.4c0-6.7-1-11.9-3-15.8c-2-3.8-4.9-6.8-8.8-8.9
							c-3.8-2.1-8-3.2-12.5-3.2c-7.3,0-13.1,2.3-17.6,7C1901.2,10.5,1899,17.2,1899,25.9z M1908,25.9c0-6.6,1.4-11.6,4.3-14.9
							c2.9-3.3,6.5-5,10.9-5c4.4,0,8,1.7,10.9,5c2.9,3.3,4.3,8.4,4.3,15.2c0,6.4-1.5,11.3-4.4,14.6c-2.9,3.3-6.5,5-10.9,5
							c-4.4,0-8-1.6-10.9-4.9C1909.5,37.5,1908,32.6,1908,25.9z"/>
					</g>
					<g>
						<path id="ArialMT-69_00000129917709637020991880000012607695532846006696_" d="M1957.9,61.5v10.1h8.8V61.5H1957.9z M1957.9,0
							v51.9h8.8V0H1957.9z"/>
					</g>
					<g>
						<path id="ArialMT-64_00000039850663088705881070000014344174247847823795_" d="M2013.7,0v6.5c-3.3-5.1-8.1-7.7-14.5-7.7
							c-4.1,0-7.9,1.1-11.4,3.4s-6.2,5.5-8.1,9.5c-1.9,4.1-2.8,8.8-2.8,14.1c0,5.2,0.9,9.9,2.6,14.1c1.7,4.2,4.3,7.4,7.8,9.7
							c3.5,2.2,7.3,3.4,11.6,3.4c3.1,0,5.9-0.7,8.3-2c2.4-1.3,4.4-3,6-5.1v25.7h8.7V0H2013.7z M1985.9,25.9c0-6.6,1.4-11.6,4.2-14.9
							c2.8-3.3,6.1-4.9,9.9-4.9c3.8,0,7.1,1.6,9.8,4.7c2.7,3.1,4,7.9,4,14.4c0,7.1-1.4,12.3-4.1,15.6c-2.7,3.3-6.1,5-10.1,5
							c-3.9,0-7.2-1.6-9.8-4.8C1987.2,37.8,1985.9,32.8,1985.9,25.9z"/>
					</g>
					<g>
						<path id="ArialMT-73_00000098911771125338076800000007967176987198916779_" d="M2032.2,15.5l8.7,1.4c0.5-3.5,1.8-6.1,4.1-8
							c2.2-1.9,5.3-2.8,9.4-2.8c4,0,7,0.8,9,2.5c2,1.6,2.9,3.6,2.9,5.8c0,2-0.9,3.5-2.6,4.7c-1.2,0.8-4.2,1.8-9,3
							c-6.4,1.6-10.9,3-13.4,4.2c-2.5,1.2-4.4,2.8-5.7,4.9c-1.3,2.1-1.9,4.4-1.9,7c0,2.3,0.5,4.4,1.6,6.4c1.1,2,2.5,3.6,4.3,4.9
							c1.4,1,3.2,1.8,5.6,2.5c2.4,0.7,4.9,1.1,7.6,1.1c4.1,0,7.6-0.6,10.7-1.8c3.1-1.2,5.4-2.8,6.8-4.8c1.5-2,2.5-4.7,3-8l-8.6-1.2
							c-0.4,2.7-1.5,4.7-3.4,6.2c-1.9,1.5-4.5,2.2-7.9,2.2c-4,0-6.9-0.7-8.6-2c-1.7-1.3-2.6-2.9-2.6-4.7c0-1.1,0.4-2.2,1.1-3.1
							c0.7-0.9,1.8-1.7,3.4-2.3c0.9-0.3,3.5-1.1,7.8-2.2c6.2-1.7,10.6-3,13-4.1c2.5-1.1,4.4-2.6,5.8-4.6c1.4-2,2.1-4.5,2.1-7.5
							c0-2.9-0.9-5.7-2.6-8.3c-1.7-2.6-4.2-4.6-7.4-6c-3.2-1.4-6.9-2.1-10.9-2.1c-6.7,0-11.9,1.4-15.4,4.2S2033.2,10,2032.2,15.5z"
							/>
					</g>
				</g>
			</g>
		</g>
		<g id="line2d_13">
			<g>
				<defs>
					<rect id="SVGID_00000076586981609896132440000009260269316985308802_" x="57.6" y="29.6" width="357.1" height="189.8"/>
				</defs>
				<clipPath id="SVGID_00000181085207545288411930000006557526218134811010_">
					<use xlink:href="#SVGID_00000076586981609896132440000009260269316985308802_"  style="overflow:visible;"/>
				</clipPath>
				
					<path style="clip-path:url(#SVGID_00000181085207545288411930000006557526218134811010_);fill:none;stroke:#000000;stroke-width:1.5;stroke-linecap:square;stroke-linejoin:round;" d="
					M73.8,190.7l36.1-4.7l36.1,0.1l36.1,0.7l36.1-5.6l36.1,4.6l36.1,9.2l36.1-1.6l36.1-7.9l36.1-3.2"/>
			</g>
		</g>
		<g id="line2d_14">
			<g>
				<defs>
					<rect id="SVGID_00000043432353537327626540000007296854900783519159_" x="57.6" y="29.6" width="357.1" height="189.8"/>
				</defs>
				<clipPath id="SVGID_00000089563033062154334110000008911152498315632525_">
					<use xlink:href="#SVGID_00000043432353537327626540000007296854900783519159_"  style="overflow:visible;"/>
				</clipPath>
				
					<path style="clip-path:url(#SVGID_00000089563033062154334110000008911152498315632525_);fill:none;stroke:#0000FF;stroke-width:1.5;stroke-linecap:square;stroke-linejoin:round;" d="
					M73.8,134.5l36.1-9.9l36.1-16l36.1-14.8l36.1-2.9l36.1,10.4l36.1-2.2l36.1-6l36.1,3.4l36.1,2.4"/>
			</g>
		</g>
		<g id="line2d_15">
			<g>
				<defs>
					<rect id="SVGID_00000129202381470685423730000007699195184385814184_" x="57.6" y="29.6" width="357.1" height="189.8"/>
				</defs>
				<clipPath id="SVGID_00000128468817286324115650000002539305431351134644_">
					<use xlink:href="#SVGID_00000129202381470685423730000007699195184385814184_"  style="overflow:visible;"/>
				</clipPath>
				
					<path style="clip-path:url(#SVGID_00000128468817286324115650000002539305431351134644_);fill:none;stroke:#FF0000;stroke-width:1.5;stroke-linecap:square;stroke-linejoin:round;" d="
					M73.8,89.6l36.1-1.3l36.1,1l36.1-6.6l36.1,0l36.1,11.2l36.1,5.6l36.1-10.2l36.1-13.5l36.1,12.1"/>
			</g>
		</g>
		<g id="patch_3">
			<path class="st11" d="M57.6,219.4V29.6"/>
		</g>
		<g id="patch_5">
			<path class="st11" d="M57.6,219.4h357.1"/>
		</g>
		<g id="legend_1">
			<g id="patch_7">
				<path class="st12" d="M63.3,57.9h43.9c0.8,0,1.2-0.4,1.2-1.2V31.7c0-0.8-0.4-1.2-1.2-1.2H63.3c-0.8,0-1.2,0.4-1.2,1.2v24.9
					C62.1,57.5,62.5,57.9,63.3,57.9z"/>
			</g>
			<g id="line2d_16">
				<path class="st13" d="M64.5,35.1h6h6"/>
			</g>
			<g id="text_15">
				<g transform="translate(384.639375 39.272287)scale(0.06 -0.06)">
					<g>
						<path id="ArialMT-49" d="M-5045.7,34.2v71.6h9.5V34.2H-5045.7z"/>
					</g>
					<g>
						<path id="ArialMT-6d" d="M-5020.6,34.2V86h7.9v-7.3c1.6,2.5,3.8,4.6,6.5,6.1c2.7,1.6,5.8,2.3,9.2,2.3c3.8,0,7-0.8,9.5-2.4
							c2.5-1.6,4.2-3.8,5.2-6.7c4.1,6.1,9.4,9.1,16,9.1c5.1,0,9.1-1.4,11.9-4.3c2.8-2.8,4.2-7.2,4.2-13.2V34.2h-8.8v32.7
							c0,3.5-0.3,6-0.9,7.6c-0.6,1.6-1.6,2.8-3.1,3.7c-1.5,0.9-3.2,1.4-5.3,1.4c-3.6,0-6.7-1.2-9.1-3.6c-2.4-2.4-3.6-6.3-3.6-11.6
							V34.2h-8.8v33.7c0,3.9-0.7,6.8-2.2,8.8c-1.4,2-3.8,2.9-7,2.9c-2.5,0-4.8-0.7-6.9-2c-2.1-1.3-3.6-3.2-4.6-5.7
							c-0.9-2.5-1.4-6.1-1.4-10.8V34.2H-5020.6z"/>
					</g>
					<g>
						<path id="ArialMT-61_00000158731735188177239200000016635308962656925098_" d="M-4903.5,40.5c-3.3-2.8-6.4-4.7-9.4-5.9
							c-3-1.1-6.2-1.7-9.7-1.7c-5.7,0-10.1,1.4-13.1,4.2s-4.6,6.3-4.6,10.7c0,2.5,0.6,4.9,1.7,7c1.2,2.1,2.7,3.8,4.5,5.1
							c1.9,1.3,4,2.2,6.3,2.9c1.7,0.5,4.3,0.9,7.8,1.3c7.1,0.8,12.3,1.8,15.7,3c0,1.2,0,2,0,2.3c0,3.6-0.8,6.1-2.5,7.6
							c-2.2,2-5.6,3-10,3c-4.1,0-7.2-0.7-9.2-2.2c-2-1.4-3.4-4-4.4-7.7l-8.6,1.2c0.8,3.7,2.1,6.6,3.9,8.9c1.8,2.3,4.4,4,7.8,5.2
							c3.4,1.2,7.3,1.8,11.8,1.8c4.4,0,8-0.5,10.8-1.6c2.8-1,4.8-2.4,6.1-3.9c1.3-1.6,2.2-3.6,2.7-6c0.3-1.5,0.4-4.2,0.4-8.1V55.9
							c0-8.2,0.2-13.3,0.6-15.5c0.4-2.2,1.1-4.2,2.2-6.2h-9.2C-4902.7,36-4903.2,38.1-4903.5,40.5z M-4904.2,60.2
							c-3.2-1.3-8-2.4-14.4-3.3c-3.6-0.5-6.2-1.1-7.7-1.8c-1.5-0.6-2.6-1.6-3.5-2.8c-0.8-1.2-1.2-2.6-1.2-4.2c0-2.3,0.9-4.3,2.7-5.9
							c1.8-1.6,4.4-2.3,7.8-2.3c3.4,0,6.4,0.7,9,2.2c2.6,1.5,4.6,3.5,5.8,6.1c0.9,2,1.4,4.9,1.4,8.8V60.2z"/>
					</g>
					<g>
						<path id="ArialMT-67" d="M-4883.3,29.9l8.5-1.3c0.4-2.6,1.3-4.6,3-5.8c2.2-1.6,5.2-2.4,8.9-2.4c4.1,0,7.2,0.8,9.4,2.4
							c2.2,1.6,3.7,3.9,4.5,6.8c0.5,1.8,0.7,5.6,0.6,11.3c-3.8-4.5-8.6-6.8-14.3-6.8c-7.1,0-12.7,2.6-16.6,7.7s-5.9,11.3-5.9,18.5
							c0,4.9,0.9,9.5,2.7,13.7c1.8,4.2,4.4,7.4,7.8,9.7c3.4,2.3,7.4,3.4,12,3.4c6.1,0,11.2-2.5,15.1-7.4V86h8.1V41.2
							c0-8.1-0.8-13.8-2.5-17.2c-1.6-3.4-4.2-6-7.8-8c-3.6-2-7.9-2.9-13.2-2.9c-6.2,0-11.2,1.4-15,4.2S-4883.5,24.3-4883.3,29.9z
							 M-4876.1,61c0-6.8,1.3-11.8,4-14.9c2.7-3.1,6.1-4.7,10.2-4.7c4,0,7.4,1.6,10.1,4.7c2.7,3.1,4.1,8,4.1,14.6
							c0,6.3-1.4,11.1-4.2,14.3c-2.8,3.2-6.2,4.8-10.2,4.8c-3.9,0-7.2-1.6-10-4.8C-4874.7,72-4876.1,67.3-4876.1,61z"/>
					</g>
					<g>
						<path id="ArialMT-69_00000154416848872040409630000015906824255550129812_" d="M-4826.1,95.6v10.1h8.8V95.6H-4826.1z
							 M-4826.1,34.2V86h8.8V34.2H-4826.1z"/>
					</g>
					<g>
						<path id="ArialMT-6e_00000041275133487407435710000011556607447384409533_" d="M-4803.9,34.2V86h7.9v-7.4
							c3.8,5.7,9.3,8.5,16.5,8.5c3.1,0,6-0.6,8.6-1.7s4.6-2.6,5.9-4.4c1.3-1.8,2.2-4,2.7-6.5c0.3-1.6,0.5-4.5,0.5-8.5V34.2h-8.8
							v31.5c0,3.6-0.3,6.3-1,8c-0.7,1.8-1.9,3.2-3.6,4.2c-1.7,1.1-3.8,1.6-6.1,1.6c-3.8,0-7-1.2-9.7-3.6s-4.1-6.9-4.1-13.5V34.2
							H-4803.9z"/>
					</g>
					<g>
						<path id="ArialMT-65_00000082356347472790068500000013642382201092226965_" d="M-4712.8,50.9l9.1-1.1c-1.4-5.3-4.1-9.4-8-12.4
							c-3.9-2.9-8.8-4.4-14.8-4.4c-7.6,0-13.6,2.3-18,7c-4.4,4.7-6.7,11.2-6.7,19.7c0,8.7,2.2,15.5,6.7,20.3
							c4.5,4.8,10.3,7.2,17.5,7.2c6.9,0,12.6-2.4,17-7.1c4.4-4.7,6.6-11.4,6.6-19.9c0-0.5,0-1.3,0-2.3h-38.7
							c0.3-5.7,1.9-10.1,4.8-13.1c2.9-3,6.5-4.5,10.8-4.5c3.2,0,6,0.8,8.2,2.5C-4715.9,44.4-4714.1,47.1-4712.8,50.9z M-4741.6,65.1
							h29c-0.4,4.4-1.5,7.6-3.3,9.8c-2.8,3.4-6.4,5.1-10.9,5.1c-4,0-7.4-1.3-10.2-4C-4739.8,73.2-4741.4,69.6-4741.6,65.1z"/>
					</g>
					<g>
						<path id="ArialMT-64_00000174565801558182323720000006103500466867924654_" d="M-4659,34.2v6.5c-3.3-5.1-8.1-7.7-14.5-7.7
							c-4.1,0-7.9,1.1-11.4,3.4s-6.2,5.5-8.1,9.5c-1.9,4.1-2.8,8.8-2.8,14.1c0,5.2,0.9,9.9,2.6,14.1c1.7,4.2,4.3,7.4,7.8,9.7
							c3.5,2.2,7.3,3.4,11.6,3.4c3.1,0,5.9-0.7,8.3-2c2.4-1.3,4.4-3,6-5.1v25.7h8.7V34.2H-4659z M-4686.8,60
							c0-6.6,1.4-11.6,4.2-14.9c2.8-3.3,6.1-4.9,9.9-4.9c3.8,0,7.1,1.6,9.8,4.7c2.7,3.1,4,7.9,4,14.4c0,7.1-1.4,12.3-4.1,15.6
							c-2.7,3.3-6.1,5-10.1,5c-3.9,0-7.2-1.6-9.8-4.8C-4685.5,71.9-4686.8,66.9-4686.8,60z"/>
					</g>
				</g>
			</g>
			<g id="line2d_17">
				<path class="st14" d="M64.5,43.7h6h6"/>
			</g>
			<g id="text_16">
				<g transform="translate(384.639375 47.829787)scale(0.06 -0.06)">
					<g>
						<path id="ArialMT-4f" d="M-5050.2,69c0,11.9,3.2,21.2,9.6,27.9c6.4,6.7,14.6,10.1,24.7,10.1c6.6,0,12.6-1.6,17.9-4.8
							c5.3-3.2,9.3-7.6,12.1-13.2c2.8-5.6,4.2-12.1,4.2-19.2c0-7.3-1.5-13.7-4.4-19.5c-2.9-5.7-7.1-10.1-12.5-13
							c-5.4-2.9-11.2-4.4-17.4-4.4c-6.7,0-12.8,1.6-18.1,4.9c-5.3,3.3-9.3,7.7-12.1,13.3C-5048.8,56.8-5050.2,62.7-5050.2,69z
							 M-5040.4,68.9c0-8.6,2.3-15.4,7-20.4c4.6-5,10.5-7.4,17.5-7.4c7.1,0,13,2.5,17.6,7.5c4.6,5,6.9,12.1,6.9,21.3
							c0,5.8-1,10.9-3,15.2s-4.9,7.7-8.7,10.1c-3.8,2.4-8,3.6-12.8,3.6c-6.7,0-12.5-2.3-17.3-6.9
							C-5038,87.3-5040.4,79.6-5040.4,68.9z"/>
					</g>
					<g>
						<path id="ArialMT-6e_00000120542918104466755800000015902422776901340298_" d="M-4970.6,34.2V86h7.9v-7.4
							c3.8,5.7,9.3,8.5,16.5,8.5c3.1,0,6-0.6,8.6-1.7s4.6-2.6,5.9-4.4c1.3-1.8,2.2-4,2.7-6.5c0.3-1.6,0.5-4.5,0.5-8.5V34.2h-8.8
							v31.5c0,3.6-0.3,6.3-1,8c-0.7,1.8-1.9,3.2-3.6,4.2c-1.7,1.1-3.8,1.6-6.1,1.6c-3.8,0-7-1.2-9.7-3.6s-4.1-6.9-4.1-13.5V34.2
							H-4970.6z"/>
					</g>
					<g>
						<path id="ArialMT-6c_00000035529963938731527400000002518462928597012653_" d="M-4915.2,34.2v71.6h8.8V34.2H-4915.2z"/>
					</g>
					<g>
						<path id="ArialMT-69_00000164474767069801537220000003877457561596966838_" d="M-4892.8,95.6v10.1h8.8V95.6H-4892.8z
							 M-4892.8,34.2V86h8.8V34.2H-4892.8z"/>
					</g>
					<g>
						<path id="ArialMT-6e_00000017497469887256689660000000810372686316353666_" d="M-4870.6,34.2V86h7.9v-7.4
							c3.8,5.7,9.3,8.5,16.5,8.5c3.1,0,6-0.6,8.6-1.7s4.6-2.6,5.9-4.4c1.3-1.8,2.2-4,2.7-6.5c0.3-1.6,0.5-4.5,0.5-8.5V34.2h-8.8
							v31.5c0,3.6-0.3,6.3-1,8c-0.7,1.8-1.9,3.2-3.6,4.2c-1.7,1.1-3.8,1.6-6.1,1.6c-3.8,0-7-1.2-9.7-3.6s-4.1-6.9-4.1-13.5V34.2
							H-4870.6z"/>
					</g>
					<g>
						<path id="ArialMT-65_00000178168165973976384900000006393902546463570857_" d="M-4779.5,50.9l9.1-1.1c-1.4-5.3-4.1-9.4-8-12.4
							c-3.9-2.9-8.8-4.4-14.8-4.4c-7.6,0-13.6,2.3-18,7c-4.4,4.7-6.7,11.2-6.7,19.7c0,8.7,2.2,15.5,6.7,20.3
							c4.5,4.8,10.3,7.2,17.5,7.2c6.9,0,12.6-2.4,17-7.1c4.4-4.7,6.6-11.4,6.6-19.9c0-0.5,0-1.3,0-2.3h-38.7
							c0.3-5.7,1.9-10.1,4.8-13.1c2.9-3,6.5-4.5,10.8-4.5c3.2,0,6,0.8,8.2,2.5C-4782.6,44.4-4780.8,47.1-4779.5,50.9z M-4808.3,65.1
							h29c-0.4,4.4-1.5,7.6-3.3,9.8c-2.8,3.4-6.4,5.1-10.9,5.1c-4,0-7.4-1.3-10.2-4C-4806.5,73.2-4808,69.6-4808.3,65.1z"/>
					</g>
				</g>
			</g>
			<g id="line2d_18">
				<path class="st15" d="M64.5,52.2h6h6"/>
			</g>
			<g id="text_17">
				<g transform="translate(384.639375 56.316975)scale(0.06 -0.06)">
					<g>
						<path id="ArialMT-42" d="M-5047.7,34.2v71.6h26.9c5.5,0,9.9-0.7,13.2-2.2c3.3-1.4,5.9-3.7,7.8-6.7c1.9-3,2.8-6.2,2.8-9.5
							c0-3.1-0.8-5.9-2.5-8.6c-1.7-2.7-4.2-4.9-7.5-6.5c4.3-1.3,7.6-3.4,10-6.5c2.3-3.1,3.5-6.7,3.5-10.8c0-3.4-0.7-6.5-2.1-9.4
							c-1.4-2.9-3.2-5.1-5.2-6.7c-2.1-1.6-4.7-2.7-7.8-3.5c-3.1-0.8-7-1.2-11.5-1.2H-5047.7z M-5038.2,75.7h15.5
							c4.2,0,7.2,0.3,9,0.8c2.4,0.7,4.2,1.9,5.4,3.6c1.2,1.7,1.8,3.8,1.8,6.3c0,2.4-0.6,4.5-1.7,6.3c-1.1,1.8-2.8,3.1-4.9,3.7
							c-2.1,0.7-5.7,1-10.9,1h-14.3V75.7z M-5038.2,42.6h17.8c3.1,0,5.2,0.1,6.4,0.3c2.2,0.4,4,1,5.5,1.9c1.5,0.9,2.7,2.2,3.6,4
							c0.9,1.7,1.4,3.8,1.4,6c0,2.7-0.7,5-2,7c-1.4,2-3.3,3.4-5.7,4.2c-2.4,0.8-5.9,1.2-10.5,1.2h-16.5V42.6z"/>
					</g>
					<g>
						<path id="ArialMT-61_00000175289133359387333940000006767735840339226792_" d="M-4947.9,40.5c-3.3-2.8-6.4-4.7-9.4-5.9
							c-3-1.1-6.2-1.7-9.7-1.7c-5.7,0-10.1,1.4-13.1,4.2s-4.6,6.3-4.6,10.7c0,2.5,0.6,4.9,1.7,7c1.2,2.1,2.7,3.8,4.5,5.1
							c1.9,1.3,4,2.2,6.3,2.9c1.7,0.5,4.3,0.9,7.8,1.3c7.1,0.8,12.3,1.8,15.7,3c0,1.2,0,2,0,2.3c0,3.6-0.8,6.1-2.5,7.6
							c-2.2,2-5.6,3-10,3c-4.1,0-7.2-0.7-9.2-2.2c-2-1.4-3.4-4-4.4-7.7l-8.6,1.2c0.8,3.7,2.1,6.6,3.9,8.9c1.8,2.3,4.4,4,7.8,5.2
							c3.4,1.2,7.3,1.8,11.8,1.8c4.4,0,8-0.5,10.8-1.6c2.8-1,4.8-2.4,6.1-3.9c1.3-1.6,2.2-3.6,2.7-6c0.3-1.5,0.4-4.2,0.4-8.1V55.9
							c0-8.2,0.2-13.3,0.6-15.5c0.4-2.2,1.1-4.2,2.2-6.2h-9.2C-4947,36-4947.6,38.1-4947.9,40.5z M-4948.6,60.2
							c-3.2-1.3-8-2.4-14.4-3.3c-3.6-0.5-6.2-1.1-7.7-1.8c-1.5-0.6-2.6-1.6-3.5-2.8c-0.8-1.2-1.2-2.6-1.2-4.2c0-2.3,0.9-4.3,2.7-5.9
							c1.8-1.6,4.4-2.3,7.8-2.3c3.4,0,6.4,0.7,9,2.2c2.6,1.5,4.6,3.5,5.8,6.1c0.9,2,1.4,4.9,1.4,8.8V60.2z"/>
					</g>
					<g>
						<path id="ArialMT-74_00000051359648088449360590000004286304692886340287_" d="M-4906.9,42l1.3-7.8c-2.5-0.5-4.7-0.8-6.6-0.8
							c-3.2,0-5.7,0.5-7.4,1.5c-1.8,1-3,2.3-3.7,4s-1.1,5.1-1.1,10.4v29.8h-6.4V86h6.4v12.8l8.7,5.3V86h8.8v-6.8h-8.8V48.9
							c0-2.5,0.2-4.1,0.5-4.8c0.3-0.7,0.8-1.3,1.5-1.7c0.7-0.4,1.7-0.6,3-0.6C-4909.8,41.7-4908.5,41.8-4906.9,42z"/>
					</g>
					<g>
						<path id="ArialMT-63_00000052805291208867911010000000763771986076542595_" d="M-4864.5,53.2l8.6-1.1c-0.9-6-3.4-10.6-7.3-14
							c-3.9-3.4-8.7-5-14.3-5c-7.1,0-12.8,2.3-17.1,7c-4.3,4.6-6.5,11.3-6.5,20c0,5.6,0.9,10.5,2.8,14.7c1.9,4.2,4.7,7.4,8.5,9.5
							c3.8,2.1,7.9,3.2,12.4,3.2c5.6,0,10.2-1.4,13.8-4.3c3.6-2.8,5.9-6.9,6.9-12.1l-8.5-1.3c-0.8,3.5-2.3,6.1-4.3,7.9
							c-2.1,1.8-4.6,2.6-7.5,2.6c-4.4,0-8-1.6-10.8-4.8c-2.8-3.2-4.1-8.2-4.1-15c0-7,1.3-12,4-15.2c2.7-3.2,6.2-4.7,10.5-4.7
							c3.4,0,6.3,1.1,8.6,3.2S-4865.1,48.8-4864.5,53.2z"/>
					</g>
					<g>
						<path id="ArialMT-68_00000167390016225889437340000005893003190721403048_" d="M-4848.3,34.2v71.6h8.8V80.1
							c4.1,4.8,9.3,7.1,15.5,7.1c3.8,0,7.2-0.8,10-2.3c2.8-1.5,4.9-3.6,6.1-6.3c1.2-2.7,1.8-6.5,1.8-11.6V34.2h-8.8V67
							c0,4.4-1,7.6-2.9,9.6s-4.6,3-8.1,3c-2.6,0-5.1-0.7-7.4-2c-2.3-1.3-3.9-3.2-4.9-5.5c-1-2.3-1.5-5.5-1.5-9.6V34.2H-4848.3z"/>
					</g>
				</g>
			</g>
		</g>
	</g>
</g>
</svg>
