<?xml version="1.0" encoding="utf-8"?>
<!-- Generator: Adobe Illustrator 26.4.1, SVG Export Plug-In . SVG Version: 6.00 Build 0)  -->
<svg version="1.1" id="Layer_1" xmlns="http://www.w3.org/2000/svg" xmlns:xlink="http://www.w3.org/1999/xlink" x="0px" y="0px"
	 viewBox="0 0 257 193.4" style="enable-background:new 0 0 257 193.4;" xml:space="preserve">
<style type="text/css">
	.st0{fill:#FFFFFF;}
	.st1{stroke:#000000;stroke-width:0.8;stroke-linejoin:round;}
	
		.st2{clip-path:url(#SVGID_00000077284345683004033160000017111476835716342172_);fill:none;stroke:#000000;stroke-linecap:square;stroke-linejoin:round;}
	
		.st3{clip-path:url(#SVGID_00000159453129966344009680000001992606432146630283_);fill:none;stroke:#000000;stroke-linecap:square;stroke-linejoin:round;}
	
		.st4{clip-path:url(#SVGID_00000173880264834628144220000007898195083620840322_);fill:none;stroke:#000000;stroke-linecap:square;stroke-linejoin:round;}
	
		.st5{clip-path:url(#SVGID_00000081627348891149706150000002970197404124568999_);fill:none;stroke:#000000;stroke-linecap:square;stroke-linejoin:round;}
	
		.st6{clip-path:url(#SVGID_00000147197903530267927120000013053770426773338300_);fill:none;stroke:#000000;stroke-linecap:square;stroke-linejoin:round;}
	
		.st7{clip-path:url(#SVGID_00000134249554545649374760000009214846655867102600_);fill:none;stroke:#000000;stroke-linecap:square;stroke-linejoin:round;}
	
		.st8{clip-path:url(#SVGID_00000132784727928495844990000004783243906885233040_);fill:none;stroke:#000000;stroke-linecap:square;stroke-linejoin:round;}
	
		.st9{clip-path:url(#SVGID_00000111188494675831406710000014865765631792362905_);fill:none;stroke:#000000;stroke-linecap:square;stroke-linejoin:round;}
	
		.st10{clip-path:url(#SVGID_00000134227903228147248620000011382202585990283942_);fill:none;stroke:#000000;stroke-linecap:square;stroke-linejoin:round;}
	
		.st11{clip-path:url(#SVGID_00000067954560384818960230000005964355462158787726_);fill:none;stroke:#000000;stroke-linecap:square;stroke-linejoin:round;}
	
		.st12{clip-path:url(#SVGID_00000145745242519181002690000004867594460318024081_);fill:none;stroke:#000000;stroke-linecap:square;stroke-linejoin:round;}
	
		.st13{clip-path:url(#SVGID_00000139979470097439056890000013811832921088183218_);fill:none;stroke:#000000;stroke-linecap:square;stroke-linejoin:round;}
	
		.st14{clip-path:url(#SVGID_00000026152327234525701030000005490603247033830576_);fill:none;stroke:#000000;stroke-linecap:square;stroke-linejoin:round;}
	
		.st15{clip-path:url(#SVGID_00000108295517453959480690000009097533260199438013_);fill:none;stroke:#000000;stroke-linecap:square;stroke-linejoin:round;}
	
		.st16{clip-path:url(#SVGID_00000180336350798056939890000005231947152768433853_);fill:none;stroke:#000000;stroke-linecap:square;stroke-linejoin:round;}
	
		.st17{clip-path:url(#SVGID_00000073691869496409578900000015291279132254590387_);fill:none;stroke:#FF7F0E;stroke-linecap:square;stroke-linejoin:round;}
	
		.st18{clip-path:url(#SVGID_00000115486763053355640360000012048343884476753044_);fill:none;stroke:#FF7F0E;stroke-linecap:square;stroke-linejoin:round;}
	
		.st19{clip-path:url(#SVGID_00000070098021500086157920000001454078160248664199_);fill:none;stroke:#FF7F0E;stroke-linecap:square;stroke-linejoin:round;}
	.st20{fill:none;stroke:#000000;stroke-width:0.8;stroke-linecap:square;}
</style>
<g id="figure_1">
	<g id="axes_1">
		<g id="patch_2">
			<path class="st0" d="M32.1,172.2h199.2V23.2H32.1V172.2z"/>
		</g>
		<g id="matplotlib.axis_1">
			<g id="xtick_1">
				<g id="line2d_1">
					<g>
						<g>
							<path id="m07a6c8a9b0" class="st1" d="M65.3,172.2v3.5"/>
						</g>
					</g>
				</g>
				<g id="text_1">
					<g transform="translate(52.990687 183.456288)scale(0.06 -0.06)">
						<g>
							<path id="ArialMT-49" d="M9.3,0v71.6h9.5V0H9.3z"/>
						</g>
						<g>
							<path id="ArialMT-6d" d="M34.4,0v51.9h7.9v-7.3c1.6,2.5,3.8,4.6,6.5,6.1c2.7,1.6,5.8,2.3,9.2,2.3c3.8,0,7-0.8,9.5-2.4
								c2.5-1.6,4.2-3.8,5.2-6.7c4.1,6.1,9.4,9.1,16,9.1c5.1,0,9.1-1.4,11.9-4.3c2.8-2.8,4.2-7.2,4.2-13.2V0h-8.8v32.7
								c0,3.5-0.3,6-0.9,7.6c-0.6,1.6-1.6,2.8-3.1,3.7c-1.5,0.9-3.2,1.4-5.3,1.4c-3.6,0-6.7-1.2-9.1-3.6c-2.4-2.4-3.6-6.3-3.6-11.6
								V0h-8.8v33.7c0,3.9-0.7,6.8-2.2,8.8c-1.4,2-3.8,2.9-7,2.9c-2.5,0-4.8-0.7-6.9-2c-2.1-1.3-3.6-3.2-4.6-5.7
								c-0.9-2.5-1.4-6.1-1.4-10.8V0H34.4z"/>
						</g>
						<g>
							<path id="ArialMT-61" d="M151.5,6.4c-3.3-2.8-6.4-4.7-9.4-5.9c-3-1.1-6.2-1.7-9.7-1.7c-5.7,0-10.1,1.4-13.1,4.2
								s-4.6,6.3-4.6,10.7c0,2.5,0.6,4.9,1.7,7c1.2,2.1,2.7,3.8,4.5,5.1s4,2.2,6.3,2.9c1.7,0.5,4.3,0.9,7.8,1.3
								c7.1,0.8,12.3,1.8,15.7,3c0,1.2,0,2,0,2.3c0,3.6-0.8,6.1-2.5,7.6c-2.2,2-5.6,3-10,3c-4.1,0-7.2-0.7-9.2-2.2s-3.4-4-4.4-7.7
								l-8.6,1.2c0.8,3.7,2.1,6.6,3.9,8.9c1.8,2.3,4.4,4,7.8,5.2c3.4,1.2,7.3,1.8,11.8,1.8c4.4,0,8-0.5,10.8-1.6
								c2.8-1,4.8-2.4,6.1-3.9c1.3-1.6,2.2-3.6,2.7-6c0.3-1.5,0.4-4.2,0.4-8.1V21.7c0-8.2,0.2-13.3,0.6-15.5
								c0.4-2.2,1.1-4.2,2.2-6.2h-9.2C152.4,1.8,151.8,4,151.5,6.4z M150.8,26c-3.2-1.3-8-2.4-14.4-3.3c-3.6-0.5-6.2-1.1-7.7-1.8
								c-1.5-0.6-2.6-1.6-3.5-2.8c-0.8-1.2-1.2-2.6-1.2-4.2c0-2.3,0.9-4.3,2.7-5.9c1.8-1.6,4.4-2.3,7.8-2.3c3.4,0,6.4,0.7,9,2.2
								c2.6,1.5,4.6,3.5,5.8,6.1c0.9,2,1.4,4.9,1.4,8.8V26z"/>
						</g>
						<g>
							<path id="ArialMT-67" d="M171.7-4.3l8.5-1.3c0.4-2.6,1.3-4.6,3-5.8c2.2-1.6,5.2-2.4,8.9-2.4c4.1,0,7.2,0.8,9.4,2.4
								c2.2,1.6,3.7,3.9,4.5,6.8c0.5,1.8,0.7,5.6,0.6,11.3c-3.8-4.5-8.6-6.8-14.3-6.8c-7.1,0-12.7,2.6-16.6,7.7s-5.9,11.3-5.9,18.5
								c0,4.9,0.9,9.5,2.7,13.7c1.8,4.2,4.4,7.4,7.8,9.7c3.4,2.3,7.4,3.4,12,3.4c6.1,0,11.2-2.5,15.1-7.4v6.2h8.1V7
								c0-8.1-0.8-13.8-2.5-17.2c-1.6-3.4-4.2-6-7.8-8c-3.6-2-7.9-2.9-13.2-2.9c-6.2,0-11.2,1.4-15,4.2S171.5-9.9,171.7-4.3z
								 M178.9,26.9c0-6.8,1.3-11.8,4-14.9c2.7-3.1,6.1-4.7,10.2-4.7c4,0,7.4,1.6,10.1,4.7c2.7,3.1,4.1,8,4.1,14.6
								c0,6.3-1.4,11.1-4.2,14.3c-2.8,3.2-6.2,4.8-10.2,4.8c-3.9,0-7.2-1.6-10-4.8C180.3,37.8,178.9,33.1,178.9,26.9z"/>
						</g>
						<g>
							<path id="ArialMT-69" d="M229,61.5v10.1h8.8V61.5H229z M229,0v51.9h8.8V0H229z"/>
						</g>
						<g>
							<path id="ArialMT-6e" d="M251.1,0v51.9h7.9v-7.4c3.8,5.7,9.3,8.5,16.5,8.5c3.1,0,6-0.6,8.6-1.7s4.6-2.6,5.9-4.4
								s2.2-4,2.7-6.5c0.3-1.6,0.5-4.5,0.5-8.5V0h-8.8v31.5c0,3.6-0.3,6.3-1,8c-0.7,1.8-1.9,3.2-3.6,4.2c-1.7,1.1-3.8,1.6-6.1,1.6
								c-3.8,0-7-1.2-9.7-3.6s-4.1-6.9-4.1-13.5V0H251.1z"/>
						</g>
						<g>
							<path id="ArialMT-65" d="M342.2,16.7l9.1-1.1c-1.4-5.3-4.1-9.4-8-12.4c-3.9-2.9-8.8-4.4-14.8-4.4c-7.6,0-13.6,2.3-18,7
								c-4.4,4.7-6.7,11.2-6.7,19.7c0,8.7,2.2,15.5,6.7,20.3C315,50.6,320.9,53,328,53c6.9,0,12.6-2.4,17-7.1s6.6-11.4,6.6-19.9
								c0-0.5,0-1.3,0-2.3h-38.7c0.3-5.7,1.9-10.1,4.8-13.1c2.9-3,6.5-4.5,10.8-4.5c3.2,0,6,0.8,8.2,2.5
								C339.1,10.3,340.9,13,342.2,16.7z M313.4,30.9h29c-0.4,4.4-1.5,7.6-3.3,9.8c-2.8,3.4-6.4,5.1-10.9,5.1c-4,0-7.4-1.3-10.2-4
								S313.7,35.4,313.4,30.9z"/>
						</g>
						<g>
							<path id="ArialMT-64" d="M396,0v6.5c-3.3-5.1-8.1-7.7-14.5-7.7c-4.1,0-7.9,1.1-11.4,3.4s-6.2,5.5-8.1,9.5
								c-1.9,4.1-2.8,8.8-2.8,14.1c0,5.2,0.9,9.9,2.6,14.1c1.7,4.2,4.3,7.4,7.8,9.7c3.5,2.2,7.3,3.4,11.6,3.4c3.1,0,5.9-0.7,8.3-2
								c2.4-1.3,4.4-3,6-5.1v25.7h8.7V0H396z M368.2,25.9c0-6.6,1.4-11.6,4.2-14.9c2.8-3.3,6.1-4.9,9.9-4.9c3.8,0,7.1,1.6,9.8,4.7
								c2.7,3.1,4,7.9,4,14.4c0,7.1-1.4,12.3-4.1,15.6c-2.7,3.3-6.1,5-10.1,5c-3.9,0-7.2-1.6-9.8-4.8
								C369.5,37.8,368.2,32.8,368.2,25.9z"/>
						</g>
					</g>
				</g>
			</g>
			<g id="xtick_2">
				<g id="line2d_2">
					<g>
						<g>
							<path id="m07a6c8a9b0_00000087374823198451763770000012729340128477470130_" class="st1" d="M131.7,172.2v3.5"/>
						</g>
					</g>
				</g>
				<g id="text_2">
					<g transform="translate(123.061594 183.456288)scale(0.06 -0.06)">
						<g>
							<path id="ArialMT-4f" d="M4.8,34.9C4.8,46.7,8,56,14.4,62.8c6.4,6.7,14.6,10.1,24.7,10.1c6.6,0,12.6-1.6,17.9-4.8
								c5.3-3.2,9.3-7.6,12.1-13.2c2.8-5.6,4.2-12.1,4.2-19.2c0-7.3-1.5-13.7-4.4-19.5c-2.9-5.7-7.1-10.1-12.5-13
								c-5.4-2.9-11.2-4.4-17.4-4.4c-6.7,0-12.8,1.6-18.1,4.9C15.7,6.9,11.7,11.4,8.9,17C6.2,22.6,4.8,28.6,4.8,34.9z M14.6,34.7
								c0-8.6,2.3-15.4,7-20.4C26.2,9.4,32,6.9,39,6.9c7.1,0,13,2.5,17.6,7.5c4.6,5,6.9,12.1,6.9,21.3c0,5.8-1,10.9-3,15.2
								s-4.9,7.7-8.7,10.1c-3.8,2.4-8,3.6-12.8,3.6c-6.7,0-12.5-2.3-17.3-6.9C17,53.2,14.6,45.5,14.6,34.7z"/>
						</g>
						<g>
							<path id="ArialMT-6e_00000109022436464047656280000003410477731232818604_" d="M84.4,0v51.9h7.9v-7.4
								c3.8,5.7,9.3,8.5,16.5,8.5c3.1,0,6-0.6,8.6-1.7s4.6-2.6,5.9-4.4c1.3-1.8,2.2-4,2.7-6.5c0.3-1.6,0.5-4.5,0.5-8.5V0h-8.8v31.5
								c0,3.6-0.3,6.3-1,8c-0.7,1.8-1.9,3.2-3.6,4.2c-1.7,1.1-3.8,1.6-6.1,1.6c-3.8,0-7-1.2-9.7-3.6s-4.1-6.9-4.1-13.5V0H84.4z"/>
						</g>
						<g>
							<path id="ArialMT-6c" d="M139.8,0v71.6h8.8V0H139.8z"/>
						</g>
						<g>
							<path id="ArialMT-69_00000015313257859422022900000017103210932338772670_" d="M162.3,61.5v10.1h8.8V61.5H162.3z M162.3,0
								v51.9h8.8V0H162.3z"/>
						</g>
						<g>
							<path id="ArialMT-6e_00000092456194892014850620000015724321232704407431_" d="M184.4,0v51.9h7.9v-7.4
								c3.8,5.7,9.3,8.5,16.5,8.5c3.1,0,6-0.6,8.6-1.7s4.6-2.6,5.9-4.4s2.2-4,2.7-6.5c0.3-1.6,0.5-4.5,0.5-8.5V0h-8.8v31.5
								c0,3.6-0.3,6.3-1,8c-0.7,1.8-1.9,3.2-3.6,4.2c-1.7,1.1-3.8,1.6-6.1,1.6c-3.8,0-7-1.2-9.7-3.6s-4.1-6.9-4.1-13.5V0H184.4z"/>
						</g>
						<g>
							<path id="ArialMT-65_00000026153664146003443220000010287075996193432481_" d="M275.5,16.7l9.1-1.1c-1.4-5.3-4.1-9.4-8-12.4
								c-3.9-2.9-8.8-4.4-14.8-4.4c-7.6,0-13.6,2.3-18,7c-4.4,4.7-6.7,11.2-6.7,19.7c0,8.7,2.2,15.5,6.7,20.3
								c4.5,4.8,10.3,7.2,17.5,7.2c6.9,0,12.6-2.4,17-7.1c4.4-4.7,6.6-11.4,6.6-19.9c0-0.5,0-1.3,0-2.3h-38.7
								c0.3-5.7,1.9-10.1,4.8-13.1c2.9-3,6.5-4.5,10.8-4.5c3.2,0,6,0.8,8.2,2.5C272.4,10.3,274.2,13,275.5,16.7z M246.7,30.9h29
								c-0.4,4.4-1.5,7.6-3.3,9.8c-2.8,3.4-6.4,5.1-10.9,5.1c-4,0-7.4-1.3-10.2-4S247,35.4,246.7,30.9z"/>
						</g>
					</g>
				</g>
			</g>
			<g id="xtick_3">
				<g id="line2d_3">
					<g>
						<g>
							<path id="m07a6c8a9b0_00000152263160976398399560000016973930736534555038_" class="st1" d="M198.1,172.2v3.5"/>
						</g>
					</g>
				</g>
				<g id="text_3">
					<g transform="translate(190.463906 183.456288)scale(0.06 -0.06)">
						<g>
							<path id="ArialMT-42" d="M7.3,0v71.6h26.9c5.5,0,9.9-0.7,13.2-2.2s5.9-3.7,7.8-6.7c1.9-3,2.8-6.2,2.8-9.5
								c0-3.1-0.8-5.9-2.5-8.6c-1.7-2.7-4.2-4.9-7.5-6.5c4.3-1.3,7.6-3.4,10-6.5c2.3-3.1,3.5-6.7,3.5-10.8c0-3.4-0.7-6.5-2.1-9.4
								c-1.4-2.9-3.2-5.1-5.2-6.7S49.3,2,46.2,1.2C43,0.4,39.2,0,34.6,0H7.3z M16.8,41.5h15.5c4.2,0,7.2,0.3,9,0.8
								c2.4,0.7,4.2,1.9,5.4,3.6c1.2,1.7,1.8,3.8,1.8,6.3c0,2.4-0.6,4.5-1.7,6.3c-1.1,1.8-2.8,3.1-4.9,3.7c-2.1,0.7-5.7,1-10.9,1
								H16.8V41.5z M16.8,8.5h17.8c3.1,0,5.2,0.1,6.4,0.3c2.2,0.4,4,1,5.5,1.9c1.5,0.9,2.7,2.2,3.6,4c0.9,1.7,1.4,3.8,1.4,6
								c0,2.7-0.7,5-2,7c-1.4,2-3.3,3.4-5.7,4.2c-2.4,0.8-5.9,1.2-10.5,1.2H16.8V8.5z"/>
						</g>
						<g>
							<path id="ArialMT-61_00000018206667197934369150000002941989364329441685_" d="M107.1,6.4c-3.3-2.8-6.4-4.7-9.4-5.9
								c-3-1.1-6.2-1.7-9.7-1.7C82.3-1.2,78,0.2,74.9,3s-4.6,6.3-4.6,10.7c0,2.5,0.6,4.9,1.7,7c1.2,2.1,2.7,3.8,4.5,5.1
								s4,2.2,6.3,2.9c1.7,0.5,4.3,0.9,7.8,1.3c7.1,0.8,12.3,1.8,15.7,3c0,1.2,0,2,0,2.3c0,3.6-0.8,6.1-2.5,7.6c-2.2,2-5.6,3-10,3
								c-4.1,0-7.2-0.7-9.2-2.2s-3.4-4-4.4-7.7l-8.6,1.2c0.8,3.7,2.1,6.6,3.9,8.9c1.8,2.3,4.4,4,7.8,5.2c3.4,1.2,7.3,1.8,11.8,1.8
								c4.4,0,8-0.5,10.8-1.6c2.8-1,4.8-2.4,6.1-3.9c1.3-1.6,2.2-3.6,2.7-6c0.3-1.5,0.4-4.2,0.4-8.1V21.7c0-8.2,0.2-13.3,0.6-15.5
								c0.4-2.2,1.1-4.2,2.2-6.2h-9.2C108,1.8,107.4,4,107.1,6.4z M106.4,26c-3.2-1.3-8-2.4-14.4-3.3c-3.6-0.5-6.2-1.1-7.7-1.8
								c-1.5-0.6-2.6-1.6-3.5-2.8c-0.8-1.2-1.2-2.6-1.2-4.2c0-2.3,0.9-4.3,2.7-5.9c1.8-1.6,4.4-2.3,7.8-2.3c3.4,0,6.4,0.7,9,2.2
								c2.6,1.5,4.6,3.5,5.8,6.1c0.9,2,1.4,4.9,1.4,8.8V26z"/>
						</g>
						<g>
							<path id="ArialMT-74" d="M148.1,7.9l1.3-7.8c-2.5-0.5-4.7-0.8-6.6-0.8c-3.2,0-5.7,0.5-7.4,1.5c-1.8,1-3,2.3-3.7,4
								s-1.1,5.1-1.1,10.4V45h-6.4v6.8h6.4v12.8l8.7,5.3V51.9h8.8V45h-8.8V14.7c0-2.5,0.2-4.1,0.5-4.8c0.3-0.7,0.8-1.3,1.5-1.7
								c0.7-0.4,1.7-0.6,3-0.6C145.2,7.5,146.5,7.6,148.1,7.9z"/>
						</g>
						<g>
							<path id="ArialMT-63" d="M190.5,19l8.6-1.1c-0.9-6-3.4-10.6-7.3-14c-3.9-3.4-8.7-5-14.3-5c-7.1,0-12.8,2.3-17.1,7
								c-4.3,4.6-6.5,11.3-6.5,20c0,5.6,0.9,10.5,2.8,14.7c1.9,4.2,4.7,7.4,8.5,9.5c3.8,2.1,7.9,3.2,12.4,3.2
								c5.6,0,10.2-1.4,13.8-4.3c3.6-2.8,5.9-6.9,6.9-12.1l-8.5-1.3c-0.8,3.5-2.3,6.1-4.3,7.9c-2.1,1.8-4.6,2.6-7.5,2.6
								c-4.4,0-8-1.6-10.8-4.8c-2.8-3.2-4.1-8.2-4.1-15c0-7,1.3-12,4-15.2c2.7-3.2,6.2-4.7,10.5-4.7c3.4,0,6.3,1.1,8.6,3.2
								S189.9,14.6,190.5,19z"/>
						</g>
						<g>
							<path id="ArialMT-68" d="M206.7,0v71.6h8.8V45.9c4.1,4.8,9.3,7.1,15.5,7.1c3.8,0,7.2-0.8,10-2.3c2.8-1.5,4.9-3.6,6.1-6.3
								s1.8-6.5,1.8-11.6V0h-8.8v32.9c0,4.4-1,7.6-2.9,9.6s-4.6,3-8.1,3c-2.6,0-5.1-0.7-7.4-2c-2.3-1.3-3.9-3.2-4.9-5.5
								c-1-2.3-1.5-5.5-1.5-9.6V0H206.7z"/>
						</g>
					</g>
				</g>
			</g>
		</g>
		<g id="matplotlib.axis_2">
			<g id="ytick_1">
				<g id="line2d_4">
					<g>
						<g>
							<path id="m89d7483ee5" class="st1" d="M32.1,167.6h-3.5"/>
						</g>
					</g>
				</g>
				<g id="text_4">
					<g transform="translate(21.793437 169.707111)scale(0.06 -0.06)">
						<g>
							<path id="ArialMT-30" d="M4.2,35.3c0,8.5,0.9,15.3,2.6,20.4c1.7,5.2,4.3,9.1,7.8,11.9c3.4,2.8,7.8,4.2,13,4.2
								c3.8,0,7.2-0.8,10.1-2.3c2.9-1.5,5.3-3.8,7.2-6.7c1.9-2.9,3.4-6.5,4.5-10.6c1.1-4.2,1.6-9.8,1.6-16.9
								c0-8.4-0.9-15.2-2.6-20.3c-1.7-5.2-4.3-9.1-7.7-12c-3.4-2.8-7.8-4.2-13-4.2c-6.9,0-12.3,2.5-16.2,7.4
								C6.5,12.2,4.2,21.9,4.2,35.3z M13.2,35.3c0-11.8,1.4-19.6,4.1-23.5C20.1,7.9,23.5,6,27.5,6c4,0,7.4,2,10.2,5.9
								s4.1,11.7,4.1,23.4c0,11.8-1.4,19.6-4.1,23.5c-2.8,3.9-6.2,5.8-10.3,5.8c-4,0-7.3-1.7-9.7-5.1C14.7,55.1,13.2,47.1,13.2,35.3
								z"/>
						</g>
					</g>
				</g>
			</g>
			<g id="ytick_2">
				<g id="line2d_5">
					<g>
						<g>
							<path id="m89d7483ee5_00000176004538903321506160000007310068393962385325_" class="st1" d="M32.1,145.6h-3.5"/>
						</g>
					</g>
				</g>
				<g id="text_5">
					<g transform="translate(15.120312 147.700245)scale(0.06 -0.06)">
						<g>
							<path id="ArialMT-35" d="M4.2,18.7l9.2,0.8c0.7-4.5,2.3-7.9,4.8-10.1c2.5-2.3,5.5-3.4,9-3.4c4.2,0,7.8,1.6,10.7,4.8
								c2.9,3.2,4.4,7.4,4.4,12.7c0,5-1.4,9-4.2,11.9c-2.8,2.9-6.5,4.4-11.1,4.4c-2.8,0-5.4-0.6-7.7-1.9c-2.3-1.3-4.1-2.9-5.4-5
								l-8.2,1.1l6.9,36.8h35.6v-8.4H19.7L15.8,43c4.3,3,8.8,4.5,13.5,4.5c6.3,0,11.5-2.2,15.8-6.5c4.3-4.3,6.5-9.9,6.5-16.7
								c0-6.5-1.9-12.1-5.7-16.8c-4.6-5.8-10.9-8.7-18.8-8.7c-6.5,0-11.8,1.8-16,5.5C7.1,7.9,4.7,12.7,4.2,18.7z"/>
						</g>
						<g>
							<path id="ArialMT-30_00000084496013007175176210000006562542574695872171_" d="M59.8,35.3c0,8.5,0.9,15.3,2.6,20.4
								c1.7,5.2,4.3,9.1,7.8,11.9c3.4,2.8,7.8,4.2,13,4.2c3.8,0,7.2-0.8,10.1-2.3c2.9-1.5,5.3-3.8,7.2-6.7c1.9-2.9,3.4-6.5,4.5-10.6
								c1.1-4.2,1.6-9.8,1.6-16.9c0-8.4-0.9-15.2-2.6-20.3c-1.7-5.2-4.3-9.1-7.7-12c-3.4-2.8-7.8-4.2-13-4.2
								c-6.9,0-12.3,2.5-16.2,7.4C62.1,12.2,59.8,21.9,59.8,35.3z M68.8,35.3c0-11.7,1.4-19.6,4.1-23.5C75.7,7.9,79.1,6,83.1,6
								c4,0,7.4,2,10.2,5.9s4.1,11.7,4.1,23.4c0,11.8-1.4,19.6-4.1,23.5c-2.8,3.9-6.2,5.8-10.3,5.8c-4,0-7.3-1.7-9.7-5.1
								C70.3,55.1,68.8,47.1,68.8,35.3z"/>
						</g>
						<g>
							<path id="ArialMT-30_00000137093418675181158720000008157986627060868517_" d="M115.4,35.3c0,8.5,0.9,15.3,2.6,20.4
								c1.7,5.2,4.3,9.1,7.8,11.9c3.4,2.8,7.8,4.2,13,4.2c3.8,0,7.2-0.8,10.1-2.3c2.9-1.5,5.3-3.8,7.2-6.7c1.9-2.9,3.4-6.5,4.5-10.6
								c1.1-4.2,1.6-9.8,1.6-16.9c0-8.4-0.9-15.2-2.6-20.3c-1.7-5.2-4.3-9.1-7.7-12c-3.4-2.8-7.8-4.2-13-4.2
								c-6.9,0-12.3,2.5-16.3,7.4C117.7,12.2,115.4,21.9,115.4,35.3z M124.4,35.3c0-11.7,1.4-19.6,4.1-23.5
								c2.8-3.9,6.1-5.8,10.2-5.8c4,0,7.4,2,10.2,5.9s4.1,11.7,4.1,23.4c0,11.8-1.4,19.6-4.1,23.5c-2.8,3.9-6.2,5.8-10.3,5.8
								c-4,0-7.3-1.7-9.7-5.1C125.9,55.1,124.4,47.1,124.4,35.3z"/>
						</g>
					</g>
				</g>
			</g>
			<g id="ytick_3">
				<g id="line2d_6">
					<g>
						<g>
							<path id="m89d7483ee5_00000005952776604925697650000012412429795857017495_" class="st1" d="M32.1,123.5h-3.5"/>
						</g>
					</g>
				</g>
				<g id="text_6">
					<g transform="translate(11.78375 125.693378)scale(0.06 -0.06)">
						<g>
							<path id="ArialMT-31" d="M37.2,0h-8.8v56c-2.1-2-4.9-4-8.3-6s-6.5-3.5-9.2-4.5v8.5c4.9,2.3,9.2,5.1,12.9,8.4
								c3.7,3.3,6.3,6.5,7.8,9.6h5.7V0z"/>
						</g>
						<g>
							<path id="ArialMT-30_00000086689716953635393380000005156070321447807166_" d="M59.8,35.3c0,8.5,0.9,15.3,2.6,20.4
								c1.7,5.2,4.3,9.1,7.8,11.9c3.4,2.8,7.8,4.2,13,4.2c3.8,0,7.2-0.8,10.1-2.3c2.9-1.5,5.3-3.8,7.2-6.7c1.9-2.9,3.4-6.5,4.5-10.6
								c1.1-4.2,1.6-9.8,1.6-16.9c0-8.4-0.9-15.2-2.6-20.3c-1.7-5.2-4.3-9.1-7.7-12c-3.4-2.8-7.8-4.2-13-4.2
								c-6.9,0-12.3,2.5-16.2,7.4C62.1,12.2,59.8,21.9,59.8,35.3z M68.8,35.3c0-11.7,1.4-19.6,4.1-23.5C75.7,7.9,79.1,6,83.1,6
								c4,0,7.4,2,10.2,5.9s4.1,11.7,4.1,23.4c0,11.8-1.4,19.6-4.1,23.5c-2.8,3.9-6.2,5.8-10.3,5.8c-4,0-7.3-1.7-9.7-5.1
								C70.3,55.1,68.8,47.1,68.8,35.3z"/>
						</g>
						<g>
							<path id="ArialMT-30_00000025401347235174704500000002543438369365598639_" d="M115.4,35.3c0,8.5,0.9,15.3,2.6,20.4
								c1.7,5.2,4.3,9.1,7.8,11.9c3.4,2.8,7.8,4.2,13,4.2c3.8,0,7.2-0.8,10.1-2.3c2.9-1.5,5.3-3.8,7.2-6.7c1.9-2.9,3.4-6.5,4.5-10.6
								c1.1-4.2,1.6-9.8,1.6-16.9c0-8.4-0.9-15.2-2.6-20.3c-1.7-5.2-4.3-9.1-7.7-12c-3.4-2.8-7.8-4.2-13-4.2
								c-6.9,0-12.3,2.5-16.2,7.4C117.7,12.2,115.4,21.9,115.4,35.3z M124.4,35.3c0-11.7,1.4-19.6,4.1-23.5
								c2.8-3.9,6.1-5.8,10.2-5.8c4,0,7.4,2,10.2,5.9s4.1,11.7,4.1,23.4c0,11.8-1.4,19.6-4.1,23.5c-2.8,3.9-6.2,5.8-10.3,5.8
								c-4,0-7.3-1.7-9.7-5.1C125.9,55.1,124.4,47.1,124.4,35.3z"/>
						</g>
						<g>
							<path id="ArialMT-30_00000057869294347598084910000010123700452576986275_" d="M171,35.3c0,8.5,0.9,15.3,2.6,20.4
								c1.7,5.2,4.3,9.1,7.8,11.9c3.4,2.8,7.8,4.2,13,4.2c3.8,0,7.2-0.8,10.1-2.3c2.9-1.5,5.3-3.8,7.2-6.7c1.9-2.9,3.4-6.5,4.5-10.6
								c1.1-4.2,1.6-9.8,1.6-16.9c0-8.4-0.9-15.2-2.6-20.3c-1.7-5.2-4.3-9.1-7.7-12c-3.4-2.8-7.8-4.2-13-4.2
								c-6.9,0-12.3,2.5-16.2,7.4C173.4,12.2,171,21.9,171,35.3z M180,35.3c0-11.7,1.4-19.6,4.1-23.5c2.8-3.9,6.1-5.8,10.2-5.8
								c4,0,7.4,2,10.2,5.9s4.1,11.7,4.1,23.4c0,11.8-1.4,19.6-4.1,23.5c-2.8,3.9-6.2,5.8-10.3,5.8c-4,0-7.3-1.7-9.7-5.1
								C181.5,55.1,180,47.1,180,35.3z"/>
						</g>
					</g>
				</g>
			</g>
			<g id="ytick_4">
				<g id="line2d_7">
					<g>
						<g>
							<path id="m89d7483ee5_00000116211408302776921740000016164074450559611553_" class="st1" d="M32.1,101.5h-3.5"/>
						</g>
					</g>
				</g>
				<g id="text_7">
					<g transform="translate(11.78375 103.686511)scale(0.06 -0.06)">
						<g>
							<path id="ArialMT-31_00000081616124894039436540000004330306252579900556_" d="M37.2,0h-8.8v56c-2.1-2-4.9-4-8.3-6
								s-6.5-3.5-9.2-4.5v8.5c4.9,2.3,9.2,5.1,12.9,8.4c3.7,3.3,6.3,6.5,7.8,9.6h5.7V0z"/>
						</g>
						<g>
							<path id="ArialMT-35_00000103981492100646584180000013963539448332010909_" d="M59.8,18.7l9.2,0.8c0.7-4.5,2.3-7.9,4.8-10.1
								c2.5-2.3,5.5-3.4,9-3.4c4.2,0,7.8,1.6,10.7,4.8c2.9,3.2,4.4,7.4,4.4,12.7c0,5-1.4,9-4.2,11.9c-2.8,2.9-6.5,4.4-11.1,4.4
								c-2.8,0-5.4-0.6-7.7-1.9c-2.3-1.3-4.1-2.9-5.4-5l-8.2,1.1l6.9,36.8h35.6v-8.4H75.3L71.4,43c4.3,3,8.8,4.5,13.5,4.5
								c6.2,0,11.5-2.2,15.8-6.5c4.3-4.3,6.5-9.9,6.5-16.7c0-6.5-1.9-12.1-5.7-16.8C97,1.7,90.7-1.2,82.8-1.2
								c-6.5,0-11.8,1.8-16,5.5C62.7,7.9,60.4,12.7,59.8,18.7z"/>
						</g>
						<g>
							<path id="ArialMT-30_00000174566563698523429370000015254439199789002426_" d="M115.4,35.3c0,8.5,0.9,15.3,2.6,20.4
								c1.7,5.2,4.3,9.1,7.8,11.9c3.4,2.8,7.8,4.2,13,4.2c3.8,0,7.2-0.8,10.1-2.3c2.9-1.5,5.3-3.8,7.2-6.7c1.9-2.9,3.4-6.5,4.5-10.6
								c1.1-4.2,1.6-9.8,1.6-16.9c0-8.4-0.9-15.2-2.6-20.3c-1.7-5.2-4.3-9.1-7.7-12c-3.4-2.8-7.8-4.2-13-4.2
								c-6.9,0-12.3,2.5-16.2,7.4C117.7,12.2,115.4,21.9,115.4,35.3z M124.4,35.3c0-11.8,1.4-19.6,4.1-23.5
								c2.8-3.9,6.1-5.8,10.2-5.8c4,0,7.4,2,10.2,5.9s4.1,11.7,4.1,23.4c0,11.8-1.4,19.6-4.1,23.5c-2.8,3.9-6.2,5.8-10.3,5.8
								c-4,0-7.3-1.7-9.7-5.1C125.9,55.1,124.4,47.1,124.4,35.3z"/>
						</g>
						<g>
							<path id="ArialMT-30_00000150815847950558985850000000123181697622727040_" d="M171,35.3c0,8.5,0.9,15.3,2.6,20.4
								c1.7,5.2,4.3,9.1,7.8,11.9c3.4,2.8,7.8,4.2,13,4.2c3.8,0,7.2-0.8,10.1-2.3c2.9-1.5,5.3-3.8,7.2-6.7c1.9-2.9,3.4-6.5,4.5-10.6
								c1.1-4.2,1.6-9.8,1.6-16.9c0-8.4-0.9-15.2-2.6-20.3c-1.7-5.2-4.3-9.1-7.7-12c-3.4-2.8-7.8-4.2-13-4.2
								c-6.9,0-12.3,2.5-16.2,7.4C173.4,12.2,171,21.9,171,35.3z M180,35.3c0-11.8,1.4-19.6,4.1-23.5c2.8-3.9,6.1-5.8,10.2-5.8
								c4,0,7.4,2,10.2,5.9s4.1,11.7,4.1,23.4c0,11.8-1.4,19.6-4.1,23.5c-2.8,3.9-6.2,5.8-10.3,5.8c-4,0-7.3-1.7-9.7-5.1
								C181.5,55.1,180,47.1,180,35.3z"/>
						</g>
					</g>
				</g>
			</g>
			<g id="ytick_5">
				<g id="line2d_8">
					<g>
						<g>
							<path id="m89d7483ee5_00000130607302209678387710000000255295543785331888_" class="st1" d="M32.1,79.5h-3.5"/>
						</g>
					</g>
				</g>
				<g id="text_8">
					<g transform="translate(11.78375 81.679644)scale(0.06 -0.06)">
						<g>
							<path id="ArialMT-32" d="M50.3,8.5V0H3C3,2.1,3.3,4.2,4,6.1c1.2,3.2,3.1,6.4,5.8,9.5c2.7,3.1,6.5,6.7,11.5,10.8
								c7.8,6.4,13,11.4,15.8,15.2c2.7,3.7,4.1,7.3,4.1,10.6c0,3.5-1.2,6.4-3.8,8.8c-2.5,2.4-5.7,3.6-9.7,3.6
								c-4.2,0-7.6-1.3-10.2-3.8c-2.5-2.5-3.8-6-3.9-10.5l-9,0.9c0.6,6.7,2.9,11.9,7,15.4c4,3.5,9.5,5.3,16.3,5.3
								c6.9,0,12.3-1.9,16.3-5.7c4-3.8,6-8.5,6-14.2c0-2.9-0.6-5.7-1.8-8.5c-1.2-2.8-3.1-5.7-5.8-8.7s-7.2-7.3-13.5-12.6
								c-5.3-4.4-8.7-7.4-10.2-9c-1.5-1.6-2.7-3.2-3.7-4.8H50.3z"/>
						</g>
						<g>
							<path id="ArialMT-30_00000182512625679855948920000016756542809461628346_" d="M59.8,35.3c0,8.5,0.9,15.3,2.6,20.4
								c1.7,5.2,4.3,9.1,7.8,11.9c3.4,2.8,7.8,4.2,13,4.2c3.8,0,7.2-0.8,10.1-2.3c2.9-1.5,5.3-3.8,7.2-6.7c1.9-2.9,3.4-6.5,4.5-10.6
								c1.1-4.2,1.6-9.8,1.6-16.9c0-8.4-0.9-15.2-2.6-20.3c-1.7-5.2-4.3-9.1-7.7-12c-3.4-2.8-7.8-4.2-13-4.2
								c-6.9,0-12.3,2.5-16.2,7.4C62.1,12.2,59.8,21.9,59.8,35.3z M68.8,35.3c0-11.8,1.4-19.6,4.1-23.5C75.7,7.9,79.1,6,83.1,6
								c4,0,7.4,2,10.2,5.9s4.1,11.7,4.1,23.4c0,11.8-1.4,19.6-4.1,23.5c-2.8,3.9-6.2,5.8-10.3,5.8c-4,0-7.3-1.7-9.7-5.1
								C70.3,55.1,68.8,47.1,68.8,35.3z"/>
						</g>
						<g>
							<path id="ArialMT-30_00000016050546146115923000000006107435986313554359_" d="M115.4,35.3c0,8.5,0.9,15.3,2.6,20.4
								c1.7,5.2,4.3,9.1,7.8,11.9c3.4,2.8,7.8,4.2,13,4.2c3.8,0,7.2-0.8,10.1-2.3c2.9-1.5,5.3-3.8,7.2-6.7c1.9-2.9,3.4-6.5,4.5-10.6
								c1.1-4.2,1.6-9.8,1.6-16.9c0-8.4-0.9-15.2-2.6-20.3c-1.7-5.2-4.3-9.1-7.7-12c-3.4-2.8-7.8-4.2-13-4.2
								c-6.9,0-12.3,2.5-16.2,7.4C117.7,12.2,115.4,21.9,115.4,35.3z M124.4,35.3c0-11.8,1.4-19.6,4.1-23.5
								c2.8-3.9,6.1-5.8,10.2-5.8c4,0,7.4,2,10.2,5.9s4.1,11.7,4.1,23.4c0,11.8-1.4,19.6-4.1,23.5c-2.8,3.9-6.2,5.8-10.3,5.8
								c-4,0-7.3-1.7-9.7-5.1C125.9,55.1,124.4,47.1,124.4,35.3z"/>
						</g>
						<g>
							<path id="ArialMT-30_00000100347194300158657790000005886440030759611315_" d="M171,35.3c0,8.5,0.9,15.3,2.6,20.4
								c1.7,5.2,4.3,9.1,7.8,11.9c3.4,2.8,7.8,4.2,13,4.2c3.8,0,7.2-0.8,10.1-2.3c2.9-1.5,5.3-3.8,7.2-6.7c1.9-2.9,3.4-6.5,4.5-10.6
								c1.1-4.2,1.6-9.8,1.6-16.9c0-8.4-0.9-15.2-2.6-20.3c-1.7-5.2-4.3-9.1-7.7-12c-3.4-2.8-7.8-4.2-13-4.2
								c-6.9,0-12.3,2.5-16.2,7.4C173.4,12.2,171,21.9,171,35.3z M180,35.3c0-11.8,1.4-19.6,4.1-23.5c2.8-3.9,6.1-5.8,10.2-5.8
								c4,0,7.4,2,10.2,5.9s4.1,11.7,4.1,23.4c0,11.8-1.4,19.6-4.1,23.5c-2.8,3.9-6.2,5.8-10.3,5.8c-4,0-7.3-1.7-9.7-5.1
								C181.5,55.1,180,47.1,180,35.3z"/>
						</g>
					</g>
				</g>
			</g>
			<g id="ytick_6">
				<g id="line2d_9">
					<g>
						<g>
							<path id="m89d7483ee5_00000009585193841394070850000009139654113442996118_" class="st1" d="M32.1,57.5h-3.5"/>
						</g>
					</g>
				</g>
				<g id="text_9">
					<g transform="translate(11.78375 59.672777)scale(0.06 -0.06)">
						<g>
							<path id="ArialMT-32_00000084498740823234168930000015588651866258089913_" d="M50.3,8.5V0H3C3,2.1,3.3,4.2,4,6.1
								c1.2,3.2,3.1,6.4,5.8,9.5c2.7,3.1,6.5,6.7,11.5,10.8c7.8,6.4,13,11.4,15.8,15.2c2.7,3.7,4.1,7.3,4.1,10.6
								c0,3.5-1.2,6.4-3.8,8.8c-2.5,2.4-5.7,3.6-9.7,3.6c-4.2,0-7.6-1.3-10.2-3.8c-2.5-2.5-3.8-6-3.9-10.5l-9,0.9
								c0.6,6.7,2.9,11.9,7,15.4c4,3.5,9.5,5.3,16.3,5.3c6.9,0,12.3-1.9,16.3-5.7c4-3.8,6-8.5,6-14.2c0-2.9-0.6-5.7-1.8-8.5
								c-1.2-2.8-3.1-5.7-5.8-8.7s-7.2-7.3-13.5-12.6c-5.3-4.4-8.7-7.4-10.2-9c-1.5-1.6-2.7-3.2-3.7-4.8H50.3z"/>
						</g>
						<g>
							<path id="ArialMT-35_00000156558782040870905210000006644086502427270051_" d="M59.8,18.7l9.2,0.8c0.7-4.5,2.3-7.9,4.8-10.1
								c2.5-2.3,5.5-3.4,9-3.4c4.2,0,7.8,1.6,10.7,4.8c2.9,3.2,4.4,7.4,4.4,12.7c0,5-1.4,9-4.2,11.9c-2.8,2.9-6.5,4.4-11.1,4.4
								c-2.8,0-5.4-0.6-7.7-1.9c-2.3-1.3-4.1-2.9-5.4-5l-8.2,1.1l6.9,36.8h35.6v-8.4H75.3L71.4,43c4.3,3,8.8,4.5,13.5,4.5
								c6.2,0,11.5-2.2,15.8-6.5c4.3-4.3,6.5-9.9,6.5-16.7c0-6.5-1.9-12.1-5.7-16.8C97,1.7,90.7-1.2,82.8-1.2
								c-6.5,0-11.8,1.8-16,5.5C62.7,7.9,60.4,12.7,59.8,18.7z"/>
						</g>
						<g>
							<path id="ArialMT-30_00000042702113919475707740000005593940424564175529_" d="M115.4,35.3c0,8.5,0.9,15.3,2.6,20.4
								c1.7,5.2,4.3,9.1,7.8,11.9c3.4,2.8,7.8,4.2,13,4.2c3.8,0,7.2-0.8,10.1-2.3c2.9-1.5,5.3-3.8,7.2-6.7c1.9-2.9,3.4-6.5,4.5-10.6
								c1.1-4.2,1.6-9.8,1.6-16.9c0-8.4-0.9-15.2-2.6-20.3c-1.7-5.2-4.3-9.1-7.7-12c-3.4-2.8-7.8-4.2-13-4.2
								c-6.9,0-12.3,2.5-16.2,7.4C117.7,12.2,115.4,21.9,115.4,35.3z M124.4,35.3c0-11.8,1.4-19.6,4.1-23.5
								c2.8-3.9,6.1-5.8,10.2-5.8c4,0,7.4,2,10.2,5.9s4.1,11.7,4.1,23.4c0,11.8-1.4,19.6-4.1,23.5c-2.8,3.9-6.2,5.8-10.3,5.8
								c-4,0-7.3-1.7-9.7-5.1C125.9,55.1,124.4,47.1,124.4,35.3z"/>
						</g>
						<g>
							<path id="ArialMT-30_00000008834961735213017390000013129027907164467621_" d="M171,35.3c0,8.5,0.9,15.3,2.6,20.4
								c1.7,5.2,4.3,9.1,7.8,11.9c3.4,2.8,7.8,4.2,13,4.2c3.8,0,7.2-0.8,10.1-2.3c2.9-1.5,5.3-3.8,7.2-6.7c1.9-2.9,3.4-6.5,4.5-10.6
								c1.1-4.2,1.6-9.8,1.6-16.9c0-8.4-0.9-15.2-2.6-20.3c-1.7-5.2-4.3-9.1-7.7-12c-3.4-2.8-7.8-4.2-13-4.2
								c-6.9,0-12.3,2.5-16.2,7.4C173.4,12.2,171,21.9,171,35.3z M180,35.3c0-11.8,1.4-19.6,4.1-23.5c2.8-3.9,6.1-5.8,10.2-5.8
								c4,0,7.4,2,10.2,5.9s4.1,11.7,4.1,23.4c0,11.8-1.4,19.6-4.1,23.5c-2.8,3.9-6.2,5.8-10.3,5.8c-4,0-7.3-1.7-9.7-5.1
								C181.5,55.1,180,47.1,180,35.3z"/>
						</g>
					</g>
				</g>
			</g>
			<g id="ytick_7">
				<g id="line2d_10">
					<g>
						<g>
							<path id="m89d7483ee5_00000129197066755179778720000009092100471654271885_" class="st1" d="M32.1,35.5h-3.5"/>
						</g>
					</g>
				</g>
				<g id="text_10">
					<g transform="translate(11.78375 37.66591)scale(0.06 -0.06)">
						<g>
							<path id="ArialMT-33" d="M4.2,18.9l8.8,1.2c1-5,2.7-8.6,5.2-10.8S23.5,6,27,6c4.1,0,7.6,1.4,10.5,4.3
								c2.9,2.9,4.3,6.4,4.3,10.7c0,4-1.3,7.4-4,10c-2.6,2.6-6,3.9-10.1,3.9c-1.7,0-3.7-0.3-6.2-1l1,7.7c0.6-0.1,1.1-0.1,1.4-0.1
								c3.8,0,7.1,1,10.1,2.9c3,2,4.5,5,4.5,9c0,3.2-1.1,5.9-3.3,8c-2.2,2.1-5,3.2-8.4,3.2c-3.4,0-6.3-1.1-8.5-3.2
								c-2.3-2.1-3.7-5.4-4.4-9.7l-8.8,1.6c1.1,5.9,3.5,10.4,7.3,13.7c3.8,3.2,8.6,4.9,14.2,4.9c3.9,0,7.5-0.8,10.8-2.5
								c3.3-1.7,5.8-4,7.5-6.9c1.8-2.9,2.6-6,2.6-9.2c0-3.1-0.8-5.9-2.5-8.4c-1.7-2.5-4.1-4.6-7.4-6.1c4.2-1,7.5-3,9.9-6.1
								c2.3-3.1,3.5-6.9,3.5-11.5c0-6.2-2.3-11.5-6.8-15.9C39.7,0.9,33.9-1.3,27-1.3c-6.3,0-11.5,1.9-15.7,5.6
								C7.2,8.1,4.8,12.9,4.2,18.9z"/>
						</g>
						<g>
							<path id="ArialMT-30_00000083784859045831297600000011971969711041011617_" d="M59.8,35.3c0,8.5,0.9,15.3,2.6,20.4
								c1.7,5.2,4.3,9.1,7.8,11.9c3.4,2.8,7.8,4.2,13,4.2c3.8,0,7.2-0.8,10.1-2.3c2.9-1.5,5.3-3.8,7.2-6.7c1.9-2.9,3.4-6.5,4.5-10.6
								c1.1-4.2,1.6-9.8,1.6-16.9c0-8.4-0.9-15.2-2.6-20.3c-1.7-5.2-4.3-9.1-7.7-12c-3.4-2.8-7.8-4.2-13-4.2
								c-6.9,0-12.3,2.5-16.2,7.4C62.1,12.2,59.8,21.9,59.8,35.3z M68.8,35.3c0-11.8,1.4-19.6,4.1-23.5C75.7,7.9,79.1,6,83.1,6
								c4,0,7.4,2,10.2,5.9s4.1,11.7,4.1,23.4c0,11.8-1.4,19.6-4.1,23.5c-2.8,3.9-6.2,5.8-10.3,5.8c-4,0-7.3-1.7-9.7-5.1
								C70.3,55.1,68.8,47.1,68.8,35.3z"/>
						</g>
						<g>
							<path id="ArialMT-30_00000069399863599596979940000014393807448206813119_" d="M115.4,35.3c0,8.5,0.9,15.3,2.6,20.4
								c1.7,5.2,4.3,9.1,7.8,11.9c3.4,2.8,7.8,4.2,13,4.2c3.8,0,7.2-0.8,10.1-2.3c2.9-1.5,5.3-3.8,7.2-6.7c1.9-2.9,3.4-6.5,4.5-10.6
								c1.1-4.2,1.6-9.8,1.6-16.9c0-8.4-0.9-15.2-2.6-20.3c-1.7-5.2-4.3-9.1-7.7-12c-3.4-2.8-7.8-4.2-13-4.2
								c-6.9,0-12.3,2.5-16.2,7.4C117.7,12.2,115.4,21.9,115.4,35.3z M124.4,35.3c0-11.8,1.4-19.6,4.1-23.5
								c2.8-3.9,6.1-5.8,10.2-5.8c4,0,7.4,2,10.2,5.9s4.1,11.7,4.1,23.4c0,11.8-1.4,19.6-4.1,23.5c-2.8,3.9-6.2,5.8-10.3,5.8
								c-4,0-7.3-1.7-9.7-5.1C125.9,55.1,124.4,47.1,124.4,35.3z"/>
						</g>
						<g>
							<path id="ArialMT-30_00000108282146450878879840000012812006766015691141_" d="M171,35.3c0,8.5,0.9,15.3,2.6,20.4
								c1.7,5.2,4.3,9.1,7.8,11.9c3.4,2.8,7.8,4.2,13,4.2c3.8,0,7.2-0.8,10.1-2.3c2.9-1.5,5.3-3.8,7.2-6.7c1.9-2.9,3.4-6.5,4.5-10.6
								c1.1-4.2,1.6-9.8,1.6-16.9c0-8.4-0.9-15.2-2.6-20.3c-1.7-5.2-4.3-9.1-7.7-12c-3.4-2.8-7.8-4.2-13-4.2
								c-6.9,0-12.3,2.5-16.2,7.4C173.4,12.2,171,21.9,171,35.3z M180,35.3c0-11.8,1.4-19.6,4.1-23.5c2.8-3.9,6.1-5.8,10.2-5.8
								c4,0,7.4,2,10.2,5.9s4.1,11.7,4.1,23.4c0,11.8-1.4,19.6-4.1,23.5c-2.8,3.9-6.2,5.8-10.3,5.8c-4,0-7.3-1.7-9.7-5.1
								C181.5,55.1,180,47.1,180,35.3z"/>
						</g>
					</g>
				</g>
			</g>
			<g id="text_11">
				<g transform="translate(6.59125 128.814544)rotate(-90)scale(0.06 -0.06)">
					<g>
						<path id="ArialMT-4f_00000183211449698223129850000016182531808488567719_" d="M4.8,34.9C4.8,46.7,8,56,14.4,62.8
							c6.4,6.7,14.6,10.1,24.7,10.1c6.6,0,12.6-1.6,17.9-4.8c5.3-3.2,9.3-7.6,12.1-13.2c2.8-5.6,4.2-12.1,4.2-19.2
							c0-7.2-1.5-13.7-4.4-19.5c-2.9-5.7-7.1-10.1-12.5-13c-5.4-2.9-11.2-4.4-17.4-4.4c-6.7,0-12.8,1.6-18.1,4.9
							C15.7,6.9,11.7,11.4,8.9,17C6.2,22.6,4.8,28.6,4.8,34.9z M14.6,34.7c0-8.6,2.3-15.4,7-20.4C26.2,9.4,32,6.9,39,6.9
							c7.1,0,13,2.5,17.6,7.5c4.6,5,6.9,12.1,6.9,21.3c0,5.8-1,10.9-3,15.2s-4.9,7.7-8.7,10.1c-3.8,2.4-8,3.6-12.8,3.6
							c-6.7,0-12.5-2.3-17.3-6.9C17,53.2,14.6,45.5,14.6,34.7z"/>
					</g>
					<g>
						<path id="ArialMT-76" d="M98.8,0L79,51.9h9.3l11.1-31.1c1.2-3.4,2.3-6.8,3.3-10.4c0.8,2.7,1.9,6,3.3,9.9l11.5,31.6h9L107,0
							H98.8z"/>
					</g>
					<g>
						<path id="ArialMT-65_00000101790127308235581580000011986061286360948870_" d="M169.9,16.7l9.1-1.1c-1.4-5.3-4.1-9.4-8-12.4
							c-3.9-2.9-8.8-4.4-14.8-4.4c-7.6,0-13.6,2.3-18,7c-4.4,4.7-6.7,11.2-6.7,19.7c0,8.7,2.2,15.5,6.7,20.3
							c4.5,4.8,10.3,7.2,17.5,7.2c6.9,0,12.6-2.4,17-7.1s6.6-11.4,6.6-19.9c0-0.5,0-1.3,0-2.3h-38.7c0.3-5.7,1.9-10.1,4.8-13.1
							c2.9-3,6.5-4.5,10.8-4.5c3.2,0,6,0.8,8.2,2.5C166.7,10.3,168.5,13,169.9,16.7z M141,30.9h29c-0.4,4.4-1.5,7.6-3.3,9.8
							c-2.8,3.4-6.4,5.1-10.9,5.1c-4,0-7.4-1.3-10.2-4S141.3,35.4,141,30.9z"/>
					</g>
					<g>
						<path id="ArialMT-72" d="M189.9,0v51.9h7.9V44c2,3.7,3.9,6.1,5.6,7.3c1.7,1.2,3.6,1.8,5.6,1.8c3,0,6-0.9,9-2.8l-3-8.2
							c-2.1,1.3-4.3,1.9-6.4,1.9c-1.9,0-3.7-0.6-5.2-1.7s-2.6-2.8-3.3-4.8c-1-3.1-1.5-6.5-1.5-10.2V0H189.9z"/>
					</g>
					<g>
						<path id="ArialMT-61_00000164514232363898128410000007783227041938945471_" d="M257.1,6.4c-3.3-2.8-6.4-4.7-9.4-5.9
							c-3-1.1-6.2-1.7-9.7-1.7c-5.7,0-10.1,1.4-13.1,4.2s-4.6,6.3-4.6,10.7c0,2.5,0.6,4.9,1.7,7c1.2,2.1,2.7,3.8,4.5,5.1
							s4,2.2,6.3,2.9c1.7,0.5,4.3,0.9,7.8,1.3c7.1,0.8,12.3,1.8,15.7,3c0,1.2,0,2,0,2.3c0,3.6-0.8,6.1-2.5,7.6c-2.2,2-5.6,3-10,3
							c-4.1,0-7.2-0.7-9.2-2.2s-3.4-4-4.4-7.7l-8.6,1.2c0.8,3.7,2.1,6.6,3.9,8.9s4.4,4,7.8,5.2c3.4,1.2,7.3,1.8,11.8,1.8
							c4.4,0,8-0.5,10.8-1.6c2.8-1,4.8-2.4,6.1-3.9c1.3-1.6,2.2-3.6,2.7-6c0.3-1.5,0.4-4.2,0.4-8.1V21.7c0-8.2,0.2-13.3,0.6-15.5
							c0.4-2.2,1.1-4.2,2.2-6.2h-9.2C258,1.8,257.4,4,257.1,6.4z M256.4,26c-3.2-1.3-8-2.4-14.4-3.3c-3.6-0.5-6.2-1.1-7.7-1.8
							c-1.5-0.6-2.6-1.6-3.5-2.8c-0.8-1.2-1.2-2.6-1.2-4.2c0-2.3,0.9-4.3,2.7-5.9c1.8-1.6,4.4-2.3,7.8-2.3c3.4,0,6.4,0.7,9,2.2
							s4.6,3.5,5.8,6.1c0.9,2,1.4,4.9,1.4,8.8V26z"/>
					</g>
					<g>
						<path id="ArialMT-6c_00000050662373643367963110000012745817189540113317_" d="M278.7,0v71.6h8.8V0H278.7z"/>
					</g>
					<g>
						<path id="ArialMT-6c_00000160896027026149025830000014035877987513141908_" d="M300.9,0v71.6h8.8V0H300.9z"/>
					</g>
					<g>
						<path id="ArialMT-20" d="M316.7,0"/>
					</g>
					<g>
						<path id="ArialMT-4c" d="M351.9,0v71.6h9.5V8.5h35.2V0H351.9z"/>
					</g>
					<g>
						<path id="ArialMT-61_00000169535735252586420820000008255822725714555809_" d="M440.6,6.4c-3.3-2.8-6.4-4.7-9.4-5.9
							c-3-1.1-6.2-1.7-9.7-1.7c-5.7,0-10.1,1.4-13.1,4.2s-4.6,6.3-4.6,10.7c0,2.5,0.6,4.9,1.7,7c1.2,2.1,2.7,3.8,4.5,5.1
							s4,2.2,6.3,2.9c1.7,0.5,4.3,0.9,7.8,1.3c7.1,0.8,12.3,1.8,15.7,3c0,1.2,0,2,0,2.3c0,3.6-0.8,6.1-2.5,7.6c-2.2,2-5.6,3-10,3
							c-4.1,0-7.2-0.7-9.2-2.2s-3.4-4-4.4-7.7l-8.6,1.2c0.8,3.7,2.1,6.6,3.9,8.9s4.4,4,7.8,5.2c3.4,1.2,7.3,1.8,11.8,1.8
							c4.4,0,8-0.5,10.8-1.6c2.8-1,4.8-2.4,6.1-3.9c1.3-1.6,2.2-3.6,2.7-6c0.3-1.5,0.4-4.2,0.4-8.1V21.7c0-8.2,0.2-13.3,0.6-15.5
							c0.4-2.2,1.1-4.2,2.2-6.2h-9.2C441.4,1.8,440.8,4,440.6,6.4z M439.8,26c-3.2-1.3-8-2.4-14.4-3.3c-3.6-0.5-6.2-1.1-7.7-1.8
							c-1.5-0.6-2.6-1.6-3.5-2.8c-0.8-1.2-1.2-2.6-1.2-4.2c0-2.3,0.9-4.3,2.7-5.9c1.8-1.6,4.4-2.3,7.8-2.3c3.4,0,6.4,0.7,9,2.2
							s4.6,3.5,5.8,6.1c0.9,2,1.4,4.9,1.4,8.8V26z"/>
					</g>
					<g>
						<path id="ArialMT-74_00000114063680267175548550000011682340152089006771_" d="M481.5,7.9l1.3-7.8c-2.5-0.5-4.7-0.8-6.6-0.8
							c-3.2,0-5.7,0.5-7.4,1.5c-1.8,1-3,2.3-3.7,4S464,9.9,464,15.2V45h-6.4v6.8h6.4v12.8l8.7,5.3V51.9h8.8V45h-8.8V14.7
							c0-2.5,0.2-4.1,0.5-4.8c0.3-0.7,0.8-1.3,1.5-1.7c0.7-0.4,1.7-0.6,3-0.6C478.7,7.5,479.9,7.6,481.5,7.9z"/>
					</g>
					<g>
						<path id="ArialMT-65_00000070818962675987358970000006062898406584125316_" d="M525.6,16.7l9.1-1.1c-1.4-5.3-4.1-9.4-8-12.4
							c-3.9-2.9-8.8-4.4-14.8-4.4c-7.6,0-13.6,2.3-18,7c-4.4,4.7-6.7,11.2-6.7,19.7c0,8.7,2.2,15.5,6.7,20.3
							c4.5,4.8,10.3,7.2,17.5,7.2c6.9,0,12.6-2.4,17-7.1S535,34.6,535,26c0-0.5,0-1.3,0-2.3h-38.7c0.3-5.7,1.9-10.1,4.8-13.1
							c2.9-3,6.5-4.5,10.8-4.5c3.2,0,6,0.8,8.2,2.5C522.5,10.3,524.3,13,525.6,16.7z M496.8,30.9h29c-0.4,4.4-1.5,7.6-3.3,9.8
							c-2.8,3.4-6.4,5.1-10.9,5.1c-4,0-7.4-1.3-10.2-4S497.1,35.4,496.8,30.9z"/>
					</g>
					<g>
						<path id="ArialMT-6e_00000088821317708031228080000015029485717078487484_" d="M545.8,0v51.9h7.9v-7.4
							c3.8,5.7,9.3,8.5,16.5,8.5c3.1,0,6-0.6,8.6-1.7s4.6-2.6,5.9-4.4s2.2-4,2.7-6.5c0.3-1.6,0.5-4.5,0.5-8.5V0h-8.8v31.5
							c0,3.6-0.3,6.3-1,8c-0.7,1.8-1.9,3.2-3.6,4.2c-1.7,1.1-3.8,1.6-6.1,1.6c-3.8,0-7-1.2-9.7-3.6s-4.1-6.9-4.1-13.5V0H545.8z"/>
					</g>
					<g>
						<path id="ArialMT-74_00000005961602347251363970000018391725854212569494_" d="M620.6,7.9l1.3-7.8c-2.5-0.5-4.7-0.8-6.6-0.8
							c-3.2,0-5.7,0.5-7.4,1.5c-1.8,1-3,2.3-3.7,4S603,9.9,603,15.2V45h-6.4v6.8h6.4v12.8l8.7,5.3V51.9h8.8V45h-8.8V14.7
							c0-2.5,0.2-4.1,0.5-4.8c0.3-0.7,0.8-1.3,1.5-1.7c0.7-0.4,1.7-0.6,3-0.6C617.7,7.5,619,7.6,620.6,7.9z"/>
					</g>
					<g>
						<path id="ArialMT-20_00000117655429481679339900000000900414131977280666_" d="M622.6,0"/>
					</g>
					<g>
						<path id="ArialMT-56" d="M678.5,0l-27.7,71.6H661l18.6-52c1.5-4.2,2.8-8.1,3.8-11.7c1.1,3.9,2.4,7.8,3.9,11.7l19.3,52h9.7
							L688.2,0H678.5z"/>
					</g>
					<g>
						<path id="ArialMT-61_00000167373047953835977040000004822681975249023634_" d="M750.1,6.4c-3.3-2.8-6.4-4.7-9.4-5.9
							c-3-1.1-6.2-1.7-9.7-1.7c-5.7,0-10.1,1.4-13.1,4.2s-4.6,6.3-4.6,10.7c0,2.5,0.6,4.9,1.7,7c1.2,2.1,2.7,3.8,4.5,5.1
							s4,2.2,6.3,2.9c1.7,0.5,4.3,0.9,7.8,1.3c7.1,0.8,12.3,1.8,15.7,3c0,1.2,0,2,0,2.3c0,3.6-0.8,6.1-2.5,7.6c-2.2,2-5.6,3-10,3
							c-4.1,0-7.2-0.7-9.2-2.2s-3.4-4-4.4-7.7l-8.6,1.2c0.8,3.7,2.1,6.6,3.9,8.9c1.8,2.3,4.4,4,7.8,5.2c3.4,1.2,7.3,1.8,11.8,1.8
							c4.4,0,8-0.5,10.8-1.6c2.8-1,4.8-2.4,6.1-3.9c1.3-1.6,2.2-3.6,2.7-6c0.3-1.5,0.4-4.2,0.4-8.1V21.7c0-8.2,0.2-13.3,0.6-15.5
							c0.4-2.2,1.1-4.2,2.2-6.2h-9.2C750.9,1.8,750.4,4,750.1,6.4z M749.4,26c-3.2-1.3-8-2.4-14.4-3.3c-3.6-0.5-6.2-1.1-7.7-1.8
							c-1.5-0.6-2.6-1.6-3.5-2.8c-0.8-1.2-1.2-2.6-1.2-4.2c0-2.3,0.9-4.3,2.7-5.9c1.8-1.6,4.4-2.3,7.8-2.3c3.4,0,6.4,0.7,9,2.2
							s4.6,3.5,5.8,6.1c0.9,2,1.4,4.9,1.4,8.8V26z"/>
					</g>
					<g>
						<path id="ArialMT-72_00000077313246138574213400000008980491532813414329_" d="M771.8,0v51.9h7.9V44c2,3.7,3.9,6.1,5.6,7.3
							c1.7,1.2,3.6,1.8,5.6,1.8c3,0,6-0.9,9-2.8l-3-8.2c-2.1,1.3-4.3,1.9-6.4,1.9c-1.9,0-3.7-0.6-5.2-1.7s-2.6-2.8-3.3-4.8
							c-1-3.1-1.5-6.5-1.5-10.2V0H771.8z"/>
					</g>
					<g>
						<path id="ArialMT-69_00000046338068128369002390000006199756542455480459_" d="M805.2,61.5v10.1h8.8V61.5H805.2z M805.2,0
							v51.9h8.8V0H805.2z"/>
					</g>
					<g>
						<path id="ArialMT-61_00000176000939269194035940000013838794275245883307_" d="M861.2,6.4c-3.3-2.8-6.4-4.7-9.4-5.9
							c-3-1.1-6.2-1.7-9.7-1.7c-5.7,0-10.1,1.4-13.1,4.2s-4.6,6.3-4.6,10.7c0,2.5,0.6,4.9,1.7,7c1.2,2.1,2.7,3.8,4.5,5.1
							s4,2.2,6.3,2.9c1.7,0.5,4.3,0.9,7.8,1.3c7.1,0.8,12.3,1.8,15.7,3c0,1.2,0,2,0,2.3c0,3.6-0.8,6.1-2.5,7.6c-2.2,2-5.6,3-10,3
							c-4.1,0-7.2-0.7-9.2-2.2s-3.4-4-4.4-7.7l-8.6,1.2c0.8,3.7,2.1,6.6,3.9,8.9c1.8,2.3,4.4,4,7.8,5.2c3.4,1.2,7.3,1.8,11.8,1.8
							c4.4,0,8-0.5,10.8-1.6c2.8-1,4.8-2.4,6.1-3.9c1.3-1.6,2.2-3.6,2.7-6c0.3-1.5,0.4-4.2,0.4-8.1V21.7c0-8.2,0.2-13.3,0.6-15.5
							c0.4-2.2,1.1-4.2,2.2-6.2H863C862.1,1.8,861.5,4,861.2,6.4z M860.5,26c-3.2-1.3-8-2.4-14.4-3.3c-3.6-0.5-6.2-1.1-7.7-1.8
							c-1.5-0.6-2.6-1.6-3.5-2.8c-0.8-1.2-1.2-2.6-1.2-4.2c0-2.3,0.9-4.3,2.7-5.9c1.8-1.6,4.4-2.3,7.8-2.3c3.4,0,6.4,0.7,9,2.2
							c2.6,1.5,4.6,3.5,5.8,6.1c0.9,2,1.4,4.9,1.4,8.8V26z"/>
					</g>
					<g>
						<path id="ArialMT-6e_00000080208627926114200130000008940256820604915107_" d="M883,0v51.9h7.9v-7.4c3.8,5.7,9.3,8.5,16.5,8.5
							c3.1,0,6-0.6,8.6-1.7s4.6-2.6,5.9-4.4c1.3-1.8,2.2-4,2.7-6.5c0.3-1.6,0.5-4.5,0.5-8.5V0h-8.8v31.5c0,3.6-0.3,6.3-1,8
							c-0.7,1.8-1.9,3.2-3.6,4.2c-1.7,1.1-3.8,1.6-6.1,1.6c-3.8,0-7-1.2-9.7-3.6s-4.1-6.9-4.1-13.5V0H883z"/>
					</g>
					<g>
						<path id="ArialMT-63_00000165925849773834604550000018420846558760012959_" d="M972.5,19l8.6-1.1c-0.9-6-3.4-10.6-7.3-14
							c-3.9-3.4-8.7-5-14.3-5c-7.1,0-12.8,2.3-17.1,7c-4.3,4.6-6.5,11.3-6.5,20c0,5.6,0.9,10.5,2.8,14.7c1.9,4.2,4.7,7.4,8.5,9.5
							c3.8,2.1,7.9,3.2,12.4,3.2c5.6,0,10.2-1.4,13.8-4.3c3.6-2.8,5.9-6.9,6.9-12.1l-8.5-1.3c-0.8,3.5-2.3,6.1-4.3,7.9
							c-2.1,1.8-4.6,2.6-7.5,2.6c-4.4,0-8-1.6-10.8-4.8c-2.8-3.2-4.1-8.2-4.1-15c0-7,1.3-12,4-15.2c2.7-3.2,6.2-4.7,10.5-4.7
							c3.4,0,6.3,1.1,8.6,3.2S971.8,14.6,972.5,19z"/>
					</g>
					<g>
						<path id="ArialMT-65_00000001650965291357615210000015886512681629369754_" d="M1024.1,16.7l9.1-1.1c-1.4-5.3-4.1-9.4-8-12.4
							c-3.9-2.9-8.8-4.4-14.8-4.4c-7.6,0-13.6,2.3-18,7c-4.4,4.7-6.7,11.2-6.7,19.7c0,8.7,2.2,15.5,6.7,20.3
							c4.5,4.8,10.3,7.2,17.5,7.2c6.9,0,12.6-2.4,17-7.1s6.6-11.4,6.6-19.9c0-0.5,0-1.3,0-2.3h-38.7c0.3-5.7,1.9-10.1,4.8-13.1
							c2.9-3,6.5-4.5,10.8-4.5c3.2,0,6,0.8,8.2,2.5C1021,10.3,1022.8,13,1024.1,16.7z M995.3,30.9h29c-0.4,4.4-1.5,7.6-3.3,9.8
							c-2.8,3.4-6.4,5.1-10.9,5.1c-4,0-7.4-1.3-10.2-4S995.6,35.4,995.3,30.9z"/>
					</g>
				</g>
			</g>
		</g>
		<g id="line2d_11">
			<g>
				<defs>
					<rect id="SVGID_1_" x="32.1" y="23.2" width="199.2" height="148.9"/>
				</defs>
				<clipPath id="SVGID_00000126288495825781044100000009700071989399936161_">
					<use xlink:href="#SVGID_1_"  style="overflow:visible;"/>
				</clipPath>
				
					<path style="clip-path:url(#SVGID_00000126288495825781044100000009700071989399936161_);fill:none;stroke:#000000;stroke-linecap:square;stroke-linejoin:round;" d="
					M55.4,162.6h19.9v-7.9H55.4V162.6"/>
			</g>
		</g>
		<g id="line2d_12">
			<g>
				<defs>
					<rect id="SVGID_00000050638706084307900350000001698051852257480863_" x="32.1" y="23.2" width="199.2" height="148.9"/>
				</defs>
				<clipPath id="SVGID_00000002366028117196703120000013743503316425373609_">
					<use xlink:href="#SVGID_00000050638706084307900350000001698051852257480863_"  style="overflow:visible;"/>
				</clipPath>
				
					<path style="clip-path:url(#SVGID_00000002366028117196703120000013743503316425373609_);fill:none;stroke:#000000;stroke-linecap:square;stroke-linejoin:round;" d="
					M65.3,162.6v2.8"/>
			</g>
		</g>
		<g id="line2d_13">
			<g>
				<defs>
					<rect id="SVGID_00000092447652298283696990000004454400853685778327_" x="32.1" y="23.2" width="199.2" height="148.9"/>
				</defs>
				<clipPath id="SVGID_00000132775724333557046490000005802364833472490136_">
					<use xlink:href="#SVGID_00000092447652298283696990000004454400853685778327_"  style="overflow:visible;"/>
				</clipPath>
				
					<path style="clip-path:url(#SVGID_00000132775724333557046490000005802364833472490136_);fill:none;stroke:#000000;stroke-linecap:square;stroke-linejoin:round;" d="
					M65.3,154.7v-4.4"/>
			</g>
		</g>
		<g id="line2d_14">
			<g>
				<defs>
					<rect id="SVGID_00000021083745398072860510000003134667634923910552_" x="32.1" y="23.2" width="199.2" height="148.9"/>
				</defs>
				<clipPath id="SVGID_00000023269240320485675470000016803262374014038427_">
					<use xlink:href="#SVGID_00000021083745398072860510000003134667634923910552_"  style="overflow:visible;"/>
				</clipPath>
				
					<path style="clip-path:url(#SVGID_00000023269240320485675470000016803262374014038427_);fill:none;stroke:#000000;stroke-linecap:square;stroke-linejoin:round;" d="
					M60.4,165.4h10"/>
			</g>
		</g>
		<g id="line2d_15">
			<g>
				<defs>
					<rect id="SVGID_00000022518970965461216010000001477876551952488333_" x="32.1" y="23.2" width="199.2" height="148.9"/>
				</defs>
				<clipPath id="SVGID_00000068635913554686735930000004537671484367002296_">
					<use xlink:href="#SVGID_00000022518970965461216010000001477876551952488333_"  style="overflow:visible;"/>
				</clipPath>
				
					<path style="clip-path:url(#SVGID_00000068635913554686735930000004537671484367002296_);fill:none;stroke:#000000;stroke-linecap:square;stroke-linejoin:round;" d="
					M60.4,150.2h10"/>
			</g>
		</g>
		<g id="line2d_16">
		</g>
		<g id="line2d_17">
			<g>
				<defs>
					<rect id="SVGID_00000098901317472554170100000015623434812341035422_" x="32.1" y="23.2" width="199.2" height="148.9"/>
				</defs>
				<clipPath id="SVGID_00000071538090347675733690000011188787402872064140_">
					<use xlink:href="#SVGID_00000098901317472554170100000015623434812341035422_"  style="overflow:visible;"/>
				</clipPath>
				
					<path style="clip-path:url(#SVGID_00000071538090347675733690000011188787402872064140_);fill:none;stroke:#000000;stroke-linecap:square;stroke-linejoin:round;" d="
					M121.8,96.6h19.9v-21h-19.9V96.6"/>
			</g>
		</g>
		<g id="line2d_18">
			<g>
				<defs>
					<rect id="SVGID_00000172421614177957011930000018397450218915239355_" x="32.1" y="23.2" width="199.2" height="148.9"/>
				</defs>
				<clipPath id="SVGID_00000051352283483043396690000011576678454031221914_">
					<use xlink:href="#SVGID_00000172421614177957011930000018397450218915239355_"  style="overflow:visible;"/>
				</clipPath>
				
					<path style="clip-path:url(#SVGID_00000051352283483043396690000011576678454031221914_);fill:none;stroke:#000000;stroke-linecap:square;stroke-linejoin:round;" d="
					M131.7,96.6v21.7"/>
			</g>
		</g>
		<g id="line2d_19">
			<g>
				<defs>
					<rect id="SVGID_00000044888919343316003040000015913245491149985171_" x="32.1" y="23.2" width="199.2" height="148.9"/>
				</defs>
				<clipPath id="SVGID_00000019662586743368866560000014612493668589090448_">
					<use xlink:href="#SVGID_00000044888919343316003040000015913245491149985171_"  style="overflow:visible;"/>
				</clipPath>
				
					<path style="clip-path:url(#SVGID_00000019662586743368866560000014612493668589090448_);fill:none;stroke:#000000;stroke-linecap:square;stroke-linejoin:round;" d="
					M131.7,75.6V58.4"/>
			</g>
		</g>
		<g id="line2d_20">
			<g>
				<defs>
					<rect id="SVGID_00000023260895212382232930000017287761628695159983_" x="32.1" y="23.2" width="199.2" height="148.9"/>
				</defs>
				<clipPath id="SVGID_00000165933308245715711350000018316362928256001713_">
					<use xlink:href="#SVGID_00000023260895212382232930000017287761628695159983_"  style="overflow:visible;"/>
				</clipPath>
				
					<path style="clip-path:url(#SVGID_00000165933308245715711350000018316362928256001713_);fill:none;stroke:#000000;stroke-linecap:square;stroke-linejoin:round;" d="
					M126.8,118.3h10"/>
			</g>
		</g>
		<g id="line2d_21">
			<g>
				<defs>
					<rect id="SVGID_00000147213843505856981820000006189434064220136329_" x="32.1" y="23.2" width="199.2" height="148.9"/>
				</defs>
				<clipPath id="SVGID_00000080902273671910484160000004867563714017000594_">
					<use xlink:href="#SVGID_00000147213843505856981820000006189434064220136329_"  style="overflow:visible;"/>
				</clipPath>
				
					<path style="clip-path:url(#SVGID_00000080902273671910484160000004867563714017000594_);fill:none;stroke:#000000;stroke-linecap:square;stroke-linejoin:round;" d="
					M126.8,58.4h10"/>
			</g>
		</g>
		<g id="line2d_22">
		</g>
		<g id="line2d_23">
			<g>
				<defs>
					<rect id="SVGID_00000018957703995381897860000005319153680134553758_" x="32.1" y="23.2" width="199.2" height="148.9"/>
				</defs>
				<clipPath id="SVGID_00000002359560296544609060000009277251034797143439_">
					<use xlink:href="#SVGID_00000018957703995381897860000005319153680134553758_"  style="overflow:visible;"/>
				</clipPath>
				
					<path style="clip-path:url(#SVGID_00000002359560296544609060000009277251034797143439_);fill:none;stroke:#000000;stroke-linecap:square;stroke-linejoin:round;" d="
					M188.2,77.7h19.9V52.3h-19.9V77.7"/>
			</g>
		</g>
		<g id="line2d_24">
			<g>
				<defs>
					<rect id="SVGID_00000176733723059521890350000005701406741937907854_" x="32.1" y="23.2" width="199.2" height="148.9"/>
				</defs>
				<clipPath id="SVGID_00000181088370592234036900000005220310216734433430_">
					<use xlink:href="#SVGID_00000176733723059521890350000005701406741937907854_"  style="overflow:visible;"/>
				</clipPath>
				
					<path style="clip-path:url(#SVGID_00000181088370592234036900000005220310216734433430_);fill:none;stroke:#000000;stroke-linecap:square;stroke-linejoin:round;" d="
					M198.1,77.7v19.5"/>
			</g>
		</g>
		<g id="line2d_25">
			<g>
				<defs>
					<rect id="SVGID_00000140014775458951123050000004950301840991331774_" x="32.1" y="23.2" width="199.2" height="148.9"/>
				</defs>
				<clipPath id="SVGID_00000178916860284380389340000004148020769561725331_">
					<use xlink:href="#SVGID_00000140014775458951123050000004950301840991331774_"  style="overflow:visible;"/>
				</clipPath>
				
					<path style="clip-path:url(#SVGID_00000178916860284380389340000004148020769561725331_);fill:none;stroke:#000000;stroke-linecap:square;stroke-linejoin:round;" d="
					M198.1,52.3V30"/>
			</g>
		</g>
		<g id="line2d_26">
			<g>
				<defs>
					<rect id="SVGID_00000181059917544330255970000011421788981492483751_" x="32.1" y="23.2" width="199.2" height="148.9"/>
				</defs>
				<clipPath id="SVGID_00000070805170765169361180000004162058638282401205_">
					<use xlink:href="#SVGID_00000181059917544330255970000011421788981492483751_"  style="overflow:visible;"/>
				</clipPath>
				
					<path style="clip-path:url(#SVGID_00000070805170765169361180000004162058638282401205_);fill:none;stroke:#000000;stroke-linecap:square;stroke-linejoin:round;" d="
					M193.2,97.1h10"/>
			</g>
		</g>
		<g id="line2d_27">
			<g>
				<defs>
					<rect id="SVGID_00000058546966818873310390000005525232602315826842_" x="32.1" y="23.2" width="199.2" height="148.9"/>
				</defs>
				<clipPath id="SVGID_00000183208117792203180770000009239355390787810451_">
					<use xlink:href="#SVGID_00000058546966818873310390000005525232602315826842_"  style="overflow:visible;"/>
				</clipPath>
				
					<path style="clip-path:url(#SVGID_00000183208117792203180770000009239355390787810451_);fill:none;stroke:#000000;stroke-linecap:square;stroke-linejoin:round;" d="
					M193.2,30h10"/>
			</g>
		</g>
		<g id="line2d_28">
		</g>
		<g id="line2d_29">
			<g>
				<defs>
					<rect id="SVGID_00000003106871508902063360000006807436938927613628_" x="32.1" y="23.2" width="199.2" height="148.9"/>
				</defs>
				<clipPath id="SVGID_00000029024672142217020300000017621315190607470735_">
					<use xlink:href="#SVGID_00000003106871508902063360000006807436938927613628_"  style="overflow:visible;"/>
				</clipPath>
				
					<path style="clip-path:url(#SVGID_00000029024672142217020300000017621315190607470735_);fill:none;stroke:#FF7F0E;stroke-linecap:square;stroke-linejoin:round;" d="
					M55.4,158.3h19.9"/>
			</g>
		</g>
		<g id="line2d_30">
			<g>
				<defs>
					<rect id="SVGID_00000043459440734492529030000008592334376467117477_" x="32.1" y="23.2" width="199.2" height="148.9"/>
				</defs>
				<clipPath id="SVGID_00000147205333372525091450000000713514622856177564_">
					<use xlink:href="#SVGID_00000043459440734492529030000008592334376467117477_"  style="overflow:visible;"/>
				</clipPath>
				
					<path style="clip-path:url(#SVGID_00000147205333372525091450000000713514622856177564_);fill:none;stroke:#FF7F0E;stroke-linecap:square;stroke-linejoin:round;" d="
					M121.8,90.1h19.9"/>
			</g>
		</g>
		<g id="line2d_31">
			<g>
				<defs>
					<rect id="SVGID_00000173143878646501694490000003492434163211350973_" x="32.1" y="23.2" width="199.2" height="148.9"/>
				</defs>
				<clipPath id="SVGID_00000155130780246638883950000003091837231070602114_">
					<use xlink:href="#SVGID_00000173143878646501694490000003492434163211350973_"  style="overflow:visible;"/>
				</clipPath>
				
					<path style="clip-path:url(#SVGID_00000155130780246638883950000003091837231070602114_);fill:none;stroke:#FF7F0E;stroke-linecap:square;stroke-linejoin:round;" d="
					M188.2,66.4h19.9"/>
			</g>
		</g>
		<g id="patch_3">
			<path class="st20" d="M32.1,172.2V23.2"/>
		</g>
		<g id="patch_5">
			<path class="st20" d="M32.1,172.2h199.2"/>
		</g>
	</g>
</g>
</svg>
