<?xml version="1.0" encoding="utf-8"?>
<!-- Generator: Adobe Illustrator 26.4.1, SVG Export Plug-In . SVG Version: 6.00 Build 0)  -->
<svg version="1.1" id="Layer_1" xmlns="http://www.w3.org/2000/svg" xmlns:xlink="http://www.w3.org/1999/xlink" x="0px" y="0px"
	 viewBox="0 0 232.3 159.4" style="enable-background:new 0 0 232.3 159.4;" xml:space="preserve">
<style type="text/css">
	.st0{fill:#FFFFFF;}
	.st1{stroke:#000000;stroke-width:0.8;stroke-linejoin:round;}
	
		.st2{clip-path:url(#SVGID_00000109732045942467171200000018199150652747702719_);fill:none;stroke:#000000;stroke-linecap:square;stroke-linejoin:round;}
	
		.st3{clip-path:url(#SVGID_00000181082188543175996670000013872787482632362937_);fill:none;stroke:#000000;stroke-linecap:square;stroke-linejoin:round;}
	
		.st4{clip-path:url(#SVGID_00000007397028347647283060000013612129756505848255_);fill:none;stroke:#000000;stroke-linecap:square;stroke-linejoin:round;}
	
		.st5{clip-path:url(#SVGID_00000095316520990422293040000010102621780052105619_);fill:none;stroke:#000000;stroke-linecap:square;stroke-linejoin:round;}
	
		.st6{clip-path:url(#SVGID_00000008126655627102506650000002745730257815238573_);fill:none;stroke:#000000;stroke-linecap:square;stroke-linejoin:round;}
	
		.st7{clip-path:url(#SVGID_00000062908378649426849530000011010806186498405767_);fill:none;stroke:#000000;stroke-linecap:square;stroke-linejoin:round;}
	
		.st8{clip-path:url(#SVGID_00000135676346150436579850000000446167932772314512_);fill:none;stroke:#000000;stroke-linecap:square;stroke-linejoin:round;}
	
		.st9{clip-path:url(#SVGID_00000109730542752312850130000012666540961300296067_);fill:none;stroke:#000000;stroke-linecap:square;stroke-linejoin:round;}
	
		.st10{clip-path:url(#SVGID_00000137814201188918201550000001230715205266289035_);fill:none;stroke:#000000;stroke-linecap:square;stroke-linejoin:round;}
	
		.st11{clip-path:url(#SVGID_00000054263095809919742800000014421426365020076165_);fill:none;stroke:#000000;stroke-linecap:square;stroke-linejoin:round;}
	
		.st12{clip-path:url(#SVGID_00000160183341671786050940000004616854178152218768_);fill:none;stroke:#000000;stroke-linecap:square;stroke-linejoin:round;}
	
		.st13{clip-path:url(#SVGID_00000052786364935904346320000018125127933603471782_);fill:none;stroke:#000000;stroke-linecap:square;stroke-linejoin:round;}
	
		.st14{clip-path:url(#SVGID_00000048483224437780453700000000471613202508702848_);fill:none;stroke:#000000;stroke-linecap:square;stroke-linejoin:round;}
	
		.st15{clip-path:url(#SVGID_00000110440082621374526800000005575761181744513189_);fill:none;stroke:#000000;stroke-linecap:square;stroke-linejoin:round;}
	
		.st16{clip-path:url(#SVGID_00000057112864954018137940000013201469711327579526_);fill:none;stroke:#000000;stroke-linecap:square;stroke-linejoin:round;}
	
		.st17{clip-path:url(#SVGID_00000075880806366003292350000017477560820532508579_);fill:none;stroke:#FF7F0E;stroke-linecap:square;stroke-linejoin:round;}
	
		.st18{clip-path:url(#SVGID_00000009577556773153976070000002894860628673014693_);fill:none;stroke:#FF7F0E;stroke-linecap:square;stroke-linejoin:round;}
	
		.st19{clip-path:url(#SVGID_00000071523295517613707640000001777202730821180811_);fill:none;stroke:#FF7F0E;stroke-linecap:square;stroke-linejoin:round;}
	.st20{fill:none;stroke:#000000;stroke-width:0.8;stroke-linecap:square;}
</style>
<g id="figure_1">
	<g id="axes_1">
		<g id="patch_2">
			<path class="st0" d="M29,141.8h180V19.1H29V141.8z"/>
		</g>
		<g id="matplotlib.axis_1">
			<g id="xtick_1">
				<g id="line2d_1">
					<g>
						<g>
							<path id="m0a33368e47" class="st1" d="M59,141.8v3.5"/>
						</g>
					</g>
				</g>
			</g>
			<g id="xtick_2">
				<g id="line2d_2">
					<g>
						<g>
							<path id="m0a33368e47_00000106843867620842533090000008533363738596599484_" class="st1" d="M119.1,141.8v3.5"/>
						</g>
					</g>
				</g>
			</g>
			<g id="xtick_3">
				<g id="line2d_3">
					<g>
						<g>
							<path id="m0a33368e47_00000122678759647955428020000011603699968670326453_" class="st1" d="M179.1,141.8v3.5"/>
						</g>
					</g>
				</g>
			</g>
		</g>
		<g id="matplotlib.axis_2">
			<g id="ytick_1">
				<g id="line2d_4">
					<g>
						<g>
							<path id="m5baceb5281" class="st1" d="M29,133.7h-3.5"/>
						</g>
					</g>
				</g>
				<g id="text_4">
					<g transform="translate(10.363437 135.863116)scale(0.06 -0.06)">
						<g>
							<path id="ArialMT-30" d="M4.2,35.3c0,8.5,0.9,15.3,2.6,20.4c1.7,5.2,4.3,9.1,7.8,11.9c3.4,2.8,7.8,4.2,13,4.2
								c3.8,0,7.2-0.8,10.1-2.3c2.9-1.5,5.3-3.8,7.2-6.7c1.9-2.9,3.4-6.5,4.5-10.6c1.1-4.2,1.6-9.8,1.6-16.9
								c0-8.4-0.9-15.2-2.6-20.3c-1.7-5.2-4.3-9.1-7.7-12c-3.4-2.8-7.8-4.2-13-4.2c-6.9,0-12.3,2.5-16.2,7.4
								C6.5,12.2,4.2,21.9,4.2,35.3z M13.2,35.3c0-11.8,1.4-19.6,4.1-23.5C20.1,7.9,23.5,6,27.5,6c4,0,7.4,2,10.2,5.9
								s4.1,11.7,4.1,23.4c0,11.8-1.4,19.6-4.1,23.5c-2.8,3.9-6.2,5.8-10.3,5.8c-4,0-7.3-1.7-9.7-5.1C14.7,55.1,13.2,47.1,13.2,35.3
								z"/>
						</g>
						<g>
							<path id="ArialMT-2e" d="M64.7,0v10h10V0H64.7z"/>
						</g>
						<g>
							<path id="ArialMT-30_00000110443697617234700410000010169477299392287166_" d="M87.6,35.3c0,8.5,0.9,15.3,2.6,20.4
								c1.7,5.2,4.3,9.1,7.8,11.9c3.4,2.8,7.8,4.2,13,4.2c3.8,0,7.2-0.8,10.1-2.3c2.9-1.5,5.3-3.8,7.2-6.7c1.9-2.9,3.4-6.5,4.5-10.6
								c1.1-4.2,1.6-9.8,1.6-16.9c0-8.4-0.9-15.2-2.6-20.3c-1.7-5.2-4.3-9.1-7.7-12c-3.4-2.8-7.8-4.2-13-4.2
								c-6.9,0-12.3,2.5-16.2,7.4C89.9,12.2,87.6,21.9,87.6,35.3z M96.6,35.3c0-11.8,1.4-19.6,4.1-23.5c2.8-3.9,6.1-5.8,10.2-5.8
								c4,0,7.4,2,10.2,5.9s4.1,11.7,4.1,23.4c0,11.8-1.4,19.6-4.1,23.5c-2.8,3.9-6.2,5.8-10.3,5.8c-4,0-7.3-1.7-9.7-5.1
								C98.1,55.1,96.6,47.1,96.6,35.3z"/>
						</g>
						<g>
							<path id="ArialMT-35" d="M143.2,18.7l9.2,0.8c0.7-4.5,2.3-7.9,4.8-10.1c2.5-2.3,5.5-3.4,9-3.4c4.2,0,7.8,1.6,10.7,4.8
								c2.9,3.2,4.4,7.4,4.4,12.7c0,5-1.4,9-4.2,11.9c-2.8,2.9-6.5,4.4-11.1,4.4c-2.8,0-5.4-0.6-7.7-1.9c-2.3-1.3-4.1-2.9-5.4-5
								l-8.2,1.1l6.9,36.8h35.6v-8.4h-28.6L154.8,43c4.3,3,8.8,4.5,13.5,4.5c6.2,0,11.5-2.2,15.8-6.5c4.3-4.3,6.5-9.9,6.5-16.7
								c0-6.5-1.9-12.1-5.7-16.8c-4.6-5.8-10.9-8.7-18.8-8.7c-6.5,0-11.8,1.8-16,5.5C146.1,7.9,143.8,12.7,143.2,18.7z"/>
						</g>
					</g>
				</g>
			</g>
			<g id="ytick_3">
				<g id="line2d_6">
					<g>
						<g>
							<path id="m5baceb5281_00000143603786244940476350000017944943716178182822_" class="st1" d="M29,99.8h-3.5"/>
						</g>
					</g>
				</g>
				<g id="text_6">
					<g transform="translate(10.363437 101.944126)scale(0.06 -0.06)">
						<g>
							<path id="ArialMT-30_00000115485224255362365970000003215104960479299239_" d="M4.2,35.3c0,8.5,0.9,15.3,2.6,20.4
								c1.7,5.2,4.3,9.1,7.8,11.9c3.4,2.8,7.8,4.2,13,4.2c3.8,0,7.2-0.8,10.1-2.3c2.9-1.5,5.3-3.8,7.2-6.7c1.9-2.9,3.4-6.5,4.5-10.6
								c1.1-4.2,1.6-9.8,1.6-16.9c0-8.4-0.9-15.2-2.6-20.3c-1.7-5.2-4.3-9.1-7.7-12c-3.4-2.8-7.8-4.2-13-4.2
								c-6.9,0-12.3,2.5-16.2,7.4C6.5,12.2,4.2,21.9,4.2,35.3z M13.2,35.3c0-11.7,1.4-19.6,4.1-23.5C20.1,7.9,23.5,6,27.5,6
								c4,0,7.4,2,10.2,5.9s4.1,11.7,4.1,23.4c0,11.8-1.4,19.6-4.1,23.5c-2.8,3.9-6.2,5.8-10.3,5.8c-4,0-7.3-1.7-9.7-5.1
								C14.7,55.1,13.2,47.1,13.2,35.3z"/>
						</g>
						<g>
							<path id="ArialMT-2e_00000085222370404955433260000004717036638426938780_" d="M64.7,0v10h10V0H64.7z"/>
						</g>
						<g>
							<path id="ArialMT-31_00000075130890598683147760000009513867031360009898_" d="M120.6,0h-8.8v56c-2.1-2-4.9-4-8.3-6
								s-6.5-3.5-9.2-4.5v8.5c4.9,2.3,9.2,5.1,12.9,8.4c3.7,3.3,6.3,6.5,7.8,9.6h5.7V0z"/>
						</g>
						<g>
							<path id="ArialMT-35_00000044891862751143767520000002808816144044003215_" d="M143.2,18.7l9.2,0.8c0.7-4.5,2.3-7.9,4.8-10.1
								c2.5-2.3,5.5-3.4,9-3.4c4.2,0,7.8,1.6,10.7,4.8c2.9,3.2,4.4,7.4,4.4,12.7c0,5-1.4,9-4.2,11.9c-2.8,2.9-6.5,4.4-11.1,4.4
								c-2.8,0-5.4-0.6-7.7-1.9c-2.3-1.3-4.1-2.9-5.4-5l-8.2,1.1l6.9,36.8h35.6v-8.4h-28.6L154.8,43c4.3,3,8.8,4.5,13.5,4.5
								c6.2,0,11.5-2.2,15.8-6.5c4.3-4.3,6.5-9.9,6.5-16.7c0-6.5-1.9-12.1-5.7-16.8c-4.6-5.8-10.9-8.7-18.8-8.7
								c-6.5,0-11.8,1.8-16,5.5C146.1,7.9,143.8,12.7,143.2,18.7z"/>
						</g>
					</g>
				</g>
			</g>
			<g id="ytick_5">
				<g id="line2d_8">
					<g>
						<g>
							<path id="m5baceb5281_00000119813865094832737410000009562527915329565611_" class="st1" d="M29,65.9h-3.5"/>
						</g>
					</g>
				</g>
				<g id="text_8">
					<g transform="translate(10.363437 68.025137)scale(0.06 -0.06)">
						<g>
							<path id="ArialMT-30_00000099636416286666255240000011532478425443105950_" d="M4.2,35.3c0,8.5,0.9,15.3,2.6,20.4
								c1.7,5.2,4.3,9.1,7.8,11.9c3.4,2.8,7.8,4.2,13,4.2c3.8,0,7.2-0.8,10.1-2.3c2.9-1.5,5.3-3.8,7.2-6.7c1.9-2.9,3.4-6.5,4.5-10.6
								c1.1-4.2,1.6-9.8,1.6-16.9c0-8.4-0.9-15.2-2.6-20.3c-1.7-5.2-4.3-9.1-7.7-12c-3.4-2.8-7.8-4.2-13-4.2
								c-6.9,0-12.3,2.5-16.2,7.4C6.5,12.2,4.2,21.9,4.2,35.3z M13.2,35.3c0-11.7,1.4-19.6,4.1-23.5C20.1,7.9,23.5,6,27.5,6
								c4,0,7.4,2,10.2,5.9s4.1,11.7,4.1,23.4c0,11.8-1.4,19.6-4.1,23.5c-2.8,3.9-6.2,5.8-10.3,5.8c-4,0-7.3-1.7-9.7-5.1
								C14.7,55.1,13.2,47.1,13.2,35.3z"/>
						</g>
						<g>
							<path id="ArialMT-2e_00000098203414513880866780000016327914934543928474_" d="M64.7,0v10h10V0H64.7z"/>
						</g>
						<g>
							<path id="ArialMT-32_00000104672011220518853320000008354945798331498165_" d="M133.7,8.5V0H86.4c-0.1,2.1,0.3,4.2,1,6.1
								c1.2,3.2,3.1,6.4,5.8,9.5c2.7,3.1,6.5,6.7,11.5,10.8c7.8,6.4,13,11.4,15.8,15.2c2.7,3.7,4.1,7.3,4.1,10.6
								c0,3.5-1.2,6.4-3.8,8.8c-2.5,2.4-5.7,3.6-9.7,3.6c-4.2,0-7.6-1.3-10.2-3.8c-2.5-2.5-3.8-6-3.9-10.5l-9,0.9
								c0.6,6.7,2.9,11.9,7,15.4c4,3.5,9.5,5.3,16.3,5.3c6.9,0,12.3-1.9,16.3-5.7c4-3.8,6-8.5,6-14.2c0-2.9-0.6-5.7-1.8-8.5
								c-1.2-2.8-3.1-5.7-5.8-8.7s-7.2-7.3-13.5-12.6c-5.3-4.4-8.7-7.4-10.2-9c-1.5-1.6-2.7-3.2-3.7-4.8H133.7z"/>
						</g>
						<g>
							<path id="ArialMT-35_00000001654329152089074340000001587047544383424691_" d="M143.2,18.8l9.2,0.8c0.7-4.5,2.3-7.9,4.8-10.1
								c2.5-2.3,5.5-3.4,9-3.4c4.2,0,7.8,1.6,10.7,4.8c2.9,3.2,4.4,7.4,4.4,12.7c0,5-1.4,9-4.2,11.9c-2.8,2.9-6.5,4.4-11.1,4.4
								c-2.8,0-5.4-0.6-7.7-1.9c-2.3-1.3-4.1-2.9-5.4-5l-8.2,1.1l6.9,36.8h35.6v-8.4h-28.6L154.8,43c4.3,3,8.8,4.5,13.5,4.5
								c6.2,0,11.5-2.2,15.8-6.5c4.3-4.3,6.5-9.9,6.5-16.7c0-6.5-1.9-12.1-5.7-16.8c-4.6-5.8-10.9-8.7-18.8-8.7
								c-6.5,0-11.8,1.8-16,5.5C146.1,7.9,143.8,12.7,143.2,18.8z"/>
						</g>
					</g>
				</g>
			</g>
			<g id="ytick_7">
				<g id="line2d_10">
					<g>
						<g>
							<path id="m5baceb5281_00000047042249528503119780000014652045892703307399_" class="st1" d="M29,32h-3.5"/>
						</g>
					</g>
				</g>
				<g id="text_10">
					<g transform="translate(10.363437 34.106148)scale(0.06 -0.06)">
						<g>
							<path id="ArialMT-30_00000105420939524960168960000017128697131254879665_" d="M4.2,35.3c0,8.5,0.9,15.3,2.6,20.4
								c1.7,5.2,4.3,9.1,7.8,11.9c3.4,2.8,7.8,4.2,13,4.2c3.8,0,7.2-0.8,10.1-2.3c2.9-1.5,5.3-3.8,7.2-6.7c1.9-2.9,3.4-6.5,4.5-10.6
								c1.1-4.2,1.6-9.8,1.6-16.9c0-8.4-0.9-15.2-2.6-20.3c-1.7-5.2-4.3-9.1-7.7-12c-3.4-2.8-7.8-4.2-13-4.2
								c-6.9,0-12.3,2.5-16.2,7.4C6.5,12.2,4.2,21.9,4.2,35.3z M13.2,35.3c0-11.8,1.4-19.6,4.1-23.5C20.1,7.9,23.5,6,27.5,6
								c4,0,7.4,2,10.2,5.9s4.1,11.7,4.1,23.4c0,11.8-1.4,19.6-4.1,23.5c-2.8,3.9-6.2,5.8-10.3,5.8c-4,0-7.3-1.7-9.7-5.1
								C14.7,55.1,13.2,47.1,13.2,35.3z"/>
						</g>
						<g>
							<path id="ArialMT-2e_00000113323249174572819210000014502530962318163371_" d="M64.7,0v10h10V0H64.7z"/>
						</g>
						<g>
							<path id="ArialMT-33_00000093172066209848411030000006512162355692179332_" d="M87.6,18.9l8.8,1.2c1-5,2.7-8.6,5.2-10.8
								c2.4-2.2,5.4-3.3,8.9-3.3c4.1,0,7.6,1.4,10.5,4.3c2.9,2.9,4.3,6.4,4.3,10.7c0,4-1.3,7.4-4,10c-2.6,2.6-6,3.9-10.1,3.9
								c-1.7,0-3.7-0.3-6.2-1l1,7.7c0.6-0.1,1.1-0.1,1.4-0.1c3.8,0,7.1,1,10.1,2.9c3,2,4.5,5,4.5,9c0,3.2-1.1,5.9-3.3,8
								c-2.2,2.1-5,3.2-8.4,3.2c-3.4,0-6.3-1.1-8.5-3.2c-2.3-2.1-3.7-5.4-4.4-9.7l-8.8,1.6c1.1,5.9,3.5,10.4,7.3,13.7
								c3.8,3.2,8.6,4.9,14.2,4.9c3.9,0,7.5-0.8,10.8-2.5c3.3-1.7,5.8-4,7.5-6.9c1.8-2.9,2.6-6,2.6-9.2c0-3.1-0.8-5.9-2.5-8.4
								c-1.7-2.5-4.1-4.6-7.4-6.1c4.2-1,7.5-3,9.9-6.1c2.3-3.1,3.5-6.9,3.5-11.5c0-6.2-2.3-11.5-6.8-15.9
								c-4.6-4.3-10.3-6.5-17.3-6.5c-6.3,0-11.5,1.9-15.7,5.6C90.5,8.1,88.2,12.9,87.6,18.9z"/>
						</g>
						<g>
							<path id="ArialMT-35_00000095324099683995026280000005857328132627776424_" d="M143.2,18.8l9.2,0.8c0.7-4.5,2.3-7.9,4.8-10.1
								c2.5-2.3,5.5-3.4,9-3.4c4.2,0,7.8,1.6,10.7,4.8c2.9,3.2,4.4,7.4,4.4,12.7c0,5-1.4,9-4.2,11.9c-2.8,2.9-6.5,4.4-11.1,4.4
								c-2.8,0-5.4-0.6-7.7-1.9c-2.3-1.3-4.1-2.9-5.4-5l-8.2,1.1l6.9,36.8h35.6v-8.4h-28.6L154.8,43c4.3,3,8.8,4.5,13.5,4.5
								c6.2,0,11.5-2.2,15.8-6.5c4.3-4.3,6.5-9.9,6.5-16.7c0-6.5-1.9-12.1-5.7-16.8c-4.6-5.8-10.9-8.7-18.8-8.7
								c-6.5,0-11.8,1.8-16,5.5C146.1,7.9,143.8,12.7,143.2,18.8z"/>
						</g>
					</g>
				</g>
			</g>
		</g>
		<g id="line2d_11">
			<g>
				<defs>
					<rect id="SVGID_1_" x="29" y="19.1" width="180" height="122.7"/>
				</defs>
				<clipPath id="SVGID_00000030464984448878720070000009939358656023449246_">
					<use xlink:href="#SVGID_1_"  style="overflow:visible;"/>
				</clipPath>
				
					<path style="clip-path:url(#SVGID_00000030464984448878720070000009939358656023449246_);fill:none;stroke:#000000;stroke-linecap:square;stroke-linejoin:round;" d="
					M50,120.5h18V99.6H50V120.5"/>
			</g>
		</g>
		<g id="line2d_12">
			<g>
				<defs>
					<rect id="SVGID_00000035503836962996511730000017390367457813347749_" x="29" y="19.1" width="180" height="122.7"/>
				</defs>
				<clipPath id="SVGID_00000068665228452229152660000017162690617567755658_">
					<use xlink:href="#SVGID_00000035503836962996511730000017390367457813347749_"  style="overflow:visible;"/>
				</clipPath>
				
					<path style="clip-path:url(#SVGID_00000068665228452229152660000017162690617567755658_);fill:none;stroke:#000000;stroke-linecap:square;stroke-linejoin:round;" d="
					M59,120.5v15.8"/>
			</g>
		</g>
		<g id="line2d_13">
			<g>
				<defs>
					<rect id="SVGID_00000086693296209385096260000001208808617070744219_" x="29" y="19.1" width="180" height="122.7"/>
				</defs>
				<clipPath id="SVGID_00000140731153385002558330000016315289060092493705_">
					<use xlink:href="#SVGID_00000086693296209385096260000001208808617070744219_"  style="overflow:visible;"/>
				</clipPath>
				
					<path style="clip-path:url(#SVGID_00000140731153385002558330000016315289060092493705_);fill:none;stroke:#000000;stroke-linecap:square;stroke-linejoin:round;" d="
					M59,99.6V80.3"/>
			</g>
		</g>
		<g id="line2d_14">
			<g>
				<defs>
					<rect id="SVGID_00000097498916790177752610000006460319427420354445_" x="29" y="19.1" width="180" height="122.7"/>
				</defs>
				<clipPath id="SVGID_00000016795527100794320850000009405677385881238687_">
					<use xlink:href="#SVGID_00000097498916790177752610000006460319427420354445_"  style="overflow:visible;"/>
				</clipPath>
				
					<path style="clip-path:url(#SVGID_00000016795527100794320850000009405677385881238687_);fill:none;stroke:#000000;stroke-linecap:square;stroke-linejoin:round;" d="
					M54.5,136.3h9"/>
			</g>
		</g>
		<g id="line2d_15">
			<g>
				<defs>
					<rect id="SVGID_00000053546383253307277500000013906457269209827482_" x="29" y="19.1" width="180" height="122.7"/>
				</defs>
				<clipPath id="SVGID_00000131369240014921471790000005945151857086735238_">
					<use xlink:href="#SVGID_00000053546383253307277500000013906457269209827482_"  style="overflow:visible;"/>
				</clipPath>
				
					<path style="clip-path:url(#SVGID_00000131369240014921471790000005945151857086735238_);fill:none;stroke:#000000;stroke-linecap:square;stroke-linejoin:round;" d="
					M54.5,80.3h9"/>
			</g>
		</g>
		<g id="line2d_16">
		</g>
		<g id="line2d_17">
			<g>
				<defs>
					<rect id="SVGID_00000108279079831888131660000002885332126342300302_" x="29" y="19.1" width="180" height="122.7"/>
				</defs>
				<clipPath id="SVGID_00000176006992624335390970000000841071505509159071_">
					<use xlink:href="#SVGID_00000108279079831888131660000002885332126342300302_"  style="overflow:visible;"/>
				</clipPath>
				
					<path style="clip-path:url(#SVGID_00000176006992624335390970000000841071505509159071_);fill:none;stroke:#000000;stroke-linecap:square;stroke-linejoin:round;" d="
					M110.1,55.3h18v-27h-18V55.3"/>
			</g>
		</g>
		<g id="line2d_18">
			<g>
				<defs>
					<rect id="SVGID_00000128446371466326694420000000413021464448962187_" x="29" y="19.1" width="180" height="122.7"/>
				</defs>
				<clipPath id="SVGID_00000033335006733575872560000013432695191613544836_">
					<use xlink:href="#SVGID_00000128446371466326694420000000413021464448962187_"  style="overflow:visible;"/>
				</clipPath>
				
					<path style="clip-path:url(#SVGID_00000033335006733575872560000013432695191613544836_);fill:none;stroke:#000000;stroke-linecap:square;stroke-linejoin:round;" d="
					M119.1,55.3v16.4"/>
			</g>
		</g>
		<g id="line2d_19">
			<g>
				<defs>
					<rect id="SVGID_00000075869599778616728130000002268152684998394291_" x="29" y="19.1" width="180" height="122.7"/>
				</defs>
				<clipPath id="SVGID_00000062171618890041172850000007217403850924960159_">
					<use xlink:href="#SVGID_00000075869599778616728130000002268152684998394291_"  style="overflow:visible;"/>
				</clipPath>
				
					<path style="clip-path:url(#SVGID_00000062171618890041172850000007217403850924960159_);fill:none;stroke:#000000;stroke-linecap:square;stroke-linejoin:round;" d="
					M119.1,28.3v-1.8"/>
			</g>
		</g>
		<g id="line2d_20">
			<g>
				<defs>
					<rect id="SVGID_00000164510253970905614030000008927485723632654230_" x="29" y="19.1" width="180" height="122.7"/>
				</defs>
				<clipPath id="SVGID_00000031204746430142176560000016391536058853815695_">
					<use xlink:href="#SVGID_00000164510253970905614030000008927485723632654230_"  style="overflow:visible;"/>
				</clipPath>
				
					<path style="clip-path:url(#SVGID_00000031204746430142176560000016391536058853815695_);fill:none;stroke:#000000;stroke-linecap:square;stroke-linejoin:round;" d="
					M114.6,71.7h9"/>
			</g>
		</g>
		<g id="line2d_21">
			<g>
				<defs>
					<rect id="SVGID_00000161609029508618911150000013963189479186468520_" x="29" y="19.1" width="180" height="122.7"/>
				</defs>
				<clipPath id="SVGID_00000180368843095302560890000011091173437689921162_">
					<use xlink:href="#SVGID_00000161609029508618911150000013963189479186468520_"  style="overflow:visible;"/>
				</clipPath>
				
					<path style="clip-path:url(#SVGID_00000180368843095302560890000011091173437689921162_);fill:none;stroke:#000000;stroke-linecap:square;stroke-linejoin:round;" d="
					M114.6,26.5h9"/>
			</g>
		</g>
		<g id="line2d_22">
		</g>
		<g id="line2d_23">
			<g>
				<defs>
					<rect id="SVGID_00000062893336276257152430000000398364352192792219_" x="29" y="19.1" width="180" height="122.7"/>
				</defs>
				<clipPath id="SVGID_00000026133399924457527230000011010139000879613365_">
					<use xlink:href="#SVGID_00000062893336276257152430000000398364352192792219_"  style="overflow:visible;"/>
				</clipPath>
				
					<path style="clip-path:url(#SVGID_00000026133399924457527230000011010139000879613365_);fill:none;stroke:#000000;stroke-linecap:square;stroke-linejoin:round;" d="
					M170.1,42.9h18V32h-18V42.9"/>
			</g>
		</g>
		<g id="line2d_24">
			<g>
				<defs>
					<rect id="SVGID_00000096027760492947881700000014431885293531045034_" x="29" y="19.1" width="180" height="122.7"/>
				</defs>
				<clipPath id="SVGID_00000054950039137643983940000011305740738685645226_">
					<use xlink:href="#SVGID_00000096027760492947881700000014431885293531045034_"  style="overflow:visible;"/>
				</clipPath>
				
					<path style="clip-path:url(#SVGID_00000054950039137643983940000011305740738685645226_);fill:none;stroke:#000000;stroke-linecap:square;stroke-linejoin:round;" d="
					M179.1,42.9V46"/>
			</g>
		</g>
		<g id="line2d_25">
			<g>
				<defs>
					<rect id="SVGID_00000171703778097295759750000011061798422853023887_" x="29" y="19.1" width="180" height="122.7"/>
				</defs>
				<clipPath id="SVGID_00000115479553595085604350000002557255743705513898_">
					<use xlink:href="#SVGID_00000171703778097295759750000011061798422853023887_"  style="overflow:visible;"/>
				</clipPath>
				
					<path style="clip-path:url(#SVGID_00000115479553595085604350000002557255743705513898_);fill:none;stroke:#000000;stroke-linecap:square;stroke-linejoin:round;" d="
					M179.1,32v-7.3"/>
			</g>
		</g>
		<g id="line2d_26">
			<g>
				<defs>
					<rect id="SVGID_00000036963664025684585970000007752282672928696754_" x="29" y="19.1" width="180" height="122.7"/>
				</defs>
				<clipPath id="SVGID_00000053546431220142525320000010946913414006585755_">
					<use xlink:href="#SVGID_00000036963664025684585970000007752282672928696754_"  style="overflow:visible;"/>
				</clipPath>
				
					<path style="clip-path:url(#SVGID_00000053546431220142525320000010946913414006585755_);fill:none;stroke:#000000;stroke-linecap:square;stroke-linejoin:round;" d="
					M174.6,46h9"/>
			</g>
		</g>
		<g id="line2d_27">
			<g>
				<defs>
					<rect id="SVGID_00000101066494770305621020000015981856764995011467_" x="29" y="19.1" width="180" height="122.7"/>
				</defs>
				<clipPath id="SVGID_00000121975617468042773830000007112344826748462760_">
					<use xlink:href="#SVGID_00000101066494770305621020000015981856764995011467_"  style="overflow:visible;"/>
				</clipPath>
				
					<path style="clip-path:url(#SVGID_00000121975617468042773830000007112344826748462760_);fill:none;stroke:#000000;stroke-linecap:square;stroke-linejoin:round;" d="
					M174.6,24.7h9"/>
			</g>
		</g>
		<g id="line2d_28">
		</g>
		<g id="line2d_29">
			<g>
				<defs>
					<rect id="SVGID_00000097495761380377523070000009420179934366581166_" x="29" y="19.1" width="180" height="122.7"/>
				</defs>
				<clipPath id="SVGID_00000073717292726727650580000002628105640450879645_">
					<use xlink:href="#SVGID_00000097495761380377523070000009420179934366581166_"  style="overflow:visible;"/>
				</clipPath>
				
					<path style="clip-path:url(#SVGID_00000073717292726727650580000002628105640450879645_);fill:none;stroke:#FF7F0E;stroke-linecap:square;stroke-linejoin:round;" d="
					M50,104.9h18"/>
			</g>
		</g>
		<g id="line2d_30">
			<g>
				<defs>
					<rect id="SVGID_00000016048495256117010960000011612539808620950416_" x="29" y="19.1" width="180" height="122.7"/>
				</defs>
				<clipPath id="SVGID_00000018222695931271043420000009126773415567200697_">
					<use xlink:href="#SVGID_00000016048495256117010960000011612539808620950416_"  style="overflow:visible;"/>
				</clipPath>
				
					<path style="clip-path:url(#SVGID_00000018222695931271043420000009126773415567200697_);fill:none;stroke:#FF7F0E;stroke-linecap:square;stroke-linejoin:round;" d="
					M110.1,35.1h18"/>
			</g>
		</g>
		<g id="line2d_31">
			<g>
				<defs>
					<rect id="SVGID_00000096737462773136424810000001680023679578004895_" x="29" y="19.1" width="180" height="122.7"/>
				</defs>
				<clipPath id="SVGID_00000078030937118992053660000014461496827451159434_">
					<use xlink:href="#SVGID_00000096737462773136424810000001680023679578004895_"  style="overflow:visible;"/>
				</clipPath>
				
					<path style="clip-path:url(#SVGID_00000078030937118992053660000014461496827451159434_);fill:none;stroke:#FF7F0E;stroke-linecap:square;stroke-linejoin:round;" d="
					M170.1,39h18"/>
			</g>
		</g>
		<g id="patch_3">
			<path class="st20" d="M29,141.8V19.1"/>
		</g>
		<g id="patch_5">
			<path class="st20" d="M29,141.8h180"/>
		</g>
	</g>
</g>
</svg>
