<?xml version="1.0" encoding="utf-8"?>
<!-- Generator: Adobe Illustrator 26.4.1, SVG Export Plug-In . SVG Version: 6.00 Build 0)  -->
<svg version="1.1" id="Layer_1" xmlns="http://www.w3.org/2000/svg" xmlns:xlink="http://www.w3.org/1999/xlink" x="0px" y="0px"
	 viewBox="0 0 460.8 234" style="enable-background:new 0 0 460.8 234;" xml:space="preserve">
<style type="text/css">
	.st0{fill:#FFFFFF;}
	.st1{clip-path:url(#SVGID_00000126286609499805354310000016705979543444682667_);}
	.st2{fill-opacity:0.2;stroke:#000000;stroke-linejoin:round;stroke-opacity:0.2;}
	.st3{clip-path:url(#SVGID_00000050639384483405141320000003089063070183641738_);}
	.st4{fill:#0000FF;fill-opacity:0.2;stroke:#0000FF;stroke-linejoin:round;stroke-opacity:0.2;}
	.st5{clip-path:url(#SVGID_00000149373473281112195430000002543897150941303210_);}
	.st6{fill:#FF0000;fill-opacity:0.2;stroke:#FF0000;stroke-linejoin:round;stroke-opacity:0.2;}
	.st7{stroke:#000000;stroke-width:0.8;stroke-linejoin:round;}
	
		.st8{clip-path:url(#SVGID_00000141415177494223579060000008961757292122308773_);fill:none;stroke:#000000;stroke-width:1.5;stroke-linecap:square;stroke-linejoin:round;}
	
		.st9{clip-path:url(#SVGID_00000026876656194804206400000005897298184732318126_);fill:none;stroke:#0000FF;stroke-width:1.5;stroke-linecap:square;stroke-linejoin:round;}
	
		.st10{clip-path:url(#SVGID_00000000925680921584224770000000657858288062542493_);fill:none;stroke:#FF0000;stroke-width:1.5;stroke-linecap:square;stroke-linejoin:round;}
	.st11{fill:none;stroke:#000000;stroke-width:0.8;stroke-linecap:square;}
	.st12{opacity:0.8;fill:#FFFFFF;stroke:#CCCCCC;enable-background:new    ;}
	.st13{fill:none;stroke:#000000;stroke-width:1.5;stroke-linecap:square;stroke-linejoin:round;}
	.st14{fill:none;stroke:#0000FF;stroke-width:1.5;stroke-linecap:square;stroke-linejoin:round;}
	.st15{fill:none;stroke:#FF0000;stroke-width:1.5;stroke-linecap:square;stroke-linejoin:round;}
</style>
<g id="figure_1">
	<g id="axes_1">
		<g id="patch_2">
			<path class="st0" d="M57.6,208.3h357.1V28.1H57.6V208.3z"/>
		</g>
		<g id="PolyCollection_1">
			<g>
				<defs>
					<rect id="SVGID_1_" x="57.6" y="28.1" width="357.1" height="180.2"/>
				</defs>
				<clipPath id="SVGID_00000016772115703518584270000016272918911534798727_">
					<use xlink:href="#SVGID_1_"  style="overflow:visible;"/>
				</clipPath>
				<g style="clip-path:url(#SVGID_00000016772115703518584270000016272918911534798727_);">
					<g>
						<path id="m1b894b512a" class="st2" d="M73.8,199.4v0.7l36.1-2.3l36.1-6.1l36.1,2.3l36.1-3.9l36.1-5.9l36.1,12.1l36.1,3.5
							l36.1-8.5l36.1-3.5v-0.7l0,0l-36.1,0.1l-36.1,12.3l-36.1-3.9l-36.1-13l-36.1,2.9l-36.1,8.2l-36.1-4.8l-36.1,7.2L73.8,199.4z"
							/>
					</g>
				</g>
			</g>
		</g>
		<g id="PolyCollection_2">
			<g>
				<defs>
					<rect id="SVGID_00000078731942984199251650000007891631768979934878_" x="57.6" y="28.1" width="357.1" height="180.2"/>
				</defs>
				<clipPath id="SVGID_00000181063208951008874530000017704497483849187245_">
					<use xlink:href="#SVGID_00000078731942984199251650000007891631768979934878_"  style="overflow:visible;"/>
				</clipPath>
				<g style="clip-path:url(#SVGID_00000181063208951008874530000017704497483849187245_);">
					<g>
						<path id="mb1017c7d7f" class="st4" d="M73.8,128.5v14.7l36.1,12.5l36.1-21.8l36.1-14.9l36.1-20.8l36.1,7.9l36.1,24.3l36.1-8.9
							l36.1,16.5l36.1-7v-17.1l0,0l-36.1,0.7L326.3,82l-36.1,17.7l-36.1-18.5l-36.1-10l-36.1,24.1L146,114.5l-36.1,27.9L73.8,128.5z
							"/>
					</g>
				</g>
			</g>
		</g>
		<g id="PolyCollection_3">
			<g>
				<defs>
					<rect id="SVGID_00000027593198134249747250000017129192794827304353_" x="57.6" y="28.1" width="357.1" height="180.2"/>
				</defs>
				<clipPath id="SVGID_00000035509101185635383100000017770687965292364959_">
					<use xlink:href="#SVGID_00000027593198134249747250000017129192794827304353_"  style="overflow:visible;"/>
				</clipPath>
				<g style="clip-path:url(#SVGID_00000035509101185635383100000017770687965292364959_);">
					<g>
						<path id="m6cdf468360" class="st6" d="M73.8,74.4v28.1l36.1,33.6l36.1-4.9l36.1-14.1L218.1,74l36.1-2.2l36.1,46l36.1-4.2
							l36.1-16.9l36.1-1V60.9l0,0l-36.1-1.7l-36.1,23.3l-36.1,0.7l-36.1-46.9l-36.1,8.4l-36.1,52L146,111.5l-36.1,4.9L73.8,74.4z"/>
					</g>
				</g>
			</g>
		</g>
		<g id="matplotlib.axis_1">
			<g id="xtick_1">
				<g id="line2d_1">
					<g>
						<g>
							<path id="m626cf4632c" class="st7" d="M109.9,208.3v3.5"/>
						</g>
					</g>
				</g>
				<g id="text_1">
					<g transform="translate(108.237173 219.554688)scale(0.06 -0.06)">
						<g>
							<path id="ArialMT-32" d="M50.3,8.5V0H3C3,2.1,3.3,4.2,4,6.1c1.2,3.2,3.1,6.4,5.8,9.5c2.7,3.1,6.5,6.7,11.5,10.8
								c7.8,6.4,13,11.4,15.8,15.2c2.7,3.7,4.1,7.3,4.1,10.6c0,3.5-1.2,6.4-3.8,8.8c-2.5,2.4-5.7,3.6-9.7,3.6
								c-4.2,0-7.6-1.3-10.2-3.8c-2.5-2.5-3.8-6-3.9-10.5l-9,0.9c0.6,6.7,2.9,11.9,7,15.4c4,3.5,9.5,5.3,16.3,5.3
								c6.9,0,12.3-1.9,16.3-5.7c4-3.8,6-8.5,6-14.2c0-2.9-0.6-5.7-1.8-8.5c-1.2-2.8-3.1-5.7-5.8-8.7s-7.2-7.3-13.5-12.6
								c-5.3-4.4-8.7-7.4-10.2-9c-1.5-1.6-2.7-3.2-3.7-4.8H50.3z"/>
						</g>
					</g>
				</g>
			</g>
			<g id="xtick_2">
				<g id="line2d_2">
					<g>
						<g>
							<path id="m626cf4632c_00000031920263640845922790000005997963115214927546_" class="st7" d="M182.1,208.3v3.5"/>
						</g>
					</g>
				</g>
				<g id="text_2">
					<g transform="translate(180.382628 219.554688)scale(0.06 -0.06)">
						<g>
							<path id="ArialMT-34" d="M32.3,0v17.1H1.3v8.1l32.7,46.4h7.2V25.2h9.7v-8.1h-9.7V0H32.3z M32.3,25.2v32.3L9.9,25.2H32.3z"/>
						</g>
					</g>
				</g>
			</g>
			<g id="xtick_3">
				<g id="line2d_3">
					<g>
						<g>
							<path id="m626cf4632c_00000012470138868934074750000011579210387844444578_" class="st7" d="M254.2,208.3v3.5"/>
						</g>
					</g>
				</g>
				<g id="text_3">
					<g transform="translate(252.528082 219.554688)scale(0.06 -0.06)">
						<g>
							<path id="ArialMT-36" d="M49.8,54L41,53.4c-0.8,3.4-1.9,6-3.3,7.5c-2.4,2.5-5.3,3.8-8.8,3.8c-2.8,0-5.3-0.8-7.4-2.3
								c-2.8-2-4.9-5-6.5-8.8c-1.6-3.9-2.4-9.4-2.5-16.5c2.1,3.2,4.7,5.6,7.8,7.2s6.3,2.3,9.6,2.3c5.9,0,10.8-2.2,15-6.5
								C49,35.7,51,30.1,51,23.2c0-4.5-1-8.7-2.9-12.5s-4.6-6.8-8-8.9c-3.4-2.1-7.2-3.1-11.5-3.1c-7.3,0-13.3,2.7-17.9,8.1
								c-4.6,5.4-6.9,14.3-6.9,26.6c0,13.8,2.6,23.9,7.7,30.2c4.5,5.5,10.5,8.2,18,8.2c5.6,0,10.3-1.6,13.8-4.7
								C46.9,64,49,59.6,49.8,54z M13.9,23.2c0-3,0.6-5.9,1.9-8.7c1.3-2.8,3.1-4.9,5.4-6.3C23.5,6.7,25.9,6,28.5,6
								c3.7,0,6.9,1.5,9.6,4.5c2.7,3,4,7.1,4,12.2c0,4.9-1.3,8.8-4,11.7c-2.6,2.9-6,4.3-10,4.3c-4,0-7.3-1.4-10.1-4.3
								C15.3,31.5,13.9,27.8,13.9,23.2z"/>
						</g>
					</g>
				</g>
			</g>
			<g id="xtick_4">
				<g id="line2d_4">
					<g>
						<g>
							<path id="m626cf4632c_00000038376804293097411380000014197104496941120656_" class="st7" d="M326.3,208.3v3.5"/>
						</g>
					</g>
				</g>
				<g id="text_4">
					<g transform="translate(324.673537 219.554688)scale(0.06 -0.06)">
						<g>
							<path id="ArialMT-38" d="M17.7,38.8c-3.6,1.3-6.3,3.2-8.1,5.7C7.8,47,6.9,50,6.9,53.4c0,5.2,1.9,9.6,5.6,13.1
								c3.7,3.6,8.7,5.3,14.9,5.3c6.3,0,11.3-1.8,15.1-5.5c3.8-3.6,5.7-8,5.7-13.2c0-3.3-0.9-6.2-2.6-8.7c-1.7-2.4-4.4-4.3-7.9-5.7
								c4.4-1.4,7.7-3.7,10-6.9c2.3-3.2,3.4-7,3.4-11.4c0-6.1-2.2-11.3-6.5-15.4c-4.3-4.2-10-6.2-17.1-6.2S14.9,0.9,10.5,5
								C6.2,9.2,4,14.5,4,20.7c0,4.7,1.2,8.6,3.5,11.7C10,35.5,13.3,37.7,17.7,38.8z M15.9,53.7c0-3.4,1.1-6.2,3.3-8.3
								c2.2-2.1,5-3.2,8.5-3.2c3.4,0,6.2,1.1,8.3,3.2c2.2,2.1,3.2,4.8,3.2,7.8c0,3.2-1.1,5.9-3.4,8.1c-2.2,2.2-5,3.3-8.3,3.3
								c-3.4,0-6.1-1.1-8.4-3.2C17,59.3,15.9,56.7,15.9,53.7z M13.1,20.7c0-2.5,0.6-4.9,1.8-7.3s3-4.2,5.3-5.5C22.5,6.6,25,6,27.7,6
								c4.2,0,7.7,1.3,10.4,4c2.7,2.7,4.1,6.1,4.1,10.3c0,4.2-1.4,7.7-4.2,10.5S31.7,35,27.4,35c-4.1,0-7.6-1.4-10.3-4.1
								C14.4,28.2,13.1,24.8,13.1,20.7z"/>
						</g>
					</g>
				</g>
			</g>
			<g id="xtick_5">
				<g id="line2d_5">
					<g>
						<g>
							<path id="m626cf4632c_00000134241027386025928510000001488419536601074080_" class="st7" d="M398.5,208.3v3.5"/>
						</g>
					</g>
				</g>
				<g id="text_5">
					<g transform="translate(395.15071 219.554688)scale(0.06 -0.06)">
						<g>
							<path id="ArialMT-31" d="M37.2,0h-8.8v56c-2.1-2-4.9-4-8.3-6s-6.5-3.5-9.2-4.5v8.5c4.9,2.3,9.2,5.1,12.9,8.4
								c3.7,3.3,6.3,6.5,7.8,9.6h5.7V0z"/>
						</g>
						<g>
							<path id="ArialMT-30" d="M59.8,35.3c0,8.5,0.9,15.3,2.6,20.4c1.7,5.2,4.3,9.1,7.7,11.9c3.4,2.8,7.8,4.2,13,4.2
								c3.8,0,7.2-0.8,10.1-2.3c2.9-1.5,5.3-3.8,7.2-6.7c1.9-2.9,3.4-6.5,4.5-10.6c1.1-4.2,1.6-9.8,1.6-16.9
								c0-8.4-0.9-15.2-2.6-20.3c-1.7-5.2-4.3-9.1-7.7-12c-3.4-2.8-7.8-4.2-13-4.2c-6.9,0-12.3,2.5-16.2,7.4
								C62.1,12.2,59.8,21.9,59.8,35.3z M68.8,35.3c0-11.8,1.4-19.6,4.1-23.5C75.7,7.9,79.1,6,83.1,6c4,0,7.4,2,10.2,5.9
								s4.1,11.7,4.1,23.4c0,11.8-1.4,19.6-4.1,23.5c-2.8,3.9-6.2,5.8-10.3,5.8c-4,0-7.3-1.7-9.7-5.1C70.3,55.1,68.8,47.1,68.8,35.3
								z"/>
						</g>
					</g>
				</g>
			</g>
			<g id="text_6">
				<g transform="translate(229.325156 229.041875)scale(0.06 -0.06)">
					<g>
						<path id="ArialMT-44" d="M7.7,0v71.6h24.7c5.6,0,9.8-0.3,12.8-1c4.1-0.9,7.6-2.7,10.5-5.1c3.8-3.2,6.6-7.3,8.5-12.2
							c1.9-5,2.8-10.6,2.8-17c0-5.4-0.6-10.3-1.9-14.5c-1.3-4.2-2.9-7.7-4.9-10.4c-2-2.8-4.2-4.9-6.5-6.5C51.2,3.2,48.4,2,45,1.2
							S37.9,0,33.5,0H7.7z M17.2,8.5h15.3c4.7,0,8.4,0.4,11.1,1.3s4.8,2.1,6.4,3.7c2.2,2.2,4,5.3,5.2,9s1.9,8.4,1.9,13.8
							c0,7.5-1.2,13.2-3.7,17.3s-5.4,6.7-9,8.1c-2.5,1-6.6,1.5-12.2,1.5h-15V8.5z"/>
					</g>
					<g>
						<path id="ArialMT-61" d="M112.7,6.4c-3.3-2.8-6.4-4.7-9.4-5.9c-3-1.1-6.2-1.7-9.7-1.7c-5.7,0-10.1,1.4-13.1,4.2
							s-4.6,6.3-4.6,10.7c0,2.5,0.6,4.9,1.7,7c1.2,2.1,2.7,3.8,4.5,5.1s4,2.2,6.3,2.9c1.7,0.5,4.3,0.9,7.8,1.3
							c7.1,0.8,12.3,1.8,15.7,3c0,1.2,0,2,0,2.3c0,3.6-0.8,6.1-2.5,7.6c-2.2,2-5.6,3-10,3c-4.1,0-7.2-0.7-9.2-2.2s-3.4-4-4.4-7.7
							l-8.6,1.2c0.8,3.7,2.1,6.6,3.9,8.9c1.8,2.3,4.4,4,7.8,5.2c3.4,1.2,7.3,1.8,11.8,1.8c4.4,0,8-0.5,10.8-1.6
							c2.8-1,4.8-2.4,6.1-3.9c1.3-1.6,2.2-3.6,2.7-6c0.3-1.5,0.4-4.2,0.4-8.1V21.7c0-8.2,0.2-13.3,0.6-15.5c0.4-2.2,1.1-4.2,2.2-6.2
							h-9.2C113.5,1.8,112.9,4,112.7,6.4z M111.9,26c-3.2-1.3-8-2.4-14.4-3.3c-3.6-0.5-6.2-1.1-7.7-1.8c-1.5-0.6-2.6-1.6-3.5-2.8
							c-0.8-1.2-1.2-2.6-1.2-4.2c0-2.3,0.9-4.3,2.7-5.9c1.8-1.6,4.4-2.3,7.8-2.3c3.4,0,6.4,0.7,9,2.2c2.6,1.5,4.6,3.5,5.8,6.1
							c0.9,2,1.4,4.9,1.4,8.8V26z"/>
					</g>
					<g>
						<path id="ArialMT-79" d="M134-20l-1,8.2c1.9-0.5,3.6-0.8,5-0.8c2,0,3.5,0.3,4.7,1c1.2,0.6,2.1,1.6,2.9,2.7
							c0.6,0.9,1.4,3.1,2.7,6.5c0.2,0.5,0.4,1.2,0.8,2.2l-19.7,52h9.5l10.8-30c1.4-3.8,2.7-7.8,3.8-12c1,4,2.2,8,3.6,11.8l11.1,30.2
							h8.8L157.2-0.9c-2.1-5.7-3.8-9.6-4.9-11.8c-1.6-2.9-3.4-5-5.4-6.4c-2-1.4-4.4-2-7.2-2C138-21,136.1-20.7,134-20z"/>
					</g>
					<g>
						<path id="ArialMT-73" d="M180.9,15.5l8.7,1.4c0.5-3.5,1.8-6.1,4.1-8c2.2-1.9,5.3-2.8,9.4-2.8c4,0,7,0.8,9,2.5
							c2,1.6,2.9,3.6,2.9,5.8c0,2-0.9,3.5-2.6,4.7c-1.2,0.8-4.2,1.8-9,3c-6.4,1.6-10.9,3-13.4,4.2c-2.5,1.2-4.4,2.8-5.7,4.9
							c-1.3,2.1-1.9,4.4-1.9,7c0,2.3,0.5,4.4,1.6,6.4c1.1,2,2.5,3.6,4.3,4.9c1.4,1,3.2,1.8,5.6,2.5c2.4,0.7,4.9,1.1,7.6,1.1
							c4.1,0,7.6-0.6,10.7-1.8c3.1-1.2,5.4-2.8,6.8-4.8c1.5-2,2.5-4.7,3-8l-8.6-1.2c-0.4,2.7-1.5,4.7-3.4,6.2
							c-1.9,1.5-4.5,2.2-7.9,2.2c-4,0-6.9-0.7-8.6-2c-1.7-1.3-2.6-2.9-2.6-4.7c0-1.1,0.4-2.2,1.1-3.1c0.7-0.9,1.8-1.7,3.4-2.3
							c0.9-0.3,3.5-1.1,7.8-2.2c6.2-1.7,10.6-3,13-4.1c2.5-1.1,4.4-2.6,5.8-4.6c1.4-2,2.1-4.5,2.1-7.5c0-2.9-0.9-5.7-2.6-8.3
							c-1.7-2.6-4.2-4.6-7.4-6c-3.2-1.4-6.9-2.1-10.9-2.1c-6.7,0-11.9,1.4-15.4,4.2S181.9,10,180.9,15.5z"/>
					</g>
				</g>
			</g>
		</g>
		<g id="matplotlib.axis_2">
			<g id="ytick_1">
				<g id="line2d_6">
					<g>
						<g>
							<path id="m11993187d8" class="st7" d="M57.6,202.1h-3.5"/>
						</g>
					</g>
				</g>
				<g id="text_7">
					<g transform="translate(47.263438 204.200543)scale(0.06 -0.06)">
						<g>
							<path id="ArialMT-30_00000085929017429765008600000005981027009146948995_" d="M4.2,35.3c0,8.5,0.9,15.3,2.6,20.4
								c1.7,5.2,4.3,9.1,7.8,11.9c3.4,2.8,7.8,4.2,13,4.2c3.8,0,7.2-0.8,10.1-2.3c2.9-1.5,5.3-3.8,7.2-6.7c1.9-2.9,3.4-6.5,4.5-10.6
								c1.1-4.2,1.6-9.8,1.6-16.9c0-8.4-0.9-15.2-2.6-20.3c-1.7-5.2-4.3-9.1-7.7-12c-3.4-2.8-7.8-4.2-13-4.2
								c-6.9,0-12.3,2.5-16.2,7.4C6.5,12.2,4.2,21.9,4.2,35.3z M13.2,35.3c0-11.7,1.4-19.6,4.1-23.5C20.1,7.9,23.5,6,27.5,6
								c4,0,7.4,2,10.2,5.9s4.1,11.7,4.1,23.4c0,11.8-1.4,19.6-4.1,23.5c-2.8,3.9-6.2,5.8-10.3,5.8c-4,0-7.3-1.7-9.7-5.1
								C14.7,55.1,13.2,47.1,13.2,35.3z"/>
						</g>
					</g>
				</g>
			</g>
			<g id="ytick_2">
				<g id="line2d_7">
					<g>
						<g>
							<path id="m11993187d8_00000164485470955085226690000018307723071414236313_" class="st7" d="M57.6,178.4h-3.5"/>
						</g>
					</g>
				</g>
				<g id="text_8">
					<g transform="translate(40.590313 180.525241)scale(0.06 -0.06)">
						<g>
							<path id="ArialMT-35" d="M4.2,18.7l9.2,0.8c0.7-4.5,2.3-7.9,4.8-10.1c2.5-2.3,5.5-3.4,9-3.4c4.2,0,7.8,1.6,10.7,4.8
								c2.9,3.2,4.4,7.4,4.4,12.7c0,5-1.4,9-4.2,11.9c-2.8,2.9-6.5,4.4-11.1,4.4c-2.8,0-5.4-0.6-7.7-1.9c-2.3-1.3-4.1-2.9-5.4-5
								l-8.2,1.1l6.9,36.8h35.6v-8.4H19.7L15.8,43c4.3,3,8.8,4.5,13.5,4.5c6.3,0,11.5-2.2,15.8-6.5c4.3-4.3,6.5-9.9,6.5-16.7
								c0-6.5-1.9-12.1-5.7-16.8c-4.6-5.8-10.9-8.7-18.8-8.7c-6.5,0-11.8,1.8-16,5.5C7.1,7.9,4.7,12.7,4.2,18.7z"/>
						</g>
						<g>
							<path id="ArialMT-30_00000068662125618323672350000000957425584388019086_" d="M59.8,35.3c0,8.5,0.9,15.3,2.6,20.4
								c1.7,5.2,4.3,9.1,7.8,11.9c3.4,2.8,7.8,4.2,13,4.2c3.8,0,7.2-0.8,10.1-2.3c2.9-1.5,5.3-3.8,7.2-6.7c1.9-2.9,3.4-6.5,4.5-10.6
								c1.1-4.2,1.6-9.8,1.6-16.9c0-8.4-0.9-15.2-2.6-20.3c-1.7-5.2-4.3-9.1-7.7-12c-3.4-2.8-7.8-4.2-13-4.2
								c-6.9,0-12.3,2.5-16.2,7.4C62.1,12.2,59.8,21.9,59.8,35.3z M68.8,35.3c0-11.7,1.4-19.6,4.1-23.5C75.7,7.9,79.1,6,83.1,6
								c4,0,7.4,2,10.2,5.9s4.1,11.7,4.1,23.4c0,11.8-1.4,19.6-4.1,23.5c-2.8,3.9-6.2,5.8-10.3,5.8c-4,0-7.3-1.7-9.7-5.1
								C70.3,55.1,68.8,47.1,68.8,35.3z"/>
						</g>
						<g>
							<path id="ArialMT-30_00000061438075486980278100000012933396208553425297_" d="M115.4,35.3c0,8.5,0.9,15.3,2.6,20.4
								c1.7,5.2,4.3,9.1,7.8,11.9c3.4,2.8,7.8,4.2,13,4.2c3.8,0,7.2-0.8,10.1-2.3c2.9-1.5,5.3-3.8,7.2-6.7c1.9-2.9,3.4-6.5,4.5-10.6
								c1.1-4.2,1.6-9.8,1.6-16.9c0-8.4-0.9-15.2-2.6-20.3c-1.7-5.2-4.3-9.1-7.7-12c-3.4-2.8-7.8-4.2-13-4.2
								c-6.9,0-12.3,2.5-16.2,7.4C117.7,12.2,115.4,21.9,115.4,35.3z M124.4,35.3c0-11.7,1.4-19.6,4.1-23.5
								c2.8-3.9,6.1-5.8,10.2-5.8c4,0,7.4,2,10.2,5.9s4.1,11.7,4.1,23.4c0,11.8-1.4,19.6-4.1,23.5c-2.8,3.9-6.2,5.8-10.3,5.8
								c-4,0-7.3-1.7-9.7-5.1C125.9,55.1,124.4,47.1,124.4,35.3z"/>
						</g>
					</g>
				</g>
			</g>
			<g id="ytick_3">
				<g id="line2d_8">
					<g>
						<g>
							<path id="m11993187d8_00000052075109357182654950000014528805643177628596_" class="st7" d="M57.6,154.7h-3.5"/>
						</g>
					</g>
				</g>
				<g id="text_9">
					<g transform="translate(37.25375 156.849939)scale(0.06 -0.06)">
						<g>
							<path id="ArialMT-31_00000160166035160480671040000008677157302436659362_" d="M37.2,0h-8.8v56c-2.1-2-4.9-4-8.3-6
								s-6.5-3.5-9.2-4.5v8.5c4.9,2.3,9.2,5.1,12.9,8.4c3.7,3.3,6.3,6.5,7.8,9.6h5.7V0z"/>
						</g>
						<g>
							<path id="ArialMT-30_00000083081962195309510070000013844967723022251174_" d="M59.8,35.3c0,8.5,0.9,15.3,2.6,20.4
								c1.7,5.2,4.3,9.1,7.7,11.9c3.4,2.8,7.8,4.2,13,4.2c3.8,0,7.2-0.8,10.1-2.3c2.9-1.5,5.3-3.8,7.2-6.7c1.9-2.9,3.4-6.5,4.5-10.6
								c1.1-4.2,1.6-9.8,1.6-16.9c0-8.4-0.9-15.2-2.6-20.3c-1.7-5.2-4.3-9.1-7.7-12c-3.4-2.8-7.8-4.2-13-4.2
								c-6.9,0-12.3,2.5-16.2,7.4C62.1,12.2,59.8,21.9,59.8,35.3z M68.8,35.3c0-11.8,1.4-19.6,4.1-23.5C75.7,7.9,79.1,6,83.1,6
								c4,0,7.4,2,10.2,5.9s4.1,11.7,4.1,23.4c0,11.8-1.4,19.6-4.1,23.5c-2.8,3.9-6.2,5.8-10.3,5.8c-4,0-7.3-1.7-9.7-5.1
								C70.3,55.1,68.8,47.1,68.8,35.3z"/>
						</g>
						<g>
							<path id="ArialMT-30_00000036249813204262075650000002029853346233526454_" d="M115.4,35.3c0,8.5,0.9,15.3,2.6,20.4
								c1.7,5.2,4.3,9.1,7.8,11.9c3.4,2.8,7.8,4.2,13,4.2c3.8,0,7.2-0.8,10.1-2.3c2.9-1.5,5.3-3.8,7.2-6.7c1.9-2.9,3.4-6.5,4.5-10.6
								c1.1-4.2,1.6-9.8,1.6-16.9c0-8.4-0.9-15.2-2.6-20.3c-1.7-5.2-4.3-9.1-7.7-12c-3.4-2.8-7.8-4.2-13-4.2
								c-6.9,0-12.3,2.5-16.3,7.4C117.7,12.2,115.4,21.9,115.4,35.3z M124.4,35.3c0-11.8,1.4-19.6,4.1-23.5
								c2.8-3.9,6.1-5.8,10.2-5.8c4,0,7.4,2,10.2,5.9s4.1,11.7,4.1,23.4c0,11.8-1.4,19.6-4.1,23.5c-2.8,3.9-6.2,5.8-10.3,5.8
								c-4,0-7.3-1.7-9.7-5.1C125.9,55.1,124.4,47.1,124.4,35.3z"/>
						</g>
						<g>
							<path id="ArialMT-30_00000150784782956733381920000004398764248304514945_" d="M171,35.3c0,8.5,0.9,15.3,2.6,20.4
								c1.7,5.2,4.3,9.1,7.8,11.9c3.4,2.8,7.8,4.2,13,4.2c3.8,0,7.2-0.8,10.1-2.3c2.9-1.5,5.3-3.8,7.2-6.7c1.9-2.9,3.4-6.5,4.5-10.6
								c1.1-4.2,1.6-9.8,1.6-16.9c0-8.4-0.9-15.2-2.6-20.3c-1.7-5.2-4.3-9.1-7.7-12c-3.4-2.8-7.8-4.2-13-4.2
								c-6.9,0-12.3,2.5-16.2,7.4C173.4,12.2,171,21.9,171,35.3z M180,35.3c0-11.8,1.4-19.6,4.1-23.5c2.8-3.9,6.1-5.8,10.2-5.8
								c4,0,7.4,2,10.2,5.9s4.1,11.7,4.1,23.4c0,11.8-1.4,19.6-4.1,23.5c-2.8,3.9-6.2,5.8-10.3,5.8c-4,0-7.3-1.7-9.7-5.1
								C181.5,55.1,180,47.1,180,35.3z"/>
						</g>
					</g>
				</g>
			</g>
			<g id="ytick_4">
				<g id="line2d_9">
					<g>
						<g>
							<path id="m11993187d8_00000091726154218067207500000012461432560110709936_" class="st7" d="M57.6,131h-3.5"/>
						</g>
					</g>
				</g>
				<g id="text_10">
					<g transform="translate(37.25375 133.174638)scale(0.06 -0.06)">
						<g>
							<path id="ArialMT-31_00000080182941179568291620000002696831090082547102_" d="M37.2,0h-8.8v56c-2.1-2-4.9-4-8.3-6
								s-6.5-3.5-9.2-4.5v8.5c4.9,2.3,9.2,5.1,12.9,8.4c3.7,3.3,6.3,6.5,7.8,9.6h5.7V0z"/>
						</g>
						<g>
							<path id="ArialMT-35_00000034085566446174434910000001884656427535663021_" d="M59.8,18.7l9.2,0.8c0.7-4.5,2.3-7.9,4.8-10.1
								c2.5-2.3,5.5-3.4,9-3.4c4.2,0,7.8,1.6,10.7,4.8c2.9,3.2,4.4,7.4,4.4,12.7c0,5-1.4,9-4.2,11.9c-2.8,2.9-6.5,4.4-11.1,4.4
								c-2.8,0-5.4-0.6-7.7-1.9c-2.3-1.3-4.1-2.9-5.4-5l-8.2,1.1l6.9,36.8h35.6v-8.4H75.3L71.4,43c4.3,3,8.8,4.5,13.5,4.5
								c6.2,0,11.5-2.2,15.8-6.5c4.3-4.3,6.5-9.9,6.5-16.7c0-6.5-1.9-12.1-5.7-16.8C97,1.7,90.7-1.2,82.8-1.2
								c-6.5,0-11.8,1.8-16,5.5C62.7,7.9,60.4,12.7,59.8,18.7z"/>
						</g>
						<g>
							<path id="ArialMT-30_00000160161259275107482000000005235098563630397361_" d="M115.4,35.3c0,8.5,0.9,15.3,2.6,20.4
								c1.7,5.2,4.3,9.1,7.8,11.9c3.4,2.8,7.8,4.2,13,4.2c3.8,0,7.2-0.8,10.1-2.3c2.9-1.5,5.3-3.8,7.2-6.7c1.9-2.9,3.4-6.5,4.5-10.6
								c1.1-4.2,1.6-9.8,1.6-16.9c0-8.4-0.9-15.2-2.6-20.3c-1.7-5.2-4.3-9.1-7.7-12c-3.4-2.8-7.8-4.2-13-4.2
								c-6.9,0-12.3,2.5-16.3,7.4C117.7,12.2,115.4,21.9,115.4,35.3z M124.4,35.3c0-11.8,1.4-19.6,4.1-23.5
								c2.8-3.9,6.1-5.8,10.2-5.8c4,0,7.4,2,10.2,5.9s4.1,11.7,4.1,23.4c0,11.8-1.4,19.6-4.1,23.5c-2.8,3.9-6.2,5.8-10.3,5.8
								c-4,0-7.3-1.7-9.7-5.1C125.9,55.1,124.4,47.1,124.4,35.3z"/>
						</g>
						<g>
							<path id="ArialMT-30_00000011741774417249453130000013085940070840455350_" d="M171,35.3c0,8.5,0.9,15.3,2.6,20.4
								c1.7,5.2,4.3,9.1,7.8,11.9c3.4,2.8,7.8,4.2,13,4.2c3.8,0,7.2-0.8,10.1-2.3c2.9-1.5,5.3-3.8,7.2-6.7c1.9-2.9,3.4-6.5,4.5-10.6
								c1.1-4.2,1.6-9.8,1.6-16.9c0-8.4-0.9-15.2-2.6-20.3c-1.7-5.2-4.3-9.1-7.7-12c-3.4-2.8-7.8-4.2-13-4.2
								c-6.9,0-12.3,2.5-16.2,7.4C173.4,12.2,171,21.9,171,35.3z M180,35.3c0-11.8,1.4-19.6,4.1-23.5c2.8-3.9,6.1-5.8,10.2-5.8
								c4,0,7.4,2,10.2,5.9s4.1,11.7,4.1,23.4c0,11.8-1.4,19.6-4.1,23.5c-2.8,3.9-6.2,5.8-10.3,5.8c-4,0-7.3-1.7-9.7-5.1
								C181.5,55.1,180,47.1,180,35.3z"/>
						</g>
					</g>
				</g>
			</g>
			<g id="ytick_5">
				<g id="line2d_10">
					<g>
						<g>
							<path id="m11993187d8_00000074432326806075721460000010227645092599344288_" class="st7" d="M57.6,107.4h-3.5"/>
						</g>
					</g>
				</g>
				<g id="text_11">
					<g transform="translate(37.25375 109.499336)scale(0.06 -0.06)">
						<g>
							<path id="ArialMT-32_00000105388679466237675620000012428588453446269063_" d="M50.3,8.5V0H3C3,2.1,3.3,4.2,4,6.1
								c1.2,3.2,3.1,6.4,5.8,9.5c2.7,3.1,6.5,6.7,11.5,10.8c7.8,6.4,13,11.4,15.8,15.2c2.7,3.7,4.1,7.3,4.1,10.6
								c0,3.5-1.2,6.4-3.8,8.8c-2.5,2.4-5.7,3.6-9.7,3.6c-4.2,0-7.6-1.3-10.2-3.8c-2.5-2.5-3.8-6-3.9-10.5l-9,0.9
								c0.6,6.7,2.9,11.9,7,15.4c4,3.5,9.5,5.3,16.3,5.3c6.9,0,12.3-1.9,16.3-5.7c4-3.8,6-8.5,6-14.2c0-2.9-0.6-5.7-1.8-8.5
								c-1.2-2.8-3.1-5.7-5.8-8.7s-7.2-7.3-13.5-12.6c-5.3-4.4-8.7-7.4-10.2-9c-1.5-1.6-2.7-3.2-3.7-4.8H50.3z"/>
						</g>
						<g>
							<path id="ArialMT-30_00000129200719157179088370000002185449331612138157_" d="M59.8,35.3c0,8.5,0.9,15.3,2.6,20.4
								c1.7,5.2,4.3,9.1,7.7,11.9c3.4,2.8,7.8,4.2,13,4.2c3.8,0,7.2-0.8,10.1-2.3c2.9-1.5,5.3-3.8,7.2-6.7c1.9-2.9,3.4-6.5,4.5-10.6
								c1.1-4.2,1.6-9.8,1.6-16.9c0-8.4-0.9-15.2-2.6-20.3c-1.7-5.2-4.3-9.1-7.7-12c-3.4-2.8-7.8-4.2-13-4.2
								c-6.9,0-12.3,2.5-16.2,7.4C62.1,12.2,59.8,21.9,59.8,35.3z M68.8,35.3c0-11.7,1.4-19.6,4.1-23.5C75.7,7.9,79.1,6,83.1,6
								c4,0,7.4,2,10.2,5.9s4.1,11.7,4.1,23.4c0,11.8-1.4,19.6-4.1,23.5c-2.8,3.9-6.2,5.8-10.3,5.8c-4,0-7.3-1.7-9.7-5.1
								C70.3,55.1,68.8,47.1,68.8,35.3z"/>
						</g>
						<g>
							<path id="ArialMT-30_00000174577281950536970210000002545396746768262834_" d="M115.4,35.3c0,8.5,0.9,15.3,2.6,20.4
								c1.7,5.2,4.3,9.1,7.8,11.9c3.4,2.8,7.8,4.2,13,4.2c3.8,0,7.2-0.8,10.1-2.3c2.9-1.5,5.3-3.8,7.2-6.7c1.9-2.9,3.4-6.5,4.5-10.6
								c1.1-4.2,1.6-9.8,1.6-16.9c0-8.4-0.9-15.2-2.6-20.3c-1.7-5.2-4.3-9.1-7.7-12c-3.4-2.8-7.8-4.2-13-4.2
								c-6.9,0-12.3,2.5-16.3,7.4C117.7,12.2,115.4,21.9,115.4,35.3z M124.4,35.3c0-11.7,1.4-19.6,4.1-23.5
								c2.8-3.9,6.1-5.8,10.2-5.8c4,0,7.4,2,10.2,5.9s4.1,11.7,4.1,23.4c0,11.8-1.4,19.6-4.1,23.5c-2.8,3.9-6.2,5.8-10.3,5.8
								c-4,0-7.3-1.7-9.7-5.1C125.9,55.1,124.4,47.1,124.4,35.3z"/>
						</g>
						<g>
							<path id="ArialMT-30_00000164472244443573414290000002849800137447526556_" d="M171,35.3c0,8.5,0.9,15.3,2.6,20.4
								c1.7,5.2,4.3,9.1,7.8,11.9c3.4,2.8,7.8,4.2,13,4.2c3.8,0,7.2-0.8,10.1-2.3c2.9-1.5,5.3-3.8,7.2-6.7c1.9-2.9,3.4-6.5,4.5-10.6
								c1.1-4.2,1.6-9.8,1.6-16.9c0-8.4-0.9-15.2-2.6-20.3c-1.7-5.2-4.3-9.1-7.7-12c-3.4-2.8-7.8-4.2-13-4.2
								c-6.9,0-12.3,2.5-16.2,7.4C173.4,12.2,171,21.9,171,35.3z M180,35.3c0-11.7,1.4-19.6,4.1-23.5c2.8-3.9,6.1-5.8,10.2-5.8
								c4,0,7.4,2,10.2,5.9s4.1,11.7,4.1,23.4c0,11.8-1.4,19.6-4.1,23.5c-2.8,3.9-6.2,5.8-10.3,5.8c-4,0-7.3-1.7-9.7-5.1
								C181.5,55.1,180,47.1,180,35.3z"/>
						</g>
					</g>
				</g>
			</g>
			<g id="ytick_6">
				<g id="line2d_11">
					<g>
						<g>
							<path id="m11993187d8_00000034060136896628473290000006543875798248089491_" class="st7" d="M57.6,83.7h-3.5"/>
						</g>
					</g>
				</g>
				<g id="text_12">
					<g transform="translate(37.25375 85.824035)scale(0.06 -0.06)">
						<g>
							<path id="ArialMT-32_00000176740171127559319980000002536365763866001339_" d="M50.3,8.5V0H3C3,2.1,3.3,4.2,4,6.1
								c1.2,3.2,3.1,6.4,5.8,9.5c2.7,3.1,6.5,6.7,11.5,10.8c7.8,6.4,13,11.4,15.8,15.2c2.7,3.7,4.1,7.3,4.1,10.6
								c0,3.5-1.2,6.4-3.8,8.8c-2.5,2.4-5.7,3.6-9.7,3.6c-4.2,0-7.6-1.3-10.2-3.8c-2.5-2.5-3.8-6-3.9-10.5l-9,0.9
								c0.6,6.7,2.9,11.9,7,15.4c4,3.5,9.5,5.3,16.3,5.3c6.9,0,12.3-1.9,16.3-5.7c4-3.8,6-8.5,6-14.2c0-2.9-0.6-5.7-1.8-8.5
								c-1.2-2.8-3.1-5.7-5.8-8.7s-7.2-7.3-13.5-12.6c-5.3-4.4-8.7-7.4-10.2-9c-1.5-1.6-2.7-3.2-3.7-4.8H50.3z"/>
						</g>
						<g>
							<path id="ArialMT-35_00000052078944905108279810000008067449920320444564_" d="M59.8,18.7l9.2,0.8c0.7-4.5,2.3-7.9,4.8-10.1
								c2.5-2.3,5.5-3.4,9-3.4c4.2,0,7.8,1.6,10.7,4.8c2.9,3.2,4.4,7.4,4.4,12.7c0,5-1.4,9-4.2,11.9c-2.8,2.9-6.5,4.4-11.1,4.4
								c-2.8,0-5.4-0.6-7.7-1.9c-2.3-1.3-4.1-2.9-5.4-5l-8.2,1.1l6.9,36.8h35.6v-8.4H75.3L71.4,43c4.3,3,8.8,4.5,13.5,4.5
								c6.2,0,11.5-2.2,15.8-6.5c4.3-4.3,6.5-9.9,6.5-16.7c0-6.5-1.9-12.1-5.7-16.8C97,1.7,90.7-1.2,82.8-1.2
								c-6.5,0-11.8,1.8-16,5.5C62.7,7.9,60.4,12.7,59.8,18.7z"/>
						</g>
						<g>
							<path id="ArialMT-30_00000181765362833415797910000012991291946320152448_" d="M115.4,35.3c0,8.5,0.9,15.3,2.6,20.4
								c1.7,5.2,4.3,9.1,7.8,11.9c3.4,2.8,7.8,4.2,13,4.2c3.8,0,7.2-0.8,10.1-2.3c2.9-1.5,5.3-3.8,7.2-6.7c1.9-2.9,3.4-6.5,4.5-10.6
								c1.1-4.2,1.6-9.8,1.6-16.9c0-8.4-0.9-15.2-2.6-20.3c-1.7-5.2-4.3-9.1-7.7-12c-3.4-2.8-7.8-4.2-13-4.2
								c-6.9,0-12.3,2.5-16.3,7.4C117.7,12.2,115.4,21.9,115.4,35.3z M124.4,35.3c0-11.8,1.4-19.6,4.1-23.5
								c2.8-3.9,6.1-5.8,10.2-5.8c4,0,7.4,2,10.2,5.9s4.1,11.7,4.1,23.4c0,11.8-1.4,19.6-4.1,23.5c-2.8,3.9-6.2,5.8-10.3,5.8
								c-4,0-7.3-1.7-9.7-5.1C125.9,55.1,124.4,47.1,124.4,35.3z"/>
						</g>
						<g>
							<path id="ArialMT-30_00000001641271683736879230000003355990902887674778_" d="M171,35.3c0,8.5,0.9,15.3,2.6,20.4
								c1.7,5.2,4.3,9.1,7.8,11.9c3.4,2.8,7.8,4.2,13,4.2c3.8,0,7.2-0.8,10.1-2.3c2.9-1.5,5.3-3.8,7.2-6.7c1.9-2.9,3.4-6.5,4.5-10.6
								c1.1-4.2,1.6-9.8,1.6-16.9c0-8.4-0.9-15.2-2.6-20.3c-1.7-5.2-4.3-9.1-7.7-12c-3.4-2.8-7.8-4.2-13-4.2
								c-6.9,0-12.3,2.5-16.2,7.4C173.4,12.2,171,21.9,171,35.3z M180,35.3c0-11.8,1.4-19.6,4.1-23.5c2.8-3.9,6.1-5.8,10.2-5.8
								c4,0,7.4,2,10.2,5.9s4.1,11.7,4.1,23.4c0,11.8-1.4,19.6-4.1,23.5c-2.8,3.9-6.2,5.8-10.3,5.8c-4,0-7.3-1.7-9.7-5.1
								C181.5,55.1,180,47.1,180,35.3z"/>
						</g>
					</g>
				</g>
			</g>
			<g id="ytick_7">
				<g id="line2d_12">
					<g>
						<g>
							<path id="m11993187d8_00000069396339722342913780000017071246192910297996_" class="st7" d="M57.6,60h-3.5"/>
						</g>
					</g>
				</g>
				<g id="text_13">
					<g transform="translate(37.25375 62.148733)scale(0.06 -0.06)">
						<g>
							<path id="ArialMT-33" d="M4.2,18.9l8.8,1.2c1-5,2.7-8.6,5.2-10.8S23.5,6,27,6c4.1,0,7.6,1.4,10.5,4.3
								c2.9,2.9,4.3,6.4,4.3,10.7c0,4-1.3,7.4-4,10c-2.6,2.6-6,3.9-10.1,3.9c-1.7,0-3.7-0.3-6.2-1l1,7.7c0.6-0.1,1.1-0.1,1.4-0.1
								c3.8,0,7.1,1,10.1,2.9c3,2,4.5,5,4.5,9c0,3.2-1.1,5.9-3.3,8c-2.2,2.1-5,3.2-8.4,3.2c-3.4,0-6.3-1.1-8.5-3.2
								c-2.3-2.1-3.7-5.4-4.4-9.7l-8.8,1.6c1.1,5.9,3.5,10.4,7.3,13.7c3.8,3.2,8.6,4.9,14.2,4.9c3.9,0,7.5-0.8,10.8-2.5
								c3.3-1.7,5.8-4,7.5-6.9c1.8-2.9,2.6-6,2.6-9.2c0-3.1-0.8-5.9-2.5-8.4c-1.7-2.5-4.1-4.6-7.4-6.1c4.2-1,7.5-3,9.9-6.1
								c2.3-3.1,3.5-6.9,3.5-11.5c0-6.2-2.3-11.5-6.8-15.9C39.7,0.9,33.9-1.3,27-1.3c-6.3,0-11.5,1.9-15.7,5.6
								C7.2,8.1,4.8,12.9,4.2,18.9z"/>
						</g>
						<g>
							<path id="ArialMT-30_00000055708763300158115520000017819221064653167783_" d="M59.8,35.3c0,8.5,0.9,15.3,2.6,20.4
								c1.7,5.2,4.3,9.1,7.7,11.9c3.4,2.8,7.8,4.2,13,4.2c3.8,0,7.2-0.8,10.1-2.3c2.9-1.5,5.3-3.8,7.2-6.7c1.9-2.9,3.4-6.5,4.5-10.6
								c1.1-4.2,1.6-9.8,1.6-16.9c0-8.4-0.9-15.2-2.6-20.3c-1.7-5.2-4.3-9.1-7.7-12c-3.4-2.8-7.8-4.2-13-4.2
								c-6.9,0-12.3,2.5-16.2,7.4C62.1,12.2,59.8,21.9,59.8,35.3z M68.8,35.3c0-11.7,1.4-19.6,4.1-23.5C75.7,7.9,79.1,6,83.1,6
								c4,0,7.4,2,10.2,5.9s4.1,11.7,4.1,23.4c0,11.8-1.4,19.6-4.1,23.5c-2.8,3.9-6.2,5.8-10.3,5.8c-4,0-7.3-1.7-9.7-5.1
								C70.3,55.1,68.8,47.1,68.8,35.3z"/>
						</g>
						<g>
							<path id="ArialMT-30_00000109716395754662054660000005721429881826445215_" d="M115.4,35.3c0,8.5,0.9,15.3,2.6,20.4
								c1.7,5.2,4.3,9.1,7.8,11.9c3.4,2.8,7.8,4.2,13,4.2c3.8,0,7.2-0.8,10.1-2.3c2.9-1.5,5.3-3.8,7.2-6.7c1.9-2.9,3.4-6.5,4.5-10.6
								c1.1-4.2,1.6-9.8,1.6-16.9c0-8.4-0.9-15.2-2.6-20.3c-1.7-5.2-4.3-9.1-7.7-12c-3.4-2.8-7.8-4.2-13-4.2
								c-6.9,0-12.3,2.5-16.3,7.4C117.7,12.2,115.4,21.9,115.4,35.3z M124.4,35.3c0-11.7,1.4-19.6,4.1-23.5
								c2.8-3.9,6.1-5.8,10.2-5.8c4,0,7.4,2,10.2,5.9s4.1,11.7,4.1,23.4c0,11.8-1.4,19.6-4.1,23.5c-2.8,3.9-6.2,5.8-10.3,5.8
								c-4,0-7.3-1.7-9.7-5.1C125.9,55.1,124.4,47.1,124.4,35.3z"/>
						</g>
						<g>
							<path id="ArialMT-30_00000062880793247870714740000005753437210994082705_" d="M171,35.3c0,8.5,0.9,15.3,2.6,20.4
								c1.7,5.2,4.3,9.1,7.8,11.9c3.4,2.8,7.8,4.2,13,4.2c3.8,0,7.2-0.8,10.1-2.3c2.9-1.5,5.3-3.8,7.2-6.7c1.9-2.9,3.4-6.5,4.5-10.6
								c1.1-4.2,1.6-9.8,1.6-16.9c0-8.4-0.9-15.2-2.6-20.3c-1.7-5.2-4.3-9.1-7.7-12c-3.4-2.8-7.8-4.2-13-4.2
								c-6.9,0-12.3,2.5-16.2,7.4C173.4,12.2,171,21.9,171,35.3z M180,35.3c0-11.7,1.4-19.6,4.1-23.5c2.8-3.9,6.1-5.8,10.2-5.8
								c4,0,7.4,2,10.2,5.9s4.1,11.7,4.1,23.4c0,11.8-1.4,19.6-4.1,23.5c-2.8,3.9-6.2,5.8-10.3,5.8c-4,0-7.3-1.7-9.7-5.1
								C181.5,55.1,180,47.1,180,35.3z"/>
						</g>
					</g>
				</g>
			</g>
			<g id="ytick_8">
				<g id="line2d_13">
					<g>
						<g>
							<path id="m11993187d8_00000146488300303876561710000017636346602902279613_" class="st7" d="M57.6,36.3h-3.5"/>
						</g>
					</g>
				</g>
				<g id="text_14">
					<g transform="translate(37.25375 38.473432)scale(0.06 -0.06)">
						<g>
							<path id="ArialMT-33_00000147208267162221225250000010950028000638124200_" d="M4.2,18.9l8.8,1.2c1-5,2.7-8.6,5.2-10.8
								S23.5,6,27,6c4.1,0,7.6,1.4,10.5,4.3c2.9,2.9,4.3,6.4,4.3,10.7c0,4-1.3,7.4-4,10c-2.6,2.6-6,3.9-10.1,3.9
								c-1.7,0-3.7-0.3-6.2-1l1,7.7c0.6-0.1,1.1-0.1,1.4-0.1c3.8,0,7.1,1,10.1,2.9c3,2,4.5,5,4.5,9c0,3.2-1.1,5.9-3.3,8
								c-2.2,2.1-5,3.2-8.4,3.2c-3.4,0-6.3-1.1-8.5-3.2c-2.3-2.1-3.7-5.4-4.4-9.7l-8.8,1.6c1.1,5.9,3.5,10.4,7.3,13.7
								c3.8,3.2,8.6,4.9,14.2,4.9c3.9,0,7.5-0.8,10.8-2.5c3.3-1.7,5.8-4,7.5-6.9c1.8-2.9,2.6-6,2.6-9.2c0-3.1-0.8-5.9-2.5-8.4
								c-1.7-2.5-4.1-4.6-7.4-6.1c4.2-1,7.5-3,9.9-6.1c2.3-3.1,3.5-6.9,3.5-11.5c0-6.2-2.3-11.5-6.8-15.9C39.7,0.9,33.9-1.3,27-1.3
								c-6.3,0-11.5,1.9-15.7,5.6C7.2,8.1,4.8,12.9,4.2,18.9z"/>
						</g>
						<g>
							<path id="ArialMT-35_00000163056731878402902140000016992462579570598313_" d="M59.8,18.7l9.2,0.8c0.7-4.5,2.3-7.9,4.8-10.1
								c2.5-2.3,5.5-3.4,9-3.4c4.2,0,7.8,1.6,10.7,4.8c2.9,3.2,4.4,7.4,4.4,12.7c0,5-1.4,9-4.2,11.9c-2.8,2.9-6.5,4.4-11.1,4.4
								c-2.8,0-5.4-0.6-7.7-1.9c-2.3-1.3-4.1-2.9-5.4-5l-8.2,1.1l6.9,36.8h35.6v-8.4H75.3L71.4,43c4.3,3,8.8,4.5,13.5,4.5
								c6.2,0,11.5-2.2,15.8-6.5c4.3-4.3,6.5-9.9,6.5-16.7c0-6.5-1.9-12.1-5.7-16.8C97,1.7,90.7-1.2,82.8-1.2
								c-6.5,0-11.8,1.8-16,5.5C62.7,7.9,60.4,12.7,59.8,18.7z"/>
						</g>
						<g>
							<path id="ArialMT-30_00000124123656027736725520000008089902189593933975_" d="M115.4,35.3c0,8.5,0.9,15.3,2.6,20.4
								c1.7,5.2,4.3,9.1,7.8,11.9c3.4,2.8,7.8,4.2,13,4.2c3.8,0,7.2-0.8,10.1-2.3c2.9-1.5,5.3-3.8,7.2-6.7c1.9-2.9,3.4-6.5,4.5-10.6
								c1.1-4.2,1.6-9.8,1.6-16.9c0-8.4-0.9-15.2-2.6-20.3c-1.7-5.2-4.3-9.1-7.7-12c-3.4-2.8-7.8-4.2-13-4.2
								c-6.9,0-12.3,2.5-16.3,7.4C117.7,12.2,115.4,21.9,115.4,35.3z M124.4,35.3c0-11.8,1.4-19.6,4.1-23.5
								c2.8-3.9,6.1-5.8,10.2-5.8c4,0,7.4,2,10.2,5.9s4.1,11.7,4.1,23.4c0,11.8-1.4,19.6-4.1,23.5c-2.8,3.9-6.2,5.8-10.3,5.8
								c-4,0-7.3-1.7-9.7-5.1C125.9,55.1,124.4,47.1,124.4,35.3z"/>
						</g>
						<g>
							<path id="ArialMT-30_00000108998800656333173030000003238250528263438477_" d="M171,35.3c0,8.5,0.9,15.3,2.6,20.4
								c1.7,5.2,4.3,9.1,7.8,11.9c3.4,2.8,7.8,4.2,13,4.2c3.8,0,7.2-0.8,10.1-2.3c2.9-1.5,5.3-3.8,7.2-6.7c1.9-2.9,3.4-6.5,4.5-10.6
								c1.1-4.2,1.6-9.8,1.6-16.9c0-8.4-0.9-15.2-2.6-20.3c-1.7-5.2-4.3-9.1-7.7-12c-3.4-2.8-7.8-4.2-13-4.2
								c-6.9,0-12.3,2.5-16.2,7.4C173.4,12.2,171,21.9,171,35.3z M180,35.3c0-11.8,1.4-19.6,4.1-23.5c2.8-3.9,6.1-5.8,10.2-5.8
								c4,0,7.4,2,10.2,5.9s4.1,11.7,4.1,23.4c0,11.8-1.4,19.6-4.1,23.5c-2.8,3.9-6.2,5.8-10.3,5.8c-4,0-7.3-1.7-9.7-5.1
								C181.5,55.1,180,47.1,180,35.3z"/>
						</g>
					</g>
				</g>
			</g>
			<g id="text_15">
				<g transform="translate(32.06125 149.297344)rotate(-90)scale(0.06 -0.06)">
					<g>
						<path id="ArialMT-4f" d="M4.8,34.9C4.8,46.7,8,56,14.4,62.8c6.4,6.7,14.6,10.1,24.7,10.1c6.6,0,12.6-1.6,17.9-4.8
							c5.3-3.2,9.3-7.6,12.1-13.2c2.8-5.6,4.2-12.1,4.2-19.2c0-7.2-1.5-13.7-4.4-19.5c-2.9-5.7-7.1-10.1-12.5-13
							c-5.4-2.9-11.2-4.4-17.4-4.4c-6.7,0-12.8,1.6-18.1,4.9C15.7,6.9,11.7,11.4,8.9,17C6.2,22.6,4.8,28.6,4.8,34.9z M14.6,34.7
							c0-8.6,2.3-15.4,7-20.4C26.2,9.4,32,6.9,39,6.9c7.1,0,13,2.5,17.6,7.5c4.6,5,6.9,12.1,6.9,21.3c0,5.8-1,10.9-3,15.2
							s-4.9,7.7-8.7,10.1c-3.8,2.4-8,3.6-12.8,3.6c-6.7,0-12.5-2.3-17.3-6.9C17,53.2,14.6,45.5,14.6,34.7z"/>
					</g>
					<g>
						<path id="ArialMT-76" d="M98.8,0L79,51.9h9.3l11.1-31.1c1.2-3.4,2.3-6.8,3.3-10.4c0.8,2.7,1.9,6,3.3,9.9l11.5,31.6h9L107,0
							H98.8z"/>
					</g>
					<g>
						<path id="ArialMT-65" d="M169.9,16.7l9.1-1.1c-1.4-5.3-4.1-9.4-8-12.4c-3.9-2.9-8.8-4.4-14.8-4.4c-7.6,0-13.6,2.3-18,7
							c-4.4,4.7-6.7,11.2-6.7,19.7c0,8.7,2.2,15.5,6.7,20.3c4.5,4.8,10.3,7.2,17.5,7.2c6.9,0,12.6-2.4,17-7.1
							c4.4-4.7,6.6-11.4,6.6-19.9c0-0.5,0-1.3,0-2.3h-38.7c0.3-5.7,1.9-10.1,4.8-13.1c2.9-3,6.5-4.5,10.8-4.5c3.2,0,6,0.8,8.2,2.5
							C166.7,10.3,168.5,13,169.9,16.7z M141,30.9h29c-0.4,4.4-1.5,7.6-3.3,9.8c-2.8,3.4-6.4,5.1-10.9,5.1c-4,0-7.4-1.3-10.2-4
							S141.3,35.4,141,30.9z"/>
					</g>
					<g>
						<path id="ArialMT-72" d="M189.9,0v51.9h7.9V44c2,3.7,3.9,6.1,5.6,7.3c1.7,1.2,3.6,1.8,5.6,1.8c3,0,6-0.9,9-2.8l-3-8.2
							c-2.1,1.3-4.3,1.9-6.4,1.9c-1.9,0-3.7-0.6-5.2-1.7s-2.6-2.8-3.3-4.8c-1-3.1-1.5-6.5-1.5-10.2V0H189.9z"/>
					</g>
					<g>
						<path id="ArialMT-61_00000064313380489782130780000005302995051492371120_" d="M257.1,6.4c-3.3-2.8-6.4-4.7-9.4-5.9
							c-3-1.1-6.2-1.7-9.7-1.7c-5.7,0-10.1,1.4-13.1,4.2s-4.6,6.3-4.6,10.7c0,2.5,0.6,4.9,1.7,7c1.2,2.1,2.7,3.8,4.5,5.1
							s4,2.2,6.3,2.9c1.7,0.5,4.3,0.9,7.8,1.3c7.1,0.8,12.3,1.8,15.7,3c0,1.2,0,2,0,2.3c0,3.6-0.8,6.1-2.5,7.6c-2.2,2-5.6,3-10,3
							c-4.1,0-7.2-0.7-9.2-2.2s-3.4-4-4.4-7.7l-8.6,1.2c0.8,3.7,2.1,6.6,3.9,8.9c1.8,2.3,4.4,4,7.8,5.2c3.4,1.2,7.3,1.8,11.8,1.8
							c4.4,0,8-0.5,10.8-1.6c2.8-1,4.8-2.4,6.1-3.9c1.3-1.6,2.2-3.6,2.7-6c0.3-1.5,0.4-4.2,0.4-8.1V21.7c0-8.2,0.2-13.3,0.6-15.5
							c0.4-2.2,1.1-4.2,2.2-6.2h-9.2C258,1.8,257.4,4,257.1,6.4z M256.4,26c-3.2-1.3-8-2.4-14.4-3.3c-3.6-0.5-6.2-1.1-7.7-1.8
							c-1.5-0.6-2.6-1.6-3.5-2.8c-0.8-1.2-1.2-2.6-1.2-4.2c0-2.3,0.9-4.3,2.7-5.9c1.8-1.6,4.4-2.3,7.8-2.3c3.4,0,6.4,0.7,9,2.2
							c2.6,1.5,4.6,3.5,5.8,6.1c0.9,2,1.4,4.9,1.4,8.8V26z"/>
					</g>
					<g>
						<path id="ArialMT-6c" d="M278.7,0v71.6h8.8V0H278.7z"/>
					</g>
					<g>
						<path id="ArialMT-6c_00000139985715789802647720000013747527307593316239_" d="M300.9,0v71.6h8.8V0H300.9z"/>
					</g>
					<g>
						<path id="ArialMT-20" d="M316.7,0"/>
					</g>
					<g>
						<path id="ArialMT-4c" d="M351.9,0v71.6h9.5V8.5h35.2V0H351.9z"/>
					</g>
					<g>
						<path id="ArialMT-61_00000068658812371386499000000005799135479594975421_" d="M440.6,6.4c-3.3-2.8-6.4-4.7-9.4-5.9
							c-3-1.1-6.2-1.7-9.7-1.7c-5.7,0-10.1,1.4-13.1,4.2s-4.6,6.3-4.6,10.7c0,2.5,0.6,4.9,1.7,7c1.2,2.1,2.7,3.8,4.5,5.1
							s4,2.2,6.3,2.9c1.7,0.5,4.3,0.9,7.8,1.3c7.1,0.8,12.3,1.8,15.7,3c0,1.2,0,2,0,2.3c0,3.6-0.8,6.1-2.5,7.6c-2.2,2-5.6,3-10,3
							c-4.1,0-7.2-0.7-9.2-2.2s-3.4-4-4.4-7.7l-8.6,1.2c0.8,3.7,2.1,6.6,3.9,8.9c1.8,2.3,4.4,4,7.8,5.2c3.4,1.2,7.3,1.8,11.8,1.8
							c4.4,0,8-0.5,10.8-1.6c2.8-1,4.8-2.4,6.1-3.9c1.3-1.6,2.2-3.6,2.7-6c0.3-1.5,0.4-4.2,0.4-8.1V21.7c0-8.2,0.2-13.3,0.6-15.5
							c0.4-2.2,1.1-4.2,2.2-6.2h-9.2C441.4,1.8,440.8,4,440.6,6.4z M439.8,26c-3.2-1.3-8-2.4-14.4-3.3c-3.6-0.5-6.2-1.1-7.7-1.8
							c-1.5-0.6-2.6-1.6-3.5-2.8c-0.8-1.2-1.2-2.6-1.2-4.2c0-2.3,0.9-4.3,2.7-5.9c1.8-1.6,4.4-2.3,7.8-2.3c3.4,0,6.4,0.7,9,2.2
							c2.6,1.5,4.6,3.5,5.8,6.1c0.9,2,1.4,4.9,1.4,8.8V26z"/>
					</g>
					<g>
						<path id="ArialMT-74" d="M481.5,7.9l1.3-7.8c-2.5-0.5-4.7-0.8-6.6-0.8c-3.2,0-5.7,0.5-7.4,1.5c-1.8,1-3,2.3-3.7,4
							S464,9.9,464,15.2V45h-6.4v6.8h6.4v12.8l8.7,5.3V51.9h8.8V45h-8.8V14.7c0-2.5,0.2-4.1,0.5-4.8c0.3-0.7,0.8-1.3,1.5-1.7
							c0.7-0.4,1.7-0.6,3-0.6C478.7,7.5,479.9,7.6,481.5,7.9z"/>
					</g>
					<g>
						<path id="ArialMT-65_00000145740270083583778030000013643590992256899247_" d="M525.6,16.7l9.1-1.1c-1.4-5.3-4.1-9.4-8-12.4
							c-3.9-2.9-8.8-4.4-14.8-4.4c-7.6,0-13.6,2.3-18,7c-4.4,4.7-6.7,11.2-6.7,19.7c0,8.7,2.2,15.5,6.7,20.3
							c4.5,4.8,10.3,7.2,17.5,7.2c6.9,0,12.6-2.4,17-7.1c4.4-4.7,6.6-11.4,6.6-19.9c0-0.5,0-1.3,0-2.3h-38.7
							c0.3-5.7,1.9-10.1,4.8-13.1c2.9-3,6.5-4.5,10.8-4.5c3.2,0,6,0.8,8.3,2.5C522.5,10.3,524.3,13,525.6,16.7z M496.8,30.9h29
							c-0.4,4.4-1.5,7.6-3.3,9.8c-2.8,3.4-6.4,5.1-10.9,5.1c-4,0-7.4-1.3-10.2-4S497.1,35.4,496.8,30.9z"/>
					</g>
					<g>
						<path id="ArialMT-6e" d="M545.8,0v51.9h7.9v-7.4c3.8,5.7,9.3,8.5,16.5,8.5c3.1,0,6-0.6,8.6-1.7s4.6-2.6,5.9-4.4
							c1.3-1.8,2.2-4,2.7-6.5c0.3-1.6,0.5-4.5,0.5-8.5V0h-8.8v31.5c0,3.6-0.3,6.3-1,8c-0.7,1.8-1.9,3.2-3.6,4.2
							c-1.7,1.1-3.8,1.6-6.1,1.6c-3.8,0-7-1.2-9.7-3.6s-4.1-6.9-4.1-13.5V0H545.8z"/>
					</g>
					<g>
						<path id="ArialMT-74_00000116927323453973203210000005255751489913079953_" d="M620.6,7.9l1.3-7.8c-2.5-0.5-4.7-0.8-6.6-0.8
							c-3.2,0-5.7,0.5-7.4,1.5c-1.8,1-3,2.3-3.7,4S603,9.9,603,15.2V45h-6.4v6.8h6.4v12.8l8.7,5.3V51.9h8.8V45h-8.8V14.7
							c0-2.5,0.2-4.1,0.5-4.8c0.3-0.7,0.8-1.3,1.5-1.7c0.7-0.4,1.7-0.6,3-0.6C617.7,7.5,619,7.6,620.6,7.9z"/>
					</g>
					<g>
						<path id="ArialMT-20_00000129191092461015868290000016728721090180500374_" d="M622.6,0"/>
					</g>
					<g>
						<path id="ArialMT-56" d="M678.5,0l-27.7,71.6H661l18.6-52c1.5-4.2,2.8-8.1,3.8-11.7c1.1,3.9,2.4,7.8,3.9,11.7l19.3,52h9.7
							L688.2,0H678.5z"/>
					</g>
					<g>
						<path id="ArialMT-61_00000074431618855709310660000006990368014607076798_" d="M750.1,6.4c-3.3-2.8-6.4-4.7-9.4-5.9
							c-3-1.1-6.2-1.7-9.7-1.7c-5.7,0-10.1,1.4-13.1,4.2s-4.6,6.3-4.6,10.7c0,2.5,0.6,4.9,1.7,7c1.2,2.1,2.7,3.8,4.5,5.1
							s4,2.2,6.3,2.9c1.7,0.5,4.3,0.9,7.8,1.3c7.1,0.8,12.3,1.8,15.7,3c0,1.2,0,2,0,2.3c0,3.6-0.8,6.1-2.5,7.6c-2.2,2-5.6,3-10,3
							c-4.1,0-7.2-0.7-9.2-2.2s-3.4-4-4.4-7.7l-8.6,1.2c0.8,3.7,2.1,6.6,3.9,8.9c1.8,2.3,4.4,4,7.8,5.2c3.4,1.2,7.3,1.8,11.8,1.8
							c4.4,0,8-0.5,10.8-1.6c2.8-1,4.8-2.4,6.1-3.9c1.3-1.6,2.2-3.6,2.7-6c0.3-1.5,0.4-4.2,0.4-8.1V21.7c0-8.2,0.2-13.3,0.6-15.5
							c0.4-2.2,1.1-4.2,2.2-6.2h-9.2C750.9,1.8,750.4,4,750.1,6.4z M749.4,26c-3.2-1.3-8-2.4-14.4-3.3c-3.6-0.5-6.2-1.1-7.7-1.8
							c-1.5-0.6-2.6-1.6-3.5-2.8c-0.8-1.2-1.2-2.6-1.2-4.2c0-2.3,0.9-4.3,2.7-5.9c1.8-1.6,4.4-2.3,7.8-2.3c3.4,0,6.4,0.7,9,2.2
							c2.6,1.5,4.6,3.5,5.8,6.1c0.9,2,1.4,4.9,1.4,8.8V26z"/>
					</g>
					<g>
						<path id="ArialMT-72_00000130629064993574706450000000767996755979282873_" d="M771.8,0v51.9h7.9V44c2,3.7,3.9,6.1,5.6,7.3
							c1.7,1.2,3.6,1.8,5.6,1.8c3,0,6-0.9,9-2.8l-3-8.2c-2.1,1.3-4.3,1.9-6.4,1.9c-1.9,0-3.7-0.6-5.2-1.7s-2.6-2.8-3.3-4.8
							c-1-3.1-1.5-6.5-1.5-10.2V0H771.8z"/>
					</g>
					<g>
						<path id="ArialMT-69" d="M805.2,61.5v10.1h8.8V61.5H805.2z M805.2,0v51.9h8.8V0H805.2z"/>
					</g>
					<g>
						<path id="ArialMT-61_00000147197678396534717890000015480449814670197181_" d="M861.2,6.4c-3.3-2.8-6.4-4.7-9.4-5.9
							c-3-1.1-6.2-1.7-9.7-1.7c-5.7,0-10.1,1.4-13.1,4.2s-4.6,6.3-4.6,10.7c0,2.5,0.6,4.9,1.7,7c1.2,2.1,2.7,3.8,4.5,5.1
							s4,2.2,6.3,2.9c1.7,0.5,4.3,0.9,7.8,1.3c7.1,0.8,12.3,1.8,15.7,3c0,1.2,0,2,0,2.3c0,3.6-0.8,6.1-2.5,7.6c-2.2,2-5.6,3-10,3
							c-4.1,0-7.2-0.7-9.2-2.2s-3.4-4-4.4-7.7l-8.6,1.2c0.8,3.7,2.1,6.6,3.9,8.9c1.8,2.3,4.4,4,7.8,5.2c3.4,1.2,7.3,1.8,11.8,1.8
							c4.4,0,8-0.5,10.8-1.6c2.8-1,4.8-2.4,6.1-3.9c1.3-1.6,2.2-3.6,2.7-6c0.3-1.5,0.4-4.2,0.4-8.1V21.7c0-8.2,0.2-13.3,0.6-15.5
							c0.4-2.2,1.1-4.2,2.2-6.2H863C862.1,1.8,861.5,4,861.2,6.4z M860.5,26c-3.2-1.3-8-2.4-14.4-3.3c-3.6-0.5-6.2-1.1-7.7-1.8
							c-1.5-0.6-2.6-1.6-3.5-2.8c-0.8-1.2-1.2-2.6-1.2-4.2c0-2.3,0.9-4.3,2.7-5.9c1.8-1.6,4.4-2.3,7.8-2.3c3.4,0,6.4,0.7,9,2.2
							c2.6,1.5,4.6,3.5,5.8,6.1c0.9,2,1.4,4.9,1.4,8.8V26z"/>
					</g>
					<g>
						<path id="ArialMT-6e_00000159469470253088713450000010151943708415755958_" d="M883,0v51.9h7.9v-7.4c3.8,5.7,9.3,8.5,16.5,8.5
							c3.1,0,6-0.6,8.6-1.7s4.6-2.6,5.9-4.4c1.3-1.8,2.2-4,2.7-6.5c0.3-1.6,0.5-4.5,0.5-8.5V0h-8.8v31.5c0,3.6-0.3,6.3-1,8
							c-0.7,1.8-1.9,3.2-3.6,4.2c-1.7,1.1-3.8,1.6-6.1,1.6c-3.8,0-7-1.2-9.7-3.6s-4.1-6.9-4.1-13.5V0H883z"/>
					</g>
					<g>
						<path id="ArialMT-63" d="M972.5,19l8.6-1.1c-0.9-6-3.4-10.6-7.3-14c-3.9-3.4-8.7-5-14.3-5c-7.1,0-12.8,2.3-17.1,7
							c-4.3,4.6-6.5,11.3-6.5,20c0,5.6,0.9,10.5,2.8,14.7c1.9,4.2,4.7,7.4,8.5,9.5c3.8,2.1,7.9,3.2,12.4,3.2
							c5.6,0,10.2-1.4,13.8-4.3c3.6-2.8,5.9-6.9,6.9-12.1l-8.5-1.3c-0.8,3.5-2.3,6.1-4.3,7.9c-2.1,1.8-4.6,2.6-7.5,2.6
							c-4.4,0-8-1.6-10.8-4.8c-2.8-3.2-4.1-8.2-4.1-15c0-7,1.3-12,4-15.2c2.7-3.2,6.2-4.7,10.5-4.7c3.4,0,6.3,1.1,8.6,3.2
							S971.8,14.6,972.5,19z"/>
					</g>
					<g>
						<path id="ArialMT-65_00000181074051082595216620000007869438839126414243_" d="M1024.1,16.7l9.1-1.1c-1.4-5.3-4.1-9.4-8-12.4
							c-3.9-2.9-8.8-4.4-14.8-4.4c-7.6,0-13.6,2.3-18,7c-4.4,4.7-6.7,11.2-6.7,19.7c0,8.7,2.2,15.5,6.7,20.3
							c4.5,4.8,10.3,7.2,17.5,7.2c6.9,0,12.6-2.4,17-7.1c4.4-4.7,6.6-11.4,6.6-19.9c0-0.5,0-1.3,0-2.3h-38.7
							c0.3-5.7,1.9-10.1,4.8-13.1c2.9-3,6.5-4.5,10.8-4.5c3.2,0,6,0.8,8.2,2.5C1021,10.3,1022.8,13,1024.1,16.7z M995.3,30.9h29
							c-0.4,4.4-1.5,7.6-3.3,9.8c-2.8,3.4-6.4,5.1-10.9,5.1c-4,0-7.4-1.3-10.2-4S995.6,35.4,995.3,30.9z"/>
					</g>
				</g>
			</g>
		</g>
		<g id="line2d_14">
			<g>
				<defs>
					<rect id="SVGID_00000047028604696336323270000006185559218488298938_" x="57.6" y="28.1" width="357.1" height="180.2"/>
				</defs>
				<clipPath id="SVGID_00000155123291927519735610000014730320870549942204_">
					<use xlink:href="#SVGID_00000047028604696336323270000006185559218488298938_"  style="overflow:visible;"/>
				</clipPath>
				
					<path style="clip-path:url(#SVGID_00000155123291927519735610000014730320870549942204_);fill:none;stroke:#000000;stroke-width:1.5;stroke-linecap:square;stroke-linejoin:round;" d="
					M73.8,199.7l36.1-2.7l36.1-6.7l36.1,3.6l36.1-6l36.1-4.4l36.1,12.5l36.1,3.7l36.1-10.4l36.1-1.8"/>
			</g>
		</g>
		<g id="line2d_15">
			<g>
				<defs>
					<rect id="SVGID_00000056393337895432675040000001643485436570778299_" x="57.6" y="28.1" width="357.1" height="180.2"/>
				</defs>
				<clipPath id="SVGID_00000138560206732775754690000014064484081012431545_">
					<use xlink:href="#SVGID_00000056393337895432675040000001643485436570778299_"  style="overflow:visible;"/>
				</clipPath>
				
					<path style="clip-path:url(#SVGID_00000138560206732775754690000014064484081012431545_);fill:none;stroke:#0000FF;stroke-width:1.5;stroke-linecap:square;stroke-linejoin:round;" d="
					M73.8,135.8l36.1,13.2l36.1-24.8l36.1-17l36.1-22.5l36.1,8.9l36.1,21.4l36.1-13.3l36.1,24.5l36.1-3.9"/>
			</g>
		</g>
		<g id="line2d_16">
			<g>
				<defs>
					<rect id="SVGID_00000179616760605440766250000002722831766645969317_" x="57.6" y="28.1" width="357.1" height="180.2"/>
				</defs>
				<clipPath id="SVGID_00000145031969446586412760000010293427942229865378_">
					<use xlink:href="#SVGID_00000179616760605440766250000002722831766645969317_"  style="overflow:visible;"/>
				</clipPath>
				
					<path style="clip-path:url(#SVGID_00000145031969446586412760000010293427942229865378_);fill:none;stroke:#FF0000;stroke-width:1.5;stroke-linecap:square;stroke-linejoin:round;" d="
					M73.8,88.5l36.1,37.8l36.1-4.9l36.1-14.4l36.1-47.6l36.1-5.3l36.1,46.4l36.1-2.4L362.4,78l36.1,0.3"/>
			</g>
		</g>
		<g id="patch_3">
			<path class="st11" d="M57.6,208.3V28.1"/>
		</g>
		<g id="patch_4">
			<path class="st11" d="M414.7,208.3V28.1"/>
		</g>
		<g id="patch_5">
			<path class="st11" d="M57.6,208.3h357.1"/>
		</g>
		<g id="patch_6">
			<path class="st11" d="M57.6,28.1h357.1"/>
		</g>
		<g id="legend_1">
			<g id="patch_7">
				<path class="st12" d="M366.6,58.4h43.9c0.8,0,1.2-0.4,1.2-1.2V32.3c0-0.8-0.4-1.2-1.2-1.2h-43.9c-0.8,0-1.2,0.4-1.2,1.2v24.9
					C365.4,58,365.8,58.4,366.6,58.4z"/>
			</g>
			<g id="line2d_17">
				<path class="st13" d="M367.8,35.7h6h6"/>
			</g>
			<g id="text_16">
				<g transform="translate(384.639375 37.774687)scale(0.06 -0.06)">
					<g>
						<path id="ArialMT-49" d="M9.3,0v71.6h9.5V0H9.3z"/>
					</g>
					<g>
						<path id="ArialMT-6d" d="M34.4,0v51.9h7.9v-7.3c1.6,2.5,3.8,4.6,6.5,6.1c2.7,1.6,5.8,2.3,9.2,2.3c3.8,0,7-0.8,9.5-2.4
							c2.5-1.6,4.2-3.8,5.2-6.7c4.1,6.1,9.4,9.1,16,9.1c5.1,0,9.1-1.4,11.9-4.3c2.8-2.8,4.2-7.2,4.2-13.2V0h-8.8v32.7
							c0,3.5-0.3,6-0.9,7.6c-0.6,1.6-1.6,2.8-3.1,3.7c-1.5,0.9-3.2,1.4-5.3,1.4c-3.6,0-6.7-1.2-9.1-3.6c-2.4-2.4-3.6-6.3-3.6-11.6V0
							h-8.8v33.7c0,3.9-0.7,6.8-2.2,8.8c-1.4,2-3.8,2.9-7,2.9c-2.5,0-4.8-0.7-6.9-2c-2.1-1.3-3.6-3.2-4.6-5.7
							c-0.9-2.5-1.4-6.1-1.4-10.8V0H34.4z"/>
					</g>
					<g>
						<path id="ArialMT-61_00000044863105239143494470000004591966226427118523_" d="M151.5,6.4c-3.3-2.8-6.4-4.7-9.4-5.9
							c-3-1.1-6.2-1.7-9.7-1.7c-5.7,0-10.1,1.4-13.1,4.2s-4.6,6.3-4.6,10.7c0,2.5,0.6,4.9,1.7,7c1.2,2.1,2.7,3.8,4.5,5.1
							s4,2.2,6.3,2.9c1.7,0.5,4.3,0.9,7.8,1.3c7.1,0.8,12.3,1.8,15.7,3c0,1.2,0,2,0,2.3c0,3.6-0.8,6.1-2.5,7.6c-2.2,2-5.6,3-10,3
							c-4.1,0-7.2-0.7-9.2-2.2c-2-1.4-3.4-4-4.4-7.7l-8.6,1.2c0.8,3.7,2.1,6.6,3.9,8.9c1.8,2.3,4.4,4,7.8,5.2
							c3.4,1.2,7.3,1.8,11.8,1.8c4.4,0,8-0.5,10.8-1.6c2.8-1,4.8-2.4,6.1-3.9c1.3-1.6,2.2-3.6,2.7-6c0.3-1.5,0.4-4.2,0.4-8.1V21.7
							c0-8.2,0.2-13.3,0.6-15.5c0.4-2.2,1.1-4.2,2.2-6.2h-9.2C152.4,1.8,151.8,4,151.5,6.4z M150.8,26c-3.2-1.3-8-2.4-14.4-3.3
							c-3.6-0.5-6.2-1.1-7.7-1.8c-1.5-0.6-2.6-1.6-3.5-2.8c-0.8-1.2-1.2-2.6-1.2-4.2c0-2.3,0.9-4.3,2.7-5.9c1.8-1.6,4.4-2.3,7.8-2.3
							c3.4,0,6.4,0.7,9,2.2c2.6,1.5,4.6,3.5,5.8,6.1c0.9,2,1.4,4.9,1.4,8.8V26z"/>
					</g>
					<g>
						<path id="ArialMT-67" d="M171.7-4.3l8.5-1.3c0.4-2.6,1.3-4.6,3-5.8c2.2-1.6,5.2-2.4,8.9-2.4c4.1,0,7.2,0.8,9.4,2.4
							c2.2,1.6,3.7,3.9,4.5,6.8c0.5,1.8,0.7,5.6,0.6,11.3c-3.8-4.5-8.6-6.8-14.3-6.8c-7.1,0-12.7,2.6-16.6,7.7
							c-3.9,5.1-5.9,11.3-5.9,18.5c0,4.9,0.9,9.5,2.7,13.7c1.8,4.2,4.4,7.4,7.8,9.7c3.4,2.3,7.4,3.4,12,3.4c6.1,0,11.2-2.5,15.1-7.4
							v6.2h8.1V7c0-8.1-0.8-13.8-2.5-17.2c-1.6-3.4-4.2-6-7.8-8c-3.6-2-7.9-2.9-13.2-2.9c-6.2,0-11.2,1.4-15,4.2
							C173.4-14.1,171.5-9.9,171.7-4.3z M178.9,26.9c0-6.8,1.3-11.8,4-14.9c2.7-3.1,6.1-4.7,10.2-4.7c4,0,7.4,1.6,10.1,4.7
							c2.7,3.1,4.1,8,4.1,14.6c0,6.3-1.4,11.1-4.2,14.3c-2.8,3.2-6.2,4.8-10.2,4.8c-3.9,0-7.2-1.6-10-4.8
							C180.3,37.8,178.9,33.1,178.9,26.9z"/>
					</g>
					<g>
						<path id="ArialMT-69_00000171714883409080436450000013338297535878071463_" d="M229,61.5v10.1h8.8V61.5H229z M229,0v51.9h8.8
							V0H229z"/>
					</g>
					<g>
						<path id="ArialMT-6e_00000036943402754027922390000017872986109606579092_" d="M251.1,0v51.9h7.9v-7.4
							c3.8,5.7,9.3,8.5,16.5,8.5c3.1,0,6-0.6,8.6-1.7s4.6-2.6,5.9-4.4c1.3-1.8,2.2-4,2.7-6.5c0.3-1.6,0.5-4.5,0.5-8.5V0h-8.8v31.5
							c0,3.6-0.3,6.3-1,8c-0.7,1.8-1.9,3.2-3.6,4.2c-1.7,1.1-3.8,1.6-6.1,1.6c-3.8,0-7-1.2-9.7-3.6s-4.1-6.9-4.1-13.5V0H251.1z"/>
					</g>
					<g>
						<path id="ArialMT-65_00000182522949704548833350000011791863556028980114_" d="M342.2,16.7l9.1-1.1c-1.4-5.3-4.1-9.4-8-12.4
							c-3.9-2.9-8.8-4.4-14.8-4.4c-7.6,0-13.6,2.3-18,7c-4.4,4.7-6.7,11.2-6.7,19.7c0,8.7,2.2,15.5,6.7,20.3
							C315,50.6,320.9,53,328,53c6.9,0,12.6-2.4,17-7.1c4.4-4.7,6.6-11.4,6.6-19.9c0-0.5,0-1.3,0-2.3h-38.7
							c0.3-5.7,1.9-10.1,4.8-13.1c2.9-3,6.5-4.5,10.8-4.5c3.2,0,6,0.8,8.2,2.5C339.1,10.3,340.9,13,342.2,16.7z M313.4,30.9h29
							c-0.4,4.4-1.5,7.6-3.3,9.8c-2.8,3.4-6.4,5.1-10.9,5.1c-4,0-7.4-1.3-10.2-4S313.7,35.4,313.4,30.9z"/>
					</g>
					<g>
						<path id="ArialMT-64" d="M396,0v6.5c-3.3-5.1-8.1-7.7-14.5-7.7c-4.1,0-7.9,1.1-11.4,3.4s-6.2,5.5-8.1,9.5
							c-1.9,4.1-2.8,8.8-2.8,14.1c0,5.2,0.9,9.9,2.6,14.1c1.7,4.2,4.3,7.4,7.8,9.7c3.5,2.2,7.3,3.4,11.6,3.4c3.1,0,5.9-0.7,8.3-2
							c2.4-1.3,4.4-3,6-5.1v25.7h8.7V0H396z M368.2,25.9c0-6.6,1.4-11.6,4.2-14.9c2.8-3.3,6.1-4.9,9.9-4.9c3.8,0,7.1,1.6,9.8,4.7
							c2.7,3.1,4,7.9,4,14.4c0,7.1-1.4,12.3-4.1,15.6c-2.7,3.3-6.1,5-10.1,5c-3.9,0-7.2-1.6-9.8-4.8
							C369.5,37.8,368.2,32.7,368.2,25.9z"/>
					</g>
				</g>
			</g>
			<g id="line2d_18">
				<path class="st14" d="M367.8,44.2h6h6"/>
			</g>
			<g id="text_17">
				<g transform="translate(384.639375 46.332188)scale(0.06 -0.06)">
					<g>
						<path id="ArialMT-4f_00000142882483722555718990000006573420944216962202_" d="M4.8,34.9C4.8,46.7,8,56,14.4,62.8
							c6.4,6.7,14.6,10.1,24.7,10.1c6.6,0,12.6-1.6,17.9-4.8c5.3-3.2,9.3-7.6,12.1-13.2c2.8-5.6,4.2-12.1,4.2-19.2
							c0-7.2-1.5-13.7-4.4-19.5c-2.9-5.7-7.1-10.1-12.5-13c-5.4-2.9-11.2-4.4-17.4-4.4c-6.7,0-12.8,1.6-18.1,4.9
							C15.7,6.9,11.7,11.4,8.9,17C6.2,22.6,4.8,28.6,4.8,34.9z M14.6,34.7c0-8.6,2.3-15.4,7-20.4C26.2,9.4,32,6.9,39,6.9
							c7.1,0,13,2.5,17.6,7.5c4.6,5,6.9,12.1,6.9,21.3c0,5.8-1,10.9-3,15.2s-4.9,7.7-8.7,10.1c-3.8,2.4-8,3.6-12.8,3.6
							c-6.7,0-12.5-2.3-17.3-6.9C17,53.2,14.6,45.5,14.6,34.7z"/>
					</g>
					<g>
						<path id="ArialMT-6e_00000018238732531371610910000017422842731563233675_" d="M84.4,0v51.9h7.9v-7.4
							c3.8,5.7,9.3,8.5,16.5,8.5c3.1,0,6-0.6,8.6-1.7s4.6-2.6,5.9-4.4c1.3-1.8,2.2-4,2.7-6.5c0.3-1.6,0.5-4.5,0.5-8.5V0h-8.8v31.5
							c0,3.6-0.3,6.3-1,8c-0.7,1.8-1.9,3.2-3.6,4.2c-1.7,1.1-3.8,1.6-6.1,1.6c-3.8,0-7-1.2-9.7-3.6s-4.1-6.9-4.1-13.5V0H84.4z"/>
					</g>
					<g>
						<path id="ArialMT-6c_00000026132361582258994920000002609119014794018221_" d="M139.8,0v71.6h8.8V0H139.8z"/>
					</g>
					<g>
						<path id="ArialMT-69_00000065788001573344359440000004908806402183805081_" d="M162.3,61.5v10.1h8.8V61.5H162.3z M162.3,0
							v51.9h8.8V0H162.3z"/>
					</g>
					<g>
						<path id="ArialMT-6e_00000016781036912161714510000003592701653931871418_" d="M184.4,0v51.9h7.9v-7.4
							c3.8,5.7,9.3,8.5,16.5,8.5c3.1,0,6-0.6,8.6-1.7s4.6-2.6,5.9-4.4c1.3-1.8,2.2-4,2.7-6.5c0.3-1.6,0.5-4.5,0.5-8.5V0h-8.8v31.5
							c0,3.6-0.3,6.3-1,8c-0.7,1.8-1.9,3.2-3.6,4.2c-1.7,1.1-3.8,1.6-6.1,1.6c-3.8,0-7-1.2-9.7-3.6s-4.1-6.9-4.1-13.5V0H184.4z"/>
					</g>
					<g>
						<path id="ArialMT-65_00000112611235675687264410000011692832568686084507_" d="M275.5,16.7l9.1-1.1c-1.4-5.3-4.1-9.4-8-12.4
							c-3.9-2.9-8.8-4.4-14.8-4.4c-7.6,0-13.6,2.3-18,7c-4.4,4.7-6.7,11.2-6.7,19.7c0,8.7,2.2,15.5,6.7,20.3
							c4.5,4.8,10.3,7.2,17.5,7.2c6.9,0,12.6-2.4,17-7.1c4.4-4.7,6.6-11.4,6.6-19.9c0-0.5,0-1.3,0-2.3h-38.7
							c0.3-5.7,1.9-10.1,4.8-13.1c2.9-3,6.5-4.5,10.8-4.5c3.2,0,6,0.8,8.2,2.5C272.4,10.3,274.2,13,275.5,16.7z M246.7,30.9h29
							c-0.4,4.4-1.5,7.6-3.3,9.8c-2.8,3.4-6.4,5.1-10.9,5.1c-4,0-7.4-1.3-10.2-4S247,35.4,246.7,30.9z"/>
					</g>
				</g>
			</g>
			<g id="line2d_19">
				<path class="st15" d="M367.8,52.7h6h6"/>
			</g>
			<g id="text_18">
				<g transform="translate(384.639375 54.819375)scale(0.06 -0.06)">
					<g>
						<path id="ArialMT-42" d="M7.3,0v71.6h26.9c5.5,0,9.9-0.7,13.2-2.2s5.9-3.7,7.8-6.7c1.9-3,2.8-6.2,2.8-9.5
							c0-3.1-0.8-5.9-2.5-8.6c-1.7-2.7-4.2-4.9-7.5-6.5c4.3-1.3,7.6-3.4,10-6.5c2.3-3.1,3.5-6.7,3.5-10.8c0-3.4-0.7-6.5-2.1-9.4
							c-1.4-2.9-3.2-5.1-5.2-6.7S49.3,2,46.2,1.2C43,0.4,39.2,0,34.6,0H7.3z M16.8,41.5h15.5c4.2,0,7.2,0.3,9,0.8
							c2.4,0.7,4.2,1.9,5.4,3.6c1.2,1.7,1.8,3.8,1.8,6.3c0,2.4-0.6,4.5-1.7,6.3c-1.1,1.8-2.8,3.1-4.9,3.7c-2.1,0.7-5.7,1-10.9,1
							H16.8V41.5z M16.8,8.5h17.8c3.1,0,5.2,0.1,6.4,0.3c2.2,0.4,4,1,5.5,1.9c1.5,0.9,2.7,2.2,3.6,4c0.9,1.7,1.4,3.7,1.4,6
							c0,2.7-0.7,5-2,7c-1.4,2-3.3,3.4-5.7,4.2c-2.4,0.8-5.9,1.2-10.5,1.2H16.8V8.5z"/>
					</g>
					<g>
						<path id="ArialMT-61_00000029736577500050393590000010827494097243508612_" d="M107.1,6.4c-3.3-2.8-6.4-4.7-9.4-5.9
							c-3-1.1-6.2-1.7-9.7-1.7C82.3-1.2,78,0.2,74.9,3s-4.6,6.3-4.6,10.7c0,2.5,0.6,4.9,1.7,7c1.2,2.1,2.7,3.8,4.5,5.1
							s4,2.2,6.3,2.9c1.7,0.5,4.3,0.9,7.8,1.3c7.1,0.8,12.3,1.8,15.7,3c0,1.2,0,2,0,2.3c0,3.6-0.8,6.1-2.5,7.6c-2.2,2-5.6,3-10,3
							c-4.1,0-7.2-0.7-9.2-2.2s-3.4-4-4.4-7.7l-8.6,1.2c0.8,3.7,2.1,6.6,3.9,8.9c1.8,2.3,4.4,4,7.8,5.2c3.4,1.2,7.3,1.8,11.8,1.8
							c4.4,0,8-0.5,10.8-1.6c2.8-1,4.8-2.4,6.1-3.9c1.3-1.6,2.2-3.6,2.7-6c0.3-1.5,0.4-4.2,0.4-8.1V21.7c0-8.2,0.2-13.3,0.6-15.5
							c0.4-2.2,1.1-4.2,2.2-6.2h-9.2C108,1.8,107.4,4,107.1,6.4z M106.4,26c-3.2-1.3-8-2.4-14.4-3.3c-3.6-0.5-6.2-1.1-7.7-1.8
							c-1.5-0.6-2.6-1.6-3.5-2.8c-0.8-1.2-1.2-2.6-1.2-4.2c0-2.3,0.9-4.3,2.7-5.9c1.8-1.6,4.4-2.3,7.8-2.3c3.4,0,6.4,0.7,9,2.2
							c2.6,1.5,4.6,3.5,5.8,6.1c0.9,2,1.4,4.9,1.4,8.8V26z"/>
					</g>
					<g>
						<path id="ArialMT-74_00000075162669534536949010000012114506315933888182_" d="M148.1,7.9l1.3-7.8c-2.5-0.5-4.7-0.8-6.6-0.8
							c-3.2,0-5.7,0.5-7.4,1.5c-1.8,1-3,2.3-3.7,4s-1.1,5.1-1.1,10.4V45h-6.4v6.8h6.4v12.8l8.7,5.3V51.9h8.8V45h-8.8V14.7
							c0-2.5,0.2-4.1,0.5-4.8c0.3-0.7,0.8-1.3,1.5-1.7c0.7-0.4,1.7-0.6,3-0.6C145.2,7.5,146.5,7.6,148.1,7.9z"/>
					</g>
					<g>
						<path id="ArialMT-63_00000080909490946769061920000015809952190042315927_" d="M190.5,19l8.6-1.1c-0.9-6-3.4-10.6-7.3-14
							c-3.9-3.4-8.7-5-14.3-5c-7.1,0-12.8,2.3-17.1,7c-4.3,4.6-6.5,11.3-6.5,20c0,5.6,0.9,10.5,2.8,14.7c1.9,4.2,4.7,7.4,8.5,9.5
							c3.8,2.1,7.9,3.2,12.4,3.2c5.6,0,10.2-1.4,13.8-4.3c3.6-2.8,5.9-6.9,6.9-12.1l-8.5-1.3c-0.8,3.5-2.3,6.1-4.3,7.9
							c-2.1,1.8-4.6,2.6-7.5,2.6c-4.4,0-8-1.6-10.8-4.8c-2.8-3.2-4.1-8.2-4.1-15c0-7,1.3-12,4-15.2c2.7-3.2,6.2-4.7,10.5-4.7
							c3.4,0,6.3,1.1,8.6,3.2S189.9,14.6,190.5,19z"/>
					</g>
					<g>
						<path id="ArialMT-68" d="M206.7,0v71.6h8.8V45.9c4.1,4.8,9.3,7.1,15.5,7.1c3.8,0,7.2-0.8,10-2.3c2.8-1.5,4.9-3.6,6.1-6.3
							s1.8-6.5,1.8-11.6V0h-8.8v32.9c0,4.4-1,7.6-2.9,9.6s-4.6,3-8.1,3c-2.6,0-5.1-0.7-7.4-2c-2.3-1.3-3.9-3.2-4.9-5.5
							c-1-2.3-1.5-5.5-1.5-9.6V0H206.7z"/>
					</g>
				</g>
			</g>
		</g>
	</g>
</g>
</svg>
